G04 #@! TF.GenerationSoftware,KiCad,Pcbnew,7.0.7*
G04 #@! TF.CreationDate,2023-08-22T15:23:37-04:00*
G04 #@! TF.ProjectId,1 - Backplkane,31202d20-4261-4636-9b70-6c6b616e652e,2*
G04 #@! TF.SameCoordinates,Original*
G04 #@! TF.FileFunction,Soldermask,Top*
G04 #@! TF.FilePolarity,Negative*
%FSLAX46Y46*%
G04 Gerber Fmt 4.6, Leading zero omitted, Abs format (unit mm)*
G04 Created by KiCad (PCBNEW 7.0.7) date 2023-08-22 15:23:37*
%MOMM*%
%LPD*%
G01*
G04 APERTURE LIST*
G04 Aperture macros list*
%AMRoundRect*
0 Rectangle with rounded corners*
0 $1 Rounding radius*
0 $2 $3 $4 $5 $6 $7 $8 $9 X,Y pos of 4 corners*
0 Add a 4 corners polygon primitive as box body*
4,1,4,$2,$3,$4,$5,$6,$7,$8,$9,$2,$3,0*
0 Add four circle primitives for the rounded corners*
1,1,$1+$1,$2,$3*
1,1,$1+$1,$4,$5*
1,1,$1+$1,$6,$7*
1,1,$1+$1,$8,$9*
0 Add four rect primitives between the rounded corners*
20,1,$1+$1,$2,$3,$4,$5,0*
20,1,$1+$1,$4,$5,$6,$7,0*
20,1,$1+$1,$6,$7,$8,$9,0*
20,1,$1+$1,$8,$9,$2,$3,0*%
G04 Aperture macros list end*
%ADD10C,0.800000*%
%ADD11C,6.400000*%
%ADD12R,1.600000X1.600000*%
%ADD13C,1.600000*%
%ADD14R,3.500000X3.500000*%
%ADD15RoundRect,0.750000X-1.000000X0.750000X-1.000000X-0.750000X1.000000X-0.750000X1.000000X0.750000X0*%
%ADD16RoundRect,0.875000X-0.875000X0.875000X-0.875000X-0.875000X0.875000X-0.875000X0.875000X0.875000X0*%
%ADD17O,3.200000X3.200000*%
%ADD18R,1.800000X1.800000*%
%ADD19O,1.800000X1.800000*%
%ADD20O,1.600000X1.600000*%
%ADD21R,1.638000X1.638000*%
%ADD22C,1.638000*%
%ADD23C,1.800000*%
%ADD24R,1.700000X1.700000*%
%ADD25O,1.700000X1.700000*%
%ADD26C,2.700000*%
G04 APERTURE END LIST*
D10*
X161430000Y-41910000D03*
X162132944Y-40212944D03*
X162132944Y-43607056D03*
X163830000Y-39510000D03*
D11*
X163830000Y-41910000D03*
D10*
X163830000Y-44310000D03*
X165527056Y-40212944D03*
X165527056Y-43607056D03*
X166230000Y-41910000D03*
D12*
X92710000Y-128270000D03*
D13*
X92710000Y-130770000D03*
D14*
X72331500Y-49434000D03*
D15*
X72331500Y-43434000D03*
D16*
X67631500Y-46434000D03*
D12*
X52070000Y-57062379D03*
D13*
X52070000Y-54562379D03*
D10*
X39510000Y-143510000D03*
X40212944Y-141812944D03*
X40212944Y-145207056D03*
X41910000Y-141110000D03*
D11*
X41910000Y-143510000D03*
D10*
X41910000Y-145910000D03*
X43607056Y-141812944D03*
X43607056Y-145207056D03*
X44310000Y-143510000D03*
D12*
X113030000Y-128357621D03*
D13*
X113030000Y-130857621D03*
D17*
X137195000Y-41910000D03*
D18*
X148295000Y-44450000D03*
D19*
X148295000Y-41910000D03*
X148295000Y-39370000D03*
D12*
X52070000Y-128270000D03*
D13*
X52070000Y-130770000D03*
X168910000Y-44450000D03*
D20*
X179070000Y-44450000D03*
D21*
X85090000Y-54610000D03*
D22*
X85090000Y-57150000D03*
X85090000Y-59690000D03*
X85090000Y-62230000D03*
X85090000Y-64770000D03*
X85090000Y-67310000D03*
X85090000Y-69850000D03*
X85090000Y-72390000D03*
X85090000Y-74930000D03*
X85090000Y-77470000D03*
X85090000Y-80010000D03*
X85090000Y-82550000D03*
X85090000Y-85090000D03*
X85090000Y-87630000D03*
X85090000Y-90170000D03*
X85090000Y-92710000D03*
X85090000Y-95250000D03*
X85090000Y-97790000D03*
X85090000Y-100330000D03*
X85090000Y-102870000D03*
X85090000Y-105410000D03*
X85090000Y-107950000D03*
X85090000Y-110490000D03*
X85090000Y-113030000D03*
X85090000Y-115570000D03*
X85090000Y-118110000D03*
X85090000Y-120650000D03*
X85090000Y-123190000D03*
X85090000Y-125730000D03*
X85090000Y-128270000D03*
X85090000Y-130810000D03*
X80010000Y-54610000D03*
X80010000Y-57150000D03*
X80010000Y-59690000D03*
X80010000Y-62230000D03*
X80010000Y-64770000D03*
X80010000Y-67310000D03*
X80010000Y-69850000D03*
X80010000Y-72390000D03*
X80010000Y-74930000D03*
X80010000Y-77470000D03*
X80010000Y-80010000D03*
X80010000Y-82550000D03*
X80010000Y-85090000D03*
X80010000Y-87630000D03*
X80010000Y-90170000D03*
X80010000Y-92710000D03*
X80010000Y-95250000D03*
X80010000Y-97790000D03*
X80010000Y-100330000D03*
X80010000Y-102870000D03*
X80010000Y-105410000D03*
X80010000Y-107950000D03*
X80010000Y-110490000D03*
X80010000Y-113030000D03*
X80010000Y-115570000D03*
X80010000Y-118110000D03*
X80010000Y-120650000D03*
X80010000Y-123190000D03*
X80010000Y-125730000D03*
X80010000Y-128270000D03*
X80010000Y-130810000D03*
D21*
X105410000Y-54610000D03*
D22*
X105410000Y-57150000D03*
X105410000Y-59690000D03*
X105410000Y-62230000D03*
X105410000Y-64770000D03*
X105410000Y-67310000D03*
X105410000Y-69850000D03*
X105410000Y-72390000D03*
X105410000Y-74930000D03*
X105410000Y-77470000D03*
X105410000Y-80010000D03*
X105410000Y-82550000D03*
X105410000Y-85090000D03*
X105410000Y-87630000D03*
X105410000Y-90170000D03*
X105410000Y-92710000D03*
X105410000Y-95250000D03*
X105410000Y-97790000D03*
X105410000Y-100330000D03*
X105410000Y-102870000D03*
X105410000Y-105410000D03*
X105410000Y-107950000D03*
X105410000Y-110490000D03*
X105410000Y-113030000D03*
X105410000Y-115570000D03*
X105410000Y-118110000D03*
X105410000Y-120650000D03*
X105410000Y-123190000D03*
X105410000Y-125730000D03*
X105410000Y-128270000D03*
X105410000Y-130810000D03*
X100330000Y-54610000D03*
X100330000Y-57150000D03*
X100330000Y-59690000D03*
X100330000Y-62230000D03*
X100330000Y-64770000D03*
X100330000Y-67310000D03*
X100330000Y-69850000D03*
X100330000Y-72390000D03*
X100330000Y-74930000D03*
X100330000Y-77470000D03*
X100330000Y-80010000D03*
X100330000Y-82550000D03*
X100330000Y-85090000D03*
X100330000Y-87630000D03*
X100330000Y-90170000D03*
X100330000Y-92710000D03*
X100330000Y-95250000D03*
X100330000Y-97790000D03*
X100330000Y-100330000D03*
X100330000Y-102870000D03*
X100330000Y-105410000D03*
X100330000Y-107950000D03*
X100330000Y-110490000D03*
X100330000Y-113030000D03*
X100330000Y-115570000D03*
X100330000Y-118110000D03*
X100330000Y-120650000D03*
X100330000Y-123190000D03*
X100330000Y-125730000D03*
X100330000Y-128270000D03*
X100330000Y-130810000D03*
D21*
X186690000Y-54610000D03*
D22*
X186690000Y-57150000D03*
X186690000Y-59690000D03*
X186690000Y-62230000D03*
X186690000Y-64770000D03*
X186690000Y-67310000D03*
X186690000Y-69850000D03*
X186690000Y-72390000D03*
X186690000Y-74930000D03*
X186690000Y-77470000D03*
X186690000Y-80010000D03*
X186690000Y-82550000D03*
X186690000Y-85090000D03*
X186690000Y-87630000D03*
X186690000Y-90170000D03*
X186690000Y-92710000D03*
X186690000Y-95250000D03*
X186690000Y-97790000D03*
X186690000Y-100330000D03*
X186690000Y-102870000D03*
X186690000Y-105410000D03*
X186690000Y-107950000D03*
X186690000Y-110490000D03*
X186690000Y-113030000D03*
X186690000Y-115570000D03*
X186690000Y-118110000D03*
X186690000Y-120650000D03*
X186690000Y-123190000D03*
X186690000Y-125730000D03*
X186690000Y-128270000D03*
X186690000Y-130810000D03*
X181610000Y-54610000D03*
X181610000Y-57150000D03*
X181610000Y-59690000D03*
X181610000Y-62230000D03*
X181610000Y-64770000D03*
X181610000Y-67310000D03*
X181610000Y-69850000D03*
X181610000Y-72390000D03*
X181610000Y-74930000D03*
X181610000Y-77470000D03*
X181610000Y-80010000D03*
X181610000Y-82550000D03*
X181610000Y-85090000D03*
X181610000Y-87630000D03*
X181610000Y-90170000D03*
X181610000Y-92710000D03*
X181610000Y-95250000D03*
X181610000Y-97790000D03*
X181610000Y-100330000D03*
X181610000Y-102870000D03*
X181610000Y-105410000D03*
X181610000Y-107950000D03*
X181610000Y-110490000D03*
X181610000Y-113030000D03*
X181610000Y-115570000D03*
X181610000Y-118110000D03*
X181610000Y-120650000D03*
X181610000Y-123190000D03*
X181610000Y-125730000D03*
X181610000Y-128270000D03*
X181610000Y-130810000D03*
D18*
X182875000Y-44450000D03*
D23*
X185415000Y-44450000D03*
D13*
X168910000Y-39370000D03*
D20*
X179070000Y-39370000D03*
D12*
X113030000Y-57062379D03*
D13*
X113030000Y-54562379D03*
D12*
X92710000Y-57062379D03*
D13*
X92710000Y-54562379D03*
D21*
X64770000Y-54610000D03*
D22*
X64770000Y-57150000D03*
X64770000Y-59690000D03*
X64770000Y-62230000D03*
X64770000Y-64770000D03*
X64770000Y-67310000D03*
X64770000Y-69850000D03*
X64770000Y-72390000D03*
X64770000Y-74930000D03*
X64770000Y-77470000D03*
X64770000Y-80010000D03*
X64770000Y-82550000D03*
X64770000Y-85090000D03*
X64770000Y-87630000D03*
X64770000Y-90170000D03*
X64770000Y-92710000D03*
X64770000Y-95250000D03*
X64770000Y-97790000D03*
X64770000Y-100330000D03*
X64770000Y-102870000D03*
X64770000Y-105410000D03*
X64770000Y-107950000D03*
X64770000Y-110490000D03*
X64770000Y-113030000D03*
X64770000Y-115570000D03*
X64770000Y-118110000D03*
X64770000Y-120650000D03*
X64770000Y-123190000D03*
X64770000Y-125730000D03*
X64770000Y-128270000D03*
X64770000Y-130810000D03*
X59690000Y-54610000D03*
X59690000Y-57150000D03*
X59690000Y-59690000D03*
X59690000Y-62230000D03*
X59690000Y-64770000D03*
X59690000Y-67310000D03*
X59690000Y-69850000D03*
X59690000Y-72390000D03*
X59690000Y-74930000D03*
X59690000Y-77470000D03*
X59690000Y-80010000D03*
X59690000Y-82550000D03*
X59690000Y-85090000D03*
X59690000Y-87630000D03*
X59690000Y-90170000D03*
X59690000Y-92710000D03*
X59690000Y-95250000D03*
X59690000Y-97790000D03*
X59690000Y-100330000D03*
X59690000Y-102870000D03*
X59690000Y-105410000D03*
X59690000Y-107950000D03*
X59690000Y-110490000D03*
X59690000Y-113030000D03*
X59690000Y-115570000D03*
X59690000Y-118110000D03*
X59690000Y-120650000D03*
X59690000Y-123190000D03*
X59690000Y-125730000D03*
X59690000Y-128270000D03*
X59690000Y-130810000D03*
D10*
X110630000Y-143510000D03*
X111332944Y-141812944D03*
X111332944Y-145207056D03*
X113030000Y-141110000D03*
D11*
X113030000Y-143510000D03*
D10*
X113030000Y-145910000D03*
X114727056Y-141812944D03*
X114727056Y-145207056D03*
X115430000Y-143510000D03*
D12*
X133350000Y-57062379D03*
D13*
X133350000Y-54562379D03*
D12*
X153670000Y-57062379D03*
D13*
X153670000Y-54562379D03*
D24*
X143525000Y-158115000D03*
D25*
X146065000Y-158115000D03*
X148605000Y-158115000D03*
X151145000Y-158115000D03*
X153685000Y-158115000D03*
X156225000Y-158115000D03*
X158765000Y-158115000D03*
X161305000Y-158115000D03*
X163845000Y-158115000D03*
X166385000Y-158115000D03*
X168925000Y-158115000D03*
X171465000Y-158115000D03*
X174005000Y-158115000D03*
X176545000Y-158115000D03*
X179085000Y-158115000D03*
X181625000Y-158115000D03*
X184165000Y-158115000D03*
X186705000Y-158115000D03*
D12*
X173990000Y-128270000D03*
D13*
X173990000Y-130770000D03*
D26*
X56515000Y-46990000D03*
X56515000Y-42290000D03*
X56515000Y-37590000D03*
X43815000Y-44830000D03*
X43815000Y-39750000D03*
D12*
X173990000Y-57150000D03*
D13*
X173990000Y-54650000D03*
D10*
X59830000Y-41910000D03*
X60532944Y-40212944D03*
X60532944Y-43607056D03*
X62230000Y-39510000D03*
D11*
X62230000Y-41910000D03*
D10*
X62230000Y-44310000D03*
X63927056Y-40212944D03*
X63927056Y-43607056D03*
X64630000Y-41910000D03*
D18*
X182875000Y-39370000D03*
D23*
X185415000Y-39370000D03*
D12*
X72390000Y-57150000D03*
D13*
X72390000Y-54650000D03*
D12*
X133350000Y-128357621D03*
D13*
X133350000Y-130857621D03*
D21*
X44450000Y-54610000D03*
D22*
X44450000Y-57150000D03*
X44450000Y-59690000D03*
X44450000Y-62230000D03*
X44450000Y-64770000D03*
X44450000Y-67310000D03*
X44450000Y-69850000D03*
X44450000Y-72390000D03*
X44450000Y-74930000D03*
X44450000Y-77470000D03*
X44450000Y-80010000D03*
X44450000Y-82550000D03*
X44450000Y-85090000D03*
X44450000Y-87630000D03*
X44450000Y-90170000D03*
X44450000Y-92710000D03*
X44450000Y-95250000D03*
X44450000Y-97790000D03*
X44450000Y-100330000D03*
X44450000Y-102870000D03*
X44450000Y-105410000D03*
X44450000Y-107950000D03*
X44450000Y-110490000D03*
X44450000Y-113030000D03*
X44450000Y-115570000D03*
X44450000Y-118110000D03*
X44450000Y-120650000D03*
X44450000Y-123190000D03*
X44450000Y-125730000D03*
X44450000Y-128270000D03*
X44450000Y-130810000D03*
X39370000Y-54610000D03*
X39370000Y-57150000D03*
X39370000Y-59690000D03*
X39370000Y-62230000D03*
X39370000Y-64770000D03*
X39370000Y-67310000D03*
X39370000Y-69850000D03*
X39370000Y-72390000D03*
X39370000Y-74930000D03*
X39370000Y-77470000D03*
X39370000Y-80010000D03*
X39370000Y-82550000D03*
X39370000Y-85090000D03*
X39370000Y-87630000D03*
X39370000Y-90170000D03*
X39370000Y-92710000D03*
X39370000Y-95250000D03*
X39370000Y-97790000D03*
X39370000Y-100330000D03*
X39370000Y-102870000D03*
X39370000Y-105410000D03*
X39370000Y-107950000D03*
X39370000Y-110490000D03*
X39370000Y-113030000D03*
X39370000Y-115570000D03*
X39370000Y-118110000D03*
X39370000Y-120650000D03*
X39370000Y-123190000D03*
X39370000Y-125730000D03*
X39370000Y-128270000D03*
X39370000Y-130810000D03*
D24*
X39375000Y-158115000D03*
D25*
X41915000Y-158115000D03*
X44455000Y-158115000D03*
X46995000Y-158115000D03*
X49535000Y-158115000D03*
X52075000Y-158115000D03*
X54615000Y-158115000D03*
X57155000Y-158115000D03*
X59695000Y-158115000D03*
X62235000Y-158115000D03*
X64775000Y-158115000D03*
X67315000Y-158115000D03*
X69855000Y-158115000D03*
X72395000Y-158115000D03*
X74935000Y-158115000D03*
X77475000Y-158115000D03*
X80015000Y-158115000D03*
X82555000Y-158115000D03*
X85095000Y-158115000D03*
X87635000Y-158115000D03*
X90175000Y-158115000D03*
X92715000Y-158115000D03*
X95255000Y-158115000D03*
X97795000Y-158115000D03*
X100335000Y-158115000D03*
X102875000Y-158115000D03*
X105415000Y-158115000D03*
X107955000Y-158115000D03*
X110495000Y-158115000D03*
X113035000Y-158115000D03*
X115575000Y-158115000D03*
X118115000Y-158115000D03*
X120655000Y-158115000D03*
X123195000Y-158115000D03*
X125735000Y-158115000D03*
X128275000Y-158115000D03*
X130815000Y-158115000D03*
X133355000Y-158115000D03*
X135895000Y-158115000D03*
X138435000Y-158115000D03*
D21*
X125730000Y-54610000D03*
D22*
X125730000Y-57150000D03*
X125730000Y-59690000D03*
X125730000Y-62230000D03*
X125730000Y-64770000D03*
X125730000Y-67310000D03*
X125730000Y-69850000D03*
X125730000Y-72390000D03*
X125730000Y-74930000D03*
X125730000Y-77470000D03*
X125730000Y-80010000D03*
X125730000Y-82550000D03*
X125730000Y-85090000D03*
X125730000Y-87630000D03*
X125730000Y-90170000D03*
X125730000Y-92710000D03*
X125730000Y-95250000D03*
X125730000Y-97790000D03*
X125730000Y-100330000D03*
X125730000Y-102870000D03*
X125730000Y-105410000D03*
X125730000Y-107950000D03*
X125730000Y-110490000D03*
X125730000Y-113030000D03*
X125730000Y-115570000D03*
X125730000Y-118110000D03*
X125730000Y-120650000D03*
X125730000Y-123190000D03*
X125730000Y-125730000D03*
X125730000Y-128270000D03*
X125730000Y-130810000D03*
X120650000Y-54610000D03*
X120650000Y-57150000D03*
X120650000Y-59690000D03*
X120650000Y-62230000D03*
X120650000Y-64770000D03*
X120650000Y-67310000D03*
X120650000Y-69850000D03*
X120650000Y-72390000D03*
X120650000Y-74930000D03*
X120650000Y-77470000D03*
X120650000Y-80010000D03*
X120650000Y-82550000D03*
X120650000Y-85090000D03*
X120650000Y-87630000D03*
X120650000Y-90170000D03*
X120650000Y-92710000D03*
X120650000Y-95250000D03*
X120650000Y-97790000D03*
X120650000Y-100330000D03*
X120650000Y-102870000D03*
X120650000Y-105410000D03*
X120650000Y-107950000D03*
X120650000Y-110490000D03*
X120650000Y-113030000D03*
X120650000Y-115570000D03*
X120650000Y-118110000D03*
X120650000Y-120650000D03*
X120650000Y-123190000D03*
X120650000Y-125730000D03*
X120650000Y-128270000D03*
X120650000Y-130810000D03*
D10*
X110630000Y-41910000D03*
X111332944Y-40212944D03*
X111332944Y-43607056D03*
X113030000Y-39510000D03*
D11*
X113030000Y-41910000D03*
D10*
X113030000Y-44310000D03*
X114727056Y-40212944D03*
X114727056Y-43607056D03*
X115430000Y-41910000D03*
D12*
X72390000Y-128357621D03*
D13*
X72390000Y-130857621D03*
D12*
X153670000Y-128357621D03*
D13*
X153670000Y-130857621D03*
D10*
X181750000Y-143510000D03*
X182452944Y-141812944D03*
X182452944Y-145207056D03*
X184150000Y-141110000D03*
D11*
X184150000Y-143510000D03*
D10*
X184150000Y-145910000D03*
X185847056Y-141812944D03*
X185847056Y-145207056D03*
X186550000Y-143510000D03*
D21*
X166370000Y-54610000D03*
D22*
X166370000Y-57150000D03*
X166370000Y-59690000D03*
X166370000Y-62230000D03*
X166370000Y-64770000D03*
X166370000Y-67310000D03*
X166370000Y-69850000D03*
X166370000Y-72390000D03*
X166370000Y-74930000D03*
X166370000Y-77470000D03*
X166370000Y-80010000D03*
X166370000Y-82550000D03*
X166370000Y-85090000D03*
X166370000Y-87630000D03*
X166370000Y-90170000D03*
X166370000Y-92710000D03*
X166370000Y-95250000D03*
X166370000Y-97790000D03*
X166370000Y-100330000D03*
X166370000Y-102870000D03*
X166370000Y-105410000D03*
X166370000Y-107950000D03*
X166370000Y-110490000D03*
X166370000Y-113030000D03*
X166370000Y-115570000D03*
X166370000Y-118110000D03*
X166370000Y-120650000D03*
X166370000Y-123190000D03*
X166370000Y-125730000D03*
X166370000Y-128270000D03*
X166370000Y-130810000D03*
X161290000Y-54610000D03*
X161290000Y-57150000D03*
X161290000Y-59690000D03*
X161290000Y-62230000D03*
X161290000Y-64770000D03*
X161290000Y-67310000D03*
X161290000Y-69850000D03*
X161290000Y-72390000D03*
X161290000Y-74930000D03*
X161290000Y-77470000D03*
X161290000Y-80010000D03*
X161290000Y-82550000D03*
X161290000Y-85090000D03*
X161290000Y-87630000D03*
X161290000Y-90170000D03*
X161290000Y-92710000D03*
X161290000Y-95250000D03*
X161290000Y-97790000D03*
X161290000Y-100330000D03*
X161290000Y-102870000D03*
X161290000Y-105410000D03*
X161290000Y-107950000D03*
X161290000Y-110490000D03*
X161290000Y-113030000D03*
X161290000Y-115570000D03*
X161290000Y-118110000D03*
X161290000Y-120650000D03*
X161290000Y-123190000D03*
X161290000Y-125730000D03*
X161290000Y-128270000D03*
X161290000Y-130810000D03*
D21*
X146050000Y-54610000D03*
D22*
X146050000Y-57150000D03*
X146050000Y-59690000D03*
X146050000Y-62230000D03*
X146050000Y-64770000D03*
X146050000Y-67310000D03*
X146050000Y-69850000D03*
X146050000Y-72390000D03*
X146050000Y-74930000D03*
X146050000Y-77470000D03*
X146050000Y-80010000D03*
X146050000Y-82550000D03*
X146050000Y-85090000D03*
X146050000Y-87630000D03*
X146050000Y-90170000D03*
X146050000Y-92710000D03*
X146050000Y-95250000D03*
X146050000Y-97790000D03*
X146050000Y-100330000D03*
X146050000Y-102870000D03*
X146050000Y-105410000D03*
X146050000Y-107950000D03*
X146050000Y-110490000D03*
X146050000Y-113030000D03*
X146050000Y-115570000D03*
X146050000Y-118110000D03*
X146050000Y-120650000D03*
X146050000Y-123190000D03*
X146050000Y-125730000D03*
X146050000Y-128270000D03*
X146050000Y-130810000D03*
X140970000Y-54610000D03*
X140970000Y-57150000D03*
X140970000Y-59690000D03*
X140970000Y-62230000D03*
X140970000Y-64770000D03*
X140970000Y-67310000D03*
X140970000Y-69850000D03*
X140970000Y-72390000D03*
X140970000Y-74930000D03*
X140970000Y-77470000D03*
X140970000Y-80010000D03*
X140970000Y-82550000D03*
X140970000Y-85090000D03*
X140970000Y-87630000D03*
X140970000Y-90170000D03*
X140970000Y-92710000D03*
X140970000Y-95250000D03*
X140970000Y-97790000D03*
X140970000Y-100330000D03*
X140970000Y-102870000D03*
X140970000Y-105410000D03*
X140970000Y-107950000D03*
X140970000Y-110490000D03*
X140970000Y-113030000D03*
X140970000Y-115570000D03*
X140970000Y-118110000D03*
X140970000Y-120650000D03*
X140970000Y-123190000D03*
X140970000Y-125730000D03*
X140970000Y-128270000D03*
X140970000Y-130810000D03*
M02*
