%TF.GenerationSoftware,KiCad,Pcbnew,7.0.7*%
%TF.CreationDate,2023-08-22T15:23:47-04:00*%
%TF.ProjectId,1 - Backplkane,31202d20-4261-4636-9b70-6c6b616e652e,2*%
%TF.SameCoordinates,Original*%
%TF.FileFunction,Drillmap*%
%TF.FilePolarity,Positive*%
%FSLAX45Y45*%
G04 Gerber Fmt 4.5, Leading zero omitted, Abs format (unit mm)*
G04 Created by KiCad (PCBNEW 7.0.7) date 2023-08-22 15:23:47*
%MOMM*%
%LPD*%
G01*
G04 APERTURE LIST*
%ADD10C,0.100000*%
%ADD11C,0.200000*%
%ADD12C,0.050000*%
%ADD13C,0.080000*%
%ADD14C,0.090000*%
%ADD15C,0.109220*%
%ADD16C,0.180000*%
%ADD17C,0.320000*%
G04 APERTURE END LIST*
D10*
X19050000Y-3556000D02*
X19050000Y-16002000D01*
X3556000Y-16002000D02*
X19050000Y-16002000D01*
X3556000Y-16002000D02*
X3556000Y-3556000D01*
X19050000Y-3556000D02*
X3556000Y-3556000D01*
D11*
D12*
X3926000Y-14326000D02*
X3976000Y-14376000D01*
X3976000Y-14326000D02*
X3926000Y-14376000D01*
X3996294Y-14156294D02*
X4046294Y-14206294D01*
X4046294Y-14156294D02*
X3996294Y-14206294D01*
X3996294Y-14495706D02*
X4046294Y-14545706D01*
X4046294Y-14495706D02*
X3996294Y-14545706D01*
X4166000Y-14086000D02*
X4216000Y-14136000D01*
X4216000Y-14086000D02*
X4166000Y-14136000D01*
X4166000Y-14566000D02*
X4216000Y-14616000D01*
X4216000Y-14566000D02*
X4166000Y-14616000D01*
X4335706Y-14156294D02*
X4385706Y-14206294D01*
X4385706Y-14156294D02*
X4335706Y-14206294D01*
X4335706Y-14495706D02*
X4385706Y-14545706D01*
X4385706Y-14495706D02*
X4335706Y-14545706D01*
X4406000Y-14326000D02*
X4456000Y-14376000D01*
X4456000Y-14326000D02*
X4406000Y-14376000D01*
X5958000Y-4166000D02*
X6008000Y-4216000D01*
X6008000Y-4166000D02*
X5958000Y-4216000D01*
X6028294Y-3996294D02*
X6078294Y-4046294D01*
X6078294Y-3996294D02*
X6028294Y-4046294D01*
X6028294Y-4335706D02*
X6078294Y-4385706D01*
X6078294Y-4335706D02*
X6028294Y-4385706D01*
X6198000Y-3926000D02*
X6248000Y-3976000D01*
X6248000Y-3926000D02*
X6198000Y-3976000D01*
X6198000Y-4406000D02*
X6248000Y-4456000D01*
X6248000Y-4406000D02*
X6198000Y-4456000D01*
X6367706Y-3996294D02*
X6417706Y-4046294D01*
X6417706Y-3996294D02*
X6367706Y-4046294D01*
X6367706Y-4335706D02*
X6417706Y-4385706D01*
X6417706Y-4335706D02*
X6367706Y-4385706D01*
X6438000Y-4166000D02*
X6488000Y-4216000D01*
X6488000Y-4166000D02*
X6438000Y-4216000D01*
X11038000Y-4166000D02*
X11088000Y-4216000D01*
X11088000Y-4166000D02*
X11038000Y-4216000D01*
X11038000Y-14326000D02*
X11088000Y-14376000D01*
X11088000Y-14326000D02*
X11038000Y-14376000D01*
X11108294Y-3996294D02*
X11158294Y-4046294D01*
X11158294Y-3996294D02*
X11108294Y-4046294D01*
X11108294Y-4335706D02*
X11158294Y-4385706D01*
X11158294Y-4335706D02*
X11108294Y-4385706D01*
X11108294Y-14156294D02*
X11158294Y-14206294D01*
X11158294Y-14156294D02*
X11108294Y-14206294D01*
X11108294Y-14495706D02*
X11158294Y-14545706D01*
X11158294Y-14495706D02*
X11108294Y-14545706D01*
X11278000Y-3926000D02*
X11328000Y-3976000D01*
X11328000Y-3926000D02*
X11278000Y-3976000D01*
X11278000Y-4406000D02*
X11328000Y-4456000D01*
X11328000Y-4406000D02*
X11278000Y-4456000D01*
X11278000Y-14086000D02*
X11328000Y-14136000D01*
X11328000Y-14086000D02*
X11278000Y-14136000D01*
X11278000Y-14566000D02*
X11328000Y-14616000D01*
X11328000Y-14566000D02*
X11278000Y-14616000D01*
X11447706Y-3996294D02*
X11497706Y-4046294D01*
X11497706Y-3996294D02*
X11447706Y-4046294D01*
X11447706Y-4335706D02*
X11497706Y-4385706D01*
X11497706Y-4335706D02*
X11447706Y-4385706D01*
X11447706Y-14156294D02*
X11497706Y-14206294D01*
X11497706Y-14156294D02*
X11447706Y-14206294D01*
X11447706Y-14495706D02*
X11497706Y-14545706D01*
X11497706Y-14495706D02*
X11447706Y-14545706D01*
X11518000Y-4166000D02*
X11568000Y-4216000D01*
X11568000Y-4166000D02*
X11518000Y-4216000D01*
X11518000Y-14326000D02*
X11568000Y-14376000D01*
X11568000Y-14326000D02*
X11518000Y-14376000D01*
X16118000Y-4166000D02*
X16168000Y-4216000D01*
X16168000Y-4166000D02*
X16118000Y-4216000D01*
X16188294Y-3996294D02*
X16238294Y-4046294D01*
X16238294Y-3996294D02*
X16188294Y-4046294D01*
X16188294Y-4335706D02*
X16238294Y-4385706D01*
X16238294Y-4335706D02*
X16188294Y-4385706D01*
X16358000Y-3926000D02*
X16408000Y-3976000D01*
X16408000Y-3926000D02*
X16358000Y-3976000D01*
X16358000Y-4406000D02*
X16408000Y-4456000D01*
X16408000Y-4406000D02*
X16358000Y-4456000D01*
X16527706Y-3996294D02*
X16577706Y-4046294D01*
X16577706Y-3996294D02*
X16527706Y-4046294D01*
X16527706Y-4335706D02*
X16577706Y-4385706D01*
X16577706Y-4335706D02*
X16527706Y-4385706D01*
X16598000Y-4166000D02*
X16648000Y-4216000D01*
X16648000Y-4166000D02*
X16598000Y-4216000D01*
X18150000Y-14326000D02*
X18200000Y-14376000D01*
X18200000Y-14326000D02*
X18150000Y-14376000D01*
X18220294Y-14156294D02*
X18270294Y-14206294D01*
X18270294Y-14156294D02*
X18220294Y-14206294D01*
X18220294Y-14495706D02*
X18270294Y-14545706D01*
X18270294Y-14495706D02*
X18220294Y-14545706D01*
X18390000Y-14086000D02*
X18440000Y-14136000D01*
X18440000Y-14086000D02*
X18390000Y-14136000D01*
X18390000Y-14566000D02*
X18440000Y-14616000D01*
X18440000Y-14566000D02*
X18390000Y-14616000D01*
X18559706Y-14156294D02*
X18609706Y-14206294D01*
X18609706Y-14156294D02*
X18559706Y-14206294D01*
X18559706Y-14495706D02*
X18609706Y-14545706D01*
X18609706Y-14495706D02*
X18559706Y-14545706D01*
X18630000Y-14326000D02*
X18680000Y-14376000D01*
X18680000Y-14326000D02*
X18630000Y-14376000D01*
D13*
X5247000Y-5456238D02*
G75*
G03*
X5247000Y-5456238I-40000J0D01*
G01*
X5247000Y-5706238D02*
G75*
G03*
X5247000Y-5706238I-40000J0D01*
G01*
X5247000Y-12827000D02*
G75*
G03*
X5247000Y-12827000I-40000J0D01*
G01*
X5247000Y-13077000D02*
G75*
G03*
X5247000Y-13077000I-40000J0D01*
G01*
X7279000Y-5465000D02*
G75*
G03*
X7279000Y-5465000I-40000J0D01*
G01*
X7279000Y-5715000D02*
G75*
G03*
X7279000Y-5715000I-40000J0D01*
G01*
X7279000Y-12835762D02*
G75*
G03*
X7279000Y-12835762I-40000J0D01*
G01*
X7279000Y-13085762D02*
G75*
G03*
X7279000Y-13085762I-40000J0D01*
G01*
X9311000Y-5456238D02*
G75*
G03*
X9311000Y-5456238I-40000J0D01*
G01*
X9311000Y-5706238D02*
G75*
G03*
X9311000Y-5706238I-40000J0D01*
G01*
X9311000Y-12827000D02*
G75*
G03*
X9311000Y-12827000I-40000J0D01*
G01*
X9311000Y-13077000D02*
G75*
G03*
X9311000Y-13077000I-40000J0D01*
G01*
X11343000Y-5456238D02*
G75*
G03*
X11343000Y-5456238I-40000J0D01*
G01*
X11343000Y-5706238D02*
G75*
G03*
X11343000Y-5706238I-40000J0D01*
G01*
X11343000Y-12835762D02*
G75*
G03*
X11343000Y-12835762I-40000J0D01*
G01*
X11343000Y-13085762D02*
G75*
G03*
X11343000Y-13085762I-40000J0D01*
G01*
X13375000Y-5456238D02*
G75*
G03*
X13375000Y-5456238I-40000J0D01*
G01*
X13375000Y-5706238D02*
G75*
G03*
X13375000Y-5706238I-40000J0D01*
G01*
X13375000Y-12835762D02*
G75*
G03*
X13375000Y-12835762I-40000J0D01*
G01*
X13375000Y-13085762D02*
G75*
G03*
X13375000Y-13085762I-40000J0D01*
G01*
X15407000Y-5456238D02*
G75*
G03*
X15407000Y-5456238I-40000J0D01*
G01*
X15407000Y-5706238D02*
G75*
G03*
X15407000Y-5706238I-40000J0D01*
G01*
X15407000Y-12835762D02*
G75*
G03*
X15407000Y-12835762I-40000J0D01*
G01*
X15407000Y-13085762D02*
G75*
G03*
X15407000Y-13085762I-40000J0D01*
G01*
X16931000Y-3937000D02*
G75*
G03*
X16931000Y-3937000I-40000J0D01*
G01*
X16931000Y-4445000D02*
G75*
G03*
X16931000Y-4445000I-40000J0D01*
G01*
X17439000Y-5465000D02*
G75*
G03*
X17439000Y-5465000I-40000J0D01*
G01*
X17439000Y-5715000D02*
G75*
G03*
X17439000Y-5715000I-40000J0D01*
G01*
X17439000Y-12827000D02*
G75*
G03*
X17439000Y-12827000I-40000J0D01*
G01*
X17439000Y-13077000D02*
G75*
G03*
X17439000Y-13077000I-40000J0D01*
G01*
X17947000Y-3937000D02*
G75*
G03*
X17947000Y-3937000I-40000J0D01*
G01*
X17947000Y-4445000D02*
G75*
G03*
X17947000Y-4445000I-40000J0D01*
G01*
D14*
X18287500Y-3892000D02*
X18287500Y-3982000D01*
X18242500Y-3937000D02*
X18332500Y-3937000D01*
X18287500Y-4400000D02*
X18287500Y-4490000D01*
X18242500Y-4445000D02*
X18332500Y-4445000D01*
X18541500Y-3892000D02*
X18541500Y-3982000D01*
X18496500Y-3937000D02*
X18586500Y-3937000D01*
X18541500Y-4400000D02*
X18541500Y-4490000D01*
X18496500Y-4445000D02*
X18586500Y-4445000D01*
D10*
X3972856Y-15846856D02*
X3972856Y-15776144D01*
X3902144Y-15776144D01*
X3902144Y-15846856D01*
X3972856Y-15846856D01*
X4226856Y-15846856D02*
X4226856Y-15776144D01*
X4156144Y-15776144D01*
X4156144Y-15846856D01*
X4226856Y-15846856D01*
X4480856Y-15846856D02*
X4480856Y-15776144D01*
X4410144Y-15776144D01*
X4410144Y-15846856D01*
X4480856Y-15846856D01*
X4734856Y-15846856D02*
X4734856Y-15776144D01*
X4664144Y-15776144D01*
X4664144Y-15846856D01*
X4734856Y-15846856D01*
X4988856Y-15846856D02*
X4988856Y-15776144D01*
X4918144Y-15776144D01*
X4918144Y-15846856D01*
X4988856Y-15846856D01*
X5242856Y-15846856D02*
X5242856Y-15776144D01*
X5172144Y-15776144D01*
X5172144Y-15846856D01*
X5242856Y-15846856D01*
X5496856Y-15846856D02*
X5496856Y-15776144D01*
X5426144Y-15776144D01*
X5426144Y-15846856D01*
X5496856Y-15846856D01*
X5750856Y-15846856D02*
X5750856Y-15776144D01*
X5680144Y-15776144D01*
X5680144Y-15846856D01*
X5750856Y-15846856D01*
X6004856Y-15846856D02*
X6004856Y-15776144D01*
X5934144Y-15776144D01*
X5934144Y-15846856D01*
X6004856Y-15846856D01*
X6258856Y-15846856D02*
X6258856Y-15776144D01*
X6188144Y-15776144D01*
X6188144Y-15846856D01*
X6258856Y-15846856D01*
X6512856Y-15846856D02*
X6512856Y-15776144D01*
X6442144Y-15776144D01*
X6442144Y-15846856D01*
X6512856Y-15846856D01*
X6766856Y-15846856D02*
X6766856Y-15776144D01*
X6696144Y-15776144D01*
X6696144Y-15846856D01*
X6766856Y-15846856D01*
X6798506Y-4678756D02*
X6798506Y-4608044D01*
X6727794Y-4608044D01*
X6727794Y-4678756D01*
X6798506Y-4678756D01*
D11*
X6713150Y-4543400D02*
X6713150Y-4743400D01*
X6713150Y-4743400D02*
G75*
G03*
X6813150Y-4743400I50000J0D01*
G01*
X6813150Y-4743400D02*
X6813150Y-4543400D01*
X6813150Y-4543400D02*
G75*
G03*
X6713150Y-4543400I-50000J0D01*
G01*
D10*
X7020856Y-15846856D02*
X7020856Y-15776144D01*
X6950144Y-15776144D01*
X6950144Y-15846856D01*
X7020856Y-15846856D01*
X7268506Y-4378756D02*
X7268506Y-4308044D01*
X7197794Y-4308044D01*
X7197794Y-4378756D01*
X7268506Y-4378756D01*
D11*
X7333150Y-4293400D02*
X7133150Y-4293400D01*
X7133150Y-4293400D02*
G75*
G03*
X7133150Y-4393400I0J-50000D01*
G01*
X7133150Y-4393400D02*
X7333150Y-4393400D01*
X7333150Y-4393400D02*
G75*
G03*
X7333150Y-4293400I0J50000D01*
G01*
D10*
X7268506Y-4978756D02*
X7268506Y-4908044D01*
X7197794Y-4908044D01*
X7197794Y-4978756D01*
X7268506Y-4978756D01*
D11*
X7333150Y-4893400D02*
X7133150Y-4893400D01*
X7133150Y-4893400D02*
G75*
G03*
X7133150Y-4993400I0J-50000D01*
G01*
X7133150Y-4993400D02*
X7333150Y-4993400D01*
X7333150Y-4993400D02*
G75*
G03*
X7333150Y-4893400I0J50000D01*
G01*
D10*
X7274856Y-15846856D02*
X7274856Y-15776144D01*
X7204144Y-15776144D01*
X7204144Y-15846856D01*
X7274856Y-15846856D01*
X7528856Y-15846856D02*
X7528856Y-15776144D01*
X7458144Y-15776144D01*
X7458144Y-15846856D01*
X7528856Y-15846856D01*
X7782856Y-15846856D02*
X7782856Y-15776144D01*
X7712144Y-15776144D01*
X7712144Y-15846856D01*
X7782856Y-15846856D01*
X8036856Y-15846856D02*
X8036856Y-15776144D01*
X7966144Y-15776144D01*
X7966144Y-15846856D01*
X8036856Y-15846856D01*
X8290856Y-15846856D02*
X8290856Y-15776144D01*
X8220144Y-15776144D01*
X8220144Y-15846856D01*
X8290856Y-15846856D01*
X8544856Y-15846856D02*
X8544856Y-15776144D01*
X8474144Y-15776144D01*
X8474144Y-15846856D01*
X8544856Y-15846856D01*
X8798856Y-15846856D02*
X8798856Y-15776144D01*
X8728144Y-15776144D01*
X8728144Y-15846856D01*
X8798856Y-15846856D01*
X9052856Y-15846856D02*
X9052856Y-15776144D01*
X8982144Y-15776144D01*
X8982144Y-15846856D01*
X9052856Y-15846856D01*
X9306856Y-15846856D02*
X9306856Y-15776144D01*
X9236144Y-15776144D01*
X9236144Y-15846856D01*
X9306856Y-15846856D01*
X9560856Y-15846856D02*
X9560856Y-15776144D01*
X9490144Y-15776144D01*
X9490144Y-15846856D01*
X9560856Y-15846856D01*
X9814856Y-15846856D02*
X9814856Y-15776144D01*
X9744144Y-15776144D01*
X9744144Y-15846856D01*
X9814856Y-15846856D01*
X10068856Y-15846856D02*
X10068856Y-15776144D01*
X9998144Y-15776144D01*
X9998144Y-15846856D01*
X10068856Y-15846856D01*
X10322856Y-15846856D02*
X10322856Y-15776144D01*
X10252144Y-15776144D01*
X10252144Y-15846856D01*
X10322856Y-15846856D01*
X10576856Y-15846856D02*
X10576856Y-15776144D01*
X10506144Y-15776144D01*
X10506144Y-15846856D01*
X10576856Y-15846856D01*
X10830856Y-15846856D02*
X10830856Y-15776144D01*
X10760144Y-15776144D01*
X10760144Y-15846856D01*
X10830856Y-15846856D01*
X11084856Y-15846856D02*
X11084856Y-15776144D01*
X11014144Y-15776144D01*
X11014144Y-15846856D01*
X11084856Y-15846856D01*
X11338856Y-15846856D02*
X11338856Y-15776144D01*
X11268144Y-15776144D01*
X11268144Y-15846856D01*
X11338856Y-15846856D01*
X11592856Y-15846856D02*
X11592856Y-15776144D01*
X11522144Y-15776144D01*
X11522144Y-15846856D01*
X11592856Y-15846856D01*
X11846856Y-15846856D02*
X11846856Y-15776144D01*
X11776144Y-15776144D01*
X11776144Y-15846856D01*
X11846856Y-15846856D01*
X12100856Y-15846856D02*
X12100856Y-15776144D01*
X12030144Y-15776144D01*
X12030144Y-15846856D01*
X12100856Y-15846856D01*
X12354856Y-15846856D02*
X12354856Y-15776144D01*
X12284144Y-15776144D01*
X12284144Y-15846856D01*
X12354856Y-15846856D01*
X12608856Y-15846856D02*
X12608856Y-15776144D01*
X12538144Y-15776144D01*
X12538144Y-15846856D01*
X12608856Y-15846856D01*
X12862856Y-15846856D02*
X12862856Y-15776144D01*
X12792144Y-15776144D01*
X12792144Y-15846856D01*
X12862856Y-15846856D01*
X13116856Y-15846856D02*
X13116856Y-15776144D01*
X13046144Y-15776144D01*
X13046144Y-15846856D01*
X13116856Y-15846856D01*
X13370856Y-15846856D02*
X13370856Y-15776144D01*
X13300144Y-15776144D01*
X13300144Y-15846856D01*
X13370856Y-15846856D01*
X13624856Y-15846856D02*
X13624856Y-15776144D01*
X13554144Y-15776144D01*
X13554144Y-15846856D01*
X13624856Y-15846856D01*
X13878856Y-15846856D02*
X13878856Y-15776144D01*
X13808144Y-15776144D01*
X13808144Y-15846856D01*
X13878856Y-15846856D01*
X14387856Y-15846856D02*
X14387856Y-15776144D01*
X14317144Y-15776144D01*
X14317144Y-15846856D01*
X14387856Y-15846856D01*
X14641856Y-15846856D02*
X14641856Y-15776144D01*
X14571144Y-15776144D01*
X14571144Y-15846856D01*
X14641856Y-15846856D01*
X14864856Y-3972356D02*
X14864856Y-3901644D01*
X14794144Y-3901644D01*
X14794144Y-3972356D01*
X14864856Y-3972356D01*
X14864856Y-4226356D02*
X14864856Y-4155644D01*
X14794144Y-4155644D01*
X14794144Y-4226356D01*
X14864856Y-4226356D01*
X14864856Y-4480356D02*
X14864856Y-4409644D01*
X14794144Y-4409644D01*
X14794144Y-4480356D01*
X14864856Y-4480356D01*
X14895856Y-15846856D02*
X14895856Y-15776144D01*
X14825144Y-15776144D01*
X14825144Y-15846856D01*
X14895856Y-15846856D01*
X15149856Y-15846856D02*
X15149856Y-15776144D01*
X15079144Y-15776144D01*
X15079144Y-15846856D01*
X15149856Y-15846856D01*
X15403856Y-15846856D02*
X15403856Y-15776144D01*
X15333144Y-15776144D01*
X15333144Y-15846856D01*
X15403856Y-15846856D01*
X15657856Y-15846856D02*
X15657856Y-15776144D01*
X15587144Y-15776144D01*
X15587144Y-15846856D01*
X15657856Y-15846856D01*
X15911856Y-15846856D02*
X15911856Y-15776144D01*
X15841144Y-15776144D01*
X15841144Y-15846856D01*
X15911856Y-15846856D01*
X16165856Y-15846856D02*
X16165856Y-15776144D01*
X16095144Y-15776144D01*
X16095144Y-15846856D01*
X16165856Y-15846856D01*
X16419856Y-15846856D02*
X16419856Y-15776144D01*
X16349144Y-15776144D01*
X16349144Y-15846856D01*
X16419856Y-15846856D01*
X16673856Y-15846856D02*
X16673856Y-15776144D01*
X16603144Y-15776144D01*
X16603144Y-15846856D01*
X16673856Y-15846856D01*
X16927856Y-15846856D02*
X16927856Y-15776144D01*
X16857144Y-15776144D01*
X16857144Y-15846856D01*
X16927856Y-15846856D01*
X17181856Y-15846856D02*
X17181856Y-15776144D01*
X17111144Y-15776144D01*
X17111144Y-15846856D01*
X17181856Y-15846856D01*
X17435856Y-15846856D02*
X17435856Y-15776144D01*
X17365144Y-15776144D01*
X17365144Y-15846856D01*
X17435856Y-15846856D01*
X17689856Y-15846856D02*
X17689856Y-15776144D01*
X17619144Y-15776144D01*
X17619144Y-15846856D01*
X17689856Y-15846856D01*
X17943856Y-15846856D02*
X17943856Y-15776144D01*
X17873144Y-15776144D01*
X17873144Y-15846856D01*
X17943856Y-15846856D01*
X18197856Y-15846856D02*
X18197856Y-15776144D01*
X18127144Y-15776144D01*
X18127144Y-15846856D01*
X18197856Y-15846856D01*
X18451856Y-15846856D02*
X18451856Y-15776144D01*
X18381144Y-15776144D01*
X18381144Y-15846856D01*
X18451856Y-15846856D01*
X18705856Y-15846856D02*
X18705856Y-15776144D01*
X18635144Y-15776144D01*
X18635144Y-15846856D01*
X18705856Y-15846856D01*
D15*
X3937000Y-5515610D02*
X3991610Y-5461000D01*
X3937000Y-5406390D01*
X3882390Y-5461000D01*
X3937000Y-5515610D01*
X3937000Y-5769610D02*
X3991610Y-5715000D01*
X3937000Y-5660390D01*
X3882390Y-5715000D01*
X3937000Y-5769610D01*
X3937000Y-6023610D02*
X3991610Y-5969000D01*
X3937000Y-5914390D01*
X3882390Y-5969000D01*
X3937000Y-6023610D01*
X3937000Y-6277610D02*
X3991610Y-6223000D01*
X3937000Y-6168390D01*
X3882390Y-6223000D01*
X3937000Y-6277610D01*
X3937000Y-6531610D02*
X3991610Y-6477000D01*
X3937000Y-6422390D01*
X3882390Y-6477000D01*
X3937000Y-6531610D01*
X3937000Y-6785610D02*
X3991610Y-6731000D01*
X3937000Y-6676390D01*
X3882390Y-6731000D01*
X3937000Y-6785610D01*
X3937000Y-7039610D02*
X3991610Y-6985000D01*
X3937000Y-6930390D01*
X3882390Y-6985000D01*
X3937000Y-7039610D01*
X3937000Y-7293610D02*
X3991610Y-7239000D01*
X3937000Y-7184390D01*
X3882390Y-7239000D01*
X3937000Y-7293610D01*
X3937000Y-7547610D02*
X3991610Y-7493000D01*
X3937000Y-7438390D01*
X3882390Y-7493000D01*
X3937000Y-7547610D01*
X3937000Y-7801610D02*
X3991610Y-7747000D01*
X3937000Y-7692390D01*
X3882390Y-7747000D01*
X3937000Y-7801610D01*
X3937000Y-8055610D02*
X3991610Y-8001000D01*
X3937000Y-7946390D01*
X3882390Y-8001000D01*
X3937000Y-8055610D01*
X3937000Y-8309610D02*
X3991610Y-8255000D01*
X3937000Y-8200390D01*
X3882390Y-8255000D01*
X3937000Y-8309610D01*
X3937000Y-8563610D02*
X3991610Y-8509000D01*
X3937000Y-8454390D01*
X3882390Y-8509000D01*
X3937000Y-8563610D01*
X3937000Y-8817610D02*
X3991610Y-8763000D01*
X3937000Y-8708390D01*
X3882390Y-8763000D01*
X3937000Y-8817610D01*
X3937000Y-9071610D02*
X3991610Y-9017000D01*
X3937000Y-8962390D01*
X3882390Y-9017000D01*
X3937000Y-9071610D01*
X3937000Y-9325610D02*
X3991610Y-9271000D01*
X3937000Y-9216390D01*
X3882390Y-9271000D01*
X3937000Y-9325610D01*
X3937000Y-9579610D02*
X3991610Y-9525000D01*
X3937000Y-9470390D01*
X3882390Y-9525000D01*
X3937000Y-9579610D01*
X3937000Y-9833610D02*
X3991610Y-9779000D01*
X3937000Y-9724390D01*
X3882390Y-9779000D01*
X3937000Y-9833610D01*
X3937000Y-10087610D02*
X3991610Y-10033000D01*
X3937000Y-9978390D01*
X3882390Y-10033000D01*
X3937000Y-10087610D01*
X3937000Y-10341610D02*
X3991610Y-10287000D01*
X3937000Y-10232390D01*
X3882390Y-10287000D01*
X3937000Y-10341610D01*
X3937000Y-10595610D02*
X3991610Y-10541000D01*
X3937000Y-10486390D01*
X3882390Y-10541000D01*
X3937000Y-10595610D01*
X3937000Y-10849610D02*
X3991610Y-10795000D01*
X3937000Y-10740390D01*
X3882390Y-10795000D01*
X3937000Y-10849610D01*
X3937000Y-11103610D02*
X3991610Y-11049000D01*
X3937000Y-10994390D01*
X3882390Y-11049000D01*
X3937000Y-11103610D01*
X3937000Y-11357610D02*
X3991610Y-11303000D01*
X3937000Y-11248390D01*
X3882390Y-11303000D01*
X3937000Y-11357610D01*
X3937000Y-11611610D02*
X3991610Y-11557000D01*
X3937000Y-11502390D01*
X3882390Y-11557000D01*
X3937000Y-11611610D01*
X3937000Y-11865610D02*
X3991610Y-11811000D01*
X3937000Y-11756390D01*
X3882390Y-11811000D01*
X3937000Y-11865610D01*
X3937000Y-12119610D02*
X3991610Y-12065000D01*
X3937000Y-12010390D01*
X3882390Y-12065000D01*
X3937000Y-12119610D01*
X3937000Y-12373610D02*
X3991610Y-12319000D01*
X3937000Y-12264390D01*
X3882390Y-12319000D01*
X3937000Y-12373610D01*
X3937000Y-12627610D02*
X3991610Y-12573000D01*
X3937000Y-12518390D01*
X3882390Y-12573000D01*
X3937000Y-12627610D01*
X3937000Y-12881610D02*
X3991610Y-12827000D01*
X3937000Y-12772390D01*
X3882390Y-12827000D01*
X3937000Y-12881610D01*
X3937000Y-13135610D02*
X3991610Y-13081000D01*
X3937000Y-13026390D01*
X3882390Y-13081000D01*
X3937000Y-13135610D01*
X4445000Y-5515610D02*
X4499610Y-5461000D01*
X4445000Y-5406390D01*
X4390390Y-5461000D01*
X4445000Y-5515610D01*
X4445000Y-5769610D02*
X4499610Y-5715000D01*
X4445000Y-5660390D01*
X4390390Y-5715000D01*
X4445000Y-5769610D01*
X4445000Y-6023610D02*
X4499610Y-5969000D01*
X4445000Y-5914390D01*
X4390390Y-5969000D01*
X4445000Y-6023610D01*
X4445000Y-6277610D02*
X4499610Y-6223000D01*
X4445000Y-6168390D01*
X4390390Y-6223000D01*
X4445000Y-6277610D01*
X4445000Y-6531610D02*
X4499610Y-6477000D01*
X4445000Y-6422390D01*
X4390390Y-6477000D01*
X4445000Y-6531610D01*
X4445000Y-6785610D02*
X4499610Y-6731000D01*
X4445000Y-6676390D01*
X4390390Y-6731000D01*
X4445000Y-6785610D01*
X4445000Y-7039610D02*
X4499610Y-6985000D01*
X4445000Y-6930390D01*
X4390390Y-6985000D01*
X4445000Y-7039610D01*
X4445000Y-7293610D02*
X4499610Y-7239000D01*
X4445000Y-7184390D01*
X4390390Y-7239000D01*
X4445000Y-7293610D01*
X4445000Y-7547610D02*
X4499610Y-7493000D01*
X4445000Y-7438390D01*
X4390390Y-7493000D01*
X4445000Y-7547610D01*
X4445000Y-7801610D02*
X4499610Y-7747000D01*
X4445000Y-7692390D01*
X4390390Y-7747000D01*
X4445000Y-7801610D01*
X4445000Y-8055610D02*
X4499610Y-8001000D01*
X4445000Y-7946390D01*
X4390390Y-8001000D01*
X4445000Y-8055610D01*
X4445000Y-8309610D02*
X4499610Y-8255000D01*
X4445000Y-8200390D01*
X4390390Y-8255000D01*
X4445000Y-8309610D01*
X4445000Y-8563610D02*
X4499610Y-8509000D01*
X4445000Y-8454390D01*
X4390390Y-8509000D01*
X4445000Y-8563610D01*
X4445000Y-8817610D02*
X4499610Y-8763000D01*
X4445000Y-8708390D01*
X4390390Y-8763000D01*
X4445000Y-8817610D01*
X4445000Y-9071610D02*
X4499610Y-9017000D01*
X4445000Y-8962390D01*
X4390390Y-9017000D01*
X4445000Y-9071610D01*
X4445000Y-9325610D02*
X4499610Y-9271000D01*
X4445000Y-9216390D01*
X4390390Y-9271000D01*
X4445000Y-9325610D01*
X4445000Y-9579610D02*
X4499610Y-9525000D01*
X4445000Y-9470390D01*
X4390390Y-9525000D01*
X4445000Y-9579610D01*
X4445000Y-9833610D02*
X4499610Y-9779000D01*
X4445000Y-9724390D01*
X4390390Y-9779000D01*
X4445000Y-9833610D01*
X4445000Y-10087610D02*
X4499610Y-10033000D01*
X4445000Y-9978390D01*
X4390390Y-10033000D01*
X4445000Y-10087610D01*
X4445000Y-10341610D02*
X4499610Y-10287000D01*
X4445000Y-10232390D01*
X4390390Y-10287000D01*
X4445000Y-10341610D01*
X4445000Y-10595610D02*
X4499610Y-10541000D01*
X4445000Y-10486390D01*
X4390390Y-10541000D01*
X4445000Y-10595610D01*
X4445000Y-10849610D02*
X4499610Y-10795000D01*
X4445000Y-10740390D01*
X4390390Y-10795000D01*
X4445000Y-10849610D01*
X4445000Y-11103610D02*
X4499610Y-11049000D01*
X4445000Y-10994390D01*
X4390390Y-11049000D01*
X4445000Y-11103610D01*
X4445000Y-11357610D02*
X4499610Y-11303000D01*
X4445000Y-11248390D01*
X4390390Y-11303000D01*
X4445000Y-11357610D01*
X4445000Y-11611610D02*
X4499610Y-11557000D01*
X4445000Y-11502390D01*
X4390390Y-11557000D01*
X4445000Y-11611610D01*
X4445000Y-11865610D02*
X4499610Y-11811000D01*
X4445000Y-11756390D01*
X4390390Y-11811000D01*
X4445000Y-11865610D01*
X4445000Y-12119610D02*
X4499610Y-12065000D01*
X4445000Y-12010390D01*
X4390390Y-12065000D01*
X4445000Y-12119610D01*
X4445000Y-12373610D02*
X4499610Y-12319000D01*
X4445000Y-12264390D01*
X4390390Y-12319000D01*
X4445000Y-12373610D01*
X4445000Y-12627610D02*
X4499610Y-12573000D01*
X4445000Y-12518390D01*
X4390390Y-12573000D01*
X4445000Y-12627610D01*
X4445000Y-12881610D02*
X4499610Y-12827000D01*
X4445000Y-12772390D01*
X4390390Y-12827000D01*
X4445000Y-12881610D01*
X4445000Y-13135610D02*
X4499610Y-13081000D01*
X4445000Y-13026390D01*
X4390390Y-13081000D01*
X4445000Y-13135610D01*
X5969000Y-5515610D02*
X6023610Y-5461000D01*
X5969000Y-5406390D01*
X5914390Y-5461000D01*
X5969000Y-5515610D01*
X5969000Y-5769610D02*
X6023610Y-5715000D01*
X5969000Y-5660390D01*
X5914390Y-5715000D01*
X5969000Y-5769610D01*
X5969000Y-6023610D02*
X6023610Y-5969000D01*
X5969000Y-5914390D01*
X5914390Y-5969000D01*
X5969000Y-6023610D01*
X5969000Y-6277610D02*
X6023610Y-6223000D01*
X5969000Y-6168390D01*
X5914390Y-6223000D01*
X5969000Y-6277610D01*
X5969000Y-6531610D02*
X6023610Y-6477000D01*
X5969000Y-6422390D01*
X5914390Y-6477000D01*
X5969000Y-6531610D01*
X5969000Y-6785610D02*
X6023610Y-6731000D01*
X5969000Y-6676390D01*
X5914390Y-6731000D01*
X5969000Y-6785610D01*
X5969000Y-7039610D02*
X6023610Y-6985000D01*
X5969000Y-6930390D01*
X5914390Y-6985000D01*
X5969000Y-7039610D01*
X5969000Y-7293610D02*
X6023610Y-7239000D01*
X5969000Y-7184390D01*
X5914390Y-7239000D01*
X5969000Y-7293610D01*
X5969000Y-7547610D02*
X6023610Y-7493000D01*
X5969000Y-7438390D01*
X5914390Y-7493000D01*
X5969000Y-7547610D01*
X5969000Y-7801610D02*
X6023610Y-7747000D01*
X5969000Y-7692390D01*
X5914390Y-7747000D01*
X5969000Y-7801610D01*
X5969000Y-8055610D02*
X6023610Y-8001000D01*
X5969000Y-7946390D01*
X5914390Y-8001000D01*
X5969000Y-8055610D01*
X5969000Y-8309610D02*
X6023610Y-8255000D01*
X5969000Y-8200390D01*
X5914390Y-8255000D01*
X5969000Y-8309610D01*
X5969000Y-8563610D02*
X6023610Y-8509000D01*
X5969000Y-8454390D01*
X5914390Y-8509000D01*
X5969000Y-8563610D01*
X5969000Y-8817610D02*
X6023610Y-8763000D01*
X5969000Y-8708390D01*
X5914390Y-8763000D01*
X5969000Y-8817610D01*
X5969000Y-9071610D02*
X6023610Y-9017000D01*
X5969000Y-8962390D01*
X5914390Y-9017000D01*
X5969000Y-9071610D01*
X5969000Y-9325610D02*
X6023610Y-9271000D01*
X5969000Y-9216390D01*
X5914390Y-9271000D01*
X5969000Y-9325610D01*
X5969000Y-9579610D02*
X6023610Y-9525000D01*
X5969000Y-9470390D01*
X5914390Y-9525000D01*
X5969000Y-9579610D01*
X5969000Y-9833610D02*
X6023610Y-9779000D01*
X5969000Y-9724390D01*
X5914390Y-9779000D01*
X5969000Y-9833610D01*
X5969000Y-10087610D02*
X6023610Y-10033000D01*
X5969000Y-9978390D01*
X5914390Y-10033000D01*
X5969000Y-10087610D01*
X5969000Y-10341610D02*
X6023610Y-10287000D01*
X5969000Y-10232390D01*
X5914390Y-10287000D01*
X5969000Y-10341610D01*
X5969000Y-10595610D02*
X6023610Y-10541000D01*
X5969000Y-10486390D01*
X5914390Y-10541000D01*
X5969000Y-10595610D01*
X5969000Y-10849610D02*
X6023610Y-10795000D01*
X5969000Y-10740390D01*
X5914390Y-10795000D01*
X5969000Y-10849610D01*
X5969000Y-11103610D02*
X6023610Y-11049000D01*
X5969000Y-10994390D01*
X5914390Y-11049000D01*
X5969000Y-11103610D01*
X5969000Y-11357610D02*
X6023610Y-11303000D01*
X5969000Y-11248390D01*
X5914390Y-11303000D01*
X5969000Y-11357610D01*
X5969000Y-11611610D02*
X6023610Y-11557000D01*
X5969000Y-11502390D01*
X5914390Y-11557000D01*
X5969000Y-11611610D01*
X5969000Y-11865610D02*
X6023610Y-11811000D01*
X5969000Y-11756390D01*
X5914390Y-11811000D01*
X5969000Y-11865610D01*
X5969000Y-12119610D02*
X6023610Y-12065000D01*
X5969000Y-12010390D01*
X5914390Y-12065000D01*
X5969000Y-12119610D01*
X5969000Y-12373610D02*
X6023610Y-12319000D01*
X5969000Y-12264390D01*
X5914390Y-12319000D01*
X5969000Y-12373610D01*
X5969000Y-12627610D02*
X6023610Y-12573000D01*
X5969000Y-12518390D01*
X5914390Y-12573000D01*
X5969000Y-12627610D01*
X5969000Y-12881610D02*
X6023610Y-12827000D01*
X5969000Y-12772390D01*
X5914390Y-12827000D01*
X5969000Y-12881610D01*
X5969000Y-13135610D02*
X6023610Y-13081000D01*
X5969000Y-13026390D01*
X5914390Y-13081000D01*
X5969000Y-13135610D01*
X6477000Y-5515610D02*
X6531610Y-5461000D01*
X6477000Y-5406390D01*
X6422390Y-5461000D01*
X6477000Y-5515610D01*
X6477000Y-5769610D02*
X6531610Y-5715000D01*
X6477000Y-5660390D01*
X6422390Y-5715000D01*
X6477000Y-5769610D01*
X6477000Y-6023610D02*
X6531610Y-5969000D01*
X6477000Y-5914390D01*
X6422390Y-5969000D01*
X6477000Y-6023610D01*
X6477000Y-6277610D02*
X6531610Y-6223000D01*
X6477000Y-6168390D01*
X6422390Y-6223000D01*
X6477000Y-6277610D01*
X6477000Y-6531610D02*
X6531610Y-6477000D01*
X6477000Y-6422390D01*
X6422390Y-6477000D01*
X6477000Y-6531610D01*
X6477000Y-6785610D02*
X6531610Y-6731000D01*
X6477000Y-6676390D01*
X6422390Y-6731000D01*
X6477000Y-6785610D01*
X6477000Y-7039610D02*
X6531610Y-6985000D01*
X6477000Y-6930390D01*
X6422390Y-6985000D01*
X6477000Y-7039610D01*
X6477000Y-7293610D02*
X6531610Y-7239000D01*
X6477000Y-7184390D01*
X6422390Y-7239000D01*
X6477000Y-7293610D01*
X6477000Y-7547610D02*
X6531610Y-7493000D01*
X6477000Y-7438390D01*
X6422390Y-7493000D01*
X6477000Y-7547610D01*
X6477000Y-7801610D02*
X6531610Y-7747000D01*
X6477000Y-7692390D01*
X6422390Y-7747000D01*
X6477000Y-7801610D01*
X6477000Y-8055610D02*
X6531610Y-8001000D01*
X6477000Y-7946390D01*
X6422390Y-8001000D01*
X6477000Y-8055610D01*
X6477000Y-8309610D02*
X6531610Y-8255000D01*
X6477000Y-8200390D01*
X6422390Y-8255000D01*
X6477000Y-8309610D01*
X6477000Y-8563610D02*
X6531610Y-8509000D01*
X6477000Y-8454390D01*
X6422390Y-8509000D01*
X6477000Y-8563610D01*
X6477000Y-8817610D02*
X6531610Y-8763000D01*
X6477000Y-8708390D01*
X6422390Y-8763000D01*
X6477000Y-8817610D01*
X6477000Y-9071610D02*
X6531610Y-9017000D01*
X6477000Y-8962390D01*
X6422390Y-9017000D01*
X6477000Y-9071610D01*
X6477000Y-9325610D02*
X6531610Y-9271000D01*
X6477000Y-9216390D01*
X6422390Y-9271000D01*
X6477000Y-9325610D01*
X6477000Y-9579610D02*
X6531610Y-9525000D01*
X6477000Y-9470390D01*
X6422390Y-9525000D01*
X6477000Y-9579610D01*
X6477000Y-9833610D02*
X6531610Y-9779000D01*
X6477000Y-9724390D01*
X6422390Y-9779000D01*
X6477000Y-9833610D01*
X6477000Y-10087610D02*
X6531610Y-10033000D01*
X6477000Y-9978390D01*
X6422390Y-10033000D01*
X6477000Y-10087610D01*
X6477000Y-10341610D02*
X6531610Y-10287000D01*
X6477000Y-10232390D01*
X6422390Y-10287000D01*
X6477000Y-10341610D01*
X6477000Y-10595610D02*
X6531610Y-10541000D01*
X6477000Y-10486390D01*
X6422390Y-10541000D01*
X6477000Y-10595610D01*
X6477000Y-10849610D02*
X6531610Y-10795000D01*
X6477000Y-10740390D01*
X6422390Y-10795000D01*
X6477000Y-10849610D01*
X6477000Y-11103610D02*
X6531610Y-11049000D01*
X6477000Y-10994390D01*
X6422390Y-11049000D01*
X6477000Y-11103610D01*
X6477000Y-11357610D02*
X6531610Y-11303000D01*
X6477000Y-11248390D01*
X6422390Y-11303000D01*
X6477000Y-11357610D01*
X6477000Y-11611610D02*
X6531610Y-11557000D01*
X6477000Y-11502390D01*
X6422390Y-11557000D01*
X6477000Y-11611610D01*
X6477000Y-11865610D02*
X6531610Y-11811000D01*
X6477000Y-11756390D01*
X6422390Y-11811000D01*
X6477000Y-11865610D01*
X6477000Y-12119610D02*
X6531610Y-12065000D01*
X6477000Y-12010390D01*
X6422390Y-12065000D01*
X6477000Y-12119610D01*
X6477000Y-12373610D02*
X6531610Y-12319000D01*
X6477000Y-12264390D01*
X6422390Y-12319000D01*
X6477000Y-12373610D01*
X6477000Y-12627610D02*
X6531610Y-12573000D01*
X6477000Y-12518390D01*
X6422390Y-12573000D01*
X6477000Y-12627610D01*
X6477000Y-12881610D02*
X6531610Y-12827000D01*
X6477000Y-12772390D01*
X6422390Y-12827000D01*
X6477000Y-12881610D01*
X6477000Y-13135610D02*
X6531610Y-13081000D01*
X6477000Y-13026390D01*
X6422390Y-13081000D01*
X6477000Y-13135610D01*
X8001000Y-5515610D02*
X8055610Y-5461000D01*
X8001000Y-5406390D01*
X7946390Y-5461000D01*
X8001000Y-5515610D01*
X8001000Y-5769610D02*
X8055610Y-5715000D01*
X8001000Y-5660390D01*
X7946390Y-5715000D01*
X8001000Y-5769610D01*
X8001000Y-6023610D02*
X8055610Y-5969000D01*
X8001000Y-5914390D01*
X7946390Y-5969000D01*
X8001000Y-6023610D01*
X8001000Y-6277610D02*
X8055610Y-6223000D01*
X8001000Y-6168390D01*
X7946390Y-6223000D01*
X8001000Y-6277610D01*
X8001000Y-6531610D02*
X8055610Y-6477000D01*
X8001000Y-6422390D01*
X7946390Y-6477000D01*
X8001000Y-6531610D01*
X8001000Y-6785610D02*
X8055610Y-6731000D01*
X8001000Y-6676390D01*
X7946390Y-6731000D01*
X8001000Y-6785610D01*
X8001000Y-7039610D02*
X8055610Y-6985000D01*
X8001000Y-6930390D01*
X7946390Y-6985000D01*
X8001000Y-7039610D01*
X8001000Y-7293610D02*
X8055610Y-7239000D01*
X8001000Y-7184390D01*
X7946390Y-7239000D01*
X8001000Y-7293610D01*
X8001000Y-7547610D02*
X8055610Y-7493000D01*
X8001000Y-7438390D01*
X7946390Y-7493000D01*
X8001000Y-7547610D01*
X8001000Y-7801610D02*
X8055610Y-7747000D01*
X8001000Y-7692390D01*
X7946390Y-7747000D01*
X8001000Y-7801610D01*
X8001000Y-8055610D02*
X8055610Y-8001000D01*
X8001000Y-7946390D01*
X7946390Y-8001000D01*
X8001000Y-8055610D01*
X8001000Y-8309610D02*
X8055610Y-8255000D01*
X8001000Y-8200390D01*
X7946390Y-8255000D01*
X8001000Y-8309610D01*
X8001000Y-8563610D02*
X8055610Y-8509000D01*
X8001000Y-8454390D01*
X7946390Y-8509000D01*
X8001000Y-8563610D01*
X8001000Y-8817610D02*
X8055610Y-8763000D01*
X8001000Y-8708390D01*
X7946390Y-8763000D01*
X8001000Y-8817610D01*
X8001000Y-9071610D02*
X8055610Y-9017000D01*
X8001000Y-8962390D01*
X7946390Y-9017000D01*
X8001000Y-9071610D01*
X8001000Y-9325610D02*
X8055610Y-9271000D01*
X8001000Y-9216390D01*
X7946390Y-9271000D01*
X8001000Y-9325610D01*
X8001000Y-9579610D02*
X8055610Y-9525000D01*
X8001000Y-9470390D01*
X7946390Y-9525000D01*
X8001000Y-9579610D01*
X8001000Y-9833610D02*
X8055610Y-9779000D01*
X8001000Y-9724390D01*
X7946390Y-9779000D01*
X8001000Y-9833610D01*
X8001000Y-10087610D02*
X8055610Y-10033000D01*
X8001000Y-9978390D01*
X7946390Y-10033000D01*
X8001000Y-10087610D01*
X8001000Y-10341610D02*
X8055610Y-10287000D01*
X8001000Y-10232390D01*
X7946390Y-10287000D01*
X8001000Y-10341610D01*
X8001000Y-10595610D02*
X8055610Y-10541000D01*
X8001000Y-10486390D01*
X7946390Y-10541000D01*
X8001000Y-10595610D01*
X8001000Y-10849610D02*
X8055610Y-10795000D01*
X8001000Y-10740390D01*
X7946390Y-10795000D01*
X8001000Y-10849610D01*
X8001000Y-11103610D02*
X8055610Y-11049000D01*
X8001000Y-10994390D01*
X7946390Y-11049000D01*
X8001000Y-11103610D01*
X8001000Y-11357610D02*
X8055610Y-11303000D01*
X8001000Y-11248390D01*
X7946390Y-11303000D01*
X8001000Y-11357610D01*
X8001000Y-11611610D02*
X8055610Y-11557000D01*
X8001000Y-11502390D01*
X7946390Y-11557000D01*
X8001000Y-11611610D01*
X8001000Y-11865610D02*
X8055610Y-11811000D01*
X8001000Y-11756390D01*
X7946390Y-11811000D01*
X8001000Y-11865610D01*
X8001000Y-12119610D02*
X8055610Y-12065000D01*
X8001000Y-12010390D01*
X7946390Y-12065000D01*
X8001000Y-12119610D01*
X8001000Y-12373610D02*
X8055610Y-12319000D01*
X8001000Y-12264390D01*
X7946390Y-12319000D01*
X8001000Y-12373610D01*
X8001000Y-12627610D02*
X8055610Y-12573000D01*
X8001000Y-12518390D01*
X7946390Y-12573000D01*
X8001000Y-12627610D01*
X8001000Y-12881610D02*
X8055610Y-12827000D01*
X8001000Y-12772390D01*
X7946390Y-12827000D01*
X8001000Y-12881610D01*
X8001000Y-13135610D02*
X8055610Y-13081000D01*
X8001000Y-13026390D01*
X7946390Y-13081000D01*
X8001000Y-13135610D01*
X8509000Y-5515610D02*
X8563610Y-5461000D01*
X8509000Y-5406390D01*
X8454390Y-5461000D01*
X8509000Y-5515610D01*
X8509000Y-5769610D02*
X8563610Y-5715000D01*
X8509000Y-5660390D01*
X8454390Y-5715000D01*
X8509000Y-5769610D01*
X8509000Y-6023610D02*
X8563610Y-5969000D01*
X8509000Y-5914390D01*
X8454390Y-5969000D01*
X8509000Y-6023610D01*
X8509000Y-6277610D02*
X8563610Y-6223000D01*
X8509000Y-6168390D01*
X8454390Y-6223000D01*
X8509000Y-6277610D01*
X8509000Y-6531610D02*
X8563610Y-6477000D01*
X8509000Y-6422390D01*
X8454390Y-6477000D01*
X8509000Y-6531610D01*
X8509000Y-6785610D02*
X8563610Y-6731000D01*
X8509000Y-6676390D01*
X8454390Y-6731000D01*
X8509000Y-6785610D01*
X8509000Y-7039610D02*
X8563610Y-6985000D01*
X8509000Y-6930390D01*
X8454390Y-6985000D01*
X8509000Y-7039610D01*
X8509000Y-7293610D02*
X8563610Y-7239000D01*
X8509000Y-7184390D01*
X8454390Y-7239000D01*
X8509000Y-7293610D01*
X8509000Y-7547610D02*
X8563610Y-7493000D01*
X8509000Y-7438390D01*
X8454390Y-7493000D01*
X8509000Y-7547610D01*
X8509000Y-7801610D02*
X8563610Y-7747000D01*
X8509000Y-7692390D01*
X8454390Y-7747000D01*
X8509000Y-7801610D01*
X8509000Y-8055610D02*
X8563610Y-8001000D01*
X8509000Y-7946390D01*
X8454390Y-8001000D01*
X8509000Y-8055610D01*
X8509000Y-8309610D02*
X8563610Y-8255000D01*
X8509000Y-8200390D01*
X8454390Y-8255000D01*
X8509000Y-8309610D01*
X8509000Y-8563610D02*
X8563610Y-8509000D01*
X8509000Y-8454390D01*
X8454390Y-8509000D01*
X8509000Y-8563610D01*
X8509000Y-8817610D02*
X8563610Y-8763000D01*
X8509000Y-8708390D01*
X8454390Y-8763000D01*
X8509000Y-8817610D01*
X8509000Y-9071610D02*
X8563610Y-9017000D01*
X8509000Y-8962390D01*
X8454390Y-9017000D01*
X8509000Y-9071610D01*
X8509000Y-9325610D02*
X8563610Y-9271000D01*
X8509000Y-9216390D01*
X8454390Y-9271000D01*
X8509000Y-9325610D01*
X8509000Y-9579610D02*
X8563610Y-9525000D01*
X8509000Y-9470390D01*
X8454390Y-9525000D01*
X8509000Y-9579610D01*
X8509000Y-9833610D02*
X8563610Y-9779000D01*
X8509000Y-9724390D01*
X8454390Y-9779000D01*
X8509000Y-9833610D01*
X8509000Y-10087610D02*
X8563610Y-10033000D01*
X8509000Y-9978390D01*
X8454390Y-10033000D01*
X8509000Y-10087610D01*
X8509000Y-10341610D02*
X8563610Y-10287000D01*
X8509000Y-10232390D01*
X8454390Y-10287000D01*
X8509000Y-10341610D01*
X8509000Y-10595610D02*
X8563610Y-10541000D01*
X8509000Y-10486390D01*
X8454390Y-10541000D01*
X8509000Y-10595610D01*
X8509000Y-10849610D02*
X8563610Y-10795000D01*
X8509000Y-10740390D01*
X8454390Y-10795000D01*
X8509000Y-10849610D01*
X8509000Y-11103610D02*
X8563610Y-11049000D01*
X8509000Y-10994390D01*
X8454390Y-11049000D01*
X8509000Y-11103610D01*
X8509000Y-11357610D02*
X8563610Y-11303000D01*
X8509000Y-11248390D01*
X8454390Y-11303000D01*
X8509000Y-11357610D01*
X8509000Y-11611610D02*
X8563610Y-11557000D01*
X8509000Y-11502390D01*
X8454390Y-11557000D01*
X8509000Y-11611610D01*
X8509000Y-11865610D02*
X8563610Y-11811000D01*
X8509000Y-11756390D01*
X8454390Y-11811000D01*
X8509000Y-11865610D01*
X8509000Y-12119610D02*
X8563610Y-12065000D01*
X8509000Y-12010390D01*
X8454390Y-12065000D01*
X8509000Y-12119610D01*
X8509000Y-12373610D02*
X8563610Y-12319000D01*
X8509000Y-12264390D01*
X8454390Y-12319000D01*
X8509000Y-12373610D01*
X8509000Y-12627610D02*
X8563610Y-12573000D01*
X8509000Y-12518390D01*
X8454390Y-12573000D01*
X8509000Y-12627610D01*
X8509000Y-12881610D02*
X8563610Y-12827000D01*
X8509000Y-12772390D01*
X8454390Y-12827000D01*
X8509000Y-12881610D01*
X8509000Y-13135610D02*
X8563610Y-13081000D01*
X8509000Y-13026390D01*
X8454390Y-13081000D01*
X8509000Y-13135610D01*
X10033000Y-5515610D02*
X10087610Y-5461000D01*
X10033000Y-5406390D01*
X9978390Y-5461000D01*
X10033000Y-5515610D01*
X10033000Y-5769610D02*
X10087610Y-5715000D01*
X10033000Y-5660390D01*
X9978390Y-5715000D01*
X10033000Y-5769610D01*
X10033000Y-6023610D02*
X10087610Y-5969000D01*
X10033000Y-5914390D01*
X9978390Y-5969000D01*
X10033000Y-6023610D01*
X10033000Y-6277610D02*
X10087610Y-6223000D01*
X10033000Y-6168390D01*
X9978390Y-6223000D01*
X10033000Y-6277610D01*
X10033000Y-6531610D02*
X10087610Y-6477000D01*
X10033000Y-6422390D01*
X9978390Y-6477000D01*
X10033000Y-6531610D01*
X10033000Y-6785610D02*
X10087610Y-6731000D01*
X10033000Y-6676390D01*
X9978390Y-6731000D01*
X10033000Y-6785610D01*
X10033000Y-7039610D02*
X10087610Y-6985000D01*
X10033000Y-6930390D01*
X9978390Y-6985000D01*
X10033000Y-7039610D01*
X10033000Y-7293610D02*
X10087610Y-7239000D01*
X10033000Y-7184390D01*
X9978390Y-7239000D01*
X10033000Y-7293610D01*
X10033000Y-7547610D02*
X10087610Y-7493000D01*
X10033000Y-7438390D01*
X9978390Y-7493000D01*
X10033000Y-7547610D01*
X10033000Y-7801610D02*
X10087610Y-7747000D01*
X10033000Y-7692390D01*
X9978390Y-7747000D01*
X10033000Y-7801610D01*
X10033000Y-8055610D02*
X10087610Y-8001000D01*
X10033000Y-7946390D01*
X9978390Y-8001000D01*
X10033000Y-8055610D01*
X10033000Y-8309610D02*
X10087610Y-8255000D01*
X10033000Y-8200390D01*
X9978390Y-8255000D01*
X10033000Y-8309610D01*
X10033000Y-8563610D02*
X10087610Y-8509000D01*
X10033000Y-8454390D01*
X9978390Y-8509000D01*
X10033000Y-8563610D01*
X10033000Y-8817610D02*
X10087610Y-8763000D01*
X10033000Y-8708390D01*
X9978390Y-8763000D01*
X10033000Y-8817610D01*
X10033000Y-9071610D02*
X10087610Y-9017000D01*
X10033000Y-8962390D01*
X9978390Y-9017000D01*
X10033000Y-9071610D01*
X10033000Y-9325610D02*
X10087610Y-9271000D01*
X10033000Y-9216390D01*
X9978390Y-9271000D01*
X10033000Y-9325610D01*
X10033000Y-9579610D02*
X10087610Y-9525000D01*
X10033000Y-9470390D01*
X9978390Y-9525000D01*
X10033000Y-9579610D01*
X10033000Y-9833610D02*
X10087610Y-9779000D01*
X10033000Y-9724390D01*
X9978390Y-9779000D01*
X10033000Y-9833610D01*
X10033000Y-10087610D02*
X10087610Y-10033000D01*
X10033000Y-9978390D01*
X9978390Y-10033000D01*
X10033000Y-10087610D01*
X10033000Y-10341610D02*
X10087610Y-10287000D01*
X10033000Y-10232390D01*
X9978390Y-10287000D01*
X10033000Y-10341610D01*
X10033000Y-10595610D02*
X10087610Y-10541000D01*
X10033000Y-10486390D01*
X9978390Y-10541000D01*
X10033000Y-10595610D01*
X10033000Y-10849610D02*
X10087610Y-10795000D01*
X10033000Y-10740390D01*
X9978390Y-10795000D01*
X10033000Y-10849610D01*
X10033000Y-11103610D02*
X10087610Y-11049000D01*
X10033000Y-10994390D01*
X9978390Y-11049000D01*
X10033000Y-11103610D01*
X10033000Y-11357610D02*
X10087610Y-11303000D01*
X10033000Y-11248390D01*
X9978390Y-11303000D01*
X10033000Y-11357610D01*
X10033000Y-11611610D02*
X10087610Y-11557000D01*
X10033000Y-11502390D01*
X9978390Y-11557000D01*
X10033000Y-11611610D01*
X10033000Y-11865610D02*
X10087610Y-11811000D01*
X10033000Y-11756390D01*
X9978390Y-11811000D01*
X10033000Y-11865610D01*
X10033000Y-12119610D02*
X10087610Y-12065000D01*
X10033000Y-12010390D01*
X9978390Y-12065000D01*
X10033000Y-12119610D01*
X10033000Y-12373610D02*
X10087610Y-12319000D01*
X10033000Y-12264390D01*
X9978390Y-12319000D01*
X10033000Y-12373610D01*
X10033000Y-12627610D02*
X10087610Y-12573000D01*
X10033000Y-12518390D01*
X9978390Y-12573000D01*
X10033000Y-12627610D01*
X10033000Y-12881610D02*
X10087610Y-12827000D01*
X10033000Y-12772390D01*
X9978390Y-12827000D01*
X10033000Y-12881610D01*
X10033000Y-13135610D02*
X10087610Y-13081000D01*
X10033000Y-13026390D01*
X9978390Y-13081000D01*
X10033000Y-13135610D01*
X10541000Y-5515610D02*
X10595610Y-5461000D01*
X10541000Y-5406390D01*
X10486390Y-5461000D01*
X10541000Y-5515610D01*
X10541000Y-5769610D02*
X10595610Y-5715000D01*
X10541000Y-5660390D01*
X10486390Y-5715000D01*
X10541000Y-5769610D01*
X10541000Y-6023610D02*
X10595610Y-5969000D01*
X10541000Y-5914390D01*
X10486390Y-5969000D01*
X10541000Y-6023610D01*
X10541000Y-6277610D02*
X10595610Y-6223000D01*
X10541000Y-6168390D01*
X10486390Y-6223000D01*
X10541000Y-6277610D01*
X10541000Y-6531610D02*
X10595610Y-6477000D01*
X10541000Y-6422390D01*
X10486390Y-6477000D01*
X10541000Y-6531610D01*
X10541000Y-6785610D02*
X10595610Y-6731000D01*
X10541000Y-6676390D01*
X10486390Y-6731000D01*
X10541000Y-6785610D01*
X10541000Y-7039610D02*
X10595610Y-6985000D01*
X10541000Y-6930390D01*
X10486390Y-6985000D01*
X10541000Y-7039610D01*
X10541000Y-7293610D02*
X10595610Y-7239000D01*
X10541000Y-7184390D01*
X10486390Y-7239000D01*
X10541000Y-7293610D01*
X10541000Y-7547610D02*
X10595610Y-7493000D01*
X10541000Y-7438390D01*
X10486390Y-7493000D01*
X10541000Y-7547610D01*
X10541000Y-7801610D02*
X10595610Y-7747000D01*
X10541000Y-7692390D01*
X10486390Y-7747000D01*
X10541000Y-7801610D01*
X10541000Y-8055610D02*
X10595610Y-8001000D01*
X10541000Y-7946390D01*
X10486390Y-8001000D01*
X10541000Y-8055610D01*
X10541000Y-8309610D02*
X10595610Y-8255000D01*
X10541000Y-8200390D01*
X10486390Y-8255000D01*
X10541000Y-8309610D01*
X10541000Y-8563610D02*
X10595610Y-8509000D01*
X10541000Y-8454390D01*
X10486390Y-8509000D01*
X10541000Y-8563610D01*
X10541000Y-8817610D02*
X10595610Y-8763000D01*
X10541000Y-8708390D01*
X10486390Y-8763000D01*
X10541000Y-8817610D01*
X10541000Y-9071610D02*
X10595610Y-9017000D01*
X10541000Y-8962390D01*
X10486390Y-9017000D01*
X10541000Y-9071610D01*
X10541000Y-9325610D02*
X10595610Y-9271000D01*
X10541000Y-9216390D01*
X10486390Y-9271000D01*
X10541000Y-9325610D01*
X10541000Y-9579610D02*
X10595610Y-9525000D01*
X10541000Y-9470390D01*
X10486390Y-9525000D01*
X10541000Y-9579610D01*
X10541000Y-9833610D02*
X10595610Y-9779000D01*
X10541000Y-9724390D01*
X10486390Y-9779000D01*
X10541000Y-9833610D01*
X10541000Y-10087610D02*
X10595610Y-10033000D01*
X10541000Y-9978390D01*
X10486390Y-10033000D01*
X10541000Y-10087610D01*
X10541000Y-10341610D02*
X10595610Y-10287000D01*
X10541000Y-10232390D01*
X10486390Y-10287000D01*
X10541000Y-10341610D01*
X10541000Y-10595610D02*
X10595610Y-10541000D01*
X10541000Y-10486390D01*
X10486390Y-10541000D01*
X10541000Y-10595610D01*
X10541000Y-10849610D02*
X10595610Y-10795000D01*
X10541000Y-10740390D01*
X10486390Y-10795000D01*
X10541000Y-10849610D01*
X10541000Y-11103610D02*
X10595610Y-11049000D01*
X10541000Y-10994390D01*
X10486390Y-11049000D01*
X10541000Y-11103610D01*
X10541000Y-11357610D02*
X10595610Y-11303000D01*
X10541000Y-11248390D01*
X10486390Y-11303000D01*
X10541000Y-11357610D01*
X10541000Y-11611610D02*
X10595610Y-11557000D01*
X10541000Y-11502390D01*
X10486390Y-11557000D01*
X10541000Y-11611610D01*
X10541000Y-11865610D02*
X10595610Y-11811000D01*
X10541000Y-11756390D01*
X10486390Y-11811000D01*
X10541000Y-11865610D01*
X10541000Y-12119610D02*
X10595610Y-12065000D01*
X10541000Y-12010390D01*
X10486390Y-12065000D01*
X10541000Y-12119610D01*
X10541000Y-12373610D02*
X10595610Y-12319000D01*
X10541000Y-12264390D01*
X10486390Y-12319000D01*
X10541000Y-12373610D01*
X10541000Y-12627610D02*
X10595610Y-12573000D01*
X10541000Y-12518390D01*
X10486390Y-12573000D01*
X10541000Y-12627610D01*
X10541000Y-12881610D02*
X10595610Y-12827000D01*
X10541000Y-12772390D01*
X10486390Y-12827000D01*
X10541000Y-12881610D01*
X10541000Y-13135610D02*
X10595610Y-13081000D01*
X10541000Y-13026390D01*
X10486390Y-13081000D01*
X10541000Y-13135610D01*
X12065000Y-5515610D02*
X12119610Y-5461000D01*
X12065000Y-5406390D01*
X12010390Y-5461000D01*
X12065000Y-5515610D01*
X12065000Y-5769610D02*
X12119610Y-5715000D01*
X12065000Y-5660390D01*
X12010390Y-5715000D01*
X12065000Y-5769610D01*
X12065000Y-6023610D02*
X12119610Y-5969000D01*
X12065000Y-5914390D01*
X12010390Y-5969000D01*
X12065000Y-6023610D01*
X12065000Y-6277610D02*
X12119610Y-6223000D01*
X12065000Y-6168390D01*
X12010390Y-6223000D01*
X12065000Y-6277610D01*
X12065000Y-6531610D02*
X12119610Y-6477000D01*
X12065000Y-6422390D01*
X12010390Y-6477000D01*
X12065000Y-6531610D01*
X12065000Y-6785610D02*
X12119610Y-6731000D01*
X12065000Y-6676390D01*
X12010390Y-6731000D01*
X12065000Y-6785610D01*
X12065000Y-7039610D02*
X12119610Y-6985000D01*
X12065000Y-6930390D01*
X12010390Y-6985000D01*
X12065000Y-7039610D01*
X12065000Y-7293610D02*
X12119610Y-7239000D01*
X12065000Y-7184390D01*
X12010390Y-7239000D01*
X12065000Y-7293610D01*
X12065000Y-7547610D02*
X12119610Y-7493000D01*
X12065000Y-7438390D01*
X12010390Y-7493000D01*
X12065000Y-7547610D01*
X12065000Y-7801610D02*
X12119610Y-7747000D01*
X12065000Y-7692390D01*
X12010390Y-7747000D01*
X12065000Y-7801610D01*
X12065000Y-8055610D02*
X12119610Y-8001000D01*
X12065000Y-7946390D01*
X12010390Y-8001000D01*
X12065000Y-8055610D01*
X12065000Y-8309610D02*
X12119610Y-8255000D01*
X12065000Y-8200390D01*
X12010390Y-8255000D01*
X12065000Y-8309610D01*
X12065000Y-8563610D02*
X12119610Y-8509000D01*
X12065000Y-8454390D01*
X12010390Y-8509000D01*
X12065000Y-8563610D01*
X12065000Y-8817610D02*
X12119610Y-8763000D01*
X12065000Y-8708390D01*
X12010390Y-8763000D01*
X12065000Y-8817610D01*
X12065000Y-9071610D02*
X12119610Y-9017000D01*
X12065000Y-8962390D01*
X12010390Y-9017000D01*
X12065000Y-9071610D01*
X12065000Y-9325610D02*
X12119610Y-9271000D01*
X12065000Y-9216390D01*
X12010390Y-9271000D01*
X12065000Y-9325610D01*
X12065000Y-9579610D02*
X12119610Y-9525000D01*
X12065000Y-9470390D01*
X12010390Y-9525000D01*
X12065000Y-9579610D01*
X12065000Y-9833610D02*
X12119610Y-9779000D01*
X12065000Y-9724390D01*
X12010390Y-9779000D01*
X12065000Y-9833610D01*
X12065000Y-10087610D02*
X12119610Y-10033000D01*
X12065000Y-9978390D01*
X12010390Y-10033000D01*
X12065000Y-10087610D01*
X12065000Y-10341610D02*
X12119610Y-10287000D01*
X12065000Y-10232390D01*
X12010390Y-10287000D01*
X12065000Y-10341610D01*
X12065000Y-10595610D02*
X12119610Y-10541000D01*
X12065000Y-10486390D01*
X12010390Y-10541000D01*
X12065000Y-10595610D01*
X12065000Y-10849610D02*
X12119610Y-10795000D01*
X12065000Y-10740390D01*
X12010390Y-10795000D01*
X12065000Y-10849610D01*
X12065000Y-11103610D02*
X12119610Y-11049000D01*
X12065000Y-10994390D01*
X12010390Y-11049000D01*
X12065000Y-11103610D01*
X12065000Y-11357610D02*
X12119610Y-11303000D01*
X12065000Y-11248390D01*
X12010390Y-11303000D01*
X12065000Y-11357610D01*
X12065000Y-11611610D02*
X12119610Y-11557000D01*
X12065000Y-11502390D01*
X12010390Y-11557000D01*
X12065000Y-11611610D01*
X12065000Y-11865610D02*
X12119610Y-11811000D01*
X12065000Y-11756390D01*
X12010390Y-11811000D01*
X12065000Y-11865610D01*
X12065000Y-12119610D02*
X12119610Y-12065000D01*
X12065000Y-12010390D01*
X12010390Y-12065000D01*
X12065000Y-12119610D01*
X12065000Y-12373610D02*
X12119610Y-12319000D01*
X12065000Y-12264390D01*
X12010390Y-12319000D01*
X12065000Y-12373610D01*
X12065000Y-12627610D02*
X12119610Y-12573000D01*
X12065000Y-12518390D01*
X12010390Y-12573000D01*
X12065000Y-12627610D01*
X12065000Y-12881610D02*
X12119610Y-12827000D01*
X12065000Y-12772390D01*
X12010390Y-12827000D01*
X12065000Y-12881610D01*
X12065000Y-13135610D02*
X12119610Y-13081000D01*
X12065000Y-13026390D01*
X12010390Y-13081000D01*
X12065000Y-13135610D01*
X12573000Y-5515610D02*
X12627610Y-5461000D01*
X12573000Y-5406390D01*
X12518390Y-5461000D01*
X12573000Y-5515610D01*
X12573000Y-5769610D02*
X12627610Y-5715000D01*
X12573000Y-5660390D01*
X12518390Y-5715000D01*
X12573000Y-5769610D01*
X12573000Y-6023610D02*
X12627610Y-5969000D01*
X12573000Y-5914390D01*
X12518390Y-5969000D01*
X12573000Y-6023610D01*
X12573000Y-6277610D02*
X12627610Y-6223000D01*
X12573000Y-6168390D01*
X12518390Y-6223000D01*
X12573000Y-6277610D01*
X12573000Y-6531610D02*
X12627610Y-6477000D01*
X12573000Y-6422390D01*
X12518390Y-6477000D01*
X12573000Y-6531610D01*
X12573000Y-6785610D02*
X12627610Y-6731000D01*
X12573000Y-6676390D01*
X12518390Y-6731000D01*
X12573000Y-6785610D01*
X12573000Y-7039610D02*
X12627610Y-6985000D01*
X12573000Y-6930390D01*
X12518390Y-6985000D01*
X12573000Y-7039610D01*
X12573000Y-7293610D02*
X12627610Y-7239000D01*
X12573000Y-7184390D01*
X12518390Y-7239000D01*
X12573000Y-7293610D01*
X12573000Y-7547610D02*
X12627610Y-7493000D01*
X12573000Y-7438390D01*
X12518390Y-7493000D01*
X12573000Y-7547610D01*
X12573000Y-7801610D02*
X12627610Y-7747000D01*
X12573000Y-7692390D01*
X12518390Y-7747000D01*
X12573000Y-7801610D01*
X12573000Y-8055610D02*
X12627610Y-8001000D01*
X12573000Y-7946390D01*
X12518390Y-8001000D01*
X12573000Y-8055610D01*
X12573000Y-8309610D02*
X12627610Y-8255000D01*
X12573000Y-8200390D01*
X12518390Y-8255000D01*
X12573000Y-8309610D01*
X12573000Y-8563610D02*
X12627610Y-8509000D01*
X12573000Y-8454390D01*
X12518390Y-8509000D01*
X12573000Y-8563610D01*
X12573000Y-8817610D02*
X12627610Y-8763000D01*
X12573000Y-8708390D01*
X12518390Y-8763000D01*
X12573000Y-8817610D01*
X12573000Y-9071610D02*
X12627610Y-9017000D01*
X12573000Y-8962390D01*
X12518390Y-9017000D01*
X12573000Y-9071610D01*
X12573000Y-9325610D02*
X12627610Y-9271000D01*
X12573000Y-9216390D01*
X12518390Y-9271000D01*
X12573000Y-9325610D01*
X12573000Y-9579610D02*
X12627610Y-9525000D01*
X12573000Y-9470390D01*
X12518390Y-9525000D01*
X12573000Y-9579610D01*
X12573000Y-9833610D02*
X12627610Y-9779000D01*
X12573000Y-9724390D01*
X12518390Y-9779000D01*
X12573000Y-9833610D01*
X12573000Y-10087610D02*
X12627610Y-10033000D01*
X12573000Y-9978390D01*
X12518390Y-10033000D01*
X12573000Y-10087610D01*
X12573000Y-10341610D02*
X12627610Y-10287000D01*
X12573000Y-10232390D01*
X12518390Y-10287000D01*
X12573000Y-10341610D01*
X12573000Y-10595610D02*
X12627610Y-10541000D01*
X12573000Y-10486390D01*
X12518390Y-10541000D01*
X12573000Y-10595610D01*
X12573000Y-10849610D02*
X12627610Y-10795000D01*
X12573000Y-10740390D01*
X12518390Y-10795000D01*
X12573000Y-10849610D01*
X12573000Y-11103610D02*
X12627610Y-11049000D01*
X12573000Y-10994390D01*
X12518390Y-11049000D01*
X12573000Y-11103610D01*
X12573000Y-11357610D02*
X12627610Y-11303000D01*
X12573000Y-11248390D01*
X12518390Y-11303000D01*
X12573000Y-11357610D01*
X12573000Y-11611610D02*
X12627610Y-11557000D01*
X12573000Y-11502390D01*
X12518390Y-11557000D01*
X12573000Y-11611610D01*
X12573000Y-11865610D02*
X12627610Y-11811000D01*
X12573000Y-11756390D01*
X12518390Y-11811000D01*
X12573000Y-11865610D01*
X12573000Y-12119610D02*
X12627610Y-12065000D01*
X12573000Y-12010390D01*
X12518390Y-12065000D01*
X12573000Y-12119610D01*
X12573000Y-12373610D02*
X12627610Y-12319000D01*
X12573000Y-12264390D01*
X12518390Y-12319000D01*
X12573000Y-12373610D01*
X12573000Y-12627610D02*
X12627610Y-12573000D01*
X12573000Y-12518390D01*
X12518390Y-12573000D01*
X12573000Y-12627610D01*
X12573000Y-12881610D02*
X12627610Y-12827000D01*
X12573000Y-12772390D01*
X12518390Y-12827000D01*
X12573000Y-12881610D01*
X12573000Y-13135610D02*
X12627610Y-13081000D01*
X12573000Y-13026390D01*
X12518390Y-13081000D01*
X12573000Y-13135610D01*
X14097000Y-5515610D02*
X14151610Y-5461000D01*
X14097000Y-5406390D01*
X14042390Y-5461000D01*
X14097000Y-5515610D01*
X14097000Y-5769610D02*
X14151610Y-5715000D01*
X14097000Y-5660390D01*
X14042390Y-5715000D01*
X14097000Y-5769610D01*
X14097000Y-6023610D02*
X14151610Y-5969000D01*
X14097000Y-5914390D01*
X14042390Y-5969000D01*
X14097000Y-6023610D01*
X14097000Y-6277610D02*
X14151610Y-6223000D01*
X14097000Y-6168390D01*
X14042390Y-6223000D01*
X14097000Y-6277610D01*
X14097000Y-6531610D02*
X14151610Y-6477000D01*
X14097000Y-6422390D01*
X14042390Y-6477000D01*
X14097000Y-6531610D01*
X14097000Y-6785610D02*
X14151610Y-6731000D01*
X14097000Y-6676390D01*
X14042390Y-6731000D01*
X14097000Y-6785610D01*
X14097000Y-7039610D02*
X14151610Y-6985000D01*
X14097000Y-6930390D01*
X14042390Y-6985000D01*
X14097000Y-7039610D01*
X14097000Y-7293610D02*
X14151610Y-7239000D01*
X14097000Y-7184390D01*
X14042390Y-7239000D01*
X14097000Y-7293610D01*
X14097000Y-7547610D02*
X14151610Y-7493000D01*
X14097000Y-7438390D01*
X14042390Y-7493000D01*
X14097000Y-7547610D01*
X14097000Y-7801610D02*
X14151610Y-7747000D01*
X14097000Y-7692390D01*
X14042390Y-7747000D01*
X14097000Y-7801610D01*
X14097000Y-8055610D02*
X14151610Y-8001000D01*
X14097000Y-7946390D01*
X14042390Y-8001000D01*
X14097000Y-8055610D01*
X14097000Y-8309610D02*
X14151610Y-8255000D01*
X14097000Y-8200390D01*
X14042390Y-8255000D01*
X14097000Y-8309610D01*
X14097000Y-8563610D02*
X14151610Y-8509000D01*
X14097000Y-8454390D01*
X14042390Y-8509000D01*
X14097000Y-8563610D01*
X14097000Y-8817610D02*
X14151610Y-8763000D01*
X14097000Y-8708390D01*
X14042390Y-8763000D01*
X14097000Y-8817610D01*
X14097000Y-9071610D02*
X14151610Y-9017000D01*
X14097000Y-8962390D01*
X14042390Y-9017000D01*
X14097000Y-9071610D01*
X14097000Y-9325610D02*
X14151610Y-9271000D01*
X14097000Y-9216390D01*
X14042390Y-9271000D01*
X14097000Y-9325610D01*
X14097000Y-9579610D02*
X14151610Y-9525000D01*
X14097000Y-9470390D01*
X14042390Y-9525000D01*
X14097000Y-9579610D01*
X14097000Y-9833610D02*
X14151610Y-9779000D01*
X14097000Y-9724390D01*
X14042390Y-9779000D01*
X14097000Y-9833610D01*
X14097000Y-10087610D02*
X14151610Y-10033000D01*
X14097000Y-9978390D01*
X14042390Y-10033000D01*
X14097000Y-10087610D01*
X14097000Y-10341610D02*
X14151610Y-10287000D01*
X14097000Y-10232390D01*
X14042390Y-10287000D01*
X14097000Y-10341610D01*
X14097000Y-10595610D02*
X14151610Y-10541000D01*
X14097000Y-10486390D01*
X14042390Y-10541000D01*
X14097000Y-10595610D01*
X14097000Y-10849610D02*
X14151610Y-10795000D01*
X14097000Y-10740390D01*
X14042390Y-10795000D01*
X14097000Y-10849610D01*
X14097000Y-11103610D02*
X14151610Y-11049000D01*
X14097000Y-10994390D01*
X14042390Y-11049000D01*
X14097000Y-11103610D01*
X14097000Y-11357610D02*
X14151610Y-11303000D01*
X14097000Y-11248390D01*
X14042390Y-11303000D01*
X14097000Y-11357610D01*
X14097000Y-11611610D02*
X14151610Y-11557000D01*
X14097000Y-11502390D01*
X14042390Y-11557000D01*
X14097000Y-11611610D01*
X14097000Y-11865610D02*
X14151610Y-11811000D01*
X14097000Y-11756390D01*
X14042390Y-11811000D01*
X14097000Y-11865610D01*
X14097000Y-12119610D02*
X14151610Y-12065000D01*
X14097000Y-12010390D01*
X14042390Y-12065000D01*
X14097000Y-12119610D01*
X14097000Y-12373610D02*
X14151610Y-12319000D01*
X14097000Y-12264390D01*
X14042390Y-12319000D01*
X14097000Y-12373610D01*
X14097000Y-12627610D02*
X14151610Y-12573000D01*
X14097000Y-12518390D01*
X14042390Y-12573000D01*
X14097000Y-12627610D01*
X14097000Y-12881610D02*
X14151610Y-12827000D01*
X14097000Y-12772390D01*
X14042390Y-12827000D01*
X14097000Y-12881610D01*
X14097000Y-13135610D02*
X14151610Y-13081000D01*
X14097000Y-13026390D01*
X14042390Y-13081000D01*
X14097000Y-13135610D01*
X14605000Y-5515610D02*
X14659610Y-5461000D01*
X14605000Y-5406390D01*
X14550390Y-5461000D01*
X14605000Y-5515610D01*
X14605000Y-5769610D02*
X14659610Y-5715000D01*
X14605000Y-5660390D01*
X14550390Y-5715000D01*
X14605000Y-5769610D01*
X14605000Y-6023610D02*
X14659610Y-5969000D01*
X14605000Y-5914390D01*
X14550390Y-5969000D01*
X14605000Y-6023610D01*
X14605000Y-6277610D02*
X14659610Y-6223000D01*
X14605000Y-6168390D01*
X14550390Y-6223000D01*
X14605000Y-6277610D01*
X14605000Y-6531610D02*
X14659610Y-6477000D01*
X14605000Y-6422390D01*
X14550390Y-6477000D01*
X14605000Y-6531610D01*
X14605000Y-6785610D02*
X14659610Y-6731000D01*
X14605000Y-6676390D01*
X14550390Y-6731000D01*
X14605000Y-6785610D01*
X14605000Y-7039610D02*
X14659610Y-6985000D01*
X14605000Y-6930390D01*
X14550390Y-6985000D01*
X14605000Y-7039610D01*
X14605000Y-7293610D02*
X14659610Y-7239000D01*
X14605000Y-7184390D01*
X14550390Y-7239000D01*
X14605000Y-7293610D01*
X14605000Y-7547610D02*
X14659610Y-7493000D01*
X14605000Y-7438390D01*
X14550390Y-7493000D01*
X14605000Y-7547610D01*
X14605000Y-7801610D02*
X14659610Y-7747000D01*
X14605000Y-7692390D01*
X14550390Y-7747000D01*
X14605000Y-7801610D01*
X14605000Y-8055610D02*
X14659610Y-8001000D01*
X14605000Y-7946390D01*
X14550390Y-8001000D01*
X14605000Y-8055610D01*
X14605000Y-8309610D02*
X14659610Y-8255000D01*
X14605000Y-8200390D01*
X14550390Y-8255000D01*
X14605000Y-8309610D01*
X14605000Y-8563610D02*
X14659610Y-8509000D01*
X14605000Y-8454390D01*
X14550390Y-8509000D01*
X14605000Y-8563610D01*
X14605000Y-8817610D02*
X14659610Y-8763000D01*
X14605000Y-8708390D01*
X14550390Y-8763000D01*
X14605000Y-8817610D01*
X14605000Y-9071610D02*
X14659610Y-9017000D01*
X14605000Y-8962390D01*
X14550390Y-9017000D01*
X14605000Y-9071610D01*
X14605000Y-9325610D02*
X14659610Y-9271000D01*
X14605000Y-9216390D01*
X14550390Y-9271000D01*
X14605000Y-9325610D01*
X14605000Y-9579610D02*
X14659610Y-9525000D01*
X14605000Y-9470390D01*
X14550390Y-9525000D01*
X14605000Y-9579610D01*
X14605000Y-9833610D02*
X14659610Y-9779000D01*
X14605000Y-9724390D01*
X14550390Y-9779000D01*
X14605000Y-9833610D01*
X14605000Y-10087610D02*
X14659610Y-10033000D01*
X14605000Y-9978390D01*
X14550390Y-10033000D01*
X14605000Y-10087610D01*
X14605000Y-10341610D02*
X14659610Y-10287000D01*
X14605000Y-10232390D01*
X14550390Y-10287000D01*
X14605000Y-10341610D01*
X14605000Y-10595610D02*
X14659610Y-10541000D01*
X14605000Y-10486390D01*
X14550390Y-10541000D01*
X14605000Y-10595610D01*
X14605000Y-10849610D02*
X14659610Y-10795000D01*
X14605000Y-10740390D01*
X14550390Y-10795000D01*
X14605000Y-10849610D01*
X14605000Y-11103610D02*
X14659610Y-11049000D01*
X14605000Y-10994390D01*
X14550390Y-11049000D01*
X14605000Y-11103610D01*
X14605000Y-11357610D02*
X14659610Y-11303000D01*
X14605000Y-11248390D01*
X14550390Y-11303000D01*
X14605000Y-11357610D01*
X14605000Y-11611610D02*
X14659610Y-11557000D01*
X14605000Y-11502390D01*
X14550390Y-11557000D01*
X14605000Y-11611610D01*
X14605000Y-11865610D02*
X14659610Y-11811000D01*
X14605000Y-11756390D01*
X14550390Y-11811000D01*
X14605000Y-11865610D01*
X14605000Y-12119610D02*
X14659610Y-12065000D01*
X14605000Y-12010390D01*
X14550390Y-12065000D01*
X14605000Y-12119610D01*
X14605000Y-12373610D02*
X14659610Y-12319000D01*
X14605000Y-12264390D01*
X14550390Y-12319000D01*
X14605000Y-12373610D01*
X14605000Y-12627610D02*
X14659610Y-12573000D01*
X14605000Y-12518390D01*
X14550390Y-12573000D01*
X14605000Y-12627610D01*
X14605000Y-12881610D02*
X14659610Y-12827000D01*
X14605000Y-12772390D01*
X14550390Y-12827000D01*
X14605000Y-12881610D01*
X14605000Y-13135610D02*
X14659610Y-13081000D01*
X14605000Y-13026390D01*
X14550390Y-13081000D01*
X14605000Y-13135610D01*
X16129000Y-5515610D02*
X16183610Y-5461000D01*
X16129000Y-5406390D01*
X16074390Y-5461000D01*
X16129000Y-5515610D01*
X16129000Y-5769610D02*
X16183610Y-5715000D01*
X16129000Y-5660390D01*
X16074390Y-5715000D01*
X16129000Y-5769610D01*
X16129000Y-6023610D02*
X16183610Y-5969000D01*
X16129000Y-5914390D01*
X16074390Y-5969000D01*
X16129000Y-6023610D01*
X16129000Y-6277610D02*
X16183610Y-6223000D01*
X16129000Y-6168390D01*
X16074390Y-6223000D01*
X16129000Y-6277610D01*
X16129000Y-6531610D02*
X16183610Y-6477000D01*
X16129000Y-6422390D01*
X16074390Y-6477000D01*
X16129000Y-6531610D01*
X16129000Y-6785610D02*
X16183610Y-6731000D01*
X16129000Y-6676390D01*
X16074390Y-6731000D01*
X16129000Y-6785610D01*
X16129000Y-7039610D02*
X16183610Y-6985000D01*
X16129000Y-6930390D01*
X16074390Y-6985000D01*
X16129000Y-7039610D01*
X16129000Y-7293610D02*
X16183610Y-7239000D01*
X16129000Y-7184390D01*
X16074390Y-7239000D01*
X16129000Y-7293610D01*
X16129000Y-7547610D02*
X16183610Y-7493000D01*
X16129000Y-7438390D01*
X16074390Y-7493000D01*
X16129000Y-7547610D01*
X16129000Y-7801610D02*
X16183610Y-7747000D01*
X16129000Y-7692390D01*
X16074390Y-7747000D01*
X16129000Y-7801610D01*
X16129000Y-8055610D02*
X16183610Y-8001000D01*
X16129000Y-7946390D01*
X16074390Y-8001000D01*
X16129000Y-8055610D01*
X16129000Y-8309610D02*
X16183610Y-8255000D01*
X16129000Y-8200390D01*
X16074390Y-8255000D01*
X16129000Y-8309610D01*
X16129000Y-8563610D02*
X16183610Y-8509000D01*
X16129000Y-8454390D01*
X16074390Y-8509000D01*
X16129000Y-8563610D01*
X16129000Y-8817610D02*
X16183610Y-8763000D01*
X16129000Y-8708390D01*
X16074390Y-8763000D01*
X16129000Y-8817610D01*
X16129000Y-9071610D02*
X16183610Y-9017000D01*
X16129000Y-8962390D01*
X16074390Y-9017000D01*
X16129000Y-9071610D01*
X16129000Y-9325610D02*
X16183610Y-9271000D01*
X16129000Y-9216390D01*
X16074390Y-9271000D01*
X16129000Y-9325610D01*
X16129000Y-9579610D02*
X16183610Y-9525000D01*
X16129000Y-9470390D01*
X16074390Y-9525000D01*
X16129000Y-9579610D01*
X16129000Y-9833610D02*
X16183610Y-9779000D01*
X16129000Y-9724390D01*
X16074390Y-9779000D01*
X16129000Y-9833610D01*
X16129000Y-10087610D02*
X16183610Y-10033000D01*
X16129000Y-9978390D01*
X16074390Y-10033000D01*
X16129000Y-10087610D01*
X16129000Y-10341610D02*
X16183610Y-10287000D01*
X16129000Y-10232390D01*
X16074390Y-10287000D01*
X16129000Y-10341610D01*
X16129000Y-10595610D02*
X16183610Y-10541000D01*
X16129000Y-10486390D01*
X16074390Y-10541000D01*
X16129000Y-10595610D01*
X16129000Y-10849610D02*
X16183610Y-10795000D01*
X16129000Y-10740390D01*
X16074390Y-10795000D01*
X16129000Y-10849610D01*
X16129000Y-11103610D02*
X16183610Y-11049000D01*
X16129000Y-10994390D01*
X16074390Y-11049000D01*
X16129000Y-11103610D01*
X16129000Y-11357610D02*
X16183610Y-11303000D01*
X16129000Y-11248390D01*
X16074390Y-11303000D01*
X16129000Y-11357610D01*
X16129000Y-11611610D02*
X16183610Y-11557000D01*
X16129000Y-11502390D01*
X16074390Y-11557000D01*
X16129000Y-11611610D01*
X16129000Y-11865610D02*
X16183610Y-11811000D01*
X16129000Y-11756390D01*
X16074390Y-11811000D01*
X16129000Y-11865610D01*
X16129000Y-12119610D02*
X16183610Y-12065000D01*
X16129000Y-12010390D01*
X16074390Y-12065000D01*
X16129000Y-12119610D01*
X16129000Y-12373610D02*
X16183610Y-12319000D01*
X16129000Y-12264390D01*
X16074390Y-12319000D01*
X16129000Y-12373610D01*
X16129000Y-12627610D02*
X16183610Y-12573000D01*
X16129000Y-12518390D01*
X16074390Y-12573000D01*
X16129000Y-12627610D01*
X16129000Y-12881610D02*
X16183610Y-12827000D01*
X16129000Y-12772390D01*
X16074390Y-12827000D01*
X16129000Y-12881610D01*
X16129000Y-13135610D02*
X16183610Y-13081000D01*
X16129000Y-13026390D01*
X16074390Y-13081000D01*
X16129000Y-13135610D01*
X16637000Y-5515610D02*
X16691610Y-5461000D01*
X16637000Y-5406390D01*
X16582390Y-5461000D01*
X16637000Y-5515610D01*
X16637000Y-5769610D02*
X16691610Y-5715000D01*
X16637000Y-5660390D01*
X16582390Y-5715000D01*
X16637000Y-5769610D01*
X16637000Y-6023610D02*
X16691610Y-5969000D01*
X16637000Y-5914390D01*
X16582390Y-5969000D01*
X16637000Y-6023610D01*
X16637000Y-6277610D02*
X16691610Y-6223000D01*
X16637000Y-6168390D01*
X16582390Y-6223000D01*
X16637000Y-6277610D01*
X16637000Y-6531610D02*
X16691610Y-6477000D01*
X16637000Y-6422390D01*
X16582390Y-6477000D01*
X16637000Y-6531610D01*
X16637000Y-6785610D02*
X16691610Y-6731000D01*
X16637000Y-6676390D01*
X16582390Y-6731000D01*
X16637000Y-6785610D01*
X16637000Y-7039610D02*
X16691610Y-6985000D01*
X16637000Y-6930390D01*
X16582390Y-6985000D01*
X16637000Y-7039610D01*
X16637000Y-7293610D02*
X16691610Y-7239000D01*
X16637000Y-7184390D01*
X16582390Y-7239000D01*
X16637000Y-7293610D01*
X16637000Y-7547610D02*
X16691610Y-7493000D01*
X16637000Y-7438390D01*
X16582390Y-7493000D01*
X16637000Y-7547610D01*
X16637000Y-7801610D02*
X16691610Y-7747000D01*
X16637000Y-7692390D01*
X16582390Y-7747000D01*
X16637000Y-7801610D01*
X16637000Y-8055610D02*
X16691610Y-8001000D01*
X16637000Y-7946390D01*
X16582390Y-8001000D01*
X16637000Y-8055610D01*
X16637000Y-8309610D02*
X16691610Y-8255000D01*
X16637000Y-8200390D01*
X16582390Y-8255000D01*
X16637000Y-8309610D01*
X16637000Y-8563610D02*
X16691610Y-8509000D01*
X16637000Y-8454390D01*
X16582390Y-8509000D01*
X16637000Y-8563610D01*
X16637000Y-8817610D02*
X16691610Y-8763000D01*
X16637000Y-8708390D01*
X16582390Y-8763000D01*
X16637000Y-8817610D01*
X16637000Y-9071610D02*
X16691610Y-9017000D01*
X16637000Y-8962390D01*
X16582390Y-9017000D01*
X16637000Y-9071610D01*
X16637000Y-9325610D02*
X16691610Y-9271000D01*
X16637000Y-9216390D01*
X16582390Y-9271000D01*
X16637000Y-9325610D01*
X16637000Y-9579610D02*
X16691610Y-9525000D01*
X16637000Y-9470390D01*
X16582390Y-9525000D01*
X16637000Y-9579610D01*
X16637000Y-9833610D02*
X16691610Y-9779000D01*
X16637000Y-9724390D01*
X16582390Y-9779000D01*
X16637000Y-9833610D01*
X16637000Y-10087610D02*
X16691610Y-10033000D01*
X16637000Y-9978390D01*
X16582390Y-10033000D01*
X16637000Y-10087610D01*
X16637000Y-10341610D02*
X16691610Y-10287000D01*
X16637000Y-10232390D01*
X16582390Y-10287000D01*
X16637000Y-10341610D01*
X16637000Y-10595610D02*
X16691610Y-10541000D01*
X16637000Y-10486390D01*
X16582390Y-10541000D01*
X16637000Y-10595610D01*
X16637000Y-10849610D02*
X16691610Y-10795000D01*
X16637000Y-10740390D01*
X16582390Y-10795000D01*
X16637000Y-10849610D01*
X16637000Y-11103610D02*
X16691610Y-11049000D01*
X16637000Y-10994390D01*
X16582390Y-11049000D01*
X16637000Y-11103610D01*
X16637000Y-11357610D02*
X16691610Y-11303000D01*
X16637000Y-11248390D01*
X16582390Y-11303000D01*
X16637000Y-11357610D01*
X16637000Y-11611610D02*
X16691610Y-11557000D01*
X16637000Y-11502390D01*
X16582390Y-11557000D01*
X16637000Y-11611610D01*
X16637000Y-11865610D02*
X16691610Y-11811000D01*
X16637000Y-11756390D01*
X16582390Y-11811000D01*
X16637000Y-11865610D01*
X16637000Y-12119610D02*
X16691610Y-12065000D01*
X16637000Y-12010390D01*
X16582390Y-12065000D01*
X16637000Y-12119610D01*
X16637000Y-12373610D02*
X16691610Y-12319000D01*
X16637000Y-12264390D01*
X16582390Y-12319000D01*
X16637000Y-12373610D01*
X16637000Y-12627610D02*
X16691610Y-12573000D01*
X16637000Y-12518390D01*
X16582390Y-12573000D01*
X16637000Y-12627610D01*
X16637000Y-12881610D02*
X16691610Y-12827000D01*
X16637000Y-12772390D01*
X16582390Y-12827000D01*
X16637000Y-12881610D01*
X16637000Y-13135610D02*
X16691610Y-13081000D01*
X16637000Y-13026390D01*
X16582390Y-13081000D01*
X16637000Y-13135610D01*
X18161000Y-5515610D02*
X18215610Y-5461000D01*
X18161000Y-5406390D01*
X18106390Y-5461000D01*
X18161000Y-5515610D01*
X18161000Y-5769610D02*
X18215610Y-5715000D01*
X18161000Y-5660390D01*
X18106390Y-5715000D01*
X18161000Y-5769610D01*
X18161000Y-6023610D02*
X18215610Y-5969000D01*
X18161000Y-5914390D01*
X18106390Y-5969000D01*
X18161000Y-6023610D01*
X18161000Y-6277610D02*
X18215610Y-6223000D01*
X18161000Y-6168390D01*
X18106390Y-6223000D01*
X18161000Y-6277610D01*
X18161000Y-6531610D02*
X18215610Y-6477000D01*
X18161000Y-6422390D01*
X18106390Y-6477000D01*
X18161000Y-6531610D01*
X18161000Y-6785610D02*
X18215610Y-6731000D01*
X18161000Y-6676390D01*
X18106390Y-6731000D01*
X18161000Y-6785610D01*
X18161000Y-7039610D02*
X18215610Y-6985000D01*
X18161000Y-6930390D01*
X18106390Y-6985000D01*
X18161000Y-7039610D01*
X18161000Y-7293610D02*
X18215610Y-7239000D01*
X18161000Y-7184390D01*
X18106390Y-7239000D01*
X18161000Y-7293610D01*
X18161000Y-7547610D02*
X18215610Y-7493000D01*
X18161000Y-7438390D01*
X18106390Y-7493000D01*
X18161000Y-7547610D01*
X18161000Y-7801610D02*
X18215610Y-7747000D01*
X18161000Y-7692390D01*
X18106390Y-7747000D01*
X18161000Y-7801610D01*
X18161000Y-8055610D02*
X18215610Y-8001000D01*
X18161000Y-7946390D01*
X18106390Y-8001000D01*
X18161000Y-8055610D01*
X18161000Y-8309610D02*
X18215610Y-8255000D01*
X18161000Y-8200390D01*
X18106390Y-8255000D01*
X18161000Y-8309610D01*
X18161000Y-8563610D02*
X18215610Y-8509000D01*
X18161000Y-8454390D01*
X18106390Y-8509000D01*
X18161000Y-8563610D01*
X18161000Y-8817610D02*
X18215610Y-8763000D01*
X18161000Y-8708390D01*
X18106390Y-8763000D01*
X18161000Y-8817610D01*
X18161000Y-9071610D02*
X18215610Y-9017000D01*
X18161000Y-8962390D01*
X18106390Y-9017000D01*
X18161000Y-9071610D01*
X18161000Y-9325610D02*
X18215610Y-9271000D01*
X18161000Y-9216390D01*
X18106390Y-9271000D01*
X18161000Y-9325610D01*
X18161000Y-9579610D02*
X18215610Y-9525000D01*
X18161000Y-9470390D01*
X18106390Y-9525000D01*
X18161000Y-9579610D01*
X18161000Y-9833610D02*
X18215610Y-9779000D01*
X18161000Y-9724390D01*
X18106390Y-9779000D01*
X18161000Y-9833610D01*
X18161000Y-10087610D02*
X18215610Y-10033000D01*
X18161000Y-9978390D01*
X18106390Y-10033000D01*
X18161000Y-10087610D01*
X18161000Y-10341610D02*
X18215610Y-10287000D01*
X18161000Y-10232390D01*
X18106390Y-10287000D01*
X18161000Y-10341610D01*
X18161000Y-10595610D02*
X18215610Y-10541000D01*
X18161000Y-10486390D01*
X18106390Y-10541000D01*
X18161000Y-10595610D01*
X18161000Y-10849610D02*
X18215610Y-10795000D01*
X18161000Y-10740390D01*
X18106390Y-10795000D01*
X18161000Y-10849610D01*
X18161000Y-11103610D02*
X18215610Y-11049000D01*
X18161000Y-10994390D01*
X18106390Y-11049000D01*
X18161000Y-11103610D01*
X18161000Y-11357610D02*
X18215610Y-11303000D01*
X18161000Y-11248390D01*
X18106390Y-11303000D01*
X18161000Y-11357610D01*
X18161000Y-11611610D02*
X18215610Y-11557000D01*
X18161000Y-11502390D01*
X18106390Y-11557000D01*
X18161000Y-11611610D01*
X18161000Y-11865610D02*
X18215610Y-11811000D01*
X18161000Y-11756390D01*
X18106390Y-11811000D01*
X18161000Y-11865610D01*
X18161000Y-12119610D02*
X18215610Y-12065000D01*
X18161000Y-12010390D01*
X18106390Y-12065000D01*
X18161000Y-12119610D01*
X18161000Y-12373610D02*
X18215610Y-12319000D01*
X18161000Y-12264390D01*
X18106390Y-12319000D01*
X18161000Y-12373610D01*
X18161000Y-12627610D02*
X18215610Y-12573000D01*
X18161000Y-12518390D01*
X18106390Y-12573000D01*
X18161000Y-12627610D01*
X18161000Y-12881610D02*
X18215610Y-12827000D01*
X18161000Y-12772390D01*
X18106390Y-12827000D01*
X18161000Y-12881610D01*
X18161000Y-13135610D02*
X18215610Y-13081000D01*
X18161000Y-13026390D01*
X18106390Y-13081000D01*
X18161000Y-13135610D01*
X18669000Y-5515610D02*
X18723610Y-5461000D01*
X18669000Y-5406390D01*
X18614390Y-5461000D01*
X18669000Y-5515610D01*
X18669000Y-5769610D02*
X18723610Y-5715000D01*
X18669000Y-5660390D01*
X18614390Y-5715000D01*
X18669000Y-5769610D01*
X18669000Y-6023610D02*
X18723610Y-5969000D01*
X18669000Y-5914390D01*
X18614390Y-5969000D01*
X18669000Y-6023610D01*
X18669000Y-6277610D02*
X18723610Y-6223000D01*
X18669000Y-6168390D01*
X18614390Y-6223000D01*
X18669000Y-6277610D01*
X18669000Y-6531610D02*
X18723610Y-6477000D01*
X18669000Y-6422390D01*
X18614390Y-6477000D01*
X18669000Y-6531610D01*
X18669000Y-6785610D02*
X18723610Y-6731000D01*
X18669000Y-6676390D01*
X18614390Y-6731000D01*
X18669000Y-6785610D01*
X18669000Y-7039610D02*
X18723610Y-6985000D01*
X18669000Y-6930390D01*
X18614390Y-6985000D01*
X18669000Y-7039610D01*
X18669000Y-7293610D02*
X18723610Y-7239000D01*
X18669000Y-7184390D01*
X18614390Y-7239000D01*
X18669000Y-7293610D01*
X18669000Y-7547610D02*
X18723610Y-7493000D01*
X18669000Y-7438390D01*
X18614390Y-7493000D01*
X18669000Y-7547610D01*
X18669000Y-7801610D02*
X18723610Y-7747000D01*
X18669000Y-7692390D01*
X18614390Y-7747000D01*
X18669000Y-7801610D01*
X18669000Y-8055610D02*
X18723610Y-8001000D01*
X18669000Y-7946390D01*
X18614390Y-8001000D01*
X18669000Y-8055610D01*
X18669000Y-8309610D02*
X18723610Y-8255000D01*
X18669000Y-8200390D01*
X18614390Y-8255000D01*
X18669000Y-8309610D01*
X18669000Y-8563610D02*
X18723610Y-8509000D01*
X18669000Y-8454390D01*
X18614390Y-8509000D01*
X18669000Y-8563610D01*
X18669000Y-8817610D02*
X18723610Y-8763000D01*
X18669000Y-8708390D01*
X18614390Y-8763000D01*
X18669000Y-8817610D01*
X18669000Y-9071610D02*
X18723610Y-9017000D01*
X18669000Y-8962390D01*
X18614390Y-9017000D01*
X18669000Y-9071610D01*
X18669000Y-9325610D02*
X18723610Y-9271000D01*
X18669000Y-9216390D01*
X18614390Y-9271000D01*
X18669000Y-9325610D01*
X18669000Y-9579610D02*
X18723610Y-9525000D01*
X18669000Y-9470390D01*
X18614390Y-9525000D01*
X18669000Y-9579610D01*
X18669000Y-9833610D02*
X18723610Y-9779000D01*
X18669000Y-9724390D01*
X18614390Y-9779000D01*
X18669000Y-9833610D01*
X18669000Y-10087610D02*
X18723610Y-10033000D01*
X18669000Y-9978390D01*
X18614390Y-10033000D01*
X18669000Y-10087610D01*
X18669000Y-10341610D02*
X18723610Y-10287000D01*
X18669000Y-10232390D01*
X18614390Y-10287000D01*
X18669000Y-10341610D01*
X18669000Y-10595610D02*
X18723610Y-10541000D01*
X18669000Y-10486390D01*
X18614390Y-10541000D01*
X18669000Y-10595610D01*
X18669000Y-10849610D02*
X18723610Y-10795000D01*
X18669000Y-10740390D01*
X18614390Y-10795000D01*
X18669000Y-10849610D01*
X18669000Y-11103610D02*
X18723610Y-11049000D01*
X18669000Y-10994390D01*
X18614390Y-11049000D01*
X18669000Y-11103610D01*
X18669000Y-11357610D02*
X18723610Y-11303000D01*
X18669000Y-11248390D01*
X18614390Y-11303000D01*
X18669000Y-11357610D01*
X18669000Y-11611610D02*
X18723610Y-11557000D01*
X18669000Y-11502390D01*
X18614390Y-11557000D01*
X18669000Y-11611610D01*
X18669000Y-11865610D02*
X18723610Y-11811000D01*
X18669000Y-11756390D01*
X18614390Y-11811000D01*
X18669000Y-11865610D01*
X18669000Y-12119610D02*
X18723610Y-12065000D01*
X18669000Y-12010390D01*
X18614390Y-12065000D01*
X18669000Y-12119610D01*
X18669000Y-12373610D02*
X18723610Y-12319000D01*
X18669000Y-12264390D01*
X18614390Y-12319000D01*
X18669000Y-12373610D01*
X18669000Y-12627610D02*
X18723610Y-12573000D01*
X18669000Y-12518390D01*
X18614390Y-12573000D01*
X18669000Y-12627610D01*
X18669000Y-12881610D02*
X18723610Y-12827000D01*
X18669000Y-12772390D01*
X18614390Y-12827000D01*
X18669000Y-12881610D01*
X18669000Y-13135610D02*
X18723610Y-13081000D01*
X18669000Y-13026390D01*
X18614390Y-13081000D01*
X18669000Y-13135610D01*
D16*
X4291500Y-3885000D02*
X4471500Y-4065000D01*
X4471500Y-3885000D02*
X4291500Y-4065000D01*
X4471500Y-3975000D02*
G75*
G03*
X4471500Y-3975000I-90000J0D01*
G01*
X4291500Y-4393000D02*
X4471500Y-4573000D01*
X4471500Y-4393000D02*
X4291500Y-4573000D01*
X4471500Y-4483000D02*
G75*
G03*
X4471500Y-4483000I-90000J0D01*
G01*
X5561500Y-3669000D02*
X5741500Y-3849000D01*
X5741500Y-3669000D02*
X5561500Y-3849000D01*
X5741500Y-3759000D02*
G75*
G03*
X5741500Y-3759000I-90000J0D01*
G01*
X5561500Y-4139000D02*
X5741500Y-4319000D01*
X5741500Y-4139000D02*
X5561500Y-4319000D01*
X5741500Y-4229000D02*
G75*
G03*
X5741500Y-4229000I-90000J0D01*
G01*
X5561500Y-4609000D02*
X5741500Y-4789000D01*
X5741500Y-4609000D02*
X5561500Y-4789000D01*
X5741500Y-4699000D02*
G75*
G03*
X5741500Y-4699000I-90000J0D01*
G01*
D17*
X4031000Y-14191000D02*
X4351000Y-14511000D01*
X4351000Y-14191000D02*
X4031000Y-14511000D01*
X4191000Y-14191000D02*
X4191000Y-14511000D01*
X4031000Y-14351000D02*
X4351000Y-14351000D01*
X6063000Y-4031000D02*
X6383000Y-4351000D01*
X6383000Y-4031000D02*
X6063000Y-4351000D01*
X6223000Y-4031000D02*
X6223000Y-4351000D01*
X6063000Y-4191000D02*
X6383000Y-4191000D01*
X11143000Y-4031000D02*
X11463000Y-4351000D01*
X11463000Y-4031000D02*
X11143000Y-4351000D01*
X11303000Y-4031000D02*
X11303000Y-4351000D01*
X11143000Y-4191000D02*
X11463000Y-4191000D01*
X11143000Y-14191000D02*
X11463000Y-14511000D01*
X11463000Y-14191000D02*
X11143000Y-14511000D01*
X11303000Y-14191000D02*
X11303000Y-14511000D01*
X11143000Y-14351000D02*
X11463000Y-14351000D01*
X16223000Y-4031000D02*
X16543000Y-4351000D01*
X16543000Y-4031000D02*
X16223000Y-4351000D01*
X16383000Y-4031000D02*
X16383000Y-4351000D01*
X16223000Y-4191000D02*
X16543000Y-4191000D01*
X18255000Y-14191000D02*
X18575000Y-14511000D01*
X18575000Y-14191000D02*
X18255000Y-14511000D01*
X18415000Y-14191000D02*
X18415000Y-14511000D01*
X18255000Y-14351000D02*
X18575000Y-14351000D01*
D11*
X3811777Y-16318484D02*
X3811777Y-16118484D01*
X3811777Y-16118484D02*
X3859396Y-16118484D01*
X3859396Y-16118484D02*
X3887967Y-16128008D01*
X3887967Y-16128008D02*
X3907015Y-16147055D01*
X3907015Y-16147055D02*
X3916539Y-16166103D01*
X3916539Y-16166103D02*
X3926062Y-16204198D01*
X3926062Y-16204198D02*
X3926062Y-16232769D01*
X3926062Y-16232769D02*
X3916539Y-16270865D01*
X3916539Y-16270865D02*
X3907015Y-16289912D01*
X3907015Y-16289912D02*
X3887967Y-16308960D01*
X3887967Y-16308960D02*
X3859396Y-16318484D01*
X3859396Y-16318484D02*
X3811777Y-16318484D01*
X4011777Y-16318484D02*
X4011777Y-16185150D01*
X4011777Y-16223246D02*
X4021301Y-16204198D01*
X4021301Y-16204198D02*
X4030824Y-16194674D01*
X4030824Y-16194674D02*
X4049872Y-16185150D01*
X4049872Y-16185150D02*
X4068920Y-16185150D01*
X4135586Y-16318484D02*
X4135586Y-16185150D01*
X4135586Y-16118484D02*
X4126062Y-16128008D01*
X4126062Y-16128008D02*
X4135586Y-16137531D01*
X4135586Y-16137531D02*
X4145110Y-16128008D01*
X4145110Y-16128008D02*
X4135586Y-16118484D01*
X4135586Y-16118484D02*
X4135586Y-16137531D01*
X4259396Y-16318484D02*
X4240348Y-16308960D01*
X4240348Y-16308960D02*
X4230824Y-16289912D01*
X4230824Y-16289912D02*
X4230824Y-16118484D01*
X4364158Y-16318484D02*
X4345110Y-16308960D01*
X4345110Y-16308960D02*
X4335586Y-16289912D01*
X4335586Y-16289912D02*
X4335586Y-16118484D01*
X4592729Y-16318484D02*
X4592729Y-16118484D01*
X4592729Y-16118484D02*
X4659396Y-16261341D01*
X4659396Y-16261341D02*
X4726063Y-16118484D01*
X4726063Y-16118484D02*
X4726063Y-16318484D01*
X4907015Y-16318484D02*
X4907015Y-16213722D01*
X4907015Y-16213722D02*
X4897491Y-16194674D01*
X4897491Y-16194674D02*
X4878444Y-16185150D01*
X4878444Y-16185150D02*
X4840348Y-16185150D01*
X4840348Y-16185150D02*
X4821301Y-16194674D01*
X4907015Y-16308960D02*
X4887967Y-16318484D01*
X4887967Y-16318484D02*
X4840348Y-16318484D01*
X4840348Y-16318484D02*
X4821301Y-16308960D01*
X4821301Y-16308960D02*
X4811777Y-16289912D01*
X4811777Y-16289912D02*
X4811777Y-16270865D01*
X4811777Y-16270865D02*
X4821301Y-16251817D01*
X4821301Y-16251817D02*
X4840348Y-16242293D01*
X4840348Y-16242293D02*
X4887967Y-16242293D01*
X4887967Y-16242293D02*
X4907015Y-16232769D01*
X5002253Y-16185150D02*
X5002253Y-16385150D01*
X5002253Y-16194674D02*
X5021301Y-16185150D01*
X5021301Y-16185150D02*
X5059396Y-16185150D01*
X5059396Y-16185150D02*
X5078444Y-16194674D01*
X5078444Y-16194674D02*
X5087967Y-16204198D01*
X5087967Y-16204198D02*
X5097491Y-16223246D01*
X5097491Y-16223246D02*
X5097491Y-16280388D01*
X5097491Y-16280388D02*
X5087967Y-16299436D01*
X5087967Y-16299436D02*
X5078444Y-16308960D01*
X5078444Y-16308960D02*
X5059396Y-16318484D01*
X5059396Y-16318484D02*
X5021301Y-16318484D01*
X5021301Y-16318484D02*
X5002253Y-16308960D01*
X5183205Y-16299436D02*
X5192729Y-16308960D01*
X5192729Y-16308960D02*
X5183205Y-16318484D01*
X5183205Y-16318484D02*
X5173682Y-16308960D01*
X5173682Y-16308960D02*
X5183205Y-16299436D01*
X5183205Y-16299436D02*
X5183205Y-16318484D01*
X5183205Y-16194674D02*
X5192729Y-16204198D01*
X5192729Y-16204198D02*
X5183205Y-16213722D01*
X5183205Y-16213722D02*
X5173682Y-16204198D01*
X5173682Y-16204198D02*
X5183205Y-16194674D01*
X5183205Y-16194674D02*
X5183205Y-16213722D01*
D12*
X3501000Y-16622000D02*
X3551000Y-16672000D01*
X3551000Y-16622000D02*
X3501000Y-16672000D01*
D11*
X3849872Y-16538484D02*
X3868920Y-16538484D01*
X3868920Y-16538484D02*
X3887967Y-16548008D01*
X3887967Y-16548008D02*
X3897491Y-16557531D01*
X3897491Y-16557531D02*
X3907015Y-16576579D01*
X3907015Y-16576579D02*
X3916539Y-16614674D01*
X3916539Y-16614674D02*
X3916539Y-16662293D01*
X3916539Y-16662293D02*
X3907015Y-16700388D01*
X3907015Y-16700388D02*
X3897491Y-16719436D01*
X3897491Y-16719436D02*
X3887967Y-16728960D01*
X3887967Y-16728960D02*
X3868920Y-16738484D01*
X3868920Y-16738484D02*
X3849872Y-16738484D01*
X3849872Y-16738484D02*
X3830824Y-16728960D01*
X3830824Y-16728960D02*
X3821301Y-16719436D01*
X3821301Y-16719436D02*
X3811777Y-16700388D01*
X3811777Y-16700388D02*
X3802253Y-16662293D01*
X3802253Y-16662293D02*
X3802253Y-16614674D01*
X3802253Y-16614674D02*
X3811777Y-16576579D01*
X3811777Y-16576579D02*
X3821301Y-16557531D01*
X3821301Y-16557531D02*
X3830824Y-16548008D01*
X3830824Y-16548008D02*
X3849872Y-16538484D01*
X4002253Y-16719436D02*
X4011777Y-16728960D01*
X4011777Y-16728960D02*
X4002253Y-16738484D01*
X4002253Y-16738484D02*
X3992729Y-16728960D01*
X3992729Y-16728960D02*
X4002253Y-16719436D01*
X4002253Y-16719436D02*
X4002253Y-16738484D01*
X4192729Y-16538484D02*
X4097491Y-16538484D01*
X4097491Y-16538484D02*
X4087967Y-16633722D01*
X4087967Y-16633722D02*
X4097491Y-16624198D01*
X4097491Y-16624198D02*
X4116539Y-16614674D01*
X4116539Y-16614674D02*
X4164158Y-16614674D01*
X4164158Y-16614674D02*
X4183205Y-16624198D01*
X4183205Y-16624198D02*
X4192729Y-16633722D01*
X4192729Y-16633722D02*
X4202253Y-16652769D01*
X4202253Y-16652769D02*
X4202253Y-16700388D01*
X4202253Y-16700388D02*
X4192729Y-16719436D01*
X4192729Y-16719436D02*
X4183205Y-16728960D01*
X4183205Y-16728960D02*
X4164158Y-16738484D01*
X4164158Y-16738484D02*
X4116539Y-16738484D01*
X4116539Y-16738484D02*
X4097491Y-16728960D01*
X4097491Y-16728960D02*
X4087967Y-16719436D01*
X4326063Y-16538484D02*
X4345110Y-16538484D01*
X4345110Y-16538484D02*
X4364158Y-16548008D01*
X4364158Y-16548008D02*
X4373682Y-16557531D01*
X4373682Y-16557531D02*
X4383205Y-16576579D01*
X4383205Y-16576579D02*
X4392729Y-16614674D01*
X4392729Y-16614674D02*
X4392729Y-16662293D01*
X4392729Y-16662293D02*
X4383205Y-16700388D01*
X4383205Y-16700388D02*
X4373682Y-16719436D01*
X4373682Y-16719436D02*
X4364158Y-16728960D01*
X4364158Y-16728960D02*
X4345110Y-16738484D01*
X4345110Y-16738484D02*
X4326063Y-16738484D01*
X4326063Y-16738484D02*
X4307015Y-16728960D01*
X4307015Y-16728960D02*
X4297491Y-16719436D01*
X4297491Y-16719436D02*
X4287967Y-16700388D01*
X4287967Y-16700388D02*
X4278444Y-16662293D01*
X4278444Y-16662293D02*
X4278444Y-16614674D01*
X4278444Y-16614674D02*
X4287967Y-16576579D01*
X4287967Y-16576579D02*
X4297491Y-16557531D01*
X4297491Y-16557531D02*
X4307015Y-16548008D01*
X4307015Y-16548008D02*
X4326063Y-16538484D01*
X4516539Y-16538484D02*
X4535586Y-16538484D01*
X4535586Y-16538484D02*
X4554634Y-16548008D01*
X4554634Y-16548008D02*
X4564158Y-16557531D01*
X4564158Y-16557531D02*
X4573682Y-16576579D01*
X4573682Y-16576579D02*
X4583205Y-16614674D01*
X4583205Y-16614674D02*
X4583205Y-16662293D01*
X4583205Y-16662293D02*
X4573682Y-16700388D01*
X4573682Y-16700388D02*
X4564158Y-16719436D01*
X4564158Y-16719436D02*
X4554634Y-16728960D01*
X4554634Y-16728960D02*
X4535586Y-16738484D01*
X4535586Y-16738484D02*
X4516539Y-16738484D01*
X4516539Y-16738484D02*
X4497491Y-16728960D01*
X4497491Y-16728960D02*
X4487967Y-16719436D01*
X4487967Y-16719436D02*
X4478444Y-16700388D01*
X4478444Y-16700388D02*
X4468920Y-16662293D01*
X4468920Y-16662293D02*
X4468920Y-16614674D01*
X4468920Y-16614674D02*
X4478444Y-16576579D01*
X4478444Y-16576579D02*
X4487967Y-16557531D01*
X4487967Y-16557531D02*
X4497491Y-16548008D01*
X4497491Y-16548008D02*
X4516539Y-16538484D01*
X4668920Y-16738484D02*
X4668920Y-16605150D01*
X4668920Y-16624198D02*
X4678444Y-16614674D01*
X4678444Y-16614674D02*
X4697491Y-16605150D01*
X4697491Y-16605150D02*
X4726063Y-16605150D01*
X4726063Y-16605150D02*
X4745110Y-16614674D01*
X4745110Y-16614674D02*
X4754634Y-16633722D01*
X4754634Y-16633722D02*
X4754634Y-16738484D01*
X4754634Y-16633722D02*
X4764158Y-16614674D01*
X4764158Y-16614674D02*
X4783205Y-16605150D01*
X4783205Y-16605150D02*
X4811777Y-16605150D01*
X4811777Y-16605150D02*
X4830825Y-16614674D01*
X4830825Y-16614674D02*
X4840348Y-16633722D01*
X4840348Y-16633722D02*
X4840348Y-16738484D01*
X4935586Y-16738484D02*
X4935586Y-16605150D01*
X4935586Y-16624198D02*
X4945110Y-16614674D01*
X4945110Y-16614674D02*
X4964158Y-16605150D01*
X4964158Y-16605150D02*
X4992729Y-16605150D01*
X4992729Y-16605150D02*
X5011777Y-16614674D01*
X5011777Y-16614674D02*
X5021301Y-16633722D01*
X5021301Y-16633722D02*
X5021301Y-16738484D01*
X5021301Y-16633722D02*
X5030825Y-16614674D01*
X5030825Y-16614674D02*
X5049872Y-16605150D01*
X5049872Y-16605150D02*
X5078444Y-16605150D01*
X5078444Y-16605150D02*
X5097491Y-16614674D01*
X5097491Y-16614674D02*
X5107015Y-16633722D01*
X5107015Y-16633722D02*
X5107015Y-16738484D01*
X5497491Y-16528960D02*
X5326063Y-16786103D01*
X5754634Y-16538484D02*
X5773682Y-16538484D01*
X5773682Y-16538484D02*
X5792729Y-16548008D01*
X5792729Y-16548008D02*
X5802253Y-16557531D01*
X5802253Y-16557531D02*
X5811777Y-16576579D01*
X5811777Y-16576579D02*
X5821301Y-16614674D01*
X5821301Y-16614674D02*
X5821301Y-16662293D01*
X5821301Y-16662293D02*
X5811777Y-16700388D01*
X5811777Y-16700388D02*
X5802253Y-16719436D01*
X5802253Y-16719436D02*
X5792729Y-16728960D01*
X5792729Y-16728960D02*
X5773682Y-16738484D01*
X5773682Y-16738484D02*
X5754634Y-16738484D01*
X5754634Y-16738484D02*
X5735586Y-16728960D01*
X5735586Y-16728960D02*
X5726063Y-16719436D01*
X5726063Y-16719436D02*
X5716539Y-16700388D01*
X5716539Y-16700388D02*
X5707015Y-16662293D01*
X5707015Y-16662293D02*
X5707015Y-16614674D01*
X5707015Y-16614674D02*
X5716539Y-16576579D01*
X5716539Y-16576579D02*
X5726063Y-16557531D01*
X5726063Y-16557531D02*
X5735586Y-16548008D01*
X5735586Y-16548008D02*
X5754634Y-16538484D01*
X5907015Y-16719436D02*
X5916539Y-16728960D01*
X5916539Y-16728960D02*
X5907015Y-16738484D01*
X5907015Y-16738484D02*
X5897491Y-16728960D01*
X5897491Y-16728960D02*
X5907015Y-16719436D01*
X5907015Y-16719436D02*
X5907015Y-16738484D01*
X6040348Y-16538484D02*
X6059396Y-16538484D01*
X6059396Y-16538484D02*
X6078444Y-16548008D01*
X6078444Y-16548008D02*
X6087967Y-16557531D01*
X6087967Y-16557531D02*
X6097491Y-16576579D01*
X6097491Y-16576579D02*
X6107015Y-16614674D01*
X6107015Y-16614674D02*
X6107015Y-16662293D01*
X6107015Y-16662293D02*
X6097491Y-16700388D01*
X6097491Y-16700388D02*
X6087967Y-16719436D01*
X6087967Y-16719436D02*
X6078444Y-16728960D01*
X6078444Y-16728960D02*
X6059396Y-16738484D01*
X6059396Y-16738484D02*
X6040348Y-16738484D01*
X6040348Y-16738484D02*
X6021301Y-16728960D01*
X6021301Y-16728960D02*
X6011777Y-16719436D01*
X6011777Y-16719436D02*
X6002253Y-16700388D01*
X6002253Y-16700388D02*
X5992729Y-16662293D01*
X5992729Y-16662293D02*
X5992729Y-16614674D01*
X5992729Y-16614674D02*
X6002253Y-16576579D01*
X6002253Y-16576579D02*
X6011777Y-16557531D01*
X6011777Y-16557531D02*
X6021301Y-16548008D01*
X6021301Y-16548008D02*
X6040348Y-16538484D01*
X6297491Y-16738484D02*
X6183206Y-16738484D01*
X6240348Y-16738484D02*
X6240348Y-16538484D01*
X6240348Y-16538484D02*
X6221301Y-16567055D01*
X6221301Y-16567055D02*
X6202253Y-16586103D01*
X6202253Y-16586103D02*
X6183206Y-16595627D01*
X6392729Y-16738484D02*
X6430825Y-16738484D01*
X6430825Y-16738484D02*
X6449872Y-16728960D01*
X6449872Y-16728960D02*
X6459396Y-16719436D01*
X6459396Y-16719436D02*
X6478444Y-16690865D01*
X6478444Y-16690865D02*
X6487967Y-16652769D01*
X6487967Y-16652769D02*
X6487967Y-16576579D01*
X6487967Y-16576579D02*
X6478444Y-16557531D01*
X6478444Y-16557531D02*
X6468920Y-16548008D01*
X6468920Y-16548008D02*
X6449872Y-16538484D01*
X6449872Y-16538484D02*
X6411777Y-16538484D01*
X6411777Y-16538484D02*
X6392729Y-16548008D01*
X6392729Y-16548008D02*
X6383206Y-16557531D01*
X6383206Y-16557531D02*
X6373682Y-16576579D01*
X6373682Y-16576579D02*
X6373682Y-16624198D01*
X6373682Y-16624198D02*
X6383206Y-16643246D01*
X6383206Y-16643246D02*
X6392729Y-16652769D01*
X6392729Y-16652769D02*
X6411777Y-16662293D01*
X6411777Y-16662293D02*
X6449872Y-16662293D01*
X6449872Y-16662293D02*
X6468920Y-16652769D01*
X6468920Y-16652769D02*
X6478444Y-16643246D01*
X6478444Y-16643246D02*
X6487967Y-16624198D01*
X6554634Y-16538484D02*
X6687967Y-16538484D01*
X6687967Y-16538484D02*
X6602253Y-16738484D01*
X6754634Y-16538484D02*
X6754634Y-16576579D01*
X6830825Y-16538484D02*
X6830825Y-16576579D01*
X7126063Y-16814674D02*
X7116539Y-16805150D01*
X7116539Y-16805150D02*
X7097491Y-16776579D01*
X7097491Y-16776579D02*
X7087968Y-16757531D01*
X7087968Y-16757531D02*
X7078444Y-16728960D01*
X7078444Y-16728960D02*
X7068920Y-16681341D01*
X7068920Y-16681341D02*
X7068920Y-16643246D01*
X7068920Y-16643246D02*
X7078444Y-16595627D01*
X7078444Y-16595627D02*
X7087968Y-16567055D01*
X7087968Y-16567055D02*
X7097491Y-16548008D01*
X7097491Y-16548008D02*
X7116539Y-16519436D01*
X7116539Y-16519436D02*
X7126063Y-16509912D01*
X7287968Y-16605150D02*
X7287968Y-16738484D01*
X7240348Y-16528960D02*
X7192729Y-16671817D01*
X7192729Y-16671817D02*
X7316539Y-16671817D01*
X7421301Y-16624198D02*
X7402253Y-16614674D01*
X7402253Y-16614674D02*
X7392729Y-16605150D01*
X7392729Y-16605150D02*
X7383206Y-16586103D01*
X7383206Y-16586103D02*
X7383206Y-16576579D01*
X7383206Y-16576579D02*
X7392729Y-16557531D01*
X7392729Y-16557531D02*
X7402253Y-16548008D01*
X7402253Y-16548008D02*
X7421301Y-16538484D01*
X7421301Y-16538484D02*
X7459396Y-16538484D01*
X7459396Y-16538484D02*
X7478444Y-16548008D01*
X7478444Y-16548008D02*
X7487968Y-16557531D01*
X7487968Y-16557531D02*
X7497491Y-16576579D01*
X7497491Y-16576579D02*
X7497491Y-16586103D01*
X7497491Y-16586103D02*
X7487968Y-16605150D01*
X7487968Y-16605150D02*
X7478444Y-16614674D01*
X7478444Y-16614674D02*
X7459396Y-16624198D01*
X7459396Y-16624198D02*
X7421301Y-16624198D01*
X7421301Y-16624198D02*
X7402253Y-16633722D01*
X7402253Y-16633722D02*
X7392729Y-16643246D01*
X7392729Y-16643246D02*
X7383206Y-16662293D01*
X7383206Y-16662293D02*
X7383206Y-16700388D01*
X7383206Y-16700388D02*
X7392729Y-16719436D01*
X7392729Y-16719436D02*
X7402253Y-16728960D01*
X7402253Y-16728960D02*
X7421301Y-16738484D01*
X7421301Y-16738484D02*
X7459396Y-16738484D01*
X7459396Y-16738484D02*
X7478444Y-16728960D01*
X7478444Y-16728960D02*
X7487968Y-16719436D01*
X7487968Y-16719436D02*
X7497491Y-16700388D01*
X7497491Y-16700388D02*
X7497491Y-16662293D01*
X7497491Y-16662293D02*
X7487968Y-16643246D01*
X7487968Y-16643246D02*
X7478444Y-16633722D01*
X7478444Y-16633722D02*
X7459396Y-16624198D01*
X7735587Y-16738484D02*
X7735587Y-16538484D01*
X7821301Y-16738484D02*
X7821301Y-16633722D01*
X7821301Y-16633722D02*
X7811777Y-16614674D01*
X7811777Y-16614674D02*
X7792730Y-16605150D01*
X7792730Y-16605150D02*
X7764158Y-16605150D01*
X7764158Y-16605150D02*
X7745110Y-16614674D01*
X7745110Y-16614674D02*
X7735587Y-16624198D01*
X7945110Y-16738484D02*
X7926063Y-16728960D01*
X7926063Y-16728960D02*
X7916539Y-16719436D01*
X7916539Y-16719436D02*
X7907015Y-16700388D01*
X7907015Y-16700388D02*
X7907015Y-16643246D01*
X7907015Y-16643246D02*
X7916539Y-16624198D01*
X7916539Y-16624198D02*
X7926063Y-16614674D01*
X7926063Y-16614674D02*
X7945110Y-16605150D01*
X7945110Y-16605150D02*
X7973682Y-16605150D01*
X7973682Y-16605150D02*
X7992730Y-16614674D01*
X7992730Y-16614674D02*
X8002253Y-16624198D01*
X8002253Y-16624198D02*
X8011777Y-16643246D01*
X8011777Y-16643246D02*
X8011777Y-16700388D01*
X8011777Y-16700388D02*
X8002253Y-16719436D01*
X8002253Y-16719436D02*
X7992730Y-16728960D01*
X7992730Y-16728960D02*
X7973682Y-16738484D01*
X7973682Y-16738484D02*
X7945110Y-16738484D01*
X8126063Y-16738484D02*
X8107015Y-16728960D01*
X8107015Y-16728960D02*
X8097491Y-16709912D01*
X8097491Y-16709912D02*
X8097491Y-16538484D01*
X8278444Y-16728960D02*
X8259396Y-16738484D01*
X8259396Y-16738484D02*
X8221301Y-16738484D01*
X8221301Y-16738484D02*
X8202253Y-16728960D01*
X8202253Y-16728960D02*
X8192730Y-16709912D01*
X8192730Y-16709912D02*
X8192730Y-16633722D01*
X8192730Y-16633722D02*
X8202253Y-16614674D01*
X8202253Y-16614674D02*
X8221301Y-16605150D01*
X8221301Y-16605150D02*
X8259396Y-16605150D01*
X8259396Y-16605150D02*
X8278444Y-16614674D01*
X8278444Y-16614674D02*
X8287968Y-16633722D01*
X8287968Y-16633722D02*
X8287968Y-16652769D01*
X8287968Y-16652769D02*
X8192730Y-16671817D01*
X8364158Y-16728960D02*
X8383206Y-16738484D01*
X8383206Y-16738484D02*
X8421301Y-16738484D01*
X8421301Y-16738484D02*
X8440349Y-16728960D01*
X8440349Y-16728960D02*
X8449873Y-16709912D01*
X8449873Y-16709912D02*
X8449873Y-16700388D01*
X8449873Y-16700388D02*
X8440349Y-16681341D01*
X8440349Y-16681341D02*
X8421301Y-16671817D01*
X8421301Y-16671817D02*
X8392730Y-16671817D01*
X8392730Y-16671817D02*
X8373682Y-16662293D01*
X8373682Y-16662293D02*
X8364158Y-16643246D01*
X8364158Y-16643246D02*
X8364158Y-16633722D01*
X8364158Y-16633722D02*
X8373682Y-16614674D01*
X8373682Y-16614674D02*
X8392730Y-16605150D01*
X8392730Y-16605150D02*
X8421301Y-16605150D01*
X8421301Y-16605150D02*
X8440349Y-16614674D01*
X8516539Y-16814674D02*
X8526063Y-16805150D01*
X8526063Y-16805150D02*
X8545111Y-16776579D01*
X8545111Y-16776579D02*
X8554634Y-16757531D01*
X8554634Y-16757531D02*
X8564158Y-16728960D01*
X8564158Y-16728960D02*
X8573682Y-16681341D01*
X8573682Y-16681341D02*
X8573682Y-16643246D01*
X8573682Y-16643246D02*
X8564158Y-16595627D01*
X8564158Y-16595627D02*
X8554634Y-16567055D01*
X8554634Y-16567055D02*
X8545111Y-16548008D01*
X8545111Y-16548008D02*
X8526063Y-16519436D01*
X8526063Y-16519436D02*
X8516539Y-16509912D01*
D13*
X3551000Y-16911000D02*
G75*
G03*
X3551000Y-16911000I-40000J0D01*
G01*
D11*
X3849872Y-16802484D02*
X3868920Y-16802484D01*
X3868920Y-16802484D02*
X3887967Y-16812008D01*
X3887967Y-16812008D02*
X3897491Y-16821531D01*
X3897491Y-16821531D02*
X3907015Y-16840579D01*
X3907015Y-16840579D02*
X3916539Y-16878674D01*
X3916539Y-16878674D02*
X3916539Y-16926293D01*
X3916539Y-16926293D02*
X3907015Y-16964389D01*
X3907015Y-16964389D02*
X3897491Y-16983436D01*
X3897491Y-16983436D02*
X3887967Y-16992960D01*
X3887967Y-16992960D02*
X3868920Y-17002484D01*
X3868920Y-17002484D02*
X3849872Y-17002484D01*
X3849872Y-17002484D02*
X3830824Y-16992960D01*
X3830824Y-16992960D02*
X3821301Y-16983436D01*
X3821301Y-16983436D02*
X3811777Y-16964389D01*
X3811777Y-16964389D02*
X3802253Y-16926293D01*
X3802253Y-16926293D02*
X3802253Y-16878674D01*
X3802253Y-16878674D02*
X3811777Y-16840579D01*
X3811777Y-16840579D02*
X3821301Y-16821531D01*
X3821301Y-16821531D02*
X3830824Y-16812008D01*
X3830824Y-16812008D02*
X3849872Y-16802484D01*
X4002253Y-16983436D02*
X4011777Y-16992960D01*
X4011777Y-16992960D02*
X4002253Y-17002484D01*
X4002253Y-17002484D02*
X3992729Y-16992960D01*
X3992729Y-16992960D02*
X4002253Y-16983436D01*
X4002253Y-16983436D02*
X4002253Y-17002484D01*
X4126062Y-16888198D02*
X4107015Y-16878674D01*
X4107015Y-16878674D02*
X4097491Y-16869150D01*
X4097491Y-16869150D02*
X4087967Y-16850103D01*
X4087967Y-16850103D02*
X4087967Y-16840579D01*
X4087967Y-16840579D02*
X4097491Y-16821531D01*
X4097491Y-16821531D02*
X4107015Y-16812008D01*
X4107015Y-16812008D02*
X4126062Y-16802484D01*
X4126062Y-16802484D02*
X4164158Y-16802484D01*
X4164158Y-16802484D02*
X4183205Y-16812008D01*
X4183205Y-16812008D02*
X4192729Y-16821531D01*
X4192729Y-16821531D02*
X4202253Y-16840579D01*
X4202253Y-16840579D02*
X4202253Y-16850103D01*
X4202253Y-16850103D02*
X4192729Y-16869150D01*
X4192729Y-16869150D02*
X4183205Y-16878674D01*
X4183205Y-16878674D02*
X4164158Y-16888198D01*
X4164158Y-16888198D02*
X4126062Y-16888198D01*
X4126062Y-16888198D02*
X4107015Y-16897722D01*
X4107015Y-16897722D02*
X4097491Y-16907246D01*
X4097491Y-16907246D02*
X4087967Y-16926293D01*
X4087967Y-16926293D02*
X4087967Y-16964389D01*
X4087967Y-16964389D02*
X4097491Y-16983436D01*
X4097491Y-16983436D02*
X4107015Y-16992960D01*
X4107015Y-16992960D02*
X4126062Y-17002484D01*
X4126062Y-17002484D02*
X4164158Y-17002484D01*
X4164158Y-17002484D02*
X4183205Y-16992960D01*
X4183205Y-16992960D02*
X4192729Y-16983436D01*
X4192729Y-16983436D02*
X4202253Y-16964389D01*
X4202253Y-16964389D02*
X4202253Y-16926293D01*
X4202253Y-16926293D02*
X4192729Y-16907246D01*
X4192729Y-16907246D02*
X4183205Y-16897722D01*
X4183205Y-16897722D02*
X4164158Y-16888198D01*
X4326063Y-16802484D02*
X4345110Y-16802484D01*
X4345110Y-16802484D02*
X4364158Y-16812008D01*
X4364158Y-16812008D02*
X4373682Y-16821531D01*
X4373682Y-16821531D02*
X4383205Y-16840579D01*
X4383205Y-16840579D02*
X4392729Y-16878674D01*
X4392729Y-16878674D02*
X4392729Y-16926293D01*
X4392729Y-16926293D02*
X4383205Y-16964389D01*
X4383205Y-16964389D02*
X4373682Y-16983436D01*
X4373682Y-16983436D02*
X4364158Y-16992960D01*
X4364158Y-16992960D02*
X4345110Y-17002484D01*
X4345110Y-17002484D02*
X4326063Y-17002484D01*
X4326063Y-17002484D02*
X4307015Y-16992960D01*
X4307015Y-16992960D02*
X4297491Y-16983436D01*
X4297491Y-16983436D02*
X4287967Y-16964389D01*
X4287967Y-16964389D02*
X4278444Y-16926293D01*
X4278444Y-16926293D02*
X4278444Y-16878674D01*
X4278444Y-16878674D02*
X4287967Y-16840579D01*
X4287967Y-16840579D02*
X4297491Y-16821531D01*
X4297491Y-16821531D02*
X4307015Y-16812008D01*
X4307015Y-16812008D02*
X4326063Y-16802484D01*
X4516539Y-16802484D02*
X4535586Y-16802484D01*
X4535586Y-16802484D02*
X4554634Y-16812008D01*
X4554634Y-16812008D02*
X4564158Y-16821531D01*
X4564158Y-16821531D02*
X4573682Y-16840579D01*
X4573682Y-16840579D02*
X4583205Y-16878674D01*
X4583205Y-16878674D02*
X4583205Y-16926293D01*
X4583205Y-16926293D02*
X4573682Y-16964389D01*
X4573682Y-16964389D02*
X4564158Y-16983436D01*
X4564158Y-16983436D02*
X4554634Y-16992960D01*
X4554634Y-16992960D02*
X4535586Y-17002484D01*
X4535586Y-17002484D02*
X4516539Y-17002484D01*
X4516539Y-17002484D02*
X4497491Y-16992960D01*
X4497491Y-16992960D02*
X4487967Y-16983436D01*
X4487967Y-16983436D02*
X4478444Y-16964389D01*
X4478444Y-16964389D02*
X4468920Y-16926293D01*
X4468920Y-16926293D02*
X4468920Y-16878674D01*
X4468920Y-16878674D02*
X4478444Y-16840579D01*
X4478444Y-16840579D02*
X4487967Y-16821531D01*
X4487967Y-16821531D02*
X4497491Y-16812008D01*
X4497491Y-16812008D02*
X4516539Y-16802484D01*
X4668920Y-17002484D02*
X4668920Y-16869150D01*
X4668920Y-16888198D02*
X4678444Y-16878674D01*
X4678444Y-16878674D02*
X4697491Y-16869150D01*
X4697491Y-16869150D02*
X4726063Y-16869150D01*
X4726063Y-16869150D02*
X4745110Y-16878674D01*
X4745110Y-16878674D02*
X4754634Y-16897722D01*
X4754634Y-16897722D02*
X4754634Y-17002484D01*
X4754634Y-16897722D02*
X4764158Y-16878674D01*
X4764158Y-16878674D02*
X4783205Y-16869150D01*
X4783205Y-16869150D02*
X4811777Y-16869150D01*
X4811777Y-16869150D02*
X4830825Y-16878674D01*
X4830825Y-16878674D02*
X4840348Y-16897722D01*
X4840348Y-16897722D02*
X4840348Y-17002484D01*
X4935586Y-17002484D02*
X4935586Y-16869150D01*
X4935586Y-16888198D02*
X4945110Y-16878674D01*
X4945110Y-16878674D02*
X4964158Y-16869150D01*
X4964158Y-16869150D02*
X4992729Y-16869150D01*
X4992729Y-16869150D02*
X5011777Y-16878674D01*
X5011777Y-16878674D02*
X5021301Y-16897722D01*
X5021301Y-16897722D02*
X5021301Y-17002484D01*
X5021301Y-16897722D02*
X5030825Y-16878674D01*
X5030825Y-16878674D02*
X5049872Y-16869150D01*
X5049872Y-16869150D02*
X5078444Y-16869150D01*
X5078444Y-16869150D02*
X5097491Y-16878674D01*
X5097491Y-16878674D02*
X5107015Y-16897722D01*
X5107015Y-16897722D02*
X5107015Y-17002484D01*
X5497491Y-16792960D02*
X5326063Y-17050103D01*
X5754634Y-16802484D02*
X5773682Y-16802484D01*
X5773682Y-16802484D02*
X5792729Y-16812008D01*
X5792729Y-16812008D02*
X5802253Y-16821531D01*
X5802253Y-16821531D02*
X5811777Y-16840579D01*
X5811777Y-16840579D02*
X5821301Y-16878674D01*
X5821301Y-16878674D02*
X5821301Y-16926293D01*
X5821301Y-16926293D02*
X5811777Y-16964389D01*
X5811777Y-16964389D02*
X5802253Y-16983436D01*
X5802253Y-16983436D02*
X5792729Y-16992960D01*
X5792729Y-16992960D02*
X5773682Y-17002484D01*
X5773682Y-17002484D02*
X5754634Y-17002484D01*
X5754634Y-17002484D02*
X5735586Y-16992960D01*
X5735586Y-16992960D02*
X5726063Y-16983436D01*
X5726063Y-16983436D02*
X5716539Y-16964389D01*
X5716539Y-16964389D02*
X5707015Y-16926293D01*
X5707015Y-16926293D02*
X5707015Y-16878674D01*
X5707015Y-16878674D02*
X5716539Y-16840579D01*
X5716539Y-16840579D02*
X5726063Y-16821531D01*
X5726063Y-16821531D02*
X5735586Y-16812008D01*
X5735586Y-16812008D02*
X5754634Y-16802484D01*
X5907015Y-16983436D02*
X5916539Y-16992960D01*
X5916539Y-16992960D02*
X5907015Y-17002484D01*
X5907015Y-17002484D02*
X5897491Y-16992960D01*
X5897491Y-16992960D02*
X5907015Y-16983436D01*
X5907015Y-16983436D02*
X5907015Y-17002484D01*
X6040348Y-16802484D02*
X6059396Y-16802484D01*
X6059396Y-16802484D02*
X6078444Y-16812008D01*
X6078444Y-16812008D02*
X6087967Y-16821531D01*
X6087967Y-16821531D02*
X6097491Y-16840579D01*
X6097491Y-16840579D02*
X6107015Y-16878674D01*
X6107015Y-16878674D02*
X6107015Y-16926293D01*
X6107015Y-16926293D02*
X6097491Y-16964389D01*
X6097491Y-16964389D02*
X6087967Y-16983436D01*
X6087967Y-16983436D02*
X6078444Y-16992960D01*
X6078444Y-16992960D02*
X6059396Y-17002484D01*
X6059396Y-17002484D02*
X6040348Y-17002484D01*
X6040348Y-17002484D02*
X6021301Y-16992960D01*
X6021301Y-16992960D02*
X6011777Y-16983436D01*
X6011777Y-16983436D02*
X6002253Y-16964389D01*
X6002253Y-16964389D02*
X5992729Y-16926293D01*
X5992729Y-16926293D02*
X5992729Y-16878674D01*
X5992729Y-16878674D02*
X6002253Y-16840579D01*
X6002253Y-16840579D02*
X6011777Y-16821531D01*
X6011777Y-16821531D02*
X6021301Y-16812008D01*
X6021301Y-16812008D02*
X6040348Y-16802484D01*
X6173682Y-16802484D02*
X6297491Y-16802484D01*
X6297491Y-16802484D02*
X6230825Y-16878674D01*
X6230825Y-16878674D02*
X6259396Y-16878674D01*
X6259396Y-16878674D02*
X6278444Y-16888198D01*
X6278444Y-16888198D02*
X6287967Y-16897722D01*
X6287967Y-16897722D02*
X6297491Y-16916770D01*
X6297491Y-16916770D02*
X6297491Y-16964389D01*
X6297491Y-16964389D02*
X6287967Y-16983436D01*
X6287967Y-16983436D02*
X6278444Y-16992960D01*
X6278444Y-16992960D02*
X6259396Y-17002484D01*
X6259396Y-17002484D02*
X6202253Y-17002484D01*
X6202253Y-17002484D02*
X6183206Y-16992960D01*
X6183206Y-16992960D02*
X6173682Y-16983436D01*
X6487967Y-17002484D02*
X6373682Y-17002484D01*
X6430825Y-17002484D02*
X6430825Y-16802484D01*
X6430825Y-16802484D02*
X6411777Y-16831055D01*
X6411777Y-16831055D02*
X6392729Y-16850103D01*
X6392729Y-16850103D02*
X6373682Y-16859627D01*
X6668920Y-16802484D02*
X6573682Y-16802484D01*
X6573682Y-16802484D02*
X6564158Y-16897722D01*
X6564158Y-16897722D02*
X6573682Y-16888198D01*
X6573682Y-16888198D02*
X6592729Y-16878674D01*
X6592729Y-16878674D02*
X6640348Y-16878674D01*
X6640348Y-16878674D02*
X6659396Y-16888198D01*
X6659396Y-16888198D02*
X6668920Y-16897722D01*
X6668920Y-16897722D02*
X6678444Y-16916770D01*
X6678444Y-16916770D02*
X6678444Y-16964389D01*
X6678444Y-16964389D02*
X6668920Y-16983436D01*
X6668920Y-16983436D02*
X6659396Y-16992960D01*
X6659396Y-16992960D02*
X6640348Y-17002484D01*
X6640348Y-17002484D02*
X6592729Y-17002484D01*
X6592729Y-17002484D02*
X6573682Y-16992960D01*
X6573682Y-16992960D02*
X6564158Y-16983436D01*
X6754634Y-16802484D02*
X6754634Y-16840579D01*
X6830825Y-16802484D02*
X6830825Y-16840579D01*
X7126063Y-17078674D02*
X7116539Y-17069150D01*
X7116539Y-17069150D02*
X7097491Y-17040579D01*
X7097491Y-17040579D02*
X7087968Y-17021531D01*
X7087968Y-17021531D02*
X7078444Y-16992960D01*
X7078444Y-16992960D02*
X7068920Y-16945341D01*
X7068920Y-16945341D02*
X7068920Y-16907246D01*
X7068920Y-16907246D02*
X7078444Y-16859627D01*
X7078444Y-16859627D02*
X7087968Y-16831055D01*
X7087968Y-16831055D02*
X7097491Y-16812008D01*
X7097491Y-16812008D02*
X7116539Y-16783436D01*
X7116539Y-16783436D02*
X7126063Y-16773912D01*
X7183206Y-16802484D02*
X7307015Y-16802484D01*
X7307015Y-16802484D02*
X7240348Y-16878674D01*
X7240348Y-16878674D02*
X7268920Y-16878674D01*
X7268920Y-16878674D02*
X7287968Y-16888198D01*
X7287968Y-16888198D02*
X7297491Y-16897722D01*
X7297491Y-16897722D02*
X7307015Y-16916770D01*
X7307015Y-16916770D02*
X7307015Y-16964389D01*
X7307015Y-16964389D02*
X7297491Y-16983436D01*
X7297491Y-16983436D02*
X7287968Y-16992960D01*
X7287968Y-16992960D02*
X7268920Y-17002484D01*
X7268920Y-17002484D02*
X7211777Y-17002484D01*
X7211777Y-17002484D02*
X7192729Y-16992960D01*
X7192729Y-16992960D02*
X7183206Y-16983436D01*
X7383206Y-16821531D02*
X7392729Y-16812008D01*
X7392729Y-16812008D02*
X7411777Y-16802484D01*
X7411777Y-16802484D02*
X7459396Y-16802484D01*
X7459396Y-16802484D02*
X7478444Y-16812008D01*
X7478444Y-16812008D02*
X7487968Y-16821531D01*
X7487968Y-16821531D02*
X7497491Y-16840579D01*
X7497491Y-16840579D02*
X7497491Y-16859627D01*
X7497491Y-16859627D02*
X7487968Y-16888198D01*
X7487968Y-16888198D02*
X7373682Y-17002484D01*
X7373682Y-17002484D02*
X7497491Y-17002484D01*
X7735587Y-17002484D02*
X7735587Y-16802484D01*
X7821301Y-17002484D02*
X7821301Y-16897722D01*
X7821301Y-16897722D02*
X7811777Y-16878674D01*
X7811777Y-16878674D02*
X7792730Y-16869150D01*
X7792730Y-16869150D02*
X7764158Y-16869150D01*
X7764158Y-16869150D02*
X7745110Y-16878674D01*
X7745110Y-16878674D02*
X7735587Y-16888198D01*
X7945110Y-17002484D02*
X7926063Y-16992960D01*
X7926063Y-16992960D02*
X7916539Y-16983436D01*
X7916539Y-16983436D02*
X7907015Y-16964389D01*
X7907015Y-16964389D02*
X7907015Y-16907246D01*
X7907015Y-16907246D02*
X7916539Y-16888198D01*
X7916539Y-16888198D02*
X7926063Y-16878674D01*
X7926063Y-16878674D02*
X7945110Y-16869150D01*
X7945110Y-16869150D02*
X7973682Y-16869150D01*
X7973682Y-16869150D02*
X7992730Y-16878674D01*
X7992730Y-16878674D02*
X8002253Y-16888198D01*
X8002253Y-16888198D02*
X8011777Y-16907246D01*
X8011777Y-16907246D02*
X8011777Y-16964389D01*
X8011777Y-16964389D02*
X8002253Y-16983436D01*
X8002253Y-16983436D02*
X7992730Y-16992960D01*
X7992730Y-16992960D02*
X7973682Y-17002484D01*
X7973682Y-17002484D02*
X7945110Y-17002484D01*
X8126063Y-17002484D02*
X8107015Y-16992960D01*
X8107015Y-16992960D02*
X8097491Y-16973912D01*
X8097491Y-16973912D02*
X8097491Y-16802484D01*
X8278444Y-16992960D02*
X8259396Y-17002484D01*
X8259396Y-17002484D02*
X8221301Y-17002484D01*
X8221301Y-17002484D02*
X8202253Y-16992960D01*
X8202253Y-16992960D02*
X8192730Y-16973912D01*
X8192730Y-16973912D02*
X8192730Y-16897722D01*
X8192730Y-16897722D02*
X8202253Y-16878674D01*
X8202253Y-16878674D02*
X8221301Y-16869150D01*
X8221301Y-16869150D02*
X8259396Y-16869150D01*
X8259396Y-16869150D02*
X8278444Y-16878674D01*
X8278444Y-16878674D02*
X8287968Y-16897722D01*
X8287968Y-16897722D02*
X8287968Y-16916770D01*
X8287968Y-16916770D02*
X8192730Y-16935817D01*
X8364158Y-16992960D02*
X8383206Y-17002484D01*
X8383206Y-17002484D02*
X8421301Y-17002484D01*
X8421301Y-17002484D02*
X8440349Y-16992960D01*
X8440349Y-16992960D02*
X8449873Y-16973912D01*
X8449873Y-16973912D02*
X8449873Y-16964389D01*
X8449873Y-16964389D02*
X8440349Y-16945341D01*
X8440349Y-16945341D02*
X8421301Y-16935817D01*
X8421301Y-16935817D02*
X8392730Y-16935817D01*
X8392730Y-16935817D02*
X8373682Y-16926293D01*
X8373682Y-16926293D02*
X8364158Y-16907246D01*
X8364158Y-16907246D02*
X8364158Y-16897722D01*
X8364158Y-16897722D02*
X8373682Y-16878674D01*
X8373682Y-16878674D02*
X8392730Y-16869150D01*
X8392730Y-16869150D02*
X8421301Y-16869150D01*
X8421301Y-16869150D02*
X8440349Y-16878674D01*
X8516539Y-17078674D02*
X8526063Y-17069150D01*
X8526063Y-17069150D02*
X8545111Y-17040579D01*
X8545111Y-17040579D02*
X8554634Y-17021531D01*
X8554634Y-17021531D02*
X8564158Y-16992960D01*
X8564158Y-16992960D02*
X8573682Y-16945341D01*
X8573682Y-16945341D02*
X8573682Y-16907246D01*
X8573682Y-16907246D02*
X8564158Y-16859627D01*
X8564158Y-16859627D02*
X8554634Y-16831055D01*
X8554634Y-16831055D02*
X8545111Y-16812008D01*
X8545111Y-16812008D02*
X8526063Y-16783436D01*
X8526063Y-16783436D02*
X8516539Y-16773912D01*
D14*
X3506000Y-17130000D02*
X3506000Y-17220000D01*
X3461000Y-17175000D02*
X3551000Y-17175000D01*
D11*
X3849872Y-17066484D02*
X3868920Y-17066484D01*
X3868920Y-17066484D02*
X3887967Y-17076008D01*
X3887967Y-17076008D02*
X3897491Y-17085531D01*
X3897491Y-17085531D02*
X3907015Y-17104579D01*
X3907015Y-17104579D02*
X3916539Y-17142674D01*
X3916539Y-17142674D02*
X3916539Y-17190293D01*
X3916539Y-17190293D02*
X3907015Y-17228389D01*
X3907015Y-17228389D02*
X3897491Y-17247436D01*
X3897491Y-17247436D02*
X3887967Y-17256960D01*
X3887967Y-17256960D02*
X3868920Y-17266484D01*
X3868920Y-17266484D02*
X3849872Y-17266484D01*
X3849872Y-17266484D02*
X3830824Y-17256960D01*
X3830824Y-17256960D02*
X3821301Y-17247436D01*
X3821301Y-17247436D02*
X3811777Y-17228389D01*
X3811777Y-17228389D02*
X3802253Y-17190293D01*
X3802253Y-17190293D02*
X3802253Y-17142674D01*
X3802253Y-17142674D02*
X3811777Y-17104579D01*
X3811777Y-17104579D02*
X3821301Y-17085531D01*
X3821301Y-17085531D02*
X3830824Y-17076008D01*
X3830824Y-17076008D02*
X3849872Y-17066484D01*
X4002253Y-17247436D02*
X4011777Y-17256960D01*
X4011777Y-17256960D02*
X4002253Y-17266484D01*
X4002253Y-17266484D02*
X3992729Y-17256960D01*
X3992729Y-17256960D02*
X4002253Y-17247436D01*
X4002253Y-17247436D02*
X4002253Y-17266484D01*
X4107015Y-17266484D02*
X4145110Y-17266484D01*
X4145110Y-17266484D02*
X4164158Y-17256960D01*
X4164158Y-17256960D02*
X4173682Y-17247436D01*
X4173682Y-17247436D02*
X4192729Y-17218865D01*
X4192729Y-17218865D02*
X4202253Y-17180770D01*
X4202253Y-17180770D02*
X4202253Y-17104579D01*
X4202253Y-17104579D02*
X4192729Y-17085531D01*
X4192729Y-17085531D02*
X4183205Y-17076008D01*
X4183205Y-17076008D02*
X4164158Y-17066484D01*
X4164158Y-17066484D02*
X4126062Y-17066484D01*
X4126062Y-17066484D02*
X4107015Y-17076008D01*
X4107015Y-17076008D02*
X4097491Y-17085531D01*
X4097491Y-17085531D02*
X4087967Y-17104579D01*
X4087967Y-17104579D02*
X4087967Y-17152198D01*
X4087967Y-17152198D02*
X4097491Y-17171246D01*
X4097491Y-17171246D02*
X4107015Y-17180770D01*
X4107015Y-17180770D02*
X4126062Y-17190293D01*
X4126062Y-17190293D02*
X4164158Y-17190293D01*
X4164158Y-17190293D02*
X4183205Y-17180770D01*
X4183205Y-17180770D02*
X4192729Y-17171246D01*
X4192729Y-17171246D02*
X4202253Y-17152198D01*
X4326063Y-17066484D02*
X4345110Y-17066484D01*
X4345110Y-17066484D02*
X4364158Y-17076008D01*
X4364158Y-17076008D02*
X4373682Y-17085531D01*
X4373682Y-17085531D02*
X4383205Y-17104579D01*
X4383205Y-17104579D02*
X4392729Y-17142674D01*
X4392729Y-17142674D02*
X4392729Y-17190293D01*
X4392729Y-17190293D02*
X4383205Y-17228389D01*
X4383205Y-17228389D02*
X4373682Y-17247436D01*
X4373682Y-17247436D02*
X4364158Y-17256960D01*
X4364158Y-17256960D02*
X4345110Y-17266484D01*
X4345110Y-17266484D02*
X4326063Y-17266484D01*
X4326063Y-17266484D02*
X4307015Y-17256960D01*
X4307015Y-17256960D02*
X4297491Y-17247436D01*
X4297491Y-17247436D02*
X4287967Y-17228389D01*
X4287967Y-17228389D02*
X4278444Y-17190293D01*
X4278444Y-17190293D02*
X4278444Y-17142674D01*
X4278444Y-17142674D02*
X4287967Y-17104579D01*
X4287967Y-17104579D02*
X4297491Y-17085531D01*
X4297491Y-17085531D02*
X4307015Y-17076008D01*
X4307015Y-17076008D02*
X4326063Y-17066484D01*
X4516539Y-17066484D02*
X4535586Y-17066484D01*
X4535586Y-17066484D02*
X4554634Y-17076008D01*
X4554634Y-17076008D02*
X4564158Y-17085531D01*
X4564158Y-17085531D02*
X4573682Y-17104579D01*
X4573682Y-17104579D02*
X4583205Y-17142674D01*
X4583205Y-17142674D02*
X4583205Y-17190293D01*
X4583205Y-17190293D02*
X4573682Y-17228389D01*
X4573682Y-17228389D02*
X4564158Y-17247436D01*
X4564158Y-17247436D02*
X4554634Y-17256960D01*
X4554634Y-17256960D02*
X4535586Y-17266484D01*
X4535586Y-17266484D02*
X4516539Y-17266484D01*
X4516539Y-17266484D02*
X4497491Y-17256960D01*
X4497491Y-17256960D02*
X4487967Y-17247436D01*
X4487967Y-17247436D02*
X4478444Y-17228389D01*
X4478444Y-17228389D02*
X4468920Y-17190293D01*
X4468920Y-17190293D02*
X4468920Y-17142674D01*
X4468920Y-17142674D02*
X4478444Y-17104579D01*
X4478444Y-17104579D02*
X4487967Y-17085531D01*
X4487967Y-17085531D02*
X4497491Y-17076008D01*
X4497491Y-17076008D02*
X4516539Y-17066484D01*
X4668920Y-17266484D02*
X4668920Y-17133150D01*
X4668920Y-17152198D02*
X4678444Y-17142674D01*
X4678444Y-17142674D02*
X4697491Y-17133150D01*
X4697491Y-17133150D02*
X4726063Y-17133150D01*
X4726063Y-17133150D02*
X4745110Y-17142674D01*
X4745110Y-17142674D02*
X4754634Y-17161722D01*
X4754634Y-17161722D02*
X4754634Y-17266484D01*
X4754634Y-17161722D02*
X4764158Y-17142674D01*
X4764158Y-17142674D02*
X4783205Y-17133150D01*
X4783205Y-17133150D02*
X4811777Y-17133150D01*
X4811777Y-17133150D02*
X4830825Y-17142674D01*
X4830825Y-17142674D02*
X4840348Y-17161722D01*
X4840348Y-17161722D02*
X4840348Y-17266484D01*
X4935586Y-17266484D02*
X4935586Y-17133150D01*
X4935586Y-17152198D02*
X4945110Y-17142674D01*
X4945110Y-17142674D02*
X4964158Y-17133150D01*
X4964158Y-17133150D02*
X4992729Y-17133150D01*
X4992729Y-17133150D02*
X5011777Y-17142674D01*
X5011777Y-17142674D02*
X5021301Y-17161722D01*
X5021301Y-17161722D02*
X5021301Y-17266484D01*
X5021301Y-17161722D02*
X5030825Y-17142674D01*
X5030825Y-17142674D02*
X5049872Y-17133150D01*
X5049872Y-17133150D02*
X5078444Y-17133150D01*
X5078444Y-17133150D02*
X5097491Y-17142674D01*
X5097491Y-17142674D02*
X5107015Y-17161722D01*
X5107015Y-17161722D02*
X5107015Y-17266484D01*
X5497491Y-17056960D02*
X5326063Y-17314103D01*
X5754634Y-17066484D02*
X5773682Y-17066484D01*
X5773682Y-17066484D02*
X5792729Y-17076008D01*
X5792729Y-17076008D02*
X5802253Y-17085531D01*
X5802253Y-17085531D02*
X5811777Y-17104579D01*
X5811777Y-17104579D02*
X5821301Y-17142674D01*
X5821301Y-17142674D02*
X5821301Y-17190293D01*
X5821301Y-17190293D02*
X5811777Y-17228389D01*
X5811777Y-17228389D02*
X5802253Y-17247436D01*
X5802253Y-17247436D02*
X5792729Y-17256960D01*
X5792729Y-17256960D02*
X5773682Y-17266484D01*
X5773682Y-17266484D02*
X5754634Y-17266484D01*
X5754634Y-17266484D02*
X5735586Y-17256960D01*
X5735586Y-17256960D02*
X5726063Y-17247436D01*
X5726063Y-17247436D02*
X5716539Y-17228389D01*
X5716539Y-17228389D02*
X5707015Y-17190293D01*
X5707015Y-17190293D02*
X5707015Y-17142674D01*
X5707015Y-17142674D02*
X5716539Y-17104579D01*
X5716539Y-17104579D02*
X5726063Y-17085531D01*
X5726063Y-17085531D02*
X5735586Y-17076008D01*
X5735586Y-17076008D02*
X5754634Y-17066484D01*
X5907015Y-17247436D02*
X5916539Y-17256960D01*
X5916539Y-17256960D02*
X5907015Y-17266484D01*
X5907015Y-17266484D02*
X5897491Y-17256960D01*
X5897491Y-17256960D02*
X5907015Y-17247436D01*
X5907015Y-17247436D02*
X5907015Y-17266484D01*
X6040348Y-17066484D02*
X6059396Y-17066484D01*
X6059396Y-17066484D02*
X6078444Y-17076008D01*
X6078444Y-17076008D02*
X6087967Y-17085531D01*
X6087967Y-17085531D02*
X6097491Y-17104579D01*
X6097491Y-17104579D02*
X6107015Y-17142674D01*
X6107015Y-17142674D02*
X6107015Y-17190293D01*
X6107015Y-17190293D02*
X6097491Y-17228389D01*
X6097491Y-17228389D02*
X6087967Y-17247436D01*
X6087967Y-17247436D02*
X6078444Y-17256960D01*
X6078444Y-17256960D02*
X6059396Y-17266484D01*
X6059396Y-17266484D02*
X6040348Y-17266484D01*
X6040348Y-17266484D02*
X6021301Y-17256960D01*
X6021301Y-17256960D02*
X6011777Y-17247436D01*
X6011777Y-17247436D02*
X6002253Y-17228389D01*
X6002253Y-17228389D02*
X5992729Y-17190293D01*
X5992729Y-17190293D02*
X5992729Y-17142674D01*
X5992729Y-17142674D02*
X6002253Y-17104579D01*
X6002253Y-17104579D02*
X6011777Y-17085531D01*
X6011777Y-17085531D02*
X6021301Y-17076008D01*
X6021301Y-17076008D02*
X6040348Y-17066484D01*
X6173682Y-17066484D02*
X6297491Y-17066484D01*
X6297491Y-17066484D02*
X6230825Y-17142674D01*
X6230825Y-17142674D02*
X6259396Y-17142674D01*
X6259396Y-17142674D02*
X6278444Y-17152198D01*
X6278444Y-17152198D02*
X6287967Y-17161722D01*
X6287967Y-17161722D02*
X6297491Y-17180770D01*
X6297491Y-17180770D02*
X6297491Y-17228389D01*
X6297491Y-17228389D02*
X6287967Y-17247436D01*
X6287967Y-17247436D02*
X6278444Y-17256960D01*
X6278444Y-17256960D02*
X6259396Y-17266484D01*
X6259396Y-17266484D02*
X6202253Y-17266484D01*
X6202253Y-17266484D02*
X6183206Y-17256960D01*
X6183206Y-17256960D02*
X6173682Y-17247436D01*
X6478444Y-17066484D02*
X6383206Y-17066484D01*
X6383206Y-17066484D02*
X6373682Y-17161722D01*
X6373682Y-17161722D02*
X6383206Y-17152198D01*
X6383206Y-17152198D02*
X6402253Y-17142674D01*
X6402253Y-17142674D02*
X6449872Y-17142674D01*
X6449872Y-17142674D02*
X6468920Y-17152198D01*
X6468920Y-17152198D02*
X6478444Y-17161722D01*
X6478444Y-17161722D02*
X6487967Y-17180770D01*
X6487967Y-17180770D02*
X6487967Y-17228389D01*
X6487967Y-17228389D02*
X6478444Y-17247436D01*
X6478444Y-17247436D02*
X6468920Y-17256960D01*
X6468920Y-17256960D02*
X6449872Y-17266484D01*
X6449872Y-17266484D02*
X6402253Y-17266484D01*
X6402253Y-17266484D02*
X6383206Y-17256960D01*
X6383206Y-17256960D02*
X6373682Y-17247436D01*
X6659396Y-17133150D02*
X6659396Y-17266484D01*
X6611777Y-17056960D02*
X6564158Y-17199817D01*
X6564158Y-17199817D02*
X6687967Y-17199817D01*
X6754634Y-17066484D02*
X6754634Y-17104579D01*
X6830825Y-17066484D02*
X6830825Y-17104579D01*
X7126063Y-17342674D02*
X7116539Y-17333150D01*
X7116539Y-17333150D02*
X7097491Y-17304579D01*
X7097491Y-17304579D02*
X7087968Y-17285531D01*
X7087968Y-17285531D02*
X7078444Y-17256960D01*
X7078444Y-17256960D02*
X7068920Y-17209341D01*
X7068920Y-17209341D02*
X7068920Y-17171246D01*
X7068920Y-17171246D02*
X7078444Y-17123627D01*
X7078444Y-17123627D02*
X7087968Y-17095055D01*
X7087968Y-17095055D02*
X7097491Y-17076008D01*
X7097491Y-17076008D02*
X7116539Y-17047436D01*
X7116539Y-17047436D02*
X7126063Y-17037912D01*
X7287968Y-17133150D02*
X7287968Y-17266484D01*
X7240348Y-17056960D02*
X7192729Y-17199817D01*
X7192729Y-17199817D02*
X7316539Y-17199817D01*
X7545110Y-17266484D02*
X7545110Y-17066484D01*
X7630825Y-17266484D02*
X7630825Y-17161722D01*
X7630825Y-17161722D02*
X7621301Y-17142674D01*
X7621301Y-17142674D02*
X7602253Y-17133150D01*
X7602253Y-17133150D02*
X7573682Y-17133150D01*
X7573682Y-17133150D02*
X7554634Y-17142674D01*
X7554634Y-17142674D02*
X7545110Y-17152198D01*
X7754634Y-17266484D02*
X7735587Y-17256960D01*
X7735587Y-17256960D02*
X7726063Y-17247436D01*
X7726063Y-17247436D02*
X7716539Y-17228389D01*
X7716539Y-17228389D02*
X7716539Y-17171246D01*
X7716539Y-17171246D02*
X7726063Y-17152198D01*
X7726063Y-17152198D02*
X7735587Y-17142674D01*
X7735587Y-17142674D02*
X7754634Y-17133150D01*
X7754634Y-17133150D02*
X7783206Y-17133150D01*
X7783206Y-17133150D02*
X7802253Y-17142674D01*
X7802253Y-17142674D02*
X7811777Y-17152198D01*
X7811777Y-17152198D02*
X7821301Y-17171246D01*
X7821301Y-17171246D02*
X7821301Y-17228389D01*
X7821301Y-17228389D02*
X7811777Y-17247436D01*
X7811777Y-17247436D02*
X7802253Y-17256960D01*
X7802253Y-17256960D02*
X7783206Y-17266484D01*
X7783206Y-17266484D02*
X7754634Y-17266484D01*
X7935587Y-17266484D02*
X7916539Y-17256960D01*
X7916539Y-17256960D02*
X7907015Y-17237912D01*
X7907015Y-17237912D02*
X7907015Y-17066484D01*
X8087968Y-17256960D02*
X8068920Y-17266484D01*
X8068920Y-17266484D02*
X8030825Y-17266484D01*
X8030825Y-17266484D02*
X8011777Y-17256960D01*
X8011777Y-17256960D02*
X8002253Y-17237912D01*
X8002253Y-17237912D02*
X8002253Y-17161722D01*
X8002253Y-17161722D02*
X8011777Y-17142674D01*
X8011777Y-17142674D02*
X8030825Y-17133150D01*
X8030825Y-17133150D02*
X8068920Y-17133150D01*
X8068920Y-17133150D02*
X8087968Y-17142674D01*
X8087968Y-17142674D02*
X8097491Y-17161722D01*
X8097491Y-17161722D02*
X8097491Y-17180770D01*
X8097491Y-17180770D02*
X8002253Y-17199817D01*
X8173682Y-17256960D02*
X8192730Y-17266484D01*
X8192730Y-17266484D02*
X8230825Y-17266484D01*
X8230825Y-17266484D02*
X8249872Y-17256960D01*
X8249872Y-17256960D02*
X8259396Y-17237912D01*
X8259396Y-17237912D02*
X8259396Y-17228389D01*
X8259396Y-17228389D02*
X8249872Y-17209341D01*
X8249872Y-17209341D02*
X8230825Y-17199817D01*
X8230825Y-17199817D02*
X8202253Y-17199817D01*
X8202253Y-17199817D02*
X8183206Y-17190293D01*
X8183206Y-17190293D02*
X8173682Y-17171246D01*
X8173682Y-17171246D02*
X8173682Y-17161722D01*
X8173682Y-17161722D02*
X8183206Y-17142674D01*
X8183206Y-17142674D02*
X8202253Y-17133150D01*
X8202253Y-17133150D02*
X8230825Y-17133150D01*
X8230825Y-17133150D02*
X8249872Y-17142674D01*
X8326063Y-17342674D02*
X8335587Y-17333150D01*
X8335587Y-17333150D02*
X8354634Y-17304579D01*
X8354634Y-17304579D02*
X8364158Y-17285531D01*
X8364158Y-17285531D02*
X8373682Y-17256960D01*
X8373682Y-17256960D02*
X8383206Y-17209341D01*
X8383206Y-17209341D02*
X8383206Y-17171246D01*
X8383206Y-17171246D02*
X8373682Y-17123627D01*
X8373682Y-17123627D02*
X8364158Y-17095055D01*
X8364158Y-17095055D02*
X8354634Y-17076008D01*
X8354634Y-17076008D02*
X8335587Y-17047436D01*
X8335587Y-17047436D02*
X8326063Y-17037912D01*
D10*
X3536356Y-17474356D02*
X3536356Y-17403644D01*
X3465644Y-17403644D01*
X3465644Y-17474356D01*
X3536356Y-17474356D01*
D11*
X3916539Y-17530484D02*
X3802253Y-17530484D01*
X3859396Y-17530484D02*
X3859396Y-17330484D01*
X3859396Y-17330484D02*
X3840348Y-17359055D01*
X3840348Y-17359055D02*
X3821301Y-17378103D01*
X3821301Y-17378103D02*
X3802253Y-17387627D01*
X4002253Y-17511436D02*
X4011777Y-17520960D01*
X4011777Y-17520960D02*
X4002253Y-17530484D01*
X4002253Y-17530484D02*
X3992729Y-17520960D01*
X3992729Y-17520960D02*
X4002253Y-17511436D01*
X4002253Y-17511436D02*
X4002253Y-17530484D01*
X4135586Y-17330484D02*
X4154634Y-17330484D01*
X4154634Y-17330484D02*
X4173682Y-17340008D01*
X4173682Y-17340008D02*
X4183205Y-17349531D01*
X4183205Y-17349531D02*
X4192729Y-17368579D01*
X4192729Y-17368579D02*
X4202253Y-17406674D01*
X4202253Y-17406674D02*
X4202253Y-17454293D01*
X4202253Y-17454293D02*
X4192729Y-17492389D01*
X4192729Y-17492389D02*
X4183205Y-17511436D01*
X4183205Y-17511436D02*
X4173682Y-17520960D01*
X4173682Y-17520960D02*
X4154634Y-17530484D01*
X4154634Y-17530484D02*
X4135586Y-17530484D01*
X4135586Y-17530484D02*
X4116539Y-17520960D01*
X4116539Y-17520960D02*
X4107015Y-17511436D01*
X4107015Y-17511436D02*
X4097491Y-17492389D01*
X4097491Y-17492389D02*
X4087967Y-17454293D01*
X4087967Y-17454293D02*
X4087967Y-17406674D01*
X4087967Y-17406674D02*
X4097491Y-17368579D01*
X4097491Y-17368579D02*
X4107015Y-17349531D01*
X4107015Y-17349531D02*
X4116539Y-17340008D01*
X4116539Y-17340008D02*
X4135586Y-17330484D01*
X4326063Y-17330484D02*
X4345110Y-17330484D01*
X4345110Y-17330484D02*
X4364158Y-17340008D01*
X4364158Y-17340008D02*
X4373682Y-17349531D01*
X4373682Y-17349531D02*
X4383205Y-17368579D01*
X4383205Y-17368579D02*
X4392729Y-17406674D01*
X4392729Y-17406674D02*
X4392729Y-17454293D01*
X4392729Y-17454293D02*
X4383205Y-17492389D01*
X4383205Y-17492389D02*
X4373682Y-17511436D01*
X4373682Y-17511436D02*
X4364158Y-17520960D01*
X4364158Y-17520960D02*
X4345110Y-17530484D01*
X4345110Y-17530484D02*
X4326063Y-17530484D01*
X4326063Y-17530484D02*
X4307015Y-17520960D01*
X4307015Y-17520960D02*
X4297491Y-17511436D01*
X4297491Y-17511436D02*
X4287967Y-17492389D01*
X4287967Y-17492389D02*
X4278444Y-17454293D01*
X4278444Y-17454293D02*
X4278444Y-17406674D01*
X4278444Y-17406674D02*
X4287967Y-17368579D01*
X4287967Y-17368579D02*
X4297491Y-17349531D01*
X4297491Y-17349531D02*
X4307015Y-17340008D01*
X4307015Y-17340008D02*
X4326063Y-17330484D01*
X4516539Y-17330484D02*
X4535586Y-17330484D01*
X4535586Y-17330484D02*
X4554634Y-17340008D01*
X4554634Y-17340008D02*
X4564158Y-17349531D01*
X4564158Y-17349531D02*
X4573682Y-17368579D01*
X4573682Y-17368579D02*
X4583205Y-17406674D01*
X4583205Y-17406674D02*
X4583205Y-17454293D01*
X4583205Y-17454293D02*
X4573682Y-17492389D01*
X4573682Y-17492389D02*
X4564158Y-17511436D01*
X4564158Y-17511436D02*
X4554634Y-17520960D01*
X4554634Y-17520960D02*
X4535586Y-17530484D01*
X4535586Y-17530484D02*
X4516539Y-17530484D01*
X4516539Y-17530484D02*
X4497491Y-17520960D01*
X4497491Y-17520960D02*
X4487967Y-17511436D01*
X4487967Y-17511436D02*
X4478444Y-17492389D01*
X4478444Y-17492389D02*
X4468920Y-17454293D01*
X4468920Y-17454293D02*
X4468920Y-17406674D01*
X4468920Y-17406674D02*
X4478444Y-17368579D01*
X4478444Y-17368579D02*
X4487967Y-17349531D01*
X4487967Y-17349531D02*
X4497491Y-17340008D01*
X4497491Y-17340008D02*
X4516539Y-17330484D01*
X4668920Y-17530484D02*
X4668920Y-17397150D01*
X4668920Y-17416198D02*
X4678444Y-17406674D01*
X4678444Y-17406674D02*
X4697491Y-17397150D01*
X4697491Y-17397150D02*
X4726063Y-17397150D01*
X4726063Y-17397150D02*
X4745110Y-17406674D01*
X4745110Y-17406674D02*
X4754634Y-17425722D01*
X4754634Y-17425722D02*
X4754634Y-17530484D01*
X4754634Y-17425722D02*
X4764158Y-17406674D01*
X4764158Y-17406674D02*
X4783205Y-17397150D01*
X4783205Y-17397150D02*
X4811777Y-17397150D01*
X4811777Y-17397150D02*
X4830825Y-17406674D01*
X4830825Y-17406674D02*
X4840348Y-17425722D01*
X4840348Y-17425722D02*
X4840348Y-17530484D01*
X4935586Y-17530484D02*
X4935586Y-17397150D01*
X4935586Y-17416198D02*
X4945110Y-17406674D01*
X4945110Y-17406674D02*
X4964158Y-17397150D01*
X4964158Y-17397150D02*
X4992729Y-17397150D01*
X4992729Y-17397150D02*
X5011777Y-17406674D01*
X5011777Y-17406674D02*
X5021301Y-17425722D01*
X5021301Y-17425722D02*
X5021301Y-17530484D01*
X5021301Y-17425722D02*
X5030825Y-17406674D01*
X5030825Y-17406674D02*
X5049872Y-17397150D01*
X5049872Y-17397150D02*
X5078444Y-17397150D01*
X5078444Y-17397150D02*
X5097491Y-17406674D01*
X5097491Y-17406674D02*
X5107015Y-17425722D01*
X5107015Y-17425722D02*
X5107015Y-17530484D01*
X5497491Y-17320960D02*
X5326063Y-17578103D01*
X5754634Y-17330484D02*
X5773682Y-17330484D01*
X5773682Y-17330484D02*
X5792729Y-17340008D01*
X5792729Y-17340008D02*
X5802253Y-17349531D01*
X5802253Y-17349531D02*
X5811777Y-17368579D01*
X5811777Y-17368579D02*
X5821301Y-17406674D01*
X5821301Y-17406674D02*
X5821301Y-17454293D01*
X5821301Y-17454293D02*
X5811777Y-17492389D01*
X5811777Y-17492389D02*
X5802253Y-17511436D01*
X5802253Y-17511436D02*
X5792729Y-17520960D01*
X5792729Y-17520960D02*
X5773682Y-17530484D01*
X5773682Y-17530484D02*
X5754634Y-17530484D01*
X5754634Y-17530484D02*
X5735586Y-17520960D01*
X5735586Y-17520960D02*
X5726063Y-17511436D01*
X5726063Y-17511436D02*
X5716539Y-17492389D01*
X5716539Y-17492389D02*
X5707015Y-17454293D01*
X5707015Y-17454293D02*
X5707015Y-17406674D01*
X5707015Y-17406674D02*
X5716539Y-17368579D01*
X5716539Y-17368579D02*
X5726063Y-17349531D01*
X5726063Y-17349531D02*
X5735586Y-17340008D01*
X5735586Y-17340008D02*
X5754634Y-17330484D01*
X5907015Y-17511436D02*
X5916539Y-17520960D01*
X5916539Y-17520960D02*
X5907015Y-17530484D01*
X5907015Y-17530484D02*
X5897491Y-17520960D01*
X5897491Y-17520960D02*
X5907015Y-17511436D01*
X5907015Y-17511436D02*
X5907015Y-17530484D01*
X6040348Y-17330484D02*
X6059396Y-17330484D01*
X6059396Y-17330484D02*
X6078444Y-17340008D01*
X6078444Y-17340008D02*
X6087967Y-17349531D01*
X6087967Y-17349531D02*
X6097491Y-17368579D01*
X6097491Y-17368579D02*
X6107015Y-17406674D01*
X6107015Y-17406674D02*
X6107015Y-17454293D01*
X6107015Y-17454293D02*
X6097491Y-17492389D01*
X6097491Y-17492389D02*
X6087967Y-17511436D01*
X6087967Y-17511436D02*
X6078444Y-17520960D01*
X6078444Y-17520960D02*
X6059396Y-17530484D01*
X6059396Y-17530484D02*
X6040348Y-17530484D01*
X6040348Y-17530484D02*
X6021301Y-17520960D01*
X6021301Y-17520960D02*
X6011777Y-17511436D01*
X6011777Y-17511436D02*
X6002253Y-17492389D01*
X6002253Y-17492389D02*
X5992729Y-17454293D01*
X5992729Y-17454293D02*
X5992729Y-17406674D01*
X5992729Y-17406674D02*
X6002253Y-17368579D01*
X6002253Y-17368579D02*
X6011777Y-17349531D01*
X6011777Y-17349531D02*
X6021301Y-17340008D01*
X6021301Y-17340008D02*
X6040348Y-17330484D01*
X6173682Y-17330484D02*
X6297491Y-17330484D01*
X6297491Y-17330484D02*
X6230825Y-17406674D01*
X6230825Y-17406674D02*
X6259396Y-17406674D01*
X6259396Y-17406674D02*
X6278444Y-17416198D01*
X6278444Y-17416198D02*
X6287967Y-17425722D01*
X6287967Y-17425722D02*
X6297491Y-17444770D01*
X6297491Y-17444770D02*
X6297491Y-17492389D01*
X6297491Y-17492389D02*
X6287967Y-17511436D01*
X6287967Y-17511436D02*
X6278444Y-17520960D01*
X6278444Y-17520960D02*
X6259396Y-17530484D01*
X6259396Y-17530484D02*
X6202253Y-17530484D01*
X6202253Y-17530484D02*
X6183206Y-17520960D01*
X6183206Y-17520960D02*
X6173682Y-17511436D01*
X6392729Y-17530484D02*
X6430825Y-17530484D01*
X6430825Y-17530484D02*
X6449872Y-17520960D01*
X6449872Y-17520960D02*
X6459396Y-17511436D01*
X6459396Y-17511436D02*
X6478444Y-17482865D01*
X6478444Y-17482865D02*
X6487967Y-17444770D01*
X6487967Y-17444770D02*
X6487967Y-17368579D01*
X6487967Y-17368579D02*
X6478444Y-17349531D01*
X6478444Y-17349531D02*
X6468920Y-17340008D01*
X6468920Y-17340008D02*
X6449872Y-17330484D01*
X6449872Y-17330484D02*
X6411777Y-17330484D01*
X6411777Y-17330484D02*
X6392729Y-17340008D01*
X6392729Y-17340008D02*
X6383206Y-17349531D01*
X6383206Y-17349531D02*
X6373682Y-17368579D01*
X6373682Y-17368579D02*
X6373682Y-17416198D01*
X6373682Y-17416198D02*
X6383206Y-17435246D01*
X6383206Y-17435246D02*
X6392729Y-17444770D01*
X6392729Y-17444770D02*
X6411777Y-17454293D01*
X6411777Y-17454293D02*
X6449872Y-17454293D01*
X6449872Y-17454293D02*
X6468920Y-17444770D01*
X6468920Y-17444770D02*
X6478444Y-17435246D01*
X6478444Y-17435246D02*
X6487967Y-17416198D01*
X6659396Y-17397150D02*
X6659396Y-17530484D01*
X6611777Y-17320960D02*
X6564158Y-17463817D01*
X6564158Y-17463817D02*
X6687967Y-17463817D01*
X6754634Y-17330484D02*
X6754634Y-17368579D01*
X6830825Y-17330484D02*
X6830825Y-17368579D01*
X7126063Y-17606674D02*
X7116539Y-17597150D01*
X7116539Y-17597150D02*
X7097491Y-17568579D01*
X7097491Y-17568579D02*
X7087968Y-17549531D01*
X7087968Y-17549531D02*
X7078444Y-17520960D01*
X7078444Y-17520960D02*
X7068920Y-17473341D01*
X7068920Y-17473341D02*
X7068920Y-17435246D01*
X7068920Y-17435246D02*
X7078444Y-17387627D01*
X7078444Y-17387627D02*
X7087968Y-17359055D01*
X7087968Y-17359055D02*
X7097491Y-17340008D01*
X7097491Y-17340008D02*
X7116539Y-17311436D01*
X7116539Y-17311436D02*
X7126063Y-17301912D01*
X7287968Y-17330484D02*
X7249872Y-17330484D01*
X7249872Y-17330484D02*
X7230825Y-17340008D01*
X7230825Y-17340008D02*
X7221301Y-17349531D01*
X7221301Y-17349531D02*
X7202253Y-17378103D01*
X7202253Y-17378103D02*
X7192729Y-17416198D01*
X7192729Y-17416198D02*
X7192729Y-17492389D01*
X7192729Y-17492389D02*
X7202253Y-17511436D01*
X7202253Y-17511436D02*
X7211777Y-17520960D01*
X7211777Y-17520960D02*
X7230825Y-17530484D01*
X7230825Y-17530484D02*
X7268920Y-17530484D01*
X7268920Y-17530484D02*
X7287968Y-17520960D01*
X7287968Y-17520960D02*
X7297491Y-17511436D01*
X7297491Y-17511436D02*
X7307015Y-17492389D01*
X7307015Y-17492389D02*
X7307015Y-17444770D01*
X7307015Y-17444770D02*
X7297491Y-17425722D01*
X7297491Y-17425722D02*
X7287968Y-17416198D01*
X7287968Y-17416198D02*
X7268920Y-17406674D01*
X7268920Y-17406674D02*
X7230825Y-17406674D01*
X7230825Y-17406674D02*
X7211777Y-17416198D01*
X7211777Y-17416198D02*
X7202253Y-17425722D01*
X7202253Y-17425722D02*
X7192729Y-17444770D01*
X7497491Y-17530484D02*
X7383206Y-17530484D01*
X7440348Y-17530484D02*
X7440348Y-17330484D01*
X7440348Y-17330484D02*
X7421301Y-17359055D01*
X7421301Y-17359055D02*
X7402253Y-17378103D01*
X7402253Y-17378103D02*
X7383206Y-17387627D01*
X7735587Y-17530484D02*
X7735587Y-17330484D01*
X7821301Y-17530484D02*
X7821301Y-17425722D01*
X7821301Y-17425722D02*
X7811777Y-17406674D01*
X7811777Y-17406674D02*
X7792730Y-17397150D01*
X7792730Y-17397150D02*
X7764158Y-17397150D01*
X7764158Y-17397150D02*
X7745110Y-17406674D01*
X7745110Y-17406674D02*
X7735587Y-17416198D01*
X7945110Y-17530484D02*
X7926063Y-17520960D01*
X7926063Y-17520960D02*
X7916539Y-17511436D01*
X7916539Y-17511436D02*
X7907015Y-17492389D01*
X7907015Y-17492389D02*
X7907015Y-17435246D01*
X7907015Y-17435246D02*
X7916539Y-17416198D01*
X7916539Y-17416198D02*
X7926063Y-17406674D01*
X7926063Y-17406674D02*
X7945110Y-17397150D01*
X7945110Y-17397150D02*
X7973682Y-17397150D01*
X7973682Y-17397150D02*
X7992730Y-17406674D01*
X7992730Y-17406674D02*
X8002253Y-17416198D01*
X8002253Y-17416198D02*
X8011777Y-17435246D01*
X8011777Y-17435246D02*
X8011777Y-17492389D01*
X8011777Y-17492389D02*
X8002253Y-17511436D01*
X8002253Y-17511436D02*
X7992730Y-17520960D01*
X7992730Y-17520960D02*
X7973682Y-17530484D01*
X7973682Y-17530484D02*
X7945110Y-17530484D01*
X8126063Y-17530484D02*
X8107015Y-17520960D01*
X8107015Y-17520960D02*
X8097491Y-17501912D01*
X8097491Y-17501912D02*
X8097491Y-17330484D01*
X8278444Y-17520960D02*
X8259396Y-17530484D01*
X8259396Y-17530484D02*
X8221301Y-17530484D01*
X8221301Y-17530484D02*
X8202253Y-17520960D01*
X8202253Y-17520960D02*
X8192730Y-17501912D01*
X8192730Y-17501912D02*
X8192730Y-17425722D01*
X8192730Y-17425722D02*
X8202253Y-17406674D01*
X8202253Y-17406674D02*
X8221301Y-17397150D01*
X8221301Y-17397150D02*
X8259396Y-17397150D01*
X8259396Y-17397150D02*
X8278444Y-17406674D01*
X8278444Y-17406674D02*
X8287968Y-17425722D01*
X8287968Y-17425722D02*
X8287968Y-17444770D01*
X8287968Y-17444770D02*
X8192730Y-17463817D01*
X8364158Y-17520960D02*
X8383206Y-17530484D01*
X8383206Y-17530484D02*
X8421301Y-17530484D01*
X8421301Y-17530484D02*
X8440349Y-17520960D01*
X8440349Y-17520960D02*
X8449873Y-17501912D01*
X8449873Y-17501912D02*
X8449873Y-17492389D01*
X8449873Y-17492389D02*
X8440349Y-17473341D01*
X8440349Y-17473341D02*
X8421301Y-17463817D01*
X8421301Y-17463817D02*
X8392730Y-17463817D01*
X8392730Y-17463817D02*
X8373682Y-17454293D01*
X8373682Y-17454293D02*
X8364158Y-17435246D01*
X8364158Y-17435246D02*
X8364158Y-17425722D01*
X8364158Y-17425722D02*
X8373682Y-17406674D01*
X8373682Y-17406674D02*
X8392730Y-17397150D01*
X8392730Y-17397150D02*
X8421301Y-17397150D01*
X8421301Y-17397150D02*
X8440349Y-17406674D01*
X8687968Y-17454293D02*
X8840349Y-17454293D01*
X8764158Y-17530484D02*
X8764158Y-17378103D01*
X9068920Y-17330484D02*
X9192730Y-17330484D01*
X9192730Y-17330484D02*
X9126063Y-17406674D01*
X9126063Y-17406674D02*
X9154635Y-17406674D01*
X9154635Y-17406674D02*
X9173682Y-17416198D01*
X9173682Y-17416198D02*
X9183206Y-17425722D01*
X9183206Y-17425722D02*
X9192730Y-17444770D01*
X9192730Y-17444770D02*
X9192730Y-17492389D01*
X9192730Y-17492389D02*
X9183206Y-17511436D01*
X9183206Y-17511436D02*
X9173682Y-17520960D01*
X9173682Y-17520960D02*
X9154635Y-17530484D01*
X9154635Y-17530484D02*
X9097492Y-17530484D01*
X9097492Y-17530484D02*
X9078444Y-17520960D01*
X9078444Y-17520960D02*
X9068920Y-17511436D01*
X9421301Y-17520960D02*
X9440349Y-17530484D01*
X9440349Y-17530484D02*
X9478444Y-17530484D01*
X9478444Y-17530484D02*
X9497492Y-17520960D01*
X9497492Y-17520960D02*
X9507016Y-17501912D01*
X9507016Y-17501912D02*
X9507016Y-17492389D01*
X9507016Y-17492389D02*
X9497492Y-17473341D01*
X9497492Y-17473341D02*
X9478444Y-17463817D01*
X9478444Y-17463817D02*
X9449873Y-17463817D01*
X9449873Y-17463817D02*
X9430825Y-17454293D01*
X9430825Y-17454293D02*
X9421301Y-17435246D01*
X9421301Y-17435246D02*
X9421301Y-17425722D01*
X9421301Y-17425722D02*
X9430825Y-17406674D01*
X9430825Y-17406674D02*
X9449873Y-17397150D01*
X9449873Y-17397150D02*
X9478444Y-17397150D01*
X9478444Y-17397150D02*
X9497492Y-17406674D01*
X9621301Y-17530484D02*
X9602254Y-17520960D01*
X9602254Y-17520960D02*
X9592730Y-17501912D01*
X9592730Y-17501912D02*
X9592730Y-17330484D01*
X9726063Y-17530484D02*
X9707016Y-17520960D01*
X9707016Y-17520960D02*
X9697492Y-17511436D01*
X9697492Y-17511436D02*
X9687968Y-17492389D01*
X9687968Y-17492389D02*
X9687968Y-17435246D01*
X9687968Y-17435246D02*
X9697492Y-17416198D01*
X9697492Y-17416198D02*
X9707016Y-17406674D01*
X9707016Y-17406674D02*
X9726063Y-17397150D01*
X9726063Y-17397150D02*
X9754635Y-17397150D01*
X9754635Y-17397150D02*
X9773682Y-17406674D01*
X9773682Y-17406674D02*
X9783206Y-17416198D01*
X9783206Y-17416198D02*
X9792730Y-17435246D01*
X9792730Y-17435246D02*
X9792730Y-17492389D01*
X9792730Y-17492389D02*
X9783206Y-17511436D01*
X9783206Y-17511436D02*
X9773682Y-17520960D01*
X9773682Y-17520960D02*
X9754635Y-17530484D01*
X9754635Y-17530484D02*
X9726063Y-17530484D01*
X9849873Y-17397150D02*
X9926063Y-17397150D01*
X9878444Y-17330484D02*
X9878444Y-17501912D01*
X9878444Y-17501912D02*
X9887968Y-17520960D01*
X9887968Y-17520960D02*
X9907016Y-17530484D01*
X9907016Y-17530484D02*
X9926063Y-17530484D01*
X9983206Y-17520960D02*
X10002254Y-17530484D01*
X10002254Y-17530484D02*
X10040349Y-17530484D01*
X10040349Y-17530484D02*
X10059397Y-17520960D01*
X10059397Y-17520960D02*
X10068920Y-17501912D01*
X10068920Y-17501912D02*
X10068920Y-17492389D01*
X10068920Y-17492389D02*
X10059397Y-17473341D01*
X10059397Y-17473341D02*
X10040349Y-17463817D01*
X10040349Y-17463817D02*
X10011777Y-17463817D01*
X10011777Y-17463817D02*
X9992730Y-17454293D01*
X9992730Y-17454293D02*
X9983206Y-17435246D01*
X9983206Y-17435246D02*
X9983206Y-17425722D01*
X9983206Y-17425722D02*
X9992730Y-17406674D01*
X9992730Y-17406674D02*
X10011777Y-17397150D01*
X10011777Y-17397150D02*
X10040349Y-17397150D01*
X10040349Y-17397150D02*
X10059397Y-17406674D01*
X10135587Y-17606674D02*
X10145111Y-17597150D01*
X10145111Y-17597150D02*
X10164158Y-17568579D01*
X10164158Y-17568579D02*
X10173682Y-17549531D01*
X10173682Y-17549531D02*
X10183206Y-17520960D01*
X10183206Y-17520960D02*
X10192730Y-17473341D01*
X10192730Y-17473341D02*
X10192730Y-17435246D01*
X10192730Y-17435246D02*
X10183206Y-17387627D01*
X10183206Y-17387627D02*
X10173682Y-17359055D01*
X10173682Y-17359055D02*
X10164158Y-17340008D01*
X10164158Y-17340008D02*
X10145111Y-17311436D01*
X10145111Y-17311436D02*
X10135587Y-17301912D01*
D15*
X3496390Y-17757610D02*
X3551000Y-17703000D01*
X3496390Y-17648390D01*
X3441780Y-17703000D01*
X3496390Y-17757610D01*
D11*
X3916539Y-17794484D02*
X3802253Y-17794484D01*
X3859396Y-17794484D02*
X3859396Y-17594484D01*
X3859396Y-17594484D02*
X3840348Y-17623055D01*
X3840348Y-17623055D02*
X3821301Y-17642103D01*
X3821301Y-17642103D02*
X3802253Y-17651627D01*
X4002253Y-17775436D02*
X4011777Y-17784960D01*
X4011777Y-17784960D02*
X4002253Y-17794484D01*
X4002253Y-17794484D02*
X3992729Y-17784960D01*
X3992729Y-17784960D02*
X4002253Y-17775436D01*
X4002253Y-17775436D02*
X4002253Y-17794484D01*
X4135586Y-17594484D02*
X4154634Y-17594484D01*
X4154634Y-17594484D02*
X4173682Y-17604008D01*
X4173682Y-17604008D02*
X4183205Y-17613531D01*
X4183205Y-17613531D02*
X4192729Y-17632579D01*
X4192729Y-17632579D02*
X4202253Y-17670674D01*
X4202253Y-17670674D02*
X4202253Y-17718293D01*
X4202253Y-17718293D02*
X4192729Y-17756389D01*
X4192729Y-17756389D02*
X4183205Y-17775436D01*
X4183205Y-17775436D02*
X4173682Y-17784960D01*
X4173682Y-17784960D02*
X4154634Y-17794484D01*
X4154634Y-17794484D02*
X4135586Y-17794484D01*
X4135586Y-17794484D02*
X4116539Y-17784960D01*
X4116539Y-17784960D02*
X4107015Y-17775436D01*
X4107015Y-17775436D02*
X4097491Y-17756389D01*
X4097491Y-17756389D02*
X4087967Y-17718293D01*
X4087967Y-17718293D02*
X4087967Y-17670674D01*
X4087967Y-17670674D02*
X4097491Y-17632579D01*
X4097491Y-17632579D02*
X4107015Y-17613531D01*
X4107015Y-17613531D02*
X4116539Y-17604008D01*
X4116539Y-17604008D02*
X4135586Y-17594484D01*
X4297491Y-17794484D02*
X4335586Y-17794484D01*
X4335586Y-17794484D02*
X4354634Y-17784960D01*
X4354634Y-17784960D02*
X4364158Y-17775436D01*
X4364158Y-17775436D02*
X4383205Y-17746865D01*
X4383205Y-17746865D02*
X4392729Y-17708770D01*
X4392729Y-17708770D02*
X4392729Y-17632579D01*
X4392729Y-17632579D02*
X4383205Y-17613531D01*
X4383205Y-17613531D02*
X4373682Y-17604008D01*
X4373682Y-17604008D02*
X4354634Y-17594484D01*
X4354634Y-17594484D02*
X4316539Y-17594484D01*
X4316539Y-17594484D02*
X4297491Y-17604008D01*
X4297491Y-17604008D02*
X4287967Y-17613531D01*
X4287967Y-17613531D02*
X4278444Y-17632579D01*
X4278444Y-17632579D02*
X4278444Y-17680198D01*
X4278444Y-17680198D02*
X4287967Y-17699246D01*
X4287967Y-17699246D02*
X4297491Y-17708770D01*
X4297491Y-17708770D02*
X4316539Y-17718293D01*
X4316539Y-17718293D02*
X4354634Y-17718293D01*
X4354634Y-17718293D02*
X4373682Y-17708770D01*
X4373682Y-17708770D02*
X4383205Y-17699246D01*
X4383205Y-17699246D02*
X4392729Y-17680198D01*
X4468920Y-17613531D02*
X4478444Y-17604008D01*
X4478444Y-17604008D02*
X4497491Y-17594484D01*
X4497491Y-17594484D02*
X4545110Y-17594484D01*
X4545110Y-17594484D02*
X4564158Y-17604008D01*
X4564158Y-17604008D02*
X4573682Y-17613531D01*
X4573682Y-17613531D02*
X4583205Y-17632579D01*
X4583205Y-17632579D02*
X4583205Y-17651627D01*
X4583205Y-17651627D02*
X4573682Y-17680198D01*
X4573682Y-17680198D02*
X4459396Y-17794484D01*
X4459396Y-17794484D02*
X4583205Y-17794484D01*
X4668920Y-17794484D02*
X4668920Y-17661150D01*
X4668920Y-17680198D02*
X4678444Y-17670674D01*
X4678444Y-17670674D02*
X4697491Y-17661150D01*
X4697491Y-17661150D02*
X4726063Y-17661150D01*
X4726063Y-17661150D02*
X4745110Y-17670674D01*
X4745110Y-17670674D02*
X4754634Y-17689722D01*
X4754634Y-17689722D02*
X4754634Y-17794484D01*
X4754634Y-17689722D02*
X4764158Y-17670674D01*
X4764158Y-17670674D02*
X4783205Y-17661150D01*
X4783205Y-17661150D02*
X4811777Y-17661150D01*
X4811777Y-17661150D02*
X4830825Y-17670674D01*
X4830825Y-17670674D02*
X4840348Y-17689722D01*
X4840348Y-17689722D02*
X4840348Y-17794484D01*
X4935586Y-17794484D02*
X4935586Y-17661150D01*
X4935586Y-17680198D02*
X4945110Y-17670674D01*
X4945110Y-17670674D02*
X4964158Y-17661150D01*
X4964158Y-17661150D02*
X4992729Y-17661150D01*
X4992729Y-17661150D02*
X5011777Y-17670674D01*
X5011777Y-17670674D02*
X5021301Y-17689722D01*
X5021301Y-17689722D02*
X5021301Y-17794484D01*
X5021301Y-17689722D02*
X5030825Y-17670674D01*
X5030825Y-17670674D02*
X5049872Y-17661150D01*
X5049872Y-17661150D02*
X5078444Y-17661150D01*
X5078444Y-17661150D02*
X5097491Y-17670674D01*
X5097491Y-17670674D02*
X5107015Y-17689722D01*
X5107015Y-17689722D02*
X5107015Y-17794484D01*
X5497491Y-17584960D02*
X5326063Y-17842103D01*
X5754634Y-17594484D02*
X5773682Y-17594484D01*
X5773682Y-17594484D02*
X5792729Y-17604008D01*
X5792729Y-17604008D02*
X5802253Y-17613531D01*
X5802253Y-17613531D02*
X5811777Y-17632579D01*
X5811777Y-17632579D02*
X5821301Y-17670674D01*
X5821301Y-17670674D02*
X5821301Y-17718293D01*
X5821301Y-17718293D02*
X5811777Y-17756389D01*
X5811777Y-17756389D02*
X5802253Y-17775436D01*
X5802253Y-17775436D02*
X5792729Y-17784960D01*
X5792729Y-17784960D02*
X5773682Y-17794484D01*
X5773682Y-17794484D02*
X5754634Y-17794484D01*
X5754634Y-17794484D02*
X5735586Y-17784960D01*
X5735586Y-17784960D02*
X5726063Y-17775436D01*
X5726063Y-17775436D02*
X5716539Y-17756389D01*
X5716539Y-17756389D02*
X5707015Y-17718293D01*
X5707015Y-17718293D02*
X5707015Y-17670674D01*
X5707015Y-17670674D02*
X5716539Y-17632579D01*
X5716539Y-17632579D02*
X5726063Y-17613531D01*
X5726063Y-17613531D02*
X5735586Y-17604008D01*
X5735586Y-17604008D02*
X5754634Y-17594484D01*
X5907015Y-17775436D02*
X5916539Y-17784960D01*
X5916539Y-17784960D02*
X5907015Y-17794484D01*
X5907015Y-17794484D02*
X5897491Y-17784960D01*
X5897491Y-17784960D02*
X5907015Y-17775436D01*
X5907015Y-17775436D02*
X5907015Y-17794484D01*
X6040348Y-17594484D02*
X6059396Y-17594484D01*
X6059396Y-17594484D02*
X6078444Y-17604008D01*
X6078444Y-17604008D02*
X6087967Y-17613531D01*
X6087967Y-17613531D02*
X6097491Y-17632579D01*
X6097491Y-17632579D02*
X6107015Y-17670674D01*
X6107015Y-17670674D02*
X6107015Y-17718293D01*
X6107015Y-17718293D02*
X6097491Y-17756389D01*
X6097491Y-17756389D02*
X6087967Y-17775436D01*
X6087967Y-17775436D02*
X6078444Y-17784960D01*
X6078444Y-17784960D02*
X6059396Y-17794484D01*
X6059396Y-17794484D02*
X6040348Y-17794484D01*
X6040348Y-17794484D02*
X6021301Y-17784960D01*
X6021301Y-17784960D02*
X6011777Y-17775436D01*
X6011777Y-17775436D02*
X6002253Y-17756389D01*
X6002253Y-17756389D02*
X5992729Y-17718293D01*
X5992729Y-17718293D02*
X5992729Y-17670674D01*
X5992729Y-17670674D02*
X6002253Y-17632579D01*
X6002253Y-17632579D02*
X6011777Y-17613531D01*
X6011777Y-17613531D02*
X6021301Y-17604008D01*
X6021301Y-17604008D02*
X6040348Y-17594484D01*
X6278444Y-17661150D02*
X6278444Y-17794484D01*
X6230825Y-17584960D02*
X6183206Y-17727817D01*
X6183206Y-17727817D02*
X6307015Y-17727817D01*
X6364158Y-17594484D02*
X6487967Y-17594484D01*
X6487967Y-17594484D02*
X6421301Y-17670674D01*
X6421301Y-17670674D02*
X6449872Y-17670674D01*
X6449872Y-17670674D02*
X6468920Y-17680198D01*
X6468920Y-17680198D02*
X6478444Y-17689722D01*
X6478444Y-17689722D02*
X6487967Y-17708770D01*
X6487967Y-17708770D02*
X6487967Y-17756389D01*
X6487967Y-17756389D02*
X6478444Y-17775436D01*
X6478444Y-17775436D02*
X6468920Y-17784960D01*
X6468920Y-17784960D02*
X6449872Y-17794484D01*
X6449872Y-17794484D02*
X6392729Y-17794484D01*
X6392729Y-17794484D02*
X6373682Y-17784960D01*
X6373682Y-17784960D02*
X6364158Y-17775436D01*
X6611777Y-17594484D02*
X6630825Y-17594484D01*
X6630825Y-17594484D02*
X6649872Y-17604008D01*
X6649872Y-17604008D02*
X6659396Y-17613531D01*
X6659396Y-17613531D02*
X6668920Y-17632579D01*
X6668920Y-17632579D02*
X6678444Y-17670674D01*
X6678444Y-17670674D02*
X6678444Y-17718293D01*
X6678444Y-17718293D02*
X6668920Y-17756389D01*
X6668920Y-17756389D02*
X6659396Y-17775436D01*
X6659396Y-17775436D02*
X6649872Y-17784960D01*
X6649872Y-17784960D02*
X6630825Y-17794484D01*
X6630825Y-17794484D02*
X6611777Y-17794484D01*
X6611777Y-17794484D02*
X6592729Y-17784960D01*
X6592729Y-17784960D02*
X6583206Y-17775436D01*
X6583206Y-17775436D02*
X6573682Y-17756389D01*
X6573682Y-17756389D02*
X6564158Y-17718293D01*
X6564158Y-17718293D02*
X6564158Y-17670674D01*
X6564158Y-17670674D02*
X6573682Y-17632579D01*
X6573682Y-17632579D02*
X6583206Y-17613531D01*
X6583206Y-17613531D02*
X6592729Y-17604008D01*
X6592729Y-17604008D02*
X6611777Y-17594484D01*
X6754634Y-17594484D02*
X6754634Y-17632579D01*
X6830825Y-17594484D02*
X6830825Y-17632579D01*
X7126063Y-17870674D02*
X7116539Y-17861150D01*
X7116539Y-17861150D02*
X7097491Y-17832579D01*
X7097491Y-17832579D02*
X7087968Y-17813531D01*
X7087968Y-17813531D02*
X7078444Y-17784960D01*
X7078444Y-17784960D02*
X7068920Y-17737341D01*
X7068920Y-17737341D02*
X7068920Y-17699246D01*
X7068920Y-17699246D02*
X7078444Y-17651627D01*
X7078444Y-17651627D02*
X7087968Y-17623055D01*
X7087968Y-17623055D02*
X7097491Y-17604008D01*
X7097491Y-17604008D02*
X7116539Y-17575436D01*
X7116539Y-17575436D02*
X7126063Y-17565912D01*
X7287968Y-17661150D02*
X7287968Y-17794484D01*
X7240348Y-17584960D02*
X7192729Y-17727817D01*
X7192729Y-17727817D02*
X7316539Y-17727817D01*
X7402253Y-17794484D02*
X7440348Y-17794484D01*
X7440348Y-17794484D02*
X7459396Y-17784960D01*
X7459396Y-17784960D02*
X7468920Y-17775436D01*
X7468920Y-17775436D02*
X7487968Y-17746865D01*
X7487968Y-17746865D02*
X7497491Y-17708770D01*
X7497491Y-17708770D02*
X7497491Y-17632579D01*
X7497491Y-17632579D02*
X7487968Y-17613531D01*
X7487968Y-17613531D02*
X7478444Y-17604008D01*
X7478444Y-17604008D02*
X7459396Y-17594484D01*
X7459396Y-17594484D02*
X7421301Y-17594484D01*
X7421301Y-17594484D02*
X7402253Y-17604008D01*
X7402253Y-17604008D02*
X7392729Y-17613531D01*
X7392729Y-17613531D02*
X7383206Y-17632579D01*
X7383206Y-17632579D02*
X7383206Y-17680198D01*
X7383206Y-17680198D02*
X7392729Y-17699246D01*
X7392729Y-17699246D02*
X7402253Y-17708770D01*
X7402253Y-17708770D02*
X7421301Y-17718293D01*
X7421301Y-17718293D02*
X7459396Y-17718293D01*
X7459396Y-17718293D02*
X7478444Y-17708770D01*
X7478444Y-17708770D02*
X7487968Y-17699246D01*
X7487968Y-17699246D02*
X7497491Y-17680198D01*
X7668920Y-17594484D02*
X7630825Y-17594484D01*
X7630825Y-17594484D02*
X7611777Y-17604008D01*
X7611777Y-17604008D02*
X7602253Y-17613531D01*
X7602253Y-17613531D02*
X7583206Y-17642103D01*
X7583206Y-17642103D02*
X7573682Y-17680198D01*
X7573682Y-17680198D02*
X7573682Y-17756389D01*
X7573682Y-17756389D02*
X7583206Y-17775436D01*
X7583206Y-17775436D02*
X7592729Y-17784960D01*
X7592729Y-17784960D02*
X7611777Y-17794484D01*
X7611777Y-17794484D02*
X7649872Y-17794484D01*
X7649872Y-17794484D02*
X7668920Y-17784960D01*
X7668920Y-17784960D02*
X7678444Y-17775436D01*
X7678444Y-17775436D02*
X7687968Y-17756389D01*
X7687968Y-17756389D02*
X7687968Y-17708770D01*
X7687968Y-17708770D02*
X7678444Y-17689722D01*
X7678444Y-17689722D02*
X7668920Y-17680198D01*
X7668920Y-17680198D02*
X7649872Y-17670674D01*
X7649872Y-17670674D02*
X7611777Y-17670674D01*
X7611777Y-17670674D02*
X7592729Y-17680198D01*
X7592729Y-17680198D02*
X7583206Y-17689722D01*
X7583206Y-17689722D02*
X7573682Y-17708770D01*
X7926063Y-17794484D02*
X7926063Y-17594484D01*
X8011777Y-17794484D02*
X8011777Y-17689722D01*
X8011777Y-17689722D02*
X8002253Y-17670674D01*
X8002253Y-17670674D02*
X7983206Y-17661150D01*
X7983206Y-17661150D02*
X7954634Y-17661150D01*
X7954634Y-17661150D02*
X7935587Y-17670674D01*
X7935587Y-17670674D02*
X7926063Y-17680198D01*
X8135587Y-17794484D02*
X8116539Y-17784960D01*
X8116539Y-17784960D02*
X8107015Y-17775436D01*
X8107015Y-17775436D02*
X8097491Y-17756389D01*
X8097491Y-17756389D02*
X8097491Y-17699246D01*
X8097491Y-17699246D02*
X8107015Y-17680198D01*
X8107015Y-17680198D02*
X8116539Y-17670674D01*
X8116539Y-17670674D02*
X8135587Y-17661150D01*
X8135587Y-17661150D02*
X8164158Y-17661150D01*
X8164158Y-17661150D02*
X8183206Y-17670674D01*
X8183206Y-17670674D02*
X8192730Y-17680198D01*
X8192730Y-17680198D02*
X8202253Y-17699246D01*
X8202253Y-17699246D02*
X8202253Y-17756389D01*
X8202253Y-17756389D02*
X8192730Y-17775436D01*
X8192730Y-17775436D02*
X8183206Y-17784960D01*
X8183206Y-17784960D02*
X8164158Y-17794484D01*
X8164158Y-17794484D02*
X8135587Y-17794484D01*
X8316539Y-17794484D02*
X8297491Y-17784960D01*
X8297491Y-17784960D02*
X8287968Y-17765912D01*
X8287968Y-17765912D02*
X8287968Y-17594484D01*
X8468920Y-17784960D02*
X8449873Y-17794484D01*
X8449873Y-17794484D02*
X8411777Y-17794484D01*
X8411777Y-17794484D02*
X8392730Y-17784960D01*
X8392730Y-17784960D02*
X8383206Y-17765912D01*
X8383206Y-17765912D02*
X8383206Y-17689722D01*
X8383206Y-17689722D02*
X8392730Y-17670674D01*
X8392730Y-17670674D02*
X8411777Y-17661150D01*
X8411777Y-17661150D02*
X8449873Y-17661150D01*
X8449873Y-17661150D02*
X8468920Y-17670674D01*
X8468920Y-17670674D02*
X8478444Y-17689722D01*
X8478444Y-17689722D02*
X8478444Y-17708770D01*
X8478444Y-17708770D02*
X8383206Y-17727817D01*
X8554634Y-17784960D02*
X8573682Y-17794484D01*
X8573682Y-17794484D02*
X8611777Y-17794484D01*
X8611777Y-17794484D02*
X8630825Y-17784960D01*
X8630825Y-17784960D02*
X8640349Y-17765912D01*
X8640349Y-17765912D02*
X8640349Y-17756389D01*
X8640349Y-17756389D02*
X8630825Y-17737341D01*
X8630825Y-17737341D02*
X8611777Y-17727817D01*
X8611777Y-17727817D02*
X8583206Y-17727817D01*
X8583206Y-17727817D02*
X8564158Y-17718293D01*
X8564158Y-17718293D02*
X8554634Y-17699246D01*
X8554634Y-17699246D02*
X8554634Y-17689722D01*
X8554634Y-17689722D02*
X8564158Y-17670674D01*
X8564158Y-17670674D02*
X8583206Y-17661150D01*
X8583206Y-17661150D02*
X8611777Y-17661150D01*
X8611777Y-17661150D02*
X8630825Y-17670674D01*
X8707015Y-17870674D02*
X8716539Y-17861150D01*
X8716539Y-17861150D02*
X8735587Y-17832579D01*
X8735587Y-17832579D02*
X8745111Y-17813531D01*
X8745111Y-17813531D02*
X8754634Y-17784960D01*
X8754634Y-17784960D02*
X8764158Y-17737341D01*
X8764158Y-17737341D02*
X8764158Y-17699246D01*
X8764158Y-17699246D02*
X8754634Y-17651627D01*
X8754634Y-17651627D02*
X8745111Y-17623055D01*
X8745111Y-17623055D02*
X8735587Y-17604008D01*
X8735587Y-17604008D02*
X8716539Y-17575436D01*
X8716539Y-17575436D02*
X8707015Y-17565912D01*
D16*
X3371000Y-17877000D02*
X3551000Y-18057000D01*
X3551000Y-17877000D02*
X3371000Y-18057000D01*
X3551000Y-17967000D02*
G75*
G03*
X3551000Y-17967000I-90000J0D01*
G01*
D11*
X3916539Y-18058484D02*
X3802253Y-18058484D01*
X3859396Y-18058484D02*
X3859396Y-17858484D01*
X3859396Y-17858484D02*
X3840348Y-17887055D01*
X3840348Y-17887055D02*
X3821301Y-17906103D01*
X3821301Y-17906103D02*
X3802253Y-17915627D01*
X4002253Y-18039436D02*
X4011777Y-18048960D01*
X4011777Y-18048960D02*
X4002253Y-18058484D01*
X4002253Y-18058484D02*
X3992729Y-18048960D01*
X3992729Y-18048960D02*
X4002253Y-18039436D01*
X4002253Y-18039436D02*
X4002253Y-18058484D01*
X4126062Y-17944198D02*
X4107015Y-17934674D01*
X4107015Y-17934674D02*
X4097491Y-17925150D01*
X4097491Y-17925150D02*
X4087967Y-17906103D01*
X4087967Y-17906103D02*
X4087967Y-17896579D01*
X4087967Y-17896579D02*
X4097491Y-17877531D01*
X4097491Y-17877531D02*
X4107015Y-17868008D01*
X4107015Y-17868008D02*
X4126062Y-17858484D01*
X4126062Y-17858484D02*
X4164158Y-17858484D01*
X4164158Y-17858484D02*
X4183205Y-17868008D01*
X4183205Y-17868008D02*
X4192729Y-17877531D01*
X4192729Y-17877531D02*
X4202253Y-17896579D01*
X4202253Y-17896579D02*
X4202253Y-17906103D01*
X4202253Y-17906103D02*
X4192729Y-17925150D01*
X4192729Y-17925150D02*
X4183205Y-17934674D01*
X4183205Y-17934674D02*
X4164158Y-17944198D01*
X4164158Y-17944198D02*
X4126062Y-17944198D01*
X4126062Y-17944198D02*
X4107015Y-17953722D01*
X4107015Y-17953722D02*
X4097491Y-17963246D01*
X4097491Y-17963246D02*
X4087967Y-17982293D01*
X4087967Y-17982293D02*
X4087967Y-18020389D01*
X4087967Y-18020389D02*
X4097491Y-18039436D01*
X4097491Y-18039436D02*
X4107015Y-18048960D01*
X4107015Y-18048960D02*
X4126062Y-18058484D01*
X4126062Y-18058484D02*
X4164158Y-18058484D01*
X4164158Y-18058484D02*
X4183205Y-18048960D01*
X4183205Y-18048960D02*
X4192729Y-18039436D01*
X4192729Y-18039436D02*
X4202253Y-18020389D01*
X4202253Y-18020389D02*
X4202253Y-17982293D01*
X4202253Y-17982293D02*
X4192729Y-17963246D01*
X4192729Y-17963246D02*
X4183205Y-17953722D01*
X4183205Y-17953722D02*
X4164158Y-17944198D01*
X4326063Y-17858484D02*
X4345110Y-17858484D01*
X4345110Y-17858484D02*
X4364158Y-17868008D01*
X4364158Y-17868008D02*
X4373682Y-17877531D01*
X4373682Y-17877531D02*
X4383205Y-17896579D01*
X4383205Y-17896579D02*
X4392729Y-17934674D01*
X4392729Y-17934674D02*
X4392729Y-17982293D01*
X4392729Y-17982293D02*
X4383205Y-18020389D01*
X4383205Y-18020389D02*
X4373682Y-18039436D01*
X4373682Y-18039436D02*
X4364158Y-18048960D01*
X4364158Y-18048960D02*
X4345110Y-18058484D01*
X4345110Y-18058484D02*
X4326063Y-18058484D01*
X4326063Y-18058484D02*
X4307015Y-18048960D01*
X4307015Y-18048960D02*
X4297491Y-18039436D01*
X4297491Y-18039436D02*
X4287967Y-18020389D01*
X4287967Y-18020389D02*
X4278444Y-17982293D01*
X4278444Y-17982293D02*
X4278444Y-17934674D01*
X4278444Y-17934674D02*
X4287967Y-17896579D01*
X4287967Y-17896579D02*
X4297491Y-17877531D01*
X4297491Y-17877531D02*
X4307015Y-17868008D01*
X4307015Y-17868008D02*
X4326063Y-17858484D01*
X4516539Y-17858484D02*
X4535586Y-17858484D01*
X4535586Y-17858484D02*
X4554634Y-17868008D01*
X4554634Y-17868008D02*
X4564158Y-17877531D01*
X4564158Y-17877531D02*
X4573682Y-17896579D01*
X4573682Y-17896579D02*
X4583205Y-17934674D01*
X4583205Y-17934674D02*
X4583205Y-17982293D01*
X4583205Y-17982293D02*
X4573682Y-18020389D01*
X4573682Y-18020389D02*
X4564158Y-18039436D01*
X4564158Y-18039436D02*
X4554634Y-18048960D01*
X4554634Y-18048960D02*
X4535586Y-18058484D01*
X4535586Y-18058484D02*
X4516539Y-18058484D01*
X4516539Y-18058484D02*
X4497491Y-18048960D01*
X4497491Y-18048960D02*
X4487967Y-18039436D01*
X4487967Y-18039436D02*
X4478444Y-18020389D01*
X4478444Y-18020389D02*
X4468920Y-17982293D01*
X4468920Y-17982293D02*
X4468920Y-17934674D01*
X4468920Y-17934674D02*
X4478444Y-17896579D01*
X4478444Y-17896579D02*
X4487967Y-17877531D01*
X4487967Y-17877531D02*
X4497491Y-17868008D01*
X4497491Y-17868008D02*
X4516539Y-17858484D01*
X4668920Y-18058484D02*
X4668920Y-17925150D01*
X4668920Y-17944198D02*
X4678444Y-17934674D01*
X4678444Y-17934674D02*
X4697491Y-17925150D01*
X4697491Y-17925150D02*
X4726063Y-17925150D01*
X4726063Y-17925150D02*
X4745110Y-17934674D01*
X4745110Y-17934674D02*
X4754634Y-17953722D01*
X4754634Y-17953722D02*
X4754634Y-18058484D01*
X4754634Y-17953722D02*
X4764158Y-17934674D01*
X4764158Y-17934674D02*
X4783205Y-17925150D01*
X4783205Y-17925150D02*
X4811777Y-17925150D01*
X4811777Y-17925150D02*
X4830825Y-17934674D01*
X4830825Y-17934674D02*
X4840348Y-17953722D01*
X4840348Y-17953722D02*
X4840348Y-18058484D01*
X4935586Y-18058484D02*
X4935586Y-17925150D01*
X4935586Y-17944198D02*
X4945110Y-17934674D01*
X4945110Y-17934674D02*
X4964158Y-17925150D01*
X4964158Y-17925150D02*
X4992729Y-17925150D01*
X4992729Y-17925150D02*
X5011777Y-17934674D01*
X5011777Y-17934674D02*
X5021301Y-17953722D01*
X5021301Y-17953722D02*
X5021301Y-18058484D01*
X5021301Y-17953722D02*
X5030825Y-17934674D01*
X5030825Y-17934674D02*
X5049872Y-17925150D01*
X5049872Y-17925150D02*
X5078444Y-17925150D01*
X5078444Y-17925150D02*
X5097491Y-17934674D01*
X5097491Y-17934674D02*
X5107015Y-17953722D01*
X5107015Y-17953722D02*
X5107015Y-18058484D01*
X5497491Y-17848960D02*
X5326063Y-18106103D01*
X5754634Y-17858484D02*
X5773682Y-17858484D01*
X5773682Y-17858484D02*
X5792729Y-17868008D01*
X5792729Y-17868008D02*
X5802253Y-17877531D01*
X5802253Y-17877531D02*
X5811777Y-17896579D01*
X5811777Y-17896579D02*
X5821301Y-17934674D01*
X5821301Y-17934674D02*
X5821301Y-17982293D01*
X5821301Y-17982293D02*
X5811777Y-18020389D01*
X5811777Y-18020389D02*
X5802253Y-18039436D01*
X5802253Y-18039436D02*
X5792729Y-18048960D01*
X5792729Y-18048960D02*
X5773682Y-18058484D01*
X5773682Y-18058484D02*
X5754634Y-18058484D01*
X5754634Y-18058484D02*
X5735586Y-18048960D01*
X5735586Y-18048960D02*
X5726063Y-18039436D01*
X5726063Y-18039436D02*
X5716539Y-18020389D01*
X5716539Y-18020389D02*
X5707015Y-17982293D01*
X5707015Y-17982293D02*
X5707015Y-17934674D01*
X5707015Y-17934674D02*
X5716539Y-17896579D01*
X5716539Y-17896579D02*
X5726063Y-17877531D01*
X5726063Y-17877531D02*
X5735586Y-17868008D01*
X5735586Y-17868008D02*
X5754634Y-17858484D01*
X5907015Y-18039436D02*
X5916539Y-18048960D01*
X5916539Y-18048960D02*
X5907015Y-18058484D01*
X5907015Y-18058484D02*
X5897491Y-18048960D01*
X5897491Y-18048960D02*
X5907015Y-18039436D01*
X5907015Y-18039436D02*
X5907015Y-18058484D01*
X6040348Y-17858484D02*
X6059396Y-17858484D01*
X6059396Y-17858484D02*
X6078444Y-17868008D01*
X6078444Y-17868008D02*
X6087967Y-17877531D01*
X6087967Y-17877531D02*
X6097491Y-17896579D01*
X6097491Y-17896579D02*
X6107015Y-17934674D01*
X6107015Y-17934674D02*
X6107015Y-17982293D01*
X6107015Y-17982293D02*
X6097491Y-18020389D01*
X6097491Y-18020389D02*
X6087967Y-18039436D01*
X6087967Y-18039436D02*
X6078444Y-18048960D01*
X6078444Y-18048960D02*
X6059396Y-18058484D01*
X6059396Y-18058484D02*
X6040348Y-18058484D01*
X6040348Y-18058484D02*
X6021301Y-18048960D01*
X6021301Y-18048960D02*
X6011777Y-18039436D01*
X6011777Y-18039436D02*
X6002253Y-18020389D01*
X6002253Y-18020389D02*
X5992729Y-17982293D01*
X5992729Y-17982293D02*
X5992729Y-17934674D01*
X5992729Y-17934674D02*
X6002253Y-17896579D01*
X6002253Y-17896579D02*
X6011777Y-17877531D01*
X6011777Y-17877531D02*
X6021301Y-17868008D01*
X6021301Y-17868008D02*
X6040348Y-17858484D01*
X6173682Y-17858484D02*
X6307015Y-17858484D01*
X6307015Y-17858484D02*
X6221301Y-18058484D01*
X6421301Y-17858484D02*
X6440348Y-17858484D01*
X6440348Y-17858484D02*
X6459396Y-17868008D01*
X6459396Y-17868008D02*
X6468920Y-17877531D01*
X6468920Y-17877531D02*
X6478444Y-17896579D01*
X6478444Y-17896579D02*
X6487967Y-17934674D01*
X6487967Y-17934674D02*
X6487967Y-17982293D01*
X6487967Y-17982293D02*
X6478444Y-18020389D01*
X6478444Y-18020389D02*
X6468920Y-18039436D01*
X6468920Y-18039436D02*
X6459396Y-18048960D01*
X6459396Y-18048960D02*
X6440348Y-18058484D01*
X6440348Y-18058484D02*
X6421301Y-18058484D01*
X6421301Y-18058484D02*
X6402253Y-18048960D01*
X6402253Y-18048960D02*
X6392729Y-18039436D01*
X6392729Y-18039436D02*
X6383206Y-18020389D01*
X6383206Y-18020389D02*
X6373682Y-17982293D01*
X6373682Y-17982293D02*
X6373682Y-17934674D01*
X6373682Y-17934674D02*
X6383206Y-17896579D01*
X6383206Y-17896579D02*
X6392729Y-17877531D01*
X6392729Y-17877531D02*
X6402253Y-17868008D01*
X6402253Y-17868008D02*
X6421301Y-17858484D01*
X6583206Y-18058484D02*
X6621301Y-18058484D01*
X6621301Y-18058484D02*
X6640348Y-18048960D01*
X6640348Y-18048960D02*
X6649872Y-18039436D01*
X6649872Y-18039436D02*
X6668920Y-18010865D01*
X6668920Y-18010865D02*
X6678444Y-17972770D01*
X6678444Y-17972770D02*
X6678444Y-17896579D01*
X6678444Y-17896579D02*
X6668920Y-17877531D01*
X6668920Y-17877531D02*
X6659396Y-17868008D01*
X6659396Y-17868008D02*
X6640348Y-17858484D01*
X6640348Y-17858484D02*
X6602253Y-17858484D01*
X6602253Y-17858484D02*
X6583206Y-17868008D01*
X6583206Y-17868008D02*
X6573682Y-17877531D01*
X6573682Y-17877531D02*
X6564158Y-17896579D01*
X6564158Y-17896579D02*
X6564158Y-17944198D01*
X6564158Y-17944198D02*
X6573682Y-17963246D01*
X6573682Y-17963246D02*
X6583206Y-17972770D01*
X6583206Y-17972770D02*
X6602253Y-17982293D01*
X6602253Y-17982293D02*
X6640348Y-17982293D01*
X6640348Y-17982293D02*
X6659396Y-17972770D01*
X6659396Y-17972770D02*
X6668920Y-17963246D01*
X6668920Y-17963246D02*
X6678444Y-17944198D01*
X6754634Y-17858484D02*
X6754634Y-17896579D01*
X6830825Y-17858484D02*
X6830825Y-17896579D01*
X7126063Y-18134674D02*
X7116539Y-18125150D01*
X7116539Y-18125150D02*
X7097491Y-18096579D01*
X7097491Y-18096579D02*
X7087968Y-18077531D01*
X7087968Y-18077531D02*
X7078444Y-18048960D01*
X7078444Y-18048960D02*
X7068920Y-18001341D01*
X7068920Y-18001341D02*
X7068920Y-17963246D01*
X7068920Y-17963246D02*
X7078444Y-17915627D01*
X7078444Y-17915627D02*
X7087968Y-17887055D01*
X7087968Y-17887055D02*
X7097491Y-17868008D01*
X7097491Y-17868008D02*
X7116539Y-17839436D01*
X7116539Y-17839436D02*
X7126063Y-17829912D01*
X7297491Y-17858484D02*
X7202253Y-17858484D01*
X7202253Y-17858484D02*
X7192729Y-17953722D01*
X7192729Y-17953722D02*
X7202253Y-17944198D01*
X7202253Y-17944198D02*
X7221301Y-17934674D01*
X7221301Y-17934674D02*
X7268920Y-17934674D01*
X7268920Y-17934674D02*
X7287968Y-17944198D01*
X7287968Y-17944198D02*
X7297491Y-17953722D01*
X7297491Y-17953722D02*
X7307015Y-17972770D01*
X7307015Y-17972770D02*
X7307015Y-18020389D01*
X7307015Y-18020389D02*
X7297491Y-18039436D01*
X7297491Y-18039436D02*
X7287968Y-18048960D01*
X7287968Y-18048960D02*
X7268920Y-18058484D01*
X7268920Y-18058484D02*
X7221301Y-18058484D01*
X7221301Y-18058484D02*
X7202253Y-18048960D01*
X7202253Y-18048960D02*
X7192729Y-18039436D01*
X7545110Y-18058484D02*
X7545110Y-17858484D01*
X7630825Y-18058484D02*
X7630825Y-17953722D01*
X7630825Y-17953722D02*
X7621301Y-17934674D01*
X7621301Y-17934674D02*
X7602253Y-17925150D01*
X7602253Y-17925150D02*
X7573682Y-17925150D01*
X7573682Y-17925150D02*
X7554634Y-17934674D01*
X7554634Y-17934674D02*
X7545110Y-17944198D01*
X7754634Y-18058484D02*
X7735587Y-18048960D01*
X7735587Y-18048960D02*
X7726063Y-18039436D01*
X7726063Y-18039436D02*
X7716539Y-18020389D01*
X7716539Y-18020389D02*
X7716539Y-17963246D01*
X7716539Y-17963246D02*
X7726063Y-17944198D01*
X7726063Y-17944198D02*
X7735587Y-17934674D01*
X7735587Y-17934674D02*
X7754634Y-17925150D01*
X7754634Y-17925150D02*
X7783206Y-17925150D01*
X7783206Y-17925150D02*
X7802253Y-17934674D01*
X7802253Y-17934674D02*
X7811777Y-17944198D01*
X7811777Y-17944198D02*
X7821301Y-17963246D01*
X7821301Y-17963246D02*
X7821301Y-18020389D01*
X7821301Y-18020389D02*
X7811777Y-18039436D01*
X7811777Y-18039436D02*
X7802253Y-18048960D01*
X7802253Y-18048960D02*
X7783206Y-18058484D01*
X7783206Y-18058484D02*
X7754634Y-18058484D01*
X7935587Y-18058484D02*
X7916539Y-18048960D01*
X7916539Y-18048960D02*
X7907015Y-18029912D01*
X7907015Y-18029912D02*
X7907015Y-17858484D01*
X8087968Y-18048960D02*
X8068920Y-18058484D01*
X8068920Y-18058484D02*
X8030825Y-18058484D01*
X8030825Y-18058484D02*
X8011777Y-18048960D01*
X8011777Y-18048960D02*
X8002253Y-18029912D01*
X8002253Y-18029912D02*
X8002253Y-17953722D01*
X8002253Y-17953722D02*
X8011777Y-17934674D01*
X8011777Y-17934674D02*
X8030825Y-17925150D01*
X8030825Y-17925150D02*
X8068920Y-17925150D01*
X8068920Y-17925150D02*
X8087968Y-17934674D01*
X8087968Y-17934674D02*
X8097491Y-17953722D01*
X8097491Y-17953722D02*
X8097491Y-17972770D01*
X8097491Y-17972770D02*
X8002253Y-17991817D01*
X8173682Y-18048960D02*
X8192730Y-18058484D01*
X8192730Y-18058484D02*
X8230825Y-18058484D01*
X8230825Y-18058484D02*
X8249872Y-18048960D01*
X8249872Y-18048960D02*
X8259396Y-18029912D01*
X8259396Y-18029912D02*
X8259396Y-18020389D01*
X8259396Y-18020389D02*
X8249872Y-18001341D01*
X8249872Y-18001341D02*
X8230825Y-17991817D01*
X8230825Y-17991817D02*
X8202253Y-17991817D01*
X8202253Y-17991817D02*
X8183206Y-17982293D01*
X8183206Y-17982293D02*
X8173682Y-17963246D01*
X8173682Y-17963246D02*
X8173682Y-17953722D01*
X8173682Y-17953722D02*
X8183206Y-17934674D01*
X8183206Y-17934674D02*
X8202253Y-17925150D01*
X8202253Y-17925150D02*
X8230825Y-17925150D01*
X8230825Y-17925150D02*
X8249872Y-17934674D01*
X8326063Y-18134674D02*
X8335587Y-18125150D01*
X8335587Y-18125150D02*
X8354634Y-18096579D01*
X8354634Y-18096579D02*
X8364158Y-18077531D01*
X8364158Y-18077531D02*
X8373682Y-18048960D01*
X8373682Y-18048960D02*
X8383206Y-18001341D01*
X8383206Y-18001341D02*
X8383206Y-17963246D01*
X8383206Y-17963246D02*
X8373682Y-17915627D01*
X8373682Y-17915627D02*
X8364158Y-17887055D01*
X8364158Y-17887055D02*
X8354634Y-17868008D01*
X8354634Y-17868008D02*
X8335587Y-17839436D01*
X8335587Y-17839436D02*
X8326063Y-17829912D01*
X3351000Y-18167000D02*
X3551000Y-18367000D01*
X3551000Y-18167000D02*
X3351000Y-18367000D01*
X3451000Y-18167000D02*
X3451000Y-18367000D01*
X3351000Y-18267000D02*
X3551000Y-18267000D01*
X3792729Y-18158484D02*
X3916539Y-18158484D01*
X3916539Y-18158484D02*
X3849872Y-18234674D01*
X3849872Y-18234674D02*
X3878443Y-18234674D01*
X3878443Y-18234674D02*
X3897491Y-18244198D01*
X3897491Y-18244198D02*
X3907015Y-18253722D01*
X3907015Y-18253722D02*
X3916539Y-18272770D01*
X3916539Y-18272770D02*
X3916539Y-18320389D01*
X3916539Y-18320389D02*
X3907015Y-18339436D01*
X3907015Y-18339436D02*
X3897491Y-18348960D01*
X3897491Y-18348960D02*
X3878443Y-18358484D01*
X3878443Y-18358484D02*
X3821301Y-18358484D01*
X3821301Y-18358484D02*
X3802253Y-18348960D01*
X3802253Y-18348960D02*
X3792729Y-18339436D01*
X4002253Y-18339436D02*
X4011777Y-18348960D01*
X4011777Y-18348960D02*
X4002253Y-18358484D01*
X4002253Y-18358484D02*
X3992729Y-18348960D01*
X3992729Y-18348960D02*
X4002253Y-18339436D01*
X4002253Y-18339436D02*
X4002253Y-18358484D01*
X4087967Y-18177531D02*
X4097491Y-18168008D01*
X4097491Y-18168008D02*
X4116539Y-18158484D01*
X4116539Y-18158484D02*
X4164158Y-18158484D01*
X4164158Y-18158484D02*
X4183205Y-18168008D01*
X4183205Y-18168008D02*
X4192729Y-18177531D01*
X4192729Y-18177531D02*
X4202253Y-18196579D01*
X4202253Y-18196579D02*
X4202253Y-18215627D01*
X4202253Y-18215627D02*
X4192729Y-18244198D01*
X4192729Y-18244198D02*
X4078443Y-18358484D01*
X4078443Y-18358484D02*
X4202253Y-18358484D01*
X4326063Y-18158484D02*
X4345110Y-18158484D01*
X4345110Y-18158484D02*
X4364158Y-18168008D01*
X4364158Y-18168008D02*
X4373682Y-18177531D01*
X4373682Y-18177531D02*
X4383205Y-18196579D01*
X4383205Y-18196579D02*
X4392729Y-18234674D01*
X4392729Y-18234674D02*
X4392729Y-18282293D01*
X4392729Y-18282293D02*
X4383205Y-18320389D01*
X4383205Y-18320389D02*
X4373682Y-18339436D01*
X4373682Y-18339436D02*
X4364158Y-18348960D01*
X4364158Y-18348960D02*
X4345110Y-18358484D01*
X4345110Y-18358484D02*
X4326063Y-18358484D01*
X4326063Y-18358484D02*
X4307015Y-18348960D01*
X4307015Y-18348960D02*
X4297491Y-18339436D01*
X4297491Y-18339436D02*
X4287967Y-18320389D01*
X4287967Y-18320389D02*
X4278444Y-18282293D01*
X4278444Y-18282293D02*
X4278444Y-18234674D01*
X4278444Y-18234674D02*
X4287967Y-18196579D01*
X4287967Y-18196579D02*
X4297491Y-18177531D01*
X4297491Y-18177531D02*
X4307015Y-18168008D01*
X4307015Y-18168008D02*
X4326063Y-18158484D01*
X4516539Y-18158484D02*
X4535586Y-18158484D01*
X4535586Y-18158484D02*
X4554634Y-18168008D01*
X4554634Y-18168008D02*
X4564158Y-18177531D01*
X4564158Y-18177531D02*
X4573682Y-18196579D01*
X4573682Y-18196579D02*
X4583205Y-18234674D01*
X4583205Y-18234674D02*
X4583205Y-18282293D01*
X4583205Y-18282293D02*
X4573682Y-18320389D01*
X4573682Y-18320389D02*
X4564158Y-18339436D01*
X4564158Y-18339436D02*
X4554634Y-18348960D01*
X4554634Y-18348960D02*
X4535586Y-18358484D01*
X4535586Y-18358484D02*
X4516539Y-18358484D01*
X4516539Y-18358484D02*
X4497491Y-18348960D01*
X4497491Y-18348960D02*
X4487967Y-18339436D01*
X4487967Y-18339436D02*
X4478444Y-18320389D01*
X4478444Y-18320389D02*
X4468920Y-18282293D01*
X4468920Y-18282293D02*
X4468920Y-18234674D01*
X4468920Y-18234674D02*
X4478444Y-18196579D01*
X4478444Y-18196579D02*
X4487967Y-18177531D01*
X4487967Y-18177531D02*
X4497491Y-18168008D01*
X4497491Y-18168008D02*
X4516539Y-18158484D01*
X4668920Y-18358484D02*
X4668920Y-18225150D01*
X4668920Y-18244198D02*
X4678444Y-18234674D01*
X4678444Y-18234674D02*
X4697491Y-18225150D01*
X4697491Y-18225150D02*
X4726063Y-18225150D01*
X4726063Y-18225150D02*
X4745110Y-18234674D01*
X4745110Y-18234674D02*
X4754634Y-18253722D01*
X4754634Y-18253722D02*
X4754634Y-18358484D01*
X4754634Y-18253722D02*
X4764158Y-18234674D01*
X4764158Y-18234674D02*
X4783205Y-18225150D01*
X4783205Y-18225150D02*
X4811777Y-18225150D01*
X4811777Y-18225150D02*
X4830825Y-18234674D01*
X4830825Y-18234674D02*
X4840348Y-18253722D01*
X4840348Y-18253722D02*
X4840348Y-18358484D01*
X4935586Y-18358484D02*
X4935586Y-18225150D01*
X4935586Y-18244198D02*
X4945110Y-18234674D01*
X4945110Y-18234674D02*
X4964158Y-18225150D01*
X4964158Y-18225150D02*
X4992729Y-18225150D01*
X4992729Y-18225150D02*
X5011777Y-18234674D01*
X5011777Y-18234674D02*
X5021301Y-18253722D01*
X5021301Y-18253722D02*
X5021301Y-18358484D01*
X5021301Y-18253722D02*
X5030825Y-18234674D01*
X5030825Y-18234674D02*
X5049872Y-18225150D01*
X5049872Y-18225150D02*
X5078444Y-18225150D01*
X5078444Y-18225150D02*
X5097491Y-18234674D01*
X5097491Y-18234674D02*
X5107015Y-18253722D01*
X5107015Y-18253722D02*
X5107015Y-18358484D01*
X5497491Y-18148960D02*
X5326063Y-18406103D01*
X5754634Y-18158484D02*
X5773682Y-18158484D01*
X5773682Y-18158484D02*
X5792729Y-18168008D01*
X5792729Y-18168008D02*
X5802253Y-18177531D01*
X5802253Y-18177531D02*
X5811777Y-18196579D01*
X5811777Y-18196579D02*
X5821301Y-18234674D01*
X5821301Y-18234674D02*
X5821301Y-18282293D01*
X5821301Y-18282293D02*
X5811777Y-18320389D01*
X5811777Y-18320389D02*
X5802253Y-18339436D01*
X5802253Y-18339436D02*
X5792729Y-18348960D01*
X5792729Y-18348960D02*
X5773682Y-18358484D01*
X5773682Y-18358484D02*
X5754634Y-18358484D01*
X5754634Y-18358484D02*
X5735586Y-18348960D01*
X5735586Y-18348960D02*
X5726063Y-18339436D01*
X5726063Y-18339436D02*
X5716539Y-18320389D01*
X5716539Y-18320389D02*
X5707015Y-18282293D01*
X5707015Y-18282293D02*
X5707015Y-18234674D01*
X5707015Y-18234674D02*
X5716539Y-18196579D01*
X5716539Y-18196579D02*
X5726063Y-18177531D01*
X5726063Y-18177531D02*
X5735586Y-18168008D01*
X5735586Y-18168008D02*
X5754634Y-18158484D01*
X5907015Y-18339436D02*
X5916539Y-18348960D01*
X5916539Y-18348960D02*
X5907015Y-18358484D01*
X5907015Y-18358484D02*
X5897491Y-18348960D01*
X5897491Y-18348960D02*
X5907015Y-18339436D01*
X5907015Y-18339436D02*
X5907015Y-18358484D01*
X6107015Y-18358484D02*
X5992729Y-18358484D01*
X6049872Y-18358484D02*
X6049872Y-18158484D01*
X6049872Y-18158484D02*
X6030825Y-18187055D01*
X6030825Y-18187055D02*
X6011777Y-18206103D01*
X6011777Y-18206103D02*
X5992729Y-18215627D01*
X6183206Y-18177531D02*
X6192729Y-18168008D01*
X6192729Y-18168008D02*
X6211777Y-18158484D01*
X6211777Y-18158484D02*
X6259396Y-18158484D01*
X6259396Y-18158484D02*
X6278444Y-18168008D01*
X6278444Y-18168008D02*
X6287967Y-18177531D01*
X6287967Y-18177531D02*
X6297491Y-18196579D01*
X6297491Y-18196579D02*
X6297491Y-18215627D01*
X6297491Y-18215627D02*
X6287967Y-18244198D01*
X6287967Y-18244198D02*
X6173682Y-18358484D01*
X6173682Y-18358484D02*
X6297491Y-18358484D01*
X6468920Y-18158484D02*
X6430825Y-18158484D01*
X6430825Y-18158484D02*
X6411777Y-18168008D01*
X6411777Y-18168008D02*
X6402253Y-18177531D01*
X6402253Y-18177531D02*
X6383206Y-18206103D01*
X6383206Y-18206103D02*
X6373682Y-18244198D01*
X6373682Y-18244198D02*
X6373682Y-18320389D01*
X6373682Y-18320389D02*
X6383206Y-18339436D01*
X6383206Y-18339436D02*
X6392729Y-18348960D01*
X6392729Y-18348960D02*
X6411777Y-18358484D01*
X6411777Y-18358484D02*
X6449872Y-18358484D01*
X6449872Y-18358484D02*
X6468920Y-18348960D01*
X6468920Y-18348960D02*
X6478444Y-18339436D01*
X6478444Y-18339436D02*
X6487967Y-18320389D01*
X6487967Y-18320389D02*
X6487967Y-18272770D01*
X6487967Y-18272770D02*
X6478444Y-18253722D01*
X6478444Y-18253722D02*
X6468920Y-18244198D01*
X6468920Y-18244198D02*
X6449872Y-18234674D01*
X6449872Y-18234674D02*
X6411777Y-18234674D01*
X6411777Y-18234674D02*
X6392729Y-18244198D01*
X6392729Y-18244198D02*
X6383206Y-18253722D01*
X6383206Y-18253722D02*
X6373682Y-18272770D01*
X6611777Y-18158484D02*
X6630825Y-18158484D01*
X6630825Y-18158484D02*
X6649872Y-18168008D01*
X6649872Y-18168008D02*
X6659396Y-18177531D01*
X6659396Y-18177531D02*
X6668920Y-18196579D01*
X6668920Y-18196579D02*
X6678444Y-18234674D01*
X6678444Y-18234674D02*
X6678444Y-18282293D01*
X6678444Y-18282293D02*
X6668920Y-18320389D01*
X6668920Y-18320389D02*
X6659396Y-18339436D01*
X6659396Y-18339436D02*
X6649872Y-18348960D01*
X6649872Y-18348960D02*
X6630825Y-18358484D01*
X6630825Y-18358484D02*
X6611777Y-18358484D01*
X6611777Y-18358484D02*
X6592729Y-18348960D01*
X6592729Y-18348960D02*
X6583206Y-18339436D01*
X6583206Y-18339436D02*
X6573682Y-18320389D01*
X6573682Y-18320389D02*
X6564158Y-18282293D01*
X6564158Y-18282293D02*
X6564158Y-18234674D01*
X6564158Y-18234674D02*
X6573682Y-18196579D01*
X6573682Y-18196579D02*
X6583206Y-18177531D01*
X6583206Y-18177531D02*
X6592729Y-18168008D01*
X6592729Y-18168008D02*
X6611777Y-18158484D01*
X6754634Y-18158484D02*
X6754634Y-18196579D01*
X6830825Y-18158484D02*
X6830825Y-18196579D01*
X7126063Y-18434674D02*
X7116539Y-18425150D01*
X7116539Y-18425150D02*
X7097491Y-18396579D01*
X7097491Y-18396579D02*
X7087968Y-18377531D01*
X7087968Y-18377531D02*
X7078444Y-18348960D01*
X7078444Y-18348960D02*
X7068920Y-18301341D01*
X7068920Y-18301341D02*
X7068920Y-18263246D01*
X7068920Y-18263246D02*
X7078444Y-18215627D01*
X7078444Y-18215627D02*
X7087968Y-18187055D01*
X7087968Y-18187055D02*
X7097491Y-18168008D01*
X7097491Y-18168008D02*
X7116539Y-18139436D01*
X7116539Y-18139436D02*
X7126063Y-18129912D01*
X7287968Y-18158484D02*
X7249872Y-18158484D01*
X7249872Y-18158484D02*
X7230825Y-18168008D01*
X7230825Y-18168008D02*
X7221301Y-18177531D01*
X7221301Y-18177531D02*
X7202253Y-18206103D01*
X7202253Y-18206103D02*
X7192729Y-18244198D01*
X7192729Y-18244198D02*
X7192729Y-18320389D01*
X7192729Y-18320389D02*
X7202253Y-18339436D01*
X7202253Y-18339436D02*
X7211777Y-18348960D01*
X7211777Y-18348960D02*
X7230825Y-18358484D01*
X7230825Y-18358484D02*
X7268920Y-18358484D01*
X7268920Y-18358484D02*
X7287968Y-18348960D01*
X7287968Y-18348960D02*
X7297491Y-18339436D01*
X7297491Y-18339436D02*
X7307015Y-18320389D01*
X7307015Y-18320389D02*
X7307015Y-18272770D01*
X7307015Y-18272770D02*
X7297491Y-18253722D01*
X7297491Y-18253722D02*
X7287968Y-18244198D01*
X7287968Y-18244198D02*
X7268920Y-18234674D01*
X7268920Y-18234674D02*
X7230825Y-18234674D01*
X7230825Y-18234674D02*
X7211777Y-18244198D01*
X7211777Y-18244198D02*
X7202253Y-18253722D01*
X7202253Y-18253722D02*
X7192729Y-18272770D01*
X7545110Y-18358484D02*
X7545110Y-18158484D01*
X7630825Y-18358484D02*
X7630825Y-18253722D01*
X7630825Y-18253722D02*
X7621301Y-18234674D01*
X7621301Y-18234674D02*
X7602253Y-18225150D01*
X7602253Y-18225150D02*
X7573682Y-18225150D01*
X7573682Y-18225150D02*
X7554634Y-18234674D01*
X7554634Y-18234674D02*
X7545110Y-18244198D01*
X7754634Y-18358484D02*
X7735587Y-18348960D01*
X7735587Y-18348960D02*
X7726063Y-18339436D01*
X7726063Y-18339436D02*
X7716539Y-18320389D01*
X7716539Y-18320389D02*
X7716539Y-18263246D01*
X7716539Y-18263246D02*
X7726063Y-18244198D01*
X7726063Y-18244198D02*
X7735587Y-18234674D01*
X7735587Y-18234674D02*
X7754634Y-18225150D01*
X7754634Y-18225150D02*
X7783206Y-18225150D01*
X7783206Y-18225150D02*
X7802253Y-18234674D01*
X7802253Y-18234674D02*
X7811777Y-18244198D01*
X7811777Y-18244198D02*
X7821301Y-18263246D01*
X7821301Y-18263246D02*
X7821301Y-18320389D01*
X7821301Y-18320389D02*
X7811777Y-18339436D01*
X7811777Y-18339436D02*
X7802253Y-18348960D01*
X7802253Y-18348960D02*
X7783206Y-18358484D01*
X7783206Y-18358484D02*
X7754634Y-18358484D01*
X7935587Y-18358484D02*
X7916539Y-18348960D01*
X7916539Y-18348960D02*
X7907015Y-18329912D01*
X7907015Y-18329912D02*
X7907015Y-18158484D01*
X8087968Y-18348960D02*
X8068920Y-18358484D01*
X8068920Y-18358484D02*
X8030825Y-18358484D01*
X8030825Y-18358484D02*
X8011777Y-18348960D01*
X8011777Y-18348960D02*
X8002253Y-18329912D01*
X8002253Y-18329912D02*
X8002253Y-18253722D01*
X8002253Y-18253722D02*
X8011777Y-18234674D01*
X8011777Y-18234674D02*
X8030825Y-18225150D01*
X8030825Y-18225150D02*
X8068920Y-18225150D01*
X8068920Y-18225150D02*
X8087968Y-18234674D01*
X8087968Y-18234674D02*
X8097491Y-18253722D01*
X8097491Y-18253722D02*
X8097491Y-18272770D01*
X8097491Y-18272770D02*
X8002253Y-18291817D01*
X8173682Y-18348960D02*
X8192730Y-18358484D01*
X8192730Y-18358484D02*
X8230825Y-18358484D01*
X8230825Y-18358484D02*
X8249872Y-18348960D01*
X8249872Y-18348960D02*
X8259396Y-18329912D01*
X8259396Y-18329912D02*
X8259396Y-18320389D01*
X8259396Y-18320389D02*
X8249872Y-18301341D01*
X8249872Y-18301341D02*
X8230825Y-18291817D01*
X8230825Y-18291817D02*
X8202253Y-18291817D01*
X8202253Y-18291817D02*
X8183206Y-18282293D01*
X8183206Y-18282293D02*
X8173682Y-18263246D01*
X8173682Y-18263246D02*
X8173682Y-18253722D01*
X8173682Y-18253722D02*
X8183206Y-18234674D01*
X8183206Y-18234674D02*
X8202253Y-18225150D01*
X8202253Y-18225150D02*
X8230825Y-18225150D01*
X8230825Y-18225150D02*
X8249872Y-18234674D01*
X8326063Y-18434674D02*
X8335587Y-18425150D01*
X8335587Y-18425150D02*
X8354634Y-18396579D01*
X8354634Y-18396579D02*
X8364158Y-18377531D01*
X8364158Y-18377531D02*
X8373682Y-18348960D01*
X8373682Y-18348960D02*
X8383206Y-18301341D01*
X8383206Y-18301341D02*
X8383206Y-18263246D01*
X8383206Y-18263246D02*
X8373682Y-18215627D01*
X8373682Y-18215627D02*
X8364158Y-18187055D01*
X8364158Y-18187055D02*
X8354634Y-18168008D01*
X8354634Y-18168008D02*
X8335587Y-18139436D01*
X8335587Y-18139436D02*
X8326063Y-18129912D01*
M02*
