%TF.GenerationSoftware,KiCad,Pcbnew,7.0.7*%
%TF.CreationDate,2023-08-22T15:23:47-04:00*%
%TF.ProjectId,1 - Backplkane,31202d20-4261-4636-9b70-6c6b616e652e,2*%
%TF.SameCoordinates,Original*%
%TF.FileFunction,Drillmap*%
%TF.FilePolarity,Positive*%
%FSLAX45Y45*%
G04 Gerber Fmt 4.5, Leading zero omitted, Abs format (unit mm)*
G04 Created by KiCad (PCBNEW 7.0.7) date 2023-08-22 15:23:47*
%MOMM*%
%LPD*%
G01*
G04 APERTURE LIST*
%ADD10C,0.100000*%
%ADD11C,0.200000*%
%ADD12C,0.320000*%
G04 APERTURE END LIST*
D10*
X19050000Y-3556000D02*
X19050000Y-16002000D01*
X3556000Y-16002000D02*
X19050000Y-16002000D01*
X3556000Y-16002000D02*
X3556000Y-3556000D01*
X19050000Y-3556000D02*
X3556000Y-3556000D01*
D11*
D12*
X13559500Y-4031000D02*
X13879500Y-4351000D01*
X13879500Y-4031000D02*
X13559500Y-4351000D01*
D11*
X3811777Y-16318484D02*
X3811777Y-16118484D01*
X3811777Y-16118484D02*
X3859396Y-16118484D01*
X3859396Y-16118484D02*
X3887967Y-16128008D01*
X3887967Y-16128008D02*
X3907015Y-16147055D01*
X3907015Y-16147055D02*
X3916539Y-16166103D01*
X3916539Y-16166103D02*
X3926062Y-16204198D01*
X3926062Y-16204198D02*
X3926062Y-16232769D01*
X3926062Y-16232769D02*
X3916539Y-16270865D01*
X3916539Y-16270865D02*
X3907015Y-16289912D01*
X3907015Y-16289912D02*
X3887967Y-16308960D01*
X3887967Y-16308960D02*
X3859396Y-16318484D01*
X3859396Y-16318484D02*
X3811777Y-16318484D01*
X4011777Y-16318484D02*
X4011777Y-16185150D01*
X4011777Y-16223246D02*
X4021301Y-16204198D01*
X4021301Y-16204198D02*
X4030824Y-16194674D01*
X4030824Y-16194674D02*
X4049872Y-16185150D01*
X4049872Y-16185150D02*
X4068920Y-16185150D01*
X4135586Y-16318484D02*
X4135586Y-16185150D01*
X4135586Y-16118484D02*
X4126062Y-16128008D01*
X4126062Y-16128008D02*
X4135586Y-16137531D01*
X4135586Y-16137531D02*
X4145110Y-16128008D01*
X4145110Y-16128008D02*
X4135586Y-16118484D01*
X4135586Y-16118484D02*
X4135586Y-16137531D01*
X4259396Y-16318484D02*
X4240348Y-16308960D01*
X4240348Y-16308960D02*
X4230824Y-16289912D01*
X4230824Y-16289912D02*
X4230824Y-16118484D01*
X4364158Y-16318484D02*
X4345110Y-16308960D01*
X4345110Y-16308960D02*
X4335586Y-16289912D01*
X4335586Y-16289912D02*
X4335586Y-16118484D01*
X4592729Y-16318484D02*
X4592729Y-16118484D01*
X4592729Y-16118484D02*
X4659396Y-16261341D01*
X4659396Y-16261341D02*
X4726063Y-16118484D01*
X4726063Y-16118484D02*
X4726063Y-16318484D01*
X4907015Y-16318484D02*
X4907015Y-16213722D01*
X4907015Y-16213722D02*
X4897491Y-16194674D01*
X4897491Y-16194674D02*
X4878444Y-16185150D01*
X4878444Y-16185150D02*
X4840348Y-16185150D01*
X4840348Y-16185150D02*
X4821301Y-16194674D01*
X4907015Y-16308960D02*
X4887967Y-16318484D01*
X4887967Y-16318484D02*
X4840348Y-16318484D01*
X4840348Y-16318484D02*
X4821301Y-16308960D01*
X4821301Y-16308960D02*
X4811777Y-16289912D01*
X4811777Y-16289912D02*
X4811777Y-16270865D01*
X4811777Y-16270865D02*
X4821301Y-16251817D01*
X4821301Y-16251817D02*
X4840348Y-16242293D01*
X4840348Y-16242293D02*
X4887967Y-16242293D01*
X4887967Y-16242293D02*
X4907015Y-16232769D01*
X5002253Y-16185150D02*
X5002253Y-16385150D01*
X5002253Y-16194674D02*
X5021301Y-16185150D01*
X5021301Y-16185150D02*
X5059396Y-16185150D01*
X5059396Y-16185150D02*
X5078444Y-16194674D01*
X5078444Y-16194674D02*
X5087967Y-16204198D01*
X5087967Y-16204198D02*
X5097491Y-16223246D01*
X5097491Y-16223246D02*
X5097491Y-16280388D01*
X5097491Y-16280388D02*
X5087967Y-16299436D01*
X5087967Y-16299436D02*
X5078444Y-16308960D01*
X5078444Y-16308960D02*
X5059396Y-16318484D01*
X5059396Y-16318484D02*
X5021301Y-16318484D01*
X5021301Y-16318484D02*
X5002253Y-16308960D01*
X5183205Y-16299436D02*
X5192729Y-16308960D01*
X5192729Y-16308960D02*
X5183205Y-16318484D01*
X5183205Y-16318484D02*
X5173682Y-16308960D01*
X5173682Y-16308960D02*
X5183205Y-16299436D01*
X5183205Y-16299436D02*
X5183205Y-16318484D01*
X5183205Y-16194674D02*
X5192729Y-16204198D01*
X5192729Y-16204198D02*
X5183205Y-16213722D01*
X5183205Y-16213722D02*
X5173682Y-16204198D01*
X5173682Y-16204198D02*
X5183205Y-16194674D01*
X5183205Y-16194674D02*
X5183205Y-16213722D01*
X3351000Y-16547000D02*
X3551000Y-16747000D01*
X3551000Y-16547000D02*
X3351000Y-16747000D01*
X3792729Y-16538484D02*
X3916539Y-16538484D01*
X3916539Y-16538484D02*
X3849872Y-16614674D01*
X3849872Y-16614674D02*
X3878443Y-16614674D01*
X3878443Y-16614674D02*
X3897491Y-16624198D01*
X3897491Y-16624198D02*
X3907015Y-16633722D01*
X3907015Y-16633722D02*
X3916539Y-16652769D01*
X3916539Y-16652769D02*
X3916539Y-16700388D01*
X3916539Y-16700388D02*
X3907015Y-16719436D01*
X3907015Y-16719436D02*
X3897491Y-16728960D01*
X3897491Y-16728960D02*
X3878443Y-16738484D01*
X3878443Y-16738484D02*
X3821301Y-16738484D01*
X3821301Y-16738484D02*
X3802253Y-16728960D01*
X3802253Y-16728960D02*
X3792729Y-16719436D01*
X4002253Y-16719436D02*
X4011777Y-16728960D01*
X4011777Y-16728960D02*
X4002253Y-16738484D01*
X4002253Y-16738484D02*
X3992729Y-16728960D01*
X3992729Y-16728960D02*
X4002253Y-16719436D01*
X4002253Y-16719436D02*
X4002253Y-16738484D01*
X4087967Y-16557531D02*
X4097491Y-16548008D01*
X4097491Y-16548008D02*
X4116539Y-16538484D01*
X4116539Y-16538484D02*
X4164158Y-16538484D01*
X4164158Y-16538484D02*
X4183205Y-16548008D01*
X4183205Y-16548008D02*
X4192729Y-16557531D01*
X4192729Y-16557531D02*
X4202253Y-16576579D01*
X4202253Y-16576579D02*
X4202253Y-16595627D01*
X4202253Y-16595627D02*
X4192729Y-16624198D01*
X4192729Y-16624198D02*
X4078443Y-16738484D01*
X4078443Y-16738484D02*
X4202253Y-16738484D01*
X4326063Y-16538484D02*
X4345110Y-16538484D01*
X4345110Y-16538484D02*
X4364158Y-16548008D01*
X4364158Y-16548008D02*
X4373682Y-16557531D01*
X4373682Y-16557531D02*
X4383205Y-16576579D01*
X4383205Y-16576579D02*
X4392729Y-16614674D01*
X4392729Y-16614674D02*
X4392729Y-16662293D01*
X4392729Y-16662293D02*
X4383205Y-16700388D01*
X4383205Y-16700388D02*
X4373682Y-16719436D01*
X4373682Y-16719436D02*
X4364158Y-16728960D01*
X4364158Y-16728960D02*
X4345110Y-16738484D01*
X4345110Y-16738484D02*
X4326063Y-16738484D01*
X4326063Y-16738484D02*
X4307015Y-16728960D01*
X4307015Y-16728960D02*
X4297491Y-16719436D01*
X4297491Y-16719436D02*
X4287967Y-16700388D01*
X4287967Y-16700388D02*
X4278444Y-16662293D01*
X4278444Y-16662293D02*
X4278444Y-16614674D01*
X4278444Y-16614674D02*
X4287967Y-16576579D01*
X4287967Y-16576579D02*
X4297491Y-16557531D01*
X4297491Y-16557531D02*
X4307015Y-16548008D01*
X4307015Y-16548008D02*
X4326063Y-16538484D01*
X4516539Y-16538484D02*
X4535586Y-16538484D01*
X4535586Y-16538484D02*
X4554634Y-16548008D01*
X4554634Y-16548008D02*
X4564158Y-16557531D01*
X4564158Y-16557531D02*
X4573682Y-16576579D01*
X4573682Y-16576579D02*
X4583205Y-16614674D01*
X4583205Y-16614674D02*
X4583205Y-16662293D01*
X4583205Y-16662293D02*
X4573682Y-16700388D01*
X4573682Y-16700388D02*
X4564158Y-16719436D01*
X4564158Y-16719436D02*
X4554634Y-16728960D01*
X4554634Y-16728960D02*
X4535586Y-16738484D01*
X4535586Y-16738484D02*
X4516539Y-16738484D01*
X4516539Y-16738484D02*
X4497491Y-16728960D01*
X4497491Y-16728960D02*
X4487967Y-16719436D01*
X4487967Y-16719436D02*
X4478444Y-16700388D01*
X4478444Y-16700388D02*
X4468920Y-16662293D01*
X4468920Y-16662293D02*
X4468920Y-16614674D01*
X4468920Y-16614674D02*
X4478444Y-16576579D01*
X4478444Y-16576579D02*
X4487967Y-16557531D01*
X4487967Y-16557531D02*
X4497491Y-16548008D01*
X4497491Y-16548008D02*
X4516539Y-16538484D01*
X4668920Y-16738484D02*
X4668920Y-16605150D01*
X4668920Y-16624198D02*
X4678444Y-16614674D01*
X4678444Y-16614674D02*
X4697491Y-16605150D01*
X4697491Y-16605150D02*
X4726063Y-16605150D01*
X4726063Y-16605150D02*
X4745110Y-16614674D01*
X4745110Y-16614674D02*
X4754634Y-16633722D01*
X4754634Y-16633722D02*
X4754634Y-16738484D01*
X4754634Y-16633722D02*
X4764158Y-16614674D01*
X4764158Y-16614674D02*
X4783205Y-16605150D01*
X4783205Y-16605150D02*
X4811777Y-16605150D01*
X4811777Y-16605150D02*
X4830825Y-16614674D01*
X4830825Y-16614674D02*
X4840348Y-16633722D01*
X4840348Y-16633722D02*
X4840348Y-16738484D01*
X4935586Y-16738484D02*
X4935586Y-16605150D01*
X4935586Y-16624198D02*
X4945110Y-16614674D01*
X4945110Y-16614674D02*
X4964158Y-16605150D01*
X4964158Y-16605150D02*
X4992729Y-16605150D01*
X4992729Y-16605150D02*
X5011777Y-16614674D01*
X5011777Y-16614674D02*
X5021301Y-16633722D01*
X5021301Y-16633722D02*
X5021301Y-16738484D01*
X5021301Y-16633722D02*
X5030825Y-16614674D01*
X5030825Y-16614674D02*
X5049872Y-16605150D01*
X5049872Y-16605150D02*
X5078444Y-16605150D01*
X5078444Y-16605150D02*
X5097491Y-16614674D01*
X5097491Y-16614674D02*
X5107015Y-16633722D01*
X5107015Y-16633722D02*
X5107015Y-16738484D01*
X5497491Y-16528960D02*
X5326063Y-16786103D01*
X5754634Y-16538484D02*
X5773682Y-16538484D01*
X5773682Y-16538484D02*
X5792729Y-16548008D01*
X5792729Y-16548008D02*
X5802253Y-16557531D01*
X5802253Y-16557531D02*
X5811777Y-16576579D01*
X5811777Y-16576579D02*
X5821301Y-16614674D01*
X5821301Y-16614674D02*
X5821301Y-16662293D01*
X5821301Y-16662293D02*
X5811777Y-16700388D01*
X5811777Y-16700388D02*
X5802253Y-16719436D01*
X5802253Y-16719436D02*
X5792729Y-16728960D01*
X5792729Y-16728960D02*
X5773682Y-16738484D01*
X5773682Y-16738484D02*
X5754634Y-16738484D01*
X5754634Y-16738484D02*
X5735586Y-16728960D01*
X5735586Y-16728960D02*
X5726063Y-16719436D01*
X5726063Y-16719436D02*
X5716539Y-16700388D01*
X5716539Y-16700388D02*
X5707015Y-16662293D01*
X5707015Y-16662293D02*
X5707015Y-16614674D01*
X5707015Y-16614674D02*
X5716539Y-16576579D01*
X5716539Y-16576579D02*
X5726063Y-16557531D01*
X5726063Y-16557531D02*
X5735586Y-16548008D01*
X5735586Y-16548008D02*
X5754634Y-16538484D01*
X5907015Y-16719436D02*
X5916539Y-16728960D01*
X5916539Y-16728960D02*
X5907015Y-16738484D01*
X5907015Y-16738484D02*
X5897491Y-16728960D01*
X5897491Y-16728960D02*
X5907015Y-16719436D01*
X5907015Y-16719436D02*
X5907015Y-16738484D01*
X6107015Y-16738484D02*
X5992729Y-16738484D01*
X6049872Y-16738484D02*
X6049872Y-16538484D01*
X6049872Y-16538484D02*
X6030825Y-16567055D01*
X6030825Y-16567055D02*
X6011777Y-16586103D01*
X6011777Y-16586103D02*
X5992729Y-16595627D01*
X6183206Y-16557531D02*
X6192729Y-16548008D01*
X6192729Y-16548008D02*
X6211777Y-16538484D01*
X6211777Y-16538484D02*
X6259396Y-16538484D01*
X6259396Y-16538484D02*
X6278444Y-16548008D01*
X6278444Y-16548008D02*
X6287967Y-16557531D01*
X6287967Y-16557531D02*
X6297491Y-16576579D01*
X6297491Y-16576579D02*
X6297491Y-16595627D01*
X6297491Y-16595627D02*
X6287967Y-16624198D01*
X6287967Y-16624198D02*
X6173682Y-16738484D01*
X6173682Y-16738484D02*
X6297491Y-16738484D01*
X6468920Y-16538484D02*
X6430825Y-16538484D01*
X6430825Y-16538484D02*
X6411777Y-16548008D01*
X6411777Y-16548008D02*
X6402253Y-16557531D01*
X6402253Y-16557531D02*
X6383206Y-16586103D01*
X6383206Y-16586103D02*
X6373682Y-16624198D01*
X6373682Y-16624198D02*
X6373682Y-16700388D01*
X6373682Y-16700388D02*
X6383206Y-16719436D01*
X6383206Y-16719436D02*
X6392729Y-16728960D01*
X6392729Y-16728960D02*
X6411777Y-16738484D01*
X6411777Y-16738484D02*
X6449872Y-16738484D01*
X6449872Y-16738484D02*
X6468920Y-16728960D01*
X6468920Y-16728960D02*
X6478444Y-16719436D01*
X6478444Y-16719436D02*
X6487967Y-16700388D01*
X6487967Y-16700388D02*
X6487967Y-16652769D01*
X6487967Y-16652769D02*
X6478444Y-16633722D01*
X6478444Y-16633722D02*
X6468920Y-16624198D01*
X6468920Y-16624198D02*
X6449872Y-16614674D01*
X6449872Y-16614674D02*
X6411777Y-16614674D01*
X6411777Y-16614674D02*
X6392729Y-16624198D01*
X6392729Y-16624198D02*
X6383206Y-16633722D01*
X6383206Y-16633722D02*
X6373682Y-16652769D01*
X6611777Y-16538484D02*
X6630825Y-16538484D01*
X6630825Y-16538484D02*
X6649872Y-16548008D01*
X6649872Y-16548008D02*
X6659396Y-16557531D01*
X6659396Y-16557531D02*
X6668920Y-16576579D01*
X6668920Y-16576579D02*
X6678444Y-16614674D01*
X6678444Y-16614674D02*
X6678444Y-16662293D01*
X6678444Y-16662293D02*
X6668920Y-16700388D01*
X6668920Y-16700388D02*
X6659396Y-16719436D01*
X6659396Y-16719436D02*
X6649872Y-16728960D01*
X6649872Y-16728960D02*
X6630825Y-16738484D01*
X6630825Y-16738484D02*
X6611777Y-16738484D01*
X6611777Y-16738484D02*
X6592729Y-16728960D01*
X6592729Y-16728960D02*
X6583206Y-16719436D01*
X6583206Y-16719436D02*
X6573682Y-16700388D01*
X6573682Y-16700388D02*
X6564158Y-16662293D01*
X6564158Y-16662293D02*
X6564158Y-16614674D01*
X6564158Y-16614674D02*
X6573682Y-16576579D01*
X6573682Y-16576579D02*
X6583206Y-16557531D01*
X6583206Y-16557531D02*
X6592729Y-16548008D01*
X6592729Y-16548008D02*
X6611777Y-16538484D01*
X6754634Y-16538484D02*
X6754634Y-16576579D01*
X6830825Y-16538484D02*
X6830825Y-16576579D01*
X7126063Y-16814674D02*
X7116539Y-16805150D01*
X7116539Y-16805150D02*
X7097491Y-16776579D01*
X7097491Y-16776579D02*
X7087968Y-16757531D01*
X7087968Y-16757531D02*
X7078444Y-16728960D01*
X7078444Y-16728960D02*
X7068920Y-16681341D01*
X7068920Y-16681341D02*
X7068920Y-16643246D01*
X7068920Y-16643246D02*
X7078444Y-16595627D01*
X7078444Y-16595627D02*
X7087968Y-16567055D01*
X7087968Y-16567055D02*
X7097491Y-16548008D01*
X7097491Y-16548008D02*
X7116539Y-16519436D01*
X7116539Y-16519436D02*
X7126063Y-16509912D01*
X7307015Y-16738484D02*
X7192729Y-16738484D01*
X7249872Y-16738484D02*
X7249872Y-16538484D01*
X7249872Y-16538484D02*
X7230825Y-16567055D01*
X7230825Y-16567055D02*
X7211777Y-16586103D01*
X7211777Y-16586103D02*
X7192729Y-16595627D01*
X7545110Y-16738484D02*
X7545110Y-16538484D01*
X7630825Y-16738484D02*
X7630825Y-16633722D01*
X7630825Y-16633722D02*
X7621301Y-16614674D01*
X7621301Y-16614674D02*
X7602253Y-16605150D01*
X7602253Y-16605150D02*
X7573682Y-16605150D01*
X7573682Y-16605150D02*
X7554634Y-16614674D01*
X7554634Y-16614674D02*
X7545110Y-16624198D01*
X7754634Y-16738484D02*
X7735587Y-16728960D01*
X7735587Y-16728960D02*
X7726063Y-16719436D01*
X7726063Y-16719436D02*
X7716539Y-16700388D01*
X7716539Y-16700388D02*
X7716539Y-16643246D01*
X7716539Y-16643246D02*
X7726063Y-16624198D01*
X7726063Y-16624198D02*
X7735587Y-16614674D01*
X7735587Y-16614674D02*
X7754634Y-16605150D01*
X7754634Y-16605150D02*
X7783206Y-16605150D01*
X7783206Y-16605150D02*
X7802253Y-16614674D01*
X7802253Y-16614674D02*
X7811777Y-16624198D01*
X7811777Y-16624198D02*
X7821301Y-16643246D01*
X7821301Y-16643246D02*
X7821301Y-16700388D01*
X7821301Y-16700388D02*
X7811777Y-16719436D01*
X7811777Y-16719436D02*
X7802253Y-16728960D01*
X7802253Y-16728960D02*
X7783206Y-16738484D01*
X7783206Y-16738484D02*
X7754634Y-16738484D01*
X7935587Y-16738484D02*
X7916539Y-16728960D01*
X7916539Y-16728960D02*
X7907015Y-16709912D01*
X7907015Y-16709912D02*
X7907015Y-16538484D01*
X8087968Y-16728960D02*
X8068920Y-16738484D01*
X8068920Y-16738484D02*
X8030825Y-16738484D01*
X8030825Y-16738484D02*
X8011777Y-16728960D01*
X8011777Y-16728960D02*
X8002253Y-16709912D01*
X8002253Y-16709912D02*
X8002253Y-16633722D01*
X8002253Y-16633722D02*
X8011777Y-16614674D01*
X8011777Y-16614674D02*
X8030825Y-16605150D01*
X8030825Y-16605150D02*
X8068920Y-16605150D01*
X8068920Y-16605150D02*
X8087968Y-16614674D01*
X8087968Y-16614674D02*
X8097491Y-16633722D01*
X8097491Y-16633722D02*
X8097491Y-16652769D01*
X8097491Y-16652769D02*
X8002253Y-16671817D01*
X8164158Y-16814674D02*
X8173682Y-16805150D01*
X8173682Y-16805150D02*
X8192730Y-16776579D01*
X8192730Y-16776579D02*
X8202253Y-16757531D01*
X8202253Y-16757531D02*
X8211777Y-16728960D01*
X8211777Y-16728960D02*
X8221301Y-16681341D01*
X8221301Y-16681341D02*
X8221301Y-16643246D01*
X8221301Y-16643246D02*
X8211777Y-16595627D01*
X8211777Y-16595627D02*
X8202253Y-16567055D01*
X8202253Y-16567055D02*
X8192730Y-16548008D01*
X8192730Y-16548008D02*
X8173682Y-16519436D01*
X8173682Y-16519436D02*
X8164158Y-16509912D01*
X8526063Y-16814674D02*
X8516539Y-16805150D01*
X8516539Y-16805150D02*
X8497492Y-16776579D01*
X8497492Y-16776579D02*
X8487968Y-16757531D01*
X8487968Y-16757531D02*
X8478444Y-16728960D01*
X8478444Y-16728960D02*
X8468920Y-16681341D01*
X8468920Y-16681341D02*
X8468920Y-16643246D01*
X8468920Y-16643246D02*
X8478444Y-16595627D01*
X8478444Y-16595627D02*
X8487968Y-16567055D01*
X8487968Y-16567055D02*
X8497492Y-16548008D01*
X8497492Y-16548008D02*
X8516539Y-16519436D01*
X8516539Y-16519436D02*
X8526063Y-16509912D01*
X8602253Y-16605150D02*
X8602253Y-16738484D01*
X8602253Y-16624198D02*
X8611777Y-16614674D01*
X8611777Y-16614674D02*
X8630825Y-16605150D01*
X8630825Y-16605150D02*
X8659396Y-16605150D01*
X8659396Y-16605150D02*
X8678444Y-16614674D01*
X8678444Y-16614674D02*
X8687968Y-16633722D01*
X8687968Y-16633722D02*
X8687968Y-16738484D01*
X8811777Y-16738484D02*
X8792730Y-16728960D01*
X8792730Y-16728960D02*
X8783206Y-16719436D01*
X8783206Y-16719436D02*
X8773682Y-16700388D01*
X8773682Y-16700388D02*
X8773682Y-16643246D01*
X8773682Y-16643246D02*
X8783206Y-16624198D01*
X8783206Y-16624198D02*
X8792730Y-16614674D01*
X8792730Y-16614674D02*
X8811777Y-16605150D01*
X8811777Y-16605150D02*
X8840349Y-16605150D01*
X8840349Y-16605150D02*
X8859396Y-16614674D01*
X8859396Y-16614674D02*
X8868920Y-16624198D01*
X8868920Y-16624198D02*
X8878444Y-16643246D01*
X8878444Y-16643246D02*
X8878444Y-16700388D01*
X8878444Y-16700388D02*
X8868920Y-16719436D01*
X8868920Y-16719436D02*
X8859396Y-16728960D01*
X8859396Y-16728960D02*
X8840349Y-16738484D01*
X8840349Y-16738484D02*
X8811777Y-16738484D01*
X8935587Y-16605150D02*
X9011777Y-16605150D01*
X8964158Y-16538484D02*
X8964158Y-16709912D01*
X8964158Y-16709912D02*
X8973682Y-16728960D01*
X8973682Y-16728960D02*
X8992730Y-16738484D01*
X8992730Y-16738484D02*
X9011777Y-16738484D01*
X9230825Y-16605150D02*
X9230825Y-16805150D01*
X9230825Y-16614674D02*
X9249873Y-16605150D01*
X9249873Y-16605150D02*
X9287968Y-16605150D01*
X9287968Y-16605150D02*
X9307015Y-16614674D01*
X9307015Y-16614674D02*
X9316539Y-16624198D01*
X9316539Y-16624198D02*
X9326063Y-16643246D01*
X9326063Y-16643246D02*
X9326063Y-16700388D01*
X9326063Y-16700388D02*
X9316539Y-16719436D01*
X9316539Y-16719436D02*
X9307015Y-16728960D01*
X9307015Y-16728960D02*
X9287968Y-16738484D01*
X9287968Y-16738484D02*
X9249873Y-16738484D01*
X9249873Y-16738484D02*
X9230825Y-16728960D01*
X9440349Y-16738484D02*
X9421301Y-16728960D01*
X9421301Y-16728960D02*
X9411777Y-16709912D01*
X9411777Y-16709912D02*
X9411777Y-16538484D01*
X9602254Y-16738484D02*
X9602254Y-16633722D01*
X9602254Y-16633722D02*
X9592730Y-16614674D01*
X9592730Y-16614674D02*
X9573682Y-16605150D01*
X9573682Y-16605150D02*
X9535587Y-16605150D01*
X9535587Y-16605150D02*
X9516539Y-16614674D01*
X9602254Y-16728960D02*
X9583206Y-16738484D01*
X9583206Y-16738484D02*
X9535587Y-16738484D01*
X9535587Y-16738484D02*
X9516539Y-16728960D01*
X9516539Y-16728960D02*
X9507015Y-16709912D01*
X9507015Y-16709912D02*
X9507015Y-16690865D01*
X9507015Y-16690865D02*
X9516539Y-16671817D01*
X9516539Y-16671817D02*
X9535587Y-16662293D01*
X9535587Y-16662293D02*
X9583206Y-16662293D01*
X9583206Y-16662293D02*
X9602254Y-16652769D01*
X9668920Y-16605150D02*
X9745111Y-16605150D01*
X9697492Y-16538484D02*
X9697492Y-16709912D01*
X9697492Y-16709912D02*
X9707015Y-16728960D01*
X9707015Y-16728960D02*
X9726063Y-16738484D01*
X9726063Y-16738484D02*
X9745111Y-16738484D01*
X9887968Y-16728960D02*
X9868920Y-16738484D01*
X9868920Y-16738484D02*
X9830825Y-16738484D01*
X9830825Y-16738484D02*
X9811777Y-16728960D01*
X9811777Y-16728960D02*
X9802254Y-16709912D01*
X9802254Y-16709912D02*
X9802254Y-16633722D01*
X9802254Y-16633722D02*
X9811777Y-16614674D01*
X9811777Y-16614674D02*
X9830825Y-16605150D01*
X9830825Y-16605150D02*
X9868920Y-16605150D01*
X9868920Y-16605150D02*
X9887968Y-16614674D01*
X9887968Y-16614674D02*
X9897492Y-16633722D01*
X9897492Y-16633722D02*
X9897492Y-16652769D01*
X9897492Y-16652769D02*
X9802254Y-16671817D01*
X10068920Y-16738484D02*
X10068920Y-16538484D01*
X10068920Y-16728960D02*
X10049873Y-16738484D01*
X10049873Y-16738484D02*
X10011777Y-16738484D01*
X10011777Y-16738484D02*
X9992730Y-16728960D01*
X9992730Y-16728960D02*
X9983206Y-16719436D01*
X9983206Y-16719436D02*
X9973682Y-16700388D01*
X9973682Y-16700388D02*
X9973682Y-16643246D01*
X9973682Y-16643246D02*
X9983206Y-16624198D01*
X9983206Y-16624198D02*
X9992730Y-16614674D01*
X9992730Y-16614674D02*
X10011777Y-16605150D01*
X10011777Y-16605150D02*
X10049873Y-16605150D01*
X10049873Y-16605150D02*
X10068920Y-16614674D01*
X10145111Y-16814674D02*
X10154635Y-16805150D01*
X10154635Y-16805150D02*
X10173682Y-16776579D01*
X10173682Y-16776579D02*
X10183206Y-16757531D01*
X10183206Y-16757531D02*
X10192730Y-16728960D01*
X10192730Y-16728960D02*
X10202254Y-16681341D01*
X10202254Y-16681341D02*
X10202254Y-16643246D01*
X10202254Y-16643246D02*
X10192730Y-16595627D01*
X10192730Y-16595627D02*
X10183206Y-16567055D01*
X10183206Y-16567055D02*
X10173682Y-16548008D01*
X10173682Y-16548008D02*
X10154635Y-16519436D01*
X10154635Y-16519436D02*
X10145111Y-16509912D01*
M02*
