M48
; DRILL file {KiCad 7.0.7} date Tue Aug 22 15:23:46 2023
; FORMAT={-:-/ absolute / metric / decimal}
; #@! TF.CreationDate,2023-08-22T15:23:46-04:00
; #@! TF.GenerationSoftware,Kicad,Pcbnew,7.0.7
; #@! TF.FileFunction,Plated,1,2,PTH
FMAT,2
METRIC
; #@! TA.AperFunction,Plated,PTH,ComponentDrill
T1C0.500
; #@! TA.AperFunction,Plated,PTH,ComponentDrill
T2C0.800
; #@! TA.AperFunction,Plated,PTH,ComponentDrill
T3C0.900
; #@! TA.AperFunction,Plated,PTH,ComponentDrill
T4C1.000
; #@! TA.AperFunction,Plated,PTH,ComponentDrill
T5C1.092
; #@! TA.AperFunction,Plated,PTH,ComponentDrill
T6C1.800
; #@! TA.AperFunction,Plated,PTH,ComponentDrill
T7C3.200
%
G90
G05
T1
X39.51Y-143.51
X40.213Y-141.813
X40.213Y-145.207
X41.91Y-141.11
X41.91Y-145.91
X43.607Y-141.813
X43.607Y-145.207
X44.31Y-143.51
X59.83Y-41.91
X60.533Y-40.213
X60.533Y-43.607
X62.23Y-39.51
X62.23Y-44.31
X63.927Y-40.213
X63.927Y-43.607
X64.63Y-41.91
X110.63Y-41.91
X110.63Y-143.51
X111.333Y-40.213
X111.333Y-43.607
X111.333Y-141.813
X111.333Y-145.207
X113.03Y-39.51
X113.03Y-44.31
X113.03Y-141.11
X113.03Y-145.91
X114.727Y-40.213
X114.727Y-43.607
X114.727Y-141.813
X114.727Y-145.207
X115.43Y-41.91
X115.43Y-143.51
X161.43Y-41.91
X162.133Y-40.213
X162.133Y-43.607
X163.83Y-39.51
X163.83Y-44.31
X165.527Y-40.213
X165.527Y-43.607
X166.23Y-41.91
X181.75Y-143.51
X182.453Y-141.813
X182.453Y-145.207
X184.15Y-141.11
X184.15Y-145.91
X185.847Y-141.813
X185.847Y-145.207
X186.55Y-143.51
T2
X52.07Y-54.562
X52.07Y-57.062
X52.07Y-128.27
X52.07Y-130.77
X72.39Y-54.65
X72.39Y-57.15
X72.39Y-128.358
X72.39Y-130.858
X92.71Y-54.562
X92.71Y-57.062
X92.71Y-128.27
X92.71Y-130.77
X113.03Y-54.562
X113.03Y-57.062
X113.03Y-128.358
X113.03Y-130.858
X133.35Y-54.562
X133.35Y-57.062
X133.35Y-128.358
X133.35Y-130.858
X153.67Y-54.562
X153.67Y-57.062
X153.67Y-128.358
X153.67Y-130.858
X168.91Y-39.37
X168.91Y-44.45
X173.99Y-54.65
X173.99Y-57.15
X173.99Y-128.27
X173.99Y-130.77
X179.07Y-39.37
X179.07Y-44.45
T3
X182.875Y-39.37
X182.875Y-44.45
X185.415Y-39.37
X185.415Y-44.45
T4
X39.375Y-158.115
X41.915Y-158.115
X44.455Y-158.115
X46.995Y-158.115
X49.535Y-158.115
X52.075Y-158.115
X54.615Y-158.115
X57.155Y-158.115
X59.695Y-158.115
X62.235Y-158.115
X64.775Y-158.115
X67.315Y-158.115
X69.855Y-158.115
X72.395Y-158.115
X74.935Y-158.115
X77.475Y-158.115
X80.015Y-158.115
X82.555Y-158.115
X85.095Y-158.115
X87.635Y-158.115
X90.175Y-158.115
X92.715Y-158.115
X95.255Y-158.115
X97.795Y-158.115
X100.335Y-158.115
X102.875Y-158.115
X105.415Y-158.115
X107.955Y-158.115
X110.495Y-158.115
X113.035Y-158.115
X115.575Y-158.115
X118.115Y-158.115
X120.655Y-158.115
X123.195Y-158.115
X125.735Y-158.115
X128.275Y-158.115
X130.815Y-158.115
X133.355Y-158.115
X135.895Y-158.115
X138.435Y-158.115
X143.525Y-158.115
X146.065Y-158.115
X148.295Y-39.37
X148.295Y-41.91
X148.295Y-44.45
X148.605Y-158.115
X151.145Y-158.115
X153.685Y-158.115
X156.225Y-158.115
X158.765Y-158.115
X161.305Y-158.115
X163.845Y-158.115
X166.385Y-158.115
X168.925Y-158.115
X171.465Y-158.115
X174.005Y-158.115
X176.545Y-158.115
X179.085Y-158.115
X181.625Y-158.115
X184.165Y-158.115
X186.705Y-158.115
T5
X39.37Y-54.61
X39.37Y-57.15
X39.37Y-59.69
X39.37Y-62.23
X39.37Y-64.77
X39.37Y-67.31
X39.37Y-69.85
X39.37Y-72.39
X39.37Y-74.93
X39.37Y-77.47
X39.37Y-80.01
X39.37Y-82.55
X39.37Y-85.09
X39.37Y-87.63
X39.37Y-90.17
X39.37Y-92.71
X39.37Y-95.25
X39.37Y-97.79
X39.37Y-100.33
X39.37Y-102.87
X39.37Y-105.41
X39.37Y-107.95
X39.37Y-110.49
X39.37Y-113.03
X39.37Y-115.57
X39.37Y-118.11
X39.37Y-120.65
X39.37Y-123.19
X39.37Y-125.73
X39.37Y-128.27
X39.37Y-130.81
X44.45Y-54.61
X44.45Y-57.15
X44.45Y-59.69
X44.45Y-62.23
X44.45Y-64.77
X44.45Y-67.31
X44.45Y-69.85
X44.45Y-72.39
X44.45Y-74.93
X44.45Y-77.47
X44.45Y-80.01
X44.45Y-82.55
X44.45Y-85.09
X44.45Y-87.63
X44.45Y-90.17
X44.45Y-92.71
X44.45Y-95.25
X44.45Y-97.79
X44.45Y-100.33
X44.45Y-102.87
X44.45Y-105.41
X44.45Y-107.95
X44.45Y-110.49
X44.45Y-113.03
X44.45Y-115.57
X44.45Y-118.11
X44.45Y-120.65
X44.45Y-123.19
X44.45Y-125.73
X44.45Y-128.27
X44.45Y-130.81
X59.69Y-54.61
X59.69Y-57.15
X59.69Y-59.69
X59.69Y-62.23
X59.69Y-64.77
X59.69Y-67.31
X59.69Y-69.85
X59.69Y-72.39
X59.69Y-74.93
X59.69Y-77.47
X59.69Y-80.01
X59.69Y-82.55
X59.69Y-85.09
X59.69Y-87.63
X59.69Y-90.17
X59.69Y-92.71
X59.69Y-95.25
X59.69Y-97.79
X59.69Y-100.33
X59.69Y-102.87
X59.69Y-105.41
X59.69Y-107.95
X59.69Y-110.49
X59.69Y-113.03
X59.69Y-115.57
X59.69Y-118.11
X59.69Y-120.65
X59.69Y-123.19
X59.69Y-125.73
X59.69Y-128.27
X59.69Y-130.81
X64.77Y-54.61
X64.77Y-57.15
X64.77Y-59.69
X64.77Y-62.23
X64.77Y-64.77
X64.77Y-67.31
X64.77Y-69.85
X64.77Y-72.39
X64.77Y-74.93
X64.77Y-77.47
X64.77Y-80.01
X64.77Y-82.55
X64.77Y-85.09
X64.77Y-87.63
X64.77Y-90.17
X64.77Y-92.71
X64.77Y-95.25
X64.77Y-97.79
X64.77Y-100.33
X64.77Y-102.87
X64.77Y-105.41
X64.77Y-107.95
X64.77Y-110.49
X64.77Y-113.03
X64.77Y-115.57
X64.77Y-118.11
X64.77Y-120.65
X64.77Y-123.19
X64.77Y-125.73
X64.77Y-128.27
X64.77Y-130.81
X80.01Y-54.61
X80.01Y-57.15
X80.01Y-59.69
X80.01Y-62.23
X80.01Y-64.77
X80.01Y-67.31
X80.01Y-69.85
X80.01Y-72.39
X80.01Y-74.93
X80.01Y-77.47
X80.01Y-80.01
X80.01Y-82.55
X80.01Y-85.09
X80.01Y-87.63
X80.01Y-90.17
X80.01Y-92.71
X80.01Y-95.25
X80.01Y-97.79
X80.01Y-100.33
X80.01Y-102.87
X80.01Y-105.41
X80.01Y-107.95
X80.01Y-110.49
X80.01Y-113.03
X80.01Y-115.57
X80.01Y-118.11
X80.01Y-120.65
X80.01Y-123.19
X80.01Y-125.73
X80.01Y-128.27
X80.01Y-130.81
X85.09Y-54.61
X85.09Y-57.15
X85.09Y-59.69
X85.09Y-62.23
X85.09Y-64.77
X85.09Y-67.31
X85.09Y-69.85
X85.09Y-72.39
X85.09Y-74.93
X85.09Y-77.47
X85.09Y-80.01
X85.09Y-82.55
X85.09Y-85.09
X85.09Y-87.63
X85.09Y-90.17
X85.09Y-92.71
X85.09Y-95.25
X85.09Y-97.79
X85.09Y-100.33
X85.09Y-102.87
X85.09Y-105.41
X85.09Y-107.95
X85.09Y-110.49
X85.09Y-113.03
X85.09Y-115.57
X85.09Y-118.11
X85.09Y-120.65
X85.09Y-123.19
X85.09Y-125.73
X85.09Y-128.27
X85.09Y-130.81
X100.33Y-54.61
X100.33Y-57.15
X100.33Y-59.69
X100.33Y-62.23
X100.33Y-64.77
X100.33Y-67.31
X100.33Y-69.85
X100.33Y-72.39
X100.33Y-74.93
X100.33Y-77.47
X100.33Y-80.01
X100.33Y-82.55
X100.33Y-85.09
X100.33Y-87.63
X100.33Y-90.17
X100.33Y-92.71
X100.33Y-95.25
X100.33Y-97.79
X100.33Y-100.33
X100.33Y-102.87
X100.33Y-105.41
X100.33Y-107.95
X100.33Y-110.49
X100.33Y-113.03
X100.33Y-115.57
X100.33Y-118.11
X100.33Y-120.65
X100.33Y-123.19
X100.33Y-125.73
X100.33Y-128.27
X100.33Y-130.81
X105.41Y-54.61
X105.41Y-57.15
X105.41Y-59.69
X105.41Y-62.23
X105.41Y-64.77
X105.41Y-67.31
X105.41Y-69.85
X105.41Y-72.39
X105.41Y-74.93
X105.41Y-77.47
X105.41Y-80.01
X105.41Y-82.55
X105.41Y-85.09
X105.41Y-87.63
X105.41Y-90.17
X105.41Y-92.71
X105.41Y-95.25
X105.41Y-97.79
X105.41Y-100.33
X105.41Y-102.87
X105.41Y-105.41
X105.41Y-107.95
X105.41Y-110.49
X105.41Y-113.03
X105.41Y-115.57
X105.41Y-118.11
X105.41Y-120.65
X105.41Y-123.19
X105.41Y-125.73
X105.41Y-128.27
X105.41Y-130.81
X120.65Y-54.61
X120.65Y-57.15
X120.65Y-59.69
X120.65Y-62.23
X120.65Y-64.77
X120.65Y-67.31
X120.65Y-69.85
X120.65Y-72.39
X120.65Y-74.93
X120.65Y-77.47
X120.65Y-80.01
X120.65Y-82.55
X120.65Y-85.09
X120.65Y-87.63
X120.65Y-90.17
X120.65Y-92.71
X120.65Y-95.25
X120.65Y-97.79
X120.65Y-100.33
X120.65Y-102.87
X120.65Y-105.41
X120.65Y-107.95
X120.65Y-110.49
X120.65Y-113.03
X120.65Y-115.57
X120.65Y-118.11
X120.65Y-120.65
X120.65Y-123.19
X120.65Y-125.73
X120.65Y-128.27
X120.65Y-130.81
X125.73Y-54.61
X125.73Y-57.15
X125.73Y-59.69
X125.73Y-62.23
X125.73Y-64.77
X125.73Y-67.31
X125.73Y-69.85
X125.73Y-72.39
X125.73Y-74.93
X125.73Y-77.47
X125.73Y-80.01
X125.73Y-82.55
X125.73Y-85.09
X125.73Y-87.63
X125.73Y-90.17
X125.73Y-92.71
X125.73Y-95.25
X125.73Y-97.79
X125.73Y-100.33
X125.73Y-102.87
X125.73Y-105.41
X125.73Y-107.95
X125.73Y-110.49
X125.73Y-113.03
X125.73Y-115.57
X125.73Y-118.11
X125.73Y-120.65
X125.73Y-123.19
X125.73Y-125.73
X125.73Y-128.27
X125.73Y-130.81
X140.97Y-54.61
X140.97Y-57.15
X140.97Y-59.69
X140.97Y-62.23
X140.97Y-64.77
X140.97Y-67.31
X140.97Y-69.85
X140.97Y-72.39
X140.97Y-74.93
X140.97Y-77.47
X140.97Y-80.01
X140.97Y-82.55
X140.97Y-85.09
X140.97Y-87.63
X140.97Y-90.17
X140.97Y-92.71
X140.97Y-95.25
X140.97Y-97.79
X140.97Y-100.33
X140.97Y-102.87
X140.97Y-105.41
X140.97Y-107.95
X140.97Y-110.49
X140.97Y-113.03
X140.97Y-115.57
X140.97Y-118.11
X140.97Y-120.65
X140.97Y-123.19
X140.97Y-125.73
X140.97Y-128.27
X140.97Y-130.81
X146.05Y-54.61
X146.05Y-57.15
X146.05Y-59.69
X146.05Y-62.23
X146.05Y-64.77
X146.05Y-67.31
X146.05Y-69.85
X146.05Y-72.39
X146.05Y-74.93
X146.05Y-77.47
X146.05Y-80.01
X146.05Y-82.55
X146.05Y-85.09
X146.05Y-87.63
X146.05Y-90.17
X146.05Y-92.71
X146.05Y-95.25
X146.05Y-97.79
X146.05Y-100.33
X146.05Y-102.87
X146.05Y-105.41
X146.05Y-107.95
X146.05Y-110.49
X146.05Y-113.03
X146.05Y-115.57
X146.05Y-118.11
X146.05Y-120.65
X146.05Y-123.19
X146.05Y-125.73
X146.05Y-128.27
X146.05Y-130.81
X161.29Y-54.61
X161.29Y-57.15
X161.29Y-59.69
X161.29Y-62.23
X161.29Y-64.77
X161.29Y-67.31
X161.29Y-69.85
X161.29Y-72.39
X161.29Y-74.93
X161.29Y-77.47
X161.29Y-80.01
X161.29Y-82.55
X161.29Y-85.09
X161.29Y-87.63
X161.29Y-90.17
X161.29Y-92.71
X161.29Y-95.25
X161.29Y-97.79
X161.29Y-100.33
X161.29Y-102.87
X161.29Y-105.41
X161.29Y-107.95
X161.29Y-110.49
X161.29Y-113.03
X161.29Y-115.57
X161.29Y-118.11
X161.29Y-120.65
X161.29Y-123.19
X161.29Y-125.73
X161.29Y-128.27
X161.29Y-130.81
X166.37Y-54.61
X166.37Y-57.15
X166.37Y-59.69
X166.37Y-62.23
X166.37Y-64.77
X166.37Y-67.31
X166.37Y-69.85
X166.37Y-72.39
X166.37Y-74.93
X166.37Y-77.47
X166.37Y-80.01
X166.37Y-82.55
X166.37Y-85.09
X166.37Y-87.63
X166.37Y-90.17
X166.37Y-92.71
X166.37Y-95.25
X166.37Y-97.79
X166.37Y-100.33
X166.37Y-102.87
X166.37Y-105.41
X166.37Y-107.95
X166.37Y-110.49
X166.37Y-113.03
X166.37Y-115.57
X166.37Y-118.11
X166.37Y-120.65
X166.37Y-123.19
X166.37Y-125.73
X166.37Y-128.27
X166.37Y-130.81
X181.61Y-54.61
X181.61Y-57.15
X181.61Y-59.69
X181.61Y-62.23
X181.61Y-64.77
X181.61Y-67.31
X181.61Y-69.85
X181.61Y-72.39
X181.61Y-74.93
X181.61Y-77.47
X181.61Y-80.01
X181.61Y-82.55
X181.61Y-85.09
X181.61Y-87.63
X181.61Y-90.17
X181.61Y-92.71
X181.61Y-95.25
X181.61Y-97.79
X181.61Y-100.33
X181.61Y-102.87
X181.61Y-105.41
X181.61Y-107.95
X181.61Y-110.49
X181.61Y-113.03
X181.61Y-115.57
X181.61Y-118.11
X181.61Y-120.65
X181.61Y-123.19
X181.61Y-125.73
X181.61Y-128.27
X181.61Y-130.81
X186.69Y-54.61
X186.69Y-57.15
X186.69Y-59.69
X186.69Y-62.23
X186.69Y-64.77
X186.69Y-67.31
X186.69Y-69.85
X186.69Y-72.39
X186.69Y-74.93
X186.69Y-77.47
X186.69Y-80.01
X186.69Y-82.55
X186.69Y-85.09
X186.69Y-87.63
X186.69Y-90.17
X186.69Y-92.71
X186.69Y-95.25
X186.69Y-97.79
X186.69Y-100.33
X186.69Y-102.87
X186.69Y-105.41
X186.69Y-107.95
X186.69Y-110.49
X186.69Y-113.03
X186.69Y-115.57
X186.69Y-118.11
X186.69Y-120.65
X186.69Y-123.19
X186.69Y-125.73
X186.69Y-128.27
X186.69Y-130.81
T6
X43.815Y-39.75
X43.815Y-44.83
X56.515Y-37.59
X56.515Y-42.29
X56.515Y-46.99
T7
X41.91Y-143.51
X62.23Y-41.91
X113.03Y-41.91
X113.03Y-143.51
X163.83Y-41.91
X184.15Y-143.51
T4
X67.632Y-45.434G85X67.632Y-47.434
G05
X73.331Y-43.434G85X71.331Y-43.434
G05
X73.331Y-49.434G85X71.331Y-49.434
G05
T0
M30
