%TF.GenerationSoftware,KiCad,Pcbnew,7.0.7*%
%TF.CreationDate,2023-08-22T19:55:53-04:00*%
%TF.ProjectId,3 - CPU and memory,33202d20-4350-4552-9061-6e64206d656d,1*%
%TF.SameCoordinates,Original*%
%TF.FileFunction,Drillmap*%
%TF.FilePolarity,Positive*%
%FSLAX45Y45*%
G04 Gerber Fmt 4.5, Leading zero omitted, Abs format (unit mm)*
G04 Created by KiCad (PCBNEW 7.0.7) date 2023-08-22 19:55:53*
%MOMM*%
%LPD*%
G01*
G04 APERTURE LIST*
%ADD10C,0.200000*%
G04 APERTURE END LIST*
D10*
X8615177Y-14367684D02*
X8615177Y-14167684D01*
X8615177Y-14167684D02*
X8662796Y-14167684D01*
X8662796Y-14167684D02*
X8691367Y-14177208D01*
X8691367Y-14177208D02*
X8710415Y-14196255D01*
X8710415Y-14196255D02*
X8719939Y-14215303D01*
X8719939Y-14215303D02*
X8729463Y-14253398D01*
X8729463Y-14253398D02*
X8729463Y-14281969D01*
X8729463Y-14281969D02*
X8719939Y-14320065D01*
X8719939Y-14320065D02*
X8710415Y-14339112D01*
X8710415Y-14339112D02*
X8691367Y-14358160D01*
X8691367Y-14358160D02*
X8662796Y-14367684D01*
X8662796Y-14367684D02*
X8615177Y-14367684D01*
X8815177Y-14367684D02*
X8815177Y-14234350D01*
X8815177Y-14272446D02*
X8824701Y-14253398D01*
X8824701Y-14253398D02*
X8834224Y-14243874D01*
X8834224Y-14243874D02*
X8853272Y-14234350D01*
X8853272Y-14234350D02*
X8872320Y-14234350D01*
X8938986Y-14367684D02*
X8938986Y-14234350D01*
X8938986Y-14167684D02*
X8929463Y-14177208D01*
X8929463Y-14177208D02*
X8938986Y-14186731D01*
X8938986Y-14186731D02*
X8948510Y-14177208D01*
X8948510Y-14177208D02*
X8938986Y-14167684D01*
X8938986Y-14167684D02*
X8938986Y-14186731D01*
X9062796Y-14367684D02*
X9043748Y-14358160D01*
X9043748Y-14358160D02*
X9034224Y-14339112D01*
X9034224Y-14339112D02*
X9034224Y-14167684D01*
X9167558Y-14367684D02*
X9148510Y-14358160D01*
X9148510Y-14358160D02*
X9138986Y-14339112D01*
X9138986Y-14339112D02*
X9138986Y-14167684D01*
X9396129Y-14367684D02*
X9396129Y-14167684D01*
X9396129Y-14167684D02*
X9462796Y-14310541D01*
X9462796Y-14310541D02*
X9529463Y-14167684D01*
X9529463Y-14167684D02*
X9529463Y-14367684D01*
X9710415Y-14367684D02*
X9710415Y-14262922D01*
X9710415Y-14262922D02*
X9700891Y-14243874D01*
X9700891Y-14243874D02*
X9681844Y-14234350D01*
X9681844Y-14234350D02*
X9643748Y-14234350D01*
X9643748Y-14234350D02*
X9624701Y-14243874D01*
X9710415Y-14358160D02*
X9691367Y-14367684D01*
X9691367Y-14367684D02*
X9643748Y-14367684D01*
X9643748Y-14367684D02*
X9624701Y-14358160D01*
X9624701Y-14358160D02*
X9615177Y-14339112D01*
X9615177Y-14339112D02*
X9615177Y-14320065D01*
X9615177Y-14320065D02*
X9624701Y-14301017D01*
X9624701Y-14301017D02*
X9643748Y-14291493D01*
X9643748Y-14291493D02*
X9691367Y-14291493D01*
X9691367Y-14291493D02*
X9710415Y-14281969D01*
X9805653Y-14234350D02*
X9805653Y-14434350D01*
X9805653Y-14243874D02*
X9824701Y-14234350D01*
X9824701Y-14234350D02*
X9862796Y-14234350D01*
X9862796Y-14234350D02*
X9881844Y-14243874D01*
X9881844Y-14243874D02*
X9891367Y-14253398D01*
X9891367Y-14253398D02*
X9900891Y-14272446D01*
X9900891Y-14272446D02*
X9900891Y-14329588D01*
X9900891Y-14329588D02*
X9891367Y-14348636D01*
X9891367Y-14348636D02*
X9881844Y-14358160D01*
X9881844Y-14358160D02*
X9862796Y-14367684D01*
X9862796Y-14367684D02*
X9824701Y-14367684D01*
X9824701Y-14367684D02*
X9805653Y-14358160D01*
X9986605Y-14348636D02*
X9996129Y-14358160D01*
X9996129Y-14358160D02*
X9986605Y-14367684D01*
X9986605Y-14367684D02*
X9977082Y-14358160D01*
X9977082Y-14358160D02*
X9986605Y-14348636D01*
X9986605Y-14348636D02*
X9986605Y-14367684D01*
X9986605Y-14243874D02*
X9996129Y-14253398D01*
X9996129Y-14253398D02*
X9986605Y-14262922D01*
X9986605Y-14262922D02*
X9977082Y-14253398D01*
X9977082Y-14253398D02*
X9986605Y-14243874D01*
X9986605Y-14243874D02*
X9986605Y-14262922D01*
M02*
