M48
; DRILL file {KiCad 7.0.7} date Tue Aug 22 19:55:51 2023
; FORMAT={-:-/ absolute / metric / decimal}
; #@! TF.CreationDate,2023-08-22T19:55:51-04:00
; #@! TF.GenerationSoftware,Kicad,Pcbnew,7.0.7
; #@! TF.FileFunction,Plated,1,2,PTH
FMAT,2
METRIC
; #@! TA.AperFunction,Plated,PTH,ViaDrill
T1C0.400
; #@! TA.AperFunction,Plated,PTH,ComponentDrill
T2C0.800
; #@! TA.AperFunction,Plated,PTH,ComponentDrill
T3C0.900
%
G90
G05
T1
X94.615Y-95.885
X94.964Y-132.148
X102.905Y-106.983
X103.182Y-112.65
X105.766Y-110.715
X108.209Y-121.859
X109.539Y-91.188
X109.855Y-65.405
X113.284Y-94.879
X114.364Y-91.188
X115.57Y-65.405
X115.824Y-118.11
X115.824Y-131.98
X116.521Y-90.699
X118.344Y-115.59
X122.808Y-126.19
X124.663Y-127.449
X126.652Y-127.723
X127.772Y-126.95
X128.495Y-91.639
X128.524Y-69.85
X128.524Y-93.98
X128.831Y-106.509
X130.596Y-127.313
X130.921Y-102.828
X131.074Y-119.692
X131.127Y-103.828
X131.654Y-91.458
X133.107Y-114.621
X133.92Y-131.298
X135.128Y-86.614
X135.255Y-101.6
X135.89Y-60.96
X135.89Y-78.74
X138.942Y-120.459
X139.304Y-116.24
X139.313Y-118.392
X140.179Y-131.421
X142.236Y-116.276
X143.575Y-109.663
X143.625Y-121.643
X143.715Y-118.868
X144.422Y-127.915
X144.433Y-118.108
X144.583Y-131.28
X145.137Y-109.63
X146.32Y-131.275
X148.165Y-127.855
X148.188Y-131.865
X148.268Y-123.407
X148.687Y-119.774
X149.468Y-119.003
X149.468Y-98.107
X149.608Y-110.456
X149.86Y-59.69
X149.966Y-132.027
X149.972Y-108.292
X151.071Y-122.823
X152.237Y-93.419
X152.796Y-131.426
X153.305Y-104.049
X153.863Y-131.352
X153.958Y-102.264
X154.024Y-100.471
X155.786Y-121.139
X157.392Y-76.934
X158.113Y-113.022
X159.422Y-116.24
X161.322Y-78.325
X163.322Y-132.059
X163.898Y-131.202
X164.398Y-76.352
X165.475Y-106.72
X167.715Y-131.663
X169.164Y-132.17
T2
X87.376Y-67.33
X87.376Y-69.83
X87.376Y-91.44
X87.376Y-93.94
X87.376Y-115.59
X87.376Y-118.09
X88.9Y-51.816
X90.424Y-60.965
X90.424Y-76.205
X90.424Y-85.07
X90.424Y-100.31
X90.429Y-109.225
X90.429Y-124.465
X92.964Y-60.965
X92.964Y-76.205
X92.964Y-85.07
X92.964Y-100.31
X92.969Y-109.225
X92.969Y-124.465
X95.504Y-55.118
X95.504Y-60.965
X95.504Y-76.205
X95.504Y-85.07
X95.504Y-100.31
X95.509Y-109.225
X95.509Y-124.465
X98.044Y-60.965
X98.044Y-76.205
X98.044Y-85.07
X98.044Y-100.31
X98.049Y-109.225
X98.049Y-124.465
X99.06Y-51.816
X100.584Y-60.965
X100.584Y-76.205
X100.584Y-85.07
X100.584Y-100.31
X100.589Y-109.225
X100.589Y-124.465
X102.108Y-51.816
X103.124Y-60.965
X103.124Y-76.205
X103.124Y-85.07
X103.124Y-100.31
X103.129Y-109.225
X103.129Y-124.465
X105.664Y-55.118
X105.664Y-60.965
X105.664Y-76.205
X105.664Y-85.07
X105.664Y-100.31
X105.669Y-109.225
X105.669Y-124.465
X108.204Y-60.965
X108.204Y-76.205
X108.204Y-85.07
X108.204Y-100.31
X108.209Y-109.225
X108.209Y-124.465
X108.712Y-55.118
X110.744Y-60.965
X110.744Y-76.205
X110.744Y-85.07
X110.744Y-100.31
X110.749Y-109.225
X110.749Y-124.465
X112.268Y-51.816
X113.284Y-60.965
X113.284Y-76.205
X113.284Y-85.07
X113.284Y-100.31
X113.289Y-109.225
X113.289Y-124.465
X115.316Y-51.816
X115.824Y-60.965
X115.824Y-76.205
X115.824Y-85.07
X115.824Y-100.31
X115.829Y-109.225
X115.829Y-124.465
X118.364Y-60.965
X118.364Y-76.205
X118.364Y-85.07
X118.364Y-100.31
X118.369Y-109.225
X118.369Y-124.465
X118.872Y-55.118
X120.904Y-60.965
X120.904Y-76.205
X120.904Y-85.07
X120.904Y-100.31
X120.909Y-109.225
X120.909Y-124.465
X121.92Y-55.118
X123.444Y-60.965
X123.444Y-76.205
X123.444Y-85.07
X123.444Y-100.31
X123.449Y-109.225
X123.449Y-124.465
X125.476Y-51.816
X125.984Y-60.965
X125.984Y-76.205
X125.984Y-85.07
X125.984Y-100.31
X125.989Y-109.225
X125.989Y-124.465
X128.524Y-51.816
X128.524Y-60.965
X128.524Y-76.205
X128.524Y-85.07
X128.524Y-100.31
X128.529Y-109.225
X128.529Y-124.465
X131.069Y-109.225
X131.069Y-124.465
X132.08Y-55.118
X133.609Y-109.225
X133.609Y-124.465
X135.128Y-55.118
X136.149Y-109.225
X136.149Y-124.465
X138.684Y-51.816
X138.689Y-109.225
X138.689Y-124.465
X138.694Y-60.955
X138.694Y-63.495
X138.694Y-66.035
X138.694Y-68.575
X138.694Y-71.115
X138.694Y-73.655
X138.694Y-76.195
X138.694Y-85.085
X138.694Y-87.625
X138.694Y-90.165
X138.694Y-92.705
X138.694Y-95.245
X138.694Y-97.785
X138.694Y-100.325
X141.244Y-79.248
X141.244Y-82.042
X141.732Y-51.816
X143.744Y-79.248
X143.744Y-82.042
X145.288Y-55.118
X146.304Y-111.974
X146.304Y-114.514
X146.304Y-117.054
X146.304Y-119.594
X146.304Y-122.134
X146.314Y-60.955
X146.314Y-63.495
X146.314Y-66.035
X146.314Y-68.575
X146.314Y-71.115
X146.314Y-73.655
X146.314Y-76.195
X146.314Y-85.085
X146.314Y-87.625
X146.314Y-90.165
X146.314Y-92.705
X146.314Y-95.245
X146.314Y-97.785
X146.314Y-100.325
X148.336Y-55.118
X151.892Y-51.816
X153.162Y-63.5
X153.162Y-66.0
X153.162Y-77.47
X153.162Y-79.97
X154.94Y-51.816
X156.21Y-74.9
X156.21Y-82.52
X156.215Y-60.93
X156.215Y-68.55
X158.252Y-105.47
X158.252Y-107.97
X158.252Y-119.41
X158.252Y-121.91
X158.496Y-55.118
X158.75Y-74.9
X158.75Y-82.52
X158.755Y-60.93
X158.755Y-68.55
X160.787Y-91.47
X160.787Y-93.97
X161.29Y-74.9
X161.29Y-82.52
X161.29Y-102.9
X161.29Y-110.52
X161.29Y-116.84
X161.29Y-124.46
X161.295Y-60.93
X161.295Y-68.55
X161.544Y-55.118
X163.83Y-74.9
X163.83Y-82.52
X163.83Y-88.9
X163.83Y-96.52
X163.83Y-102.9
X163.83Y-110.52
X163.83Y-116.84
X163.83Y-124.46
X163.835Y-60.93
X163.835Y-68.55
X165.1Y-51.816
X166.37Y-74.9
X166.37Y-82.52
X166.37Y-88.9
X166.37Y-96.52
X166.37Y-102.9
X166.37Y-110.52
X166.37Y-116.84
X166.37Y-124.46
X166.375Y-60.93
X166.375Y-68.55
X168.148Y-51.816
X168.91Y-74.9
X168.91Y-82.52
X168.91Y-88.9
X168.91Y-96.52
X168.91Y-102.9
X168.91Y-110.52
X168.91Y-116.84
X168.91Y-124.46
X168.915Y-60.93
X168.915Y-68.55
X171.45Y-74.9
X171.45Y-82.52
X171.45Y-88.9
X171.45Y-96.52
X171.45Y-102.9
X171.45Y-110.52
X171.45Y-116.84
X171.45Y-124.46
X171.455Y-60.93
X171.455Y-68.55
X171.704Y-55.118
X173.99Y-74.9
X173.99Y-82.52
X173.99Y-88.9
X173.99Y-96.52
X173.99Y-102.9
X173.99Y-110.52
X173.99Y-116.84
X173.99Y-124.46
X173.995Y-60.93
X173.995Y-68.55
X176.53Y-74.9
X176.53Y-82.52
X176.53Y-88.9
X176.53Y-96.52
X176.53Y-102.9
X176.53Y-110.52
X176.53Y-116.84
X176.53Y-124.46
X176.535Y-60.93
X176.535Y-68.55
X178.308Y-51.816
X179.07Y-74.9
X179.07Y-82.52
X179.07Y-88.9
X179.07Y-96.52
X179.07Y-102.9
X179.07Y-110.52
X179.07Y-116.84
X179.07Y-124.46
X179.075Y-60.93
X179.075Y-68.55
T3
X92.69Y-47.529
X95.23Y-47.529
X99.294Y-47.529
X101.834Y-47.529
X105.898Y-47.529
X108.438Y-47.529
X112.502Y-47.529
X115.042Y-47.529
X119.106Y-47.529
X121.646Y-47.529
X125.71Y-47.529
X128.25Y-47.529
X132.314Y-47.529
X134.854Y-47.529
X138.918Y-47.529
X141.458Y-47.529
X145.522Y-47.529
X148.062Y-47.529
X152.126Y-47.529
X154.666Y-47.529
X158.73Y-47.529
X161.27Y-47.529
X165.334Y-47.529
X167.874Y-47.529
X171.938Y-47.529
X174.478Y-47.529
T0
M30
