%TF.GenerationSoftware,KiCad,Pcbnew,7.0.7*%
%TF.CreationDate,2023-08-22T16:34:43-04:00*%
%TF.ProjectId,2 - Clock,32202d20-436c-46f6-936b-2e6b69636164,1.1*%
%TF.SameCoordinates,Original*%
%TF.FileFunction,Drillmap*%
%TF.FilePolarity,Positive*%
%FSLAX45Y45*%
G04 Gerber Fmt 4.5, Leading zero omitted, Abs format (unit mm)*
G04 Created by KiCad (PCBNEW 7.0.7) date 2023-08-22 16:34:43*
%MOMM*%
%LPD*%
G01*
G04 APERTURE LIST*
%ADD10C,0.200000*%
%ADD11C,0.040000*%
%ADD12C,0.080000*%
%ADD13C,0.090000*%
%ADD14C,0.099000*%
%ADD15C,0.100000*%
%ADD16C,0.130000*%
%ADD17C,0.160000*%
G04 APERTURE END LIST*
D10*
D11*
X9931750Y-8127120D02*
X9971750Y-8167120D01*
X9971750Y-8127120D02*
X9931750Y-8167120D01*
X10637680Y-9108880D02*
X10677680Y-9148880D01*
X10677680Y-9108880D02*
X10637680Y-9148880D01*
X11434670Y-11648440D02*
X11474670Y-11688440D01*
X11474670Y-11648440D02*
X11434670Y-11688440D01*
X11983760Y-7355610D02*
X12023760Y-7395610D01*
X12023760Y-7355610D02*
X11983760Y-7395610D01*
X12190380Y-7526260D02*
X12230380Y-7566260D01*
X12230380Y-7526260D02*
X12190380Y-7566260D01*
X12343160Y-11272520D02*
X12383160Y-11312520D01*
X12383160Y-11272520D02*
X12343160Y-11312520D01*
X12602790Y-11984710D02*
X12642790Y-12024710D01*
X12642790Y-11984710D02*
X12602790Y-12024710D01*
X12750450Y-13757500D02*
X12790450Y-13797500D01*
X12790450Y-13757500D02*
X12750450Y-13797500D01*
X12825990Y-8151870D02*
X12865990Y-8191870D01*
X12865990Y-8151870D02*
X12825990Y-8191870D01*
X12840250Y-10138860D02*
X12880250Y-10178860D01*
X12880250Y-10138860D02*
X12840250Y-10178860D01*
X12987530Y-13138980D02*
X13027530Y-13178980D01*
X13027530Y-13138980D02*
X12987530Y-13178980D01*
X13472670Y-8860910D02*
X13512670Y-8900910D01*
X13512670Y-8860910D02*
X13472670Y-8900910D01*
X14399130Y-5577590D02*
X14439130Y-5617590D01*
X14439130Y-5577590D02*
X14399130Y-5617590D01*
X14588160Y-5748060D02*
X14628160Y-5788060D01*
X14628160Y-5748060D02*
X14588160Y-5788060D01*
X14868400Y-6940720D02*
X14908400Y-6980720D01*
X14908400Y-6940720D02*
X14868400Y-6980720D01*
X15050750Y-8237490D02*
X15090750Y-8277490D01*
X15090750Y-8237490D02*
X15050750Y-8277490D01*
X15736500Y-10138000D02*
X15776500Y-10178000D01*
X15776500Y-10138000D02*
X15736500Y-10178000D01*
X16593920Y-11650360D02*
X16633920Y-11690360D01*
X16633920Y-11650360D02*
X16593920Y-11690360D01*
X16783580Y-13757500D02*
X16823580Y-13797500D01*
X16823580Y-13757500D02*
X16783580Y-13797500D01*
X17475000Y-13757500D02*
X17515000Y-13797500D01*
X17515000Y-13757500D02*
X17475000Y-13797500D01*
D12*
X10581000Y-5969000D02*
G75*
G03*
X10581000Y-5969000I-40000J0D01*
G01*
X10581000Y-6223000D02*
G75*
G03*
X10581000Y-6223000I-40000J0D01*
G01*
X10581000Y-6477000D02*
G75*
G03*
X10581000Y-6477000I-40000J0D01*
G01*
X10581000Y-6731000D02*
G75*
G03*
X10581000Y-6731000I-40000J0D01*
G01*
X10581000Y-6985000D02*
G75*
G03*
X10581000Y-6985000I-40000J0D01*
G01*
X10581000Y-8001000D02*
G75*
G03*
X10581000Y-8001000I-40000J0D01*
G01*
X10581000Y-8255000D02*
G75*
G03*
X10581000Y-8255000I-40000J0D01*
G01*
X10581000Y-8509000D02*
G75*
G03*
X10581000Y-8509000I-40000J0D01*
G01*
X10581000Y-8763000D02*
G75*
G03*
X10581000Y-8763000I-40000J0D01*
G01*
X10581000Y-9017000D02*
G75*
G03*
X10581000Y-9017000I-40000J0D01*
G01*
X10581000Y-9271000D02*
G75*
G03*
X10581000Y-9271000I-40000J0D01*
G01*
X10581000Y-9525000D02*
G75*
G03*
X10581000Y-9525000I-40000J0D01*
G01*
X10581000Y-9779000D02*
G75*
G03*
X10581000Y-9779000I-40000J0D01*
G01*
X10581000Y-10033000D02*
G75*
G03*
X10581000Y-10033000I-40000J0D01*
G01*
X10581000Y-10287000D02*
G75*
G03*
X10581000Y-10287000I-40000J0D01*
G01*
X10581000Y-10541000D02*
G75*
G03*
X10581000Y-10541000I-40000J0D01*
G01*
X10645500Y-12573000D02*
G75*
G03*
X10645500Y-12573000I-40000J0D01*
G01*
X10645500Y-12823000D02*
G75*
G03*
X10645500Y-12823000I-40000J0D01*
G01*
X10898500Y-6225000D02*
G75*
G03*
X10898500Y-6225000I-40000J0D01*
G01*
X10898500Y-6475000D02*
G75*
G03*
X10898500Y-6475000I-40000J0D01*
G01*
X10898500Y-7493000D02*
G75*
G03*
X10898500Y-7493000I-40000J0D01*
G01*
X10898500Y-7743000D02*
G75*
G03*
X10898500Y-7743000I-40000J0D01*
G01*
X10898500Y-8763000D02*
G75*
G03*
X10898500Y-8763000I-40000J0D01*
G01*
X10898500Y-9013000D02*
G75*
G03*
X10898500Y-9013000I-40000J0D01*
G01*
X10898500Y-10033000D02*
G75*
G03*
X10898500Y-10033000I-40000J0D01*
G01*
X10898500Y-10283000D02*
G75*
G03*
X10898500Y-10283000I-40000J0D01*
G01*
X10898500Y-11305000D02*
G75*
G03*
X10898500Y-11305000I-40000J0D01*
G01*
X10898500Y-11555000D02*
G75*
G03*
X10898500Y-11555000I-40000J0D01*
G01*
X10962500Y-12318000D02*
G75*
G03*
X10962500Y-12318000I-40000J0D01*
G01*
X10962500Y-13080000D02*
G75*
G03*
X10962500Y-13080000I-40000J0D01*
G01*
X11215500Y-5968000D02*
G75*
G03*
X11215500Y-5968000I-40000J0D01*
G01*
X11215500Y-6730000D02*
G75*
G03*
X11215500Y-6730000I-40000J0D01*
G01*
X11215500Y-11048000D02*
G75*
G03*
X11215500Y-11048000I-40000J0D01*
G01*
X11215500Y-11810000D02*
G75*
G03*
X11215500Y-11810000I-40000J0D01*
G01*
X11216000Y-7236000D02*
G75*
G03*
X11216000Y-7236000I-40000J0D01*
G01*
X11216000Y-7998000D02*
G75*
G03*
X11216000Y-7998000I-40000J0D01*
G01*
X11216000Y-8506000D02*
G75*
G03*
X11216000Y-8506000I-40000J0D01*
G01*
X11216000Y-9268000D02*
G75*
G03*
X11216000Y-9268000I-40000J0D01*
G01*
X11216000Y-9776000D02*
G75*
G03*
X11216000Y-9776000I-40000J0D01*
G01*
X11216000Y-10538000D02*
G75*
G03*
X11216000Y-10538000I-40000J0D01*
G01*
X11216500Y-12318000D02*
G75*
G03*
X11216500Y-12318000I-40000J0D01*
G01*
X11216500Y-13080000D02*
G75*
G03*
X11216500Y-13080000I-40000J0D01*
G01*
X11469500Y-5968000D02*
G75*
G03*
X11469500Y-5968000I-40000J0D01*
G01*
X11469500Y-6730000D02*
G75*
G03*
X11469500Y-6730000I-40000J0D01*
G01*
X11469500Y-11048000D02*
G75*
G03*
X11469500Y-11048000I-40000J0D01*
G01*
X11469500Y-11810000D02*
G75*
G03*
X11469500Y-11810000I-40000J0D01*
G01*
X11470000Y-7236000D02*
G75*
G03*
X11470000Y-7236000I-40000J0D01*
G01*
X11470000Y-7998000D02*
G75*
G03*
X11470000Y-7998000I-40000J0D01*
G01*
X11470000Y-8506000D02*
G75*
G03*
X11470000Y-8506000I-40000J0D01*
G01*
X11470000Y-9268000D02*
G75*
G03*
X11470000Y-9268000I-40000J0D01*
G01*
X11470000Y-9776000D02*
G75*
G03*
X11470000Y-9776000I-40000J0D01*
G01*
X11470000Y-10538000D02*
G75*
G03*
X11470000Y-10538000I-40000J0D01*
G01*
X11470500Y-12318000D02*
G75*
G03*
X11470500Y-12318000I-40000J0D01*
G01*
X11470500Y-13080000D02*
G75*
G03*
X11470500Y-13080000I-40000J0D01*
G01*
X11723500Y-5968000D02*
G75*
G03*
X11723500Y-5968000I-40000J0D01*
G01*
X11723500Y-6730000D02*
G75*
G03*
X11723500Y-6730000I-40000J0D01*
G01*
X11723500Y-11048000D02*
G75*
G03*
X11723500Y-11048000I-40000J0D01*
G01*
X11723500Y-11810000D02*
G75*
G03*
X11723500Y-11810000I-40000J0D01*
G01*
X11724000Y-7236000D02*
G75*
G03*
X11724000Y-7236000I-40000J0D01*
G01*
X11724000Y-7998000D02*
G75*
G03*
X11724000Y-7998000I-40000J0D01*
G01*
X11724000Y-8506000D02*
G75*
G03*
X11724000Y-8506000I-40000J0D01*
G01*
X11724000Y-9268000D02*
G75*
G03*
X11724000Y-9268000I-40000J0D01*
G01*
X11724000Y-9776000D02*
G75*
G03*
X11724000Y-9776000I-40000J0D01*
G01*
X11724000Y-10538000D02*
G75*
G03*
X11724000Y-10538000I-40000J0D01*
G01*
X11724500Y-12318000D02*
G75*
G03*
X11724500Y-12318000I-40000J0D01*
G01*
X11724500Y-13080000D02*
G75*
G03*
X11724500Y-13080000I-40000J0D01*
G01*
X11977500Y-5968000D02*
G75*
G03*
X11977500Y-5968000I-40000J0D01*
G01*
X11977500Y-6730000D02*
G75*
G03*
X11977500Y-6730000I-40000J0D01*
G01*
X11977500Y-11048000D02*
G75*
G03*
X11977500Y-11048000I-40000J0D01*
G01*
X11977500Y-11810000D02*
G75*
G03*
X11977500Y-11810000I-40000J0D01*
G01*
X11978000Y-7236000D02*
G75*
G03*
X11978000Y-7236000I-40000J0D01*
G01*
X11978000Y-7998000D02*
G75*
G03*
X11978000Y-7998000I-40000J0D01*
G01*
X11978000Y-8506000D02*
G75*
G03*
X11978000Y-8506000I-40000J0D01*
G01*
X11978000Y-9268000D02*
G75*
G03*
X11978000Y-9268000I-40000J0D01*
G01*
X11978000Y-9776000D02*
G75*
G03*
X11978000Y-9776000I-40000J0D01*
G01*
X11978000Y-10538000D02*
G75*
G03*
X11978000Y-10538000I-40000J0D01*
G01*
X11978500Y-12318000D02*
G75*
G03*
X11978500Y-12318000I-40000J0D01*
G01*
X11978500Y-13080000D02*
G75*
G03*
X11978500Y-13080000I-40000J0D01*
G01*
X12231500Y-5968000D02*
G75*
G03*
X12231500Y-5968000I-40000J0D01*
G01*
X12231500Y-6730000D02*
G75*
G03*
X12231500Y-6730000I-40000J0D01*
G01*
X12231500Y-11048000D02*
G75*
G03*
X12231500Y-11048000I-40000J0D01*
G01*
X12231500Y-11810000D02*
G75*
G03*
X12231500Y-11810000I-40000J0D01*
G01*
X12232000Y-7236000D02*
G75*
G03*
X12232000Y-7236000I-40000J0D01*
G01*
X12232000Y-7998000D02*
G75*
G03*
X12232000Y-7998000I-40000J0D01*
G01*
X12232000Y-8506000D02*
G75*
G03*
X12232000Y-8506000I-40000J0D01*
G01*
X12232000Y-9268000D02*
G75*
G03*
X12232000Y-9268000I-40000J0D01*
G01*
X12232000Y-9776000D02*
G75*
G03*
X12232000Y-9776000I-40000J0D01*
G01*
X12232000Y-10538000D02*
G75*
G03*
X12232000Y-10538000I-40000J0D01*
G01*
X12232500Y-12318000D02*
G75*
G03*
X12232500Y-12318000I-40000J0D01*
G01*
X12232500Y-13080000D02*
G75*
G03*
X12232500Y-13080000I-40000J0D01*
G01*
X12485500Y-5968000D02*
G75*
G03*
X12485500Y-5968000I-40000J0D01*
G01*
X12485500Y-6730000D02*
G75*
G03*
X12485500Y-6730000I-40000J0D01*
G01*
X12485500Y-11048000D02*
G75*
G03*
X12485500Y-11048000I-40000J0D01*
G01*
X12485500Y-11810000D02*
G75*
G03*
X12485500Y-11810000I-40000J0D01*
G01*
X12486000Y-7236000D02*
G75*
G03*
X12486000Y-7236000I-40000J0D01*
G01*
X12486000Y-7998000D02*
G75*
G03*
X12486000Y-7998000I-40000J0D01*
G01*
X12486000Y-8506000D02*
G75*
G03*
X12486000Y-8506000I-40000J0D01*
G01*
X12486000Y-9268000D02*
G75*
G03*
X12486000Y-9268000I-40000J0D01*
G01*
X12486000Y-9776000D02*
G75*
G03*
X12486000Y-9776000I-40000J0D01*
G01*
X12486000Y-10538000D02*
G75*
G03*
X12486000Y-10538000I-40000J0D01*
G01*
X12486500Y-12318000D02*
G75*
G03*
X12486500Y-12318000I-40000J0D01*
G01*
X12486500Y-13080000D02*
G75*
G03*
X12486500Y-13080000I-40000J0D01*
G01*
X12739500Y-5968000D02*
G75*
G03*
X12739500Y-5968000I-40000J0D01*
G01*
X12739500Y-6730000D02*
G75*
G03*
X12739500Y-6730000I-40000J0D01*
G01*
X12739500Y-11048000D02*
G75*
G03*
X12739500Y-11048000I-40000J0D01*
G01*
X12739500Y-11810000D02*
G75*
G03*
X12739500Y-11810000I-40000J0D01*
G01*
X12740000Y-7236000D02*
G75*
G03*
X12740000Y-7236000I-40000J0D01*
G01*
X12740000Y-7998000D02*
G75*
G03*
X12740000Y-7998000I-40000J0D01*
G01*
X12740000Y-8506000D02*
G75*
G03*
X12740000Y-8506000I-40000J0D01*
G01*
X12740000Y-9268000D02*
G75*
G03*
X12740000Y-9268000I-40000J0D01*
G01*
X12740000Y-9776000D02*
G75*
G03*
X12740000Y-9776000I-40000J0D01*
G01*
X12740000Y-10538000D02*
G75*
G03*
X12740000Y-10538000I-40000J0D01*
G01*
X12740500Y-12318000D02*
G75*
G03*
X12740500Y-12318000I-40000J0D01*
G01*
X12740500Y-13080000D02*
G75*
G03*
X12740500Y-13080000I-40000J0D01*
G01*
X13057500Y-6225000D02*
G75*
G03*
X13057500Y-6225000I-40000J0D01*
G01*
X13057500Y-6475000D02*
G75*
G03*
X13057500Y-6475000I-40000J0D01*
G01*
X13057500Y-10033000D02*
G75*
G03*
X13057500Y-10033000I-40000J0D01*
G01*
X13057500Y-10283000D02*
G75*
G03*
X13057500Y-10283000I-40000J0D01*
G01*
X13058500Y-11306000D02*
G75*
G03*
X13058500Y-11306000I-40000J0D01*
G01*
X13058500Y-11556000D02*
G75*
G03*
X13058500Y-11556000I-40000J0D01*
G01*
X13058500Y-12575000D02*
G75*
G03*
X13058500Y-12575000I-40000J0D01*
G01*
X13058500Y-12825000D02*
G75*
G03*
X13058500Y-12825000I-40000J0D01*
G01*
X13250000Y-7237000D02*
G75*
G03*
X13250000Y-7237000I-40000J0D01*
G01*
X13250000Y-7491000D02*
G75*
G03*
X13250000Y-7491000I-40000J0D01*
G01*
X13250000Y-7745000D02*
G75*
G03*
X13250000Y-7745000I-40000J0D01*
G01*
X13250000Y-8128000D02*
G75*
G03*
X13250000Y-8128000I-40000J0D01*
G01*
X13250000Y-8382000D02*
G75*
G03*
X13250000Y-8382000I-40000J0D01*
G01*
X13374500Y-5968000D02*
G75*
G03*
X13374500Y-5968000I-40000J0D01*
G01*
X13374500Y-6730000D02*
G75*
G03*
X13374500Y-6730000I-40000J0D01*
G01*
X13374500Y-9777000D02*
G75*
G03*
X13374500Y-9777000I-40000J0D01*
G01*
X13374500Y-10539000D02*
G75*
G03*
X13374500Y-10539000I-40000J0D01*
G01*
X13375000Y-8742500D02*
G75*
G03*
X13375000Y-8742500I-40000J0D01*
G01*
X13375000Y-8996500D02*
G75*
G03*
X13375000Y-8996500I-40000J0D01*
G01*
X13375000Y-9250500D02*
G75*
G03*
X13375000Y-9250500I-40000J0D01*
G01*
X13375500Y-11049000D02*
G75*
G03*
X13375500Y-11049000I-40000J0D01*
G01*
X13375500Y-11811000D02*
G75*
G03*
X13375500Y-11811000I-40000J0D01*
G01*
X13375500Y-12318000D02*
G75*
G03*
X13375500Y-12318000I-40000J0D01*
G01*
X13375500Y-13080000D02*
G75*
G03*
X13375500Y-13080000I-40000J0D01*
G01*
X13500000Y-7237000D02*
G75*
G03*
X13500000Y-7237000I-40000J0D01*
G01*
X13500000Y-7491000D02*
G75*
G03*
X13500000Y-7491000I-40000J0D01*
G01*
X13500000Y-7745000D02*
G75*
G03*
X13500000Y-7745000I-40000J0D01*
G01*
X13500000Y-8128000D02*
G75*
G03*
X13500000Y-8128000I-40000J0D01*
G01*
X13500000Y-8382000D02*
G75*
G03*
X13500000Y-8382000I-40000J0D01*
G01*
X13628500Y-5968000D02*
G75*
G03*
X13628500Y-5968000I-40000J0D01*
G01*
X13628500Y-6730000D02*
G75*
G03*
X13628500Y-6730000I-40000J0D01*
G01*
X13628500Y-9777000D02*
G75*
G03*
X13628500Y-9777000I-40000J0D01*
G01*
X13628500Y-10539000D02*
G75*
G03*
X13628500Y-10539000I-40000J0D01*
G01*
X13629500Y-11049000D02*
G75*
G03*
X13629500Y-11049000I-40000J0D01*
G01*
X13629500Y-11811000D02*
G75*
G03*
X13629500Y-11811000I-40000J0D01*
G01*
X13629500Y-12318000D02*
G75*
G03*
X13629500Y-12318000I-40000J0D01*
G01*
X13629500Y-13080000D02*
G75*
G03*
X13629500Y-13080000I-40000J0D01*
G01*
X13819500Y-7493000D02*
G75*
G03*
X13819500Y-7493000I-40000J0D01*
G01*
X13819500Y-7743000D02*
G75*
G03*
X13819500Y-7743000I-40000J0D01*
G01*
X13819500Y-8763000D02*
G75*
G03*
X13819500Y-8763000I-40000J0D01*
G01*
X13819500Y-9013000D02*
G75*
G03*
X13819500Y-9013000I-40000J0D01*
G01*
X13882500Y-5968000D02*
G75*
G03*
X13882500Y-5968000I-40000J0D01*
G01*
X13882500Y-6730000D02*
G75*
G03*
X13882500Y-6730000I-40000J0D01*
G01*
X13882500Y-9777000D02*
G75*
G03*
X13882500Y-9777000I-40000J0D01*
G01*
X13882500Y-10539000D02*
G75*
G03*
X13882500Y-10539000I-40000J0D01*
G01*
X13883500Y-11049000D02*
G75*
G03*
X13883500Y-11049000I-40000J0D01*
G01*
X13883500Y-11811000D02*
G75*
G03*
X13883500Y-11811000I-40000J0D01*
G01*
X13883500Y-12318000D02*
G75*
G03*
X13883500Y-12318000I-40000J0D01*
G01*
X13883500Y-13080000D02*
G75*
G03*
X13883500Y-13080000I-40000J0D01*
G01*
X14136500Y-5968000D02*
G75*
G03*
X14136500Y-5968000I-40000J0D01*
G01*
X14136500Y-6730000D02*
G75*
G03*
X14136500Y-6730000I-40000J0D01*
G01*
X14136500Y-9777000D02*
G75*
G03*
X14136500Y-9777000I-40000J0D01*
G01*
X14136500Y-10539000D02*
G75*
G03*
X14136500Y-10539000I-40000J0D01*
G01*
X14137500Y-11049000D02*
G75*
G03*
X14137500Y-11049000I-40000J0D01*
G01*
X14137500Y-11811000D02*
G75*
G03*
X14137500Y-11811000I-40000J0D01*
G01*
X14137500Y-12318000D02*
G75*
G03*
X14137500Y-12318000I-40000J0D01*
G01*
X14137500Y-13080000D02*
G75*
G03*
X14137500Y-13080000I-40000J0D01*
G01*
X14138000Y-8506000D02*
G75*
G03*
X14138000Y-8506000I-40000J0D01*
G01*
X14138000Y-9268000D02*
G75*
G03*
X14138000Y-9268000I-40000J0D01*
G01*
X14138500Y-7236000D02*
G75*
G03*
X14138500Y-7236000I-40000J0D01*
G01*
X14138500Y-7998000D02*
G75*
G03*
X14138500Y-7998000I-40000J0D01*
G01*
X14297560Y-5112820D02*
G75*
G03*
X14297560Y-5112820I-40000J0D01*
G01*
X14390500Y-5968000D02*
G75*
G03*
X14390500Y-5968000I-40000J0D01*
G01*
X14390500Y-6730000D02*
G75*
G03*
X14390500Y-6730000I-40000J0D01*
G01*
X14390500Y-9777000D02*
G75*
G03*
X14390500Y-9777000I-40000J0D01*
G01*
X14390500Y-10539000D02*
G75*
G03*
X14390500Y-10539000I-40000J0D01*
G01*
X14391500Y-11049000D02*
G75*
G03*
X14391500Y-11049000I-40000J0D01*
G01*
X14391500Y-11811000D02*
G75*
G03*
X14391500Y-11811000I-40000J0D01*
G01*
X14391500Y-12318000D02*
G75*
G03*
X14391500Y-12318000I-40000J0D01*
G01*
X14391500Y-13080000D02*
G75*
G03*
X14391500Y-13080000I-40000J0D01*
G01*
X14392500Y-7236000D02*
G75*
G03*
X14392500Y-7236000I-40000J0D01*
G01*
X14392500Y-7998000D02*
G75*
G03*
X14392500Y-7998000I-40000J0D01*
G01*
X14551560Y-4858820D02*
G75*
G03*
X14551560Y-4858820I-40000J0D01*
G01*
X14551560Y-5366820D02*
G75*
G03*
X14551560Y-5366820I-40000J0D01*
G01*
X14644500Y-5968000D02*
G75*
G03*
X14644500Y-5968000I-40000J0D01*
G01*
X14644500Y-6730000D02*
G75*
G03*
X14644500Y-6730000I-40000J0D01*
G01*
X14644500Y-9777000D02*
G75*
G03*
X14644500Y-9777000I-40000J0D01*
G01*
X14644500Y-10539000D02*
G75*
G03*
X14644500Y-10539000I-40000J0D01*
G01*
X14645500Y-11049000D02*
G75*
G03*
X14645500Y-11049000I-40000J0D01*
G01*
X14645500Y-11811000D02*
G75*
G03*
X14645500Y-11811000I-40000J0D01*
G01*
X14645500Y-12318000D02*
G75*
G03*
X14645500Y-12318000I-40000J0D01*
G01*
X14645500Y-13080000D02*
G75*
G03*
X14645500Y-13080000I-40000J0D01*
G01*
X14646500Y-7236000D02*
G75*
G03*
X14646500Y-7236000I-40000J0D01*
G01*
X14646500Y-7998000D02*
G75*
G03*
X14646500Y-7998000I-40000J0D01*
G01*
X14898500Y-5968000D02*
G75*
G03*
X14898500Y-5968000I-40000J0D01*
G01*
X14898500Y-6730000D02*
G75*
G03*
X14898500Y-6730000I-40000J0D01*
G01*
X14898500Y-9777000D02*
G75*
G03*
X14898500Y-9777000I-40000J0D01*
G01*
X14898500Y-10539000D02*
G75*
G03*
X14898500Y-10539000I-40000J0D01*
G01*
X14899500Y-11049000D02*
G75*
G03*
X14899500Y-11049000I-40000J0D01*
G01*
X14899500Y-11811000D02*
G75*
G03*
X14899500Y-11811000I-40000J0D01*
G01*
X14899500Y-12318000D02*
G75*
G03*
X14899500Y-12318000I-40000J0D01*
G01*
X14899500Y-13080000D02*
G75*
G03*
X14899500Y-13080000I-40000J0D01*
G01*
X14900000Y-8506000D02*
G75*
G03*
X14900000Y-8506000I-40000J0D01*
G01*
X14900000Y-9268000D02*
G75*
G03*
X14900000Y-9268000I-40000J0D01*
G01*
X14900500Y-7236000D02*
G75*
G03*
X14900500Y-7236000I-40000J0D01*
G01*
X14900500Y-7998000D02*
G75*
G03*
X14900500Y-7998000I-40000J0D01*
G01*
X15216500Y-6225000D02*
G75*
G03*
X15216500Y-6225000I-40000J0D01*
G01*
X15216500Y-6475000D02*
G75*
G03*
X15216500Y-6475000I-40000J0D01*
G01*
X15216500Y-7493000D02*
G75*
G03*
X15216500Y-7493000I-40000J0D01*
G01*
X15216500Y-7743000D02*
G75*
G03*
X15216500Y-7743000I-40000J0D01*
G01*
X15216500Y-8761000D02*
G75*
G03*
X15216500Y-8761000I-40000J0D01*
G01*
X15216500Y-9011000D02*
G75*
G03*
X15216500Y-9011000I-40000J0D01*
G01*
X15216500Y-10033000D02*
G75*
G03*
X15216500Y-10033000I-40000J0D01*
G01*
X15216500Y-10283000D02*
G75*
G03*
X15216500Y-10283000I-40000J0D01*
G01*
X15217500Y-12575000D02*
G75*
G03*
X15217500Y-12575000I-40000J0D01*
G01*
X15217500Y-12825000D02*
G75*
G03*
X15217500Y-12825000I-40000J0D01*
G01*
X15229200Y-11305000D02*
G75*
G03*
X15229200Y-11305000I-40000J0D01*
G01*
X15229200Y-11555000D02*
G75*
G03*
X15229200Y-11555000I-40000J0D01*
G01*
X15533000Y-5968000D02*
G75*
G03*
X15533000Y-5968000I-40000J0D01*
G01*
X15533000Y-6730000D02*
G75*
G03*
X15533000Y-6730000I-40000J0D01*
G01*
X15533000Y-7238000D02*
G75*
G03*
X15533000Y-7238000I-40000J0D01*
G01*
X15533000Y-8000000D02*
G75*
G03*
X15533000Y-8000000I-40000J0D01*
G01*
X15533000Y-8506000D02*
G75*
G03*
X15533000Y-8506000I-40000J0D01*
G01*
X15533000Y-9268000D02*
G75*
G03*
X15533000Y-9268000I-40000J0D01*
G01*
X15533000Y-9778000D02*
G75*
G03*
X15533000Y-9778000I-40000J0D01*
G01*
X15533000Y-10540000D02*
G75*
G03*
X15533000Y-10540000I-40000J0D01*
G01*
X15533000Y-11048000D02*
G75*
G03*
X15533000Y-11048000I-40000J0D01*
G01*
X15533000Y-11810000D02*
G75*
G03*
X15533000Y-11810000I-40000J0D01*
G01*
X15534000Y-12318000D02*
G75*
G03*
X15534000Y-12318000I-40000J0D01*
G01*
X15534000Y-13080000D02*
G75*
G03*
X15534000Y-13080000I-40000J0D01*
G01*
X15787000Y-5968000D02*
G75*
G03*
X15787000Y-5968000I-40000J0D01*
G01*
X15787000Y-6730000D02*
G75*
G03*
X15787000Y-6730000I-40000J0D01*
G01*
X15787000Y-7238000D02*
G75*
G03*
X15787000Y-7238000I-40000J0D01*
G01*
X15787000Y-8000000D02*
G75*
G03*
X15787000Y-8000000I-40000J0D01*
G01*
X15787000Y-8506000D02*
G75*
G03*
X15787000Y-8506000I-40000J0D01*
G01*
X15787000Y-9268000D02*
G75*
G03*
X15787000Y-9268000I-40000J0D01*
G01*
X15787000Y-9778000D02*
G75*
G03*
X15787000Y-9778000I-40000J0D01*
G01*
X15787000Y-10540000D02*
G75*
G03*
X15787000Y-10540000I-40000J0D01*
G01*
X15787000Y-11048000D02*
G75*
G03*
X15787000Y-11048000I-40000J0D01*
G01*
X15787000Y-11810000D02*
G75*
G03*
X15787000Y-11810000I-40000J0D01*
G01*
X15788000Y-12318000D02*
G75*
G03*
X15788000Y-12318000I-40000J0D01*
G01*
X15788000Y-13080000D02*
G75*
G03*
X15788000Y-13080000I-40000J0D01*
G01*
X16041000Y-5968000D02*
G75*
G03*
X16041000Y-5968000I-40000J0D01*
G01*
X16041000Y-6730000D02*
G75*
G03*
X16041000Y-6730000I-40000J0D01*
G01*
X16041000Y-7238000D02*
G75*
G03*
X16041000Y-7238000I-40000J0D01*
G01*
X16041000Y-8000000D02*
G75*
G03*
X16041000Y-8000000I-40000J0D01*
G01*
X16041000Y-8506000D02*
G75*
G03*
X16041000Y-8506000I-40000J0D01*
G01*
X16041000Y-9268000D02*
G75*
G03*
X16041000Y-9268000I-40000J0D01*
G01*
X16041000Y-9778000D02*
G75*
G03*
X16041000Y-9778000I-40000J0D01*
G01*
X16041000Y-10540000D02*
G75*
G03*
X16041000Y-10540000I-40000J0D01*
G01*
X16041000Y-11048000D02*
G75*
G03*
X16041000Y-11048000I-40000J0D01*
G01*
X16041000Y-11810000D02*
G75*
G03*
X16041000Y-11810000I-40000J0D01*
G01*
X16042000Y-12318000D02*
G75*
G03*
X16042000Y-12318000I-40000J0D01*
G01*
X16042000Y-13080000D02*
G75*
G03*
X16042000Y-13080000I-40000J0D01*
G01*
X16295000Y-5968000D02*
G75*
G03*
X16295000Y-5968000I-40000J0D01*
G01*
X16295000Y-6730000D02*
G75*
G03*
X16295000Y-6730000I-40000J0D01*
G01*
X16295000Y-7238000D02*
G75*
G03*
X16295000Y-7238000I-40000J0D01*
G01*
X16295000Y-8000000D02*
G75*
G03*
X16295000Y-8000000I-40000J0D01*
G01*
X16295000Y-8506000D02*
G75*
G03*
X16295000Y-8506000I-40000J0D01*
G01*
X16295000Y-9268000D02*
G75*
G03*
X16295000Y-9268000I-40000J0D01*
G01*
X16295000Y-9778000D02*
G75*
G03*
X16295000Y-9778000I-40000J0D01*
G01*
X16295000Y-10540000D02*
G75*
G03*
X16295000Y-10540000I-40000J0D01*
G01*
X16295000Y-11048000D02*
G75*
G03*
X16295000Y-11048000I-40000J0D01*
G01*
X16295000Y-11810000D02*
G75*
G03*
X16295000Y-11810000I-40000J0D01*
G01*
X16296000Y-12318000D02*
G75*
G03*
X16296000Y-12318000I-40000J0D01*
G01*
X16296000Y-13080000D02*
G75*
G03*
X16296000Y-13080000I-40000J0D01*
G01*
X16549000Y-5968000D02*
G75*
G03*
X16549000Y-5968000I-40000J0D01*
G01*
X16549000Y-6730000D02*
G75*
G03*
X16549000Y-6730000I-40000J0D01*
G01*
X16549000Y-7238000D02*
G75*
G03*
X16549000Y-7238000I-40000J0D01*
G01*
X16549000Y-8000000D02*
G75*
G03*
X16549000Y-8000000I-40000J0D01*
G01*
X16549000Y-8506000D02*
G75*
G03*
X16549000Y-8506000I-40000J0D01*
G01*
X16549000Y-9268000D02*
G75*
G03*
X16549000Y-9268000I-40000J0D01*
G01*
X16549000Y-9778000D02*
G75*
G03*
X16549000Y-9778000I-40000J0D01*
G01*
X16549000Y-10540000D02*
G75*
G03*
X16549000Y-10540000I-40000J0D01*
G01*
X16549000Y-11048000D02*
G75*
G03*
X16549000Y-11048000I-40000J0D01*
G01*
X16549000Y-11810000D02*
G75*
G03*
X16549000Y-11810000I-40000J0D01*
G01*
X16550000Y-12318000D02*
G75*
G03*
X16550000Y-12318000I-40000J0D01*
G01*
X16550000Y-13080000D02*
G75*
G03*
X16550000Y-13080000I-40000J0D01*
G01*
X16803000Y-5968000D02*
G75*
G03*
X16803000Y-5968000I-40000J0D01*
G01*
X16803000Y-6730000D02*
G75*
G03*
X16803000Y-6730000I-40000J0D01*
G01*
X16803000Y-7238000D02*
G75*
G03*
X16803000Y-7238000I-40000J0D01*
G01*
X16803000Y-8000000D02*
G75*
G03*
X16803000Y-8000000I-40000J0D01*
G01*
X16803000Y-8506000D02*
G75*
G03*
X16803000Y-8506000I-40000J0D01*
G01*
X16803000Y-9268000D02*
G75*
G03*
X16803000Y-9268000I-40000J0D01*
G01*
X16803000Y-9778000D02*
G75*
G03*
X16803000Y-9778000I-40000J0D01*
G01*
X16803000Y-10540000D02*
G75*
G03*
X16803000Y-10540000I-40000J0D01*
G01*
X16803000Y-11048000D02*
G75*
G03*
X16803000Y-11048000I-40000J0D01*
G01*
X16803000Y-11810000D02*
G75*
G03*
X16803000Y-11810000I-40000J0D01*
G01*
X16804000Y-12318000D02*
G75*
G03*
X16804000Y-12318000I-40000J0D01*
G01*
X16804000Y-13080000D02*
G75*
G03*
X16804000Y-13080000I-40000J0D01*
G01*
X17057000Y-5968000D02*
G75*
G03*
X17057000Y-5968000I-40000J0D01*
G01*
X17057000Y-6730000D02*
G75*
G03*
X17057000Y-6730000I-40000J0D01*
G01*
X17057000Y-7238000D02*
G75*
G03*
X17057000Y-7238000I-40000J0D01*
G01*
X17057000Y-8000000D02*
G75*
G03*
X17057000Y-8000000I-40000J0D01*
G01*
X17057000Y-8506000D02*
G75*
G03*
X17057000Y-8506000I-40000J0D01*
G01*
X17057000Y-9268000D02*
G75*
G03*
X17057000Y-9268000I-40000J0D01*
G01*
X17057000Y-9778000D02*
G75*
G03*
X17057000Y-9778000I-40000J0D01*
G01*
X17057000Y-10540000D02*
G75*
G03*
X17057000Y-10540000I-40000J0D01*
G01*
X17057000Y-11048000D02*
G75*
G03*
X17057000Y-11048000I-40000J0D01*
G01*
X17057000Y-11810000D02*
G75*
G03*
X17057000Y-11810000I-40000J0D01*
G01*
X17058000Y-12318000D02*
G75*
G03*
X17058000Y-12318000I-40000J0D01*
G01*
X17058000Y-13080000D02*
G75*
G03*
X17058000Y-13080000I-40000J0D01*
G01*
X17311000Y-5968000D02*
G75*
G03*
X17311000Y-5968000I-40000J0D01*
G01*
X17311000Y-6730000D02*
G75*
G03*
X17311000Y-6730000I-40000J0D01*
G01*
X17311000Y-7238000D02*
G75*
G03*
X17311000Y-7238000I-40000J0D01*
G01*
X17311000Y-8000000D02*
G75*
G03*
X17311000Y-8000000I-40000J0D01*
G01*
X17311000Y-8506000D02*
G75*
G03*
X17311000Y-8506000I-40000J0D01*
G01*
X17311000Y-9268000D02*
G75*
G03*
X17311000Y-9268000I-40000J0D01*
G01*
X17311000Y-9778000D02*
G75*
G03*
X17311000Y-9778000I-40000J0D01*
G01*
X17311000Y-10540000D02*
G75*
G03*
X17311000Y-10540000I-40000J0D01*
G01*
X17311000Y-11048000D02*
G75*
G03*
X17311000Y-11048000I-40000J0D01*
G01*
X17311000Y-11810000D02*
G75*
G03*
X17311000Y-11810000I-40000J0D01*
G01*
X17312000Y-12318000D02*
G75*
G03*
X17312000Y-12318000I-40000J0D01*
G01*
X17312000Y-13080000D02*
G75*
G03*
X17312000Y-13080000I-40000J0D01*
G01*
X17693000Y-5918200D02*
G75*
G03*
X17693000Y-5918200I-40000J0D01*
G01*
X17693000Y-6273800D02*
G75*
G03*
X17693000Y-6273800I-40000J0D01*
G01*
X17693000Y-6629400D02*
G75*
G03*
X17693000Y-6629400I-40000J0D01*
G01*
X17693000Y-6985000D02*
G75*
G03*
X17693000Y-6985000I-40000J0D01*
G01*
X17693000Y-7340600D02*
G75*
G03*
X17693000Y-7340600I-40000J0D01*
G01*
X17693000Y-7696200D02*
G75*
G03*
X17693000Y-7696200I-40000J0D01*
G01*
X17693000Y-8051800D02*
G75*
G03*
X17693000Y-8051800I-40000J0D01*
G01*
X17693000Y-8407400D02*
G75*
G03*
X17693000Y-8407400I-40000J0D01*
G01*
X17693000Y-8763000D02*
G75*
G03*
X17693000Y-8763000I-40000J0D01*
G01*
X17693000Y-9118600D02*
G75*
G03*
X17693000Y-9118600I-40000J0D01*
G01*
X17693000Y-9474200D02*
G75*
G03*
X17693000Y-9474200I-40000J0D01*
G01*
X17693000Y-9829800D02*
G75*
G03*
X17693000Y-9829800I-40000J0D01*
G01*
X17693000Y-10185400D02*
G75*
G03*
X17693000Y-10185400I-40000J0D01*
G01*
X17693000Y-10541000D02*
G75*
G03*
X17693000Y-10541000I-40000J0D01*
G01*
X18076000Y-10871200D02*
G75*
G03*
X18076000Y-10871200I-40000J0D01*
G01*
X18326000Y-10871200D02*
G75*
G03*
X18326000Y-10871200I-40000J0D01*
G01*
X18709000Y-5918200D02*
G75*
G03*
X18709000Y-5918200I-40000J0D01*
G01*
X18709000Y-6273800D02*
G75*
G03*
X18709000Y-6273800I-40000J0D01*
G01*
X18709000Y-6629400D02*
G75*
G03*
X18709000Y-6629400I-40000J0D01*
G01*
X18709000Y-6985000D02*
G75*
G03*
X18709000Y-6985000I-40000J0D01*
G01*
X18709000Y-7340600D02*
G75*
G03*
X18709000Y-7340600I-40000J0D01*
G01*
X18709000Y-7696200D02*
G75*
G03*
X18709000Y-7696200I-40000J0D01*
G01*
X18709000Y-8051800D02*
G75*
G03*
X18709000Y-8051800I-40000J0D01*
G01*
X18709000Y-8407400D02*
G75*
G03*
X18709000Y-8407400I-40000J0D01*
G01*
X18709000Y-8763000D02*
G75*
G03*
X18709000Y-8763000I-40000J0D01*
G01*
X18709000Y-9118600D02*
G75*
G03*
X18709000Y-9118600I-40000J0D01*
G01*
X18709000Y-9474200D02*
G75*
G03*
X18709000Y-9474200I-40000J0D01*
G01*
X18709000Y-9829800D02*
G75*
G03*
X18709000Y-9829800I-40000J0D01*
G01*
X18709000Y-10185400D02*
G75*
G03*
X18709000Y-10185400I-40000J0D01*
G01*
X18709000Y-10541000D02*
G75*
G03*
X18709000Y-10541000I-40000J0D01*
G01*
D13*
X9626600Y-12461960D02*
X9626600Y-12551960D01*
X9581600Y-12506960D02*
X9671600Y-12506960D01*
X9626600Y-12715960D02*
X9626600Y-12805960D01*
X9581600Y-12760960D02*
X9671600Y-12760960D01*
X9637300Y-5254000D02*
X9637300Y-5344000D01*
X9592300Y-5299000D02*
X9682300Y-5299000D01*
X9891300Y-5254000D02*
X9891300Y-5344000D01*
X9846300Y-5299000D02*
X9936300Y-5299000D01*
X11160200Y-5254130D02*
X11160200Y-5344130D01*
X11115200Y-5299130D02*
X11205200Y-5299130D01*
X11414200Y-5254130D02*
X11414200Y-5344130D01*
X11369200Y-5299130D02*
X11459200Y-5299130D01*
X12685300Y-5254130D02*
X12685300Y-5344130D01*
X12640300Y-5299130D02*
X12730300Y-5299130D01*
X12939300Y-5254130D02*
X12939300Y-5344130D01*
X12894300Y-5299130D02*
X12984300Y-5299130D01*
X14818800Y-5254000D02*
X14818800Y-5344000D01*
X14773800Y-5299000D02*
X14863800Y-5299000D01*
X15072800Y-5254000D02*
X15072800Y-5344000D01*
X15027800Y-5299000D02*
X15117800Y-5299000D01*
X16342800Y-5254000D02*
X16342800Y-5344000D01*
X16297800Y-5299000D02*
X16387800Y-5299000D01*
X16596800Y-5254000D02*
X16596800Y-5344000D01*
X16551800Y-5299000D02*
X16641800Y-5299000D01*
X16850800Y-5254000D02*
X16850800Y-5344000D01*
X16805800Y-5299000D02*
X16895800Y-5299000D01*
X17104800Y-5254000D02*
X17104800Y-5344000D01*
X17059800Y-5299000D02*
X17149800Y-5299000D01*
X17358800Y-5254000D02*
X17358800Y-5344000D01*
X17313800Y-5299000D02*
X17403800Y-5299000D01*
X17612800Y-5254000D02*
X17612800Y-5344000D01*
X17567800Y-5299000D02*
X17657800Y-5299000D01*
X17866800Y-5254000D02*
X17866800Y-5344000D01*
X17821800Y-5299000D02*
X17911800Y-5299000D01*
X18120800Y-5254000D02*
X18120800Y-5344000D01*
X18075800Y-5299000D02*
X18165800Y-5299000D01*
D14*
X10333262Y-4927172D02*
X10333262Y-4857168D01*
X10263258Y-4857168D01*
X10263258Y-4927172D01*
X10333262Y-4927172D01*
X10783262Y-4927172D02*
X10783262Y-4857168D01*
X10713258Y-4857168D01*
X10713258Y-4927172D01*
X10783262Y-4927172D01*
X11858702Y-4927172D02*
X11858702Y-4857168D01*
X11788698Y-4857168D01*
X11788698Y-4927172D01*
X11858702Y-4927172D01*
X12308702Y-4927172D02*
X12308702Y-4857168D01*
X12238698Y-4857168D01*
X12238698Y-4927172D01*
X12308702Y-4927172D01*
X13383802Y-4927042D02*
X13383802Y-4857038D01*
X13313798Y-4857038D01*
X13313798Y-4927042D01*
X13383802Y-4927042D01*
X13833802Y-4927042D02*
X13833802Y-4857038D01*
X13763798Y-4857038D01*
X13763798Y-4927042D01*
X13833802Y-4927042D01*
X15517302Y-4927172D02*
X15517302Y-4857168D01*
X15447298Y-4857168D01*
X15447298Y-4927172D01*
X15517302Y-4927172D01*
X15967302Y-4927172D02*
X15967302Y-4857168D01*
X15897298Y-4857168D01*
X15897298Y-4927172D01*
X15967302Y-4927172D01*
D15*
X17911460Y-11351960D02*
X17961460Y-11301960D01*
X17911460Y-11251960D01*
X17861460Y-11301960D01*
X17911460Y-11351960D01*
X17911460Y-11605960D02*
X17961460Y-11555960D01*
X17911460Y-11505960D01*
X17861460Y-11555960D01*
X17911460Y-11605960D01*
X17911460Y-11859960D02*
X17961460Y-11809960D01*
X17911460Y-11759960D01*
X17861460Y-11809960D01*
X17911460Y-11859960D01*
X17911460Y-12113960D02*
X17961460Y-12063960D01*
X17911460Y-12013960D01*
X17861460Y-12063960D01*
X17911460Y-12113960D01*
X17911460Y-12367960D02*
X17961460Y-12317960D01*
X17911460Y-12267960D01*
X17861460Y-12317960D01*
X17911460Y-12367960D01*
X17911460Y-12621960D02*
X17961460Y-12571960D01*
X17911460Y-12521960D01*
X17861460Y-12571960D01*
X17911460Y-12621960D01*
X17911460Y-12875960D02*
X17961460Y-12825960D01*
X17911460Y-12775960D01*
X17861460Y-12825960D01*
X17911460Y-12875960D01*
X17911460Y-13129960D02*
X17961460Y-13079960D01*
X17911460Y-13029960D01*
X17861460Y-13079960D01*
X17911460Y-13129960D01*
D16*
X10108260Y-5076170D02*
X10238260Y-5206170D01*
X10238260Y-5076170D02*
X10108260Y-5206170D01*
X10238260Y-5141170D02*
G75*
G03*
X10238260Y-5141170I-65000J0D01*
G01*
X10809260Y-5076170D02*
X10939260Y-5206170D01*
X10939260Y-5076170D02*
X10809260Y-5206170D01*
X10939260Y-5141170D02*
G75*
G03*
X10939260Y-5141170I-65000J0D01*
G01*
X11633700Y-5076170D02*
X11763700Y-5206170D01*
X11763700Y-5076170D02*
X11633700Y-5206170D01*
X11763700Y-5141170D02*
G75*
G03*
X11763700Y-5141170I-65000J0D01*
G01*
X12334700Y-5076170D02*
X12464700Y-5206170D01*
X12464700Y-5076170D02*
X12334700Y-5206170D01*
X12464700Y-5141170D02*
G75*
G03*
X12464700Y-5141170I-65000J0D01*
G01*
X13158800Y-5076040D02*
X13288800Y-5206040D01*
X13288800Y-5076040D02*
X13158800Y-5206040D01*
X13288800Y-5141040D02*
G75*
G03*
X13288800Y-5141040I-65000J0D01*
G01*
X13859800Y-5076040D02*
X13989800Y-5206040D01*
X13989800Y-5076040D02*
X13859800Y-5206040D01*
X13989800Y-5141040D02*
G75*
G03*
X13989800Y-5141040I-65000J0D01*
G01*
X15292300Y-5076170D02*
X15422300Y-5206170D01*
X15422300Y-5076170D02*
X15292300Y-5206170D01*
X15422300Y-5141170D02*
G75*
G03*
X15422300Y-5141170I-65000J0D01*
G01*
X15993300Y-5076170D02*
X16123300Y-5206170D01*
X16123300Y-5076170D02*
X15993300Y-5206170D01*
X16123300Y-5141170D02*
G75*
G03*
X16123300Y-5141170I-65000J0D01*
G01*
D17*
X10026860Y-6203860D02*
X10186860Y-6363860D01*
X10186860Y-6203860D02*
X10026860Y-6363860D01*
X10106860Y-6203860D02*
X10106860Y-6363860D01*
X10026860Y-6283860D02*
X10186860Y-6283860D01*
X10026860Y-6673860D02*
X10186860Y-6833860D01*
X10186860Y-6673860D02*
X10026860Y-6833860D01*
X10106860Y-6673860D02*
X10106860Y-6833860D01*
X10026860Y-6753860D02*
X10186860Y-6753860D01*
X10026860Y-7143860D02*
X10186860Y-7303860D01*
X10186860Y-7143860D02*
X10026860Y-7303860D01*
X10106860Y-7143860D02*
X10106860Y-7303860D01*
X10026860Y-7223860D02*
X10186860Y-7223860D01*
X10026860Y-7727860D02*
X10186860Y-7887860D01*
X10186860Y-7727860D02*
X10026860Y-7887860D01*
X10106860Y-7727860D02*
X10106860Y-7887860D01*
X10026860Y-7807860D02*
X10186860Y-7807860D01*
X10026860Y-8197860D02*
X10186860Y-8357860D01*
X10186860Y-8197860D02*
X10026860Y-8357860D01*
X10106860Y-8197860D02*
X10106860Y-8357860D01*
X10026860Y-8277860D02*
X10186860Y-8277860D01*
X10026860Y-8667860D02*
X10186860Y-8827860D01*
X10186860Y-8667860D02*
X10026860Y-8827860D01*
X10106860Y-8667860D02*
X10106860Y-8827860D01*
X10026860Y-8747860D02*
X10186860Y-8747860D01*
X10026860Y-9251860D02*
X10186860Y-9411860D01*
X10186860Y-9251860D02*
X10026860Y-9411860D01*
X10106860Y-9251860D02*
X10106860Y-9411860D01*
X10026860Y-9331860D02*
X10186860Y-9331860D01*
X10026860Y-9721860D02*
X10186860Y-9881860D01*
X10186860Y-9721860D02*
X10026860Y-9881860D01*
X10106860Y-9721860D02*
X10106860Y-9881860D01*
X10026860Y-9801860D02*
X10186860Y-9801860D01*
X10026860Y-10191860D02*
X10186860Y-10351860D01*
X10186860Y-10191860D02*
X10026860Y-10351860D01*
X10106860Y-10191860D02*
X10106860Y-10351860D01*
X10026860Y-10271860D02*
X10186860Y-10271860D01*
X10026860Y-10775860D02*
X10186860Y-10935860D01*
X10186860Y-10775860D02*
X10026860Y-10935860D01*
X10106860Y-10775860D02*
X10106860Y-10935860D01*
X10026860Y-10855860D02*
X10186860Y-10855860D01*
X10026860Y-11245860D02*
X10186860Y-11405860D01*
X10186860Y-11245860D02*
X10026860Y-11405860D01*
X10106860Y-11245860D02*
X10106860Y-11405860D01*
X10026860Y-11325860D02*
X10186860Y-11325860D01*
X10026860Y-11715860D02*
X10186860Y-11875860D01*
X10186860Y-11715860D02*
X10026860Y-11875860D01*
X10106860Y-11715860D02*
X10106860Y-11875860D01*
X10026860Y-11795860D02*
X10186860Y-11795860D01*
D10*
X9193777Y-14926484D02*
X9193777Y-14726484D01*
X9193777Y-14726484D02*
X9241396Y-14726484D01*
X9241396Y-14726484D02*
X9269967Y-14736008D01*
X9269967Y-14736008D02*
X9289015Y-14755055D01*
X9289015Y-14755055D02*
X9298539Y-14774103D01*
X9298539Y-14774103D02*
X9308063Y-14812198D01*
X9308063Y-14812198D02*
X9308063Y-14840769D01*
X9308063Y-14840769D02*
X9298539Y-14878865D01*
X9298539Y-14878865D02*
X9289015Y-14897912D01*
X9289015Y-14897912D02*
X9269967Y-14916960D01*
X9269967Y-14916960D02*
X9241396Y-14926484D01*
X9241396Y-14926484D02*
X9193777Y-14926484D01*
X9393777Y-14926484D02*
X9393777Y-14793150D01*
X9393777Y-14831246D02*
X9403301Y-14812198D01*
X9403301Y-14812198D02*
X9412824Y-14802674D01*
X9412824Y-14802674D02*
X9431872Y-14793150D01*
X9431872Y-14793150D02*
X9450920Y-14793150D01*
X9517586Y-14926484D02*
X9517586Y-14793150D01*
X9517586Y-14726484D02*
X9508063Y-14736008D01*
X9508063Y-14736008D02*
X9517586Y-14745531D01*
X9517586Y-14745531D02*
X9527110Y-14736008D01*
X9527110Y-14736008D02*
X9517586Y-14726484D01*
X9517586Y-14726484D02*
X9517586Y-14745531D01*
X9641396Y-14926484D02*
X9622348Y-14916960D01*
X9622348Y-14916960D02*
X9612824Y-14897912D01*
X9612824Y-14897912D02*
X9612824Y-14726484D01*
X9746158Y-14926484D02*
X9727110Y-14916960D01*
X9727110Y-14916960D02*
X9717586Y-14897912D01*
X9717586Y-14897912D02*
X9717586Y-14726484D01*
X9974729Y-14926484D02*
X9974729Y-14726484D01*
X9974729Y-14726484D02*
X10041396Y-14869341D01*
X10041396Y-14869341D02*
X10108063Y-14726484D01*
X10108063Y-14726484D02*
X10108063Y-14926484D01*
X10289015Y-14926484D02*
X10289015Y-14821722D01*
X10289015Y-14821722D02*
X10279491Y-14802674D01*
X10279491Y-14802674D02*
X10260444Y-14793150D01*
X10260444Y-14793150D02*
X10222348Y-14793150D01*
X10222348Y-14793150D02*
X10203301Y-14802674D01*
X10289015Y-14916960D02*
X10269967Y-14926484D01*
X10269967Y-14926484D02*
X10222348Y-14926484D01*
X10222348Y-14926484D02*
X10203301Y-14916960D01*
X10203301Y-14916960D02*
X10193777Y-14897912D01*
X10193777Y-14897912D02*
X10193777Y-14878865D01*
X10193777Y-14878865D02*
X10203301Y-14859817D01*
X10203301Y-14859817D02*
X10222348Y-14850293D01*
X10222348Y-14850293D02*
X10269967Y-14850293D01*
X10269967Y-14850293D02*
X10289015Y-14840769D01*
X10384253Y-14793150D02*
X10384253Y-14993150D01*
X10384253Y-14802674D02*
X10403301Y-14793150D01*
X10403301Y-14793150D02*
X10441396Y-14793150D01*
X10441396Y-14793150D02*
X10460444Y-14802674D01*
X10460444Y-14802674D02*
X10469967Y-14812198D01*
X10469967Y-14812198D02*
X10479491Y-14831246D01*
X10479491Y-14831246D02*
X10479491Y-14888388D01*
X10479491Y-14888388D02*
X10469967Y-14907436D01*
X10469967Y-14907436D02*
X10460444Y-14916960D01*
X10460444Y-14916960D02*
X10441396Y-14926484D01*
X10441396Y-14926484D02*
X10403301Y-14926484D01*
X10403301Y-14926484D02*
X10384253Y-14916960D01*
X10565205Y-14907436D02*
X10574729Y-14916960D01*
X10574729Y-14916960D02*
X10565205Y-14926484D01*
X10565205Y-14926484D02*
X10555682Y-14916960D01*
X10555682Y-14916960D02*
X10565205Y-14907436D01*
X10565205Y-14907436D02*
X10565205Y-14926484D01*
X10565205Y-14802674D02*
X10574729Y-14812198D01*
X10574729Y-14812198D02*
X10565205Y-14821722D01*
X10565205Y-14821722D02*
X10555682Y-14812198D01*
X10555682Y-14812198D02*
X10565205Y-14802674D01*
X10565205Y-14802674D02*
X10565205Y-14821722D01*
D11*
X8893000Y-15235000D02*
X8933000Y-15275000D01*
X8933000Y-15235000D02*
X8893000Y-15275000D01*
D10*
X9231872Y-15146484D02*
X9250920Y-15146484D01*
X9250920Y-15146484D02*
X9269967Y-15156008D01*
X9269967Y-15156008D02*
X9279491Y-15165531D01*
X9279491Y-15165531D02*
X9289015Y-15184579D01*
X9289015Y-15184579D02*
X9298539Y-15222674D01*
X9298539Y-15222674D02*
X9298539Y-15270293D01*
X9298539Y-15270293D02*
X9289015Y-15308388D01*
X9289015Y-15308388D02*
X9279491Y-15327436D01*
X9279491Y-15327436D02*
X9269967Y-15336960D01*
X9269967Y-15336960D02*
X9250920Y-15346484D01*
X9250920Y-15346484D02*
X9231872Y-15346484D01*
X9231872Y-15346484D02*
X9212824Y-15336960D01*
X9212824Y-15336960D02*
X9203301Y-15327436D01*
X9203301Y-15327436D02*
X9193777Y-15308388D01*
X9193777Y-15308388D02*
X9184253Y-15270293D01*
X9184253Y-15270293D02*
X9184253Y-15222674D01*
X9184253Y-15222674D02*
X9193777Y-15184579D01*
X9193777Y-15184579D02*
X9203301Y-15165531D01*
X9203301Y-15165531D02*
X9212824Y-15156008D01*
X9212824Y-15156008D02*
X9231872Y-15146484D01*
X9384253Y-15327436D02*
X9393777Y-15336960D01*
X9393777Y-15336960D02*
X9384253Y-15346484D01*
X9384253Y-15346484D02*
X9374729Y-15336960D01*
X9374729Y-15336960D02*
X9384253Y-15327436D01*
X9384253Y-15327436D02*
X9384253Y-15346484D01*
X9565205Y-15213150D02*
X9565205Y-15346484D01*
X9517586Y-15136960D02*
X9469967Y-15279817D01*
X9469967Y-15279817D02*
X9593777Y-15279817D01*
X9708063Y-15146484D02*
X9727110Y-15146484D01*
X9727110Y-15146484D02*
X9746158Y-15156008D01*
X9746158Y-15156008D02*
X9755682Y-15165531D01*
X9755682Y-15165531D02*
X9765205Y-15184579D01*
X9765205Y-15184579D02*
X9774729Y-15222674D01*
X9774729Y-15222674D02*
X9774729Y-15270293D01*
X9774729Y-15270293D02*
X9765205Y-15308388D01*
X9765205Y-15308388D02*
X9755682Y-15327436D01*
X9755682Y-15327436D02*
X9746158Y-15336960D01*
X9746158Y-15336960D02*
X9727110Y-15346484D01*
X9727110Y-15346484D02*
X9708063Y-15346484D01*
X9708063Y-15346484D02*
X9689015Y-15336960D01*
X9689015Y-15336960D02*
X9679491Y-15327436D01*
X9679491Y-15327436D02*
X9669967Y-15308388D01*
X9669967Y-15308388D02*
X9660444Y-15270293D01*
X9660444Y-15270293D02*
X9660444Y-15222674D01*
X9660444Y-15222674D02*
X9669967Y-15184579D01*
X9669967Y-15184579D02*
X9679491Y-15165531D01*
X9679491Y-15165531D02*
X9689015Y-15156008D01*
X9689015Y-15156008D02*
X9708063Y-15146484D01*
X9898539Y-15146484D02*
X9917586Y-15146484D01*
X9917586Y-15146484D02*
X9936634Y-15156008D01*
X9936634Y-15156008D02*
X9946158Y-15165531D01*
X9946158Y-15165531D02*
X9955682Y-15184579D01*
X9955682Y-15184579D02*
X9965205Y-15222674D01*
X9965205Y-15222674D02*
X9965205Y-15270293D01*
X9965205Y-15270293D02*
X9955682Y-15308388D01*
X9955682Y-15308388D02*
X9946158Y-15327436D01*
X9946158Y-15327436D02*
X9936634Y-15336960D01*
X9936634Y-15336960D02*
X9917586Y-15346484D01*
X9917586Y-15346484D02*
X9898539Y-15346484D01*
X9898539Y-15346484D02*
X9879491Y-15336960D01*
X9879491Y-15336960D02*
X9869967Y-15327436D01*
X9869967Y-15327436D02*
X9860444Y-15308388D01*
X9860444Y-15308388D02*
X9850920Y-15270293D01*
X9850920Y-15270293D02*
X9850920Y-15222674D01*
X9850920Y-15222674D02*
X9860444Y-15184579D01*
X9860444Y-15184579D02*
X9869967Y-15165531D01*
X9869967Y-15165531D02*
X9879491Y-15156008D01*
X9879491Y-15156008D02*
X9898539Y-15146484D01*
X10050920Y-15346484D02*
X10050920Y-15213150D01*
X10050920Y-15232198D02*
X10060444Y-15222674D01*
X10060444Y-15222674D02*
X10079491Y-15213150D01*
X10079491Y-15213150D02*
X10108063Y-15213150D01*
X10108063Y-15213150D02*
X10127110Y-15222674D01*
X10127110Y-15222674D02*
X10136634Y-15241722D01*
X10136634Y-15241722D02*
X10136634Y-15346484D01*
X10136634Y-15241722D02*
X10146158Y-15222674D01*
X10146158Y-15222674D02*
X10165205Y-15213150D01*
X10165205Y-15213150D02*
X10193777Y-15213150D01*
X10193777Y-15213150D02*
X10212825Y-15222674D01*
X10212825Y-15222674D02*
X10222348Y-15241722D01*
X10222348Y-15241722D02*
X10222348Y-15346484D01*
X10317586Y-15346484D02*
X10317586Y-15213150D01*
X10317586Y-15232198D02*
X10327110Y-15222674D01*
X10327110Y-15222674D02*
X10346158Y-15213150D01*
X10346158Y-15213150D02*
X10374729Y-15213150D01*
X10374729Y-15213150D02*
X10393777Y-15222674D01*
X10393777Y-15222674D02*
X10403301Y-15241722D01*
X10403301Y-15241722D02*
X10403301Y-15346484D01*
X10403301Y-15241722D02*
X10412825Y-15222674D01*
X10412825Y-15222674D02*
X10431872Y-15213150D01*
X10431872Y-15213150D02*
X10460444Y-15213150D01*
X10460444Y-15213150D02*
X10479491Y-15222674D01*
X10479491Y-15222674D02*
X10489015Y-15241722D01*
X10489015Y-15241722D02*
X10489015Y-15346484D01*
X10879491Y-15136960D02*
X10708063Y-15394103D01*
X11136634Y-15146484D02*
X11155682Y-15146484D01*
X11155682Y-15146484D02*
X11174729Y-15156008D01*
X11174729Y-15156008D02*
X11184253Y-15165531D01*
X11184253Y-15165531D02*
X11193777Y-15184579D01*
X11193777Y-15184579D02*
X11203301Y-15222674D01*
X11203301Y-15222674D02*
X11203301Y-15270293D01*
X11203301Y-15270293D02*
X11193777Y-15308388D01*
X11193777Y-15308388D02*
X11184253Y-15327436D01*
X11184253Y-15327436D02*
X11174729Y-15336960D01*
X11174729Y-15336960D02*
X11155682Y-15346484D01*
X11155682Y-15346484D02*
X11136634Y-15346484D01*
X11136634Y-15346484D02*
X11117587Y-15336960D01*
X11117587Y-15336960D02*
X11108063Y-15327436D01*
X11108063Y-15327436D02*
X11098539Y-15308388D01*
X11098539Y-15308388D02*
X11089015Y-15270293D01*
X11089015Y-15270293D02*
X11089015Y-15222674D01*
X11089015Y-15222674D02*
X11098539Y-15184579D01*
X11098539Y-15184579D02*
X11108063Y-15165531D01*
X11108063Y-15165531D02*
X11117587Y-15156008D01*
X11117587Y-15156008D02*
X11136634Y-15146484D01*
X11289015Y-15327436D02*
X11298539Y-15336960D01*
X11298539Y-15336960D02*
X11289015Y-15346484D01*
X11289015Y-15346484D02*
X11279491Y-15336960D01*
X11279491Y-15336960D02*
X11289015Y-15327436D01*
X11289015Y-15327436D02*
X11289015Y-15346484D01*
X11422348Y-15146484D02*
X11441396Y-15146484D01*
X11441396Y-15146484D02*
X11460444Y-15156008D01*
X11460444Y-15156008D02*
X11469967Y-15165531D01*
X11469967Y-15165531D02*
X11479491Y-15184579D01*
X11479491Y-15184579D02*
X11489015Y-15222674D01*
X11489015Y-15222674D02*
X11489015Y-15270293D01*
X11489015Y-15270293D02*
X11479491Y-15308388D01*
X11479491Y-15308388D02*
X11469967Y-15327436D01*
X11469967Y-15327436D02*
X11460444Y-15336960D01*
X11460444Y-15336960D02*
X11441396Y-15346484D01*
X11441396Y-15346484D02*
X11422348Y-15346484D01*
X11422348Y-15346484D02*
X11403301Y-15336960D01*
X11403301Y-15336960D02*
X11393777Y-15327436D01*
X11393777Y-15327436D02*
X11384253Y-15308388D01*
X11384253Y-15308388D02*
X11374729Y-15270293D01*
X11374729Y-15270293D02*
X11374729Y-15222674D01*
X11374729Y-15222674D02*
X11384253Y-15184579D01*
X11384253Y-15184579D02*
X11393777Y-15165531D01*
X11393777Y-15165531D02*
X11403301Y-15156008D01*
X11403301Y-15156008D02*
X11422348Y-15146484D01*
X11679491Y-15346484D02*
X11565206Y-15346484D01*
X11622348Y-15346484D02*
X11622348Y-15146484D01*
X11622348Y-15146484D02*
X11603301Y-15175055D01*
X11603301Y-15175055D02*
X11584253Y-15194103D01*
X11584253Y-15194103D02*
X11565206Y-15203627D01*
X11860444Y-15146484D02*
X11765206Y-15146484D01*
X11765206Y-15146484D02*
X11755682Y-15241722D01*
X11755682Y-15241722D02*
X11765206Y-15232198D01*
X11765206Y-15232198D02*
X11784253Y-15222674D01*
X11784253Y-15222674D02*
X11831872Y-15222674D01*
X11831872Y-15222674D02*
X11850920Y-15232198D01*
X11850920Y-15232198D02*
X11860444Y-15241722D01*
X11860444Y-15241722D02*
X11869967Y-15260769D01*
X11869967Y-15260769D02*
X11869967Y-15308388D01*
X11869967Y-15308388D02*
X11860444Y-15327436D01*
X11860444Y-15327436D02*
X11850920Y-15336960D01*
X11850920Y-15336960D02*
X11831872Y-15346484D01*
X11831872Y-15346484D02*
X11784253Y-15346484D01*
X11784253Y-15346484D02*
X11765206Y-15336960D01*
X11765206Y-15336960D02*
X11755682Y-15327436D01*
X11936634Y-15146484D02*
X12069967Y-15146484D01*
X12069967Y-15146484D02*
X11984253Y-15346484D01*
X12136634Y-15146484D02*
X12136634Y-15184579D01*
X12212825Y-15146484D02*
X12212825Y-15184579D01*
X12508063Y-15422674D02*
X12498539Y-15413150D01*
X12498539Y-15413150D02*
X12479491Y-15384579D01*
X12479491Y-15384579D02*
X12469968Y-15365531D01*
X12469968Y-15365531D02*
X12460444Y-15336960D01*
X12460444Y-15336960D02*
X12450920Y-15289341D01*
X12450920Y-15289341D02*
X12450920Y-15251246D01*
X12450920Y-15251246D02*
X12460444Y-15203627D01*
X12460444Y-15203627D02*
X12469968Y-15175055D01*
X12469968Y-15175055D02*
X12479491Y-15156008D01*
X12479491Y-15156008D02*
X12498539Y-15127436D01*
X12498539Y-15127436D02*
X12508063Y-15117912D01*
X12574729Y-15165531D02*
X12584253Y-15156008D01*
X12584253Y-15156008D02*
X12603301Y-15146484D01*
X12603301Y-15146484D02*
X12650920Y-15146484D01*
X12650920Y-15146484D02*
X12669968Y-15156008D01*
X12669968Y-15156008D02*
X12679491Y-15165531D01*
X12679491Y-15165531D02*
X12689015Y-15184579D01*
X12689015Y-15184579D02*
X12689015Y-15203627D01*
X12689015Y-15203627D02*
X12679491Y-15232198D01*
X12679491Y-15232198D02*
X12565206Y-15346484D01*
X12565206Y-15346484D02*
X12689015Y-15346484D01*
X12812825Y-15146484D02*
X12831872Y-15146484D01*
X12831872Y-15146484D02*
X12850920Y-15156008D01*
X12850920Y-15156008D02*
X12860444Y-15165531D01*
X12860444Y-15165531D02*
X12869968Y-15184579D01*
X12869968Y-15184579D02*
X12879491Y-15222674D01*
X12879491Y-15222674D02*
X12879491Y-15270293D01*
X12879491Y-15270293D02*
X12869968Y-15308388D01*
X12869968Y-15308388D02*
X12860444Y-15327436D01*
X12860444Y-15327436D02*
X12850920Y-15336960D01*
X12850920Y-15336960D02*
X12831872Y-15346484D01*
X12831872Y-15346484D02*
X12812825Y-15346484D01*
X12812825Y-15346484D02*
X12793777Y-15336960D01*
X12793777Y-15336960D02*
X12784253Y-15327436D01*
X12784253Y-15327436D02*
X12774729Y-15308388D01*
X12774729Y-15308388D02*
X12765206Y-15270293D01*
X12765206Y-15270293D02*
X12765206Y-15222674D01*
X12765206Y-15222674D02*
X12774729Y-15184579D01*
X12774729Y-15184579D02*
X12784253Y-15165531D01*
X12784253Y-15165531D02*
X12793777Y-15156008D01*
X12793777Y-15156008D02*
X12812825Y-15146484D01*
X13117587Y-15346484D02*
X13117587Y-15146484D01*
X13203301Y-15346484D02*
X13203301Y-15241722D01*
X13203301Y-15241722D02*
X13193777Y-15222674D01*
X13193777Y-15222674D02*
X13174730Y-15213150D01*
X13174730Y-15213150D02*
X13146158Y-15213150D01*
X13146158Y-15213150D02*
X13127110Y-15222674D01*
X13127110Y-15222674D02*
X13117587Y-15232198D01*
X13327110Y-15346484D02*
X13308063Y-15336960D01*
X13308063Y-15336960D02*
X13298539Y-15327436D01*
X13298539Y-15327436D02*
X13289015Y-15308388D01*
X13289015Y-15308388D02*
X13289015Y-15251246D01*
X13289015Y-15251246D02*
X13298539Y-15232198D01*
X13298539Y-15232198D02*
X13308063Y-15222674D01*
X13308063Y-15222674D02*
X13327110Y-15213150D01*
X13327110Y-15213150D02*
X13355682Y-15213150D01*
X13355682Y-15213150D02*
X13374730Y-15222674D01*
X13374730Y-15222674D02*
X13384253Y-15232198D01*
X13384253Y-15232198D02*
X13393777Y-15251246D01*
X13393777Y-15251246D02*
X13393777Y-15308388D01*
X13393777Y-15308388D02*
X13384253Y-15327436D01*
X13384253Y-15327436D02*
X13374730Y-15336960D01*
X13374730Y-15336960D02*
X13355682Y-15346484D01*
X13355682Y-15346484D02*
X13327110Y-15346484D01*
X13508063Y-15346484D02*
X13489015Y-15336960D01*
X13489015Y-15336960D02*
X13479491Y-15317912D01*
X13479491Y-15317912D02*
X13479491Y-15146484D01*
X13660444Y-15336960D02*
X13641396Y-15346484D01*
X13641396Y-15346484D02*
X13603301Y-15346484D01*
X13603301Y-15346484D02*
X13584253Y-15336960D01*
X13584253Y-15336960D02*
X13574730Y-15317912D01*
X13574730Y-15317912D02*
X13574730Y-15241722D01*
X13574730Y-15241722D02*
X13584253Y-15222674D01*
X13584253Y-15222674D02*
X13603301Y-15213150D01*
X13603301Y-15213150D02*
X13641396Y-15213150D01*
X13641396Y-15213150D02*
X13660444Y-15222674D01*
X13660444Y-15222674D02*
X13669968Y-15241722D01*
X13669968Y-15241722D02*
X13669968Y-15260769D01*
X13669968Y-15260769D02*
X13574730Y-15279817D01*
X13746158Y-15336960D02*
X13765206Y-15346484D01*
X13765206Y-15346484D02*
X13803301Y-15346484D01*
X13803301Y-15346484D02*
X13822349Y-15336960D01*
X13822349Y-15336960D02*
X13831872Y-15317912D01*
X13831872Y-15317912D02*
X13831872Y-15308388D01*
X13831872Y-15308388D02*
X13822349Y-15289341D01*
X13822349Y-15289341D02*
X13803301Y-15279817D01*
X13803301Y-15279817D02*
X13774730Y-15279817D01*
X13774730Y-15279817D02*
X13755682Y-15270293D01*
X13755682Y-15270293D02*
X13746158Y-15251246D01*
X13746158Y-15251246D02*
X13746158Y-15241722D01*
X13746158Y-15241722D02*
X13755682Y-15222674D01*
X13755682Y-15222674D02*
X13774730Y-15213150D01*
X13774730Y-15213150D02*
X13803301Y-15213150D01*
X13803301Y-15213150D02*
X13822349Y-15222674D01*
X13898539Y-15422674D02*
X13908063Y-15413150D01*
X13908063Y-15413150D02*
X13927111Y-15384579D01*
X13927111Y-15384579D02*
X13936634Y-15365531D01*
X13936634Y-15365531D02*
X13946158Y-15336960D01*
X13946158Y-15336960D02*
X13955682Y-15289341D01*
X13955682Y-15289341D02*
X13955682Y-15251246D01*
X13955682Y-15251246D02*
X13946158Y-15203627D01*
X13946158Y-15203627D02*
X13936634Y-15175055D01*
X13936634Y-15175055D02*
X13927111Y-15156008D01*
X13927111Y-15156008D02*
X13908063Y-15127436D01*
X13908063Y-15127436D02*
X13898539Y-15117912D01*
D12*
X8933000Y-15519000D02*
G75*
G03*
X8933000Y-15519000I-40000J0D01*
G01*
D10*
X9231872Y-15410484D02*
X9250920Y-15410484D01*
X9250920Y-15410484D02*
X9269967Y-15420008D01*
X9269967Y-15420008D02*
X9279491Y-15429531D01*
X9279491Y-15429531D02*
X9289015Y-15448579D01*
X9289015Y-15448579D02*
X9298539Y-15486674D01*
X9298539Y-15486674D02*
X9298539Y-15534293D01*
X9298539Y-15534293D02*
X9289015Y-15572388D01*
X9289015Y-15572388D02*
X9279491Y-15591436D01*
X9279491Y-15591436D02*
X9269967Y-15600960D01*
X9269967Y-15600960D02*
X9250920Y-15610484D01*
X9250920Y-15610484D02*
X9231872Y-15610484D01*
X9231872Y-15610484D02*
X9212824Y-15600960D01*
X9212824Y-15600960D02*
X9203301Y-15591436D01*
X9203301Y-15591436D02*
X9193777Y-15572388D01*
X9193777Y-15572388D02*
X9184253Y-15534293D01*
X9184253Y-15534293D02*
X9184253Y-15486674D01*
X9184253Y-15486674D02*
X9193777Y-15448579D01*
X9193777Y-15448579D02*
X9203301Y-15429531D01*
X9203301Y-15429531D02*
X9212824Y-15420008D01*
X9212824Y-15420008D02*
X9231872Y-15410484D01*
X9384253Y-15591436D02*
X9393777Y-15600960D01*
X9393777Y-15600960D02*
X9384253Y-15610484D01*
X9384253Y-15610484D02*
X9374729Y-15600960D01*
X9374729Y-15600960D02*
X9384253Y-15591436D01*
X9384253Y-15591436D02*
X9384253Y-15610484D01*
X9508063Y-15496198D02*
X9489015Y-15486674D01*
X9489015Y-15486674D02*
X9479491Y-15477150D01*
X9479491Y-15477150D02*
X9469967Y-15458103D01*
X9469967Y-15458103D02*
X9469967Y-15448579D01*
X9469967Y-15448579D02*
X9479491Y-15429531D01*
X9479491Y-15429531D02*
X9489015Y-15420008D01*
X9489015Y-15420008D02*
X9508063Y-15410484D01*
X9508063Y-15410484D02*
X9546158Y-15410484D01*
X9546158Y-15410484D02*
X9565205Y-15420008D01*
X9565205Y-15420008D02*
X9574729Y-15429531D01*
X9574729Y-15429531D02*
X9584253Y-15448579D01*
X9584253Y-15448579D02*
X9584253Y-15458103D01*
X9584253Y-15458103D02*
X9574729Y-15477150D01*
X9574729Y-15477150D02*
X9565205Y-15486674D01*
X9565205Y-15486674D02*
X9546158Y-15496198D01*
X9546158Y-15496198D02*
X9508063Y-15496198D01*
X9508063Y-15496198D02*
X9489015Y-15505722D01*
X9489015Y-15505722D02*
X9479491Y-15515246D01*
X9479491Y-15515246D02*
X9469967Y-15534293D01*
X9469967Y-15534293D02*
X9469967Y-15572388D01*
X9469967Y-15572388D02*
X9479491Y-15591436D01*
X9479491Y-15591436D02*
X9489015Y-15600960D01*
X9489015Y-15600960D02*
X9508063Y-15610484D01*
X9508063Y-15610484D02*
X9546158Y-15610484D01*
X9546158Y-15610484D02*
X9565205Y-15600960D01*
X9565205Y-15600960D02*
X9574729Y-15591436D01*
X9574729Y-15591436D02*
X9584253Y-15572388D01*
X9584253Y-15572388D02*
X9584253Y-15534293D01*
X9584253Y-15534293D02*
X9574729Y-15515246D01*
X9574729Y-15515246D02*
X9565205Y-15505722D01*
X9565205Y-15505722D02*
X9546158Y-15496198D01*
X9708063Y-15410484D02*
X9727110Y-15410484D01*
X9727110Y-15410484D02*
X9746158Y-15420008D01*
X9746158Y-15420008D02*
X9755682Y-15429531D01*
X9755682Y-15429531D02*
X9765205Y-15448579D01*
X9765205Y-15448579D02*
X9774729Y-15486674D01*
X9774729Y-15486674D02*
X9774729Y-15534293D01*
X9774729Y-15534293D02*
X9765205Y-15572388D01*
X9765205Y-15572388D02*
X9755682Y-15591436D01*
X9755682Y-15591436D02*
X9746158Y-15600960D01*
X9746158Y-15600960D02*
X9727110Y-15610484D01*
X9727110Y-15610484D02*
X9708063Y-15610484D01*
X9708063Y-15610484D02*
X9689015Y-15600960D01*
X9689015Y-15600960D02*
X9679491Y-15591436D01*
X9679491Y-15591436D02*
X9669967Y-15572388D01*
X9669967Y-15572388D02*
X9660444Y-15534293D01*
X9660444Y-15534293D02*
X9660444Y-15486674D01*
X9660444Y-15486674D02*
X9669967Y-15448579D01*
X9669967Y-15448579D02*
X9679491Y-15429531D01*
X9679491Y-15429531D02*
X9689015Y-15420008D01*
X9689015Y-15420008D02*
X9708063Y-15410484D01*
X9898539Y-15410484D02*
X9917586Y-15410484D01*
X9917586Y-15410484D02*
X9936634Y-15420008D01*
X9936634Y-15420008D02*
X9946158Y-15429531D01*
X9946158Y-15429531D02*
X9955682Y-15448579D01*
X9955682Y-15448579D02*
X9965205Y-15486674D01*
X9965205Y-15486674D02*
X9965205Y-15534293D01*
X9965205Y-15534293D02*
X9955682Y-15572388D01*
X9955682Y-15572388D02*
X9946158Y-15591436D01*
X9946158Y-15591436D02*
X9936634Y-15600960D01*
X9936634Y-15600960D02*
X9917586Y-15610484D01*
X9917586Y-15610484D02*
X9898539Y-15610484D01*
X9898539Y-15610484D02*
X9879491Y-15600960D01*
X9879491Y-15600960D02*
X9869967Y-15591436D01*
X9869967Y-15591436D02*
X9860444Y-15572388D01*
X9860444Y-15572388D02*
X9850920Y-15534293D01*
X9850920Y-15534293D02*
X9850920Y-15486674D01*
X9850920Y-15486674D02*
X9860444Y-15448579D01*
X9860444Y-15448579D02*
X9869967Y-15429531D01*
X9869967Y-15429531D02*
X9879491Y-15420008D01*
X9879491Y-15420008D02*
X9898539Y-15410484D01*
X10050920Y-15610484D02*
X10050920Y-15477150D01*
X10050920Y-15496198D02*
X10060444Y-15486674D01*
X10060444Y-15486674D02*
X10079491Y-15477150D01*
X10079491Y-15477150D02*
X10108063Y-15477150D01*
X10108063Y-15477150D02*
X10127110Y-15486674D01*
X10127110Y-15486674D02*
X10136634Y-15505722D01*
X10136634Y-15505722D02*
X10136634Y-15610484D01*
X10136634Y-15505722D02*
X10146158Y-15486674D01*
X10146158Y-15486674D02*
X10165205Y-15477150D01*
X10165205Y-15477150D02*
X10193777Y-15477150D01*
X10193777Y-15477150D02*
X10212825Y-15486674D01*
X10212825Y-15486674D02*
X10222348Y-15505722D01*
X10222348Y-15505722D02*
X10222348Y-15610484D01*
X10317586Y-15610484D02*
X10317586Y-15477150D01*
X10317586Y-15496198D02*
X10327110Y-15486674D01*
X10327110Y-15486674D02*
X10346158Y-15477150D01*
X10346158Y-15477150D02*
X10374729Y-15477150D01*
X10374729Y-15477150D02*
X10393777Y-15486674D01*
X10393777Y-15486674D02*
X10403301Y-15505722D01*
X10403301Y-15505722D02*
X10403301Y-15610484D01*
X10403301Y-15505722D02*
X10412825Y-15486674D01*
X10412825Y-15486674D02*
X10431872Y-15477150D01*
X10431872Y-15477150D02*
X10460444Y-15477150D01*
X10460444Y-15477150D02*
X10479491Y-15486674D01*
X10479491Y-15486674D02*
X10489015Y-15505722D01*
X10489015Y-15505722D02*
X10489015Y-15610484D01*
X10879491Y-15400960D02*
X10708063Y-15658103D01*
X11136634Y-15410484D02*
X11155682Y-15410484D01*
X11155682Y-15410484D02*
X11174729Y-15420008D01*
X11174729Y-15420008D02*
X11184253Y-15429531D01*
X11184253Y-15429531D02*
X11193777Y-15448579D01*
X11193777Y-15448579D02*
X11203301Y-15486674D01*
X11203301Y-15486674D02*
X11203301Y-15534293D01*
X11203301Y-15534293D02*
X11193777Y-15572388D01*
X11193777Y-15572388D02*
X11184253Y-15591436D01*
X11184253Y-15591436D02*
X11174729Y-15600960D01*
X11174729Y-15600960D02*
X11155682Y-15610484D01*
X11155682Y-15610484D02*
X11136634Y-15610484D01*
X11136634Y-15610484D02*
X11117587Y-15600960D01*
X11117587Y-15600960D02*
X11108063Y-15591436D01*
X11108063Y-15591436D02*
X11098539Y-15572388D01*
X11098539Y-15572388D02*
X11089015Y-15534293D01*
X11089015Y-15534293D02*
X11089015Y-15486674D01*
X11089015Y-15486674D02*
X11098539Y-15448579D01*
X11098539Y-15448579D02*
X11108063Y-15429531D01*
X11108063Y-15429531D02*
X11117587Y-15420008D01*
X11117587Y-15420008D02*
X11136634Y-15410484D01*
X11289015Y-15591436D02*
X11298539Y-15600960D01*
X11298539Y-15600960D02*
X11289015Y-15610484D01*
X11289015Y-15610484D02*
X11279491Y-15600960D01*
X11279491Y-15600960D02*
X11289015Y-15591436D01*
X11289015Y-15591436D02*
X11289015Y-15610484D01*
X11422348Y-15410484D02*
X11441396Y-15410484D01*
X11441396Y-15410484D02*
X11460444Y-15420008D01*
X11460444Y-15420008D02*
X11469967Y-15429531D01*
X11469967Y-15429531D02*
X11479491Y-15448579D01*
X11479491Y-15448579D02*
X11489015Y-15486674D01*
X11489015Y-15486674D02*
X11489015Y-15534293D01*
X11489015Y-15534293D02*
X11479491Y-15572388D01*
X11479491Y-15572388D02*
X11469967Y-15591436D01*
X11469967Y-15591436D02*
X11460444Y-15600960D01*
X11460444Y-15600960D02*
X11441396Y-15610484D01*
X11441396Y-15610484D02*
X11422348Y-15610484D01*
X11422348Y-15610484D02*
X11403301Y-15600960D01*
X11403301Y-15600960D02*
X11393777Y-15591436D01*
X11393777Y-15591436D02*
X11384253Y-15572388D01*
X11384253Y-15572388D02*
X11374729Y-15534293D01*
X11374729Y-15534293D02*
X11374729Y-15486674D01*
X11374729Y-15486674D02*
X11384253Y-15448579D01*
X11384253Y-15448579D02*
X11393777Y-15429531D01*
X11393777Y-15429531D02*
X11403301Y-15420008D01*
X11403301Y-15420008D02*
X11422348Y-15410484D01*
X11555682Y-15410484D02*
X11679491Y-15410484D01*
X11679491Y-15410484D02*
X11612825Y-15486674D01*
X11612825Y-15486674D02*
X11641396Y-15486674D01*
X11641396Y-15486674D02*
X11660444Y-15496198D01*
X11660444Y-15496198D02*
X11669967Y-15505722D01*
X11669967Y-15505722D02*
X11679491Y-15524769D01*
X11679491Y-15524769D02*
X11679491Y-15572388D01*
X11679491Y-15572388D02*
X11669967Y-15591436D01*
X11669967Y-15591436D02*
X11660444Y-15600960D01*
X11660444Y-15600960D02*
X11641396Y-15610484D01*
X11641396Y-15610484D02*
X11584253Y-15610484D01*
X11584253Y-15610484D02*
X11565206Y-15600960D01*
X11565206Y-15600960D02*
X11555682Y-15591436D01*
X11869967Y-15610484D02*
X11755682Y-15610484D01*
X11812825Y-15610484D02*
X11812825Y-15410484D01*
X11812825Y-15410484D02*
X11793777Y-15439055D01*
X11793777Y-15439055D02*
X11774729Y-15458103D01*
X11774729Y-15458103D02*
X11755682Y-15467627D01*
X12050920Y-15410484D02*
X11955682Y-15410484D01*
X11955682Y-15410484D02*
X11946158Y-15505722D01*
X11946158Y-15505722D02*
X11955682Y-15496198D01*
X11955682Y-15496198D02*
X11974729Y-15486674D01*
X11974729Y-15486674D02*
X12022348Y-15486674D01*
X12022348Y-15486674D02*
X12041396Y-15496198D01*
X12041396Y-15496198D02*
X12050920Y-15505722D01*
X12050920Y-15505722D02*
X12060444Y-15524769D01*
X12060444Y-15524769D02*
X12060444Y-15572388D01*
X12060444Y-15572388D02*
X12050920Y-15591436D01*
X12050920Y-15591436D02*
X12041396Y-15600960D01*
X12041396Y-15600960D02*
X12022348Y-15610484D01*
X12022348Y-15610484D02*
X11974729Y-15610484D01*
X11974729Y-15610484D02*
X11955682Y-15600960D01*
X11955682Y-15600960D02*
X11946158Y-15591436D01*
X12136634Y-15410484D02*
X12136634Y-15448579D01*
X12212825Y-15410484D02*
X12212825Y-15448579D01*
X12508063Y-15686674D02*
X12498539Y-15677150D01*
X12498539Y-15677150D02*
X12479491Y-15648579D01*
X12479491Y-15648579D02*
X12469968Y-15629531D01*
X12469968Y-15629531D02*
X12460444Y-15600960D01*
X12460444Y-15600960D02*
X12450920Y-15553341D01*
X12450920Y-15553341D02*
X12450920Y-15515246D01*
X12450920Y-15515246D02*
X12460444Y-15467627D01*
X12460444Y-15467627D02*
X12469968Y-15439055D01*
X12469968Y-15439055D02*
X12479491Y-15420008D01*
X12479491Y-15420008D02*
X12498539Y-15391436D01*
X12498539Y-15391436D02*
X12508063Y-15381912D01*
X12565206Y-15410484D02*
X12689015Y-15410484D01*
X12689015Y-15410484D02*
X12622348Y-15486674D01*
X12622348Y-15486674D02*
X12650920Y-15486674D01*
X12650920Y-15486674D02*
X12669968Y-15496198D01*
X12669968Y-15496198D02*
X12679491Y-15505722D01*
X12679491Y-15505722D02*
X12689015Y-15524769D01*
X12689015Y-15524769D02*
X12689015Y-15572388D01*
X12689015Y-15572388D02*
X12679491Y-15591436D01*
X12679491Y-15591436D02*
X12669968Y-15600960D01*
X12669968Y-15600960D02*
X12650920Y-15610484D01*
X12650920Y-15610484D02*
X12593777Y-15610484D01*
X12593777Y-15610484D02*
X12574729Y-15600960D01*
X12574729Y-15600960D02*
X12565206Y-15591436D01*
X12860444Y-15477150D02*
X12860444Y-15610484D01*
X12812825Y-15400960D02*
X12765206Y-15543817D01*
X12765206Y-15543817D02*
X12889015Y-15543817D01*
X12993777Y-15496198D02*
X12974729Y-15486674D01*
X12974729Y-15486674D02*
X12965206Y-15477150D01*
X12965206Y-15477150D02*
X12955682Y-15458103D01*
X12955682Y-15458103D02*
X12955682Y-15448579D01*
X12955682Y-15448579D02*
X12965206Y-15429531D01*
X12965206Y-15429531D02*
X12974729Y-15420008D01*
X12974729Y-15420008D02*
X12993777Y-15410484D01*
X12993777Y-15410484D02*
X13031872Y-15410484D01*
X13031872Y-15410484D02*
X13050920Y-15420008D01*
X13050920Y-15420008D02*
X13060444Y-15429531D01*
X13060444Y-15429531D02*
X13069968Y-15448579D01*
X13069968Y-15448579D02*
X13069968Y-15458103D01*
X13069968Y-15458103D02*
X13060444Y-15477150D01*
X13060444Y-15477150D02*
X13050920Y-15486674D01*
X13050920Y-15486674D02*
X13031872Y-15496198D01*
X13031872Y-15496198D02*
X12993777Y-15496198D01*
X12993777Y-15496198D02*
X12974729Y-15505722D01*
X12974729Y-15505722D02*
X12965206Y-15515246D01*
X12965206Y-15515246D02*
X12955682Y-15534293D01*
X12955682Y-15534293D02*
X12955682Y-15572388D01*
X12955682Y-15572388D02*
X12965206Y-15591436D01*
X12965206Y-15591436D02*
X12974729Y-15600960D01*
X12974729Y-15600960D02*
X12993777Y-15610484D01*
X12993777Y-15610484D02*
X13031872Y-15610484D01*
X13031872Y-15610484D02*
X13050920Y-15600960D01*
X13050920Y-15600960D02*
X13060444Y-15591436D01*
X13060444Y-15591436D02*
X13069968Y-15572388D01*
X13069968Y-15572388D02*
X13069968Y-15534293D01*
X13069968Y-15534293D02*
X13060444Y-15515246D01*
X13060444Y-15515246D02*
X13050920Y-15505722D01*
X13050920Y-15505722D02*
X13031872Y-15496198D01*
X13308063Y-15610484D02*
X13308063Y-15410484D01*
X13393777Y-15610484D02*
X13393777Y-15505722D01*
X13393777Y-15505722D02*
X13384253Y-15486674D01*
X13384253Y-15486674D02*
X13365206Y-15477150D01*
X13365206Y-15477150D02*
X13336634Y-15477150D01*
X13336634Y-15477150D02*
X13317587Y-15486674D01*
X13317587Y-15486674D02*
X13308063Y-15496198D01*
X13517587Y-15610484D02*
X13498539Y-15600960D01*
X13498539Y-15600960D02*
X13489015Y-15591436D01*
X13489015Y-15591436D02*
X13479491Y-15572388D01*
X13479491Y-15572388D02*
X13479491Y-15515246D01*
X13479491Y-15515246D02*
X13489015Y-15496198D01*
X13489015Y-15496198D02*
X13498539Y-15486674D01*
X13498539Y-15486674D02*
X13517587Y-15477150D01*
X13517587Y-15477150D02*
X13546158Y-15477150D01*
X13546158Y-15477150D02*
X13565206Y-15486674D01*
X13565206Y-15486674D02*
X13574730Y-15496198D01*
X13574730Y-15496198D02*
X13584253Y-15515246D01*
X13584253Y-15515246D02*
X13584253Y-15572388D01*
X13584253Y-15572388D02*
X13574730Y-15591436D01*
X13574730Y-15591436D02*
X13565206Y-15600960D01*
X13565206Y-15600960D02*
X13546158Y-15610484D01*
X13546158Y-15610484D02*
X13517587Y-15610484D01*
X13698539Y-15610484D02*
X13679491Y-15600960D01*
X13679491Y-15600960D02*
X13669968Y-15581912D01*
X13669968Y-15581912D02*
X13669968Y-15410484D01*
X13850920Y-15600960D02*
X13831872Y-15610484D01*
X13831872Y-15610484D02*
X13793777Y-15610484D01*
X13793777Y-15610484D02*
X13774730Y-15600960D01*
X13774730Y-15600960D02*
X13765206Y-15581912D01*
X13765206Y-15581912D02*
X13765206Y-15505722D01*
X13765206Y-15505722D02*
X13774730Y-15486674D01*
X13774730Y-15486674D02*
X13793777Y-15477150D01*
X13793777Y-15477150D02*
X13831872Y-15477150D01*
X13831872Y-15477150D02*
X13850920Y-15486674D01*
X13850920Y-15486674D02*
X13860444Y-15505722D01*
X13860444Y-15505722D02*
X13860444Y-15524769D01*
X13860444Y-15524769D02*
X13765206Y-15543817D01*
X13936634Y-15600960D02*
X13955682Y-15610484D01*
X13955682Y-15610484D02*
X13993777Y-15610484D01*
X13993777Y-15610484D02*
X14012825Y-15600960D01*
X14012825Y-15600960D02*
X14022349Y-15581912D01*
X14022349Y-15581912D02*
X14022349Y-15572388D01*
X14022349Y-15572388D02*
X14012825Y-15553341D01*
X14012825Y-15553341D02*
X13993777Y-15543817D01*
X13993777Y-15543817D02*
X13965206Y-15543817D01*
X13965206Y-15543817D02*
X13946158Y-15534293D01*
X13946158Y-15534293D02*
X13936634Y-15515246D01*
X13936634Y-15515246D02*
X13936634Y-15505722D01*
X13936634Y-15505722D02*
X13946158Y-15486674D01*
X13946158Y-15486674D02*
X13965206Y-15477150D01*
X13965206Y-15477150D02*
X13993777Y-15477150D01*
X13993777Y-15477150D02*
X14012825Y-15486674D01*
X14089015Y-15686674D02*
X14098539Y-15677150D01*
X14098539Y-15677150D02*
X14117587Y-15648579D01*
X14117587Y-15648579D02*
X14127111Y-15629531D01*
X14127111Y-15629531D02*
X14136634Y-15600960D01*
X14136634Y-15600960D02*
X14146158Y-15553341D01*
X14146158Y-15553341D02*
X14146158Y-15515246D01*
X14146158Y-15515246D02*
X14136634Y-15467627D01*
X14136634Y-15467627D02*
X14127111Y-15439055D01*
X14127111Y-15439055D02*
X14117587Y-15420008D01*
X14117587Y-15420008D02*
X14098539Y-15391436D01*
X14098539Y-15391436D02*
X14089015Y-15381912D01*
D13*
X8888000Y-15738000D02*
X8888000Y-15828000D01*
X8843000Y-15783000D02*
X8933000Y-15783000D01*
D10*
X9231872Y-15674484D02*
X9250920Y-15674484D01*
X9250920Y-15674484D02*
X9269967Y-15684008D01*
X9269967Y-15684008D02*
X9279491Y-15693531D01*
X9279491Y-15693531D02*
X9289015Y-15712579D01*
X9289015Y-15712579D02*
X9298539Y-15750674D01*
X9298539Y-15750674D02*
X9298539Y-15798293D01*
X9298539Y-15798293D02*
X9289015Y-15836388D01*
X9289015Y-15836388D02*
X9279491Y-15855436D01*
X9279491Y-15855436D02*
X9269967Y-15864960D01*
X9269967Y-15864960D02*
X9250920Y-15874484D01*
X9250920Y-15874484D02*
X9231872Y-15874484D01*
X9231872Y-15874484D02*
X9212824Y-15864960D01*
X9212824Y-15864960D02*
X9203301Y-15855436D01*
X9203301Y-15855436D02*
X9193777Y-15836388D01*
X9193777Y-15836388D02*
X9184253Y-15798293D01*
X9184253Y-15798293D02*
X9184253Y-15750674D01*
X9184253Y-15750674D02*
X9193777Y-15712579D01*
X9193777Y-15712579D02*
X9203301Y-15693531D01*
X9203301Y-15693531D02*
X9212824Y-15684008D01*
X9212824Y-15684008D02*
X9231872Y-15674484D01*
X9384253Y-15855436D02*
X9393777Y-15864960D01*
X9393777Y-15864960D02*
X9384253Y-15874484D01*
X9384253Y-15874484D02*
X9374729Y-15864960D01*
X9374729Y-15864960D02*
X9384253Y-15855436D01*
X9384253Y-15855436D02*
X9384253Y-15874484D01*
X9489015Y-15874484D02*
X9527110Y-15874484D01*
X9527110Y-15874484D02*
X9546158Y-15864960D01*
X9546158Y-15864960D02*
X9555682Y-15855436D01*
X9555682Y-15855436D02*
X9574729Y-15826865D01*
X9574729Y-15826865D02*
X9584253Y-15788769D01*
X9584253Y-15788769D02*
X9584253Y-15712579D01*
X9584253Y-15712579D02*
X9574729Y-15693531D01*
X9574729Y-15693531D02*
X9565205Y-15684008D01*
X9565205Y-15684008D02*
X9546158Y-15674484D01*
X9546158Y-15674484D02*
X9508063Y-15674484D01*
X9508063Y-15674484D02*
X9489015Y-15684008D01*
X9489015Y-15684008D02*
X9479491Y-15693531D01*
X9479491Y-15693531D02*
X9469967Y-15712579D01*
X9469967Y-15712579D02*
X9469967Y-15760198D01*
X9469967Y-15760198D02*
X9479491Y-15779246D01*
X9479491Y-15779246D02*
X9489015Y-15788769D01*
X9489015Y-15788769D02*
X9508063Y-15798293D01*
X9508063Y-15798293D02*
X9546158Y-15798293D01*
X9546158Y-15798293D02*
X9565205Y-15788769D01*
X9565205Y-15788769D02*
X9574729Y-15779246D01*
X9574729Y-15779246D02*
X9584253Y-15760198D01*
X9708063Y-15674484D02*
X9727110Y-15674484D01*
X9727110Y-15674484D02*
X9746158Y-15684008D01*
X9746158Y-15684008D02*
X9755682Y-15693531D01*
X9755682Y-15693531D02*
X9765205Y-15712579D01*
X9765205Y-15712579D02*
X9774729Y-15750674D01*
X9774729Y-15750674D02*
X9774729Y-15798293D01*
X9774729Y-15798293D02*
X9765205Y-15836388D01*
X9765205Y-15836388D02*
X9755682Y-15855436D01*
X9755682Y-15855436D02*
X9746158Y-15864960D01*
X9746158Y-15864960D02*
X9727110Y-15874484D01*
X9727110Y-15874484D02*
X9708063Y-15874484D01*
X9708063Y-15874484D02*
X9689015Y-15864960D01*
X9689015Y-15864960D02*
X9679491Y-15855436D01*
X9679491Y-15855436D02*
X9669967Y-15836388D01*
X9669967Y-15836388D02*
X9660444Y-15798293D01*
X9660444Y-15798293D02*
X9660444Y-15750674D01*
X9660444Y-15750674D02*
X9669967Y-15712579D01*
X9669967Y-15712579D02*
X9679491Y-15693531D01*
X9679491Y-15693531D02*
X9689015Y-15684008D01*
X9689015Y-15684008D02*
X9708063Y-15674484D01*
X9898539Y-15674484D02*
X9917586Y-15674484D01*
X9917586Y-15674484D02*
X9936634Y-15684008D01*
X9936634Y-15684008D02*
X9946158Y-15693531D01*
X9946158Y-15693531D02*
X9955682Y-15712579D01*
X9955682Y-15712579D02*
X9965205Y-15750674D01*
X9965205Y-15750674D02*
X9965205Y-15798293D01*
X9965205Y-15798293D02*
X9955682Y-15836388D01*
X9955682Y-15836388D02*
X9946158Y-15855436D01*
X9946158Y-15855436D02*
X9936634Y-15864960D01*
X9936634Y-15864960D02*
X9917586Y-15874484D01*
X9917586Y-15874484D02*
X9898539Y-15874484D01*
X9898539Y-15874484D02*
X9879491Y-15864960D01*
X9879491Y-15864960D02*
X9869967Y-15855436D01*
X9869967Y-15855436D02*
X9860444Y-15836388D01*
X9860444Y-15836388D02*
X9850920Y-15798293D01*
X9850920Y-15798293D02*
X9850920Y-15750674D01*
X9850920Y-15750674D02*
X9860444Y-15712579D01*
X9860444Y-15712579D02*
X9869967Y-15693531D01*
X9869967Y-15693531D02*
X9879491Y-15684008D01*
X9879491Y-15684008D02*
X9898539Y-15674484D01*
X10050920Y-15874484D02*
X10050920Y-15741150D01*
X10050920Y-15760198D02*
X10060444Y-15750674D01*
X10060444Y-15750674D02*
X10079491Y-15741150D01*
X10079491Y-15741150D02*
X10108063Y-15741150D01*
X10108063Y-15741150D02*
X10127110Y-15750674D01*
X10127110Y-15750674D02*
X10136634Y-15769722D01*
X10136634Y-15769722D02*
X10136634Y-15874484D01*
X10136634Y-15769722D02*
X10146158Y-15750674D01*
X10146158Y-15750674D02*
X10165205Y-15741150D01*
X10165205Y-15741150D02*
X10193777Y-15741150D01*
X10193777Y-15741150D02*
X10212825Y-15750674D01*
X10212825Y-15750674D02*
X10222348Y-15769722D01*
X10222348Y-15769722D02*
X10222348Y-15874484D01*
X10317586Y-15874484D02*
X10317586Y-15741150D01*
X10317586Y-15760198D02*
X10327110Y-15750674D01*
X10327110Y-15750674D02*
X10346158Y-15741150D01*
X10346158Y-15741150D02*
X10374729Y-15741150D01*
X10374729Y-15741150D02*
X10393777Y-15750674D01*
X10393777Y-15750674D02*
X10403301Y-15769722D01*
X10403301Y-15769722D02*
X10403301Y-15874484D01*
X10403301Y-15769722D02*
X10412825Y-15750674D01*
X10412825Y-15750674D02*
X10431872Y-15741150D01*
X10431872Y-15741150D02*
X10460444Y-15741150D01*
X10460444Y-15741150D02*
X10479491Y-15750674D01*
X10479491Y-15750674D02*
X10489015Y-15769722D01*
X10489015Y-15769722D02*
X10489015Y-15874484D01*
X10879491Y-15664960D02*
X10708063Y-15922103D01*
X11136634Y-15674484D02*
X11155682Y-15674484D01*
X11155682Y-15674484D02*
X11174729Y-15684008D01*
X11174729Y-15684008D02*
X11184253Y-15693531D01*
X11184253Y-15693531D02*
X11193777Y-15712579D01*
X11193777Y-15712579D02*
X11203301Y-15750674D01*
X11203301Y-15750674D02*
X11203301Y-15798293D01*
X11203301Y-15798293D02*
X11193777Y-15836388D01*
X11193777Y-15836388D02*
X11184253Y-15855436D01*
X11184253Y-15855436D02*
X11174729Y-15864960D01*
X11174729Y-15864960D02*
X11155682Y-15874484D01*
X11155682Y-15874484D02*
X11136634Y-15874484D01*
X11136634Y-15874484D02*
X11117587Y-15864960D01*
X11117587Y-15864960D02*
X11108063Y-15855436D01*
X11108063Y-15855436D02*
X11098539Y-15836388D01*
X11098539Y-15836388D02*
X11089015Y-15798293D01*
X11089015Y-15798293D02*
X11089015Y-15750674D01*
X11089015Y-15750674D02*
X11098539Y-15712579D01*
X11098539Y-15712579D02*
X11108063Y-15693531D01*
X11108063Y-15693531D02*
X11117587Y-15684008D01*
X11117587Y-15684008D02*
X11136634Y-15674484D01*
X11289015Y-15855436D02*
X11298539Y-15864960D01*
X11298539Y-15864960D02*
X11289015Y-15874484D01*
X11289015Y-15874484D02*
X11279491Y-15864960D01*
X11279491Y-15864960D02*
X11289015Y-15855436D01*
X11289015Y-15855436D02*
X11289015Y-15874484D01*
X11422348Y-15674484D02*
X11441396Y-15674484D01*
X11441396Y-15674484D02*
X11460444Y-15684008D01*
X11460444Y-15684008D02*
X11469967Y-15693531D01*
X11469967Y-15693531D02*
X11479491Y-15712579D01*
X11479491Y-15712579D02*
X11489015Y-15750674D01*
X11489015Y-15750674D02*
X11489015Y-15798293D01*
X11489015Y-15798293D02*
X11479491Y-15836388D01*
X11479491Y-15836388D02*
X11469967Y-15855436D01*
X11469967Y-15855436D02*
X11460444Y-15864960D01*
X11460444Y-15864960D02*
X11441396Y-15874484D01*
X11441396Y-15874484D02*
X11422348Y-15874484D01*
X11422348Y-15874484D02*
X11403301Y-15864960D01*
X11403301Y-15864960D02*
X11393777Y-15855436D01*
X11393777Y-15855436D02*
X11384253Y-15836388D01*
X11384253Y-15836388D02*
X11374729Y-15798293D01*
X11374729Y-15798293D02*
X11374729Y-15750674D01*
X11374729Y-15750674D02*
X11384253Y-15712579D01*
X11384253Y-15712579D02*
X11393777Y-15693531D01*
X11393777Y-15693531D02*
X11403301Y-15684008D01*
X11403301Y-15684008D02*
X11422348Y-15674484D01*
X11555682Y-15674484D02*
X11679491Y-15674484D01*
X11679491Y-15674484D02*
X11612825Y-15750674D01*
X11612825Y-15750674D02*
X11641396Y-15750674D01*
X11641396Y-15750674D02*
X11660444Y-15760198D01*
X11660444Y-15760198D02*
X11669967Y-15769722D01*
X11669967Y-15769722D02*
X11679491Y-15788769D01*
X11679491Y-15788769D02*
X11679491Y-15836388D01*
X11679491Y-15836388D02*
X11669967Y-15855436D01*
X11669967Y-15855436D02*
X11660444Y-15864960D01*
X11660444Y-15864960D02*
X11641396Y-15874484D01*
X11641396Y-15874484D02*
X11584253Y-15874484D01*
X11584253Y-15874484D02*
X11565206Y-15864960D01*
X11565206Y-15864960D02*
X11555682Y-15855436D01*
X11860444Y-15674484D02*
X11765206Y-15674484D01*
X11765206Y-15674484D02*
X11755682Y-15769722D01*
X11755682Y-15769722D02*
X11765206Y-15760198D01*
X11765206Y-15760198D02*
X11784253Y-15750674D01*
X11784253Y-15750674D02*
X11831872Y-15750674D01*
X11831872Y-15750674D02*
X11850920Y-15760198D01*
X11850920Y-15760198D02*
X11860444Y-15769722D01*
X11860444Y-15769722D02*
X11869967Y-15788769D01*
X11869967Y-15788769D02*
X11869967Y-15836388D01*
X11869967Y-15836388D02*
X11860444Y-15855436D01*
X11860444Y-15855436D02*
X11850920Y-15864960D01*
X11850920Y-15864960D02*
X11831872Y-15874484D01*
X11831872Y-15874484D02*
X11784253Y-15874484D01*
X11784253Y-15874484D02*
X11765206Y-15864960D01*
X11765206Y-15864960D02*
X11755682Y-15855436D01*
X12041396Y-15741150D02*
X12041396Y-15874484D01*
X11993777Y-15664960D02*
X11946158Y-15807817D01*
X11946158Y-15807817D02*
X12069967Y-15807817D01*
X12136634Y-15674484D02*
X12136634Y-15712579D01*
X12212825Y-15674484D02*
X12212825Y-15712579D01*
X12508063Y-15950674D02*
X12498539Y-15941150D01*
X12498539Y-15941150D02*
X12479491Y-15912579D01*
X12479491Y-15912579D02*
X12469968Y-15893531D01*
X12469968Y-15893531D02*
X12460444Y-15864960D01*
X12460444Y-15864960D02*
X12450920Y-15817341D01*
X12450920Y-15817341D02*
X12450920Y-15779246D01*
X12450920Y-15779246D02*
X12460444Y-15731627D01*
X12460444Y-15731627D02*
X12469968Y-15703055D01*
X12469968Y-15703055D02*
X12479491Y-15684008D01*
X12479491Y-15684008D02*
X12498539Y-15655436D01*
X12498539Y-15655436D02*
X12508063Y-15645912D01*
X12689015Y-15874484D02*
X12574729Y-15874484D01*
X12631872Y-15874484D02*
X12631872Y-15674484D01*
X12631872Y-15674484D02*
X12612825Y-15703055D01*
X12612825Y-15703055D02*
X12593777Y-15722103D01*
X12593777Y-15722103D02*
X12574729Y-15731627D01*
X12803301Y-15760198D02*
X12784253Y-15750674D01*
X12784253Y-15750674D02*
X12774729Y-15741150D01*
X12774729Y-15741150D02*
X12765206Y-15722103D01*
X12765206Y-15722103D02*
X12765206Y-15712579D01*
X12765206Y-15712579D02*
X12774729Y-15693531D01*
X12774729Y-15693531D02*
X12784253Y-15684008D01*
X12784253Y-15684008D02*
X12803301Y-15674484D01*
X12803301Y-15674484D02*
X12841396Y-15674484D01*
X12841396Y-15674484D02*
X12860444Y-15684008D01*
X12860444Y-15684008D02*
X12869968Y-15693531D01*
X12869968Y-15693531D02*
X12879491Y-15712579D01*
X12879491Y-15712579D02*
X12879491Y-15722103D01*
X12879491Y-15722103D02*
X12869968Y-15741150D01*
X12869968Y-15741150D02*
X12860444Y-15750674D01*
X12860444Y-15750674D02*
X12841396Y-15760198D01*
X12841396Y-15760198D02*
X12803301Y-15760198D01*
X12803301Y-15760198D02*
X12784253Y-15769722D01*
X12784253Y-15769722D02*
X12774729Y-15779246D01*
X12774729Y-15779246D02*
X12765206Y-15798293D01*
X12765206Y-15798293D02*
X12765206Y-15836388D01*
X12765206Y-15836388D02*
X12774729Y-15855436D01*
X12774729Y-15855436D02*
X12784253Y-15864960D01*
X12784253Y-15864960D02*
X12803301Y-15874484D01*
X12803301Y-15874484D02*
X12841396Y-15874484D01*
X12841396Y-15874484D02*
X12860444Y-15864960D01*
X12860444Y-15864960D02*
X12869968Y-15855436D01*
X12869968Y-15855436D02*
X12879491Y-15836388D01*
X12879491Y-15836388D02*
X12879491Y-15798293D01*
X12879491Y-15798293D02*
X12869968Y-15779246D01*
X12869968Y-15779246D02*
X12860444Y-15769722D01*
X12860444Y-15769722D02*
X12841396Y-15760198D01*
X13117587Y-15874484D02*
X13117587Y-15674484D01*
X13203301Y-15874484D02*
X13203301Y-15769722D01*
X13203301Y-15769722D02*
X13193777Y-15750674D01*
X13193777Y-15750674D02*
X13174730Y-15741150D01*
X13174730Y-15741150D02*
X13146158Y-15741150D01*
X13146158Y-15741150D02*
X13127110Y-15750674D01*
X13127110Y-15750674D02*
X13117587Y-15760198D01*
X13327110Y-15874484D02*
X13308063Y-15864960D01*
X13308063Y-15864960D02*
X13298539Y-15855436D01*
X13298539Y-15855436D02*
X13289015Y-15836388D01*
X13289015Y-15836388D02*
X13289015Y-15779246D01*
X13289015Y-15779246D02*
X13298539Y-15760198D01*
X13298539Y-15760198D02*
X13308063Y-15750674D01*
X13308063Y-15750674D02*
X13327110Y-15741150D01*
X13327110Y-15741150D02*
X13355682Y-15741150D01*
X13355682Y-15741150D02*
X13374730Y-15750674D01*
X13374730Y-15750674D02*
X13384253Y-15760198D01*
X13384253Y-15760198D02*
X13393777Y-15779246D01*
X13393777Y-15779246D02*
X13393777Y-15836388D01*
X13393777Y-15836388D02*
X13384253Y-15855436D01*
X13384253Y-15855436D02*
X13374730Y-15864960D01*
X13374730Y-15864960D02*
X13355682Y-15874484D01*
X13355682Y-15874484D02*
X13327110Y-15874484D01*
X13508063Y-15874484D02*
X13489015Y-15864960D01*
X13489015Y-15864960D02*
X13479491Y-15845912D01*
X13479491Y-15845912D02*
X13479491Y-15674484D01*
X13660444Y-15864960D02*
X13641396Y-15874484D01*
X13641396Y-15874484D02*
X13603301Y-15874484D01*
X13603301Y-15874484D02*
X13584253Y-15864960D01*
X13584253Y-15864960D02*
X13574730Y-15845912D01*
X13574730Y-15845912D02*
X13574730Y-15769722D01*
X13574730Y-15769722D02*
X13584253Y-15750674D01*
X13584253Y-15750674D02*
X13603301Y-15741150D01*
X13603301Y-15741150D02*
X13641396Y-15741150D01*
X13641396Y-15741150D02*
X13660444Y-15750674D01*
X13660444Y-15750674D02*
X13669968Y-15769722D01*
X13669968Y-15769722D02*
X13669968Y-15788769D01*
X13669968Y-15788769D02*
X13574730Y-15807817D01*
X13746158Y-15864960D02*
X13765206Y-15874484D01*
X13765206Y-15874484D02*
X13803301Y-15874484D01*
X13803301Y-15874484D02*
X13822349Y-15864960D01*
X13822349Y-15864960D02*
X13831872Y-15845912D01*
X13831872Y-15845912D02*
X13831872Y-15836388D01*
X13831872Y-15836388D02*
X13822349Y-15817341D01*
X13822349Y-15817341D02*
X13803301Y-15807817D01*
X13803301Y-15807817D02*
X13774730Y-15807817D01*
X13774730Y-15807817D02*
X13755682Y-15798293D01*
X13755682Y-15798293D02*
X13746158Y-15779246D01*
X13746158Y-15779246D02*
X13746158Y-15769722D01*
X13746158Y-15769722D02*
X13755682Y-15750674D01*
X13755682Y-15750674D02*
X13774730Y-15741150D01*
X13774730Y-15741150D02*
X13803301Y-15741150D01*
X13803301Y-15741150D02*
X13822349Y-15750674D01*
X13898539Y-15950674D02*
X13908063Y-15941150D01*
X13908063Y-15941150D02*
X13927111Y-15912579D01*
X13927111Y-15912579D02*
X13936634Y-15893531D01*
X13936634Y-15893531D02*
X13946158Y-15864960D01*
X13946158Y-15864960D02*
X13955682Y-15817341D01*
X13955682Y-15817341D02*
X13955682Y-15779246D01*
X13955682Y-15779246D02*
X13946158Y-15731627D01*
X13946158Y-15731627D02*
X13936634Y-15703055D01*
X13936634Y-15703055D02*
X13927111Y-15684008D01*
X13927111Y-15684008D02*
X13908063Y-15655436D01*
X13908063Y-15655436D02*
X13898539Y-15645912D01*
D14*
X8918502Y-16082002D02*
X8918502Y-16011998D01*
X8848498Y-16011998D01*
X8848498Y-16082002D01*
X8918502Y-16082002D01*
D10*
X9231872Y-15938484D02*
X9250920Y-15938484D01*
X9250920Y-15938484D02*
X9269967Y-15948008D01*
X9269967Y-15948008D02*
X9279491Y-15957531D01*
X9279491Y-15957531D02*
X9289015Y-15976579D01*
X9289015Y-15976579D02*
X9298539Y-16014674D01*
X9298539Y-16014674D02*
X9298539Y-16062293D01*
X9298539Y-16062293D02*
X9289015Y-16100388D01*
X9289015Y-16100388D02*
X9279491Y-16119436D01*
X9279491Y-16119436D02*
X9269967Y-16128960D01*
X9269967Y-16128960D02*
X9250920Y-16138484D01*
X9250920Y-16138484D02*
X9231872Y-16138484D01*
X9231872Y-16138484D02*
X9212824Y-16128960D01*
X9212824Y-16128960D02*
X9203301Y-16119436D01*
X9203301Y-16119436D02*
X9193777Y-16100388D01*
X9193777Y-16100388D02*
X9184253Y-16062293D01*
X9184253Y-16062293D02*
X9184253Y-16014674D01*
X9184253Y-16014674D02*
X9193777Y-15976579D01*
X9193777Y-15976579D02*
X9203301Y-15957531D01*
X9203301Y-15957531D02*
X9212824Y-15948008D01*
X9212824Y-15948008D02*
X9231872Y-15938484D01*
X9384253Y-16119436D02*
X9393777Y-16128960D01*
X9393777Y-16128960D02*
X9384253Y-16138484D01*
X9384253Y-16138484D02*
X9374729Y-16128960D01*
X9374729Y-16128960D02*
X9384253Y-16119436D01*
X9384253Y-16119436D02*
X9384253Y-16138484D01*
X9489015Y-16138484D02*
X9527110Y-16138484D01*
X9527110Y-16138484D02*
X9546158Y-16128960D01*
X9546158Y-16128960D02*
X9555682Y-16119436D01*
X9555682Y-16119436D02*
X9574729Y-16090865D01*
X9574729Y-16090865D02*
X9584253Y-16052769D01*
X9584253Y-16052769D02*
X9584253Y-15976579D01*
X9584253Y-15976579D02*
X9574729Y-15957531D01*
X9574729Y-15957531D02*
X9565205Y-15948008D01*
X9565205Y-15948008D02*
X9546158Y-15938484D01*
X9546158Y-15938484D02*
X9508063Y-15938484D01*
X9508063Y-15938484D02*
X9489015Y-15948008D01*
X9489015Y-15948008D02*
X9479491Y-15957531D01*
X9479491Y-15957531D02*
X9469967Y-15976579D01*
X9469967Y-15976579D02*
X9469967Y-16024198D01*
X9469967Y-16024198D02*
X9479491Y-16043246D01*
X9479491Y-16043246D02*
X9489015Y-16052769D01*
X9489015Y-16052769D02*
X9508063Y-16062293D01*
X9508063Y-16062293D02*
X9546158Y-16062293D01*
X9546158Y-16062293D02*
X9565205Y-16052769D01*
X9565205Y-16052769D02*
X9574729Y-16043246D01*
X9574729Y-16043246D02*
X9584253Y-16024198D01*
X9679491Y-16138484D02*
X9717586Y-16138484D01*
X9717586Y-16138484D02*
X9736634Y-16128960D01*
X9736634Y-16128960D02*
X9746158Y-16119436D01*
X9746158Y-16119436D02*
X9765205Y-16090865D01*
X9765205Y-16090865D02*
X9774729Y-16052769D01*
X9774729Y-16052769D02*
X9774729Y-15976579D01*
X9774729Y-15976579D02*
X9765205Y-15957531D01*
X9765205Y-15957531D02*
X9755682Y-15948008D01*
X9755682Y-15948008D02*
X9736634Y-15938484D01*
X9736634Y-15938484D02*
X9698539Y-15938484D01*
X9698539Y-15938484D02*
X9679491Y-15948008D01*
X9679491Y-15948008D02*
X9669967Y-15957531D01*
X9669967Y-15957531D02*
X9660444Y-15976579D01*
X9660444Y-15976579D02*
X9660444Y-16024198D01*
X9660444Y-16024198D02*
X9669967Y-16043246D01*
X9669967Y-16043246D02*
X9679491Y-16052769D01*
X9679491Y-16052769D02*
X9698539Y-16062293D01*
X9698539Y-16062293D02*
X9736634Y-16062293D01*
X9736634Y-16062293D02*
X9755682Y-16052769D01*
X9755682Y-16052769D02*
X9765205Y-16043246D01*
X9765205Y-16043246D02*
X9774729Y-16024198D01*
X9898539Y-15938484D02*
X9917586Y-15938484D01*
X9917586Y-15938484D02*
X9936634Y-15948008D01*
X9936634Y-15948008D02*
X9946158Y-15957531D01*
X9946158Y-15957531D02*
X9955682Y-15976579D01*
X9955682Y-15976579D02*
X9965205Y-16014674D01*
X9965205Y-16014674D02*
X9965205Y-16062293D01*
X9965205Y-16062293D02*
X9955682Y-16100388D01*
X9955682Y-16100388D02*
X9946158Y-16119436D01*
X9946158Y-16119436D02*
X9936634Y-16128960D01*
X9936634Y-16128960D02*
X9917586Y-16138484D01*
X9917586Y-16138484D02*
X9898539Y-16138484D01*
X9898539Y-16138484D02*
X9879491Y-16128960D01*
X9879491Y-16128960D02*
X9869967Y-16119436D01*
X9869967Y-16119436D02*
X9860444Y-16100388D01*
X9860444Y-16100388D02*
X9850920Y-16062293D01*
X9850920Y-16062293D02*
X9850920Y-16014674D01*
X9850920Y-16014674D02*
X9860444Y-15976579D01*
X9860444Y-15976579D02*
X9869967Y-15957531D01*
X9869967Y-15957531D02*
X9879491Y-15948008D01*
X9879491Y-15948008D02*
X9898539Y-15938484D01*
X10050920Y-16138484D02*
X10050920Y-16005150D01*
X10050920Y-16024198D02*
X10060444Y-16014674D01*
X10060444Y-16014674D02*
X10079491Y-16005150D01*
X10079491Y-16005150D02*
X10108063Y-16005150D01*
X10108063Y-16005150D02*
X10127110Y-16014674D01*
X10127110Y-16014674D02*
X10136634Y-16033722D01*
X10136634Y-16033722D02*
X10136634Y-16138484D01*
X10136634Y-16033722D02*
X10146158Y-16014674D01*
X10146158Y-16014674D02*
X10165205Y-16005150D01*
X10165205Y-16005150D02*
X10193777Y-16005150D01*
X10193777Y-16005150D02*
X10212825Y-16014674D01*
X10212825Y-16014674D02*
X10222348Y-16033722D01*
X10222348Y-16033722D02*
X10222348Y-16138484D01*
X10317586Y-16138484D02*
X10317586Y-16005150D01*
X10317586Y-16024198D02*
X10327110Y-16014674D01*
X10327110Y-16014674D02*
X10346158Y-16005150D01*
X10346158Y-16005150D02*
X10374729Y-16005150D01*
X10374729Y-16005150D02*
X10393777Y-16014674D01*
X10393777Y-16014674D02*
X10403301Y-16033722D01*
X10403301Y-16033722D02*
X10403301Y-16138484D01*
X10403301Y-16033722D02*
X10412825Y-16014674D01*
X10412825Y-16014674D02*
X10431872Y-16005150D01*
X10431872Y-16005150D02*
X10460444Y-16005150D01*
X10460444Y-16005150D02*
X10479491Y-16014674D01*
X10479491Y-16014674D02*
X10489015Y-16033722D01*
X10489015Y-16033722D02*
X10489015Y-16138484D01*
X10879491Y-15928960D02*
X10708063Y-16186103D01*
X11136634Y-15938484D02*
X11155682Y-15938484D01*
X11155682Y-15938484D02*
X11174729Y-15948008D01*
X11174729Y-15948008D02*
X11184253Y-15957531D01*
X11184253Y-15957531D02*
X11193777Y-15976579D01*
X11193777Y-15976579D02*
X11203301Y-16014674D01*
X11203301Y-16014674D02*
X11203301Y-16062293D01*
X11203301Y-16062293D02*
X11193777Y-16100388D01*
X11193777Y-16100388D02*
X11184253Y-16119436D01*
X11184253Y-16119436D02*
X11174729Y-16128960D01*
X11174729Y-16128960D02*
X11155682Y-16138484D01*
X11155682Y-16138484D02*
X11136634Y-16138484D01*
X11136634Y-16138484D02*
X11117587Y-16128960D01*
X11117587Y-16128960D02*
X11108063Y-16119436D01*
X11108063Y-16119436D02*
X11098539Y-16100388D01*
X11098539Y-16100388D02*
X11089015Y-16062293D01*
X11089015Y-16062293D02*
X11089015Y-16014674D01*
X11089015Y-16014674D02*
X11098539Y-15976579D01*
X11098539Y-15976579D02*
X11108063Y-15957531D01*
X11108063Y-15957531D02*
X11117587Y-15948008D01*
X11117587Y-15948008D02*
X11136634Y-15938484D01*
X11289015Y-16119436D02*
X11298539Y-16128960D01*
X11298539Y-16128960D02*
X11289015Y-16138484D01*
X11289015Y-16138484D02*
X11279491Y-16128960D01*
X11279491Y-16128960D02*
X11289015Y-16119436D01*
X11289015Y-16119436D02*
X11289015Y-16138484D01*
X11422348Y-15938484D02*
X11441396Y-15938484D01*
X11441396Y-15938484D02*
X11460444Y-15948008D01*
X11460444Y-15948008D02*
X11469967Y-15957531D01*
X11469967Y-15957531D02*
X11479491Y-15976579D01*
X11479491Y-15976579D02*
X11489015Y-16014674D01*
X11489015Y-16014674D02*
X11489015Y-16062293D01*
X11489015Y-16062293D02*
X11479491Y-16100388D01*
X11479491Y-16100388D02*
X11469967Y-16119436D01*
X11469967Y-16119436D02*
X11460444Y-16128960D01*
X11460444Y-16128960D02*
X11441396Y-16138484D01*
X11441396Y-16138484D02*
X11422348Y-16138484D01*
X11422348Y-16138484D02*
X11403301Y-16128960D01*
X11403301Y-16128960D02*
X11393777Y-16119436D01*
X11393777Y-16119436D02*
X11384253Y-16100388D01*
X11384253Y-16100388D02*
X11374729Y-16062293D01*
X11374729Y-16062293D02*
X11374729Y-16014674D01*
X11374729Y-16014674D02*
X11384253Y-15976579D01*
X11384253Y-15976579D02*
X11393777Y-15957531D01*
X11393777Y-15957531D02*
X11403301Y-15948008D01*
X11403301Y-15948008D02*
X11422348Y-15938484D01*
X11555682Y-15938484D02*
X11679491Y-15938484D01*
X11679491Y-15938484D02*
X11612825Y-16014674D01*
X11612825Y-16014674D02*
X11641396Y-16014674D01*
X11641396Y-16014674D02*
X11660444Y-16024198D01*
X11660444Y-16024198D02*
X11669967Y-16033722D01*
X11669967Y-16033722D02*
X11679491Y-16052769D01*
X11679491Y-16052769D02*
X11679491Y-16100388D01*
X11679491Y-16100388D02*
X11669967Y-16119436D01*
X11669967Y-16119436D02*
X11660444Y-16128960D01*
X11660444Y-16128960D02*
X11641396Y-16138484D01*
X11641396Y-16138484D02*
X11584253Y-16138484D01*
X11584253Y-16138484D02*
X11565206Y-16128960D01*
X11565206Y-16128960D02*
X11555682Y-16119436D01*
X11774729Y-16138484D02*
X11812825Y-16138484D01*
X11812825Y-16138484D02*
X11831872Y-16128960D01*
X11831872Y-16128960D02*
X11841396Y-16119436D01*
X11841396Y-16119436D02*
X11860444Y-16090865D01*
X11860444Y-16090865D02*
X11869967Y-16052769D01*
X11869967Y-16052769D02*
X11869967Y-15976579D01*
X11869967Y-15976579D02*
X11860444Y-15957531D01*
X11860444Y-15957531D02*
X11850920Y-15948008D01*
X11850920Y-15948008D02*
X11831872Y-15938484D01*
X11831872Y-15938484D02*
X11793777Y-15938484D01*
X11793777Y-15938484D02*
X11774729Y-15948008D01*
X11774729Y-15948008D02*
X11765206Y-15957531D01*
X11765206Y-15957531D02*
X11755682Y-15976579D01*
X11755682Y-15976579D02*
X11755682Y-16024198D01*
X11755682Y-16024198D02*
X11765206Y-16043246D01*
X11765206Y-16043246D02*
X11774729Y-16052769D01*
X11774729Y-16052769D02*
X11793777Y-16062293D01*
X11793777Y-16062293D02*
X11831872Y-16062293D01*
X11831872Y-16062293D02*
X11850920Y-16052769D01*
X11850920Y-16052769D02*
X11860444Y-16043246D01*
X11860444Y-16043246D02*
X11869967Y-16024198D01*
X11993777Y-15938484D02*
X12012825Y-15938484D01*
X12012825Y-15938484D02*
X12031872Y-15948008D01*
X12031872Y-15948008D02*
X12041396Y-15957531D01*
X12041396Y-15957531D02*
X12050920Y-15976579D01*
X12050920Y-15976579D02*
X12060444Y-16014674D01*
X12060444Y-16014674D02*
X12060444Y-16062293D01*
X12060444Y-16062293D02*
X12050920Y-16100388D01*
X12050920Y-16100388D02*
X12041396Y-16119436D01*
X12041396Y-16119436D02*
X12031872Y-16128960D01*
X12031872Y-16128960D02*
X12012825Y-16138484D01*
X12012825Y-16138484D02*
X11993777Y-16138484D01*
X11993777Y-16138484D02*
X11974729Y-16128960D01*
X11974729Y-16128960D02*
X11965206Y-16119436D01*
X11965206Y-16119436D02*
X11955682Y-16100388D01*
X11955682Y-16100388D02*
X11946158Y-16062293D01*
X11946158Y-16062293D02*
X11946158Y-16014674D01*
X11946158Y-16014674D02*
X11955682Y-15976579D01*
X11955682Y-15976579D02*
X11965206Y-15957531D01*
X11965206Y-15957531D02*
X11974729Y-15948008D01*
X11974729Y-15948008D02*
X11993777Y-15938484D01*
X12136634Y-15938484D02*
X12136634Y-15976579D01*
X12212825Y-15938484D02*
X12212825Y-15976579D01*
X12508063Y-16214674D02*
X12498539Y-16205150D01*
X12498539Y-16205150D02*
X12479491Y-16176579D01*
X12479491Y-16176579D02*
X12469968Y-16157531D01*
X12469968Y-16157531D02*
X12460444Y-16128960D01*
X12460444Y-16128960D02*
X12450920Y-16081341D01*
X12450920Y-16081341D02*
X12450920Y-16043246D01*
X12450920Y-16043246D02*
X12460444Y-15995627D01*
X12460444Y-15995627D02*
X12469968Y-15967055D01*
X12469968Y-15967055D02*
X12479491Y-15948008D01*
X12479491Y-15948008D02*
X12498539Y-15919436D01*
X12498539Y-15919436D02*
X12508063Y-15909912D01*
X12612825Y-16024198D02*
X12593777Y-16014674D01*
X12593777Y-16014674D02*
X12584253Y-16005150D01*
X12584253Y-16005150D02*
X12574729Y-15986103D01*
X12574729Y-15986103D02*
X12574729Y-15976579D01*
X12574729Y-15976579D02*
X12584253Y-15957531D01*
X12584253Y-15957531D02*
X12593777Y-15948008D01*
X12593777Y-15948008D02*
X12612825Y-15938484D01*
X12612825Y-15938484D02*
X12650920Y-15938484D01*
X12650920Y-15938484D02*
X12669968Y-15948008D01*
X12669968Y-15948008D02*
X12679491Y-15957531D01*
X12679491Y-15957531D02*
X12689015Y-15976579D01*
X12689015Y-15976579D02*
X12689015Y-15986103D01*
X12689015Y-15986103D02*
X12679491Y-16005150D01*
X12679491Y-16005150D02*
X12669968Y-16014674D01*
X12669968Y-16014674D02*
X12650920Y-16024198D01*
X12650920Y-16024198D02*
X12612825Y-16024198D01*
X12612825Y-16024198D02*
X12593777Y-16033722D01*
X12593777Y-16033722D02*
X12584253Y-16043246D01*
X12584253Y-16043246D02*
X12574729Y-16062293D01*
X12574729Y-16062293D02*
X12574729Y-16100388D01*
X12574729Y-16100388D02*
X12584253Y-16119436D01*
X12584253Y-16119436D02*
X12593777Y-16128960D01*
X12593777Y-16128960D02*
X12612825Y-16138484D01*
X12612825Y-16138484D02*
X12650920Y-16138484D01*
X12650920Y-16138484D02*
X12669968Y-16128960D01*
X12669968Y-16128960D02*
X12679491Y-16119436D01*
X12679491Y-16119436D02*
X12689015Y-16100388D01*
X12689015Y-16100388D02*
X12689015Y-16062293D01*
X12689015Y-16062293D02*
X12679491Y-16043246D01*
X12679491Y-16043246D02*
X12669968Y-16033722D01*
X12669968Y-16033722D02*
X12650920Y-16024198D01*
X12927110Y-16138484D02*
X12927110Y-15938484D01*
X13012825Y-16138484D02*
X13012825Y-16033722D01*
X13012825Y-16033722D02*
X13003301Y-16014674D01*
X13003301Y-16014674D02*
X12984253Y-16005150D01*
X12984253Y-16005150D02*
X12955682Y-16005150D01*
X12955682Y-16005150D02*
X12936634Y-16014674D01*
X12936634Y-16014674D02*
X12927110Y-16024198D01*
X13136634Y-16138484D02*
X13117587Y-16128960D01*
X13117587Y-16128960D02*
X13108063Y-16119436D01*
X13108063Y-16119436D02*
X13098539Y-16100388D01*
X13098539Y-16100388D02*
X13098539Y-16043246D01*
X13098539Y-16043246D02*
X13108063Y-16024198D01*
X13108063Y-16024198D02*
X13117587Y-16014674D01*
X13117587Y-16014674D02*
X13136634Y-16005150D01*
X13136634Y-16005150D02*
X13165206Y-16005150D01*
X13165206Y-16005150D02*
X13184253Y-16014674D01*
X13184253Y-16014674D02*
X13193777Y-16024198D01*
X13193777Y-16024198D02*
X13203301Y-16043246D01*
X13203301Y-16043246D02*
X13203301Y-16100388D01*
X13203301Y-16100388D02*
X13193777Y-16119436D01*
X13193777Y-16119436D02*
X13184253Y-16128960D01*
X13184253Y-16128960D02*
X13165206Y-16138484D01*
X13165206Y-16138484D02*
X13136634Y-16138484D01*
X13317587Y-16138484D02*
X13298539Y-16128960D01*
X13298539Y-16128960D02*
X13289015Y-16109912D01*
X13289015Y-16109912D02*
X13289015Y-15938484D01*
X13469968Y-16128960D02*
X13450920Y-16138484D01*
X13450920Y-16138484D02*
X13412825Y-16138484D01*
X13412825Y-16138484D02*
X13393777Y-16128960D01*
X13393777Y-16128960D02*
X13384253Y-16109912D01*
X13384253Y-16109912D02*
X13384253Y-16033722D01*
X13384253Y-16033722D02*
X13393777Y-16014674D01*
X13393777Y-16014674D02*
X13412825Y-16005150D01*
X13412825Y-16005150D02*
X13450920Y-16005150D01*
X13450920Y-16005150D02*
X13469968Y-16014674D01*
X13469968Y-16014674D02*
X13479491Y-16033722D01*
X13479491Y-16033722D02*
X13479491Y-16052769D01*
X13479491Y-16052769D02*
X13384253Y-16071817D01*
X13555682Y-16128960D02*
X13574730Y-16138484D01*
X13574730Y-16138484D02*
X13612825Y-16138484D01*
X13612825Y-16138484D02*
X13631872Y-16128960D01*
X13631872Y-16128960D02*
X13641396Y-16109912D01*
X13641396Y-16109912D02*
X13641396Y-16100388D01*
X13641396Y-16100388D02*
X13631872Y-16081341D01*
X13631872Y-16081341D02*
X13612825Y-16071817D01*
X13612825Y-16071817D02*
X13584253Y-16071817D01*
X13584253Y-16071817D02*
X13565206Y-16062293D01*
X13565206Y-16062293D02*
X13555682Y-16043246D01*
X13555682Y-16043246D02*
X13555682Y-16033722D01*
X13555682Y-16033722D02*
X13565206Y-16014674D01*
X13565206Y-16014674D02*
X13584253Y-16005150D01*
X13584253Y-16005150D02*
X13612825Y-16005150D01*
X13612825Y-16005150D02*
X13631872Y-16014674D01*
X13708063Y-16214674D02*
X13717587Y-16205150D01*
X13717587Y-16205150D02*
X13736634Y-16176579D01*
X13736634Y-16176579D02*
X13746158Y-16157531D01*
X13746158Y-16157531D02*
X13755682Y-16128960D01*
X13755682Y-16128960D02*
X13765206Y-16081341D01*
X13765206Y-16081341D02*
X13765206Y-16043246D01*
X13765206Y-16043246D02*
X13755682Y-15995627D01*
X13755682Y-15995627D02*
X13746158Y-15967055D01*
X13746158Y-15967055D02*
X13736634Y-15948008D01*
X13736634Y-15948008D02*
X13717587Y-15919436D01*
X13717587Y-15919436D02*
X13708063Y-15909912D01*
D15*
X8883000Y-16361000D02*
X8933000Y-16311000D01*
X8883000Y-16261000D01*
X8833000Y-16311000D01*
X8883000Y-16361000D01*
D10*
X9298539Y-16402484D02*
X9184253Y-16402484D01*
X9241396Y-16402484D02*
X9241396Y-16202484D01*
X9241396Y-16202484D02*
X9222348Y-16231055D01*
X9222348Y-16231055D02*
X9203301Y-16250103D01*
X9203301Y-16250103D02*
X9184253Y-16259627D01*
X9384253Y-16383436D02*
X9393777Y-16392960D01*
X9393777Y-16392960D02*
X9384253Y-16402484D01*
X9384253Y-16402484D02*
X9374729Y-16392960D01*
X9374729Y-16392960D02*
X9384253Y-16383436D01*
X9384253Y-16383436D02*
X9384253Y-16402484D01*
X9517586Y-16202484D02*
X9536634Y-16202484D01*
X9536634Y-16202484D02*
X9555682Y-16212008D01*
X9555682Y-16212008D02*
X9565205Y-16221531D01*
X9565205Y-16221531D02*
X9574729Y-16240579D01*
X9574729Y-16240579D02*
X9584253Y-16278674D01*
X9584253Y-16278674D02*
X9584253Y-16326293D01*
X9584253Y-16326293D02*
X9574729Y-16364388D01*
X9574729Y-16364388D02*
X9565205Y-16383436D01*
X9565205Y-16383436D02*
X9555682Y-16392960D01*
X9555682Y-16392960D02*
X9536634Y-16402484D01*
X9536634Y-16402484D02*
X9517586Y-16402484D01*
X9517586Y-16402484D02*
X9498539Y-16392960D01*
X9498539Y-16392960D02*
X9489015Y-16383436D01*
X9489015Y-16383436D02*
X9479491Y-16364388D01*
X9479491Y-16364388D02*
X9469967Y-16326293D01*
X9469967Y-16326293D02*
X9469967Y-16278674D01*
X9469967Y-16278674D02*
X9479491Y-16240579D01*
X9479491Y-16240579D02*
X9489015Y-16221531D01*
X9489015Y-16221531D02*
X9498539Y-16212008D01*
X9498539Y-16212008D02*
X9517586Y-16202484D01*
X9708063Y-16202484D02*
X9727110Y-16202484D01*
X9727110Y-16202484D02*
X9746158Y-16212008D01*
X9746158Y-16212008D02*
X9755682Y-16221531D01*
X9755682Y-16221531D02*
X9765205Y-16240579D01*
X9765205Y-16240579D02*
X9774729Y-16278674D01*
X9774729Y-16278674D02*
X9774729Y-16326293D01*
X9774729Y-16326293D02*
X9765205Y-16364388D01*
X9765205Y-16364388D02*
X9755682Y-16383436D01*
X9755682Y-16383436D02*
X9746158Y-16392960D01*
X9746158Y-16392960D02*
X9727110Y-16402484D01*
X9727110Y-16402484D02*
X9708063Y-16402484D01*
X9708063Y-16402484D02*
X9689015Y-16392960D01*
X9689015Y-16392960D02*
X9679491Y-16383436D01*
X9679491Y-16383436D02*
X9669967Y-16364388D01*
X9669967Y-16364388D02*
X9660444Y-16326293D01*
X9660444Y-16326293D02*
X9660444Y-16278674D01*
X9660444Y-16278674D02*
X9669967Y-16240579D01*
X9669967Y-16240579D02*
X9679491Y-16221531D01*
X9679491Y-16221531D02*
X9689015Y-16212008D01*
X9689015Y-16212008D02*
X9708063Y-16202484D01*
X9898539Y-16202484D02*
X9917586Y-16202484D01*
X9917586Y-16202484D02*
X9936634Y-16212008D01*
X9936634Y-16212008D02*
X9946158Y-16221531D01*
X9946158Y-16221531D02*
X9955682Y-16240579D01*
X9955682Y-16240579D02*
X9965205Y-16278674D01*
X9965205Y-16278674D02*
X9965205Y-16326293D01*
X9965205Y-16326293D02*
X9955682Y-16364388D01*
X9955682Y-16364388D02*
X9946158Y-16383436D01*
X9946158Y-16383436D02*
X9936634Y-16392960D01*
X9936634Y-16392960D02*
X9917586Y-16402484D01*
X9917586Y-16402484D02*
X9898539Y-16402484D01*
X9898539Y-16402484D02*
X9879491Y-16392960D01*
X9879491Y-16392960D02*
X9869967Y-16383436D01*
X9869967Y-16383436D02*
X9860444Y-16364388D01*
X9860444Y-16364388D02*
X9850920Y-16326293D01*
X9850920Y-16326293D02*
X9850920Y-16278674D01*
X9850920Y-16278674D02*
X9860444Y-16240579D01*
X9860444Y-16240579D02*
X9869967Y-16221531D01*
X9869967Y-16221531D02*
X9879491Y-16212008D01*
X9879491Y-16212008D02*
X9898539Y-16202484D01*
X10050920Y-16402484D02*
X10050920Y-16269150D01*
X10050920Y-16288198D02*
X10060444Y-16278674D01*
X10060444Y-16278674D02*
X10079491Y-16269150D01*
X10079491Y-16269150D02*
X10108063Y-16269150D01*
X10108063Y-16269150D02*
X10127110Y-16278674D01*
X10127110Y-16278674D02*
X10136634Y-16297722D01*
X10136634Y-16297722D02*
X10136634Y-16402484D01*
X10136634Y-16297722D02*
X10146158Y-16278674D01*
X10146158Y-16278674D02*
X10165205Y-16269150D01*
X10165205Y-16269150D02*
X10193777Y-16269150D01*
X10193777Y-16269150D02*
X10212825Y-16278674D01*
X10212825Y-16278674D02*
X10222348Y-16297722D01*
X10222348Y-16297722D02*
X10222348Y-16402484D01*
X10317586Y-16402484D02*
X10317586Y-16269150D01*
X10317586Y-16288198D02*
X10327110Y-16278674D01*
X10327110Y-16278674D02*
X10346158Y-16269150D01*
X10346158Y-16269150D02*
X10374729Y-16269150D01*
X10374729Y-16269150D02*
X10393777Y-16278674D01*
X10393777Y-16278674D02*
X10403301Y-16297722D01*
X10403301Y-16297722D02*
X10403301Y-16402484D01*
X10403301Y-16297722D02*
X10412825Y-16278674D01*
X10412825Y-16278674D02*
X10431872Y-16269150D01*
X10431872Y-16269150D02*
X10460444Y-16269150D01*
X10460444Y-16269150D02*
X10479491Y-16278674D01*
X10479491Y-16278674D02*
X10489015Y-16297722D01*
X10489015Y-16297722D02*
X10489015Y-16402484D01*
X10879491Y-16192960D02*
X10708063Y-16450103D01*
X11136634Y-16202484D02*
X11155682Y-16202484D01*
X11155682Y-16202484D02*
X11174729Y-16212008D01*
X11174729Y-16212008D02*
X11184253Y-16221531D01*
X11184253Y-16221531D02*
X11193777Y-16240579D01*
X11193777Y-16240579D02*
X11203301Y-16278674D01*
X11203301Y-16278674D02*
X11203301Y-16326293D01*
X11203301Y-16326293D02*
X11193777Y-16364388D01*
X11193777Y-16364388D02*
X11184253Y-16383436D01*
X11184253Y-16383436D02*
X11174729Y-16392960D01*
X11174729Y-16392960D02*
X11155682Y-16402484D01*
X11155682Y-16402484D02*
X11136634Y-16402484D01*
X11136634Y-16402484D02*
X11117587Y-16392960D01*
X11117587Y-16392960D02*
X11108063Y-16383436D01*
X11108063Y-16383436D02*
X11098539Y-16364388D01*
X11098539Y-16364388D02*
X11089015Y-16326293D01*
X11089015Y-16326293D02*
X11089015Y-16278674D01*
X11089015Y-16278674D02*
X11098539Y-16240579D01*
X11098539Y-16240579D02*
X11108063Y-16221531D01*
X11108063Y-16221531D02*
X11117587Y-16212008D01*
X11117587Y-16212008D02*
X11136634Y-16202484D01*
X11289015Y-16383436D02*
X11298539Y-16392960D01*
X11298539Y-16392960D02*
X11289015Y-16402484D01*
X11289015Y-16402484D02*
X11279491Y-16392960D01*
X11279491Y-16392960D02*
X11289015Y-16383436D01*
X11289015Y-16383436D02*
X11289015Y-16402484D01*
X11422348Y-16202484D02*
X11441396Y-16202484D01*
X11441396Y-16202484D02*
X11460444Y-16212008D01*
X11460444Y-16212008D02*
X11469967Y-16221531D01*
X11469967Y-16221531D02*
X11479491Y-16240579D01*
X11479491Y-16240579D02*
X11489015Y-16278674D01*
X11489015Y-16278674D02*
X11489015Y-16326293D01*
X11489015Y-16326293D02*
X11479491Y-16364388D01*
X11479491Y-16364388D02*
X11469967Y-16383436D01*
X11469967Y-16383436D02*
X11460444Y-16392960D01*
X11460444Y-16392960D02*
X11441396Y-16402484D01*
X11441396Y-16402484D02*
X11422348Y-16402484D01*
X11422348Y-16402484D02*
X11403301Y-16392960D01*
X11403301Y-16392960D02*
X11393777Y-16383436D01*
X11393777Y-16383436D02*
X11384253Y-16364388D01*
X11384253Y-16364388D02*
X11374729Y-16326293D01*
X11374729Y-16326293D02*
X11374729Y-16278674D01*
X11374729Y-16278674D02*
X11384253Y-16240579D01*
X11384253Y-16240579D02*
X11393777Y-16221531D01*
X11393777Y-16221531D02*
X11403301Y-16212008D01*
X11403301Y-16212008D02*
X11422348Y-16202484D01*
X11555682Y-16202484D02*
X11679491Y-16202484D01*
X11679491Y-16202484D02*
X11612825Y-16278674D01*
X11612825Y-16278674D02*
X11641396Y-16278674D01*
X11641396Y-16278674D02*
X11660444Y-16288198D01*
X11660444Y-16288198D02*
X11669967Y-16297722D01*
X11669967Y-16297722D02*
X11679491Y-16316769D01*
X11679491Y-16316769D02*
X11679491Y-16364388D01*
X11679491Y-16364388D02*
X11669967Y-16383436D01*
X11669967Y-16383436D02*
X11660444Y-16392960D01*
X11660444Y-16392960D02*
X11641396Y-16402484D01*
X11641396Y-16402484D02*
X11584253Y-16402484D01*
X11584253Y-16402484D02*
X11565206Y-16392960D01*
X11565206Y-16392960D02*
X11555682Y-16383436D01*
X11774729Y-16402484D02*
X11812825Y-16402484D01*
X11812825Y-16402484D02*
X11831872Y-16392960D01*
X11831872Y-16392960D02*
X11841396Y-16383436D01*
X11841396Y-16383436D02*
X11860444Y-16354865D01*
X11860444Y-16354865D02*
X11869967Y-16316769D01*
X11869967Y-16316769D02*
X11869967Y-16240579D01*
X11869967Y-16240579D02*
X11860444Y-16221531D01*
X11860444Y-16221531D02*
X11850920Y-16212008D01*
X11850920Y-16212008D02*
X11831872Y-16202484D01*
X11831872Y-16202484D02*
X11793777Y-16202484D01*
X11793777Y-16202484D02*
X11774729Y-16212008D01*
X11774729Y-16212008D02*
X11765206Y-16221531D01*
X11765206Y-16221531D02*
X11755682Y-16240579D01*
X11755682Y-16240579D02*
X11755682Y-16288198D01*
X11755682Y-16288198D02*
X11765206Y-16307246D01*
X11765206Y-16307246D02*
X11774729Y-16316769D01*
X11774729Y-16316769D02*
X11793777Y-16326293D01*
X11793777Y-16326293D02*
X11831872Y-16326293D01*
X11831872Y-16326293D02*
X11850920Y-16316769D01*
X11850920Y-16316769D02*
X11860444Y-16307246D01*
X11860444Y-16307246D02*
X11869967Y-16288198D01*
X12041396Y-16269150D02*
X12041396Y-16402484D01*
X11993777Y-16192960D02*
X11946158Y-16335817D01*
X11946158Y-16335817D02*
X12069967Y-16335817D01*
X12136634Y-16202484D02*
X12136634Y-16240579D01*
X12212825Y-16202484D02*
X12212825Y-16240579D01*
X12508063Y-16478674D02*
X12498539Y-16469150D01*
X12498539Y-16469150D02*
X12479491Y-16440579D01*
X12479491Y-16440579D02*
X12469968Y-16421531D01*
X12469968Y-16421531D02*
X12460444Y-16392960D01*
X12460444Y-16392960D02*
X12450920Y-16345341D01*
X12450920Y-16345341D02*
X12450920Y-16307246D01*
X12450920Y-16307246D02*
X12460444Y-16259627D01*
X12460444Y-16259627D02*
X12469968Y-16231055D01*
X12469968Y-16231055D02*
X12479491Y-16212008D01*
X12479491Y-16212008D02*
X12498539Y-16183436D01*
X12498539Y-16183436D02*
X12508063Y-16173912D01*
X12612825Y-16288198D02*
X12593777Y-16278674D01*
X12593777Y-16278674D02*
X12584253Y-16269150D01*
X12584253Y-16269150D02*
X12574729Y-16250103D01*
X12574729Y-16250103D02*
X12574729Y-16240579D01*
X12574729Y-16240579D02*
X12584253Y-16221531D01*
X12584253Y-16221531D02*
X12593777Y-16212008D01*
X12593777Y-16212008D02*
X12612825Y-16202484D01*
X12612825Y-16202484D02*
X12650920Y-16202484D01*
X12650920Y-16202484D02*
X12669968Y-16212008D01*
X12669968Y-16212008D02*
X12679491Y-16221531D01*
X12679491Y-16221531D02*
X12689015Y-16240579D01*
X12689015Y-16240579D02*
X12689015Y-16250103D01*
X12689015Y-16250103D02*
X12679491Y-16269150D01*
X12679491Y-16269150D02*
X12669968Y-16278674D01*
X12669968Y-16278674D02*
X12650920Y-16288198D01*
X12650920Y-16288198D02*
X12612825Y-16288198D01*
X12612825Y-16288198D02*
X12593777Y-16297722D01*
X12593777Y-16297722D02*
X12584253Y-16307246D01*
X12584253Y-16307246D02*
X12574729Y-16326293D01*
X12574729Y-16326293D02*
X12574729Y-16364388D01*
X12574729Y-16364388D02*
X12584253Y-16383436D01*
X12584253Y-16383436D02*
X12593777Y-16392960D01*
X12593777Y-16392960D02*
X12612825Y-16402484D01*
X12612825Y-16402484D02*
X12650920Y-16402484D01*
X12650920Y-16402484D02*
X12669968Y-16392960D01*
X12669968Y-16392960D02*
X12679491Y-16383436D01*
X12679491Y-16383436D02*
X12689015Y-16364388D01*
X12689015Y-16364388D02*
X12689015Y-16326293D01*
X12689015Y-16326293D02*
X12679491Y-16307246D01*
X12679491Y-16307246D02*
X12669968Y-16297722D01*
X12669968Y-16297722D02*
X12650920Y-16288198D01*
X12927110Y-16402484D02*
X12927110Y-16202484D01*
X13012825Y-16402484D02*
X13012825Y-16297722D01*
X13012825Y-16297722D02*
X13003301Y-16278674D01*
X13003301Y-16278674D02*
X12984253Y-16269150D01*
X12984253Y-16269150D02*
X12955682Y-16269150D01*
X12955682Y-16269150D02*
X12936634Y-16278674D01*
X12936634Y-16278674D02*
X12927110Y-16288198D01*
X13136634Y-16402484D02*
X13117587Y-16392960D01*
X13117587Y-16392960D02*
X13108063Y-16383436D01*
X13108063Y-16383436D02*
X13098539Y-16364388D01*
X13098539Y-16364388D02*
X13098539Y-16307246D01*
X13098539Y-16307246D02*
X13108063Y-16288198D01*
X13108063Y-16288198D02*
X13117587Y-16278674D01*
X13117587Y-16278674D02*
X13136634Y-16269150D01*
X13136634Y-16269150D02*
X13165206Y-16269150D01*
X13165206Y-16269150D02*
X13184253Y-16278674D01*
X13184253Y-16278674D02*
X13193777Y-16288198D01*
X13193777Y-16288198D02*
X13203301Y-16307246D01*
X13203301Y-16307246D02*
X13203301Y-16364388D01*
X13203301Y-16364388D02*
X13193777Y-16383436D01*
X13193777Y-16383436D02*
X13184253Y-16392960D01*
X13184253Y-16392960D02*
X13165206Y-16402484D01*
X13165206Y-16402484D02*
X13136634Y-16402484D01*
X13317587Y-16402484D02*
X13298539Y-16392960D01*
X13298539Y-16392960D02*
X13289015Y-16373912D01*
X13289015Y-16373912D02*
X13289015Y-16202484D01*
X13469968Y-16392960D02*
X13450920Y-16402484D01*
X13450920Y-16402484D02*
X13412825Y-16402484D01*
X13412825Y-16402484D02*
X13393777Y-16392960D01*
X13393777Y-16392960D02*
X13384253Y-16373912D01*
X13384253Y-16373912D02*
X13384253Y-16297722D01*
X13384253Y-16297722D02*
X13393777Y-16278674D01*
X13393777Y-16278674D02*
X13412825Y-16269150D01*
X13412825Y-16269150D02*
X13450920Y-16269150D01*
X13450920Y-16269150D02*
X13469968Y-16278674D01*
X13469968Y-16278674D02*
X13479491Y-16297722D01*
X13479491Y-16297722D02*
X13479491Y-16316769D01*
X13479491Y-16316769D02*
X13384253Y-16335817D01*
X13555682Y-16392960D02*
X13574730Y-16402484D01*
X13574730Y-16402484D02*
X13612825Y-16402484D01*
X13612825Y-16402484D02*
X13631872Y-16392960D01*
X13631872Y-16392960D02*
X13641396Y-16373912D01*
X13641396Y-16373912D02*
X13641396Y-16364388D01*
X13641396Y-16364388D02*
X13631872Y-16345341D01*
X13631872Y-16345341D02*
X13612825Y-16335817D01*
X13612825Y-16335817D02*
X13584253Y-16335817D01*
X13584253Y-16335817D02*
X13565206Y-16326293D01*
X13565206Y-16326293D02*
X13555682Y-16307246D01*
X13555682Y-16307246D02*
X13555682Y-16297722D01*
X13555682Y-16297722D02*
X13565206Y-16278674D01*
X13565206Y-16278674D02*
X13584253Y-16269150D01*
X13584253Y-16269150D02*
X13612825Y-16269150D01*
X13612825Y-16269150D02*
X13631872Y-16278674D01*
X13708063Y-16478674D02*
X13717587Y-16469150D01*
X13717587Y-16469150D02*
X13736634Y-16440579D01*
X13736634Y-16440579D02*
X13746158Y-16421531D01*
X13746158Y-16421531D02*
X13755682Y-16392960D01*
X13755682Y-16392960D02*
X13765206Y-16345341D01*
X13765206Y-16345341D02*
X13765206Y-16307246D01*
X13765206Y-16307246D02*
X13755682Y-16259627D01*
X13755682Y-16259627D02*
X13746158Y-16231055D01*
X13746158Y-16231055D02*
X13736634Y-16212008D01*
X13736634Y-16212008D02*
X13717587Y-16183436D01*
X13717587Y-16183436D02*
X13708063Y-16173912D01*
D16*
X8803000Y-16510000D02*
X8933000Y-16640000D01*
X8933000Y-16510000D02*
X8803000Y-16640000D01*
X8933000Y-16575000D02*
G75*
G03*
X8933000Y-16575000I-65000J0D01*
G01*
D10*
X9298539Y-16666484D02*
X9184253Y-16666484D01*
X9241396Y-16666484D02*
X9241396Y-16466484D01*
X9241396Y-16466484D02*
X9222348Y-16495055D01*
X9222348Y-16495055D02*
X9203301Y-16514103D01*
X9203301Y-16514103D02*
X9184253Y-16523627D01*
X9384253Y-16647436D02*
X9393777Y-16656960D01*
X9393777Y-16656960D02*
X9384253Y-16666484D01*
X9384253Y-16666484D02*
X9374729Y-16656960D01*
X9374729Y-16656960D02*
X9384253Y-16647436D01*
X9384253Y-16647436D02*
X9384253Y-16666484D01*
X9460444Y-16466484D02*
X9584253Y-16466484D01*
X9584253Y-16466484D02*
X9517586Y-16542674D01*
X9517586Y-16542674D02*
X9546158Y-16542674D01*
X9546158Y-16542674D02*
X9565205Y-16552198D01*
X9565205Y-16552198D02*
X9574729Y-16561722D01*
X9574729Y-16561722D02*
X9584253Y-16580769D01*
X9584253Y-16580769D02*
X9584253Y-16628388D01*
X9584253Y-16628388D02*
X9574729Y-16647436D01*
X9574729Y-16647436D02*
X9565205Y-16656960D01*
X9565205Y-16656960D02*
X9546158Y-16666484D01*
X9546158Y-16666484D02*
X9489015Y-16666484D01*
X9489015Y-16666484D02*
X9469967Y-16656960D01*
X9469967Y-16656960D02*
X9460444Y-16647436D01*
X9708063Y-16466484D02*
X9727110Y-16466484D01*
X9727110Y-16466484D02*
X9746158Y-16476008D01*
X9746158Y-16476008D02*
X9755682Y-16485531D01*
X9755682Y-16485531D02*
X9765205Y-16504579D01*
X9765205Y-16504579D02*
X9774729Y-16542674D01*
X9774729Y-16542674D02*
X9774729Y-16590293D01*
X9774729Y-16590293D02*
X9765205Y-16628388D01*
X9765205Y-16628388D02*
X9755682Y-16647436D01*
X9755682Y-16647436D02*
X9746158Y-16656960D01*
X9746158Y-16656960D02*
X9727110Y-16666484D01*
X9727110Y-16666484D02*
X9708063Y-16666484D01*
X9708063Y-16666484D02*
X9689015Y-16656960D01*
X9689015Y-16656960D02*
X9679491Y-16647436D01*
X9679491Y-16647436D02*
X9669967Y-16628388D01*
X9669967Y-16628388D02*
X9660444Y-16590293D01*
X9660444Y-16590293D02*
X9660444Y-16542674D01*
X9660444Y-16542674D02*
X9669967Y-16504579D01*
X9669967Y-16504579D02*
X9679491Y-16485531D01*
X9679491Y-16485531D02*
X9689015Y-16476008D01*
X9689015Y-16476008D02*
X9708063Y-16466484D01*
X9898539Y-16466484D02*
X9917586Y-16466484D01*
X9917586Y-16466484D02*
X9936634Y-16476008D01*
X9936634Y-16476008D02*
X9946158Y-16485531D01*
X9946158Y-16485531D02*
X9955682Y-16504579D01*
X9955682Y-16504579D02*
X9965205Y-16542674D01*
X9965205Y-16542674D02*
X9965205Y-16590293D01*
X9965205Y-16590293D02*
X9955682Y-16628388D01*
X9955682Y-16628388D02*
X9946158Y-16647436D01*
X9946158Y-16647436D02*
X9936634Y-16656960D01*
X9936634Y-16656960D02*
X9917586Y-16666484D01*
X9917586Y-16666484D02*
X9898539Y-16666484D01*
X9898539Y-16666484D02*
X9879491Y-16656960D01*
X9879491Y-16656960D02*
X9869967Y-16647436D01*
X9869967Y-16647436D02*
X9860444Y-16628388D01*
X9860444Y-16628388D02*
X9850920Y-16590293D01*
X9850920Y-16590293D02*
X9850920Y-16542674D01*
X9850920Y-16542674D02*
X9860444Y-16504579D01*
X9860444Y-16504579D02*
X9869967Y-16485531D01*
X9869967Y-16485531D02*
X9879491Y-16476008D01*
X9879491Y-16476008D02*
X9898539Y-16466484D01*
X10050920Y-16666484D02*
X10050920Y-16533150D01*
X10050920Y-16552198D02*
X10060444Y-16542674D01*
X10060444Y-16542674D02*
X10079491Y-16533150D01*
X10079491Y-16533150D02*
X10108063Y-16533150D01*
X10108063Y-16533150D02*
X10127110Y-16542674D01*
X10127110Y-16542674D02*
X10136634Y-16561722D01*
X10136634Y-16561722D02*
X10136634Y-16666484D01*
X10136634Y-16561722D02*
X10146158Y-16542674D01*
X10146158Y-16542674D02*
X10165205Y-16533150D01*
X10165205Y-16533150D02*
X10193777Y-16533150D01*
X10193777Y-16533150D02*
X10212825Y-16542674D01*
X10212825Y-16542674D02*
X10222348Y-16561722D01*
X10222348Y-16561722D02*
X10222348Y-16666484D01*
X10317586Y-16666484D02*
X10317586Y-16533150D01*
X10317586Y-16552198D02*
X10327110Y-16542674D01*
X10327110Y-16542674D02*
X10346158Y-16533150D01*
X10346158Y-16533150D02*
X10374729Y-16533150D01*
X10374729Y-16533150D02*
X10393777Y-16542674D01*
X10393777Y-16542674D02*
X10403301Y-16561722D01*
X10403301Y-16561722D02*
X10403301Y-16666484D01*
X10403301Y-16561722D02*
X10412825Y-16542674D01*
X10412825Y-16542674D02*
X10431872Y-16533150D01*
X10431872Y-16533150D02*
X10460444Y-16533150D01*
X10460444Y-16533150D02*
X10479491Y-16542674D01*
X10479491Y-16542674D02*
X10489015Y-16561722D01*
X10489015Y-16561722D02*
X10489015Y-16666484D01*
X10879491Y-16456960D02*
X10708063Y-16714103D01*
X11136634Y-16466484D02*
X11155682Y-16466484D01*
X11155682Y-16466484D02*
X11174729Y-16476008D01*
X11174729Y-16476008D02*
X11184253Y-16485531D01*
X11184253Y-16485531D02*
X11193777Y-16504579D01*
X11193777Y-16504579D02*
X11203301Y-16542674D01*
X11203301Y-16542674D02*
X11203301Y-16590293D01*
X11203301Y-16590293D02*
X11193777Y-16628388D01*
X11193777Y-16628388D02*
X11184253Y-16647436D01*
X11184253Y-16647436D02*
X11174729Y-16656960D01*
X11174729Y-16656960D02*
X11155682Y-16666484D01*
X11155682Y-16666484D02*
X11136634Y-16666484D01*
X11136634Y-16666484D02*
X11117587Y-16656960D01*
X11117587Y-16656960D02*
X11108063Y-16647436D01*
X11108063Y-16647436D02*
X11098539Y-16628388D01*
X11098539Y-16628388D02*
X11089015Y-16590293D01*
X11089015Y-16590293D02*
X11089015Y-16542674D01*
X11089015Y-16542674D02*
X11098539Y-16504579D01*
X11098539Y-16504579D02*
X11108063Y-16485531D01*
X11108063Y-16485531D02*
X11117587Y-16476008D01*
X11117587Y-16476008D02*
X11136634Y-16466484D01*
X11289015Y-16647436D02*
X11298539Y-16656960D01*
X11298539Y-16656960D02*
X11289015Y-16666484D01*
X11289015Y-16666484D02*
X11279491Y-16656960D01*
X11279491Y-16656960D02*
X11289015Y-16647436D01*
X11289015Y-16647436D02*
X11289015Y-16666484D01*
X11422348Y-16466484D02*
X11441396Y-16466484D01*
X11441396Y-16466484D02*
X11460444Y-16476008D01*
X11460444Y-16476008D02*
X11469967Y-16485531D01*
X11469967Y-16485531D02*
X11479491Y-16504579D01*
X11479491Y-16504579D02*
X11489015Y-16542674D01*
X11489015Y-16542674D02*
X11489015Y-16590293D01*
X11489015Y-16590293D02*
X11479491Y-16628388D01*
X11479491Y-16628388D02*
X11469967Y-16647436D01*
X11469967Y-16647436D02*
X11460444Y-16656960D01*
X11460444Y-16656960D02*
X11441396Y-16666484D01*
X11441396Y-16666484D02*
X11422348Y-16666484D01*
X11422348Y-16666484D02*
X11403301Y-16656960D01*
X11403301Y-16656960D02*
X11393777Y-16647436D01*
X11393777Y-16647436D02*
X11384253Y-16628388D01*
X11384253Y-16628388D02*
X11374729Y-16590293D01*
X11374729Y-16590293D02*
X11374729Y-16542674D01*
X11374729Y-16542674D02*
X11384253Y-16504579D01*
X11384253Y-16504579D02*
X11393777Y-16485531D01*
X11393777Y-16485531D02*
X11403301Y-16476008D01*
X11403301Y-16476008D02*
X11422348Y-16466484D01*
X11669967Y-16466484D02*
X11574729Y-16466484D01*
X11574729Y-16466484D02*
X11565206Y-16561722D01*
X11565206Y-16561722D02*
X11574729Y-16552198D01*
X11574729Y-16552198D02*
X11593777Y-16542674D01*
X11593777Y-16542674D02*
X11641396Y-16542674D01*
X11641396Y-16542674D02*
X11660444Y-16552198D01*
X11660444Y-16552198D02*
X11669967Y-16561722D01*
X11669967Y-16561722D02*
X11679491Y-16580769D01*
X11679491Y-16580769D02*
X11679491Y-16628388D01*
X11679491Y-16628388D02*
X11669967Y-16647436D01*
X11669967Y-16647436D02*
X11660444Y-16656960D01*
X11660444Y-16656960D02*
X11641396Y-16666484D01*
X11641396Y-16666484D02*
X11593777Y-16666484D01*
X11593777Y-16666484D02*
X11574729Y-16656960D01*
X11574729Y-16656960D02*
X11565206Y-16647436D01*
X11869967Y-16666484D02*
X11755682Y-16666484D01*
X11812825Y-16666484D02*
X11812825Y-16466484D01*
X11812825Y-16466484D02*
X11793777Y-16495055D01*
X11793777Y-16495055D02*
X11774729Y-16514103D01*
X11774729Y-16514103D02*
X11755682Y-16523627D01*
X11946158Y-16485531D02*
X11955682Y-16476008D01*
X11955682Y-16476008D02*
X11974729Y-16466484D01*
X11974729Y-16466484D02*
X12022348Y-16466484D01*
X12022348Y-16466484D02*
X12041396Y-16476008D01*
X12041396Y-16476008D02*
X12050920Y-16485531D01*
X12050920Y-16485531D02*
X12060444Y-16504579D01*
X12060444Y-16504579D02*
X12060444Y-16523627D01*
X12060444Y-16523627D02*
X12050920Y-16552198D01*
X12050920Y-16552198D02*
X11936634Y-16666484D01*
X11936634Y-16666484D02*
X12060444Y-16666484D01*
X12136634Y-16466484D02*
X12136634Y-16504579D01*
X12212825Y-16466484D02*
X12212825Y-16504579D01*
X12508063Y-16742674D02*
X12498539Y-16733150D01*
X12498539Y-16733150D02*
X12479491Y-16704579D01*
X12479491Y-16704579D02*
X12469968Y-16685531D01*
X12469968Y-16685531D02*
X12460444Y-16656960D01*
X12460444Y-16656960D02*
X12450920Y-16609341D01*
X12450920Y-16609341D02*
X12450920Y-16571246D01*
X12450920Y-16571246D02*
X12460444Y-16523627D01*
X12460444Y-16523627D02*
X12469968Y-16495055D01*
X12469968Y-16495055D02*
X12479491Y-16476008D01*
X12479491Y-16476008D02*
X12498539Y-16447436D01*
X12498539Y-16447436D02*
X12508063Y-16437912D01*
X12612825Y-16552198D02*
X12593777Y-16542674D01*
X12593777Y-16542674D02*
X12584253Y-16533150D01*
X12584253Y-16533150D02*
X12574729Y-16514103D01*
X12574729Y-16514103D02*
X12574729Y-16504579D01*
X12574729Y-16504579D02*
X12584253Y-16485531D01*
X12584253Y-16485531D02*
X12593777Y-16476008D01*
X12593777Y-16476008D02*
X12612825Y-16466484D01*
X12612825Y-16466484D02*
X12650920Y-16466484D01*
X12650920Y-16466484D02*
X12669968Y-16476008D01*
X12669968Y-16476008D02*
X12679491Y-16485531D01*
X12679491Y-16485531D02*
X12689015Y-16504579D01*
X12689015Y-16504579D02*
X12689015Y-16514103D01*
X12689015Y-16514103D02*
X12679491Y-16533150D01*
X12679491Y-16533150D02*
X12669968Y-16542674D01*
X12669968Y-16542674D02*
X12650920Y-16552198D01*
X12650920Y-16552198D02*
X12612825Y-16552198D01*
X12612825Y-16552198D02*
X12593777Y-16561722D01*
X12593777Y-16561722D02*
X12584253Y-16571246D01*
X12584253Y-16571246D02*
X12574729Y-16590293D01*
X12574729Y-16590293D02*
X12574729Y-16628388D01*
X12574729Y-16628388D02*
X12584253Y-16647436D01*
X12584253Y-16647436D02*
X12593777Y-16656960D01*
X12593777Y-16656960D02*
X12612825Y-16666484D01*
X12612825Y-16666484D02*
X12650920Y-16666484D01*
X12650920Y-16666484D02*
X12669968Y-16656960D01*
X12669968Y-16656960D02*
X12679491Y-16647436D01*
X12679491Y-16647436D02*
X12689015Y-16628388D01*
X12689015Y-16628388D02*
X12689015Y-16590293D01*
X12689015Y-16590293D02*
X12679491Y-16571246D01*
X12679491Y-16571246D02*
X12669968Y-16561722D01*
X12669968Y-16561722D02*
X12650920Y-16552198D01*
X12927110Y-16666484D02*
X12927110Y-16466484D01*
X13012825Y-16666484D02*
X13012825Y-16561722D01*
X13012825Y-16561722D02*
X13003301Y-16542674D01*
X13003301Y-16542674D02*
X12984253Y-16533150D01*
X12984253Y-16533150D02*
X12955682Y-16533150D01*
X12955682Y-16533150D02*
X12936634Y-16542674D01*
X12936634Y-16542674D02*
X12927110Y-16552198D01*
X13136634Y-16666484D02*
X13117587Y-16656960D01*
X13117587Y-16656960D02*
X13108063Y-16647436D01*
X13108063Y-16647436D02*
X13098539Y-16628388D01*
X13098539Y-16628388D02*
X13098539Y-16571246D01*
X13098539Y-16571246D02*
X13108063Y-16552198D01*
X13108063Y-16552198D02*
X13117587Y-16542674D01*
X13117587Y-16542674D02*
X13136634Y-16533150D01*
X13136634Y-16533150D02*
X13165206Y-16533150D01*
X13165206Y-16533150D02*
X13184253Y-16542674D01*
X13184253Y-16542674D02*
X13193777Y-16552198D01*
X13193777Y-16552198D02*
X13203301Y-16571246D01*
X13203301Y-16571246D02*
X13203301Y-16628388D01*
X13203301Y-16628388D02*
X13193777Y-16647436D01*
X13193777Y-16647436D02*
X13184253Y-16656960D01*
X13184253Y-16656960D02*
X13165206Y-16666484D01*
X13165206Y-16666484D02*
X13136634Y-16666484D01*
X13317587Y-16666484D02*
X13298539Y-16656960D01*
X13298539Y-16656960D02*
X13289015Y-16637912D01*
X13289015Y-16637912D02*
X13289015Y-16466484D01*
X13469968Y-16656960D02*
X13450920Y-16666484D01*
X13450920Y-16666484D02*
X13412825Y-16666484D01*
X13412825Y-16666484D02*
X13393777Y-16656960D01*
X13393777Y-16656960D02*
X13384253Y-16637912D01*
X13384253Y-16637912D02*
X13384253Y-16561722D01*
X13384253Y-16561722D02*
X13393777Y-16542674D01*
X13393777Y-16542674D02*
X13412825Y-16533150D01*
X13412825Y-16533150D02*
X13450920Y-16533150D01*
X13450920Y-16533150D02*
X13469968Y-16542674D01*
X13469968Y-16542674D02*
X13479491Y-16561722D01*
X13479491Y-16561722D02*
X13479491Y-16580769D01*
X13479491Y-16580769D02*
X13384253Y-16599817D01*
X13555682Y-16656960D02*
X13574730Y-16666484D01*
X13574730Y-16666484D02*
X13612825Y-16666484D01*
X13612825Y-16666484D02*
X13631872Y-16656960D01*
X13631872Y-16656960D02*
X13641396Y-16637912D01*
X13641396Y-16637912D02*
X13641396Y-16628388D01*
X13641396Y-16628388D02*
X13631872Y-16609341D01*
X13631872Y-16609341D02*
X13612825Y-16599817D01*
X13612825Y-16599817D02*
X13584253Y-16599817D01*
X13584253Y-16599817D02*
X13565206Y-16590293D01*
X13565206Y-16590293D02*
X13555682Y-16571246D01*
X13555682Y-16571246D02*
X13555682Y-16561722D01*
X13555682Y-16561722D02*
X13565206Y-16542674D01*
X13565206Y-16542674D02*
X13584253Y-16533150D01*
X13584253Y-16533150D02*
X13612825Y-16533150D01*
X13612825Y-16533150D02*
X13631872Y-16542674D01*
X13708063Y-16742674D02*
X13717587Y-16733150D01*
X13717587Y-16733150D02*
X13736634Y-16704579D01*
X13736634Y-16704579D02*
X13746158Y-16685531D01*
X13746158Y-16685531D02*
X13755682Y-16656960D01*
X13755682Y-16656960D02*
X13765206Y-16609341D01*
X13765206Y-16609341D02*
X13765206Y-16571246D01*
X13765206Y-16571246D02*
X13755682Y-16523627D01*
X13755682Y-16523627D02*
X13746158Y-16495055D01*
X13746158Y-16495055D02*
X13736634Y-16476008D01*
X13736634Y-16476008D02*
X13717587Y-16447436D01*
X13717587Y-16447436D02*
X13708063Y-16437912D01*
D17*
X8773000Y-16759000D02*
X8933000Y-16919000D01*
X8933000Y-16759000D02*
X8773000Y-16919000D01*
X8853000Y-16759000D02*
X8853000Y-16919000D01*
X8773000Y-16839000D02*
X8933000Y-16839000D01*
D10*
X9298539Y-16930484D02*
X9184253Y-16930484D01*
X9241396Y-16930484D02*
X9241396Y-16730484D01*
X9241396Y-16730484D02*
X9222348Y-16759055D01*
X9222348Y-16759055D02*
X9203301Y-16778103D01*
X9203301Y-16778103D02*
X9184253Y-16787627D01*
X9384253Y-16911436D02*
X9393777Y-16920960D01*
X9393777Y-16920960D02*
X9384253Y-16930484D01*
X9384253Y-16930484D02*
X9374729Y-16920960D01*
X9374729Y-16920960D02*
X9384253Y-16911436D01*
X9384253Y-16911436D02*
X9384253Y-16930484D01*
X9565205Y-16730484D02*
X9527110Y-16730484D01*
X9527110Y-16730484D02*
X9508063Y-16740008D01*
X9508063Y-16740008D02*
X9498539Y-16749531D01*
X9498539Y-16749531D02*
X9479491Y-16778103D01*
X9479491Y-16778103D02*
X9469967Y-16816198D01*
X9469967Y-16816198D02*
X9469967Y-16892389D01*
X9469967Y-16892389D02*
X9479491Y-16911436D01*
X9479491Y-16911436D02*
X9489015Y-16920960D01*
X9489015Y-16920960D02*
X9508063Y-16930484D01*
X9508063Y-16930484D02*
X9546158Y-16930484D01*
X9546158Y-16930484D02*
X9565205Y-16920960D01*
X9565205Y-16920960D02*
X9574729Y-16911436D01*
X9574729Y-16911436D02*
X9584253Y-16892389D01*
X9584253Y-16892389D02*
X9584253Y-16844770D01*
X9584253Y-16844770D02*
X9574729Y-16825722D01*
X9574729Y-16825722D02*
X9565205Y-16816198D01*
X9565205Y-16816198D02*
X9546158Y-16806674D01*
X9546158Y-16806674D02*
X9508063Y-16806674D01*
X9508063Y-16806674D02*
X9489015Y-16816198D01*
X9489015Y-16816198D02*
X9479491Y-16825722D01*
X9479491Y-16825722D02*
X9469967Y-16844770D01*
X9708063Y-16730484D02*
X9727110Y-16730484D01*
X9727110Y-16730484D02*
X9746158Y-16740008D01*
X9746158Y-16740008D02*
X9755682Y-16749531D01*
X9755682Y-16749531D02*
X9765205Y-16768579D01*
X9765205Y-16768579D02*
X9774729Y-16806674D01*
X9774729Y-16806674D02*
X9774729Y-16854293D01*
X9774729Y-16854293D02*
X9765205Y-16892389D01*
X9765205Y-16892389D02*
X9755682Y-16911436D01*
X9755682Y-16911436D02*
X9746158Y-16920960D01*
X9746158Y-16920960D02*
X9727110Y-16930484D01*
X9727110Y-16930484D02*
X9708063Y-16930484D01*
X9708063Y-16930484D02*
X9689015Y-16920960D01*
X9689015Y-16920960D02*
X9679491Y-16911436D01*
X9679491Y-16911436D02*
X9669967Y-16892389D01*
X9669967Y-16892389D02*
X9660444Y-16854293D01*
X9660444Y-16854293D02*
X9660444Y-16806674D01*
X9660444Y-16806674D02*
X9669967Y-16768579D01*
X9669967Y-16768579D02*
X9679491Y-16749531D01*
X9679491Y-16749531D02*
X9689015Y-16740008D01*
X9689015Y-16740008D02*
X9708063Y-16730484D01*
X9898539Y-16730484D02*
X9917586Y-16730484D01*
X9917586Y-16730484D02*
X9936634Y-16740008D01*
X9936634Y-16740008D02*
X9946158Y-16749531D01*
X9946158Y-16749531D02*
X9955682Y-16768579D01*
X9955682Y-16768579D02*
X9965205Y-16806674D01*
X9965205Y-16806674D02*
X9965205Y-16854293D01*
X9965205Y-16854293D02*
X9955682Y-16892389D01*
X9955682Y-16892389D02*
X9946158Y-16911436D01*
X9946158Y-16911436D02*
X9936634Y-16920960D01*
X9936634Y-16920960D02*
X9917586Y-16930484D01*
X9917586Y-16930484D02*
X9898539Y-16930484D01*
X9898539Y-16930484D02*
X9879491Y-16920960D01*
X9879491Y-16920960D02*
X9869967Y-16911436D01*
X9869967Y-16911436D02*
X9860444Y-16892389D01*
X9860444Y-16892389D02*
X9850920Y-16854293D01*
X9850920Y-16854293D02*
X9850920Y-16806674D01*
X9850920Y-16806674D02*
X9860444Y-16768579D01*
X9860444Y-16768579D02*
X9869967Y-16749531D01*
X9869967Y-16749531D02*
X9879491Y-16740008D01*
X9879491Y-16740008D02*
X9898539Y-16730484D01*
X10050920Y-16930484D02*
X10050920Y-16797150D01*
X10050920Y-16816198D02*
X10060444Y-16806674D01*
X10060444Y-16806674D02*
X10079491Y-16797150D01*
X10079491Y-16797150D02*
X10108063Y-16797150D01*
X10108063Y-16797150D02*
X10127110Y-16806674D01*
X10127110Y-16806674D02*
X10136634Y-16825722D01*
X10136634Y-16825722D02*
X10136634Y-16930484D01*
X10136634Y-16825722D02*
X10146158Y-16806674D01*
X10146158Y-16806674D02*
X10165205Y-16797150D01*
X10165205Y-16797150D02*
X10193777Y-16797150D01*
X10193777Y-16797150D02*
X10212825Y-16806674D01*
X10212825Y-16806674D02*
X10222348Y-16825722D01*
X10222348Y-16825722D02*
X10222348Y-16930484D01*
X10317586Y-16930484D02*
X10317586Y-16797150D01*
X10317586Y-16816198D02*
X10327110Y-16806674D01*
X10327110Y-16806674D02*
X10346158Y-16797150D01*
X10346158Y-16797150D02*
X10374729Y-16797150D01*
X10374729Y-16797150D02*
X10393777Y-16806674D01*
X10393777Y-16806674D02*
X10403301Y-16825722D01*
X10403301Y-16825722D02*
X10403301Y-16930484D01*
X10403301Y-16825722D02*
X10412825Y-16806674D01*
X10412825Y-16806674D02*
X10431872Y-16797150D01*
X10431872Y-16797150D02*
X10460444Y-16797150D01*
X10460444Y-16797150D02*
X10479491Y-16806674D01*
X10479491Y-16806674D02*
X10489015Y-16825722D01*
X10489015Y-16825722D02*
X10489015Y-16930484D01*
X10879491Y-16720960D02*
X10708063Y-16978103D01*
X11136634Y-16730484D02*
X11155682Y-16730484D01*
X11155682Y-16730484D02*
X11174729Y-16740008D01*
X11174729Y-16740008D02*
X11184253Y-16749531D01*
X11184253Y-16749531D02*
X11193777Y-16768579D01*
X11193777Y-16768579D02*
X11203301Y-16806674D01*
X11203301Y-16806674D02*
X11203301Y-16854293D01*
X11203301Y-16854293D02*
X11193777Y-16892389D01*
X11193777Y-16892389D02*
X11184253Y-16911436D01*
X11184253Y-16911436D02*
X11174729Y-16920960D01*
X11174729Y-16920960D02*
X11155682Y-16930484D01*
X11155682Y-16930484D02*
X11136634Y-16930484D01*
X11136634Y-16930484D02*
X11117587Y-16920960D01*
X11117587Y-16920960D02*
X11108063Y-16911436D01*
X11108063Y-16911436D02*
X11098539Y-16892389D01*
X11098539Y-16892389D02*
X11089015Y-16854293D01*
X11089015Y-16854293D02*
X11089015Y-16806674D01*
X11089015Y-16806674D02*
X11098539Y-16768579D01*
X11098539Y-16768579D02*
X11108063Y-16749531D01*
X11108063Y-16749531D02*
X11117587Y-16740008D01*
X11117587Y-16740008D02*
X11136634Y-16730484D01*
X11289015Y-16911436D02*
X11298539Y-16920960D01*
X11298539Y-16920960D02*
X11289015Y-16930484D01*
X11289015Y-16930484D02*
X11279491Y-16920960D01*
X11279491Y-16920960D02*
X11289015Y-16911436D01*
X11289015Y-16911436D02*
X11289015Y-16930484D01*
X11422348Y-16730484D02*
X11441396Y-16730484D01*
X11441396Y-16730484D02*
X11460444Y-16740008D01*
X11460444Y-16740008D02*
X11469967Y-16749531D01*
X11469967Y-16749531D02*
X11479491Y-16768579D01*
X11479491Y-16768579D02*
X11489015Y-16806674D01*
X11489015Y-16806674D02*
X11489015Y-16854293D01*
X11489015Y-16854293D02*
X11479491Y-16892389D01*
X11479491Y-16892389D02*
X11469967Y-16911436D01*
X11469967Y-16911436D02*
X11460444Y-16920960D01*
X11460444Y-16920960D02*
X11441396Y-16930484D01*
X11441396Y-16930484D02*
X11422348Y-16930484D01*
X11422348Y-16930484D02*
X11403301Y-16920960D01*
X11403301Y-16920960D02*
X11393777Y-16911436D01*
X11393777Y-16911436D02*
X11384253Y-16892389D01*
X11384253Y-16892389D02*
X11374729Y-16854293D01*
X11374729Y-16854293D02*
X11374729Y-16806674D01*
X11374729Y-16806674D02*
X11384253Y-16768579D01*
X11384253Y-16768579D02*
X11393777Y-16749531D01*
X11393777Y-16749531D02*
X11403301Y-16740008D01*
X11403301Y-16740008D02*
X11422348Y-16730484D01*
X11660444Y-16730484D02*
X11622348Y-16730484D01*
X11622348Y-16730484D02*
X11603301Y-16740008D01*
X11603301Y-16740008D02*
X11593777Y-16749531D01*
X11593777Y-16749531D02*
X11574729Y-16778103D01*
X11574729Y-16778103D02*
X11565206Y-16816198D01*
X11565206Y-16816198D02*
X11565206Y-16892389D01*
X11565206Y-16892389D02*
X11574729Y-16911436D01*
X11574729Y-16911436D02*
X11584253Y-16920960D01*
X11584253Y-16920960D02*
X11603301Y-16930484D01*
X11603301Y-16930484D02*
X11641396Y-16930484D01*
X11641396Y-16930484D02*
X11660444Y-16920960D01*
X11660444Y-16920960D02*
X11669967Y-16911436D01*
X11669967Y-16911436D02*
X11679491Y-16892389D01*
X11679491Y-16892389D02*
X11679491Y-16844770D01*
X11679491Y-16844770D02*
X11669967Y-16825722D01*
X11669967Y-16825722D02*
X11660444Y-16816198D01*
X11660444Y-16816198D02*
X11641396Y-16806674D01*
X11641396Y-16806674D02*
X11603301Y-16806674D01*
X11603301Y-16806674D02*
X11584253Y-16816198D01*
X11584253Y-16816198D02*
X11574729Y-16825722D01*
X11574729Y-16825722D02*
X11565206Y-16844770D01*
X11746158Y-16730484D02*
X11869967Y-16730484D01*
X11869967Y-16730484D02*
X11803301Y-16806674D01*
X11803301Y-16806674D02*
X11831872Y-16806674D01*
X11831872Y-16806674D02*
X11850920Y-16816198D01*
X11850920Y-16816198D02*
X11860444Y-16825722D01*
X11860444Y-16825722D02*
X11869967Y-16844770D01*
X11869967Y-16844770D02*
X11869967Y-16892389D01*
X11869967Y-16892389D02*
X11860444Y-16911436D01*
X11860444Y-16911436D02*
X11850920Y-16920960D01*
X11850920Y-16920960D02*
X11831872Y-16930484D01*
X11831872Y-16930484D02*
X11774729Y-16930484D01*
X11774729Y-16930484D02*
X11755682Y-16920960D01*
X11755682Y-16920960D02*
X11746158Y-16911436D01*
X11993777Y-16730484D02*
X12012825Y-16730484D01*
X12012825Y-16730484D02*
X12031872Y-16740008D01*
X12031872Y-16740008D02*
X12041396Y-16749531D01*
X12041396Y-16749531D02*
X12050920Y-16768579D01*
X12050920Y-16768579D02*
X12060444Y-16806674D01*
X12060444Y-16806674D02*
X12060444Y-16854293D01*
X12060444Y-16854293D02*
X12050920Y-16892389D01*
X12050920Y-16892389D02*
X12041396Y-16911436D01*
X12041396Y-16911436D02*
X12031872Y-16920960D01*
X12031872Y-16920960D02*
X12012825Y-16930484D01*
X12012825Y-16930484D02*
X11993777Y-16930484D01*
X11993777Y-16930484D02*
X11974729Y-16920960D01*
X11974729Y-16920960D02*
X11965206Y-16911436D01*
X11965206Y-16911436D02*
X11955682Y-16892389D01*
X11955682Y-16892389D02*
X11946158Y-16854293D01*
X11946158Y-16854293D02*
X11946158Y-16806674D01*
X11946158Y-16806674D02*
X11955682Y-16768579D01*
X11955682Y-16768579D02*
X11965206Y-16749531D01*
X11965206Y-16749531D02*
X11974729Y-16740008D01*
X11974729Y-16740008D02*
X11993777Y-16730484D01*
X12136634Y-16730484D02*
X12136634Y-16768579D01*
X12212825Y-16730484D02*
X12212825Y-16768579D01*
X12508063Y-17006674D02*
X12498539Y-16997150D01*
X12498539Y-16997150D02*
X12479491Y-16968579D01*
X12479491Y-16968579D02*
X12469968Y-16949531D01*
X12469968Y-16949531D02*
X12460444Y-16920960D01*
X12460444Y-16920960D02*
X12450920Y-16873341D01*
X12450920Y-16873341D02*
X12450920Y-16835246D01*
X12450920Y-16835246D02*
X12460444Y-16787627D01*
X12460444Y-16787627D02*
X12469968Y-16759055D01*
X12469968Y-16759055D02*
X12479491Y-16740008D01*
X12479491Y-16740008D02*
X12498539Y-16711436D01*
X12498539Y-16711436D02*
X12508063Y-16701912D01*
X12689015Y-16930484D02*
X12574729Y-16930484D01*
X12631872Y-16930484D02*
X12631872Y-16730484D01*
X12631872Y-16730484D02*
X12612825Y-16759055D01*
X12612825Y-16759055D02*
X12593777Y-16778103D01*
X12593777Y-16778103D02*
X12574729Y-16787627D01*
X12765206Y-16749531D02*
X12774729Y-16740008D01*
X12774729Y-16740008D02*
X12793777Y-16730484D01*
X12793777Y-16730484D02*
X12841396Y-16730484D01*
X12841396Y-16730484D02*
X12860444Y-16740008D01*
X12860444Y-16740008D02*
X12869968Y-16749531D01*
X12869968Y-16749531D02*
X12879491Y-16768579D01*
X12879491Y-16768579D02*
X12879491Y-16787627D01*
X12879491Y-16787627D02*
X12869968Y-16816198D01*
X12869968Y-16816198D02*
X12755682Y-16930484D01*
X12755682Y-16930484D02*
X12879491Y-16930484D01*
X13117587Y-16930484D02*
X13117587Y-16730484D01*
X13203301Y-16930484D02*
X13203301Y-16825722D01*
X13203301Y-16825722D02*
X13193777Y-16806674D01*
X13193777Y-16806674D02*
X13174730Y-16797150D01*
X13174730Y-16797150D02*
X13146158Y-16797150D01*
X13146158Y-16797150D02*
X13127110Y-16806674D01*
X13127110Y-16806674D02*
X13117587Y-16816198D01*
X13327110Y-16930484D02*
X13308063Y-16920960D01*
X13308063Y-16920960D02*
X13298539Y-16911436D01*
X13298539Y-16911436D02*
X13289015Y-16892389D01*
X13289015Y-16892389D02*
X13289015Y-16835246D01*
X13289015Y-16835246D02*
X13298539Y-16816198D01*
X13298539Y-16816198D02*
X13308063Y-16806674D01*
X13308063Y-16806674D02*
X13327110Y-16797150D01*
X13327110Y-16797150D02*
X13355682Y-16797150D01*
X13355682Y-16797150D02*
X13374730Y-16806674D01*
X13374730Y-16806674D02*
X13384253Y-16816198D01*
X13384253Y-16816198D02*
X13393777Y-16835246D01*
X13393777Y-16835246D02*
X13393777Y-16892389D01*
X13393777Y-16892389D02*
X13384253Y-16911436D01*
X13384253Y-16911436D02*
X13374730Y-16920960D01*
X13374730Y-16920960D02*
X13355682Y-16930484D01*
X13355682Y-16930484D02*
X13327110Y-16930484D01*
X13508063Y-16930484D02*
X13489015Y-16920960D01*
X13489015Y-16920960D02*
X13479491Y-16901912D01*
X13479491Y-16901912D02*
X13479491Y-16730484D01*
X13660444Y-16920960D02*
X13641396Y-16930484D01*
X13641396Y-16930484D02*
X13603301Y-16930484D01*
X13603301Y-16930484D02*
X13584253Y-16920960D01*
X13584253Y-16920960D02*
X13574730Y-16901912D01*
X13574730Y-16901912D02*
X13574730Y-16825722D01*
X13574730Y-16825722D02*
X13584253Y-16806674D01*
X13584253Y-16806674D02*
X13603301Y-16797150D01*
X13603301Y-16797150D02*
X13641396Y-16797150D01*
X13641396Y-16797150D02*
X13660444Y-16806674D01*
X13660444Y-16806674D02*
X13669968Y-16825722D01*
X13669968Y-16825722D02*
X13669968Y-16844770D01*
X13669968Y-16844770D02*
X13574730Y-16863817D01*
X13746158Y-16920960D02*
X13765206Y-16930484D01*
X13765206Y-16930484D02*
X13803301Y-16930484D01*
X13803301Y-16930484D02*
X13822349Y-16920960D01*
X13822349Y-16920960D02*
X13831872Y-16901912D01*
X13831872Y-16901912D02*
X13831872Y-16892389D01*
X13831872Y-16892389D02*
X13822349Y-16873341D01*
X13822349Y-16873341D02*
X13803301Y-16863817D01*
X13803301Y-16863817D02*
X13774730Y-16863817D01*
X13774730Y-16863817D02*
X13755682Y-16854293D01*
X13755682Y-16854293D02*
X13746158Y-16835246D01*
X13746158Y-16835246D02*
X13746158Y-16825722D01*
X13746158Y-16825722D02*
X13755682Y-16806674D01*
X13755682Y-16806674D02*
X13774730Y-16797150D01*
X13774730Y-16797150D02*
X13803301Y-16797150D01*
X13803301Y-16797150D02*
X13822349Y-16806674D01*
X13898539Y-17006674D02*
X13908063Y-16997150D01*
X13908063Y-16997150D02*
X13927111Y-16968579D01*
X13927111Y-16968579D02*
X13936634Y-16949531D01*
X13936634Y-16949531D02*
X13946158Y-16920960D01*
X13946158Y-16920960D02*
X13955682Y-16873341D01*
X13955682Y-16873341D02*
X13955682Y-16835246D01*
X13955682Y-16835246D02*
X13946158Y-16787627D01*
X13946158Y-16787627D02*
X13936634Y-16759055D01*
X13936634Y-16759055D02*
X13927111Y-16740008D01*
X13927111Y-16740008D02*
X13908063Y-16711436D01*
X13908063Y-16711436D02*
X13898539Y-16701912D01*
M02*
