G04 #@! TF.GenerationSoftware,KiCad,Pcbnew,7.0.7*
G04 #@! TF.CreationDate,2023-08-22T16:34:34-04:00*
G04 #@! TF.ProjectId,2 - Clock,32202d20-436c-46f6-936b-2e6b69636164,1.1*
G04 #@! TF.SameCoordinates,Original*
G04 #@! TF.FileFunction,Legend,Bot*
G04 #@! TF.FilePolarity,Positive*
%FSLAX46Y46*%
G04 Gerber Fmt 4.6, Leading zero omitted, Abs format (unit mm)*
G04 Created by KiCad (PCBNEW 7.0.7) date 2023-08-22 16:34:34*
%MOMM*%
%LPD*%
G01*
G04 APERTURE LIST*
%ADD10C,0.150000*%
%ADD11C,0.200000*%
%ADD12C,1.600000*%
%ADD13O,1.600000X1.600000*%
%ADD14R,1.600000X1.600000*%
%ADD15R,1.800000X1.800000*%
%ADD16C,1.800000*%
%ADD17C,2.100000*%
%ADD18C,1.750000*%
%ADD19C,2.600000*%
%ADD20R,1.780000X7.620000*%
%ADD21C,1.440000*%
%ADD22R,1.700000X1.700000*%
%ADD23O,1.700000X1.700000*%
%ADD24R,1.500000X1.500000*%
%ADD25C,1.500000*%
G04 APERTURE END LIST*
D10*
X152125000Y-55626000D02*
X162031000Y-55626000D01*
X89662000Y-60833000D02*
X102616000Y-60833000D01*
X131292600Y-125755400D02*
X131292600Y-128244600D01*
X178333400Y-72034400D02*
X184886600Y-72034400D01*
X184886600Y-74777600D01*
X178333400Y-74777600D01*
X178333400Y-72034400D01*
X131064000Y-54737000D02*
X131572000Y-54483000D01*
X136702800Y-77444600D02*
X136702800Y-74930000D01*
X129082800Y-100330000D02*
X129082800Y-102819200D01*
X145669000Y-54737000D02*
X140970000Y-54737000D01*
X130048000Y-54991000D02*
X130556000Y-54737000D01*
X89662000Y-89535000D02*
X89662000Y-76073000D01*
X109982000Y-54737000D02*
X109474000Y-54483000D01*
X110236000Y-55626000D02*
X115570000Y-55626000D01*
X109982000Y-54737000D02*
X109474000Y-54864000D01*
X184886600Y-94742000D02*
X185623200Y-94742000D01*
X150672800Y-74930000D02*
X150672800Y-77419200D01*
X131292600Y-113055400D02*
X131292600Y-115570000D01*
X162031000Y-55626000D02*
X162031000Y-46200000D01*
X180365400Y-107594400D02*
X182854600Y-107594400D01*
X184886600Y-105410000D02*
X185623200Y-105410000D01*
X102616000Y-104775000D02*
X89662000Y-104775000D01*
X146918000Y-55626000D02*
X146791000Y-55626000D01*
X131953000Y-96443800D02*
X149987000Y-96443800D01*
X149987000Y-106730800D01*
X131953000Y-106730800D01*
X131953000Y-96443800D01*
X107492800Y-64744600D02*
X107492800Y-62255400D01*
X178333400Y-94742000D02*
X177596800Y-94742000D01*
X140970000Y-54737000D02*
X141478000Y-54483000D01*
X134620000Y-73456800D02*
X132105400Y-73456800D01*
X131064000Y-54737000D02*
X131572000Y-54864000D01*
X152984200Y-115544600D02*
X152984200Y-113055400D01*
X102616000Y-106553000D02*
X102616000Y-120015000D01*
X153568400Y-121843800D02*
X174117000Y-121843800D01*
X174117000Y-132130800D01*
X153568400Y-132130800D01*
X153568400Y-121843800D01*
X107492800Y-113055400D02*
X107492800Y-115544600D01*
X151892000Y-54737000D02*
X151384000Y-54483000D01*
X89662000Y-104775000D02*
X89662000Y-91313000D01*
X162814000Y-54991000D02*
X162306000Y-54737000D01*
X115824000Y-54737000D02*
X116332000Y-54864000D01*
X95758000Y-54991000D02*
X95250000Y-54737000D01*
X184886600Y-73406000D02*
X185623200Y-73406000D01*
X149987000Y-54737000D02*
X151892000Y-54737000D01*
X178333400Y-66294000D02*
X177596800Y-66294000D01*
X129082800Y-62255400D02*
X129082800Y-64744600D01*
X131267200Y-102819200D02*
X131267200Y-100330000D01*
X150647400Y-128244600D02*
X150647400Y-125755400D01*
X137922000Y-54737000D02*
X140462000Y-54737000D01*
X95250000Y-54737000D02*
X95758000Y-54610000D01*
X131978400Y-109169200D02*
X149987000Y-109169200D01*
X149987000Y-119430800D01*
X131978400Y-119430800D01*
X131978400Y-109169200D01*
X102616000Y-120015000D02*
X89662000Y-120015000D01*
X150672800Y-62255400D02*
X150672800Y-64744600D01*
X162306000Y-54737000D02*
X162814000Y-54864000D01*
X152908000Y-54483000D02*
X152908000Y-54991000D01*
X140970000Y-54737000D02*
X141478000Y-54610000D01*
X139598400Y-83743800D02*
X149987000Y-83743800D01*
X149987000Y-94005400D01*
X139598400Y-94005400D01*
X139598400Y-83743800D01*
X131572000Y-54991000D02*
X131064000Y-54737000D01*
X139954000Y-54483000D02*
X139954000Y-54991000D01*
X130810000Y-55626000D02*
X130810000Y-46200000D01*
X184886600Y-80518000D02*
X185623200Y-80518000D01*
X178333400Y-93370400D02*
X184886600Y-93370400D01*
X184886600Y-96113600D01*
X178333400Y-96113600D01*
X178333400Y-93370400D01*
X107492800Y-90119200D02*
X107492800Y-87630000D01*
X152857200Y-102844600D02*
X152857200Y-100330000D01*
X162306000Y-54737000D02*
X162814000Y-54483000D01*
X131267200Y-64744600D02*
X131267200Y-62255400D01*
X161798000Y-54737000D02*
X161290000Y-54864000D01*
X130556000Y-54737000D02*
X130048000Y-54864000D01*
X178333400Y-105410000D02*
X177596800Y-105410000D01*
X150672800Y-100330000D02*
X150672800Y-102819200D01*
X182372000Y-54737000D02*
X181864000Y-54864000D01*
X125222000Y-54737000D02*
X130556000Y-54737000D01*
X95758000Y-54483000D02*
X95758000Y-54991000D01*
X150672800Y-87604600D02*
X150672800Y-90119200D01*
X138887200Y-90144600D02*
X138887200Y-87630000D01*
X153543000Y-83743800D02*
X174091600Y-83743800D01*
X174091600Y-94005400D01*
X153543000Y-94005400D01*
X153543000Y-83743800D01*
X178333400Y-89814400D02*
X184886600Y-89814400D01*
X184886600Y-92557600D01*
X178333400Y-92557600D01*
X178333400Y-89814400D01*
X102616000Y-60833000D02*
X102616000Y-74295000D01*
X140716000Y-55626000D02*
X140716000Y-46200000D01*
X116332000Y-54483000D02*
X116332000Y-54991000D01*
X102616000Y-74295000D02*
X89662000Y-74295000D01*
X139598400Y-71043800D02*
X149987000Y-71043800D01*
X149987000Y-81305400D01*
X139598400Y-81305400D01*
X139598400Y-71043800D01*
X131978400Y-121843800D02*
X149987000Y-121843800D01*
X149987000Y-132130800D01*
X131978400Y-132130800D01*
X131978400Y-121843800D01*
X140462000Y-54737000D02*
X139954000Y-54864000D01*
X178333400Y-62738000D02*
X177596800Y-62738000D01*
X181864000Y-54991000D02*
X182372000Y-54737000D01*
X132105400Y-82727800D02*
X134594600Y-82727800D01*
X89662000Y-91313000D02*
X102616000Y-91313000D01*
X184886600Y-59182000D02*
X185623200Y-59182000D01*
X178333400Y-91186000D02*
X177596800Y-91186000D01*
X133604000Y-54737000D02*
X131064000Y-54737000D01*
X178333400Y-59182000D02*
X177596800Y-59182000D01*
X178333400Y-96926400D02*
X184886600Y-96926400D01*
X184886600Y-99669600D01*
X178333400Y-99669600D01*
X178333400Y-96926400D01*
X110363000Y-109143800D02*
X128371600Y-109143800D01*
X128371600Y-119430800D01*
X110363000Y-119430800D01*
X110363000Y-109143800D01*
X151892000Y-54737000D02*
X151384000Y-54864000D01*
X141478000Y-54483000D02*
X141478000Y-54991000D01*
X110363000Y-83743800D02*
X128397000Y-83743800D01*
X128397000Y-94005400D01*
X110363000Y-94005400D01*
X110363000Y-83743800D01*
X178333400Y-98298000D02*
X177596800Y-98298000D01*
X134594600Y-82372200D02*
X132105400Y-82372200D01*
X102616000Y-76073000D02*
X102616000Y-89535000D01*
X152400000Y-54737000D02*
X152908000Y-54483000D01*
X140462000Y-54737000D02*
X139954000Y-54610000D01*
X161798000Y-54737000D02*
X161290000Y-54483000D01*
X182372000Y-54737000D02*
X181864000Y-54610000D01*
X182372000Y-54737000D02*
X181864000Y-54483000D01*
X129082800Y-115570000D02*
X129082800Y-113055400D01*
X109474000Y-54991000D02*
X109982000Y-54737000D01*
X95250000Y-54737000D02*
X95758000Y-54483000D01*
X170307000Y-54737000D02*
X162306000Y-54737000D01*
X115824000Y-54737000D02*
X116332000Y-54610000D01*
X178333400Y-76962000D02*
X177596800Y-76962000D01*
X141478000Y-54991000D02*
X140970000Y-54737000D01*
X178333400Y-100482400D02*
X184886600Y-100482400D01*
X184886600Y-103225600D01*
X178333400Y-103225600D01*
X178333400Y-100482400D01*
X161290000Y-54483000D02*
X161290000Y-54991000D01*
X151384000Y-54991000D02*
X151892000Y-54737000D01*
X182605000Y-55626000D02*
X182605000Y-46200000D01*
X174244000Y-54737000D02*
X182372000Y-54737000D01*
X184886600Y-76962000D02*
X185623200Y-76962000D01*
X162814000Y-54483000D02*
X162814000Y-54991000D01*
X184886600Y-69850000D02*
X185623200Y-69850000D01*
X135051800Y-91922600D02*
X135051800Y-87998395D01*
X178333400Y-64922400D02*
X184886600Y-64922400D01*
X184886600Y-67665600D01*
X178333400Y-67665600D01*
X178333400Y-64922400D01*
X104952800Y-125730000D02*
X104952800Y-128219200D01*
X89662000Y-120015000D02*
X89662000Y-106553000D01*
X109677200Y-102819200D02*
X109677200Y-100330000D01*
X152857200Y-64744600D02*
X152857200Y-62255400D01*
X110363000Y-58343800D02*
X128397000Y-58343800D01*
X128397000Y-68630800D01*
X110363000Y-68630800D01*
X110363000Y-58343800D01*
X121158000Y-54737000D02*
X115824000Y-54737000D01*
X177317400Y-132588000D02*
X177317400Y-111226600D01*
X130048000Y-54483000D02*
X130048000Y-54991000D01*
X136702800Y-87630000D02*
X136702800Y-90119200D01*
X178333400Y-101854000D02*
X177596800Y-101854000D01*
X184886600Y-91186000D02*
X185623200Y-91186000D01*
X132105400Y-76352400D02*
X134594600Y-76352400D01*
X140462000Y-54737000D02*
X139954000Y-54483000D01*
X178333400Y-84074000D02*
X177596800Y-84074000D01*
X189280800Y-132562600D02*
X177317400Y-132588000D01*
X154559000Y-54737000D02*
X152400000Y-54737000D01*
X184886600Y-66294000D02*
X185623200Y-66294000D01*
X116332000Y-54991000D02*
X115824000Y-54737000D01*
X178333400Y-82702400D02*
X184886600Y-82702400D01*
X184886600Y-85445600D01*
X178333400Y-85445600D01*
X178333400Y-82702400D01*
X153543000Y-71043800D02*
X174091600Y-71043800D01*
X174091600Y-81330800D01*
X153543000Y-81330800D01*
X153543000Y-71043800D01*
X131064000Y-54737000D02*
X131572000Y-54610000D01*
X130556000Y-54737000D02*
X130048000Y-54610000D01*
X152400000Y-54737000D02*
X152908000Y-54610000D01*
X184886600Y-98298000D02*
X185623200Y-98298000D01*
X152908000Y-54991000D02*
X152400000Y-54737000D01*
X177317400Y-111226600D02*
X189255400Y-111226600D01*
X129082800Y-128244600D02*
X129082800Y-125755400D01*
X104013000Y-78587600D02*
X106807000Y-78587600D01*
X106807000Y-106857800D01*
X104013000Y-106857800D01*
X104013000Y-78587600D01*
X109677200Y-115544600D02*
X109677200Y-113055400D01*
X180365400Y-109829600D02*
X182880000Y-109829600D01*
X104013000Y-58242200D02*
X106807000Y-58242200D01*
X106807000Y-71297800D01*
X104013000Y-71297800D01*
X104013000Y-58242200D01*
X178333400Y-61366400D02*
X184886600Y-61366400D01*
X184886600Y-64109600D01*
X178333400Y-64109600D01*
X178333400Y-61366400D01*
X131572000Y-54483000D02*
X131572000Y-54991000D01*
X153543000Y-58343800D02*
X174091600Y-58343800D01*
X174091600Y-68630800D01*
X153543000Y-68630800D01*
X153543000Y-58343800D01*
X139954000Y-54991000D02*
X140462000Y-54737000D01*
X107162600Y-128219200D02*
X107162600Y-125730000D01*
X150799800Y-115544600D02*
X150799800Y-113055400D01*
X178333400Y-104038400D02*
X184886600Y-104038400D01*
X184886600Y-106781600D01*
X178333400Y-106781600D01*
X178333400Y-104038400D01*
X132207000Y-87630000D02*
G75*
G03*
X132207000Y-92329000I1147900J-2349500D01*
G01*
X109677200Y-62255400D02*
X109677200Y-64744600D01*
X152882600Y-128244600D02*
X152882600Y-125755400D01*
X151384000Y-54483000D02*
X151384000Y-54991000D01*
X89662000Y-106553000D02*
X102616000Y-106553000D01*
X181864000Y-54483000D02*
X181864000Y-54991000D01*
X140716000Y-55626000D02*
X152125000Y-55626000D01*
X110388400Y-71043800D02*
X128397000Y-71043800D01*
X128397000Y-81305400D01*
X110388400Y-81305400D01*
X110388400Y-71043800D01*
X159639000Y-54737000D02*
X161798000Y-54737000D01*
X134594600Y-78536800D02*
X132105400Y-78536800D01*
X162031000Y-55626000D02*
X182605000Y-55626000D01*
X162306000Y-54737000D02*
X162814000Y-54610000D01*
X130556000Y-54737000D02*
X130048000Y-54483000D01*
X161290000Y-54991000D02*
X161798000Y-54737000D01*
X89662000Y-76073000D02*
X102616000Y-76073000D01*
X109677200Y-74930000D02*
X109677200Y-77419200D01*
X89662000Y-74295000D02*
X89662000Y-60833000D01*
X110363000Y-96443800D02*
X128397000Y-96443800D01*
X128397000Y-106705400D01*
X110363000Y-106705400D01*
X110363000Y-96443800D01*
X132105400Y-71272400D02*
X134594600Y-71272400D01*
X153543000Y-96469200D02*
X174091600Y-96469200D01*
X174091600Y-106730800D01*
X153543000Y-106730800D01*
X153543000Y-96469200D01*
X151892000Y-54737000D02*
X151384000Y-54610000D01*
X178333400Y-69850000D02*
X177596800Y-69850000D01*
X131953000Y-58343800D02*
X149961600Y-58343800D01*
X149961600Y-68630800D01*
X131953000Y-68630800D01*
X131953000Y-58343800D01*
X152125000Y-55626000D02*
X152125000Y-46200000D01*
X178333400Y-57810400D02*
X184886600Y-57810400D01*
X184886600Y-60553600D01*
X178333400Y-60553600D01*
X178333400Y-57810400D01*
X184886600Y-62738000D02*
X185623200Y-62738000D01*
X178333400Y-73406000D02*
X177596800Y-73406000D01*
X102616000Y-91313000D02*
X102616000Y-104775000D01*
X132105400Y-73812400D02*
X134620000Y-73812400D01*
X107492800Y-77419200D02*
X107492800Y-74930000D01*
X184886600Y-101854000D02*
X185623200Y-101854000D01*
X140970000Y-54737000D02*
X141478000Y-54864000D01*
X152857200Y-77444600D02*
X152857200Y-74930000D01*
X178333400Y-68478400D02*
X184886600Y-68478400D01*
X184886600Y-71221600D01*
X178333400Y-71221600D01*
X178333400Y-68478400D01*
X161798000Y-54737000D02*
X161290000Y-54610000D01*
X107848400Y-121843800D02*
X128397000Y-121843800D01*
X128397000Y-132130800D01*
X107848400Y-132130800D01*
X107848400Y-121843800D01*
X184912000Y-87630000D02*
X185623200Y-87630000D01*
X109982000Y-54737000D02*
X109474000Y-54610000D01*
X184886600Y-84074000D02*
X185623200Y-84074000D01*
X178333400Y-86258400D02*
X184886600Y-86258400D01*
X184886600Y-89001600D01*
X178333400Y-89001600D01*
X178333400Y-86258400D01*
X115824000Y-54737000D02*
X116332000Y-54483000D01*
X178333400Y-79146400D02*
X184886600Y-79146400D01*
X184886600Y-81889600D01*
X178333400Y-81889600D01*
X178333400Y-79146400D01*
X95250000Y-54737000D02*
X95758000Y-54864000D01*
X152857200Y-90119200D02*
X152857200Y-87604600D01*
X138887200Y-74930000D02*
X138887200Y-77419200D01*
X178333400Y-80518000D02*
X177596800Y-80518000D01*
X178333400Y-75590400D02*
X184886600Y-75590400D01*
X184886600Y-78333600D01*
X178333400Y-78333600D01*
X178333400Y-75590400D01*
X107492800Y-100330000D02*
X107492800Y-102819200D01*
X132105400Y-80187800D02*
X134594600Y-80187800D01*
X94996000Y-46200000D02*
X94996000Y-55626000D01*
X178333400Y-87630000D02*
X177596800Y-87630000D01*
X153543000Y-109143800D02*
X174091600Y-109143800D01*
X174091600Y-119430800D01*
X153543000Y-119430800D01*
X153543000Y-109143800D01*
X134620000Y-75996800D02*
X132105400Y-75996800D01*
X109677200Y-87630000D02*
X109677200Y-90144600D01*
X130810000Y-55626000D02*
X140716000Y-55626000D01*
X152400000Y-54737000D02*
X152908000Y-54864000D01*
X94996000Y-55626000D02*
X110236000Y-55626000D01*
X109474000Y-54483000D02*
X109474000Y-54991000D01*
X110236000Y-55626000D02*
X110236000Y-46200000D01*
X115570000Y-55626000D02*
X130810000Y-55626000D01*
X134594600Y-84912200D02*
X132105400Y-84912200D01*
X115570000Y-55626000D02*
X115570000Y-46200000D01*
X102616000Y-89535000D02*
X89662000Y-89535000D01*
X104902000Y-54737000D02*
X109982000Y-54737000D01*
X99949000Y-54737000D02*
X95250000Y-54737000D01*
X185872094Y-116151819D02*
X185872094Y-115151819D01*
X185872094Y-115151819D02*
X185491142Y-115151819D01*
X185491142Y-115151819D02*
X185395904Y-115199438D01*
X185395904Y-115199438D02*
X185348285Y-115247057D01*
X185348285Y-115247057D02*
X185300666Y-115342295D01*
X185300666Y-115342295D02*
X185300666Y-115485152D01*
X185300666Y-115485152D02*
X185348285Y-115580390D01*
X185348285Y-115580390D02*
X185395904Y-115628009D01*
X185395904Y-115628009D02*
X185491142Y-115675628D01*
X185491142Y-115675628D02*
X185872094Y-115675628D01*
X184967332Y-115151819D02*
X184729237Y-116151819D01*
X184729237Y-116151819D02*
X184538761Y-115437533D01*
X184538761Y-115437533D02*
X184348285Y-116151819D01*
X184348285Y-116151819D02*
X184110190Y-115151819D01*
X183157809Y-116151819D02*
X183491142Y-115675628D01*
X183729237Y-116151819D02*
X183729237Y-115151819D01*
X183729237Y-115151819D02*
X183348285Y-115151819D01*
X183348285Y-115151819D02*
X183253047Y-115199438D01*
X183253047Y-115199438D02*
X183205428Y-115247057D01*
X183205428Y-115247057D02*
X183157809Y-115342295D01*
X183157809Y-115342295D02*
X183157809Y-115485152D01*
X183157809Y-115485152D02*
X183205428Y-115580390D01*
X183205428Y-115580390D02*
X183253047Y-115628009D01*
X183253047Y-115628009D02*
X183348285Y-115675628D01*
X183348285Y-115675628D02*
X183729237Y-115675628D01*
X182967333Y-116247057D02*
X182205428Y-116247057D01*
X181967332Y-115151819D02*
X181967332Y-115961342D01*
X181967332Y-115961342D02*
X181919713Y-116056580D01*
X181919713Y-116056580D02*
X181872094Y-116104200D01*
X181872094Y-116104200D02*
X181776856Y-116151819D01*
X181776856Y-116151819D02*
X181586380Y-116151819D01*
X181586380Y-116151819D02*
X181491142Y-116104200D01*
X181491142Y-116104200D02*
X181443523Y-116056580D01*
X181443523Y-116056580D02*
X181395904Y-115961342D01*
X181395904Y-115961342D02*
X181395904Y-115151819D01*
X180919713Y-116151819D02*
X180919713Y-115151819D01*
X180919713Y-115151819D02*
X180538761Y-115151819D01*
X180538761Y-115151819D02*
X180443523Y-115199438D01*
X180443523Y-115199438D02*
X180395904Y-115247057D01*
X180395904Y-115247057D02*
X180348285Y-115342295D01*
X180348285Y-115342295D02*
X180348285Y-115485152D01*
X180348285Y-115485152D02*
X180395904Y-115580390D01*
X180395904Y-115580390D02*
X180443523Y-115628009D01*
X180443523Y-115628009D02*
X180538761Y-115675628D01*
X180538761Y-115675628D02*
X180919713Y-115675628D01*
X186010190Y-114874200D02*
X180257809Y-114874200D01*
X95424523Y-103039057D02*
X95519761Y-102991438D01*
X95519761Y-102991438D02*
X95614999Y-102896200D01*
X95614999Y-102896200D02*
X95757856Y-102753342D01*
X95757856Y-102753342D02*
X95853094Y-102705723D01*
X95853094Y-102705723D02*
X95948332Y-102705723D01*
X95900713Y-102943819D02*
X95995951Y-102896200D01*
X95995951Y-102896200D02*
X96091189Y-102800961D01*
X96091189Y-102800961D02*
X96138808Y-102610485D01*
X96138808Y-102610485D02*
X96138808Y-102277152D01*
X96138808Y-102277152D02*
X96091189Y-102086676D01*
X96091189Y-102086676D02*
X95995951Y-101991438D01*
X95995951Y-101991438D02*
X95900713Y-101943819D01*
X95900713Y-101943819D02*
X95710237Y-101943819D01*
X95710237Y-101943819D02*
X95614999Y-101991438D01*
X95614999Y-101991438D02*
X95519761Y-102086676D01*
X95519761Y-102086676D02*
X95472142Y-102277152D01*
X95472142Y-102277152D02*
X95472142Y-102610485D01*
X95472142Y-102610485D02*
X95519761Y-102800961D01*
X95519761Y-102800961D02*
X95614999Y-102896200D01*
X95614999Y-102896200D02*
X95710237Y-102943819D01*
X95710237Y-102943819D02*
X95900713Y-102943819D01*
X94853094Y-101943819D02*
X94757856Y-101943819D01*
X94757856Y-101943819D02*
X94662618Y-101991438D01*
X94662618Y-101991438D02*
X94614999Y-102039057D01*
X94614999Y-102039057D02*
X94567380Y-102134295D01*
X94567380Y-102134295D02*
X94519761Y-102324771D01*
X94519761Y-102324771D02*
X94519761Y-102562866D01*
X94519761Y-102562866D02*
X94567380Y-102753342D01*
X94567380Y-102753342D02*
X94614999Y-102848580D01*
X94614999Y-102848580D02*
X94662618Y-102896200D01*
X94662618Y-102896200D02*
X94757856Y-102943819D01*
X94757856Y-102943819D02*
X94853094Y-102943819D01*
X94853094Y-102943819D02*
X94948332Y-102896200D01*
X94948332Y-102896200D02*
X94995951Y-102848580D01*
X94995951Y-102848580D02*
X95043570Y-102753342D01*
X95043570Y-102753342D02*
X95091189Y-102562866D01*
X95091189Y-102562866D02*
X95091189Y-102324771D01*
X95091189Y-102324771D02*
X95043570Y-102134295D01*
X95043570Y-102134295D02*
X94995951Y-102039057D01*
X94995951Y-102039057D02*
X94948332Y-101991438D01*
X94948332Y-101991438D02*
X94853094Y-101943819D01*
X94091189Y-102848580D02*
X94043570Y-102896200D01*
X94043570Y-102896200D02*
X94091189Y-102943819D01*
X94091189Y-102943819D02*
X94138808Y-102896200D01*
X94138808Y-102896200D02*
X94091189Y-102848580D01*
X94091189Y-102848580D02*
X94091189Y-102943819D01*
X94091189Y-102324771D02*
X94043570Y-102372390D01*
X94043570Y-102372390D02*
X94091189Y-102420009D01*
X94091189Y-102420009D02*
X94138808Y-102372390D01*
X94138808Y-102372390D02*
X94091189Y-102324771D01*
X94091189Y-102324771D02*
X94091189Y-102420009D01*
X93424523Y-101943819D02*
X93329285Y-101943819D01*
X93329285Y-101943819D02*
X93234047Y-101991438D01*
X93234047Y-101991438D02*
X93186428Y-102039057D01*
X93186428Y-102039057D02*
X93138809Y-102134295D01*
X93138809Y-102134295D02*
X93091190Y-102324771D01*
X93091190Y-102324771D02*
X93091190Y-102562866D01*
X93091190Y-102562866D02*
X93138809Y-102753342D01*
X93138809Y-102753342D02*
X93186428Y-102848580D01*
X93186428Y-102848580D02*
X93234047Y-102896200D01*
X93234047Y-102896200D02*
X93329285Y-102943819D01*
X93329285Y-102943819D02*
X93424523Y-102943819D01*
X93424523Y-102943819D02*
X93519761Y-102896200D01*
X93519761Y-102896200D02*
X93567380Y-102848580D01*
X93567380Y-102848580D02*
X93614999Y-102753342D01*
X93614999Y-102753342D02*
X93662618Y-102562866D01*
X93662618Y-102562866D02*
X93662618Y-102324771D01*
X93662618Y-102324771D02*
X93614999Y-102134295D01*
X93614999Y-102134295D02*
X93567380Y-102039057D01*
X93567380Y-102039057D02*
X93519761Y-101991438D01*
X93519761Y-101991438D02*
X93424523Y-101943819D01*
X182062332Y-118691819D02*
X182062332Y-117691819D01*
X182062332Y-117691819D02*
X181728999Y-118406104D01*
X181728999Y-118406104D02*
X181395666Y-117691819D01*
X181395666Y-117691819D02*
X181395666Y-118691819D01*
X180348047Y-118691819D02*
X180681380Y-118215628D01*
X180919475Y-118691819D02*
X180919475Y-117691819D01*
X180919475Y-117691819D02*
X180538523Y-117691819D01*
X180538523Y-117691819D02*
X180443285Y-117739438D01*
X180443285Y-117739438D02*
X180395666Y-117787057D01*
X180395666Y-117787057D02*
X180348047Y-117882295D01*
X180348047Y-117882295D02*
X180348047Y-118025152D01*
X180348047Y-118025152D02*
X180395666Y-118120390D01*
X180395666Y-118120390D02*
X180443285Y-118168009D01*
X180443285Y-118168009D02*
X180538523Y-118215628D01*
X180538523Y-118215628D02*
X180919475Y-118215628D01*
X182200428Y-117414200D02*
X180257571Y-117414200D01*
X95424523Y-94149057D02*
X95519761Y-94101438D01*
X95519761Y-94101438D02*
X95614999Y-94006200D01*
X95614999Y-94006200D02*
X95757856Y-93863342D01*
X95757856Y-93863342D02*
X95853094Y-93815723D01*
X95853094Y-93815723D02*
X95948332Y-93815723D01*
X95900713Y-94053819D02*
X95995951Y-94006200D01*
X95995951Y-94006200D02*
X96091189Y-93910961D01*
X96091189Y-93910961D02*
X96138808Y-93720485D01*
X96138808Y-93720485D02*
X96138808Y-93387152D01*
X96138808Y-93387152D02*
X96091189Y-93196676D01*
X96091189Y-93196676D02*
X95995951Y-93101438D01*
X95995951Y-93101438D02*
X95900713Y-93053819D01*
X95900713Y-93053819D02*
X95710237Y-93053819D01*
X95710237Y-93053819D02*
X95614999Y-93101438D01*
X95614999Y-93101438D02*
X95519761Y-93196676D01*
X95519761Y-93196676D02*
X95472142Y-93387152D01*
X95472142Y-93387152D02*
X95472142Y-93720485D01*
X95472142Y-93720485D02*
X95519761Y-93910961D01*
X95519761Y-93910961D02*
X95614999Y-94006200D01*
X95614999Y-94006200D02*
X95710237Y-94053819D01*
X95710237Y-94053819D02*
X95900713Y-94053819D01*
X94853094Y-93053819D02*
X94757856Y-93053819D01*
X94757856Y-93053819D02*
X94662618Y-93101438D01*
X94662618Y-93101438D02*
X94614999Y-93149057D01*
X94614999Y-93149057D02*
X94567380Y-93244295D01*
X94567380Y-93244295D02*
X94519761Y-93434771D01*
X94519761Y-93434771D02*
X94519761Y-93672866D01*
X94519761Y-93672866D02*
X94567380Y-93863342D01*
X94567380Y-93863342D02*
X94614999Y-93958580D01*
X94614999Y-93958580D02*
X94662618Y-94006200D01*
X94662618Y-94006200D02*
X94757856Y-94053819D01*
X94757856Y-94053819D02*
X94853094Y-94053819D01*
X94853094Y-94053819D02*
X94948332Y-94006200D01*
X94948332Y-94006200D02*
X94995951Y-93958580D01*
X94995951Y-93958580D02*
X95043570Y-93863342D01*
X95043570Y-93863342D02*
X95091189Y-93672866D01*
X95091189Y-93672866D02*
X95091189Y-93434771D01*
X95091189Y-93434771D02*
X95043570Y-93244295D01*
X95043570Y-93244295D02*
X94995951Y-93149057D01*
X94995951Y-93149057D02*
X94948332Y-93101438D01*
X94948332Y-93101438D02*
X94853094Y-93053819D01*
X94091189Y-93958580D02*
X94043570Y-94006200D01*
X94043570Y-94006200D02*
X94091189Y-94053819D01*
X94091189Y-94053819D02*
X94138808Y-94006200D01*
X94138808Y-94006200D02*
X94091189Y-93958580D01*
X94091189Y-93958580D02*
X94091189Y-94053819D01*
X94091189Y-93434771D02*
X94043570Y-93482390D01*
X94043570Y-93482390D02*
X94091189Y-93530009D01*
X94091189Y-93530009D02*
X94138808Y-93482390D01*
X94138808Y-93482390D02*
X94091189Y-93434771D01*
X94091189Y-93434771D02*
X94091189Y-93530009D01*
X93091190Y-94053819D02*
X93662618Y-94053819D01*
X93376904Y-94053819D02*
X93376904Y-93053819D01*
X93376904Y-93053819D02*
X93472142Y-93196676D01*
X93472142Y-93196676D02*
X93567380Y-93291914D01*
X93567380Y-93291914D02*
X93662618Y-93339533D01*
X159268475Y-55144200D02*
X159125618Y-55191819D01*
X159125618Y-55191819D02*
X158887523Y-55191819D01*
X158887523Y-55191819D02*
X158792285Y-55144200D01*
X158792285Y-55144200D02*
X158744666Y-55096580D01*
X158744666Y-55096580D02*
X158697047Y-55001342D01*
X158697047Y-55001342D02*
X158697047Y-54906104D01*
X158697047Y-54906104D02*
X158744666Y-54810866D01*
X158744666Y-54810866D02*
X158792285Y-54763247D01*
X158792285Y-54763247D02*
X158887523Y-54715628D01*
X158887523Y-54715628D02*
X159077999Y-54668009D01*
X159077999Y-54668009D02*
X159173237Y-54620390D01*
X159173237Y-54620390D02*
X159220856Y-54572771D01*
X159220856Y-54572771D02*
X159268475Y-54477533D01*
X159268475Y-54477533D02*
X159268475Y-54382295D01*
X159268475Y-54382295D02*
X159220856Y-54287057D01*
X159220856Y-54287057D02*
X159173237Y-54239438D01*
X159173237Y-54239438D02*
X159077999Y-54191819D01*
X159077999Y-54191819D02*
X158839904Y-54191819D01*
X158839904Y-54191819D02*
X158697047Y-54239438D01*
X158268475Y-55191819D02*
X158268475Y-54191819D01*
X158268475Y-54191819D02*
X157887523Y-54191819D01*
X157887523Y-54191819D02*
X157792285Y-54239438D01*
X157792285Y-54239438D02*
X157744666Y-54287057D01*
X157744666Y-54287057D02*
X157697047Y-54382295D01*
X157697047Y-54382295D02*
X157697047Y-54525152D01*
X157697047Y-54525152D02*
X157744666Y-54620390D01*
X157744666Y-54620390D02*
X157792285Y-54668009D01*
X157792285Y-54668009D02*
X157887523Y-54715628D01*
X157887523Y-54715628D02*
X158268475Y-54715628D01*
X157268475Y-54668009D02*
X156935142Y-54668009D01*
X156792285Y-55191819D02*
X157268475Y-55191819D01*
X157268475Y-55191819D02*
X157268475Y-54191819D01*
X157268475Y-54191819D02*
X156792285Y-54191819D01*
X156363713Y-54668009D02*
X156030380Y-54668009D01*
X155887523Y-55191819D02*
X156363713Y-55191819D01*
X156363713Y-55191819D02*
X156363713Y-54191819D01*
X156363713Y-54191819D02*
X155887523Y-54191819D01*
X155458951Y-55191819D02*
X155458951Y-54191819D01*
X155458951Y-54191819D02*
X155220856Y-54191819D01*
X155220856Y-54191819D02*
X155077999Y-54239438D01*
X155077999Y-54239438D02*
X154982761Y-54334676D01*
X154982761Y-54334676D02*
X154935142Y-54429914D01*
X154935142Y-54429914D02*
X154887523Y-54620390D01*
X154887523Y-54620390D02*
X154887523Y-54763247D01*
X154887523Y-54763247D02*
X154935142Y-54953723D01*
X154935142Y-54953723D02*
X154982761Y-55048961D01*
X154982761Y-55048961D02*
X155077999Y-55144200D01*
X155077999Y-55144200D02*
X155220856Y-55191819D01*
X155220856Y-55191819D02*
X155458951Y-55191819D01*
X182895713Y-101308819D02*
X182276666Y-101308819D01*
X182276666Y-101308819D02*
X182609999Y-101689771D01*
X182609999Y-101689771D02*
X182467142Y-101689771D01*
X182467142Y-101689771D02*
X182371904Y-101737390D01*
X182371904Y-101737390D02*
X182324285Y-101785009D01*
X182324285Y-101785009D02*
X182276666Y-101880247D01*
X182276666Y-101880247D02*
X182276666Y-102118342D01*
X182276666Y-102118342D02*
X182324285Y-102213580D01*
X182324285Y-102213580D02*
X182371904Y-102261200D01*
X182371904Y-102261200D02*
X182467142Y-102308819D01*
X182467142Y-102308819D02*
X182752856Y-102308819D01*
X182752856Y-102308819D02*
X182848094Y-102261200D01*
X182848094Y-102261200D02*
X182895713Y-102213580D01*
X181943332Y-101308819D02*
X181324285Y-101308819D01*
X181324285Y-101308819D02*
X181657618Y-101689771D01*
X181657618Y-101689771D02*
X181514761Y-101689771D01*
X181514761Y-101689771D02*
X181419523Y-101737390D01*
X181419523Y-101737390D02*
X181371904Y-101785009D01*
X181371904Y-101785009D02*
X181324285Y-101880247D01*
X181324285Y-101880247D02*
X181324285Y-102118342D01*
X181324285Y-102118342D02*
X181371904Y-102213580D01*
X181371904Y-102213580D02*
X181419523Y-102261200D01*
X181419523Y-102261200D02*
X181514761Y-102308819D01*
X181514761Y-102308819D02*
X181800475Y-102308819D01*
X181800475Y-102308819D02*
X181895713Y-102261200D01*
X181895713Y-102261200D02*
X181943332Y-102213580D01*
X180705237Y-101308819D02*
X180609999Y-101308819D01*
X180609999Y-101308819D02*
X180514761Y-101356438D01*
X180514761Y-101356438D02*
X180467142Y-101404057D01*
X180467142Y-101404057D02*
X180419523Y-101499295D01*
X180419523Y-101499295D02*
X180371904Y-101689771D01*
X180371904Y-101689771D02*
X180371904Y-101927866D01*
X180371904Y-101927866D02*
X180419523Y-102118342D01*
X180419523Y-102118342D02*
X180467142Y-102213580D01*
X180467142Y-102213580D02*
X180514761Y-102261200D01*
X180514761Y-102261200D02*
X180609999Y-102308819D01*
X180609999Y-102308819D02*
X180705237Y-102308819D01*
X180705237Y-102308819D02*
X180800475Y-102261200D01*
X180800475Y-102261200D02*
X180848094Y-102213580D01*
X180848094Y-102213580D02*
X180895713Y-102118342D01*
X180895713Y-102118342D02*
X180943332Y-101927866D01*
X180943332Y-101927866D02*
X180943332Y-101689771D01*
X180943332Y-101689771D02*
X180895713Y-101499295D01*
X180895713Y-101499295D02*
X180848094Y-101404057D01*
X180848094Y-101404057D02*
X180800475Y-101356438D01*
X180800475Y-101356438D02*
X180705237Y-101308819D01*
D11*
X124760952Y-75114838D02*
X123427619Y-75114838D01*
X123427619Y-75114838D02*
X124284762Y-77114838D01*
X121808571Y-75781504D02*
X121808571Y-77114838D01*
X122284762Y-75019600D02*
X122760952Y-76448171D01*
X122760952Y-76448171D02*
X121522857Y-76448171D01*
X120856190Y-76543409D02*
X119903809Y-76543409D01*
X121046666Y-77114838D02*
X120380000Y-75114838D01*
X120380000Y-75114838D02*
X119713333Y-77114838D01*
X117903809Y-76924361D02*
X117999047Y-77019600D01*
X117999047Y-77019600D02*
X118284761Y-77114838D01*
X118284761Y-77114838D02*
X118475237Y-77114838D01*
X118475237Y-77114838D02*
X118760952Y-77019600D01*
X118760952Y-77019600D02*
X118951428Y-76829123D01*
X118951428Y-76829123D02*
X119046666Y-76638647D01*
X119046666Y-76638647D02*
X119141904Y-76257695D01*
X119141904Y-76257695D02*
X119141904Y-75971980D01*
X119141904Y-75971980D02*
X119046666Y-75591028D01*
X119046666Y-75591028D02*
X118951428Y-75400552D01*
X118951428Y-75400552D02*
X118760952Y-75210076D01*
X118760952Y-75210076D02*
X118475237Y-75114838D01*
X118475237Y-75114838D02*
X118284761Y-75114838D01*
X118284761Y-75114838D02*
X117999047Y-75210076D01*
X117999047Y-75210076D02*
X117903809Y-75305314D01*
X115999047Y-77114838D02*
X117141904Y-77114838D01*
X116570476Y-77114838D02*
X116570476Y-75114838D01*
X116570476Y-75114838D02*
X116760952Y-75400552D01*
X116760952Y-75400552D02*
X116951428Y-75591028D01*
X116951428Y-75591028D02*
X117141904Y-75686266D01*
X114284761Y-75781504D02*
X114284761Y-77114838D01*
X114760952Y-75019600D02*
X115237142Y-76448171D01*
X115237142Y-76448171D02*
X113999047Y-76448171D01*
X170353809Y-87814838D02*
X169020476Y-87814838D01*
X169020476Y-87814838D02*
X169877619Y-89814838D01*
X167401428Y-88481504D02*
X167401428Y-89814838D01*
X167877619Y-87719600D02*
X168353809Y-89148171D01*
X168353809Y-89148171D02*
X167115714Y-89148171D01*
X166353809Y-89814838D02*
X166353809Y-87814838D01*
X166353809Y-88767219D02*
X165210952Y-88767219D01*
X165210952Y-89814838D02*
X165210952Y-87814838D01*
X163115714Y-89624361D02*
X163210952Y-89719600D01*
X163210952Y-89719600D02*
X163496666Y-89814838D01*
X163496666Y-89814838D02*
X163687142Y-89814838D01*
X163687142Y-89814838D02*
X163972857Y-89719600D01*
X163972857Y-89719600D02*
X164163333Y-89529123D01*
X164163333Y-89529123D02*
X164258571Y-89338647D01*
X164258571Y-89338647D02*
X164353809Y-88957695D01*
X164353809Y-88957695D02*
X164353809Y-88671980D01*
X164353809Y-88671980D02*
X164258571Y-88291028D01*
X164258571Y-88291028D02*
X164163333Y-88100552D01*
X164163333Y-88100552D02*
X163972857Y-87910076D01*
X163972857Y-87910076D02*
X163687142Y-87814838D01*
X163687142Y-87814838D02*
X163496666Y-87814838D01*
X163496666Y-87814838D02*
X163210952Y-87910076D01*
X163210952Y-87910076D02*
X163115714Y-88005314D01*
X162353809Y-88005314D02*
X162258571Y-87910076D01*
X162258571Y-87910076D02*
X162068095Y-87814838D01*
X162068095Y-87814838D02*
X161591904Y-87814838D01*
X161591904Y-87814838D02*
X161401428Y-87910076D01*
X161401428Y-87910076D02*
X161306190Y-88005314D01*
X161306190Y-88005314D02*
X161210952Y-88195790D01*
X161210952Y-88195790D02*
X161210952Y-88386266D01*
X161210952Y-88386266D02*
X161306190Y-88671980D01*
X161306190Y-88671980D02*
X162449047Y-89814838D01*
X162449047Y-89814838D02*
X161210952Y-89814838D01*
X159401428Y-87814838D02*
X160353809Y-87814838D01*
X160353809Y-87814838D02*
X160449047Y-88767219D01*
X160449047Y-88767219D02*
X160353809Y-88671980D01*
X160353809Y-88671980D02*
X160163333Y-88576742D01*
X160163333Y-88576742D02*
X159687142Y-88576742D01*
X159687142Y-88576742D02*
X159496666Y-88671980D01*
X159496666Y-88671980D02*
X159401428Y-88767219D01*
X159401428Y-88767219D02*
X159306190Y-88957695D01*
X159306190Y-88957695D02*
X159306190Y-89433885D01*
X159306190Y-89433885D02*
X159401428Y-89624361D01*
X159401428Y-89624361D02*
X159496666Y-89719600D01*
X159496666Y-89719600D02*
X159687142Y-89814838D01*
X159687142Y-89814838D02*
X160163333Y-89814838D01*
X160163333Y-89814838D02*
X160353809Y-89719600D01*
X160353809Y-89719600D02*
X160449047Y-89624361D01*
X157401428Y-89814838D02*
X158544285Y-89814838D01*
X157972857Y-89814838D02*
X157972857Y-87814838D01*
X157972857Y-87814838D02*
X158163333Y-88100552D01*
X158163333Y-88100552D02*
X158353809Y-88291028D01*
X158353809Y-88291028D02*
X158544285Y-88386266D01*
D10*
X95757857Y-78290009D02*
X96091190Y-78290009D01*
X96091190Y-78813819D02*
X96091190Y-77813819D01*
X96091190Y-77813819D02*
X95615000Y-77813819D01*
X95281666Y-78528104D02*
X94805476Y-78528104D01*
X95376904Y-78813819D02*
X95043571Y-77813819D01*
X95043571Y-77813819D02*
X94710238Y-78813819D01*
X94424523Y-78766200D02*
X94281666Y-78813819D01*
X94281666Y-78813819D02*
X94043571Y-78813819D01*
X94043571Y-78813819D02*
X93948333Y-78766200D01*
X93948333Y-78766200D02*
X93900714Y-78718580D01*
X93900714Y-78718580D02*
X93853095Y-78623342D01*
X93853095Y-78623342D02*
X93853095Y-78528104D01*
X93853095Y-78528104D02*
X93900714Y-78432866D01*
X93900714Y-78432866D02*
X93948333Y-78385247D01*
X93948333Y-78385247D02*
X94043571Y-78337628D01*
X94043571Y-78337628D02*
X94234047Y-78290009D01*
X94234047Y-78290009D02*
X94329285Y-78242390D01*
X94329285Y-78242390D02*
X94376904Y-78194771D01*
X94376904Y-78194771D02*
X94424523Y-78099533D01*
X94424523Y-78099533D02*
X94424523Y-78004295D01*
X94424523Y-78004295D02*
X94376904Y-77909057D01*
X94376904Y-77909057D02*
X94329285Y-77861438D01*
X94329285Y-77861438D02*
X94234047Y-77813819D01*
X94234047Y-77813819D02*
X93995952Y-77813819D01*
X93995952Y-77813819D02*
X93853095Y-77861438D01*
X93567380Y-77813819D02*
X92995952Y-77813819D01*
X93281666Y-78813819D02*
X93281666Y-77813819D01*
D11*
X170163333Y-75114838D02*
X168830000Y-75114838D01*
X168830000Y-75114838D02*
X169687143Y-77114838D01*
X167210952Y-75781504D02*
X167210952Y-77114838D01*
X167687143Y-75019600D02*
X168163333Y-76448171D01*
X168163333Y-76448171D02*
X166925238Y-76448171D01*
X166258571Y-76543409D02*
X165306190Y-76543409D01*
X166449047Y-77114838D02*
X165782381Y-75114838D01*
X165782381Y-75114838D02*
X165115714Y-77114838D01*
X163306190Y-76924361D02*
X163401428Y-77019600D01*
X163401428Y-77019600D02*
X163687142Y-77114838D01*
X163687142Y-77114838D02*
X163877618Y-77114838D01*
X163877618Y-77114838D02*
X164163333Y-77019600D01*
X164163333Y-77019600D02*
X164353809Y-76829123D01*
X164353809Y-76829123D02*
X164449047Y-76638647D01*
X164449047Y-76638647D02*
X164544285Y-76257695D01*
X164544285Y-76257695D02*
X164544285Y-75971980D01*
X164544285Y-75971980D02*
X164449047Y-75591028D01*
X164449047Y-75591028D02*
X164353809Y-75400552D01*
X164353809Y-75400552D02*
X164163333Y-75210076D01*
X164163333Y-75210076D02*
X163877618Y-75114838D01*
X163877618Y-75114838D02*
X163687142Y-75114838D01*
X163687142Y-75114838D02*
X163401428Y-75210076D01*
X163401428Y-75210076D02*
X163306190Y-75305314D01*
X161401428Y-77114838D02*
X162544285Y-77114838D01*
X161972857Y-77114838D02*
X161972857Y-75114838D01*
X161972857Y-75114838D02*
X162163333Y-75400552D01*
X162163333Y-75400552D02*
X162353809Y-75591028D01*
X162353809Y-75591028D02*
X162544285Y-75686266D01*
X159496666Y-77114838D02*
X160639523Y-77114838D01*
X160068095Y-77114838D02*
X160068095Y-75114838D01*
X160068095Y-75114838D02*
X160258571Y-75400552D01*
X160258571Y-75400552D02*
X160449047Y-75591028D01*
X160449047Y-75591028D02*
X160639523Y-75686266D01*
X158734761Y-75305314D02*
X158639523Y-75210076D01*
X158639523Y-75210076D02*
X158449047Y-75114838D01*
X158449047Y-75114838D02*
X157972856Y-75114838D01*
X157972856Y-75114838D02*
X157782380Y-75210076D01*
X157782380Y-75210076D02*
X157687142Y-75305314D01*
X157687142Y-75305314D02*
X157591904Y-75495790D01*
X157591904Y-75495790D02*
X157591904Y-75686266D01*
X157591904Y-75686266D02*
X157687142Y-75971980D01*
X157687142Y-75971980D02*
X158829999Y-77114838D01*
X158829999Y-77114838D02*
X157591904Y-77114838D01*
D10*
X182871904Y-58732057D02*
X182824285Y-58684438D01*
X182824285Y-58684438D02*
X182729047Y-58636819D01*
X182729047Y-58636819D02*
X182490952Y-58636819D01*
X182490952Y-58636819D02*
X182395714Y-58684438D01*
X182395714Y-58684438D02*
X182348095Y-58732057D01*
X182348095Y-58732057D02*
X182300476Y-58827295D01*
X182300476Y-58827295D02*
X182300476Y-58922533D01*
X182300476Y-58922533D02*
X182348095Y-59065390D01*
X182348095Y-59065390D02*
X182919523Y-59636819D01*
X182919523Y-59636819D02*
X182300476Y-59636819D01*
X181681428Y-58636819D02*
X181586190Y-58636819D01*
X181586190Y-58636819D02*
X181490952Y-58684438D01*
X181490952Y-58684438D02*
X181443333Y-58732057D01*
X181443333Y-58732057D02*
X181395714Y-58827295D01*
X181395714Y-58827295D02*
X181348095Y-59017771D01*
X181348095Y-59017771D02*
X181348095Y-59255866D01*
X181348095Y-59255866D02*
X181395714Y-59446342D01*
X181395714Y-59446342D02*
X181443333Y-59541580D01*
X181443333Y-59541580D02*
X181490952Y-59589200D01*
X181490952Y-59589200D02*
X181586190Y-59636819D01*
X181586190Y-59636819D02*
X181681428Y-59636819D01*
X181681428Y-59636819D02*
X181776666Y-59589200D01*
X181776666Y-59589200D02*
X181824285Y-59541580D01*
X181824285Y-59541580D02*
X181871904Y-59446342D01*
X181871904Y-59446342D02*
X181919523Y-59255866D01*
X181919523Y-59255866D02*
X181919523Y-59017771D01*
X181919523Y-59017771D02*
X181871904Y-58827295D01*
X181871904Y-58827295D02*
X181824285Y-58732057D01*
X181824285Y-58732057D02*
X181776666Y-58684438D01*
X181776666Y-58684438D02*
X181681428Y-58636819D01*
X180919523Y-59636819D02*
X180919523Y-58636819D01*
X180348095Y-59636819D02*
X180776666Y-59065390D01*
X180348095Y-58636819D02*
X180919523Y-59208247D01*
D11*
X124633809Y-125914838D02*
X123300476Y-125914838D01*
X123300476Y-125914838D02*
X124157619Y-127914838D01*
X121681428Y-126581504D02*
X121681428Y-127914838D01*
X122157619Y-125819600D02*
X122633809Y-127248171D01*
X122633809Y-127248171D02*
X121395714Y-127248171D01*
X120633809Y-127914838D02*
X120633809Y-125914838D01*
X120633809Y-126867219D02*
X119490952Y-126867219D01*
X119490952Y-127914838D02*
X119490952Y-125914838D01*
X117395714Y-127724361D02*
X117490952Y-127819600D01*
X117490952Y-127819600D02*
X117776666Y-127914838D01*
X117776666Y-127914838D02*
X117967142Y-127914838D01*
X117967142Y-127914838D02*
X118252857Y-127819600D01*
X118252857Y-127819600D02*
X118443333Y-127629123D01*
X118443333Y-127629123D02*
X118538571Y-127438647D01*
X118538571Y-127438647D02*
X118633809Y-127057695D01*
X118633809Y-127057695D02*
X118633809Y-126771980D01*
X118633809Y-126771980D02*
X118538571Y-126391028D01*
X118538571Y-126391028D02*
X118443333Y-126200552D01*
X118443333Y-126200552D02*
X118252857Y-126010076D01*
X118252857Y-126010076D02*
X117967142Y-125914838D01*
X117967142Y-125914838D02*
X117776666Y-125914838D01*
X117776666Y-125914838D02*
X117490952Y-126010076D01*
X117490952Y-126010076D02*
X117395714Y-126105314D01*
X116633809Y-126105314D02*
X116538571Y-126010076D01*
X116538571Y-126010076D02*
X116348095Y-125914838D01*
X116348095Y-125914838D02*
X115871904Y-125914838D01*
X115871904Y-125914838D02*
X115681428Y-126010076D01*
X115681428Y-126010076D02*
X115586190Y-126105314D01*
X115586190Y-126105314D02*
X115490952Y-126295790D01*
X115490952Y-126295790D02*
X115490952Y-126486266D01*
X115490952Y-126486266D02*
X115586190Y-126771980D01*
X115586190Y-126771980D02*
X116729047Y-127914838D01*
X116729047Y-127914838D02*
X115490952Y-127914838D01*
X113681428Y-125914838D02*
X114633809Y-125914838D01*
X114633809Y-125914838D02*
X114729047Y-126867219D01*
X114729047Y-126867219D02*
X114633809Y-126771980D01*
X114633809Y-126771980D02*
X114443333Y-126676742D01*
X114443333Y-126676742D02*
X113967142Y-126676742D01*
X113967142Y-126676742D02*
X113776666Y-126771980D01*
X113776666Y-126771980D02*
X113681428Y-126867219D01*
X113681428Y-126867219D02*
X113586190Y-127057695D01*
X113586190Y-127057695D02*
X113586190Y-127533885D01*
X113586190Y-127533885D02*
X113681428Y-127724361D01*
X113681428Y-127724361D02*
X113776666Y-127819600D01*
X113776666Y-127819600D02*
X113967142Y-127914838D01*
X113967142Y-127914838D02*
X114443333Y-127914838D01*
X114443333Y-127914838D02*
X114633809Y-127819600D01*
X114633809Y-127819600D02*
X114729047Y-127724361D01*
X111681428Y-127914838D02*
X112824285Y-127914838D01*
X112252857Y-127914838D02*
X112252857Y-125914838D01*
X112252857Y-125914838D02*
X112443333Y-126200552D01*
X112443333Y-126200552D02*
X112633809Y-126391028D01*
X112633809Y-126391028D02*
X112824285Y-126486266D01*
D10*
X97805476Y-63050009D02*
X98138809Y-63050009D01*
X98138809Y-63573819D02*
X98138809Y-62573819D01*
X98138809Y-62573819D02*
X97662619Y-62573819D01*
X96710238Y-63573819D02*
X97043571Y-63097628D01*
X97281666Y-63573819D02*
X97281666Y-62573819D01*
X97281666Y-62573819D02*
X96900714Y-62573819D01*
X96900714Y-62573819D02*
X96805476Y-62621438D01*
X96805476Y-62621438D02*
X96757857Y-62669057D01*
X96757857Y-62669057D02*
X96710238Y-62764295D01*
X96710238Y-62764295D02*
X96710238Y-62907152D01*
X96710238Y-62907152D02*
X96757857Y-63002390D01*
X96757857Y-63002390D02*
X96805476Y-63050009D01*
X96805476Y-63050009D02*
X96900714Y-63097628D01*
X96900714Y-63097628D02*
X97281666Y-63097628D01*
X96281666Y-63050009D02*
X95948333Y-63050009D01*
X95805476Y-63573819D02*
X96281666Y-63573819D01*
X96281666Y-63573819D02*
X96281666Y-62573819D01*
X96281666Y-62573819D02*
X95805476Y-62573819D01*
X95376904Y-63050009D02*
X95043571Y-63050009D01*
X94900714Y-63573819D02*
X95376904Y-63573819D01*
X95376904Y-63573819D02*
X95376904Y-62573819D01*
X95376904Y-62573819D02*
X94900714Y-62573819D01*
X93138809Y-63573819D02*
X93472142Y-63097628D01*
X93710237Y-63573819D02*
X93710237Y-62573819D01*
X93710237Y-62573819D02*
X93329285Y-62573819D01*
X93329285Y-62573819D02*
X93234047Y-62621438D01*
X93234047Y-62621438D02*
X93186428Y-62669057D01*
X93186428Y-62669057D02*
X93138809Y-62764295D01*
X93138809Y-62764295D02*
X93138809Y-62907152D01*
X93138809Y-62907152D02*
X93186428Y-63002390D01*
X93186428Y-63002390D02*
X93234047Y-63050009D01*
X93234047Y-63050009D02*
X93329285Y-63097628D01*
X93329285Y-63097628D02*
X93710237Y-63097628D01*
X92710237Y-62573819D02*
X92710237Y-63383342D01*
X92710237Y-63383342D02*
X92662618Y-63478580D01*
X92662618Y-63478580D02*
X92614999Y-63526200D01*
X92614999Y-63526200D02*
X92519761Y-63573819D01*
X92519761Y-63573819D02*
X92329285Y-63573819D01*
X92329285Y-63573819D02*
X92234047Y-63526200D01*
X92234047Y-63526200D02*
X92186428Y-63478580D01*
X92186428Y-63478580D02*
X92138809Y-63383342D01*
X92138809Y-63383342D02*
X92138809Y-62573819D01*
X91662618Y-63573819D02*
X91662618Y-62573819D01*
X91662618Y-62573819D02*
X91091190Y-63573819D01*
X91091190Y-63573819D02*
X91091190Y-62573819D01*
D11*
X96793571Y-112760028D02*
X97293571Y-112045742D01*
X97650714Y-112760028D02*
X97650714Y-111260028D01*
X97650714Y-111260028D02*
X97079285Y-111260028D01*
X97079285Y-111260028D02*
X96936428Y-111331457D01*
X96936428Y-111331457D02*
X96864999Y-111402885D01*
X96864999Y-111402885D02*
X96793571Y-111545742D01*
X96793571Y-111545742D02*
X96793571Y-111760028D01*
X96793571Y-111760028D02*
X96864999Y-111902885D01*
X96864999Y-111902885D02*
X96936428Y-111974314D01*
X96936428Y-111974314D02*
X97079285Y-112045742D01*
X97079285Y-112045742D02*
X97650714Y-112045742D01*
X96150714Y-111974314D02*
X95650714Y-111974314D01*
X95436428Y-112760028D02*
X96150714Y-112760028D01*
X96150714Y-112760028D02*
X96150714Y-111260028D01*
X96150714Y-111260028D02*
X95436428Y-111260028D01*
X94864999Y-112688600D02*
X94650714Y-112760028D01*
X94650714Y-112760028D02*
X94293571Y-112760028D01*
X94293571Y-112760028D02*
X94150714Y-112688600D01*
X94150714Y-112688600D02*
X94079285Y-112617171D01*
X94079285Y-112617171D02*
X94007856Y-112474314D01*
X94007856Y-112474314D02*
X94007856Y-112331457D01*
X94007856Y-112331457D02*
X94079285Y-112188600D01*
X94079285Y-112188600D02*
X94150714Y-112117171D01*
X94150714Y-112117171D02*
X94293571Y-112045742D01*
X94293571Y-112045742D02*
X94579285Y-111974314D01*
X94579285Y-111974314D02*
X94722142Y-111902885D01*
X94722142Y-111902885D02*
X94793571Y-111831457D01*
X94793571Y-111831457D02*
X94864999Y-111688600D01*
X94864999Y-111688600D02*
X94864999Y-111545742D01*
X94864999Y-111545742D02*
X94793571Y-111402885D01*
X94793571Y-111402885D02*
X94722142Y-111331457D01*
X94722142Y-111331457D02*
X94579285Y-111260028D01*
X94579285Y-111260028D02*
X94222142Y-111260028D01*
X94222142Y-111260028D02*
X94007856Y-111331457D01*
X93365000Y-111974314D02*
X92865000Y-111974314D01*
X92650714Y-112760028D02*
X93365000Y-112760028D01*
X93365000Y-112760028D02*
X93365000Y-111260028D01*
X93365000Y-111260028D02*
X92650714Y-111260028D01*
X92222142Y-111260028D02*
X91365000Y-111260028D01*
X91793571Y-112760028D02*
X91793571Y-111260028D01*
X97614999Y-114389314D02*
X98114999Y-114389314D01*
X98114999Y-115175028D02*
X98114999Y-113675028D01*
X98114999Y-113675028D02*
X97400713Y-113675028D01*
X96900713Y-114746457D02*
X96186428Y-114746457D01*
X97043570Y-115175028D02*
X96543570Y-113675028D01*
X96543570Y-113675028D02*
X96043570Y-115175028D01*
X95614999Y-115103600D02*
X95400714Y-115175028D01*
X95400714Y-115175028D02*
X95043571Y-115175028D01*
X95043571Y-115175028D02*
X94900714Y-115103600D01*
X94900714Y-115103600D02*
X94829285Y-115032171D01*
X94829285Y-115032171D02*
X94757856Y-114889314D01*
X94757856Y-114889314D02*
X94757856Y-114746457D01*
X94757856Y-114746457D02*
X94829285Y-114603600D01*
X94829285Y-114603600D02*
X94900714Y-114532171D01*
X94900714Y-114532171D02*
X95043571Y-114460742D01*
X95043571Y-114460742D02*
X95329285Y-114389314D01*
X95329285Y-114389314D02*
X95472142Y-114317885D01*
X95472142Y-114317885D02*
X95543571Y-114246457D01*
X95543571Y-114246457D02*
X95614999Y-114103600D01*
X95614999Y-114103600D02*
X95614999Y-113960742D01*
X95614999Y-113960742D02*
X95543571Y-113817885D01*
X95543571Y-113817885D02*
X95472142Y-113746457D01*
X95472142Y-113746457D02*
X95329285Y-113675028D01*
X95329285Y-113675028D02*
X94972142Y-113675028D01*
X94972142Y-113675028D02*
X94757856Y-113746457D01*
X94329285Y-113675028D02*
X93472143Y-113675028D01*
X93900714Y-115175028D02*
X93900714Y-113675028D01*
X91043571Y-115175028D02*
X91900714Y-115175028D01*
X91472143Y-115175028D02*
X91472143Y-113675028D01*
X91472143Y-113675028D02*
X91615000Y-113889314D01*
X91615000Y-113889314D02*
X91757857Y-114032171D01*
X91757857Y-114032171D02*
X91900714Y-114103600D01*
X124760952Y-100514838D02*
X123427619Y-100514838D01*
X123427619Y-100514838D02*
X124284762Y-102514838D01*
X121808571Y-101181504D02*
X121808571Y-102514838D01*
X122284762Y-100419600D02*
X122760952Y-101848171D01*
X122760952Y-101848171D02*
X121522857Y-101848171D01*
X120856190Y-101943409D02*
X119903809Y-101943409D01*
X121046666Y-102514838D02*
X120380000Y-100514838D01*
X120380000Y-100514838D02*
X119713333Y-102514838D01*
X117903809Y-102324361D02*
X117999047Y-102419600D01*
X117999047Y-102419600D02*
X118284761Y-102514838D01*
X118284761Y-102514838D02*
X118475237Y-102514838D01*
X118475237Y-102514838D02*
X118760952Y-102419600D01*
X118760952Y-102419600D02*
X118951428Y-102229123D01*
X118951428Y-102229123D02*
X119046666Y-102038647D01*
X119046666Y-102038647D02*
X119141904Y-101657695D01*
X119141904Y-101657695D02*
X119141904Y-101371980D01*
X119141904Y-101371980D02*
X119046666Y-100991028D01*
X119046666Y-100991028D02*
X118951428Y-100800552D01*
X118951428Y-100800552D02*
X118760952Y-100610076D01*
X118760952Y-100610076D02*
X118475237Y-100514838D01*
X118475237Y-100514838D02*
X118284761Y-100514838D01*
X118284761Y-100514838D02*
X117999047Y-100610076D01*
X117999047Y-100610076D02*
X117903809Y-100705314D01*
X116665714Y-100514838D02*
X116475237Y-100514838D01*
X116475237Y-100514838D02*
X116284761Y-100610076D01*
X116284761Y-100610076D02*
X116189523Y-100705314D01*
X116189523Y-100705314D02*
X116094285Y-100895790D01*
X116094285Y-100895790D02*
X115999047Y-101276742D01*
X115999047Y-101276742D02*
X115999047Y-101752933D01*
X115999047Y-101752933D02*
X116094285Y-102133885D01*
X116094285Y-102133885D02*
X116189523Y-102324361D01*
X116189523Y-102324361D02*
X116284761Y-102419600D01*
X116284761Y-102419600D02*
X116475237Y-102514838D01*
X116475237Y-102514838D02*
X116665714Y-102514838D01*
X116665714Y-102514838D02*
X116856190Y-102419600D01*
X116856190Y-102419600D02*
X116951428Y-102324361D01*
X116951428Y-102324361D02*
X117046666Y-102133885D01*
X117046666Y-102133885D02*
X117141904Y-101752933D01*
X117141904Y-101752933D02*
X117141904Y-101276742D01*
X117141904Y-101276742D02*
X117046666Y-100895790D01*
X117046666Y-100895790D02*
X116951428Y-100705314D01*
X116951428Y-100705314D02*
X116856190Y-100610076D01*
X116856190Y-100610076D02*
X116665714Y-100514838D01*
X114856190Y-101371980D02*
X115046666Y-101276742D01*
X115046666Y-101276742D02*
X115141904Y-101181504D01*
X115141904Y-101181504D02*
X115237142Y-100991028D01*
X115237142Y-100991028D02*
X115237142Y-100895790D01*
X115237142Y-100895790D02*
X115141904Y-100705314D01*
X115141904Y-100705314D02*
X115046666Y-100610076D01*
X115046666Y-100610076D02*
X114856190Y-100514838D01*
X114856190Y-100514838D02*
X114475237Y-100514838D01*
X114475237Y-100514838D02*
X114284761Y-100610076D01*
X114284761Y-100610076D02*
X114189523Y-100705314D01*
X114189523Y-100705314D02*
X114094285Y-100895790D01*
X114094285Y-100895790D02*
X114094285Y-100991028D01*
X114094285Y-100991028D02*
X114189523Y-101181504D01*
X114189523Y-101181504D02*
X114284761Y-101276742D01*
X114284761Y-101276742D02*
X114475237Y-101371980D01*
X114475237Y-101371980D02*
X114856190Y-101371980D01*
X114856190Y-101371980D02*
X115046666Y-101467219D01*
X115046666Y-101467219D02*
X115141904Y-101562457D01*
X115141904Y-101562457D02*
X115237142Y-101752933D01*
X115237142Y-101752933D02*
X115237142Y-102133885D01*
X115237142Y-102133885D02*
X115141904Y-102324361D01*
X115141904Y-102324361D02*
X115046666Y-102419600D01*
X115046666Y-102419600D02*
X114856190Y-102514838D01*
X114856190Y-102514838D02*
X114475237Y-102514838D01*
X114475237Y-102514838D02*
X114284761Y-102419600D01*
X114284761Y-102419600D02*
X114189523Y-102324361D01*
X114189523Y-102324361D02*
X114094285Y-102133885D01*
X114094285Y-102133885D02*
X114094285Y-101752933D01*
X114094285Y-101752933D02*
X114189523Y-101562457D01*
X114189523Y-101562457D02*
X114284761Y-101467219D01*
X114284761Y-101467219D02*
X114475237Y-101371980D01*
X146208571Y-75089438D02*
X147160952Y-75089438D01*
X147160952Y-75089438D02*
X147256190Y-76041819D01*
X147256190Y-76041819D02*
X147160952Y-75946580D01*
X147160952Y-75946580D02*
X146970476Y-75851342D01*
X146970476Y-75851342D02*
X146494285Y-75851342D01*
X146494285Y-75851342D02*
X146303809Y-75946580D01*
X146303809Y-75946580D02*
X146208571Y-76041819D01*
X146208571Y-76041819D02*
X146113333Y-76232295D01*
X146113333Y-76232295D02*
X146113333Y-76708485D01*
X146113333Y-76708485D02*
X146208571Y-76898961D01*
X146208571Y-76898961D02*
X146303809Y-76994200D01*
X146303809Y-76994200D02*
X146494285Y-77089438D01*
X146494285Y-77089438D02*
X146970476Y-77089438D01*
X146970476Y-77089438D02*
X147160952Y-76994200D01*
X147160952Y-76994200D02*
X147256190Y-76898961D01*
X144303809Y-75089438D02*
X145256190Y-75089438D01*
X145256190Y-75089438D02*
X145351428Y-76041819D01*
X145351428Y-76041819D02*
X145256190Y-75946580D01*
X145256190Y-75946580D02*
X145065714Y-75851342D01*
X145065714Y-75851342D02*
X144589523Y-75851342D01*
X144589523Y-75851342D02*
X144399047Y-75946580D01*
X144399047Y-75946580D02*
X144303809Y-76041819D01*
X144303809Y-76041819D02*
X144208571Y-76232295D01*
X144208571Y-76232295D02*
X144208571Y-76708485D01*
X144208571Y-76708485D02*
X144303809Y-76898961D01*
X144303809Y-76898961D02*
X144399047Y-76994200D01*
X144399047Y-76994200D02*
X144589523Y-77089438D01*
X144589523Y-77089438D02*
X145065714Y-77089438D01*
X145065714Y-77089438D02*
X145256190Y-76994200D01*
X145256190Y-76994200D02*
X145351428Y-76898961D01*
X142399047Y-75089438D02*
X143351428Y-75089438D01*
X143351428Y-75089438D02*
X143446666Y-76041819D01*
X143446666Y-76041819D02*
X143351428Y-75946580D01*
X143351428Y-75946580D02*
X143160952Y-75851342D01*
X143160952Y-75851342D02*
X142684761Y-75851342D01*
X142684761Y-75851342D02*
X142494285Y-75946580D01*
X142494285Y-75946580D02*
X142399047Y-76041819D01*
X142399047Y-76041819D02*
X142303809Y-76232295D01*
X142303809Y-76232295D02*
X142303809Y-76708485D01*
X142303809Y-76708485D02*
X142399047Y-76898961D01*
X142399047Y-76898961D02*
X142494285Y-76994200D01*
X142494285Y-76994200D02*
X142684761Y-77089438D01*
X142684761Y-77089438D02*
X143160952Y-77089438D01*
X143160952Y-77089438D02*
X143351428Y-76994200D01*
X143351428Y-76994200D02*
X143446666Y-76898961D01*
D10*
X180483180Y-50514046D02*
X180483180Y-49847380D01*
X180483180Y-49847380D02*
X179483180Y-50275951D01*
X179578419Y-49466427D02*
X179530800Y-49418808D01*
X179530800Y-49418808D02*
X179483180Y-49466427D01*
X179483180Y-49466427D02*
X179530800Y-49514046D01*
X179530800Y-49514046D02*
X179578419Y-49466427D01*
X179578419Y-49466427D02*
X179483180Y-49466427D01*
X180149847Y-48561666D02*
X179483180Y-48561666D01*
X180530800Y-48799761D02*
X179816514Y-49037856D01*
X179816514Y-49037856D02*
X179816514Y-48418809D01*
X179483180Y-48037856D02*
X180483180Y-48037856D01*
X180483180Y-48037856D02*
X179768895Y-47704523D01*
X179768895Y-47704523D02*
X180483180Y-47371190D01*
X180483180Y-47371190D02*
X179483180Y-47371190D01*
X182919523Y-87084819D02*
X182300476Y-87084819D01*
X182300476Y-87084819D02*
X182633809Y-87465771D01*
X182633809Y-87465771D02*
X182490952Y-87465771D01*
X182490952Y-87465771D02*
X182395714Y-87513390D01*
X182395714Y-87513390D02*
X182348095Y-87561009D01*
X182348095Y-87561009D02*
X182300476Y-87656247D01*
X182300476Y-87656247D02*
X182300476Y-87894342D01*
X182300476Y-87894342D02*
X182348095Y-87989580D01*
X182348095Y-87989580D02*
X182395714Y-88037200D01*
X182395714Y-88037200D02*
X182490952Y-88084819D01*
X182490952Y-88084819D02*
X182776666Y-88084819D01*
X182776666Y-88084819D02*
X182871904Y-88037200D01*
X182871904Y-88037200D02*
X182919523Y-87989580D01*
X181871904Y-88084819D02*
X181871904Y-87084819D01*
X181300476Y-88084819D02*
X181729047Y-87513390D01*
X181300476Y-87084819D02*
X181871904Y-87656247D01*
X180967142Y-87084819D02*
X180348095Y-87084819D01*
X180348095Y-87084819D02*
X180681428Y-87465771D01*
X180681428Y-87465771D02*
X180538571Y-87465771D01*
X180538571Y-87465771D02*
X180443333Y-87513390D01*
X180443333Y-87513390D02*
X180395714Y-87561009D01*
X180395714Y-87561009D02*
X180348095Y-87656247D01*
X180348095Y-87656247D02*
X180348095Y-87894342D01*
X180348095Y-87894342D02*
X180395714Y-87989580D01*
X180395714Y-87989580D02*
X180443333Y-88037200D01*
X180443333Y-88037200D02*
X180538571Y-88084819D01*
X180538571Y-88084819D02*
X180824285Y-88084819D01*
X180824285Y-88084819D02*
X180919523Y-88037200D01*
X180919523Y-88037200D02*
X180967142Y-87989580D01*
D11*
X124760952Y-87814838D02*
X123427619Y-87814838D01*
X123427619Y-87814838D02*
X124284762Y-89814838D01*
X121808571Y-88481504D02*
X121808571Y-89814838D01*
X122284762Y-87719600D02*
X122760952Y-89148171D01*
X122760952Y-89148171D02*
X121522857Y-89148171D01*
X120856190Y-89243409D02*
X119903809Y-89243409D01*
X121046666Y-89814838D02*
X120380000Y-87814838D01*
X120380000Y-87814838D02*
X119713333Y-89814838D01*
X117903809Y-89624361D02*
X117999047Y-89719600D01*
X117999047Y-89719600D02*
X118284761Y-89814838D01*
X118284761Y-89814838D02*
X118475237Y-89814838D01*
X118475237Y-89814838D02*
X118760952Y-89719600D01*
X118760952Y-89719600D02*
X118951428Y-89529123D01*
X118951428Y-89529123D02*
X119046666Y-89338647D01*
X119046666Y-89338647D02*
X119141904Y-88957695D01*
X119141904Y-88957695D02*
X119141904Y-88671980D01*
X119141904Y-88671980D02*
X119046666Y-88291028D01*
X119046666Y-88291028D02*
X118951428Y-88100552D01*
X118951428Y-88100552D02*
X118760952Y-87910076D01*
X118760952Y-87910076D02*
X118475237Y-87814838D01*
X118475237Y-87814838D02*
X118284761Y-87814838D01*
X118284761Y-87814838D02*
X117999047Y-87910076D01*
X117999047Y-87910076D02*
X117903809Y-88005314D01*
X117237142Y-87814838D02*
X115903809Y-87814838D01*
X115903809Y-87814838D02*
X116760952Y-89814838D01*
X114284761Y-88481504D02*
X114284761Y-89814838D01*
X114760952Y-87719600D02*
X115237142Y-89148171D01*
X115237142Y-89148171D02*
X113999047Y-89148171D01*
D10*
X182078238Y-123549580D02*
X182125857Y-123597200D01*
X182125857Y-123597200D02*
X182268714Y-123644819D01*
X182268714Y-123644819D02*
X182363952Y-123644819D01*
X182363952Y-123644819D02*
X182506809Y-123597200D01*
X182506809Y-123597200D02*
X182602047Y-123501961D01*
X182602047Y-123501961D02*
X182649666Y-123406723D01*
X182649666Y-123406723D02*
X182697285Y-123216247D01*
X182697285Y-123216247D02*
X182697285Y-123073390D01*
X182697285Y-123073390D02*
X182649666Y-122882914D01*
X182649666Y-122882914D02*
X182602047Y-122787676D01*
X182602047Y-122787676D02*
X182506809Y-122692438D01*
X182506809Y-122692438D02*
X182363952Y-122644819D01*
X182363952Y-122644819D02*
X182268714Y-122644819D01*
X182268714Y-122644819D02*
X182125857Y-122692438D01*
X182125857Y-122692438D02*
X182078238Y-122740057D01*
X181173476Y-123644819D02*
X181649666Y-123644819D01*
X181649666Y-123644819D02*
X181649666Y-122644819D01*
X180840142Y-123644819D02*
X180840142Y-122644819D01*
X180268714Y-123644819D02*
X180697285Y-123073390D01*
X180268714Y-122644819D02*
X180840142Y-123216247D01*
X183824381Y-121231819D02*
X184157714Y-120755628D01*
X184395809Y-121231819D02*
X184395809Y-120231819D01*
X184395809Y-120231819D02*
X184014857Y-120231819D01*
X184014857Y-120231819D02*
X183919619Y-120279438D01*
X183919619Y-120279438D02*
X183872000Y-120327057D01*
X183872000Y-120327057D02*
X183824381Y-120422295D01*
X183824381Y-120422295D02*
X183824381Y-120565152D01*
X183824381Y-120565152D02*
X183872000Y-120660390D01*
X183872000Y-120660390D02*
X183919619Y-120708009D01*
X183919619Y-120708009D02*
X184014857Y-120755628D01*
X184014857Y-120755628D02*
X184395809Y-120755628D01*
X183395809Y-120708009D02*
X183062476Y-120708009D01*
X182919619Y-121231819D02*
X183395809Y-121231819D01*
X183395809Y-121231819D02*
X183395809Y-120231819D01*
X183395809Y-120231819D02*
X182919619Y-120231819D01*
X182538666Y-121184200D02*
X182395809Y-121231819D01*
X182395809Y-121231819D02*
X182157714Y-121231819D01*
X182157714Y-121231819D02*
X182062476Y-121184200D01*
X182062476Y-121184200D02*
X182014857Y-121136580D01*
X182014857Y-121136580D02*
X181967238Y-121041342D01*
X181967238Y-121041342D02*
X181967238Y-120946104D01*
X181967238Y-120946104D02*
X182014857Y-120850866D01*
X182014857Y-120850866D02*
X182062476Y-120803247D01*
X182062476Y-120803247D02*
X182157714Y-120755628D01*
X182157714Y-120755628D02*
X182348190Y-120708009D01*
X182348190Y-120708009D02*
X182443428Y-120660390D01*
X182443428Y-120660390D02*
X182491047Y-120612771D01*
X182491047Y-120612771D02*
X182538666Y-120517533D01*
X182538666Y-120517533D02*
X182538666Y-120422295D01*
X182538666Y-120422295D02*
X182491047Y-120327057D01*
X182491047Y-120327057D02*
X182443428Y-120279438D01*
X182443428Y-120279438D02*
X182348190Y-120231819D01*
X182348190Y-120231819D02*
X182110095Y-120231819D01*
X182110095Y-120231819D02*
X181967238Y-120279438D01*
X181538666Y-120708009D02*
X181205333Y-120708009D01*
X181062476Y-121231819D02*
X181538666Y-121231819D01*
X181538666Y-121231819D02*
X181538666Y-120231819D01*
X181538666Y-120231819D02*
X181062476Y-120231819D01*
X180776761Y-120231819D02*
X180205333Y-120231819D01*
X180491047Y-121231819D02*
X180491047Y-120231819D01*
X184533905Y-119954200D02*
X180210095Y-119954200D01*
X114522047Y-55096580D02*
X114569666Y-55144200D01*
X114569666Y-55144200D02*
X114712523Y-55191819D01*
X114712523Y-55191819D02*
X114807761Y-55191819D01*
X114807761Y-55191819D02*
X114950618Y-55144200D01*
X114950618Y-55144200D02*
X115045856Y-55048961D01*
X115045856Y-55048961D02*
X115093475Y-54953723D01*
X115093475Y-54953723D02*
X115141094Y-54763247D01*
X115141094Y-54763247D02*
X115141094Y-54620390D01*
X115141094Y-54620390D02*
X115093475Y-54429914D01*
X115093475Y-54429914D02*
X115045856Y-54334676D01*
X115045856Y-54334676D02*
X114950618Y-54239438D01*
X114950618Y-54239438D02*
X114807761Y-54191819D01*
X114807761Y-54191819D02*
X114712523Y-54191819D01*
X114712523Y-54191819D02*
X114569666Y-54239438D01*
X114569666Y-54239438D02*
X114522047Y-54287057D01*
X113617285Y-55191819D02*
X114093475Y-55191819D01*
X114093475Y-55191819D02*
X114093475Y-54191819D01*
X113093475Y-54191819D02*
X112902999Y-54191819D01*
X112902999Y-54191819D02*
X112807761Y-54239438D01*
X112807761Y-54239438D02*
X112712523Y-54334676D01*
X112712523Y-54334676D02*
X112664904Y-54525152D01*
X112664904Y-54525152D02*
X112664904Y-54858485D01*
X112664904Y-54858485D02*
X112712523Y-55048961D01*
X112712523Y-55048961D02*
X112807761Y-55144200D01*
X112807761Y-55144200D02*
X112902999Y-55191819D01*
X112902999Y-55191819D02*
X113093475Y-55191819D01*
X113093475Y-55191819D02*
X113188713Y-55144200D01*
X113188713Y-55144200D02*
X113283951Y-55048961D01*
X113283951Y-55048961D02*
X113331570Y-54858485D01*
X113331570Y-54858485D02*
X113331570Y-54525152D01*
X113331570Y-54525152D02*
X113283951Y-54334676D01*
X113283951Y-54334676D02*
X113188713Y-54239438D01*
X113188713Y-54239438D02*
X113093475Y-54191819D01*
X111664904Y-55096580D02*
X111712523Y-55144200D01*
X111712523Y-55144200D02*
X111855380Y-55191819D01*
X111855380Y-55191819D02*
X111950618Y-55191819D01*
X111950618Y-55191819D02*
X112093475Y-55144200D01*
X112093475Y-55144200D02*
X112188713Y-55048961D01*
X112188713Y-55048961D02*
X112236332Y-54953723D01*
X112236332Y-54953723D02*
X112283951Y-54763247D01*
X112283951Y-54763247D02*
X112283951Y-54620390D01*
X112283951Y-54620390D02*
X112236332Y-54429914D01*
X112236332Y-54429914D02*
X112188713Y-54334676D01*
X112188713Y-54334676D02*
X112093475Y-54239438D01*
X112093475Y-54239438D02*
X111950618Y-54191819D01*
X111950618Y-54191819D02*
X111855380Y-54191819D01*
X111855380Y-54191819D02*
X111712523Y-54239438D01*
X111712523Y-54239438D02*
X111664904Y-54287057D01*
X111236332Y-55191819D02*
X111236332Y-54191819D01*
X110664904Y-55191819D02*
X111093475Y-54620390D01*
X110664904Y-54191819D02*
X111236332Y-54763247D01*
X182871904Y-90736057D02*
X182824285Y-90688438D01*
X182824285Y-90688438D02*
X182729047Y-90640819D01*
X182729047Y-90640819D02*
X182490952Y-90640819D01*
X182490952Y-90640819D02*
X182395714Y-90688438D01*
X182395714Y-90688438D02*
X182348095Y-90736057D01*
X182348095Y-90736057D02*
X182300476Y-90831295D01*
X182300476Y-90831295D02*
X182300476Y-90926533D01*
X182300476Y-90926533D02*
X182348095Y-91069390D01*
X182348095Y-91069390D02*
X182919523Y-91640819D01*
X182919523Y-91640819D02*
X182300476Y-91640819D01*
X181681428Y-90640819D02*
X181586190Y-90640819D01*
X181586190Y-90640819D02*
X181490952Y-90688438D01*
X181490952Y-90688438D02*
X181443333Y-90736057D01*
X181443333Y-90736057D02*
X181395714Y-90831295D01*
X181395714Y-90831295D02*
X181348095Y-91021771D01*
X181348095Y-91021771D02*
X181348095Y-91259866D01*
X181348095Y-91259866D02*
X181395714Y-91450342D01*
X181395714Y-91450342D02*
X181443333Y-91545580D01*
X181443333Y-91545580D02*
X181490952Y-91593200D01*
X181490952Y-91593200D02*
X181586190Y-91640819D01*
X181586190Y-91640819D02*
X181681428Y-91640819D01*
X181681428Y-91640819D02*
X181776666Y-91593200D01*
X181776666Y-91593200D02*
X181824285Y-91545580D01*
X181824285Y-91545580D02*
X181871904Y-91450342D01*
X181871904Y-91450342D02*
X181919523Y-91259866D01*
X181919523Y-91259866D02*
X181919523Y-91021771D01*
X181919523Y-91021771D02*
X181871904Y-90831295D01*
X181871904Y-90831295D02*
X181824285Y-90736057D01*
X181824285Y-90736057D02*
X181776666Y-90688438D01*
X181776666Y-90688438D02*
X181681428Y-90640819D01*
X180919523Y-91640819D02*
X180919523Y-90640819D01*
X180348095Y-91640819D02*
X180776666Y-91069390D01*
X180348095Y-90640819D02*
X180919523Y-91212247D01*
X182848094Y-80068057D02*
X182800475Y-80020438D01*
X182800475Y-80020438D02*
X182705237Y-79972819D01*
X182705237Y-79972819D02*
X182467142Y-79972819D01*
X182467142Y-79972819D02*
X182371904Y-80020438D01*
X182371904Y-80020438D02*
X182324285Y-80068057D01*
X182324285Y-80068057D02*
X182276666Y-80163295D01*
X182276666Y-80163295D02*
X182276666Y-80258533D01*
X182276666Y-80258533D02*
X182324285Y-80401390D01*
X182324285Y-80401390D02*
X182895713Y-80972819D01*
X182895713Y-80972819D02*
X182276666Y-80972819D01*
X181895713Y-80068057D02*
X181848094Y-80020438D01*
X181848094Y-80020438D02*
X181752856Y-79972819D01*
X181752856Y-79972819D02*
X181514761Y-79972819D01*
X181514761Y-79972819D02*
X181419523Y-80020438D01*
X181419523Y-80020438D02*
X181371904Y-80068057D01*
X181371904Y-80068057D02*
X181324285Y-80163295D01*
X181324285Y-80163295D02*
X181324285Y-80258533D01*
X181324285Y-80258533D02*
X181371904Y-80401390D01*
X181371904Y-80401390D02*
X181943332Y-80972819D01*
X181943332Y-80972819D02*
X181324285Y-80972819D01*
X180705237Y-79972819D02*
X180609999Y-79972819D01*
X180609999Y-79972819D02*
X180514761Y-80020438D01*
X180514761Y-80020438D02*
X180467142Y-80068057D01*
X180467142Y-80068057D02*
X180419523Y-80163295D01*
X180419523Y-80163295D02*
X180371904Y-80353771D01*
X180371904Y-80353771D02*
X180371904Y-80591866D01*
X180371904Y-80591866D02*
X180419523Y-80782342D01*
X180419523Y-80782342D02*
X180467142Y-80877580D01*
X180467142Y-80877580D02*
X180514761Y-80925200D01*
X180514761Y-80925200D02*
X180609999Y-80972819D01*
X180609999Y-80972819D02*
X180705237Y-80972819D01*
X180705237Y-80972819D02*
X180800475Y-80925200D01*
X180800475Y-80925200D02*
X180848094Y-80877580D01*
X180848094Y-80877580D02*
X180895713Y-80782342D01*
X180895713Y-80782342D02*
X180943332Y-80591866D01*
X180943332Y-80591866D02*
X180943332Y-80353771D01*
X180943332Y-80353771D02*
X180895713Y-80163295D01*
X180895713Y-80163295D02*
X180848094Y-80068057D01*
X180848094Y-80068057D02*
X180800475Y-80020438D01*
X180800475Y-80020438D02*
X180705237Y-79972819D01*
X182895713Y-76416819D02*
X182276666Y-76416819D01*
X182276666Y-76416819D02*
X182609999Y-76797771D01*
X182609999Y-76797771D02*
X182467142Y-76797771D01*
X182467142Y-76797771D02*
X182371904Y-76845390D01*
X182371904Y-76845390D02*
X182324285Y-76893009D01*
X182324285Y-76893009D02*
X182276666Y-76988247D01*
X182276666Y-76988247D02*
X182276666Y-77226342D01*
X182276666Y-77226342D02*
X182324285Y-77321580D01*
X182324285Y-77321580D02*
X182371904Y-77369200D01*
X182371904Y-77369200D02*
X182467142Y-77416819D01*
X182467142Y-77416819D02*
X182752856Y-77416819D01*
X182752856Y-77416819D02*
X182848094Y-77369200D01*
X182848094Y-77369200D02*
X182895713Y-77321580D01*
X181943332Y-76416819D02*
X181324285Y-76416819D01*
X181324285Y-76416819D02*
X181657618Y-76797771D01*
X181657618Y-76797771D02*
X181514761Y-76797771D01*
X181514761Y-76797771D02*
X181419523Y-76845390D01*
X181419523Y-76845390D02*
X181371904Y-76893009D01*
X181371904Y-76893009D02*
X181324285Y-76988247D01*
X181324285Y-76988247D02*
X181324285Y-77226342D01*
X181324285Y-77226342D02*
X181371904Y-77321580D01*
X181371904Y-77321580D02*
X181419523Y-77369200D01*
X181419523Y-77369200D02*
X181514761Y-77416819D01*
X181514761Y-77416819D02*
X181800475Y-77416819D01*
X181800475Y-77416819D02*
X181895713Y-77369200D01*
X181895713Y-77369200D02*
X181943332Y-77321580D01*
X180705237Y-76416819D02*
X180609999Y-76416819D01*
X180609999Y-76416819D02*
X180514761Y-76464438D01*
X180514761Y-76464438D02*
X180467142Y-76512057D01*
X180467142Y-76512057D02*
X180419523Y-76607295D01*
X180419523Y-76607295D02*
X180371904Y-76797771D01*
X180371904Y-76797771D02*
X180371904Y-77035866D01*
X180371904Y-77035866D02*
X180419523Y-77226342D01*
X180419523Y-77226342D02*
X180467142Y-77321580D01*
X180467142Y-77321580D02*
X180514761Y-77369200D01*
X180514761Y-77369200D02*
X180609999Y-77416819D01*
X180609999Y-77416819D02*
X180705237Y-77416819D01*
X180705237Y-77416819D02*
X180800475Y-77369200D01*
X180800475Y-77369200D02*
X180848094Y-77321580D01*
X180848094Y-77321580D02*
X180895713Y-77226342D01*
X180895713Y-77226342D02*
X180943332Y-77035866D01*
X180943332Y-77035866D02*
X180943332Y-76797771D01*
X180943332Y-76797771D02*
X180895713Y-76607295D01*
X180895713Y-76607295D02*
X180848094Y-76512057D01*
X180848094Y-76512057D02*
X180800475Y-76464438D01*
X180800475Y-76464438D02*
X180705237Y-76416819D01*
X149613713Y-55169600D02*
X149470856Y-55217219D01*
X149470856Y-55217219D02*
X149232761Y-55217219D01*
X149232761Y-55217219D02*
X149137523Y-55169600D01*
X149137523Y-55169600D02*
X149089904Y-55121980D01*
X149089904Y-55121980D02*
X149042285Y-55026742D01*
X149042285Y-55026742D02*
X149042285Y-54931504D01*
X149042285Y-54931504D02*
X149089904Y-54836266D01*
X149089904Y-54836266D02*
X149137523Y-54788647D01*
X149137523Y-54788647D02*
X149232761Y-54741028D01*
X149232761Y-54741028D02*
X149423237Y-54693409D01*
X149423237Y-54693409D02*
X149518475Y-54645790D01*
X149518475Y-54645790D02*
X149566094Y-54598171D01*
X149566094Y-54598171D02*
X149613713Y-54502933D01*
X149613713Y-54502933D02*
X149613713Y-54407695D01*
X149613713Y-54407695D02*
X149566094Y-54312457D01*
X149566094Y-54312457D02*
X149518475Y-54264838D01*
X149518475Y-54264838D02*
X149423237Y-54217219D01*
X149423237Y-54217219D02*
X149185142Y-54217219D01*
X149185142Y-54217219D02*
X149042285Y-54264838D01*
X148137523Y-55217219D02*
X148613713Y-55217219D01*
X148613713Y-55217219D02*
X148613713Y-54217219D01*
X147613713Y-54217219D02*
X147423237Y-54217219D01*
X147423237Y-54217219D02*
X147327999Y-54264838D01*
X147327999Y-54264838D02*
X147232761Y-54360076D01*
X147232761Y-54360076D02*
X147185142Y-54550552D01*
X147185142Y-54550552D02*
X147185142Y-54883885D01*
X147185142Y-54883885D02*
X147232761Y-55074361D01*
X147232761Y-55074361D02*
X147327999Y-55169600D01*
X147327999Y-55169600D02*
X147423237Y-55217219D01*
X147423237Y-55217219D02*
X147613713Y-55217219D01*
X147613713Y-55217219D02*
X147708951Y-55169600D01*
X147708951Y-55169600D02*
X147804189Y-55074361D01*
X147804189Y-55074361D02*
X147851808Y-54883885D01*
X147851808Y-54883885D02*
X147851808Y-54550552D01*
X147851808Y-54550552D02*
X147804189Y-54360076D01*
X147804189Y-54360076D02*
X147708951Y-54264838D01*
X147708951Y-54264838D02*
X147613713Y-54217219D01*
X146851808Y-54217219D02*
X146613713Y-55217219D01*
X146613713Y-55217219D02*
X146423237Y-54502933D01*
X146423237Y-54502933D02*
X146232761Y-55217219D01*
X146232761Y-55217219D02*
X145994666Y-54217219D01*
D11*
X146350952Y-113214838D02*
X145017619Y-113214838D01*
X145017619Y-113214838D02*
X145874762Y-115214838D01*
X143398571Y-113881504D02*
X143398571Y-115214838D01*
X143874762Y-113119600D02*
X144350952Y-114548171D01*
X144350952Y-114548171D02*
X143112857Y-114548171D01*
X142446190Y-114643409D02*
X141493809Y-114643409D01*
X142636666Y-115214838D02*
X141970000Y-113214838D01*
X141970000Y-113214838D02*
X141303333Y-115214838D01*
X139493809Y-115024361D02*
X139589047Y-115119600D01*
X139589047Y-115119600D02*
X139874761Y-115214838D01*
X139874761Y-115214838D02*
X140065237Y-115214838D01*
X140065237Y-115214838D02*
X140350952Y-115119600D01*
X140350952Y-115119600D02*
X140541428Y-114929123D01*
X140541428Y-114929123D02*
X140636666Y-114738647D01*
X140636666Y-114738647D02*
X140731904Y-114357695D01*
X140731904Y-114357695D02*
X140731904Y-114071980D01*
X140731904Y-114071980D02*
X140636666Y-113691028D01*
X140636666Y-113691028D02*
X140541428Y-113500552D01*
X140541428Y-113500552D02*
X140350952Y-113310076D01*
X140350952Y-113310076D02*
X140065237Y-113214838D01*
X140065237Y-113214838D02*
X139874761Y-113214838D01*
X139874761Y-113214838D02*
X139589047Y-113310076D01*
X139589047Y-113310076D02*
X139493809Y-113405314D01*
X138827142Y-113214838D02*
X137493809Y-113214838D01*
X137493809Y-113214838D02*
X138350952Y-115214838D01*
X135874761Y-113881504D02*
X135874761Y-115214838D01*
X136350952Y-113119600D02*
X136827142Y-114548171D01*
X136827142Y-114548171D02*
X135589047Y-114548171D01*
D10*
X95424523Y-118279057D02*
X95519761Y-118231438D01*
X95519761Y-118231438D02*
X95614999Y-118136200D01*
X95614999Y-118136200D02*
X95757856Y-117993342D01*
X95757856Y-117993342D02*
X95853094Y-117945723D01*
X95853094Y-117945723D02*
X95948332Y-117945723D01*
X95900713Y-118183819D02*
X95995951Y-118136200D01*
X95995951Y-118136200D02*
X96091189Y-118040961D01*
X96091189Y-118040961D02*
X96138808Y-117850485D01*
X96138808Y-117850485D02*
X96138808Y-117517152D01*
X96138808Y-117517152D02*
X96091189Y-117326676D01*
X96091189Y-117326676D02*
X95995951Y-117231438D01*
X95995951Y-117231438D02*
X95900713Y-117183819D01*
X95900713Y-117183819D02*
X95710237Y-117183819D01*
X95710237Y-117183819D02*
X95614999Y-117231438D01*
X95614999Y-117231438D02*
X95519761Y-117326676D01*
X95519761Y-117326676D02*
X95472142Y-117517152D01*
X95472142Y-117517152D02*
X95472142Y-117850485D01*
X95472142Y-117850485D02*
X95519761Y-118040961D01*
X95519761Y-118040961D02*
X95614999Y-118136200D01*
X95614999Y-118136200D02*
X95710237Y-118183819D01*
X95710237Y-118183819D02*
X95900713Y-118183819D01*
X94519761Y-118183819D02*
X95091189Y-118183819D01*
X94805475Y-118183819D02*
X94805475Y-117183819D01*
X94805475Y-117183819D02*
X94900713Y-117326676D01*
X94900713Y-117326676D02*
X94995951Y-117421914D01*
X94995951Y-117421914D02*
X95091189Y-117469533D01*
X94091189Y-118088580D02*
X94043570Y-118136200D01*
X94043570Y-118136200D02*
X94091189Y-118183819D01*
X94091189Y-118183819D02*
X94138808Y-118136200D01*
X94138808Y-118136200D02*
X94091189Y-118088580D01*
X94091189Y-118088580D02*
X94091189Y-118183819D01*
X94091189Y-117564771D02*
X94043570Y-117612390D01*
X94043570Y-117612390D02*
X94091189Y-117660009D01*
X94091189Y-117660009D02*
X94138808Y-117612390D01*
X94138808Y-117612390D02*
X94091189Y-117564771D01*
X94091189Y-117564771D02*
X94091189Y-117660009D01*
X93424523Y-117183819D02*
X93329285Y-117183819D01*
X93329285Y-117183819D02*
X93234047Y-117231438D01*
X93234047Y-117231438D02*
X93186428Y-117279057D01*
X93186428Y-117279057D02*
X93138809Y-117374295D01*
X93138809Y-117374295D02*
X93091190Y-117564771D01*
X93091190Y-117564771D02*
X93091190Y-117802866D01*
X93091190Y-117802866D02*
X93138809Y-117993342D01*
X93138809Y-117993342D02*
X93186428Y-118088580D01*
X93186428Y-118088580D02*
X93234047Y-118136200D01*
X93234047Y-118136200D02*
X93329285Y-118183819D01*
X93329285Y-118183819D02*
X93424523Y-118183819D01*
X93424523Y-118183819D02*
X93519761Y-118136200D01*
X93519761Y-118136200D02*
X93567380Y-118088580D01*
X93567380Y-118088580D02*
X93614999Y-117993342D01*
X93614999Y-117993342D02*
X93662618Y-117802866D01*
X93662618Y-117802866D02*
X93662618Y-117564771D01*
X93662618Y-117564771D02*
X93614999Y-117374295D01*
X93614999Y-117374295D02*
X93567380Y-117279057D01*
X93567380Y-117279057D02*
X93519761Y-117231438D01*
X93519761Y-117231438D02*
X93424523Y-117183819D01*
X182919523Y-94196819D02*
X182300476Y-94196819D01*
X182300476Y-94196819D02*
X182633809Y-94577771D01*
X182633809Y-94577771D02*
X182490952Y-94577771D01*
X182490952Y-94577771D02*
X182395714Y-94625390D01*
X182395714Y-94625390D02*
X182348095Y-94673009D01*
X182348095Y-94673009D02*
X182300476Y-94768247D01*
X182300476Y-94768247D02*
X182300476Y-95006342D01*
X182300476Y-95006342D02*
X182348095Y-95101580D01*
X182348095Y-95101580D02*
X182395714Y-95149200D01*
X182395714Y-95149200D02*
X182490952Y-95196819D01*
X182490952Y-95196819D02*
X182776666Y-95196819D01*
X182776666Y-95196819D02*
X182871904Y-95149200D01*
X182871904Y-95149200D02*
X182919523Y-95101580D01*
X181871904Y-95196819D02*
X181871904Y-94196819D01*
X181300476Y-95196819D02*
X181729047Y-94625390D01*
X181300476Y-94196819D02*
X181871904Y-94768247D01*
X180967142Y-94196819D02*
X180348095Y-94196819D01*
X180348095Y-94196819D02*
X180681428Y-94577771D01*
X180681428Y-94577771D02*
X180538571Y-94577771D01*
X180538571Y-94577771D02*
X180443333Y-94625390D01*
X180443333Y-94625390D02*
X180395714Y-94673009D01*
X180395714Y-94673009D02*
X180348095Y-94768247D01*
X180348095Y-94768247D02*
X180348095Y-95006342D01*
X180348095Y-95006342D02*
X180395714Y-95101580D01*
X180395714Y-95101580D02*
X180443333Y-95149200D01*
X180443333Y-95149200D02*
X180538571Y-95196819D01*
X180538571Y-95196819D02*
X180824285Y-95196819D01*
X180824285Y-95196819D02*
X180919523Y-95149200D01*
X180919523Y-95149200D02*
X180967142Y-95101580D01*
X137572523Y-55191819D02*
X137572523Y-54191819D01*
X137572523Y-54191819D02*
X137239190Y-54906104D01*
X137239190Y-54906104D02*
X136905857Y-54191819D01*
X136905857Y-54191819D02*
X136905857Y-55191819D01*
X136239190Y-54191819D02*
X136048714Y-54191819D01*
X136048714Y-54191819D02*
X135953476Y-54239438D01*
X135953476Y-54239438D02*
X135858238Y-54334676D01*
X135858238Y-54334676D02*
X135810619Y-54525152D01*
X135810619Y-54525152D02*
X135810619Y-54858485D01*
X135810619Y-54858485D02*
X135858238Y-55048961D01*
X135858238Y-55048961D02*
X135953476Y-55144200D01*
X135953476Y-55144200D02*
X136048714Y-55191819D01*
X136048714Y-55191819D02*
X136239190Y-55191819D01*
X136239190Y-55191819D02*
X136334428Y-55144200D01*
X136334428Y-55144200D02*
X136429666Y-55048961D01*
X136429666Y-55048961D02*
X136477285Y-54858485D01*
X136477285Y-54858485D02*
X136477285Y-54525152D01*
X136477285Y-54525152D02*
X136429666Y-54334676D01*
X136429666Y-54334676D02*
X136334428Y-54239438D01*
X136334428Y-54239438D02*
X136239190Y-54191819D01*
X135382047Y-55191819D02*
X135382047Y-54191819D01*
X135382047Y-54191819D02*
X135143952Y-54191819D01*
X135143952Y-54191819D02*
X135001095Y-54239438D01*
X135001095Y-54239438D02*
X134905857Y-54334676D01*
X134905857Y-54334676D02*
X134858238Y-54429914D01*
X134858238Y-54429914D02*
X134810619Y-54620390D01*
X134810619Y-54620390D02*
X134810619Y-54763247D01*
X134810619Y-54763247D02*
X134858238Y-54953723D01*
X134858238Y-54953723D02*
X134905857Y-55048961D01*
X134905857Y-55048961D02*
X135001095Y-55144200D01*
X135001095Y-55144200D02*
X135143952Y-55191819D01*
X135143952Y-55191819D02*
X135382047Y-55191819D01*
X134382047Y-54668009D02*
X134048714Y-54668009D01*
X133905857Y-55191819D02*
X134382047Y-55191819D01*
X134382047Y-55191819D02*
X134382047Y-54191819D01*
X134382047Y-54191819D02*
X133905857Y-54191819D01*
X182919523Y-69304819D02*
X182300476Y-69304819D01*
X182300476Y-69304819D02*
X182633809Y-69685771D01*
X182633809Y-69685771D02*
X182490952Y-69685771D01*
X182490952Y-69685771D02*
X182395714Y-69733390D01*
X182395714Y-69733390D02*
X182348095Y-69781009D01*
X182348095Y-69781009D02*
X182300476Y-69876247D01*
X182300476Y-69876247D02*
X182300476Y-70114342D01*
X182300476Y-70114342D02*
X182348095Y-70209580D01*
X182348095Y-70209580D02*
X182395714Y-70257200D01*
X182395714Y-70257200D02*
X182490952Y-70304819D01*
X182490952Y-70304819D02*
X182776666Y-70304819D01*
X182776666Y-70304819D02*
X182871904Y-70257200D01*
X182871904Y-70257200D02*
X182919523Y-70209580D01*
X181871904Y-70304819D02*
X181871904Y-69304819D01*
X181300476Y-70304819D02*
X181729047Y-69733390D01*
X181300476Y-69304819D02*
X181871904Y-69876247D01*
X180967142Y-69304819D02*
X180348095Y-69304819D01*
X180348095Y-69304819D02*
X180681428Y-69685771D01*
X180681428Y-69685771D02*
X180538571Y-69685771D01*
X180538571Y-69685771D02*
X180443333Y-69733390D01*
X180443333Y-69733390D02*
X180395714Y-69781009D01*
X180395714Y-69781009D02*
X180348095Y-69876247D01*
X180348095Y-69876247D02*
X180348095Y-70114342D01*
X180348095Y-70114342D02*
X180395714Y-70209580D01*
X180395714Y-70209580D02*
X180443333Y-70257200D01*
X180443333Y-70257200D02*
X180538571Y-70304819D01*
X180538571Y-70304819D02*
X180824285Y-70304819D01*
X180824285Y-70304819D02*
X180919523Y-70257200D01*
X180919523Y-70257200D02*
X180967142Y-70209580D01*
X182871904Y-65844057D02*
X182824285Y-65796438D01*
X182824285Y-65796438D02*
X182729047Y-65748819D01*
X182729047Y-65748819D02*
X182490952Y-65748819D01*
X182490952Y-65748819D02*
X182395714Y-65796438D01*
X182395714Y-65796438D02*
X182348095Y-65844057D01*
X182348095Y-65844057D02*
X182300476Y-65939295D01*
X182300476Y-65939295D02*
X182300476Y-66034533D01*
X182300476Y-66034533D02*
X182348095Y-66177390D01*
X182348095Y-66177390D02*
X182919523Y-66748819D01*
X182919523Y-66748819D02*
X182300476Y-66748819D01*
X181681428Y-65748819D02*
X181586190Y-65748819D01*
X181586190Y-65748819D02*
X181490952Y-65796438D01*
X181490952Y-65796438D02*
X181443333Y-65844057D01*
X181443333Y-65844057D02*
X181395714Y-65939295D01*
X181395714Y-65939295D02*
X181348095Y-66129771D01*
X181348095Y-66129771D02*
X181348095Y-66367866D01*
X181348095Y-66367866D02*
X181395714Y-66558342D01*
X181395714Y-66558342D02*
X181443333Y-66653580D01*
X181443333Y-66653580D02*
X181490952Y-66701200D01*
X181490952Y-66701200D02*
X181586190Y-66748819D01*
X181586190Y-66748819D02*
X181681428Y-66748819D01*
X181681428Y-66748819D02*
X181776666Y-66701200D01*
X181776666Y-66701200D02*
X181824285Y-66653580D01*
X181824285Y-66653580D02*
X181871904Y-66558342D01*
X181871904Y-66558342D02*
X181919523Y-66367866D01*
X181919523Y-66367866D02*
X181919523Y-66129771D01*
X181919523Y-66129771D02*
X181871904Y-65939295D01*
X181871904Y-65939295D02*
X181824285Y-65844057D01*
X181824285Y-65844057D02*
X181776666Y-65796438D01*
X181776666Y-65796438D02*
X181681428Y-65748819D01*
X180919523Y-66748819D02*
X180919523Y-65748819D01*
X180348095Y-66748819D02*
X180776666Y-66177390D01*
X180348095Y-65748819D02*
X180919523Y-66320247D01*
X173460857Y-54795009D02*
X173794190Y-54795009D01*
X173794190Y-55318819D02*
X173794190Y-54318819D01*
X173794190Y-54318819D02*
X173318000Y-54318819D01*
X172984666Y-55033104D02*
X172508476Y-55033104D01*
X173079904Y-55318819D02*
X172746571Y-54318819D01*
X172746571Y-54318819D02*
X172413238Y-55318819D01*
X172127523Y-55271200D02*
X171984666Y-55318819D01*
X171984666Y-55318819D02*
X171746571Y-55318819D01*
X171746571Y-55318819D02*
X171651333Y-55271200D01*
X171651333Y-55271200D02*
X171603714Y-55223580D01*
X171603714Y-55223580D02*
X171556095Y-55128342D01*
X171556095Y-55128342D02*
X171556095Y-55033104D01*
X171556095Y-55033104D02*
X171603714Y-54937866D01*
X171603714Y-54937866D02*
X171651333Y-54890247D01*
X171651333Y-54890247D02*
X171746571Y-54842628D01*
X171746571Y-54842628D02*
X171937047Y-54795009D01*
X171937047Y-54795009D02*
X172032285Y-54747390D01*
X172032285Y-54747390D02*
X172079904Y-54699771D01*
X172079904Y-54699771D02*
X172127523Y-54604533D01*
X172127523Y-54604533D02*
X172127523Y-54509295D01*
X172127523Y-54509295D02*
X172079904Y-54414057D01*
X172079904Y-54414057D02*
X172032285Y-54366438D01*
X172032285Y-54366438D02*
X171937047Y-54318819D01*
X171937047Y-54318819D02*
X171698952Y-54318819D01*
X171698952Y-54318819D02*
X171556095Y-54366438D01*
X171270380Y-54318819D02*
X170698952Y-54318819D01*
X170984666Y-55318819D02*
X170984666Y-54318819D01*
D11*
X170163333Y-125914838D02*
X168830000Y-125914838D01*
X168830000Y-125914838D02*
X169687143Y-127914838D01*
X167210952Y-126581504D02*
X167210952Y-127914838D01*
X167687143Y-125819600D02*
X168163333Y-127248171D01*
X168163333Y-127248171D02*
X166925238Y-127248171D01*
X166258571Y-127343409D02*
X165306190Y-127343409D01*
X166449047Y-127914838D02*
X165782381Y-125914838D01*
X165782381Y-125914838D02*
X165115714Y-127914838D01*
X163306190Y-127724361D02*
X163401428Y-127819600D01*
X163401428Y-127819600D02*
X163687142Y-127914838D01*
X163687142Y-127914838D02*
X163877618Y-127914838D01*
X163877618Y-127914838D02*
X164163333Y-127819600D01*
X164163333Y-127819600D02*
X164353809Y-127629123D01*
X164353809Y-127629123D02*
X164449047Y-127438647D01*
X164449047Y-127438647D02*
X164544285Y-127057695D01*
X164544285Y-127057695D02*
X164544285Y-126771980D01*
X164544285Y-126771980D02*
X164449047Y-126391028D01*
X164449047Y-126391028D02*
X164353809Y-126200552D01*
X164353809Y-126200552D02*
X164163333Y-126010076D01*
X164163333Y-126010076D02*
X163877618Y-125914838D01*
X163877618Y-125914838D02*
X163687142Y-125914838D01*
X163687142Y-125914838D02*
X163401428Y-126010076D01*
X163401428Y-126010076D02*
X163306190Y-126105314D01*
X161401428Y-127914838D02*
X162544285Y-127914838D01*
X161972857Y-127914838D02*
X161972857Y-125914838D01*
X161972857Y-125914838D02*
X162163333Y-126200552D01*
X162163333Y-126200552D02*
X162353809Y-126391028D01*
X162353809Y-126391028D02*
X162544285Y-126486266D01*
X160734761Y-125914838D02*
X159401428Y-125914838D01*
X159401428Y-125914838D02*
X160258571Y-127914838D01*
X157782380Y-126581504D02*
X157782380Y-127914838D01*
X158258571Y-125819600D02*
X158734761Y-127248171D01*
X158734761Y-127248171D02*
X157496666Y-127248171D01*
X170163333Y-100514838D02*
X168830000Y-100514838D01*
X168830000Y-100514838D02*
X169687143Y-102514838D01*
X167210952Y-101181504D02*
X167210952Y-102514838D01*
X167687143Y-100419600D02*
X168163333Y-101848171D01*
X168163333Y-101848171D02*
X166925238Y-101848171D01*
X166258571Y-101943409D02*
X165306190Y-101943409D01*
X166449047Y-102514838D02*
X165782381Y-100514838D01*
X165782381Y-100514838D02*
X165115714Y-102514838D01*
X163306190Y-102324361D02*
X163401428Y-102419600D01*
X163401428Y-102419600D02*
X163687142Y-102514838D01*
X163687142Y-102514838D02*
X163877618Y-102514838D01*
X163877618Y-102514838D02*
X164163333Y-102419600D01*
X164163333Y-102419600D02*
X164353809Y-102229123D01*
X164353809Y-102229123D02*
X164449047Y-102038647D01*
X164449047Y-102038647D02*
X164544285Y-101657695D01*
X164544285Y-101657695D02*
X164544285Y-101371980D01*
X164544285Y-101371980D02*
X164449047Y-100991028D01*
X164449047Y-100991028D02*
X164353809Y-100800552D01*
X164353809Y-100800552D02*
X164163333Y-100610076D01*
X164163333Y-100610076D02*
X163877618Y-100514838D01*
X163877618Y-100514838D02*
X163687142Y-100514838D01*
X163687142Y-100514838D02*
X163401428Y-100610076D01*
X163401428Y-100610076D02*
X163306190Y-100705314D01*
X161401428Y-102514838D02*
X162544285Y-102514838D01*
X161972857Y-102514838D02*
X161972857Y-100514838D01*
X161972857Y-100514838D02*
X162163333Y-100800552D01*
X162163333Y-100800552D02*
X162353809Y-100991028D01*
X162353809Y-100991028D02*
X162544285Y-101086266D01*
X159496666Y-102514838D02*
X160639523Y-102514838D01*
X160068095Y-102514838D02*
X160068095Y-100514838D01*
X160068095Y-100514838D02*
X160258571Y-100800552D01*
X160258571Y-100800552D02*
X160449047Y-100991028D01*
X160449047Y-100991028D02*
X160639523Y-101086266D01*
X158734761Y-100705314D02*
X158639523Y-100610076D01*
X158639523Y-100610076D02*
X158449047Y-100514838D01*
X158449047Y-100514838D02*
X157972856Y-100514838D01*
X157972856Y-100514838D02*
X157782380Y-100610076D01*
X157782380Y-100610076D02*
X157687142Y-100705314D01*
X157687142Y-100705314D02*
X157591904Y-100895790D01*
X157591904Y-100895790D02*
X157591904Y-101086266D01*
X157591904Y-101086266D02*
X157687142Y-101371980D01*
X157687142Y-101371980D02*
X158829999Y-102514838D01*
X158829999Y-102514838D02*
X157591904Y-102514838D01*
X170353809Y-62414838D02*
X169020476Y-62414838D01*
X169020476Y-62414838D02*
X169877619Y-64414838D01*
X167401428Y-63081504D02*
X167401428Y-64414838D01*
X167877619Y-62319600D02*
X168353809Y-63748171D01*
X168353809Y-63748171D02*
X167115714Y-63748171D01*
X166353809Y-64414838D02*
X166353809Y-62414838D01*
X166353809Y-63367219D02*
X165210952Y-63367219D01*
X165210952Y-64414838D02*
X165210952Y-62414838D01*
X163115714Y-64224361D02*
X163210952Y-64319600D01*
X163210952Y-64319600D02*
X163496666Y-64414838D01*
X163496666Y-64414838D02*
X163687142Y-64414838D01*
X163687142Y-64414838D02*
X163972857Y-64319600D01*
X163972857Y-64319600D02*
X164163333Y-64129123D01*
X164163333Y-64129123D02*
X164258571Y-63938647D01*
X164258571Y-63938647D02*
X164353809Y-63557695D01*
X164353809Y-63557695D02*
X164353809Y-63271980D01*
X164353809Y-63271980D02*
X164258571Y-62891028D01*
X164258571Y-62891028D02*
X164163333Y-62700552D01*
X164163333Y-62700552D02*
X163972857Y-62510076D01*
X163972857Y-62510076D02*
X163687142Y-62414838D01*
X163687142Y-62414838D02*
X163496666Y-62414838D01*
X163496666Y-62414838D02*
X163210952Y-62510076D01*
X163210952Y-62510076D02*
X163115714Y-62605314D01*
X161210952Y-64414838D02*
X162353809Y-64414838D01*
X161782381Y-64414838D02*
X161782381Y-62414838D01*
X161782381Y-62414838D02*
X161972857Y-62700552D01*
X161972857Y-62700552D02*
X162163333Y-62891028D01*
X162163333Y-62891028D02*
X162353809Y-62986266D01*
X160544285Y-62414838D02*
X159306190Y-62414838D01*
X159306190Y-62414838D02*
X159972857Y-63176742D01*
X159972857Y-63176742D02*
X159687142Y-63176742D01*
X159687142Y-63176742D02*
X159496666Y-63271980D01*
X159496666Y-63271980D02*
X159401428Y-63367219D01*
X159401428Y-63367219D02*
X159306190Y-63557695D01*
X159306190Y-63557695D02*
X159306190Y-64033885D01*
X159306190Y-64033885D02*
X159401428Y-64224361D01*
X159401428Y-64224361D02*
X159496666Y-64319600D01*
X159496666Y-64319600D02*
X159687142Y-64414838D01*
X159687142Y-64414838D02*
X160258571Y-64414838D01*
X160258571Y-64414838D02*
X160449047Y-64319600D01*
X160449047Y-64319600D02*
X160544285Y-64224361D01*
X158163333Y-63271980D02*
X158353809Y-63176742D01*
X158353809Y-63176742D02*
X158449047Y-63081504D01*
X158449047Y-63081504D02*
X158544285Y-62891028D01*
X158544285Y-62891028D02*
X158544285Y-62795790D01*
X158544285Y-62795790D02*
X158449047Y-62605314D01*
X158449047Y-62605314D02*
X158353809Y-62510076D01*
X158353809Y-62510076D02*
X158163333Y-62414838D01*
X158163333Y-62414838D02*
X157782380Y-62414838D01*
X157782380Y-62414838D02*
X157591904Y-62510076D01*
X157591904Y-62510076D02*
X157496666Y-62605314D01*
X157496666Y-62605314D02*
X157401428Y-62795790D01*
X157401428Y-62795790D02*
X157401428Y-62891028D01*
X157401428Y-62891028D02*
X157496666Y-63081504D01*
X157496666Y-63081504D02*
X157591904Y-63176742D01*
X157591904Y-63176742D02*
X157782380Y-63271980D01*
X157782380Y-63271980D02*
X158163333Y-63271980D01*
X158163333Y-63271980D02*
X158353809Y-63367219D01*
X158353809Y-63367219D02*
X158449047Y-63462457D01*
X158449047Y-63462457D02*
X158544285Y-63652933D01*
X158544285Y-63652933D02*
X158544285Y-64033885D01*
X158544285Y-64033885D02*
X158449047Y-64224361D01*
X158449047Y-64224361D02*
X158353809Y-64319600D01*
X158353809Y-64319600D02*
X158163333Y-64414838D01*
X158163333Y-64414838D02*
X157782380Y-64414838D01*
X157782380Y-64414838D02*
X157591904Y-64319600D01*
X157591904Y-64319600D02*
X157496666Y-64224361D01*
X157496666Y-64224361D02*
X157401428Y-64033885D01*
X157401428Y-64033885D02*
X157401428Y-63652933D01*
X157401428Y-63652933D02*
X157496666Y-63462457D01*
X157496666Y-63462457D02*
X157591904Y-63367219D01*
X157591904Y-63367219D02*
X157782380Y-63271980D01*
D10*
X182895713Y-72860819D02*
X182276666Y-72860819D01*
X182276666Y-72860819D02*
X182609999Y-73241771D01*
X182609999Y-73241771D02*
X182467142Y-73241771D01*
X182467142Y-73241771D02*
X182371904Y-73289390D01*
X182371904Y-73289390D02*
X182324285Y-73337009D01*
X182324285Y-73337009D02*
X182276666Y-73432247D01*
X182276666Y-73432247D02*
X182276666Y-73670342D01*
X182276666Y-73670342D02*
X182324285Y-73765580D01*
X182324285Y-73765580D02*
X182371904Y-73813200D01*
X182371904Y-73813200D02*
X182467142Y-73860819D01*
X182467142Y-73860819D02*
X182752856Y-73860819D01*
X182752856Y-73860819D02*
X182848094Y-73813200D01*
X182848094Y-73813200D02*
X182895713Y-73765580D01*
X181943332Y-72860819D02*
X181324285Y-72860819D01*
X181324285Y-72860819D02*
X181657618Y-73241771D01*
X181657618Y-73241771D02*
X181514761Y-73241771D01*
X181514761Y-73241771D02*
X181419523Y-73289390D01*
X181419523Y-73289390D02*
X181371904Y-73337009D01*
X181371904Y-73337009D02*
X181324285Y-73432247D01*
X181324285Y-73432247D02*
X181324285Y-73670342D01*
X181324285Y-73670342D02*
X181371904Y-73765580D01*
X181371904Y-73765580D02*
X181419523Y-73813200D01*
X181419523Y-73813200D02*
X181514761Y-73860819D01*
X181514761Y-73860819D02*
X181800475Y-73860819D01*
X181800475Y-73860819D02*
X181895713Y-73813200D01*
X181895713Y-73813200D02*
X181943332Y-73765580D01*
X180705237Y-72860819D02*
X180609999Y-72860819D01*
X180609999Y-72860819D02*
X180514761Y-72908438D01*
X180514761Y-72908438D02*
X180467142Y-72956057D01*
X180467142Y-72956057D02*
X180419523Y-73051295D01*
X180419523Y-73051295D02*
X180371904Y-73241771D01*
X180371904Y-73241771D02*
X180371904Y-73479866D01*
X180371904Y-73479866D02*
X180419523Y-73670342D01*
X180419523Y-73670342D02*
X180467142Y-73765580D01*
X180467142Y-73765580D02*
X180514761Y-73813200D01*
X180514761Y-73813200D02*
X180609999Y-73860819D01*
X180609999Y-73860819D02*
X180705237Y-73860819D01*
X180705237Y-73860819D02*
X180800475Y-73813200D01*
X180800475Y-73813200D02*
X180848094Y-73765580D01*
X180848094Y-73765580D02*
X180895713Y-73670342D01*
X180895713Y-73670342D02*
X180943332Y-73479866D01*
X180943332Y-73479866D02*
X180943332Y-73241771D01*
X180943332Y-73241771D02*
X180895713Y-73051295D01*
X180895713Y-73051295D02*
X180848094Y-72956057D01*
X180848094Y-72956057D02*
X180800475Y-72908438D01*
X180800475Y-72908438D02*
X180705237Y-72860819D01*
X182498904Y-130312438D02*
X182594142Y-130264819D01*
X182594142Y-130264819D02*
X182736999Y-130264819D01*
X182736999Y-130264819D02*
X182879856Y-130312438D01*
X182879856Y-130312438D02*
X182975094Y-130407676D01*
X182975094Y-130407676D02*
X183022713Y-130502914D01*
X183022713Y-130502914D02*
X183070332Y-130693390D01*
X183070332Y-130693390D02*
X183070332Y-130836247D01*
X183070332Y-130836247D02*
X183022713Y-131026723D01*
X183022713Y-131026723D02*
X182975094Y-131121961D01*
X182975094Y-131121961D02*
X182879856Y-131217200D01*
X182879856Y-131217200D02*
X182736999Y-131264819D01*
X182736999Y-131264819D02*
X182641761Y-131264819D01*
X182641761Y-131264819D02*
X182498904Y-131217200D01*
X182498904Y-131217200D02*
X182451285Y-131169580D01*
X182451285Y-131169580D02*
X182451285Y-130836247D01*
X182451285Y-130836247D02*
X182641761Y-130836247D01*
X182022713Y-131264819D02*
X182022713Y-130264819D01*
X182022713Y-130264819D02*
X181451285Y-131264819D01*
X181451285Y-131264819D02*
X181451285Y-130264819D01*
X180975094Y-131264819D02*
X180975094Y-130264819D01*
X180975094Y-130264819D02*
X180736999Y-130264819D01*
X180736999Y-130264819D02*
X180594142Y-130312438D01*
X180594142Y-130312438D02*
X180498904Y-130407676D01*
X180498904Y-130407676D02*
X180451285Y-130502914D01*
X180451285Y-130502914D02*
X180403666Y-130693390D01*
X180403666Y-130693390D02*
X180403666Y-130836247D01*
X180403666Y-130836247D02*
X180451285Y-131026723D01*
X180451285Y-131026723D02*
X180498904Y-131121961D01*
X180498904Y-131121961D02*
X180594142Y-131217200D01*
X180594142Y-131217200D02*
X180736999Y-131264819D01*
X180736999Y-131264819D02*
X180975094Y-131264819D01*
D11*
X96650714Y-66254314D02*
X96436428Y-66325742D01*
X96436428Y-66325742D02*
X96364999Y-66397171D01*
X96364999Y-66397171D02*
X96293571Y-66540028D01*
X96293571Y-66540028D02*
X96293571Y-66754314D01*
X96293571Y-66754314D02*
X96364999Y-66897171D01*
X96364999Y-66897171D02*
X96436428Y-66968600D01*
X96436428Y-66968600D02*
X96579285Y-67040028D01*
X96579285Y-67040028D02*
X97150714Y-67040028D01*
X97150714Y-67040028D02*
X97150714Y-65540028D01*
X97150714Y-65540028D02*
X96650714Y-65540028D01*
X96650714Y-65540028D02*
X96507857Y-65611457D01*
X96507857Y-65611457D02*
X96436428Y-65682885D01*
X96436428Y-65682885D02*
X96364999Y-65825742D01*
X96364999Y-65825742D02*
X96364999Y-65968600D01*
X96364999Y-65968600D02*
X96436428Y-66111457D01*
X96436428Y-66111457D02*
X96507857Y-66182885D01*
X96507857Y-66182885D02*
X96650714Y-66254314D01*
X96650714Y-66254314D02*
X97150714Y-66254314D01*
X95364999Y-65540028D02*
X95079285Y-65540028D01*
X95079285Y-65540028D02*
X94936428Y-65611457D01*
X94936428Y-65611457D02*
X94793571Y-65754314D01*
X94793571Y-65754314D02*
X94722142Y-66040028D01*
X94722142Y-66040028D02*
X94722142Y-66540028D01*
X94722142Y-66540028D02*
X94793571Y-66825742D01*
X94793571Y-66825742D02*
X94936428Y-66968600D01*
X94936428Y-66968600D02*
X95079285Y-67040028D01*
X95079285Y-67040028D02*
X95364999Y-67040028D01*
X95364999Y-67040028D02*
X95507857Y-66968600D01*
X95507857Y-66968600D02*
X95650714Y-66825742D01*
X95650714Y-66825742D02*
X95722142Y-66540028D01*
X95722142Y-66540028D02*
X95722142Y-66040028D01*
X95722142Y-66040028D02*
X95650714Y-65754314D01*
X95650714Y-65754314D02*
X95507857Y-65611457D01*
X95507857Y-65611457D02*
X95364999Y-65540028D01*
X93793570Y-65540028D02*
X93507856Y-65540028D01*
X93507856Y-65540028D02*
X93364999Y-65611457D01*
X93364999Y-65611457D02*
X93222142Y-65754314D01*
X93222142Y-65754314D02*
X93150713Y-66040028D01*
X93150713Y-66040028D02*
X93150713Y-66540028D01*
X93150713Y-66540028D02*
X93222142Y-66825742D01*
X93222142Y-66825742D02*
X93364999Y-66968600D01*
X93364999Y-66968600D02*
X93507856Y-67040028D01*
X93507856Y-67040028D02*
X93793570Y-67040028D01*
X93793570Y-67040028D02*
X93936428Y-66968600D01*
X93936428Y-66968600D02*
X94079285Y-66825742D01*
X94079285Y-66825742D02*
X94150713Y-66540028D01*
X94150713Y-66540028D02*
X94150713Y-66040028D01*
X94150713Y-66040028D02*
X94079285Y-65754314D01*
X94079285Y-65754314D02*
X93936428Y-65611457D01*
X93936428Y-65611457D02*
X93793570Y-65540028D01*
X92722141Y-65540028D02*
X91864999Y-65540028D01*
X92293570Y-67040028D02*
X92293570Y-65540028D01*
X97329286Y-69455028D02*
X97329286Y-67955028D01*
X97329286Y-67955028D02*
X96829286Y-69026457D01*
X96829286Y-69026457D02*
X96329286Y-67955028D01*
X96329286Y-67955028D02*
X96329286Y-69455028D01*
X95329285Y-67955028D02*
X95043571Y-67955028D01*
X95043571Y-67955028D02*
X94900714Y-68026457D01*
X94900714Y-68026457D02*
X94757857Y-68169314D01*
X94757857Y-68169314D02*
X94686428Y-68455028D01*
X94686428Y-68455028D02*
X94686428Y-68955028D01*
X94686428Y-68955028D02*
X94757857Y-69240742D01*
X94757857Y-69240742D02*
X94900714Y-69383600D01*
X94900714Y-69383600D02*
X95043571Y-69455028D01*
X95043571Y-69455028D02*
X95329285Y-69455028D01*
X95329285Y-69455028D02*
X95472143Y-69383600D01*
X95472143Y-69383600D02*
X95615000Y-69240742D01*
X95615000Y-69240742D02*
X95686428Y-68955028D01*
X95686428Y-68955028D02*
X95686428Y-68455028D01*
X95686428Y-68455028D02*
X95615000Y-68169314D01*
X95615000Y-68169314D02*
X95472143Y-68026457D01*
X95472143Y-68026457D02*
X95329285Y-67955028D01*
X94043571Y-69455028D02*
X94043571Y-67955028D01*
X94043571Y-67955028D02*
X93686428Y-67955028D01*
X93686428Y-67955028D02*
X93472142Y-68026457D01*
X93472142Y-68026457D02*
X93329285Y-68169314D01*
X93329285Y-68169314D02*
X93257856Y-68312171D01*
X93257856Y-68312171D02*
X93186428Y-68597885D01*
X93186428Y-68597885D02*
X93186428Y-68812171D01*
X93186428Y-68812171D02*
X93257856Y-69097885D01*
X93257856Y-69097885D02*
X93329285Y-69240742D01*
X93329285Y-69240742D02*
X93472142Y-69383600D01*
X93472142Y-69383600D02*
X93686428Y-69455028D01*
X93686428Y-69455028D02*
X94043571Y-69455028D01*
X92543571Y-68669314D02*
X92043571Y-68669314D01*
X91829285Y-69455028D02*
X92543571Y-69455028D01*
X92543571Y-69455028D02*
X92543571Y-67955028D01*
X92543571Y-67955028D02*
X91829285Y-67955028D01*
X147875238Y-87814838D02*
X146541905Y-89814838D01*
X146541905Y-87814838D02*
X147875238Y-89814838D01*
X146065714Y-87814838D02*
X144922857Y-87814838D01*
X145494286Y-89814838D02*
X145494286Y-87814838D01*
X144351428Y-89243409D02*
X143399047Y-89243409D01*
X144541904Y-89814838D02*
X143875238Y-87814838D01*
X143875238Y-87814838D02*
X143208571Y-89814838D01*
X141589523Y-89814838D02*
X142541904Y-89814838D01*
X142541904Y-89814838D02*
X142541904Y-87814838D01*
X96793571Y-97520028D02*
X97293571Y-96805742D01*
X97650714Y-97520028D02*
X97650714Y-96020028D01*
X97650714Y-96020028D02*
X97079285Y-96020028D01*
X97079285Y-96020028D02*
X96936428Y-96091457D01*
X96936428Y-96091457D02*
X96864999Y-96162885D01*
X96864999Y-96162885D02*
X96793571Y-96305742D01*
X96793571Y-96305742D02*
X96793571Y-96520028D01*
X96793571Y-96520028D02*
X96864999Y-96662885D01*
X96864999Y-96662885D02*
X96936428Y-96734314D01*
X96936428Y-96734314D02*
X97079285Y-96805742D01*
X97079285Y-96805742D02*
X97650714Y-96805742D01*
X96150714Y-96734314D02*
X95650714Y-96734314D01*
X95436428Y-97520028D02*
X96150714Y-97520028D01*
X96150714Y-97520028D02*
X96150714Y-96020028D01*
X96150714Y-96020028D02*
X95436428Y-96020028D01*
X94864999Y-97448600D02*
X94650714Y-97520028D01*
X94650714Y-97520028D02*
X94293571Y-97520028D01*
X94293571Y-97520028D02*
X94150714Y-97448600D01*
X94150714Y-97448600D02*
X94079285Y-97377171D01*
X94079285Y-97377171D02*
X94007856Y-97234314D01*
X94007856Y-97234314D02*
X94007856Y-97091457D01*
X94007856Y-97091457D02*
X94079285Y-96948600D01*
X94079285Y-96948600D02*
X94150714Y-96877171D01*
X94150714Y-96877171D02*
X94293571Y-96805742D01*
X94293571Y-96805742D02*
X94579285Y-96734314D01*
X94579285Y-96734314D02*
X94722142Y-96662885D01*
X94722142Y-96662885D02*
X94793571Y-96591457D01*
X94793571Y-96591457D02*
X94864999Y-96448600D01*
X94864999Y-96448600D02*
X94864999Y-96305742D01*
X94864999Y-96305742D02*
X94793571Y-96162885D01*
X94793571Y-96162885D02*
X94722142Y-96091457D01*
X94722142Y-96091457D02*
X94579285Y-96020028D01*
X94579285Y-96020028D02*
X94222142Y-96020028D01*
X94222142Y-96020028D02*
X94007856Y-96091457D01*
X93365000Y-96734314D02*
X92865000Y-96734314D01*
X92650714Y-97520028D02*
X93365000Y-97520028D01*
X93365000Y-97520028D02*
X93365000Y-96020028D01*
X93365000Y-96020028D02*
X92650714Y-96020028D01*
X92222142Y-96020028D02*
X91365000Y-96020028D01*
X91793571Y-97520028D02*
X91793571Y-96020028D01*
X97614999Y-99149314D02*
X98114999Y-99149314D01*
X98114999Y-99935028D02*
X98114999Y-98435028D01*
X98114999Y-98435028D02*
X97400713Y-98435028D01*
X96900713Y-99506457D02*
X96186428Y-99506457D01*
X97043570Y-99935028D02*
X96543570Y-98435028D01*
X96543570Y-98435028D02*
X96043570Y-99935028D01*
X95614999Y-99863600D02*
X95400714Y-99935028D01*
X95400714Y-99935028D02*
X95043571Y-99935028D01*
X95043571Y-99935028D02*
X94900714Y-99863600D01*
X94900714Y-99863600D02*
X94829285Y-99792171D01*
X94829285Y-99792171D02*
X94757856Y-99649314D01*
X94757856Y-99649314D02*
X94757856Y-99506457D01*
X94757856Y-99506457D02*
X94829285Y-99363600D01*
X94829285Y-99363600D02*
X94900714Y-99292171D01*
X94900714Y-99292171D02*
X95043571Y-99220742D01*
X95043571Y-99220742D02*
X95329285Y-99149314D01*
X95329285Y-99149314D02*
X95472142Y-99077885D01*
X95472142Y-99077885D02*
X95543571Y-99006457D01*
X95543571Y-99006457D02*
X95614999Y-98863600D01*
X95614999Y-98863600D02*
X95614999Y-98720742D01*
X95614999Y-98720742D02*
X95543571Y-98577885D01*
X95543571Y-98577885D02*
X95472142Y-98506457D01*
X95472142Y-98506457D02*
X95329285Y-98435028D01*
X95329285Y-98435028D02*
X94972142Y-98435028D01*
X94972142Y-98435028D02*
X94757856Y-98506457D01*
X94329285Y-98435028D02*
X93472143Y-98435028D01*
X93900714Y-99935028D02*
X93900714Y-98435028D01*
X91543571Y-98435028D02*
X91400714Y-98435028D01*
X91400714Y-98435028D02*
X91257857Y-98506457D01*
X91257857Y-98506457D02*
X91186429Y-98577885D01*
X91186429Y-98577885D02*
X91115000Y-98720742D01*
X91115000Y-98720742D02*
X91043571Y-99006457D01*
X91043571Y-99006457D02*
X91043571Y-99363600D01*
X91043571Y-99363600D02*
X91115000Y-99649314D01*
X91115000Y-99649314D02*
X91186429Y-99792171D01*
X91186429Y-99792171D02*
X91257857Y-99863600D01*
X91257857Y-99863600D02*
X91400714Y-99935028D01*
X91400714Y-99935028D02*
X91543571Y-99935028D01*
X91543571Y-99935028D02*
X91686429Y-99863600D01*
X91686429Y-99863600D02*
X91757857Y-99792171D01*
X91757857Y-99792171D02*
X91829286Y-99649314D01*
X91829286Y-99649314D02*
X91900714Y-99363600D01*
X91900714Y-99363600D02*
X91900714Y-99006457D01*
X91900714Y-99006457D02*
X91829286Y-98720742D01*
X91829286Y-98720742D02*
X91757857Y-98577885D01*
X91757857Y-98577885D02*
X91686429Y-98506457D01*
X91686429Y-98506457D02*
X91543571Y-98435028D01*
D10*
X103941381Y-55191819D02*
X104274714Y-54715628D01*
X104512809Y-55191819D02*
X104512809Y-54191819D01*
X104512809Y-54191819D02*
X104131857Y-54191819D01*
X104131857Y-54191819D02*
X104036619Y-54239438D01*
X104036619Y-54239438D02*
X103989000Y-54287057D01*
X103989000Y-54287057D02*
X103941381Y-54382295D01*
X103941381Y-54382295D02*
X103941381Y-54525152D01*
X103941381Y-54525152D02*
X103989000Y-54620390D01*
X103989000Y-54620390D02*
X104036619Y-54668009D01*
X104036619Y-54668009D02*
X104131857Y-54715628D01*
X104131857Y-54715628D02*
X104512809Y-54715628D01*
X103512809Y-54668009D02*
X103179476Y-54668009D01*
X103036619Y-55191819D02*
X103512809Y-55191819D01*
X103512809Y-55191819D02*
X103512809Y-54191819D01*
X103512809Y-54191819D02*
X103036619Y-54191819D01*
X102655666Y-55144200D02*
X102512809Y-55191819D01*
X102512809Y-55191819D02*
X102274714Y-55191819D01*
X102274714Y-55191819D02*
X102179476Y-55144200D01*
X102179476Y-55144200D02*
X102131857Y-55096580D01*
X102131857Y-55096580D02*
X102084238Y-55001342D01*
X102084238Y-55001342D02*
X102084238Y-54906104D01*
X102084238Y-54906104D02*
X102131857Y-54810866D01*
X102131857Y-54810866D02*
X102179476Y-54763247D01*
X102179476Y-54763247D02*
X102274714Y-54715628D01*
X102274714Y-54715628D02*
X102465190Y-54668009D01*
X102465190Y-54668009D02*
X102560428Y-54620390D01*
X102560428Y-54620390D02*
X102608047Y-54572771D01*
X102608047Y-54572771D02*
X102655666Y-54477533D01*
X102655666Y-54477533D02*
X102655666Y-54382295D01*
X102655666Y-54382295D02*
X102608047Y-54287057D01*
X102608047Y-54287057D02*
X102560428Y-54239438D01*
X102560428Y-54239438D02*
X102465190Y-54191819D01*
X102465190Y-54191819D02*
X102227095Y-54191819D01*
X102227095Y-54191819D02*
X102084238Y-54239438D01*
X101655666Y-54668009D02*
X101322333Y-54668009D01*
X101179476Y-55191819D02*
X101655666Y-55191819D01*
X101655666Y-55191819D02*
X101655666Y-54191819D01*
X101655666Y-54191819D02*
X101179476Y-54191819D01*
X100893761Y-54191819D02*
X100322333Y-54191819D01*
X100608047Y-55191819D02*
X100608047Y-54191819D01*
X124809047Y-55144200D02*
X124666190Y-55191819D01*
X124666190Y-55191819D02*
X124428095Y-55191819D01*
X124428095Y-55191819D02*
X124332857Y-55144200D01*
X124332857Y-55144200D02*
X124285238Y-55096580D01*
X124285238Y-55096580D02*
X124237619Y-55001342D01*
X124237619Y-55001342D02*
X124237619Y-54906104D01*
X124237619Y-54906104D02*
X124285238Y-54810866D01*
X124285238Y-54810866D02*
X124332857Y-54763247D01*
X124332857Y-54763247D02*
X124428095Y-54715628D01*
X124428095Y-54715628D02*
X124618571Y-54668009D01*
X124618571Y-54668009D02*
X124713809Y-54620390D01*
X124713809Y-54620390D02*
X124761428Y-54572771D01*
X124761428Y-54572771D02*
X124809047Y-54477533D01*
X124809047Y-54477533D02*
X124809047Y-54382295D01*
X124809047Y-54382295D02*
X124761428Y-54287057D01*
X124761428Y-54287057D02*
X124713809Y-54239438D01*
X124713809Y-54239438D02*
X124618571Y-54191819D01*
X124618571Y-54191819D02*
X124380476Y-54191819D01*
X124380476Y-54191819D02*
X124237619Y-54239438D01*
X123951904Y-54191819D02*
X123380476Y-54191819D01*
X123666190Y-55191819D02*
X123666190Y-54191819D01*
X123047142Y-54668009D02*
X122713809Y-54668009D01*
X122570952Y-55191819D02*
X123047142Y-55191819D01*
X123047142Y-55191819D02*
X123047142Y-54191819D01*
X123047142Y-54191819D02*
X122570952Y-54191819D01*
X122142380Y-55191819D02*
X122142380Y-54191819D01*
X122142380Y-54191819D02*
X121761428Y-54191819D01*
X121761428Y-54191819D02*
X121666190Y-54239438D01*
X121666190Y-54239438D02*
X121618571Y-54287057D01*
X121618571Y-54287057D02*
X121570952Y-54382295D01*
X121570952Y-54382295D02*
X121570952Y-54525152D01*
X121570952Y-54525152D02*
X121618571Y-54620390D01*
X121618571Y-54620390D02*
X121666190Y-54668009D01*
X121666190Y-54668009D02*
X121761428Y-54715628D01*
X121761428Y-54715628D02*
X122142380Y-54715628D01*
X182300476Y-105864819D02*
X182871904Y-105864819D01*
X182586190Y-105864819D02*
X182586190Y-104864819D01*
X182586190Y-104864819D02*
X182681428Y-105007676D01*
X182681428Y-105007676D02*
X182776666Y-105102914D01*
X182776666Y-105102914D02*
X182871904Y-105150533D01*
X181681428Y-104864819D02*
X181586190Y-104864819D01*
X181586190Y-104864819D02*
X181490952Y-104912438D01*
X181490952Y-104912438D02*
X181443333Y-104960057D01*
X181443333Y-104960057D02*
X181395714Y-105055295D01*
X181395714Y-105055295D02*
X181348095Y-105245771D01*
X181348095Y-105245771D02*
X181348095Y-105483866D01*
X181348095Y-105483866D02*
X181395714Y-105674342D01*
X181395714Y-105674342D02*
X181443333Y-105769580D01*
X181443333Y-105769580D02*
X181490952Y-105817200D01*
X181490952Y-105817200D02*
X181586190Y-105864819D01*
X181586190Y-105864819D02*
X181681428Y-105864819D01*
X181681428Y-105864819D02*
X181776666Y-105817200D01*
X181776666Y-105817200D02*
X181824285Y-105769580D01*
X181824285Y-105769580D02*
X181871904Y-105674342D01*
X181871904Y-105674342D02*
X181919523Y-105483866D01*
X181919523Y-105483866D02*
X181919523Y-105245771D01*
X181919523Y-105245771D02*
X181871904Y-105055295D01*
X181871904Y-105055295D02*
X181824285Y-104960057D01*
X181824285Y-104960057D02*
X181776666Y-104912438D01*
X181776666Y-104912438D02*
X181681428Y-104864819D01*
X180919523Y-105864819D02*
X180919523Y-104864819D01*
X180348095Y-105864819D02*
X180776666Y-105293390D01*
X180348095Y-104864819D02*
X180919523Y-105436247D01*
D11*
X170353809Y-113214838D02*
X169020476Y-113214838D01*
X169020476Y-113214838D02*
X169877619Y-115214838D01*
X167401428Y-113881504D02*
X167401428Y-115214838D01*
X167877619Y-113119600D02*
X168353809Y-114548171D01*
X168353809Y-114548171D02*
X167115714Y-114548171D01*
X166353809Y-115214838D02*
X166353809Y-113214838D01*
X166353809Y-114167219D02*
X165210952Y-114167219D01*
X165210952Y-115214838D02*
X165210952Y-113214838D01*
X163115714Y-115024361D02*
X163210952Y-115119600D01*
X163210952Y-115119600D02*
X163496666Y-115214838D01*
X163496666Y-115214838D02*
X163687142Y-115214838D01*
X163687142Y-115214838D02*
X163972857Y-115119600D01*
X163972857Y-115119600D02*
X164163333Y-114929123D01*
X164163333Y-114929123D02*
X164258571Y-114738647D01*
X164258571Y-114738647D02*
X164353809Y-114357695D01*
X164353809Y-114357695D02*
X164353809Y-114071980D01*
X164353809Y-114071980D02*
X164258571Y-113691028D01*
X164258571Y-113691028D02*
X164163333Y-113500552D01*
X164163333Y-113500552D02*
X163972857Y-113310076D01*
X163972857Y-113310076D02*
X163687142Y-113214838D01*
X163687142Y-113214838D02*
X163496666Y-113214838D01*
X163496666Y-113214838D02*
X163210952Y-113310076D01*
X163210952Y-113310076D02*
X163115714Y-113405314D01*
X162353809Y-113405314D02*
X162258571Y-113310076D01*
X162258571Y-113310076D02*
X162068095Y-113214838D01*
X162068095Y-113214838D02*
X161591904Y-113214838D01*
X161591904Y-113214838D02*
X161401428Y-113310076D01*
X161401428Y-113310076D02*
X161306190Y-113405314D01*
X161306190Y-113405314D02*
X161210952Y-113595790D01*
X161210952Y-113595790D02*
X161210952Y-113786266D01*
X161210952Y-113786266D02*
X161306190Y-114071980D01*
X161306190Y-114071980D02*
X162449047Y-115214838D01*
X162449047Y-115214838D02*
X161210952Y-115214838D01*
X159401428Y-113214838D02*
X160353809Y-113214838D01*
X160353809Y-113214838D02*
X160449047Y-114167219D01*
X160449047Y-114167219D02*
X160353809Y-114071980D01*
X160353809Y-114071980D02*
X160163333Y-113976742D01*
X160163333Y-113976742D02*
X159687142Y-113976742D01*
X159687142Y-113976742D02*
X159496666Y-114071980D01*
X159496666Y-114071980D02*
X159401428Y-114167219D01*
X159401428Y-114167219D02*
X159306190Y-114357695D01*
X159306190Y-114357695D02*
X159306190Y-114833885D01*
X159306190Y-114833885D02*
X159401428Y-115024361D01*
X159401428Y-115024361D02*
X159496666Y-115119600D01*
X159496666Y-115119600D02*
X159687142Y-115214838D01*
X159687142Y-115214838D02*
X160163333Y-115214838D01*
X160163333Y-115214838D02*
X160353809Y-115119600D01*
X160353809Y-115119600D02*
X160449047Y-115024361D01*
X157401428Y-115214838D02*
X158544285Y-115214838D01*
X157972857Y-115214838D02*
X157972857Y-113214838D01*
X157972857Y-113214838D02*
X158163333Y-113500552D01*
X158163333Y-113500552D02*
X158353809Y-113691028D01*
X158353809Y-113691028D02*
X158544285Y-113786266D01*
D10*
X182919523Y-62192819D02*
X182300476Y-62192819D01*
X182300476Y-62192819D02*
X182633809Y-62573771D01*
X182633809Y-62573771D02*
X182490952Y-62573771D01*
X182490952Y-62573771D02*
X182395714Y-62621390D01*
X182395714Y-62621390D02*
X182348095Y-62669009D01*
X182348095Y-62669009D02*
X182300476Y-62764247D01*
X182300476Y-62764247D02*
X182300476Y-63002342D01*
X182300476Y-63002342D02*
X182348095Y-63097580D01*
X182348095Y-63097580D02*
X182395714Y-63145200D01*
X182395714Y-63145200D02*
X182490952Y-63192819D01*
X182490952Y-63192819D02*
X182776666Y-63192819D01*
X182776666Y-63192819D02*
X182871904Y-63145200D01*
X182871904Y-63145200D02*
X182919523Y-63097580D01*
X181871904Y-63192819D02*
X181871904Y-62192819D01*
X181300476Y-63192819D02*
X181729047Y-62621390D01*
X181300476Y-62192819D02*
X181871904Y-62764247D01*
X180967142Y-62192819D02*
X180348095Y-62192819D01*
X180348095Y-62192819D02*
X180681428Y-62573771D01*
X180681428Y-62573771D02*
X180538571Y-62573771D01*
X180538571Y-62573771D02*
X180443333Y-62621390D01*
X180443333Y-62621390D02*
X180395714Y-62669009D01*
X180395714Y-62669009D02*
X180348095Y-62764247D01*
X180348095Y-62764247D02*
X180348095Y-63002342D01*
X180348095Y-63002342D02*
X180395714Y-63097580D01*
X180395714Y-63097580D02*
X180443333Y-63145200D01*
X180443333Y-63145200D02*
X180538571Y-63192819D01*
X180538571Y-63192819D02*
X180824285Y-63192819D01*
X180824285Y-63192819D02*
X180919523Y-63145200D01*
X180919523Y-63145200D02*
X180967142Y-63097580D01*
X183022713Y-113103866D02*
X182260809Y-113103866D01*
X182641761Y-113484819D02*
X182641761Y-112722914D01*
X181308428Y-112484819D02*
X181784618Y-112484819D01*
X181784618Y-112484819D02*
X181832237Y-112961009D01*
X181832237Y-112961009D02*
X181784618Y-112913390D01*
X181784618Y-112913390D02*
X181689380Y-112865771D01*
X181689380Y-112865771D02*
X181451285Y-112865771D01*
X181451285Y-112865771D02*
X181356047Y-112913390D01*
X181356047Y-112913390D02*
X181308428Y-112961009D01*
X181308428Y-112961009D02*
X181260809Y-113056247D01*
X181260809Y-113056247D02*
X181260809Y-113294342D01*
X181260809Y-113294342D02*
X181308428Y-113389580D01*
X181308428Y-113389580D02*
X181356047Y-113437200D01*
X181356047Y-113437200D02*
X181451285Y-113484819D01*
X181451285Y-113484819D02*
X181689380Y-113484819D01*
X181689380Y-113484819D02*
X181784618Y-113437200D01*
X181784618Y-113437200D02*
X181832237Y-113389580D01*
X180975094Y-112484819D02*
X180641761Y-113484819D01*
X180641761Y-113484819D02*
X180308428Y-112484819D01*
D11*
X96650714Y-81494314D02*
X96436428Y-81565742D01*
X96436428Y-81565742D02*
X96364999Y-81637171D01*
X96364999Y-81637171D02*
X96293571Y-81780028D01*
X96293571Y-81780028D02*
X96293571Y-81994314D01*
X96293571Y-81994314D02*
X96364999Y-82137171D01*
X96364999Y-82137171D02*
X96436428Y-82208600D01*
X96436428Y-82208600D02*
X96579285Y-82280028D01*
X96579285Y-82280028D02*
X97150714Y-82280028D01*
X97150714Y-82280028D02*
X97150714Y-80780028D01*
X97150714Y-80780028D02*
X96650714Y-80780028D01*
X96650714Y-80780028D02*
X96507857Y-80851457D01*
X96507857Y-80851457D02*
X96436428Y-80922885D01*
X96436428Y-80922885D02*
X96364999Y-81065742D01*
X96364999Y-81065742D02*
X96364999Y-81208600D01*
X96364999Y-81208600D02*
X96436428Y-81351457D01*
X96436428Y-81351457D02*
X96507857Y-81422885D01*
X96507857Y-81422885D02*
X96650714Y-81494314D01*
X96650714Y-81494314D02*
X97150714Y-81494314D01*
X95364999Y-80780028D02*
X95079285Y-80780028D01*
X95079285Y-80780028D02*
X94936428Y-80851457D01*
X94936428Y-80851457D02*
X94793571Y-80994314D01*
X94793571Y-80994314D02*
X94722142Y-81280028D01*
X94722142Y-81280028D02*
X94722142Y-81780028D01*
X94722142Y-81780028D02*
X94793571Y-82065742D01*
X94793571Y-82065742D02*
X94936428Y-82208600D01*
X94936428Y-82208600D02*
X95079285Y-82280028D01*
X95079285Y-82280028D02*
X95364999Y-82280028D01*
X95364999Y-82280028D02*
X95507857Y-82208600D01*
X95507857Y-82208600D02*
X95650714Y-82065742D01*
X95650714Y-82065742D02*
X95722142Y-81780028D01*
X95722142Y-81780028D02*
X95722142Y-81280028D01*
X95722142Y-81280028D02*
X95650714Y-80994314D01*
X95650714Y-80994314D02*
X95507857Y-80851457D01*
X95507857Y-80851457D02*
X95364999Y-80780028D01*
X93793570Y-80780028D02*
X93507856Y-80780028D01*
X93507856Y-80780028D02*
X93364999Y-80851457D01*
X93364999Y-80851457D02*
X93222142Y-80994314D01*
X93222142Y-80994314D02*
X93150713Y-81280028D01*
X93150713Y-81280028D02*
X93150713Y-81780028D01*
X93150713Y-81780028D02*
X93222142Y-82065742D01*
X93222142Y-82065742D02*
X93364999Y-82208600D01*
X93364999Y-82208600D02*
X93507856Y-82280028D01*
X93507856Y-82280028D02*
X93793570Y-82280028D01*
X93793570Y-82280028D02*
X93936428Y-82208600D01*
X93936428Y-82208600D02*
X94079285Y-82065742D01*
X94079285Y-82065742D02*
X94150713Y-81780028D01*
X94150713Y-81780028D02*
X94150713Y-81280028D01*
X94150713Y-81280028D02*
X94079285Y-80994314D01*
X94079285Y-80994314D02*
X93936428Y-80851457D01*
X93936428Y-80851457D02*
X93793570Y-80780028D01*
X92722141Y-80780028D02*
X91864999Y-80780028D01*
X92293570Y-82280028D02*
X92293570Y-80780028D01*
X97900713Y-84623600D02*
X97686428Y-84695028D01*
X97686428Y-84695028D02*
X97329285Y-84695028D01*
X97329285Y-84695028D02*
X97186428Y-84623600D01*
X97186428Y-84623600D02*
X97114999Y-84552171D01*
X97114999Y-84552171D02*
X97043570Y-84409314D01*
X97043570Y-84409314D02*
X97043570Y-84266457D01*
X97043570Y-84266457D02*
X97114999Y-84123600D01*
X97114999Y-84123600D02*
X97186428Y-84052171D01*
X97186428Y-84052171D02*
X97329285Y-83980742D01*
X97329285Y-83980742D02*
X97614999Y-83909314D01*
X97614999Y-83909314D02*
X97757856Y-83837885D01*
X97757856Y-83837885D02*
X97829285Y-83766457D01*
X97829285Y-83766457D02*
X97900713Y-83623600D01*
X97900713Y-83623600D02*
X97900713Y-83480742D01*
X97900713Y-83480742D02*
X97829285Y-83337885D01*
X97829285Y-83337885D02*
X97757856Y-83266457D01*
X97757856Y-83266457D02*
X97614999Y-83195028D01*
X97614999Y-83195028D02*
X97257856Y-83195028D01*
X97257856Y-83195028D02*
X97043570Y-83266457D01*
X96400714Y-84695028D02*
X96400714Y-83195028D01*
X96400714Y-83195028D02*
X95829285Y-83195028D01*
X95829285Y-83195028D02*
X95686428Y-83266457D01*
X95686428Y-83266457D02*
X95614999Y-83337885D01*
X95614999Y-83337885D02*
X95543571Y-83480742D01*
X95543571Y-83480742D02*
X95543571Y-83695028D01*
X95543571Y-83695028D02*
X95614999Y-83837885D01*
X95614999Y-83837885D02*
X95686428Y-83909314D01*
X95686428Y-83909314D02*
X95829285Y-83980742D01*
X95829285Y-83980742D02*
X96400714Y-83980742D01*
X94900714Y-83909314D02*
X94400714Y-83909314D01*
X94186428Y-84695028D02*
X94900714Y-84695028D01*
X94900714Y-84695028D02*
X94900714Y-83195028D01*
X94900714Y-83195028D02*
X94186428Y-83195028D01*
X93543571Y-83909314D02*
X93043571Y-83909314D01*
X92829285Y-84695028D02*
X93543571Y-84695028D01*
X93543571Y-84695028D02*
X93543571Y-83195028D01*
X93543571Y-83195028D02*
X92829285Y-83195028D01*
X92186428Y-84695028D02*
X92186428Y-83195028D01*
X92186428Y-83195028D02*
X91829285Y-83195028D01*
X91829285Y-83195028D02*
X91614999Y-83266457D01*
X91614999Y-83266457D02*
X91472142Y-83409314D01*
X91472142Y-83409314D02*
X91400713Y-83552171D01*
X91400713Y-83552171D02*
X91329285Y-83837885D01*
X91329285Y-83837885D02*
X91329285Y-84052171D01*
X91329285Y-84052171D02*
X91400713Y-84337885D01*
X91400713Y-84337885D02*
X91472142Y-84480742D01*
X91472142Y-84480742D02*
X91614999Y-84623600D01*
X91614999Y-84623600D02*
X91829285Y-84695028D01*
X91829285Y-84695028D02*
X92186428Y-84695028D01*
D10*
X143811048Y-135598819D02*
X143811048Y-136313104D01*
X143811048Y-136313104D02*
X143858667Y-136455961D01*
X143858667Y-136455961D02*
X143953905Y-136551200D01*
X143953905Y-136551200D02*
X144096762Y-136598819D01*
X144096762Y-136598819D02*
X144192000Y-136598819D01*
X142858667Y-136598819D02*
X143334857Y-136598819D01*
X143334857Y-136598819D02*
X143334857Y-135598819D01*
X141953905Y-136503580D02*
X142001524Y-136551200D01*
X142001524Y-136551200D02*
X142144381Y-136598819D01*
X142144381Y-136598819D02*
X142239619Y-136598819D01*
X142239619Y-136598819D02*
X142382476Y-136551200D01*
X142382476Y-136551200D02*
X142477714Y-136455961D01*
X142477714Y-136455961D02*
X142525333Y-136360723D01*
X142525333Y-136360723D02*
X142572952Y-136170247D01*
X142572952Y-136170247D02*
X142572952Y-136027390D01*
X142572952Y-136027390D02*
X142525333Y-135836914D01*
X142525333Y-135836914D02*
X142477714Y-135741676D01*
X142477714Y-135741676D02*
X142382476Y-135646438D01*
X142382476Y-135646438D02*
X142239619Y-135598819D01*
X142239619Y-135598819D02*
X142144381Y-135598819D01*
X142144381Y-135598819D02*
X142001524Y-135646438D01*
X142001524Y-135646438D02*
X141953905Y-135694057D01*
X141239619Y-135598819D02*
X141239619Y-136313104D01*
X141239619Y-136313104D02*
X141287238Y-136455961D01*
X141287238Y-136455961D02*
X141382476Y-136551200D01*
X141382476Y-136551200D02*
X141525333Y-136598819D01*
X141525333Y-136598819D02*
X141620571Y-136598819D01*
X140287238Y-136598819D02*
X140763428Y-136598819D01*
X140763428Y-136598819D02*
X140763428Y-135598819D01*
X139382476Y-136503580D02*
X139430095Y-136551200D01*
X139430095Y-136551200D02*
X139572952Y-136598819D01*
X139572952Y-136598819D02*
X139668190Y-136598819D01*
X139668190Y-136598819D02*
X139811047Y-136551200D01*
X139811047Y-136551200D02*
X139906285Y-136455961D01*
X139906285Y-136455961D02*
X139953904Y-136360723D01*
X139953904Y-136360723D02*
X140001523Y-136170247D01*
X140001523Y-136170247D02*
X140001523Y-136027390D01*
X140001523Y-136027390D02*
X139953904Y-135836914D01*
X139953904Y-135836914D02*
X139906285Y-135741676D01*
X139906285Y-135741676D02*
X139811047Y-135646438D01*
X139811047Y-135646438D02*
X139668190Y-135598819D01*
X139668190Y-135598819D02*
X139572952Y-135598819D01*
X139572952Y-135598819D02*
X139430095Y-135646438D01*
X139430095Y-135646438D02*
X139382476Y-135694057D01*
X138668190Y-135598819D02*
X138668190Y-136313104D01*
X138668190Y-136313104D02*
X138715809Y-136455961D01*
X138715809Y-136455961D02*
X138811047Y-136551200D01*
X138811047Y-136551200D02*
X138953904Y-136598819D01*
X138953904Y-136598819D02*
X139049142Y-136598819D01*
X137715809Y-136598819D02*
X138191999Y-136598819D01*
X138191999Y-136598819D02*
X138191999Y-135598819D01*
X136811047Y-136503580D02*
X136858666Y-136551200D01*
X136858666Y-136551200D02*
X137001523Y-136598819D01*
X137001523Y-136598819D02*
X137096761Y-136598819D01*
X137096761Y-136598819D02*
X137239618Y-136551200D01*
X137239618Y-136551200D02*
X137334856Y-136455961D01*
X137334856Y-136455961D02*
X137382475Y-136360723D01*
X137382475Y-136360723D02*
X137430094Y-136170247D01*
X137430094Y-136170247D02*
X137430094Y-136027390D01*
X137430094Y-136027390D02*
X137382475Y-135836914D01*
X137382475Y-135836914D02*
X137334856Y-135741676D01*
X137334856Y-135741676D02*
X137239618Y-135646438D01*
X137239618Y-135646438D02*
X137096761Y-135598819D01*
X137096761Y-135598819D02*
X137001523Y-135598819D01*
X137001523Y-135598819D02*
X136858666Y-135646438D01*
X136858666Y-135646438D02*
X136811047Y-135694057D01*
X136096761Y-135598819D02*
X136096761Y-136313104D01*
X136096761Y-136313104D02*
X136144380Y-136455961D01*
X136144380Y-136455961D02*
X136239618Y-136551200D01*
X136239618Y-136551200D02*
X136382475Y-136598819D01*
X136382475Y-136598819D02*
X136477713Y-136598819D01*
X135144380Y-136598819D02*
X135620570Y-136598819D01*
X135620570Y-136598819D02*
X135620570Y-135598819D01*
X134239618Y-136503580D02*
X134287237Y-136551200D01*
X134287237Y-136551200D02*
X134430094Y-136598819D01*
X134430094Y-136598819D02*
X134525332Y-136598819D01*
X134525332Y-136598819D02*
X134668189Y-136551200D01*
X134668189Y-136551200D02*
X134763427Y-136455961D01*
X134763427Y-136455961D02*
X134811046Y-136360723D01*
X134811046Y-136360723D02*
X134858665Y-136170247D01*
X134858665Y-136170247D02*
X134858665Y-136027390D01*
X134858665Y-136027390D02*
X134811046Y-135836914D01*
X134811046Y-135836914D02*
X134763427Y-135741676D01*
X134763427Y-135741676D02*
X134668189Y-135646438D01*
X134668189Y-135646438D02*
X134525332Y-135598819D01*
X134525332Y-135598819D02*
X134430094Y-135598819D01*
X134430094Y-135598819D02*
X134287237Y-135646438D01*
X134287237Y-135646438D02*
X134239618Y-135694057D01*
D11*
X146350952Y-62414838D02*
X145017619Y-62414838D01*
X145017619Y-62414838D02*
X145874762Y-64414838D01*
X143398571Y-63081504D02*
X143398571Y-64414838D01*
X143874762Y-62319600D02*
X144350952Y-63748171D01*
X144350952Y-63748171D02*
X143112857Y-63748171D01*
X142446190Y-63843409D02*
X141493809Y-63843409D01*
X142636666Y-64414838D02*
X141970000Y-62414838D01*
X141970000Y-62414838D02*
X141303333Y-64414838D01*
X139493809Y-64224361D02*
X139589047Y-64319600D01*
X139589047Y-64319600D02*
X139874761Y-64414838D01*
X139874761Y-64414838D02*
X140065237Y-64414838D01*
X140065237Y-64414838D02*
X140350952Y-64319600D01*
X140350952Y-64319600D02*
X140541428Y-64129123D01*
X140541428Y-64129123D02*
X140636666Y-63938647D01*
X140636666Y-63938647D02*
X140731904Y-63557695D01*
X140731904Y-63557695D02*
X140731904Y-63271980D01*
X140731904Y-63271980D02*
X140636666Y-62891028D01*
X140636666Y-62891028D02*
X140541428Y-62700552D01*
X140541428Y-62700552D02*
X140350952Y-62510076D01*
X140350952Y-62510076D02*
X140065237Y-62414838D01*
X140065237Y-62414838D02*
X139874761Y-62414838D01*
X139874761Y-62414838D02*
X139589047Y-62510076D01*
X139589047Y-62510076D02*
X139493809Y-62605314D01*
X138827142Y-62414838D02*
X137493809Y-62414838D01*
X137493809Y-62414838D02*
X138350952Y-64414838D01*
X135874761Y-63081504D02*
X135874761Y-64414838D01*
X136350952Y-62319600D02*
X136827142Y-63748171D01*
X136827142Y-63748171D02*
X135589047Y-63748171D01*
D10*
X182848094Y-83624057D02*
X182800475Y-83576438D01*
X182800475Y-83576438D02*
X182705237Y-83528819D01*
X182705237Y-83528819D02*
X182467142Y-83528819D01*
X182467142Y-83528819D02*
X182371904Y-83576438D01*
X182371904Y-83576438D02*
X182324285Y-83624057D01*
X182324285Y-83624057D02*
X182276666Y-83719295D01*
X182276666Y-83719295D02*
X182276666Y-83814533D01*
X182276666Y-83814533D02*
X182324285Y-83957390D01*
X182324285Y-83957390D02*
X182895713Y-84528819D01*
X182895713Y-84528819D02*
X182276666Y-84528819D01*
X181895713Y-83624057D02*
X181848094Y-83576438D01*
X181848094Y-83576438D02*
X181752856Y-83528819D01*
X181752856Y-83528819D02*
X181514761Y-83528819D01*
X181514761Y-83528819D02*
X181419523Y-83576438D01*
X181419523Y-83576438D02*
X181371904Y-83624057D01*
X181371904Y-83624057D02*
X181324285Y-83719295D01*
X181324285Y-83719295D02*
X181324285Y-83814533D01*
X181324285Y-83814533D02*
X181371904Y-83957390D01*
X181371904Y-83957390D02*
X181943332Y-84528819D01*
X181943332Y-84528819D02*
X181324285Y-84528819D01*
X180705237Y-83528819D02*
X180609999Y-83528819D01*
X180609999Y-83528819D02*
X180514761Y-83576438D01*
X180514761Y-83576438D02*
X180467142Y-83624057D01*
X180467142Y-83624057D02*
X180419523Y-83719295D01*
X180419523Y-83719295D02*
X180371904Y-83909771D01*
X180371904Y-83909771D02*
X180371904Y-84147866D01*
X180371904Y-84147866D02*
X180419523Y-84338342D01*
X180419523Y-84338342D02*
X180467142Y-84433580D01*
X180467142Y-84433580D02*
X180514761Y-84481200D01*
X180514761Y-84481200D02*
X180609999Y-84528819D01*
X180609999Y-84528819D02*
X180705237Y-84528819D01*
X180705237Y-84528819D02*
X180800475Y-84481200D01*
X180800475Y-84481200D02*
X180848094Y-84433580D01*
X180848094Y-84433580D02*
X180895713Y-84338342D01*
X180895713Y-84338342D02*
X180943332Y-84147866D01*
X180943332Y-84147866D02*
X180943332Y-83909771D01*
X180943332Y-83909771D02*
X180895713Y-83719295D01*
X180895713Y-83719295D02*
X180848094Y-83624057D01*
X180848094Y-83624057D02*
X180800475Y-83576438D01*
X180800475Y-83576438D02*
X180705237Y-83528819D01*
D11*
X146350952Y-125914838D02*
X145017619Y-125914838D01*
X145017619Y-125914838D02*
X145874762Y-127914838D01*
X143398571Y-126581504D02*
X143398571Y-127914838D01*
X143874762Y-125819600D02*
X144350952Y-127248171D01*
X144350952Y-127248171D02*
X143112857Y-127248171D01*
X142446190Y-127343409D02*
X141493809Y-127343409D01*
X142636666Y-127914838D02*
X141970000Y-125914838D01*
X141970000Y-125914838D02*
X141303333Y-127914838D01*
X139493809Y-127724361D02*
X139589047Y-127819600D01*
X139589047Y-127819600D02*
X139874761Y-127914838D01*
X139874761Y-127914838D02*
X140065237Y-127914838D01*
X140065237Y-127914838D02*
X140350952Y-127819600D01*
X140350952Y-127819600D02*
X140541428Y-127629123D01*
X140541428Y-127629123D02*
X140636666Y-127438647D01*
X140636666Y-127438647D02*
X140731904Y-127057695D01*
X140731904Y-127057695D02*
X140731904Y-126771980D01*
X140731904Y-126771980D02*
X140636666Y-126391028D01*
X140636666Y-126391028D02*
X140541428Y-126200552D01*
X140541428Y-126200552D02*
X140350952Y-126010076D01*
X140350952Y-126010076D02*
X140065237Y-125914838D01*
X140065237Y-125914838D02*
X139874761Y-125914838D01*
X139874761Y-125914838D02*
X139589047Y-126010076D01*
X139589047Y-126010076D02*
X139493809Y-126105314D01*
X137589047Y-127914838D02*
X138731904Y-127914838D01*
X138160476Y-127914838D02*
X138160476Y-125914838D01*
X138160476Y-125914838D02*
X138350952Y-126200552D01*
X138350952Y-126200552D02*
X138541428Y-126391028D01*
X138541428Y-126391028D02*
X138731904Y-126486266D01*
X135874761Y-126581504D02*
X135874761Y-127914838D01*
X136350952Y-125819600D02*
X136827142Y-127248171D01*
X136827142Y-127248171D02*
X135589047Y-127248171D01*
D10*
X102901476Y-126851580D02*
X102949095Y-126899200D01*
X102949095Y-126899200D02*
X103091952Y-126946819D01*
X103091952Y-126946819D02*
X103187190Y-126946819D01*
X103187190Y-126946819D02*
X103330047Y-126899200D01*
X103330047Y-126899200D02*
X103425285Y-126803961D01*
X103425285Y-126803961D02*
X103472904Y-126708723D01*
X103472904Y-126708723D02*
X103520523Y-126518247D01*
X103520523Y-126518247D02*
X103520523Y-126375390D01*
X103520523Y-126375390D02*
X103472904Y-126184914D01*
X103472904Y-126184914D02*
X103425285Y-126089676D01*
X103425285Y-126089676D02*
X103330047Y-125994438D01*
X103330047Y-125994438D02*
X103187190Y-125946819D01*
X103187190Y-125946819D02*
X103091952Y-125946819D01*
X103091952Y-125946819D02*
X102949095Y-125994438D01*
X102949095Y-125994438D02*
X102901476Y-126042057D01*
X101996714Y-126946819D02*
X102472904Y-126946819D01*
X102472904Y-126946819D02*
X102472904Y-125946819D01*
X101663380Y-126946819D02*
X101663380Y-125946819D01*
X101091952Y-126946819D02*
X101520523Y-126375390D01*
X101091952Y-125946819D02*
X101663380Y-126518247D01*
X100901476Y-127042057D02*
X100139571Y-127042057D01*
X99901475Y-126946819D02*
X99901475Y-125946819D01*
X99901475Y-125946819D02*
X99663380Y-125946819D01*
X99663380Y-125946819D02*
X99520523Y-125994438D01*
X99520523Y-125994438D02*
X99425285Y-126089676D01*
X99425285Y-126089676D02*
X99377666Y-126184914D01*
X99377666Y-126184914D02*
X99330047Y-126375390D01*
X99330047Y-126375390D02*
X99330047Y-126518247D01*
X99330047Y-126518247D02*
X99377666Y-126708723D01*
X99377666Y-126708723D02*
X99425285Y-126803961D01*
X99425285Y-126803961D02*
X99520523Y-126899200D01*
X99520523Y-126899200D02*
X99663380Y-126946819D01*
X99663380Y-126946819D02*
X99901475Y-126946819D01*
X98901475Y-126946819D02*
X98901475Y-125946819D01*
X98472904Y-126899200D02*
X98330047Y-126946819D01*
X98330047Y-126946819D02*
X98091952Y-126946819D01*
X98091952Y-126946819D02*
X97996714Y-126899200D01*
X97996714Y-126899200D02*
X97949095Y-126851580D01*
X97949095Y-126851580D02*
X97901476Y-126756342D01*
X97901476Y-126756342D02*
X97901476Y-126661104D01*
X97901476Y-126661104D02*
X97949095Y-126565866D01*
X97949095Y-126565866D02*
X97996714Y-126518247D01*
X97996714Y-126518247D02*
X98091952Y-126470628D01*
X98091952Y-126470628D02*
X98282428Y-126423009D01*
X98282428Y-126423009D02*
X98377666Y-126375390D01*
X98377666Y-126375390D02*
X98425285Y-126327771D01*
X98425285Y-126327771D02*
X98472904Y-126232533D01*
X98472904Y-126232533D02*
X98472904Y-126137295D01*
X98472904Y-126137295D02*
X98425285Y-126042057D01*
X98425285Y-126042057D02*
X98377666Y-125994438D01*
X98377666Y-125994438D02*
X98282428Y-125946819D01*
X98282428Y-125946819D02*
X98044333Y-125946819D01*
X98044333Y-125946819D02*
X97901476Y-125994438D01*
X103611000Y-125669200D02*
X97811000Y-125669200D01*
D11*
X124760952Y-113214838D02*
X123427619Y-113214838D01*
X123427619Y-113214838D02*
X124284762Y-115214838D01*
X121808571Y-113881504D02*
X121808571Y-115214838D01*
X122284762Y-113119600D02*
X122760952Y-114548171D01*
X122760952Y-114548171D02*
X121522857Y-114548171D01*
X120856190Y-114643409D02*
X119903809Y-114643409D01*
X121046666Y-115214838D02*
X120380000Y-113214838D01*
X120380000Y-113214838D02*
X119713333Y-115214838D01*
X117903809Y-115024361D02*
X117999047Y-115119600D01*
X117999047Y-115119600D02*
X118284761Y-115214838D01*
X118284761Y-115214838D02*
X118475237Y-115214838D01*
X118475237Y-115214838D02*
X118760952Y-115119600D01*
X118760952Y-115119600D02*
X118951428Y-114929123D01*
X118951428Y-114929123D02*
X119046666Y-114738647D01*
X119046666Y-114738647D02*
X119141904Y-114357695D01*
X119141904Y-114357695D02*
X119141904Y-114071980D01*
X119141904Y-114071980D02*
X119046666Y-113691028D01*
X119046666Y-113691028D02*
X118951428Y-113500552D01*
X118951428Y-113500552D02*
X118760952Y-113310076D01*
X118760952Y-113310076D02*
X118475237Y-113214838D01*
X118475237Y-113214838D02*
X118284761Y-113214838D01*
X118284761Y-113214838D02*
X117999047Y-113310076D01*
X117999047Y-113310076D02*
X117903809Y-113405314D01*
X117237142Y-113214838D02*
X115903809Y-113214838D01*
X115903809Y-113214838D02*
X116760952Y-115214838D01*
X114284761Y-113881504D02*
X114284761Y-115214838D01*
X114760952Y-113119600D02*
X115237142Y-114548171D01*
X115237142Y-114548171D02*
X113999047Y-114548171D01*
D10*
X95424523Y-109389057D02*
X95519761Y-109341438D01*
X95519761Y-109341438D02*
X95614999Y-109246200D01*
X95614999Y-109246200D02*
X95757856Y-109103342D01*
X95757856Y-109103342D02*
X95853094Y-109055723D01*
X95853094Y-109055723D02*
X95948332Y-109055723D01*
X95900713Y-109293819D02*
X95995951Y-109246200D01*
X95995951Y-109246200D02*
X96091189Y-109150961D01*
X96091189Y-109150961D02*
X96138808Y-108960485D01*
X96138808Y-108960485D02*
X96138808Y-108627152D01*
X96138808Y-108627152D02*
X96091189Y-108436676D01*
X96091189Y-108436676D02*
X95995951Y-108341438D01*
X95995951Y-108341438D02*
X95900713Y-108293819D01*
X95900713Y-108293819D02*
X95710237Y-108293819D01*
X95710237Y-108293819D02*
X95614999Y-108341438D01*
X95614999Y-108341438D02*
X95519761Y-108436676D01*
X95519761Y-108436676D02*
X95472142Y-108627152D01*
X95472142Y-108627152D02*
X95472142Y-108960485D01*
X95472142Y-108960485D02*
X95519761Y-109150961D01*
X95519761Y-109150961D02*
X95614999Y-109246200D01*
X95614999Y-109246200D02*
X95710237Y-109293819D01*
X95710237Y-109293819D02*
X95900713Y-109293819D01*
X94519761Y-109293819D02*
X95091189Y-109293819D01*
X94805475Y-109293819D02*
X94805475Y-108293819D01*
X94805475Y-108293819D02*
X94900713Y-108436676D01*
X94900713Y-108436676D02*
X94995951Y-108531914D01*
X94995951Y-108531914D02*
X95091189Y-108579533D01*
X94091189Y-109198580D02*
X94043570Y-109246200D01*
X94043570Y-109246200D02*
X94091189Y-109293819D01*
X94091189Y-109293819D02*
X94138808Y-109246200D01*
X94138808Y-109246200D02*
X94091189Y-109198580D01*
X94091189Y-109198580D02*
X94091189Y-109293819D01*
X94091189Y-108674771D02*
X94043570Y-108722390D01*
X94043570Y-108722390D02*
X94091189Y-108770009D01*
X94091189Y-108770009D02*
X94138808Y-108722390D01*
X94138808Y-108722390D02*
X94091189Y-108674771D01*
X94091189Y-108674771D02*
X94091189Y-108770009D01*
X93091190Y-109293819D02*
X93662618Y-109293819D01*
X93376904Y-109293819D02*
X93376904Y-108293819D01*
X93376904Y-108293819D02*
X93472142Y-108436676D01*
X93472142Y-108436676D02*
X93567380Y-108531914D01*
X93567380Y-108531914D02*
X93662618Y-108579533D01*
X182848094Y-97848057D02*
X182800475Y-97800438D01*
X182800475Y-97800438D02*
X182705237Y-97752819D01*
X182705237Y-97752819D02*
X182467142Y-97752819D01*
X182467142Y-97752819D02*
X182371904Y-97800438D01*
X182371904Y-97800438D02*
X182324285Y-97848057D01*
X182324285Y-97848057D02*
X182276666Y-97943295D01*
X182276666Y-97943295D02*
X182276666Y-98038533D01*
X182276666Y-98038533D02*
X182324285Y-98181390D01*
X182324285Y-98181390D02*
X182895713Y-98752819D01*
X182895713Y-98752819D02*
X182276666Y-98752819D01*
X181895713Y-97848057D02*
X181848094Y-97800438D01*
X181848094Y-97800438D02*
X181752856Y-97752819D01*
X181752856Y-97752819D02*
X181514761Y-97752819D01*
X181514761Y-97752819D02*
X181419523Y-97800438D01*
X181419523Y-97800438D02*
X181371904Y-97848057D01*
X181371904Y-97848057D02*
X181324285Y-97943295D01*
X181324285Y-97943295D02*
X181324285Y-98038533D01*
X181324285Y-98038533D02*
X181371904Y-98181390D01*
X181371904Y-98181390D02*
X181943332Y-98752819D01*
X181943332Y-98752819D02*
X181324285Y-98752819D01*
X180705237Y-97752819D02*
X180609999Y-97752819D01*
X180609999Y-97752819D02*
X180514761Y-97800438D01*
X180514761Y-97800438D02*
X180467142Y-97848057D01*
X180467142Y-97848057D02*
X180419523Y-97943295D01*
X180419523Y-97943295D02*
X180371904Y-98133771D01*
X180371904Y-98133771D02*
X180371904Y-98371866D01*
X180371904Y-98371866D02*
X180419523Y-98562342D01*
X180419523Y-98562342D02*
X180467142Y-98657580D01*
X180467142Y-98657580D02*
X180514761Y-98705200D01*
X180514761Y-98705200D02*
X180609999Y-98752819D01*
X180609999Y-98752819D02*
X180705237Y-98752819D01*
X180705237Y-98752819D02*
X180800475Y-98705200D01*
X180800475Y-98705200D02*
X180848094Y-98657580D01*
X180848094Y-98657580D02*
X180895713Y-98562342D01*
X180895713Y-98562342D02*
X180943332Y-98371866D01*
X180943332Y-98371866D02*
X180943332Y-98133771D01*
X180943332Y-98133771D02*
X180895713Y-97943295D01*
X180895713Y-97943295D02*
X180848094Y-97848057D01*
X180848094Y-97848057D02*
X180800475Y-97800438D01*
X180800475Y-97800438D02*
X180705237Y-97752819D01*
D11*
X146350952Y-100514838D02*
X145017619Y-100514838D01*
X145017619Y-100514838D02*
X145874762Y-102514838D01*
X143398571Y-101181504D02*
X143398571Y-102514838D01*
X143874762Y-100419600D02*
X144350952Y-101848171D01*
X144350952Y-101848171D02*
X143112857Y-101848171D01*
X142446190Y-101943409D02*
X141493809Y-101943409D01*
X142636666Y-102514838D02*
X141970000Y-100514838D01*
X141970000Y-100514838D02*
X141303333Y-102514838D01*
X139493809Y-102324361D02*
X139589047Y-102419600D01*
X139589047Y-102419600D02*
X139874761Y-102514838D01*
X139874761Y-102514838D02*
X140065237Y-102514838D01*
X140065237Y-102514838D02*
X140350952Y-102419600D01*
X140350952Y-102419600D02*
X140541428Y-102229123D01*
X140541428Y-102229123D02*
X140636666Y-102038647D01*
X140636666Y-102038647D02*
X140731904Y-101657695D01*
X140731904Y-101657695D02*
X140731904Y-101371980D01*
X140731904Y-101371980D02*
X140636666Y-100991028D01*
X140636666Y-100991028D02*
X140541428Y-100800552D01*
X140541428Y-100800552D02*
X140350952Y-100610076D01*
X140350952Y-100610076D02*
X140065237Y-100514838D01*
X140065237Y-100514838D02*
X139874761Y-100514838D01*
X139874761Y-100514838D02*
X139589047Y-100610076D01*
X139589047Y-100610076D02*
X139493809Y-100705314D01*
X138827142Y-100514838D02*
X137493809Y-100514838D01*
X137493809Y-100514838D02*
X138350952Y-102514838D01*
X135874761Y-101181504D02*
X135874761Y-102514838D01*
X136350952Y-100419600D02*
X136827142Y-101848171D01*
X136827142Y-101848171D02*
X135589047Y-101848171D01*
D10*
X182078238Y-126216580D02*
X182125857Y-126264200D01*
X182125857Y-126264200D02*
X182268714Y-126311819D01*
X182268714Y-126311819D02*
X182363952Y-126311819D01*
X182363952Y-126311819D02*
X182506809Y-126264200D01*
X182506809Y-126264200D02*
X182602047Y-126168961D01*
X182602047Y-126168961D02*
X182649666Y-126073723D01*
X182649666Y-126073723D02*
X182697285Y-125883247D01*
X182697285Y-125883247D02*
X182697285Y-125740390D01*
X182697285Y-125740390D02*
X182649666Y-125549914D01*
X182649666Y-125549914D02*
X182602047Y-125454676D01*
X182602047Y-125454676D02*
X182506809Y-125359438D01*
X182506809Y-125359438D02*
X182363952Y-125311819D01*
X182363952Y-125311819D02*
X182268714Y-125311819D01*
X182268714Y-125311819D02*
X182125857Y-125359438D01*
X182125857Y-125359438D02*
X182078238Y-125407057D01*
X181173476Y-126311819D02*
X181649666Y-126311819D01*
X181649666Y-126311819D02*
X181649666Y-125311819D01*
X180840142Y-126311819D02*
X180840142Y-125311819D01*
X180268714Y-126311819D02*
X180697285Y-125740390D01*
X180268714Y-125311819D02*
X180840142Y-125883247D01*
X182787762Y-125034200D02*
X180178238Y-125034200D01*
X169323180Y-49894999D02*
X169323180Y-50466427D01*
X169323180Y-50180713D02*
X170323180Y-50180713D01*
X170323180Y-50180713D02*
X170180323Y-50275951D01*
X170180323Y-50275951D02*
X170085085Y-50371189D01*
X170085085Y-50371189D02*
X170037466Y-50466427D01*
X169418419Y-49466427D02*
X169370800Y-49418808D01*
X169370800Y-49418808D02*
X169323180Y-49466427D01*
X169323180Y-49466427D02*
X169370800Y-49514046D01*
X169370800Y-49514046D02*
X169418419Y-49466427D01*
X169418419Y-49466427D02*
X169323180Y-49466427D01*
X169894609Y-48847380D02*
X169942228Y-48942618D01*
X169942228Y-48942618D02*
X169989847Y-48990237D01*
X169989847Y-48990237D02*
X170085085Y-49037856D01*
X170085085Y-49037856D02*
X170132704Y-49037856D01*
X170132704Y-49037856D02*
X170227942Y-48990237D01*
X170227942Y-48990237D02*
X170275561Y-48942618D01*
X170275561Y-48942618D02*
X170323180Y-48847380D01*
X170323180Y-48847380D02*
X170323180Y-48656904D01*
X170323180Y-48656904D02*
X170275561Y-48561666D01*
X170275561Y-48561666D02*
X170227942Y-48514047D01*
X170227942Y-48514047D02*
X170132704Y-48466428D01*
X170132704Y-48466428D02*
X170085085Y-48466428D01*
X170085085Y-48466428D02*
X169989847Y-48514047D01*
X169989847Y-48514047D02*
X169942228Y-48561666D01*
X169942228Y-48561666D02*
X169894609Y-48656904D01*
X169894609Y-48656904D02*
X169894609Y-48847380D01*
X169894609Y-48847380D02*
X169846990Y-48942618D01*
X169846990Y-48942618D02*
X169799371Y-48990237D01*
X169799371Y-48990237D02*
X169704133Y-49037856D01*
X169704133Y-49037856D02*
X169513657Y-49037856D01*
X169513657Y-49037856D02*
X169418419Y-48990237D01*
X169418419Y-48990237D02*
X169370800Y-48942618D01*
X169370800Y-48942618D02*
X169323180Y-48847380D01*
X169323180Y-48847380D02*
X169323180Y-48656904D01*
X169323180Y-48656904D02*
X169370800Y-48561666D01*
X169370800Y-48561666D02*
X169418419Y-48514047D01*
X169418419Y-48514047D02*
X169513657Y-48466428D01*
X169513657Y-48466428D02*
X169704133Y-48466428D01*
X169704133Y-48466428D02*
X169799371Y-48514047D01*
X169799371Y-48514047D02*
X169846990Y-48561666D01*
X169846990Y-48561666D02*
X169894609Y-48656904D01*
X169323180Y-48037856D02*
X170323180Y-48037856D01*
X170323180Y-48037856D02*
X169608895Y-47704523D01*
X169608895Y-47704523D02*
X170323180Y-47371190D01*
X170323180Y-47371190D02*
X169323180Y-47371190D01*
X175403180Y-50514046D02*
X175403180Y-49894999D01*
X175403180Y-49894999D02*
X175022228Y-50228332D01*
X175022228Y-50228332D02*
X175022228Y-50085475D01*
X175022228Y-50085475D02*
X174974609Y-49990237D01*
X174974609Y-49990237D02*
X174926990Y-49942618D01*
X174926990Y-49942618D02*
X174831752Y-49894999D01*
X174831752Y-49894999D02*
X174593657Y-49894999D01*
X174593657Y-49894999D02*
X174498419Y-49942618D01*
X174498419Y-49942618D02*
X174450800Y-49990237D01*
X174450800Y-49990237D02*
X174403180Y-50085475D01*
X174403180Y-50085475D02*
X174403180Y-50371189D01*
X174403180Y-50371189D02*
X174450800Y-50466427D01*
X174450800Y-50466427D02*
X174498419Y-50514046D01*
X174498419Y-49466427D02*
X174450800Y-49418808D01*
X174450800Y-49418808D02*
X174403180Y-49466427D01*
X174403180Y-49466427D02*
X174450800Y-49514046D01*
X174450800Y-49514046D02*
X174498419Y-49466427D01*
X174498419Y-49466427D02*
X174403180Y-49466427D01*
X175403180Y-48561666D02*
X175403180Y-48752142D01*
X175403180Y-48752142D02*
X175355561Y-48847380D01*
X175355561Y-48847380D02*
X175307942Y-48894999D01*
X175307942Y-48894999D02*
X175165085Y-48990237D01*
X175165085Y-48990237D02*
X174974609Y-49037856D01*
X174974609Y-49037856D02*
X174593657Y-49037856D01*
X174593657Y-49037856D02*
X174498419Y-48990237D01*
X174498419Y-48990237D02*
X174450800Y-48942618D01*
X174450800Y-48942618D02*
X174403180Y-48847380D01*
X174403180Y-48847380D02*
X174403180Y-48656904D01*
X174403180Y-48656904D02*
X174450800Y-48561666D01*
X174450800Y-48561666D02*
X174498419Y-48514047D01*
X174498419Y-48514047D02*
X174593657Y-48466428D01*
X174593657Y-48466428D02*
X174831752Y-48466428D01*
X174831752Y-48466428D02*
X174926990Y-48514047D01*
X174926990Y-48514047D02*
X174974609Y-48561666D01*
X174974609Y-48561666D02*
X175022228Y-48656904D01*
X175022228Y-48656904D02*
X175022228Y-48847380D01*
X175022228Y-48847380D02*
X174974609Y-48942618D01*
X174974609Y-48942618D02*
X174926990Y-48990237D01*
X174926990Y-48990237D02*
X174831752Y-49037856D01*
X174403180Y-48037856D02*
X175403180Y-48037856D01*
X175403180Y-48037856D02*
X174688895Y-47704523D01*
X174688895Y-47704523D02*
X175403180Y-47371190D01*
X175403180Y-47371190D02*
X174403180Y-47371190D01*
X96400713Y-87656200D02*
X96257856Y-87703819D01*
X96257856Y-87703819D02*
X96019761Y-87703819D01*
X96019761Y-87703819D02*
X95924523Y-87656200D01*
X95924523Y-87656200D02*
X95876904Y-87608580D01*
X95876904Y-87608580D02*
X95829285Y-87513342D01*
X95829285Y-87513342D02*
X95829285Y-87418104D01*
X95829285Y-87418104D02*
X95876904Y-87322866D01*
X95876904Y-87322866D02*
X95924523Y-87275247D01*
X95924523Y-87275247D02*
X96019761Y-87227628D01*
X96019761Y-87227628D02*
X96210237Y-87180009D01*
X96210237Y-87180009D02*
X96305475Y-87132390D01*
X96305475Y-87132390D02*
X96353094Y-87084771D01*
X96353094Y-87084771D02*
X96400713Y-86989533D01*
X96400713Y-86989533D02*
X96400713Y-86894295D01*
X96400713Y-86894295D02*
X96353094Y-86799057D01*
X96353094Y-86799057D02*
X96305475Y-86751438D01*
X96305475Y-86751438D02*
X96210237Y-86703819D01*
X96210237Y-86703819D02*
X95972142Y-86703819D01*
X95972142Y-86703819D02*
X95829285Y-86751438D01*
X94924523Y-87703819D02*
X95400713Y-87703819D01*
X95400713Y-87703819D02*
X95400713Y-86703819D01*
X94400713Y-86703819D02*
X94210237Y-86703819D01*
X94210237Y-86703819D02*
X94114999Y-86751438D01*
X94114999Y-86751438D02*
X94019761Y-86846676D01*
X94019761Y-86846676D02*
X93972142Y-87037152D01*
X93972142Y-87037152D02*
X93972142Y-87370485D01*
X93972142Y-87370485D02*
X94019761Y-87560961D01*
X94019761Y-87560961D02*
X94114999Y-87656200D01*
X94114999Y-87656200D02*
X94210237Y-87703819D01*
X94210237Y-87703819D02*
X94400713Y-87703819D01*
X94400713Y-87703819D02*
X94495951Y-87656200D01*
X94495951Y-87656200D02*
X94591189Y-87560961D01*
X94591189Y-87560961D02*
X94638808Y-87370485D01*
X94638808Y-87370485D02*
X94638808Y-87037152D01*
X94638808Y-87037152D02*
X94591189Y-86846676D01*
X94591189Y-86846676D02*
X94495951Y-86751438D01*
X94495951Y-86751438D02*
X94400713Y-86703819D01*
X93638808Y-86703819D02*
X93400713Y-87703819D01*
X93400713Y-87703819D02*
X93210237Y-86989533D01*
X93210237Y-86989533D02*
X93019761Y-87703819D01*
X93019761Y-87703819D02*
X92781666Y-86703819D01*
X182498904Y-127772438D02*
X182594142Y-127724819D01*
X182594142Y-127724819D02*
X182736999Y-127724819D01*
X182736999Y-127724819D02*
X182879856Y-127772438D01*
X182879856Y-127772438D02*
X182975094Y-127867676D01*
X182975094Y-127867676D02*
X183022713Y-127962914D01*
X183022713Y-127962914D02*
X183070332Y-128153390D01*
X183070332Y-128153390D02*
X183070332Y-128296247D01*
X183070332Y-128296247D02*
X183022713Y-128486723D01*
X183022713Y-128486723D02*
X182975094Y-128581961D01*
X182975094Y-128581961D02*
X182879856Y-128677200D01*
X182879856Y-128677200D02*
X182736999Y-128724819D01*
X182736999Y-128724819D02*
X182641761Y-128724819D01*
X182641761Y-128724819D02*
X182498904Y-128677200D01*
X182498904Y-128677200D02*
X182451285Y-128629580D01*
X182451285Y-128629580D02*
X182451285Y-128296247D01*
X182451285Y-128296247D02*
X182641761Y-128296247D01*
X182022713Y-128724819D02*
X182022713Y-127724819D01*
X182022713Y-127724819D02*
X181451285Y-128724819D01*
X181451285Y-128724819D02*
X181451285Y-127724819D01*
X180975094Y-128724819D02*
X180975094Y-127724819D01*
X180975094Y-127724819D02*
X180736999Y-127724819D01*
X180736999Y-127724819D02*
X180594142Y-127772438D01*
X180594142Y-127772438D02*
X180498904Y-127867676D01*
X180498904Y-127867676D02*
X180451285Y-127962914D01*
X180451285Y-127962914D02*
X180403666Y-128153390D01*
X180403666Y-128153390D02*
X180403666Y-128296247D01*
X180403666Y-128296247D02*
X180451285Y-128486723D01*
X180451285Y-128486723D02*
X180498904Y-128581961D01*
X180498904Y-128581961D02*
X180594142Y-128677200D01*
X180594142Y-128677200D02*
X180736999Y-128724819D01*
X180736999Y-128724819D02*
X180975094Y-128724819D01*
D11*
X124760952Y-62414838D02*
X123427619Y-62414838D01*
X123427619Y-62414838D02*
X124284762Y-64414838D01*
X121808571Y-63081504D02*
X121808571Y-64414838D01*
X122284762Y-62319600D02*
X122760952Y-63748171D01*
X122760952Y-63748171D02*
X121522857Y-63748171D01*
X120856190Y-63843409D02*
X119903809Y-63843409D01*
X121046666Y-64414838D02*
X120380000Y-62414838D01*
X120380000Y-62414838D02*
X119713333Y-64414838D01*
X117903809Y-64224361D02*
X117999047Y-64319600D01*
X117999047Y-64319600D02*
X118284761Y-64414838D01*
X118284761Y-64414838D02*
X118475237Y-64414838D01*
X118475237Y-64414838D02*
X118760952Y-64319600D01*
X118760952Y-64319600D02*
X118951428Y-64129123D01*
X118951428Y-64129123D02*
X119046666Y-63938647D01*
X119046666Y-63938647D02*
X119141904Y-63557695D01*
X119141904Y-63557695D02*
X119141904Y-63271980D01*
X119141904Y-63271980D02*
X119046666Y-62891028D01*
X119046666Y-62891028D02*
X118951428Y-62700552D01*
X118951428Y-62700552D02*
X118760952Y-62510076D01*
X118760952Y-62510076D02*
X118475237Y-62414838D01*
X118475237Y-62414838D02*
X118284761Y-62414838D01*
X118284761Y-62414838D02*
X117999047Y-62510076D01*
X117999047Y-62510076D02*
X117903809Y-62605314D01*
X117237142Y-62414838D02*
X115903809Y-62414838D01*
X115903809Y-62414838D02*
X116760952Y-64414838D01*
X114284761Y-63081504D02*
X114284761Y-64414838D01*
X114760952Y-62319600D02*
X115237142Y-63748171D01*
X115237142Y-63748171D02*
X113999047Y-63748171D01*
D10*
X99210237Y-72416200D02*
X99067380Y-72463819D01*
X99067380Y-72463819D02*
X98829285Y-72463819D01*
X98829285Y-72463819D02*
X98734047Y-72416200D01*
X98734047Y-72416200D02*
X98686428Y-72368580D01*
X98686428Y-72368580D02*
X98638809Y-72273342D01*
X98638809Y-72273342D02*
X98638809Y-72178104D01*
X98638809Y-72178104D02*
X98686428Y-72082866D01*
X98686428Y-72082866D02*
X98734047Y-72035247D01*
X98734047Y-72035247D02*
X98829285Y-71987628D01*
X98829285Y-71987628D02*
X99019761Y-71940009D01*
X99019761Y-71940009D02*
X99114999Y-71892390D01*
X99114999Y-71892390D02*
X99162618Y-71844771D01*
X99162618Y-71844771D02*
X99210237Y-71749533D01*
X99210237Y-71749533D02*
X99210237Y-71654295D01*
X99210237Y-71654295D02*
X99162618Y-71559057D01*
X99162618Y-71559057D02*
X99114999Y-71511438D01*
X99114999Y-71511438D02*
X99019761Y-71463819D01*
X99019761Y-71463819D02*
X98781666Y-71463819D01*
X98781666Y-71463819D02*
X98638809Y-71511438D01*
X98210237Y-72463819D02*
X98210237Y-71463819D01*
X97734047Y-72463819D02*
X97734047Y-71463819D01*
X97734047Y-71463819D02*
X97162619Y-72463819D01*
X97162619Y-72463819D02*
X97162619Y-71463819D01*
X96162619Y-71511438D02*
X96257857Y-71463819D01*
X96257857Y-71463819D02*
X96400714Y-71463819D01*
X96400714Y-71463819D02*
X96543571Y-71511438D01*
X96543571Y-71511438D02*
X96638809Y-71606676D01*
X96638809Y-71606676D02*
X96686428Y-71701914D01*
X96686428Y-71701914D02*
X96734047Y-71892390D01*
X96734047Y-71892390D02*
X96734047Y-72035247D01*
X96734047Y-72035247D02*
X96686428Y-72225723D01*
X96686428Y-72225723D02*
X96638809Y-72320961D01*
X96638809Y-72320961D02*
X96543571Y-72416200D01*
X96543571Y-72416200D02*
X96400714Y-72463819D01*
X96400714Y-72463819D02*
X96305476Y-72463819D01*
X96305476Y-72463819D02*
X96162619Y-72416200D01*
X96162619Y-72416200D02*
X96115000Y-72368580D01*
X96115000Y-72368580D02*
X96115000Y-72035247D01*
X96115000Y-72035247D02*
X96305476Y-72035247D01*
X95210238Y-72463819D02*
X95686428Y-72463819D01*
X95686428Y-72463819D02*
X95686428Y-71463819D01*
X94876904Y-71940009D02*
X94543571Y-71940009D01*
X94400714Y-72463819D02*
X94876904Y-72463819D01*
X94876904Y-72463819D02*
X94876904Y-71463819D01*
X94876904Y-71463819D02*
X94400714Y-71463819D01*
X93257856Y-72416200D02*
X93114999Y-72463819D01*
X93114999Y-72463819D02*
X92876904Y-72463819D01*
X92876904Y-72463819D02*
X92781666Y-72416200D01*
X92781666Y-72416200D02*
X92734047Y-72368580D01*
X92734047Y-72368580D02*
X92686428Y-72273342D01*
X92686428Y-72273342D02*
X92686428Y-72178104D01*
X92686428Y-72178104D02*
X92734047Y-72082866D01*
X92734047Y-72082866D02*
X92781666Y-72035247D01*
X92781666Y-72035247D02*
X92876904Y-71987628D01*
X92876904Y-71987628D02*
X93067380Y-71940009D01*
X93067380Y-71940009D02*
X93162618Y-71892390D01*
X93162618Y-71892390D02*
X93210237Y-71844771D01*
X93210237Y-71844771D02*
X93257856Y-71749533D01*
X93257856Y-71749533D02*
X93257856Y-71654295D01*
X93257856Y-71654295D02*
X93210237Y-71559057D01*
X93210237Y-71559057D02*
X93162618Y-71511438D01*
X93162618Y-71511438D02*
X93067380Y-71463819D01*
X93067380Y-71463819D02*
X92829285Y-71463819D01*
X92829285Y-71463819D02*
X92686428Y-71511438D01*
X92400713Y-71463819D02*
X91829285Y-71463819D01*
X92114999Y-72463819D02*
X92114999Y-71463819D01*
X91495951Y-71940009D02*
X91162618Y-71940009D01*
X91019761Y-72463819D02*
X91495951Y-72463819D01*
X91495951Y-72463819D02*
X91495951Y-71463819D01*
X91495951Y-71463819D02*
X91019761Y-71463819D01*
X90591189Y-72463819D02*
X90591189Y-71463819D01*
X90591189Y-71463819D02*
X90210237Y-71463819D01*
X90210237Y-71463819D02*
X90114999Y-71511438D01*
X90114999Y-71511438D02*
X90067380Y-71559057D01*
X90067380Y-71559057D02*
X90019761Y-71654295D01*
X90019761Y-71654295D02*
X90019761Y-71797152D01*
X90019761Y-71797152D02*
X90067380Y-71892390D01*
X90067380Y-71892390D02*
X90114999Y-71940009D01*
X90114999Y-71940009D02*
X90210237Y-71987628D01*
X90210237Y-71987628D02*
X90591189Y-71987628D01*
X164243180Y-50537856D02*
X164243180Y-50347380D01*
X164243180Y-50347380D02*
X164290800Y-50252142D01*
X164290800Y-50252142D02*
X164338419Y-50204523D01*
X164338419Y-50204523D02*
X164481276Y-50109285D01*
X164481276Y-50109285D02*
X164671752Y-50061666D01*
X164671752Y-50061666D02*
X165052704Y-50061666D01*
X165052704Y-50061666D02*
X165147942Y-50109285D01*
X165147942Y-50109285D02*
X165195561Y-50156904D01*
X165195561Y-50156904D02*
X165243180Y-50252142D01*
X165243180Y-50252142D02*
X165243180Y-50442618D01*
X165243180Y-50442618D02*
X165195561Y-50537856D01*
X165195561Y-50537856D02*
X165147942Y-50585475D01*
X165147942Y-50585475D02*
X165052704Y-50633094D01*
X165052704Y-50633094D02*
X164814609Y-50633094D01*
X164814609Y-50633094D02*
X164719371Y-50585475D01*
X164719371Y-50585475D02*
X164671752Y-50537856D01*
X164671752Y-50537856D02*
X164624133Y-50442618D01*
X164624133Y-50442618D02*
X164624133Y-50252142D01*
X164624133Y-50252142D02*
X164671752Y-50156904D01*
X164671752Y-50156904D02*
X164719371Y-50109285D01*
X164719371Y-50109285D02*
X164814609Y-50061666D01*
X165147942Y-49680713D02*
X165195561Y-49633094D01*
X165195561Y-49633094D02*
X165243180Y-49537856D01*
X165243180Y-49537856D02*
X165243180Y-49299761D01*
X165243180Y-49299761D02*
X165195561Y-49204523D01*
X165195561Y-49204523D02*
X165147942Y-49156904D01*
X165147942Y-49156904D02*
X165052704Y-49109285D01*
X165052704Y-49109285D02*
X164957466Y-49109285D01*
X164957466Y-49109285D02*
X164814609Y-49156904D01*
X164814609Y-49156904D02*
X164243180Y-49728332D01*
X164243180Y-49728332D02*
X164243180Y-49109285D01*
X164243180Y-48156904D02*
X164243180Y-48728332D01*
X164243180Y-48442618D02*
X165243180Y-48442618D01*
X165243180Y-48442618D02*
X165100323Y-48537856D01*
X165100323Y-48537856D02*
X165005085Y-48633094D01*
X165005085Y-48633094D02*
X164957466Y-48728332D01*
X164243180Y-47728332D02*
X165243180Y-47728332D01*
X164243180Y-47156904D02*
X164814609Y-47585475D01*
X165243180Y-47156904D02*
X164671752Y-47728332D01*
%LPC*%
D12*
X186690000Y-76962000D03*
D13*
X176530000Y-76962000D03*
D14*
X111755000Y-67300000D03*
D13*
X114295000Y-67300000D03*
X116835000Y-67300000D03*
X119375000Y-67300000D03*
X121915000Y-67300000D03*
X124455000Y-67300000D03*
X126995000Y-67300000D03*
X126995000Y-59680000D03*
X124455000Y-59680000D03*
X121915000Y-59680000D03*
X119375000Y-59680000D03*
X116835000Y-59680000D03*
X114295000Y-59680000D03*
X111755000Y-59680000D03*
D15*
X96266000Y-125069600D03*
D16*
X96266000Y-127609600D03*
D14*
X154930000Y-67300000D03*
D13*
X157470000Y-67300000D03*
X160010000Y-67300000D03*
X162550000Y-67300000D03*
X165090000Y-67300000D03*
X167630000Y-67300000D03*
X170170000Y-67300000D03*
X172710000Y-67300000D03*
X172710000Y-59680000D03*
X170170000Y-59680000D03*
X167630000Y-59680000D03*
X165090000Y-59680000D03*
X162550000Y-59680000D03*
X160010000Y-59680000D03*
X157470000Y-59680000D03*
X154930000Y-59680000D03*
D12*
X151892000Y-113050000D03*
X151892000Y-115550000D03*
X176530000Y-98298000D03*
D13*
X186690000Y-98298000D03*
D12*
X130185000Y-113060000D03*
X130185000Y-115560000D03*
X182860000Y-108712000D03*
X180360000Y-108712000D03*
X186690000Y-59182000D03*
D13*
X176530000Y-59182000D03*
D12*
X176530000Y-101854000D03*
D13*
X186690000Y-101854000D03*
D17*
X153573000Y-51411700D03*
X160583000Y-51411700D03*
D18*
X154823000Y-48921700D03*
X159323000Y-48921700D03*
D15*
X176128000Y-52990000D03*
D16*
X173588000Y-52990000D03*
D12*
X132100000Y-74910000D03*
X134600000Y-74910000D03*
D14*
X111760000Y-92680000D03*
D13*
X114300000Y-92680000D03*
X116840000Y-92680000D03*
X119380000Y-92680000D03*
X121920000Y-92680000D03*
X124460000Y-92680000D03*
X127000000Y-92680000D03*
X127000000Y-85060000D03*
X124460000Y-85060000D03*
X121920000Y-85060000D03*
X119380000Y-85060000D03*
X116840000Y-85060000D03*
X114300000Y-85060000D03*
X111760000Y-85060000D03*
D19*
X101068600Y-102718600D03*
X101068600Y-98018600D03*
X101068600Y-93318600D03*
D17*
X116987000Y-51411700D03*
X123997000Y-51411700D03*
D18*
X118237000Y-48921700D03*
X122737000Y-48921700D03*
D14*
X111760000Y-105380000D03*
D13*
X114300000Y-105380000D03*
X116840000Y-105380000D03*
X119380000Y-105380000D03*
X121920000Y-105380000D03*
X124460000Y-105380000D03*
X127000000Y-105380000D03*
X127000000Y-97760000D03*
X124460000Y-97760000D03*
X121920000Y-97760000D03*
X119380000Y-97760000D03*
X116840000Y-97760000D03*
X114300000Y-97760000D03*
X111760000Y-97760000D03*
D12*
X186690000Y-87630000D03*
D13*
X176530000Y-87630000D03*
D12*
X108585000Y-87630000D03*
X108585000Y-90130000D03*
D20*
X177490000Y-142200000D03*
X174950000Y-142200000D03*
X172410000Y-142200000D03*
X169870000Y-142200000D03*
X167330000Y-142200000D03*
X164790000Y-142200000D03*
X162250000Y-142200000D03*
X159710000Y-142200000D03*
X157170000Y-142200000D03*
X154630000Y-142200000D03*
X152090000Y-142200000D03*
X149550000Y-142200000D03*
X147010000Y-142200000D03*
X144470000Y-142200000D03*
X141930000Y-142200000D03*
X139390000Y-142200000D03*
X136850000Y-142200000D03*
X134310000Y-142200000D03*
X131770000Y-142200000D03*
X129230000Y-142200000D03*
X126690000Y-142200000D03*
X124150000Y-142200000D03*
X121610000Y-142200000D03*
X119070000Y-142200000D03*
X116530000Y-142200000D03*
X113990000Y-142200000D03*
X111450000Y-142200000D03*
X108910000Y-142200000D03*
X106370000Y-142200000D03*
X103830000Y-142200000D03*
X101290000Y-142200000D03*
D12*
X132100000Y-72370000D03*
X134600000Y-72370000D03*
D14*
X105410000Y-59690000D03*
D13*
X105410000Y-62230000D03*
X105410000Y-64770000D03*
X105410000Y-67310000D03*
X105410000Y-69850000D03*
D12*
X151765000Y-87610000D03*
X151765000Y-90110000D03*
D19*
X101068600Y-72238600D03*
X101068600Y-67538600D03*
X101068600Y-62838600D03*
D14*
X154940000Y-130800000D03*
D13*
X157480000Y-130800000D03*
X160020000Y-130800000D03*
X162560000Y-130800000D03*
X165100000Y-130800000D03*
X167640000Y-130800000D03*
X170180000Y-130800000D03*
X172720000Y-130800000D03*
X172720000Y-123180000D03*
X170180000Y-123180000D03*
X167640000Y-123180000D03*
X165100000Y-123180000D03*
X162560000Y-123180000D03*
X160020000Y-123180000D03*
X157480000Y-123180000D03*
X154940000Y-123180000D03*
D15*
X129393000Y-52991300D03*
D16*
X126853000Y-52991300D03*
D14*
X154930000Y-105400000D03*
D13*
X157470000Y-105400000D03*
X160010000Y-105400000D03*
X162550000Y-105400000D03*
X165090000Y-105400000D03*
X167630000Y-105400000D03*
X170170000Y-105400000D03*
X172710000Y-105400000D03*
X172710000Y-97780000D03*
X170170000Y-97780000D03*
X167630000Y-97780000D03*
X165090000Y-97780000D03*
X162550000Y-97780000D03*
X160010000Y-97780000D03*
X157470000Y-97780000D03*
X154930000Y-97780000D03*
D12*
X186690000Y-94742000D03*
D13*
X176530000Y-94742000D03*
D21*
X145115600Y-53668200D03*
X142575600Y-51128200D03*
X145115600Y-48588200D03*
D12*
X151765000Y-62250000D03*
X151765000Y-64750000D03*
X137795000Y-87630000D03*
X137795000Y-90130000D03*
X108585000Y-74930000D03*
X108585000Y-77430000D03*
X186690000Y-91186000D03*
D13*
X176530000Y-91186000D03*
D14*
X133345000Y-105390000D03*
D13*
X135885000Y-105390000D03*
X138425000Y-105390000D03*
X140965000Y-105390000D03*
X143505000Y-105390000D03*
X146045000Y-105390000D03*
X148585000Y-105390000D03*
X148585000Y-97770000D03*
X146045000Y-97770000D03*
X143505000Y-97770000D03*
X140965000Y-97770000D03*
X138425000Y-97770000D03*
X135885000Y-97770000D03*
X133345000Y-97770000D03*
D15*
X114142000Y-52991300D03*
D16*
X111602000Y-52991300D03*
D14*
X154930000Y-80000000D03*
D13*
X157470000Y-80000000D03*
X160010000Y-80000000D03*
X162550000Y-80000000D03*
X165090000Y-80000000D03*
X167630000Y-80000000D03*
X170170000Y-80000000D03*
X172710000Y-80000000D03*
X172710000Y-72380000D03*
X170170000Y-72380000D03*
X167630000Y-72380000D03*
X165090000Y-72380000D03*
X162550000Y-72380000D03*
X160010000Y-72380000D03*
X157470000Y-72380000D03*
X154930000Y-72380000D03*
D22*
X179114600Y-113019600D03*
D23*
X179114600Y-115559600D03*
X179114600Y-118099600D03*
X179114600Y-120639600D03*
X179114600Y-123179600D03*
X179114600Y-125719600D03*
X179114600Y-128259600D03*
X179114600Y-130799600D03*
D12*
X132100000Y-83820000D03*
X134600000Y-83820000D03*
D17*
X132238000Y-51410400D03*
X139248000Y-51410400D03*
D18*
X133488000Y-48920400D03*
X137988000Y-48920400D03*
D14*
X133355000Y-130800000D03*
D13*
X135895000Y-130800000D03*
X138435000Y-130800000D03*
X140975000Y-130800000D03*
X143515000Y-130800000D03*
X146055000Y-130800000D03*
X148595000Y-130800000D03*
X148595000Y-123180000D03*
X146055000Y-123180000D03*
X143515000Y-123180000D03*
X140975000Y-123180000D03*
X138435000Y-123180000D03*
X135895000Y-123180000D03*
X133355000Y-123180000D03*
D14*
X105410000Y-80010000D03*
D13*
X105410000Y-82550000D03*
X105410000Y-85090000D03*
X105410000Y-87630000D03*
X105410000Y-90170000D03*
X105410000Y-92710000D03*
X105410000Y-95250000D03*
X105410000Y-97790000D03*
X105410000Y-100330000D03*
X105410000Y-102870000D03*
X105410000Y-105410000D03*
D12*
X186690000Y-105410000D03*
D13*
X176530000Y-105410000D03*
D12*
X108585000Y-62250000D03*
X108585000Y-64750000D03*
X106055000Y-125730000D03*
X106055000Y-128230000D03*
X130175000Y-62250000D03*
X130175000Y-64750000D03*
X134600000Y-81280000D03*
X132100000Y-81280000D03*
X132100000Y-77450000D03*
X134600000Y-77450000D03*
D14*
X111755000Y-118100000D03*
D13*
X114295000Y-118100000D03*
X116835000Y-118100000D03*
X119375000Y-118100000D03*
X121915000Y-118100000D03*
X124455000Y-118100000D03*
X126995000Y-118100000D03*
X126995000Y-110480000D03*
X124455000Y-110480000D03*
X121915000Y-110480000D03*
X119375000Y-110480000D03*
X116835000Y-110480000D03*
X114295000Y-110480000D03*
X111755000Y-110480000D03*
D19*
X101068600Y-87478600D03*
X101068600Y-82778600D03*
X101068600Y-78078600D03*
D12*
X137795000Y-74930000D03*
X137795000Y-77430000D03*
X130175000Y-100330000D03*
X130175000Y-102830000D03*
D19*
X101068600Y-117958600D03*
X101068600Y-113258600D03*
X101068600Y-108558600D03*
D14*
X154930000Y-92680000D03*
D13*
X157470000Y-92680000D03*
X160010000Y-92680000D03*
X162550000Y-92680000D03*
X165090000Y-92680000D03*
X167630000Y-92680000D03*
X170170000Y-92680000D03*
X172710000Y-92680000D03*
X172710000Y-85060000D03*
X170170000Y-85060000D03*
X167630000Y-85060000D03*
X165090000Y-85060000D03*
X162550000Y-85060000D03*
X160010000Y-85060000D03*
X157470000Y-85060000D03*
X154930000Y-85060000D03*
D17*
X101732600Y-51411700D03*
X108742600Y-51411700D03*
D18*
X102982600Y-48921700D03*
X107482600Y-48921700D03*
D12*
X130185000Y-125750000D03*
X130185000Y-128250000D03*
D24*
X133350000Y-92505000D03*
D25*
X133350000Y-89965000D03*
X133350000Y-87425000D03*
D14*
X140980000Y-92680000D03*
D13*
X148600000Y-92680000D03*
X148600000Y-85060000D03*
X140980000Y-85060000D03*
D12*
X186690000Y-66294000D03*
D13*
X176530000Y-66294000D03*
D14*
X109225000Y-130800000D03*
D13*
X111765000Y-130800000D03*
X114305000Y-130800000D03*
X116845000Y-130800000D03*
X119385000Y-130800000D03*
X121925000Y-130800000D03*
X124465000Y-130800000D03*
X127005000Y-130800000D03*
X127005000Y-123180000D03*
X124465000Y-123180000D03*
X121925000Y-123180000D03*
X119385000Y-123180000D03*
X116845000Y-123180000D03*
X114305000Y-123180000D03*
X111765000Y-123180000D03*
X109225000Y-123180000D03*
D15*
X165968000Y-52990000D03*
D16*
X163428000Y-52990000D03*
D15*
X171048000Y-52990000D03*
D16*
X168508000Y-52990000D03*
D14*
X133345000Y-67300000D03*
D13*
X135885000Y-67300000D03*
X138425000Y-67300000D03*
X140965000Y-67300000D03*
X143505000Y-67300000D03*
X146045000Y-67300000D03*
X148585000Y-67300000D03*
X148585000Y-59680000D03*
X146045000Y-59680000D03*
X143505000Y-59680000D03*
X140965000Y-59680000D03*
X138425000Y-59680000D03*
X135885000Y-59680000D03*
X133345000Y-59680000D03*
D12*
X186690000Y-69850000D03*
D13*
X176530000Y-69850000D03*
D15*
X181208000Y-52990000D03*
D16*
X178668000Y-52990000D03*
D14*
X111760000Y-79980000D03*
D13*
X114300000Y-79980000D03*
X116840000Y-79980000D03*
X119380000Y-79980000D03*
X121920000Y-79980000D03*
X124460000Y-79980000D03*
X127000000Y-79980000D03*
X127000000Y-72360000D03*
X124460000Y-72360000D03*
X121920000Y-72360000D03*
X119380000Y-72360000D03*
X116840000Y-72360000D03*
X114300000Y-72360000D03*
X111760000Y-72360000D03*
D14*
X140985000Y-79980000D03*
D13*
X143525000Y-79980000D03*
X146065000Y-79980000D03*
X148605000Y-79980000D03*
X148605000Y-72360000D03*
X146065000Y-72360000D03*
X143525000Y-72360000D03*
X140985000Y-72360000D03*
D12*
X151775000Y-125750000D03*
X151775000Y-128250000D03*
X186690000Y-62738000D03*
D13*
X176530000Y-62738000D03*
D14*
X133355000Y-118110000D03*
D13*
X135895000Y-118110000D03*
X138435000Y-118110000D03*
X140975000Y-118110000D03*
X143515000Y-118110000D03*
X146055000Y-118110000D03*
X148595000Y-118110000D03*
X148595000Y-110490000D03*
X146055000Y-110490000D03*
X143515000Y-110490000D03*
X140975000Y-110490000D03*
X138435000Y-110490000D03*
X135895000Y-110490000D03*
X133355000Y-110490000D03*
D12*
X151765000Y-100330000D03*
X151765000Y-102830000D03*
X186690000Y-84074000D03*
D13*
X176530000Y-84074000D03*
D12*
X151765000Y-74930000D03*
X151765000Y-77430000D03*
D14*
X154930000Y-118100000D03*
D13*
X157470000Y-118100000D03*
X160010000Y-118100000D03*
X162550000Y-118100000D03*
X165090000Y-118100000D03*
X167630000Y-118100000D03*
X170170000Y-118100000D03*
X172710000Y-118100000D03*
X172710000Y-110480000D03*
X170170000Y-110480000D03*
X167630000Y-110480000D03*
X165090000Y-110480000D03*
X162550000Y-110480000D03*
X160010000Y-110480000D03*
X157470000Y-110480000D03*
X154930000Y-110480000D03*
D12*
X108585000Y-113050000D03*
X108585000Y-115550000D03*
X108585000Y-100330000D03*
X108585000Y-102830000D03*
D15*
X98913000Y-52990000D03*
D16*
X96373000Y-52990000D03*
D12*
X186690000Y-73406000D03*
D13*
X176530000Y-73406000D03*
D15*
X150728000Y-52990000D03*
D16*
X148188000Y-52990000D03*
D12*
X186690000Y-80518000D03*
D13*
X176530000Y-80518000D03*
%LPD*%
M02*
