M48
; DRILL file {KiCad 7.0.7} date Tue Aug 22 16:34:41 2023
; FORMAT={-:-/ absolute / metric / decimal}
; #@! TF.CreationDate,2023-08-22T16:34:41-04:00
; #@! TF.GenerationSoftware,Kicad,Pcbnew,7.0.7
; #@! TF.FileFunction,Plated,1,2,PTH
FMAT,2
METRIC
; #@! TA.AperFunction,Plated,PTH,ViaDrill
T1C0.400
; #@! TA.AperFunction,Plated,PTH,ComponentDrill
T2C0.800
; #@! TA.AperFunction,Plated,PTH,ComponentDrill
T3C0.900
; #@! TA.AperFunction,Plated,PTH,ComponentDrill
T4C0.990
; #@! TA.AperFunction,Plated,PTH,ComponentDrill
T5C1.000
; #@! TA.AperFunction,Plated,PTH,ComponentDrill
T6C1.300
; #@! TA.AperFunction,Plated,PTH,ComponentDrill
T7C1.600
%
G90
G05
T1
X99.517Y-81.471
X106.577Y-91.289
X114.547Y-116.684
X120.038Y-73.756
X122.104Y-75.463
X123.632Y-112.925
X126.228Y-120.047
X127.704Y-137.775
X128.46Y-81.719
X128.602Y-101.589
X130.075Y-131.59
X134.927Y-88.809
X144.191Y-55.976
X146.082Y-57.681
X148.884Y-69.607
X150.707Y-82.575
X157.565Y-101.58
X166.139Y-116.704
X168.036Y-137.775
X174.95Y-137.775
T2
X105.41Y-59.69
X105.41Y-62.23
X105.41Y-64.77
X105.41Y-67.31
X105.41Y-69.85
X105.41Y-80.01
X105.41Y-82.55
X105.41Y-85.09
X105.41Y-87.63
X105.41Y-90.17
X105.41Y-92.71
X105.41Y-95.25
X105.41Y-97.79
X105.41Y-100.33
X105.41Y-102.87
X105.41Y-105.41
X106.055Y-125.73
X106.055Y-128.23
X108.585Y-62.25
X108.585Y-64.75
X108.585Y-74.93
X108.585Y-77.43
X108.585Y-87.63
X108.585Y-90.13
X108.585Y-100.33
X108.585Y-102.83
X108.585Y-113.05
X108.585Y-115.55
X109.225Y-123.18
X109.225Y-130.8
X111.755Y-59.68
X111.755Y-67.3
X111.755Y-110.48
X111.755Y-118.1
X111.76Y-72.36
X111.76Y-79.98
X111.76Y-85.06
X111.76Y-92.68
X111.76Y-97.76
X111.76Y-105.38
X111.765Y-123.18
X111.765Y-130.8
X114.295Y-59.68
X114.295Y-67.3
X114.295Y-110.48
X114.295Y-118.1
X114.3Y-72.36
X114.3Y-79.98
X114.3Y-85.06
X114.3Y-92.68
X114.3Y-97.76
X114.3Y-105.38
X114.305Y-123.18
X114.305Y-130.8
X116.835Y-59.68
X116.835Y-67.3
X116.835Y-110.48
X116.835Y-118.1
X116.84Y-72.36
X116.84Y-79.98
X116.84Y-85.06
X116.84Y-92.68
X116.84Y-97.76
X116.84Y-105.38
X116.845Y-123.18
X116.845Y-130.8
X119.375Y-59.68
X119.375Y-67.3
X119.375Y-110.48
X119.375Y-118.1
X119.38Y-72.36
X119.38Y-79.98
X119.38Y-85.06
X119.38Y-92.68
X119.38Y-97.76
X119.38Y-105.38
X119.385Y-123.18
X119.385Y-130.8
X121.915Y-59.68
X121.915Y-67.3
X121.915Y-110.48
X121.915Y-118.1
X121.92Y-72.36
X121.92Y-79.98
X121.92Y-85.06
X121.92Y-92.68
X121.92Y-97.76
X121.92Y-105.38
X121.925Y-123.18
X121.925Y-130.8
X124.455Y-59.68
X124.455Y-67.3
X124.455Y-110.48
X124.455Y-118.1
X124.46Y-72.36
X124.46Y-79.98
X124.46Y-85.06
X124.46Y-92.68
X124.46Y-97.76
X124.46Y-105.38
X124.465Y-123.18
X124.465Y-130.8
X126.995Y-59.68
X126.995Y-67.3
X126.995Y-110.48
X126.995Y-118.1
X127.0Y-72.36
X127.0Y-79.98
X127.0Y-85.06
X127.0Y-92.68
X127.0Y-97.76
X127.0Y-105.38
X127.005Y-123.18
X127.005Y-130.8
X130.175Y-62.25
X130.175Y-64.75
X130.175Y-100.33
X130.175Y-102.83
X130.185Y-113.06
X130.185Y-115.56
X130.185Y-125.75
X130.185Y-128.25
X132.1Y-72.37
X132.1Y-74.91
X132.1Y-77.45
X132.1Y-81.28
X132.1Y-83.82
X133.345Y-59.68
X133.345Y-67.3
X133.345Y-97.77
X133.345Y-105.39
X133.35Y-87.425
X133.35Y-89.965
X133.35Y-92.505
X133.355Y-110.49
X133.355Y-118.11
X133.355Y-123.18
X133.355Y-130.8
X134.6Y-72.37
X134.6Y-74.91
X134.6Y-77.45
X134.6Y-81.28
X134.6Y-83.82
X135.885Y-59.68
X135.885Y-67.3
X135.885Y-97.77
X135.885Y-105.39
X135.895Y-110.49
X135.895Y-118.11
X135.895Y-123.18
X135.895Y-130.8
X137.795Y-74.93
X137.795Y-77.43
X137.795Y-87.63
X137.795Y-90.13
X138.425Y-59.68
X138.425Y-67.3
X138.425Y-97.77
X138.425Y-105.39
X138.435Y-110.49
X138.435Y-118.11
X138.435Y-123.18
X138.435Y-130.8
X140.965Y-59.68
X140.965Y-67.3
X140.965Y-97.77
X140.965Y-105.39
X140.975Y-110.49
X140.975Y-118.11
X140.975Y-123.18
X140.975Y-130.8
X140.98Y-85.06
X140.98Y-92.68
X140.985Y-72.36
X140.985Y-79.98
X142.576Y-51.128
X143.505Y-59.68
X143.505Y-67.3
X143.505Y-97.77
X143.505Y-105.39
X143.515Y-110.49
X143.515Y-118.11
X143.515Y-123.18
X143.515Y-130.8
X143.525Y-72.36
X143.525Y-79.98
X145.116Y-48.588
X145.116Y-53.668
X146.045Y-59.68
X146.045Y-67.3
X146.045Y-97.77
X146.045Y-105.39
X146.055Y-110.49
X146.055Y-118.11
X146.055Y-123.18
X146.055Y-130.8
X146.065Y-72.36
X146.065Y-79.98
X148.585Y-59.68
X148.585Y-67.3
X148.585Y-97.77
X148.585Y-105.39
X148.595Y-110.49
X148.595Y-118.11
X148.595Y-123.18
X148.595Y-130.8
X148.6Y-85.06
X148.6Y-92.68
X148.605Y-72.36
X148.605Y-79.98
X151.765Y-62.25
X151.765Y-64.75
X151.765Y-74.93
X151.765Y-77.43
X151.765Y-87.61
X151.765Y-90.11
X151.765Y-100.33
X151.765Y-102.83
X151.775Y-125.75
X151.775Y-128.25
X151.892Y-113.05
X151.892Y-115.55
X154.93Y-59.68
X154.93Y-67.3
X154.93Y-72.38
X154.93Y-80.0
X154.93Y-85.06
X154.93Y-92.68
X154.93Y-97.78
X154.93Y-105.4
X154.93Y-110.48
X154.93Y-118.1
X154.94Y-123.18
X154.94Y-130.8
X157.47Y-59.68
X157.47Y-67.3
X157.47Y-72.38
X157.47Y-80.0
X157.47Y-85.06
X157.47Y-92.68
X157.47Y-97.78
X157.47Y-105.4
X157.47Y-110.48
X157.47Y-118.1
X157.48Y-123.18
X157.48Y-130.8
X160.01Y-59.68
X160.01Y-67.3
X160.01Y-72.38
X160.01Y-80.0
X160.01Y-85.06
X160.01Y-92.68
X160.01Y-97.78
X160.01Y-105.4
X160.01Y-110.48
X160.01Y-118.1
X160.02Y-123.18
X160.02Y-130.8
X162.55Y-59.68
X162.55Y-67.3
X162.55Y-72.38
X162.55Y-80.0
X162.55Y-85.06
X162.55Y-92.68
X162.55Y-97.78
X162.55Y-105.4
X162.55Y-110.48
X162.55Y-118.1
X162.56Y-123.18
X162.56Y-130.8
X165.09Y-59.68
X165.09Y-67.3
X165.09Y-72.38
X165.09Y-80.0
X165.09Y-85.06
X165.09Y-92.68
X165.09Y-97.78
X165.09Y-105.4
X165.09Y-110.48
X165.09Y-118.1
X165.1Y-123.18
X165.1Y-130.8
X167.63Y-59.68
X167.63Y-67.3
X167.63Y-72.38
X167.63Y-80.0
X167.63Y-85.06
X167.63Y-92.68
X167.63Y-97.78
X167.63Y-105.4
X167.63Y-110.48
X167.63Y-118.1
X167.64Y-123.18
X167.64Y-130.8
X170.17Y-59.68
X170.17Y-67.3
X170.17Y-72.38
X170.17Y-80.0
X170.17Y-85.06
X170.17Y-92.68
X170.17Y-97.78
X170.17Y-105.4
X170.17Y-110.48
X170.17Y-118.1
X170.18Y-123.18
X170.18Y-130.8
X172.71Y-59.68
X172.71Y-67.3
X172.71Y-72.38
X172.71Y-80.0
X172.71Y-85.06
X172.71Y-92.68
X172.71Y-97.78
X172.71Y-105.4
X172.71Y-110.48
X172.71Y-118.1
X172.72Y-123.18
X172.72Y-130.8
X176.53Y-59.182
X176.53Y-62.738
X176.53Y-66.294
X176.53Y-69.85
X176.53Y-73.406
X176.53Y-76.962
X176.53Y-80.518
X176.53Y-84.074
X176.53Y-87.63
X176.53Y-91.186
X176.53Y-94.742
X176.53Y-98.298
X176.53Y-101.854
X176.53Y-105.41
X180.36Y-108.712
X182.86Y-108.712
X186.69Y-59.182
X186.69Y-62.738
X186.69Y-66.294
X186.69Y-69.85
X186.69Y-73.406
X186.69Y-76.962
X186.69Y-80.518
X186.69Y-84.074
X186.69Y-87.63
X186.69Y-91.186
X186.69Y-94.742
X186.69Y-98.298
X186.69Y-101.854
X186.69Y-105.41
T3
X96.266Y-125.07
X96.266Y-127.61
X96.373Y-52.99
X98.913Y-52.99
X111.602Y-52.991
X114.142Y-52.991
X126.853Y-52.991
X129.393Y-52.991
X148.188Y-52.99
X150.728Y-52.99
X163.428Y-52.99
X165.968Y-52.99
X168.508Y-52.99
X171.048Y-52.99
X173.588Y-52.99
X176.128Y-52.99
X178.668Y-52.99
X181.208Y-52.99
T4
X102.983Y-48.922
X107.483Y-48.922
X118.237Y-48.922
X122.737Y-48.922
X133.488Y-48.92
X137.988Y-48.92
X154.823Y-48.922
X159.323Y-48.922
T5
X179.115Y-113.02
X179.115Y-115.56
X179.115Y-118.1
X179.115Y-120.64
X179.115Y-123.18
X179.115Y-125.72
X179.115Y-128.26
X179.115Y-130.8
T6
X101.733Y-51.412
X108.743Y-51.412
X116.987Y-51.412
X123.997Y-51.412
X132.238Y-51.41
X139.248Y-51.41
X153.573Y-51.412
X160.583Y-51.412
T7
X101.069Y-62.839
X101.069Y-67.539
X101.069Y-72.239
X101.069Y-78.079
X101.069Y-82.779
X101.069Y-87.479
X101.069Y-93.319
X101.069Y-98.019
X101.069Y-102.719
X101.069Y-108.559
X101.069Y-113.259
X101.069Y-117.959
T0
M30
