%TF.GenerationSoftware,KiCad,Pcbnew,7.0.7*%
%TF.CreationDate,2023-08-22T16:34:43-04:00*%
%TF.ProjectId,2 - Clock,32202d20-436c-46f6-936b-2e6b69636164,1.1*%
%TF.SameCoordinates,Original*%
%TF.FileFunction,Drillmap*%
%TF.FilePolarity,Positive*%
%FSLAX45Y45*%
G04 Gerber Fmt 4.5, Leading zero omitted, Abs format (unit mm)*
G04 Created by KiCad (PCBNEW 7.0.7) date 2023-08-22 16:34:43*
%MOMM*%
%LPD*%
G01*
G04 APERTURE LIST*
%ADD10C,0.200000*%
G04 APERTURE END LIST*
D10*
X9193777Y-14926484D02*
X9193777Y-14726484D01*
X9193777Y-14726484D02*
X9241396Y-14726484D01*
X9241396Y-14726484D02*
X9269967Y-14736008D01*
X9269967Y-14736008D02*
X9289015Y-14755055D01*
X9289015Y-14755055D02*
X9298539Y-14774103D01*
X9298539Y-14774103D02*
X9308063Y-14812198D01*
X9308063Y-14812198D02*
X9308063Y-14840769D01*
X9308063Y-14840769D02*
X9298539Y-14878865D01*
X9298539Y-14878865D02*
X9289015Y-14897912D01*
X9289015Y-14897912D02*
X9269967Y-14916960D01*
X9269967Y-14916960D02*
X9241396Y-14926484D01*
X9241396Y-14926484D02*
X9193777Y-14926484D01*
X9393777Y-14926484D02*
X9393777Y-14793150D01*
X9393777Y-14831246D02*
X9403301Y-14812198D01*
X9403301Y-14812198D02*
X9412824Y-14802674D01*
X9412824Y-14802674D02*
X9431872Y-14793150D01*
X9431872Y-14793150D02*
X9450920Y-14793150D01*
X9517586Y-14926484D02*
X9517586Y-14793150D01*
X9517586Y-14726484D02*
X9508063Y-14736008D01*
X9508063Y-14736008D02*
X9517586Y-14745531D01*
X9517586Y-14745531D02*
X9527110Y-14736008D01*
X9527110Y-14736008D02*
X9517586Y-14726484D01*
X9517586Y-14726484D02*
X9517586Y-14745531D01*
X9641396Y-14926484D02*
X9622348Y-14916960D01*
X9622348Y-14916960D02*
X9612824Y-14897912D01*
X9612824Y-14897912D02*
X9612824Y-14726484D01*
X9746158Y-14926484D02*
X9727110Y-14916960D01*
X9727110Y-14916960D02*
X9717586Y-14897912D01*
X9717586Y-14897912D02*
X9717586Y-14726484D01*
X9974729Y-14926484D02*
X9974729Y-14726484D01*
X9974729Y-14726484D02*
X10041396Y-14869341D01*
X10041396Y-14869341D02*
X10108063Y-14726484D01*
X10108063Y-14726484D02*
X10108063Y-14926484D01*
X10289015Y-14926484D02*
X10289015Y-14821722D01*
X10289015Y-14821722D02*
X10279491Y-14802674D01*
X10279491Y-14802674D02*
X10260444Y-14793150D01*
X10260444Y-14793150D02*
X10222348Y-14793150D01*
X10222348Y-14793150D02*
X10203301Y-14802674D01*
X10289015Y-14916960D02*
X10269967Y-14926484D01*
X10269967Y-14926484D02*
X10222348Y-14926484D01*
X10222348Y-14926484D02*
X10203301Y-14916960D01*
X10203301Y-14916960D02*
X10193777Y-14897912D01*
X10193777Y-14897912D02*
X10193777Y-14878865D01*
X10193777Y-14878865D02*
X10203301Y-14859817D01*
X10203301Y-14859817D02*
X10222348Y-14850293D01*
X10222348Y-14850293D02*
X10269967Y-14850293D01*
X10269967Y-14850293D02*
X10289015Y-14840769D01*
X10384253Y-14793150D02*
X10384253Y-14993150D01*
X10384253Y-14802674D02*
X10403301Y-14793150D01*
X10403301Y-14793150D02*
X10441396Y-14793150D01*
X10441396Y-14793150D02*
X10460444Y-14802674D01*
X10460444Y-14802674D02*
X10469967Y-14812198D01*
X10469967Y-14812198D02*
X10479491Y-14831246D01*
X10479491Y-14831246D02*
X10479491Y-14888388D01*
X10479491Y-14888388D02*
X10469967Y-14907436D01*
X10469967Y-14907436D02*
X10460444Y-14916960D01*
X10460444Y-14916960D02*
X10441396Y-14926484D01*
X10441396Y-14926484D02*
X10403301Y-14926484D01*
X10403301Y-14926484D02*
X10384253Y-14916960D01*
X10565205Y-14907436D02*
X10574729Y-14916960D01*
X10574729Y-14916960D02*
X10565205Y-14926484D01*
X10565205Y-14926484D02*
X10555682Y-14916960D01*
X10555682Y-14916960D02*
X10565205Y-14907436D01*
X10565205Y-14907436D02*
X10565205Y-14926484D01*
X10565205Y-14802674D02*
X10574729Y-14812198D01*
X10574729Y-14812198D02*
X10565205Y-14821722D01*
X10565205Y-14821722D02*
X10555682Y-14812198D01*
X10555682Y-14812198D02*
X10565205Y-14802674D01*
X10565205Y-14802674D02*
X10565205Y-14821722D01*
M02*
