%TF.GenerationSoftware,KiCad,Pcbnew,7.0.7*%
%TF.CreationDate,2023-09-10T22:27:07-04:00*%
%TF.ProjectId,4 - Quad serial,34202d20-5175-4616-9420-73657269616c,1*%
%TF.SameCoordinates,Original*%
%TF.FileFunction,Drillmap*%
%TF.FilePolarity,Positive*%
%FSLAX45Y45*%
G04 Gerber Fmt 4.5, Leading zero omitted, Abs format (unit mm)*
G04 Created by KiCad (PCBNEW 7.0.7) date 2023-09-10 22:27:07*
%MOMM*%
%LPD*%
G01*
G04 APERTURE LIST*
%ADD10C,0.200000*%
G04 APERTURE END LIST*
D10*
X7954777Y-15286984D02*
X7954777Y-15086984D01*
X7954777Y-15086984D02*
X8002396Y-15086984D01*
X8002396Y-15086984D02*
X8030967Y-15096508D01*
X8030967Y-15096508D02*
X8050015Y-15115555D01*
X8050015Y-15115555D02*
X8059539Y-15134603D01*
X8059539Y-15134603D02*
X8069062Y-15172698D01*
X8069062Y-15172698D02*
X8069062Y-15201269D01*
X8069062Y-15201269D02*
X8059539Y-15239365D01*
X8059539Y-15239365D02*
X8050015Y-15258412D01*
X8050015Y-15258412D02*
X8030967Y-15277460D01*
X8030967Y-15277460D02*
X8002396Y-15286984D01*
X8002396Y-15286984D02*
X7954777Y-15286984D01*
X8154777Y-15286984D02*
X8154777Y-15153650D01*
X8154777Y-15191746D02*
X8164301Y-15172698D01*
X8164301Y-15172698D02*
X8173824Y-15163174D01*
X8173824Y-15163174D02*
X8192872Y-15153650D01*
X8192872Y-15153650D02*
X8211920Y-15153650D01*
X8278586Y-15286984D02*
X8278586Y-15153650D01*
X8278586Y-15086984D02*
X8269062Y-15096508D01*
X8269062Y-15096508D02*
X8278586Y-15106031D01*
X8278586Y-15106031D02*
X8288110Y-15096508D01*
X8288110Y-15096508D02*
X8278586Y-15086984D01*
X8278586Y-15086984D02*
X8278586Y-15106031D01*
X8402396Y-15286984D02*
X8383348Y-15277460D01*
X8383348Y-15277460D02*
X8373824Y-15258412D01*
X8373824Y-15258412D02*
X8373824Y-15086984D01*
X8507158Y-15286984D02*
X8488110Y-15277460D01*
X8488110Y-15277460D02*
X8478586Y-15258412D01*
X8478586Y-15258412D02*
X8478586Y-15086984D01*
X8735729Y-15286984D02*
X8735729Y-15086984D01*
X8735729Y-15086984D02*
X8802396Y-15229841D01*
X8802396Y-15229841D02*
X8869063Y-15086984D01*
X8869063Y-15086984D02*
X8869063Y-15286984D01*
X9050015Y-15286984D02*
X9050015Y-15182222D01*
X9050015Y-15182222D02*
X9040491Y-15163174D01*
X9040491Y-15163174D02*
X9021444Y-15153650D01*
X9021444Y-15153650D02*
X8983348Y-15153650D01*
X8983348Y-15153650D02*
X8964301Y-15163174D01*
X9050015Y-15277460D02*
X9030967Y-15286984D01*
X9030967Y-15286984D02*
X8983348Y-15286984D01*
X8983348Y-15286984D02*
X8964301Y-15277460D01*
X8964301Y-15277460D02*
X8954777Y-15258412D01*
X8954777Y-15258412D02*
X8954777Y-15239365D01*
X8954777Y-15239365D02*
X8964301Y-15220317D01*
X8964301Y-15220317D02*
X8983348Y-15210793D01*
X8983348Y-15210793D02*
X9030967Y-15210793D01*
X9030967Y-15210793D02*
X9050015Y-15201269D01*
X9145253Y-15153650D02*
X9145253Y-15353650D01*
X9145253Y-15163174D02*
X9164301Y-15153650D01*
X9164301Y-15153650D02*
X9202396Y-15153650D01*
X9202396Y-15153650D02*
X9221444Y-15163174D01*
X9221444Y-15163174D02*
X9230967Y-15172698D01*
X9230967Y-15172698D02*
X9240491Y-15191746D01*
X9240491Y-15191746D02*
X9240491Y-15248888D01*
X9240491Y-15248888D02*
X9230967Y-15267936D01*
X9230967Y-15267936D02*
X9221444Y-15277460D01*
X9221444Y-15277460D02*
X9202396Y-15286984D01*
X9202396Y-15286984D02*
X9164301Y-15286984D01*
X9164301Y-15286984D02*
X9145253Y-15277460D01*
X9326205Y-15267936D02*
X9335729Y-15277460D01*
X9335729Y-15277460D02*
X9326205Y-15286984D01*
X9326205Y-15286984D02*
X9316682Y-15277460D01*
X9316682Y-15277460D02*
X9326205Y-15267936D01*
X9326205Y-15267936D02*
X9326205Y-15286984D01*
X9326205Y-15163174D02*
X9335729Y-15172698D01*
X9335729Y-15172698D02*
X9326205Y-15182222D01*
X9326205Y-15182222D02*
X9316682Y-15172698D01*
X9316682Y-15172698D02*
X9326205Y-15163174D01*
X9326205Y-15163174D02*
X9326205Y-15182222D01*
M02*
