G04 #@! TF.GenerationSoftware,KiCad,Pcbnew,7.0.7*
G04 #@! TF.CreationDate,2023-09-10T22:26:38-04:00*
G04 #@! TF.ProjectId,4 - Quad serial,34202d20-5175-4616-9420-73657269616c,1*
G04 #@! TF.SameCoordinates,Original*
G04 #@! TF.FileFunction,Legend,Bot*
G04 #@! TF.FilePolarity,Positive*
%FSLAX46Y46*%
G04 Gerber Fmt 4.6, Leading zero omitted, Abs format (unit mm)*
G04 Created by KiCad (PCBNEW 7.0.7) date 2023-09-10 22:26:38*
%MOMM*%
%LPD*%
G01*
G04 APERTURE LIST*
%ADD10C,0.150000*%
%ADD11C,0.200000*%
%ADD12C,0.250000*%
%ADD13C,0.300000*%
%ADD14C,1.600000*%
%ADD15R,1.780000X7.620000*%
%ADD16R,1.800000X1.800000*%
%ADD17C,1.800000*%
%ADD18R,1.600000X1.600000*%
%ADD19C,3.000000*%
%ADD20O,1.600000X1.600000*%
%ADD21R,1.700000X1.700000*%
%ADD22O,1.700000X1.700000*%
%ADD23C,4.000000*%
G04 APERTURE END LIST*
D10*
X83820000Y-86360000D02*
X93980000Y-86360000D01*
X93980000Y-96520000D01*
X83820000Y-96520000D01*
X83820000Y-86360000D01*
X93980000Y-74295000D02*
X96520000Y-74295000D01*
X96520000Y-81915000D01*
X93980000Y-81915000D01*
X93980000Y-74295000D01*
X139065000Y-115570000D02*
X149225000Y-115570000D01*
X149225000Y-135890000D01*
X139065000Y-135890000D01*
X139065000Y-115570000D01*
X151130000Y-62230000D02*
X161290000Y-62230000D01*
X161290000Y-87630000D01*
X151130000Y-87630000D01*
X151130000Y-62230000D01*
X99695000Y-85090000D02*
X117475000Y-85090000D01*
X117475000Y-135890000D01*
X99695000Y-135890000D01*
X99695000Y-85090000D01*
X106426000Y-50165000D02*
X109474000Y-50165000D01*
X109474000Y-55499000D01*
X106426000Y-55499000D01*
X106426000Y-50165000D01*
X167005000Y-54610000D02*
X176911000Y-54610000D01*
X176911000Y-71247000D01*
X167005000Y-71247000D01*
X167005000Y-54610000D01*
X81280000Y-74295000D02*
X83820000Y-74295000D01*
X83820000Y-81915000D01*
X81280000Y-81915000D01*
X81280000Y-74295000D01*
X135255000Y-60960000D02*
X137795000Y-60960000D01*
X137795000Y-83820000D01*
X135255000Y-83820000D01*
X135255000Y-60960000D01*
X94996000Y-50165000D02*
X98044000Y-50165000D01*
X98044000Y-55499000D01*
X94996000Y-55499000D01*
X94996000Y-50165000D01*
X111760000Y-62230000D02*
X121920000Y-62230000D01*
X121920000Y-80010000D01*
X111760000Y-80010000D01*
X111760000Y-62230000D01*
X166370000Y-105156000D02*
X176784000Y-105156000D01*
X176784000Y-136017000D01*
X166370000Y-136017000D01*
X166370000Y-105156000D01*
X151130000Y-91440000D02*
X161290000Y-91440000D01*
X161290000Y-111760000D01*
X151130000Y-111760000D01*
X151130000Y-91440000D01*
X166370000Y-72644000D02*
X176784000Y-72644000D01*
X176784000Y-103505000D01*
X166370000Y-103505000D01*
X166370000Y-72644000D01*
X154051000Y-50165000D02*
X157099000Y-50165000D01*
X157099000Y-55499000D01*
X154051000Y-55499000D01*
X154051000Y-50165000D01*
X139065000Y-91440000D02*
X149225000Y-91440000D01*
X149225000Y-111760000D01*
X139065000Y-111760000D01*
X139065000Y-91440000D01*
X159766000Y-50165000D02*
X162814000Y-50165000D01*
X162814000Y-55499000D01*
X159766000Y-55499000D01*
X159766000Y-50165000D01*
X128016000Y-50165000D02*
X131064000Y-50165000D01*
X131064000Y-55499000D01*
X128016000Y-55499000D01*
X128016000Y-50165000D01*
X162560000Y-60960000D02*
X165100000Y-60960000D01*
X165100000Y-88900000D01*
X162560000Y-88900000D01*
X162560000Y-60960000D01*
X143891000Y-50165000D02*
X146939000Y-50165000D01*
X146939000Y-55499000D01*
X143891000Y-55499000D01*
X143891000Y-50165000D01*
X122301000Y-50165000D02*
X125349000Y-50165000D01*
X125349000Y-55499000D01*
X122301000Y-55499000D01*
X122301000Y-50165000D01*
X86360000Y-74295000D02*
X91440000Y-74295000D01*
X91440000Y-81915000D01*
X86360000Y-81915000D01*
X86360000Y-74295000D01*
X139065000Y-62230000D02*
X149225000Y-62230000D01*
X149225000Y-87630000D01*
X139065000Y-87630000D01*
X139065000Y-62230000D01*
X95250000Y-88265000D02*
X97790000Y-88265000D01*
X97790000Y-94615000D01*
X95250000Y-94615000D01*
X95250000Y-88265000D01*
X119380000Y-85090000D02*
X137160000Y-85090000D01*
X137160000Y-135890000D01*
X119380000Y-135890000D01*
X119380000Y-85090000D01*
X77216000Y-54483000D02*
X91186000Y-54483000D01*
X91186000Y-71247000D01*
X77216000Y-71247000D01*
X77216000Y-54483000D01*
X123825000Y-62230000D02*
X133985000Y-62230000D01*
X133985000Y-80010000D01*
X123825000Y-80010000D01*
X123825000Y-62230000D01*
X99695000Y-62230000D02*
X109855000Y-62230000D01*
X109855000Y-80010000D01*
X99695000Y-80010000D01*
X99695000Y-62230000D01*
X92710000Y-62865000D02*
X95250000Y-62865000D01*
X95250000Y-69215000D01*
X92710000Y-69215000D01*
X92710000Y-62865000D01*
X138176000Y-50165000D02*
X141224000Y-50165000D01*
X141224000Y-55499000D01*
X138176000Y-55499000D01*
X138176000Y-50165000D01*
X95885000Y-62865000D02*
X98425000Y-62865000D01*
X98425000Y-69215000D01*
X95885000Y-69215000D01*
X95885000Y-62865000D01*
X116586000Y-50165000D02*
X119634000Y-50165000D01*
X119634000Y-55499000D01*
X116586000Y-55499000D01*
X116586000Y-50165000D01*
X80010000Y-100330000D02*
X97790000Y-100330000D01*
X97790000Y-135255000D01*
X80010000Y-135255000D01*
X80010000Y-100330000D01*
X151130000Y-115570000D02*
X161290000Y-115570000D01*
X161290000Y-135890000D01*
X151130000Y-135890000D01*
X151130000Y-115570000D01*
X100711000Y-50165000D02*
X103759000Y-50165000D01*
X103759000Y-55499000D01*
X100711000Y-55499000D01*
X100711000Y-50165000D01*
D11*
X88083528Y-88991571D02*
X89583528Y-89991571D01*
X88083528Y-89991571D02*
X89583528Y-88991571D01*
X88083528Y-90348714D02*
X88083528Y-91205857D01*
X89583528Y-90777285D02*
X88083528Y-90777285D01*
X89154957Y-91634428D02*
X89154957Y-92348714D01*
X89583528Y-91491571D02*
X88083528Y-91991571D01*
X88083528Y-91991571D02*
X89583528Y-92491571D01*
X89583528Y-93705856D02*
X89583528Y-92991570D01*
X89583528Y-92991570D02*
X88083528Y-92991570D01*
D10*
X132889048Y-137299819D02*
X132889048Y-138014104D01*
X132889048Y-138014104D02*
X132936667Y-138156961D01*
X132936667Y-138156961D02*
X133031905Y-138252200D01*
X133031905Y-138252200D02*
X133174762Y-138299819D01*
X133174762Y-138299819D02*
X133270000Y-138299819D01*
X131936667Y-138299819D02*
X132412857Y-138299819D01*
X132412857Y-138299819D02*
X132412857Y-137299819D01*
X131031905Y-138204580D02*
X131079524Y-138252200D01*
X131079524Y-138252200D02*
X131222381Y-138299819D01*
X131222381Y-138299819D02*
X131317619Y-138299819D01*
X131317619Y-138299819D02*
X131460476Y-138252200D01*
X131460476Y-138252200D02*
X131555714Y-138156961D01*
X131555714Y-138156961D02*
X131603333Y-138061723D01*
X131603333Y-138061723D02*
X131650952Y-137871247D01*
X131650952Y-137871247D02*
X131650952Y-137728390D01*
X131650952Y-137728390D02*
X131603333Y-137537914D01*
X131603333Y-137537914D02*
X131555714Y-137442676D01*
X131555714Y-137442676D02*
X131460476Y-137347438D01*
X131460476Y-137347438D02*
X131317619Y-137299819D01*
X131317619Y-137299819D02*
X131222381Y-137299819D01*
X131222381Y-137299819D02*
X131079524Y-137347438D01*
X131079524Y-137347438D02*
X131031905Y-137395057D01*
X130317619Y-137299819D02*
X130317619Y-138014104D01*
X130317619Y-138014104D02*
X130365238Y-138156961D01*
X130365238Y-138156961D02*
X130460476Y-138252200D01*
X130460476Y-138252200D02*
X130603333Y-138299819D01*
X130603333Y-138299819D02*
X130698571Y-138299819D01*
X129365238Y-138299819D02*
X129841428Y-138299819D01*
X129841428Y-138299819D02*
X129841428Y-137299819D01*
X128460476Y-138204580D02*
X128508095Y-138252200D01*
X128508095Y-138252200D02*
X128650952Y-138299819D01*
X128650952Y-138299819D02*
X128746190Y-138299819D01*
X128746190Y-138299819D02*
X128889047Y-138252200D01*
X128889047Y-138252200D02*
X128984285Y-138156961D01*
X128984285Y-138156961D02*
X129031904Y-138061723D01*
X129031904Y-138061723D02*
X129079523Y-137871247D01*
X129079523Y-137871247D02*
X129079523Y-137728390D01*
X129079523Y-137728390D02*
X129031904Y-137537914D01*
X129031904Y-137537914D02*
X128984285Y-137442676D01*
X128984285Y-137442676D02*
X128889047Y-137347438D01*
X128889047Y-137347438D02*
X128746190Y-137299819D01*
X128746190Y-137299819D02*
X128650952Y-137299819D01*
X128650952Y-137299819D02*
X128508095Y-137347438D01*
X128508095Y-137347438D02*
X128460476Y-137395057D01*
X127746190Y-137299819D02*
X127746190Y-138014104D01*
X127746190Y-138014104D02*
X127793809Y-138156961D01*
X127793809Y-138156961D02*
X127889047Y-138252200D01*
X127889047Y-138252200D02*
X128031904Y-138299819D01*
X128031904Y-138299819D02*
X128127142Y-138299819D01*
X126793809Y-138299819D02*
X127269999Y-138299819D01*
X127269999Y-138299819D02*
X127269999Y-137299819D01*
X125889047Y-138204580D02*
X125936666Y-138252200D01*
X125936666Y-138252200D02*
X126079523Y-138299819D01*
X126079523Y-138299819D02*
X126174761Y-138299819D01*
X126174761Y-138299819D02*
X126317618Y-138252200D01*
X126317618Y-138252200D02*
X126412856Y-138156961D01*
X126412856Y-138156961D02*
X126460475Y-138061723D01*
X126460475Y-138061723D02*
X126508094Y-137871247D01*
X126508094Y-137871247D02*
X126508094Y-137728390D01*
X126508094Y-137728390D02*
X126460475Y-137537914D01*
X126460475Y-137537914D02*
X126412856Y-137442676D01*
X126412856Y-137442676D02*
X126317618Y-137347438D01*
X126317618Y-137347438D02*
X126174761Y-137299819D01*
X126174761Y-137299819D02*
X126079523Y-137299819D01*
X126079523Y-137299819D02*
X125936666Y-137347438D01*
X125936666Y-137347438D02*
X125889047Y-137395057D01*
X125174761Y-137299819D02*
X125174761Y-138014104D01*
X125174761Y-138014104D02*
X125222380Y-138156961D01*
X125222380Y-138156961D02*
X125317618Y-138252200D01*
X125317618Y-138252200D02*
X125460475Y-138299819D01*
X125460475Y-138299819D02*
X125555713Y-138299819D01*
X124222380Y-138299819D02*
X124698570Y-138299819D01*
X124698570Y-138299819D02*
X124698570Y-137299819D01*
X123317618Y-138204580D02*
X123365237Y-138252200D01*
X123365237Y-138252200D02*
X123508094Y-138299819D01*
X123508094Y-138299819D02*
X123603332Y-138299819D01*
X123603332Y-138299819D02*
X123746189Y-138252200D01*
X123746189Y-138252200D02*
X123841427Y-138156961D01*
X123841427Y-138156961D02*
X123889046Y-138061723D01*
X123889046Y-138061723D02*
X123936665Y-137871247D01*
X123936665Y-137871247D02*
X123936665Y-137728390D01*
X123936665Y-137728390D02*
X123889046Y-137537914D01*
X123889046Y-137537914D02*
X123841427Y-137442676D01*
X123841427Y-137442676D02*
X123746189Y-137347438D01*
X123746189Y-137347438D02*
X123603332Y-137299819D01*
X123603332Y-137299819D02*
X123508094Y-137299819D01*
X123508094Y-137299819D02*
X123365237Y-137347438D01*
X123365237Y-137347438D02*
X123317618Y-137395057D01*
X102689819Y-52744761D02*
X102213628Y-52411428D01*
X102689819Y-52173333D02*
X101689819Y-52173333D01*
X101689819Y-52173333D02*
X101689819Y-52554285D01*
X101689819Y-52554285D02*
X101737438Y-52649523D01*
X101737438Y-52649523D02*
X101785057Y-52697142D01*
X101785057Y-52697142D02*
X101880295Y-52744761D01*
X101880295Y-52744761D02*
X102023152Y-52744761D01*
X102023152Y-52744761D02*
X102118390Y-52697142D01*
X102118390Y-52697142D02*
X102166009Y-52649523D01*
X102166009Y-52649523D02*
X102213628Y-52554285D01*
X102213628Y-52554285D02*
X102213628Y-52173333D01*
X102689819Y-53078095D02*
X102023152Y-53601904D01*
X102023152Y-53078095D02*
X102689819Y-53601904D01*
X102689819Y-53982857D02*
X101689819Y-53982857D01*
X101689819Y-53982857D02*
X101689819Y-54220952D01*
X101689819Y-54220952D02*
X101737438Y-54363809D01*
X101737438Y-54363809D02*
X101832676Y-54459047D01*
X101832676Y-54459047D02*
X101927914Y-54506666D01*
X101927914Y-54506666D02*
X102118390Y-54554285D01*
X102118390Y-54554285D02*
X102261247Y-54554285D01*
X102261247Y-54554285D02*
X102451723Y-54506666D01*
X102451723Y-54506666D02*
X102546961Y-54459047D01*
X102546961Y-54459047D02*
X102642200Y-54363809D01*
X102642200Y-54363809D02*
X102689819Y-54220952D01*
X102689819Y-54220952D02*
X102689819Y-53982857D01*
X128994819Y-52149524D02*
X128994819Y-52720952D01*
X129994819Y-52435238D02*
X128994819Y-52435238D01*
X129994819Y-52959048D02*
X129328152Y-53482857D01*
X129328152Y-52959048D02*
X129994819Y-53482857D01*
X129899580Y-54435238D02*
X129947200Y-54387619D01*
X129947200Y-54387619D02*
X129994819Y-54244762D01*
X129994819Y-54244762D02*
X129994819Y-54149524D01*
X129994819Y-54149524D02*
X129947200Y-54006667D01*
X129947200Y-54006667D02*
X129851961Y-53911429D01*
X129851961Y-53911429D02*
X129756723Y-53863810D01*
X129756723Y-53863810D02*
X129566247Y-53816191D01*
X129566247Y-53816191D02*
X129423390Y-53816191D01*
X129423390Y-53816191D02*
X129232914Y-53863810D01*
X129232914Y-53863810D02*
X129137676Y-53911429D01*
X129137676Y-53911429D02*
X129042438Y-54006667D01*
X129042438Y-54006667D02*
X128994819Y-54149524D01*
X128994819Y-54149524D02*
X128994819Y-54244762D01*
X128994819Y-54244762D02*
X129042438Y-54387619D01*
X129042438Y-54387619D02*
X129090057Y-54435238D01*
D11*
X83090671Y-56579285D02*
X83162100Y-56507857D01*
X83162100Y-56507857D02*
X83233528Y-56293571D01*
X83233528Y-56293571D02*
X83233528Y-56150714D01*
X83233528Y-56150714D02*
X83162100Y-55936428D01*
X83162100Y-55936428D02*
X83019242Y-55793571D01*
X83019242Y-55793571D02*
X82876385Y-55722142D01*
X82876385Y-55722142D02*
X82590671Y-55650714D01*
X82590671Y-55650714D02*
X82376385Y-55650714D01*
X82376385Y-55650714D02*
X82090671Y-55722142D01*
X82090671Y-55722142D02*
X81947814Y-55793571D01*
X81947814Y-55793571D02*
X81804957Y-55936428D01*
X81804957Y-55936428D02*
X81733528Y-56150714D01*
X81733528Y-56150714D02*
X81733528Y-56293571D01*
X81733528Y-56293571D02*
X81804957Y-56507857D01*
X81804957Y-56507857D02*
X81876385Y-56579285D01*
X81733528Y-57507857D02*
X81733528Y-57793571D01*
X81733528Y-57793571D02*
X81804957Y-57936428D01*
X81804957Y-57936428D02*
X81947814Y-58079285D01*
X81947814Y-58079285D02*
X82233528Y-58150714D01*
X82233528Y-58150714D02*
X82733528Y-58150714D01*
X82733528Y-58150714D02*
X83019242Y-58079285D01*
X83019242Y-58079285D02*
X83162100Y-57936428D01*
X83162100Y-57936428D02*
X83233528Y-57793571D01*
X83233528Y-57793571D02*
X83233528Y-57507857D01*
X83233528Y-57507857D02*
X83162100Y-57365000D01*
X83162100Y-57365000D02*
X83019242Y-57222142D01*
X83019242Y-57222142D02*
X82733528Y-57150714D01*
X82733528Y-57150714D02*
X82233528Y-57150714D01*
X82233528Y-57150714D02*
X81947814Y-57222142D01*
X81947814Y-57222142D02*
X81804957Y-57365000D01*
X81804957Y-57365000D02*
X81733528Y-57507857D01*
X83233528Y-58793571D02*
X81733528Y-58793571D01*
X81733528Y-58793571D02*
X82804957Y-59293571D01*
X82804957Y-59293571D02*
X81733528Y-59793571D01*
X81733528Y-59793571D02*
X83233528Y-59793571D01*
X82233528Y-61150715D02*
X83233528Y-61150715D01*
X81662100Y-60793572D02*
X82733528Y-60436429D01*
X82733528Y-60436429D02*
X82733528Y-61365000D01*
X83090671Y-61936428D02*
X83162100Y-62007857D01*
X83162100Y-62007857D02*
X83233528Y-61936428D01*
X83233528Y-61936428D02*
X83162100Y-61865000D01*
X83162100Y-61865000D02*
X83090671Y-61936428D01*
X83090671Y-61936428D02*
X83233528Y-61936428D01*
X82304957Y-61936428D02*
X82376385Y-62007857D01*
X82376385Y-62007857D02*
X82447814Y-61936428D01*
X82447814Y-61936428D02*
X82376385Y-61865000D01*
X82376385Y-61865000D02*
X82304957Y-61936428D01*
X82304957Y-61936428D02*
X82447814Y-61936428D01*
X81733528Y-63793571D02*
X82947814Y-63793571D01*
X82947814Y-63793571D02*
X83090671Y-63865000D01*
X83090671Y-63865000D02*
X83162100Y-63936429D01*
X83162100Y-63936429D02*
X83233528Y-64079286D01*
X83233528Y-64079286D02*
X83233528Y-64365000D01*
X83233528Y-64365000D02*
X83162100Y-64507857D01*
X83162100Y-64507857D02*
X83090671Y-64579286D01*
X83090671Y-64579286D02*
X82947814Y-64650714D01*
X82947814Y-64650714D02*
X81733528Y-64650714D01*
X83162100Y-65293572D02*
X83233528Y-65507858D01*
X83233528Y-65507858D02*
X83233528Y-65865000D01*
X83233528Y-65865000D02*
X83162100Y-66007858D01*
X83162100Y-66007858D02*
X83090671Y-66079286D01*
X83090671Y-66079286D02*
X82947814Y-66150715D01*
X82947814Y-66150715D02*
X82804957Y-66150715D01*
X82804957Y-66150715D02*
X82662100Y-66079286D01*
X82662100Y-66079286D02*
X82590671Y-66007858D01*
X82590671Y-66007858D02*
X82519242Y-65865000D01*
X82519242Y-65865000D02*
X82447814Y-65579286D01*
X82447814Y-65579286D02*
X82376385Y-65436429D01*
X82376385Y-65436429D02*
X82304957Y-65365000D01*
X82304957Y-65365000D02*
X82162100Y-65293572D01*
X82162100Y-65293572D02*
X82019242Y-65293572D01*
X82019242Y-65293572D02*
X81876385Y-65365000D01*
X81876385Y-65365000D02*
X81804957Y-65436429D01*
X81804957Y-65436429D02*
X81733528Y-65579286D01*
X81733528Y-65579286D02*
X81733528Y-65936429D01*
X81733528Y-65936429D02*
X81804957Y-66150715D01*
X82447814Y-67293571D02*
X82519242Y-67507857D01*
X82519242Y-67507857D02*
X82590671Y-67579286D01*
X82590671Y-67579286D02*
X82733528Y-67650714D01*
X82733528Y-67650714D02*
X82947814Y-67650714D01*
X82947814Y-67650714D02*
X83090671Y-67579286D01*
X83090671Y-67579286D02*
X83162100Y-67507857D01*
X83162100Y-67507857D02*
X83233528Y-67365000D01*
X83233528Y-67365000D02*
X83233528Y-66793571D01*
X83233528Y-66793571D02*
X81733528Y-66793571D01*
X81733528Y-66793571D02*
X81733528Y-67293571D01*
X81733528Y-67293571D02*
X81804957Y-67436429D01*
X81804957Y-67436429D02*
X81876385Y-67507857D01*
X81876385Y-67507857D02*
X82019242Y-67579286D01*
X82019242Y-67579286D02*
X82162100Y-67579286D01*
X82162100Y-67579286D02*
X82304957Y-67507857D01*
X82304957Y-67507857D02*
X82376385Y-67436429D01*
X82376385Y-67436429D02*
X82447814Y-67293571D01*
X82447814Y-67293571D02*
X82447814Y-66793571D01*
X82804957Y-69365000D02*
X82804957Y-70079286D01*
X83233528Y-69222143D02*
X81733528Y-69722143D01*
X81733528Y-69722143D02*
X83233528Y-70222143D01*
D10*
X117564819Y-51324095D02*
X118374342Y-51324095D01*
X118374342Y-51324095D02*
X118469580Y-51371714D01*
X118469580Y-51371714D02*
X118517200Y-51419333D01*
X118517200Y-51419333D02*
X118564819Y-51514571D01*
X118564819Y-51514571D02*
X118564819Y-51705047D01*
X118564819Y-51705047D02*
X118517200Y-51800285D01*
X118517200Y-51800285D02*
X118469580Y-51847904D01*
X118469580Y-51847904D02*
X118374342Y-51895523D01*
X118374342Y-51895523D02*
X117564819Y-51895523D01*
X118517200Y-52324095D02*
X118564819Y-52466952D01*
X118564819Y-52466952D02*
X118564819Y-52705047D01*
X118564819Y-52705047D02*
X118517200Y-52800285D01*
X118517200Y-52800285D02*
X118469580Y-52847904D01*
X118469580Y-52847904D02*
X118374342Y-52895523D01*
X118374342Y-52895523D02*
X118279104Y-52895523D01*
X118279104Y-52895523D02*
X118183866Y-52847904D01*
X118183866Y-52847904D02*
X118136247Y-52800285D01*
X118136247Y-52800285D02*
X118088628Y-52705047D01*
X118088628Y-52705047D02*
X118041009Y-52514571D01*
X118041009Y-52514571D02*
X117993390Y-52419333D01*
X117993390Y-52419333D02*
X117945771Y-52371714D01*
X117945771Y-52371714D02*
X117850533Y-52324095D01*
X117850533Y-52324095D02*
X117755295Y-52324095D01*
X117755295Y-52324095D02*
X117660057Y-52371714D01*
X117660057Y-52371714D02*
X117612438Y-52419333D01*
X117612438Y-52419333D02*
X117564819Y-52514571D01*
X117564819Y-52514571D02*
X117564819Y-52752666D01*
X117564819Y-52752666D02*
X117612438Y-52895523D01*
X118041009Y-53657428D02*
X118088628Y-53800285D01*
X118088628Y-53800285D02*
X118136247Y-53847904D01*
X118136247Y-53847904D02*
X118231485Y-53895523D01*
X118231485Y-53895523D02*
X118374342Y-53895523D01*
X118374342Y-53895523D02*
X118469580Y-53847904D01*
X118469580Y-53847904D02*
X118517200Y-53800285D01*
X118517200Y-53800285D02*
X118564819Y-53705047D01*
X118564819Y-53705047D02*
X118564819Y-53324095D01*
X118564819Y-53324095D02*
X117564819Y-53324095D01*
X117564819Y-53324095D02*
X117564819Y-53657428D01*
X117564819Y-53657428D02*
X117612438Y-53752666D01*
X117612438Y-53752666D02*
X117660057Y-53800285D01*
X117660057Y-53800285D02*
X117755295Y-53847904D01*
X117755295Y-53847904D02*
X117850533Y-53847904D01*
X117850533Y-53847904D02*
X117945771Y-53800285D01*
X117945771Y-53800285D02*
X117993390Y-53752666D01*
X117993390Y-53752666D02*
X118041009Y-53657428D01*
X118041009Y-53657428D02*
X118041009Y-53324095D01*
X118469580Y-54895523D02*
X118517200Y-54847904D01*
X118517200Y-54847904D02*
X118564819Y-54705047D01*
X118564819Y-54705047D02*
X118564819Y-54609809D01*
X118564819Y-54609809D02*
X118517200Y-54466952D01*
X118517200Y-54466952D02*
X118421961Y-54371714D01*
X118421961Y-54371714D02*
X118326723Y-54324095D01*
X118326723Y-54324095D02*
X118136247Y-54276476D01*
X118136247Y-54276476D02*
X117993390Y-54276476D01*
X117993390Y-54276476D02*
X117802914Y-54324095D01*
X117802914Y-54324095D02*
X117707676Y-54371714D01*
X117707676Y-54371714D02*
X117612438Y-54466952D01*
X117612438Y-54466952D02*
X117564819Y-54609809D01*
X117564819Y-54609809D02*
X117564819Y-54705047D01*
X117564819Y-54705047D02*
X117612438Y-54847904D01*
X117612438Y-54847904D02*
X117660057Y-54895523D01*
D11*
X155393528Y-69465715D02*
X155393528Y-70465715D01*
X155393528Y-70465715D02*
X156893528Y-69822858D01*
X155893528Y-71680001D02*
X156893528Y-71680001D01*
X155322100Y-71322858D02*
X156393528Y-70965715D01*
X156393528Y-70965715D02*
X156393528Y-71894286D01*
X156893528Y-72465714D02*
X155393528Y-72465714D01*
X156107814Y-72465714D02*
X156107814Y-73322857D01*
X156893528Y-73322857D02*
X155393528Y-73322857D01*
X156750671Y-74894286D02*
X156822100Y-74822858D01*
X156822100Y-74822858D02*
X156893528Y-74608572D01*
X156893528Y-74608572D02*
X156893528Y-74465715D01*
X156893528Y-74465715D02*
X156822100Y-74251429D01*
X156822100Y-74251429D02*
X156679242Y-74108572D01*
X156679242Y-74108572D02*
X156536385Y-74037143D01*
X156536385Y-74037143D02*
X156250671Y-73965715D01*
X156250671Y-73965715D02*
X156036385Y-73965715D01*
X156036385Y-73965715D02*
X155750671Y-74037143D01*
X155750671Y-74037143D02*
X155607814Y-74108572D01*
X155607814Y-74108572D02*
X155464957Y-74251429D01*
X155464957Y-74251429D02*
X155393528Y-74465715D01*
X155393528Y-74465715D02*
X155393528Y-74608572D01*
X155393528Y-74608572D02*
X155464957Y-74822858D01*
X155464957Y-74822858D02*
X155536385Y-74894286D01*
X155393528Y-75322858D02*
X155393528Y-76180001D01*
X156893528Y-75751429D02*
X155393528Y-75751429D01*
X155393528Y-77394286D02*
X155393528Y-76680000D01*
X155393528Y-76680000D02*
X156107814Y-76608572D01*
X156107814Y-76608572D02*
X156036385Y-76680000D01*
X156036385Y-76680000D02*
X155964957Y-76822858D01*
X155964957Y-76822858D02*
X155964957Y-77180000D01*
X155964957Y-77180000D02*
X156036385Y-77322858D01*
X156036385Y-77322858D02*
X156107814Y-77394286D01*
X156107814Y-77394286D02*
X156250671Y-77465715D01*
X156250671Y-77465715D02*
X156607814Y-77465715D01*
X156607814Y-77465715D02*
X156750671Y-77394286D01*
X156750671Y-77394286D02*
X156822100Y-77322858D01*
X156822100Y-77322858D02*
X156893528Y-77180000D01*
X156893528Y-77180000D02*
X156893528Y-76822858D01*
X156893528Y-76822858D02*
X156822100Y-76680000D01*
X156822100Y-76680000D02*
X156750671Y-76608572D01*
X155393528Y-78751429D02*
X155393528Y-78465714D01*
X155393528Y-78465714D02*
X155464957Y-78322857D01*
X155464957Y-78322857D02*
X155536385Y-78251429D01*
X155536385Y-78251429D02*
X155750671Y-78108571D01*
X155750671Y-78108571D02*
X156036385Y-78037143D01*
X156036385Y-78037143D02*
X156607814Y-78037143D01*
X156607814Y-78037143D02*
X156750671Y-78108571D01*
X156750671Y-78108571D02*
X156822100Y-78180000D01*
X156822100Y-78180000D02*
X156893528Y-78322857D01*
X156893528Y-78322857D02*
X156893528Y-78608571D01*
X156893528Y-78608571D02*
X156822100Y-78751429D01*
X156822100Y-78751429D02*
X156750671Y-78822857D01*
X156750671Y-78822857D02*
X156607814Y-78894286D01*
X156607814Y-78894286D02*
X156250671Y-78894286D01*
X156250671Y-78894286D02*
X156107814Y-78822857D01*
X156107814Y-78822857D02*
X156036385Y-78751429D01*
X156036385Y-78751429D02*
X155964957Y-78608571D01*
X155964957Y-78608571D02*
X155964957Y-78322857D01*
X155964957Y-78322857D02*
X156036385Y-78180000D01*
X156036385Y-78180000D02*
X156107814Y-78108571D01*
X156107814Y-78108571D02*
X156250671Y-78037143D01*
X155393528Y-79394285D02*
X155393528Y-80322857D01*
X155393528Y-80322857D02*
X155964957Y-79822857D01*
X155964957Y-79822857D02*
X155964957Y-80037142D01*
X155964957Y-80037142D02*
X156036385Y-80180000D01*
X156036385Y-80180000D02*
X156107814Y-80251428D01*
X156107814Y-80251428D02*
X156250671Y-80322857D01*
X156250671Y-80322857D02*
X156607814Y-80322857D01*
X156607814Y-80322857D02*
X156750671Y-80251428D01*
X156750671Y-80251428D02*
X156822100Y-80180000D01*
X156822100Y-80180000D02*
X156893528Y-80037142D01*
X156893528Y-80037142D02*
X156893528Y-79608571D01*
X156893528Y-79608571D02*
X156822100Y-79465714D01*
X156822100Y-79465714D02*
X156750671Y-79394285D01*
X156903528Y-97590000D02*
X155403528Y-97590000D01*
X155403528Y-97590000D02*
X156474957Y-98090000D01*
X156474957Y-98090000D02*
X155403528Y-98590000D01*
X155403528Y-98590000D02*
X156903528Y-98590000D01*
X156474957Y-99232858D02*
X156474957Y-99947144D01*
X156903528Y-99090001D02*
X155403528Y-99590001D01*
X155403528Y-99590001D02*
X156903528Y-100090001D01*
X155403528Y-100447143D02*
X156903528Y-101447143D01*
X155403528Y-101447143D02*
X156903528Y-100447143D01*
X155546385Y-101947143D02*
X155474957Y-102018571D01*
X155474957Y-102018571D02*
X155403528Y-102161429D01*
X155403528Y-102161429D02*
X155403528Y-102518571D01*
X155403528Y-102518571D02*
X155474957Y-102661429D01*
X155474957Y-102661429D02*
X155546385Y-102732857D01*
X155546385Y-102732857D02*
X155689242Y-102804286D01*
X155689242Y-102804286D02*
X155832100Y-102804286D01*
X155832100Y-102804286D02*
X156046385Y-102732857D01*
X156046385Y-102732857D02*
X156903528Y-101875714D01*
X156903528Y-101875714D02*
X156903528Y-102804286D01*
X155403528Y-103304285D02*
X155403528Y-104232857D01*
X155403528Y-104232857D02*
X155974957Y-103732857D01*
X155974957Y-103732857D02*
X155974957Y-103947142D01*
X155974957Y-103947142D02*
X156046385Y-104090000D01*
X156046385Y-104090000D02*
X156117814Y-104161428D01*
X156117814Y-104161428D02*
X156260671Y-104232857D01*
X156260671Y-104232857D02*
X156617814Y-104232857D01*
X156617814Y-104232857D02*
X156760671Y-104161428D01*
X156760671Y-104161428D02*
X156832100Y-104090000D01*
X156832100Y-104090000D02*
X156903528Y-103947142D01*
X156903528Y-103947142D02*
X156903528Y-103518571D01*
X156903528Y-103518571D02*
X156832100Y-103375714D01*
X156832100Y-103375714D02*
X156760671Y-103304285D01*
X155546385Y-104804285D02*
X155474957Y-104875713D01*
X155474957Y-104875713D02*
X155403528Y-105018571D01*
X155403528Y-105018571D02*
X155403528Y-105375713D01*
X155403528Y-105375713D02*
X155474957Y-105518571D01*
X155474957Y-105518571D02*
X155546385Y-105589999D01*
X155546385Y-105589999D02*
X155689242Y-105661428D01*
X155689242Y-105661428D02*
X155832100Y-105661428D01*
X155832100Y-105661428D02*
X156046385Y-105589999D01*
X156046385Y-105589999D02*
X156903528Y-104732856D01*
X156903528Y-104732856D02*
X156903528Y-105661428D01*
X156903528Y-121710000D02*
X155403528Y-121710000D01*
X155403528Y-121710000D02*
X156474957Y-122210000D01*
X156474957Y-122210000D02*
X155403528Y-122710000D01*
X155403528Y-122710000D02*
X156903528Y-122710000D01*
X156474957Y-123352858D02*
X156474957Y-124067144D01*
X156903528Y-123210001D02*
X155403528Y-123710001D01*
X155403528Y-123710001D02*
X156903528Y-124210001D01*
X155403528Y-124567143D02*
X156903528Y-125567143D01*
X155403528Y-125567143D02*
X156903528Y-124567143D01*
X155546385Y-126067143D02*
X155474957Y-126138571D01*
X155474957Y-126138571D02*
X155403528Y-126281429D01*
X155403528Y-126281429D02*
X155403528Y-126638571D01*
X155403528Y-126638571D02*
X155474957Y-126781429D01*
X155474957Y-126781429D02*
X155546385Y-126852857D01*
X155546385Y-126852857D02*
X155689242Y-126924286D01*
X155689242Y-126924286D02*
X155832100Y-126924286D01*
X155832100Y-126924286D02*
X156046385Y-126852857D01*
X156046385Y-126852857D02*
X156903528Y-125995714D01*
X156903528Y-125995714D02*
X156903528Y-126924286D01*
X155403528Y-127424285D02*
X155403528Y-128352857D01*
X155403528Y-128352857D02*
X155974957Y-127852857D01*
X155974957Y-127852857D02*
X155974957Y-128067142D01*
X155974957Y-128067142D02*
X156046385Y-128210000D01*
X156046385Y-128210000D02*
X156117814Y-128281428D01*
X156117814Y-128281428D02*
X156260671Y-128352857D01*
X156260671Y-128352857D02*
X156617814Y-128352857D01*
X156617814Y-128352857D02*
X156760671Y-128281428D01*
X156760671Y-128281428D02*
X156832100Y-128210000D01*
X156832100Y-128210000D02*
X156903528Y-128067142D01*
X156903528Y-128067142D02*
X156903528Y-127638571D01*
X156903528Y-127638571D02*
X156832100Y-127495714D01*
X156832100Y-127495714D02*
X156760671Y-127424285D01*
X155546385Y-128924285D02*
X155474957Y-128995713D01*
X155474957Y-128995713D02*
X155403528Y-129138571D01*
X155403528Y-129138571D02*
X155403528Y-129495713D01*
X155403528Y-129495713D02*
X155474957Y-129638571D01*
X155474957Y-129638571D02*
X155546385Y-129709999D01*
X155546385Y-129709999D02*
X155689242Y-129781428D01*
X155689242Y-129781428D02*
X155832100Y-129781428D01*
X155832100Y-129781428D02*
X156046385Y-129709999D01*
X156046385Y-129709999D02*
X156903528Y-128852856D01*
X156903528Y-128852856D02*
X156903528Y-129781428D01*
X143328528Y-69465715D02*
X143328528Y-70465715D01*
X143328528Y-70465715D02*
X144828528Y-69822858D01*
X143828528Y-71680001D02*
X144828528Y-71680001D01*
X143257100Y-71322858D02*
X144328528Y-70965715D01*
X144328528Y-70965715D02*
X144328528Y-71894286D01*
X144828528Y-72465714D02*
X143328528Y-72465714D01*
X144042814Y-72465714D02*
X144042814Y-73322857D01*
X144828528Y-73322857D02*
X143328528Y-73322857D01*
X144685671Y-74894286D02*
X144757100Y-74822858D01*
X144757100Y-74822858D02*
X144828528Y-74608572D01*
X144828528Y-74608572D02*
X144828528Y-74465715D01*
X144828528Y-74465715D02*
X144757100Y-74251429D01*
X144757100Y-74251429D02*
X144614242Y-74108572D01*
X144614242Y-74108572D02*
X144471385Y-74037143D01*
X144471385Y-74037143D02*
X144185671Y-73965715D01*
X144185671Y-73965715D02*
X143971385Y-73965715D01*
X143971385Y-73965715D02*
X143685671Y-74037143D01*
X143685671Y-74037143D02*
X143542814Y-74108572D01*
X143542814Y-74108572D02*
X143399957Y-74251429D01*
X143399957Y-74251429D02*
X143328528Y-74465715D01*
X143328528Y-74465715D02*
X143328528Y-74608572D01*
X143328528Y-74608572D02*
X143399957Y-74822858D01*
X143399957Y-74822858D02*
X143471385Y-74894286D01*
X143328528Y-75322858D02*
X143328528Y-76180001D01*
X144828528Y-75751429D02*
X143328528Y-75751429D01*
X143328528Y-77394286D02*
X143328528Y-76680000D01*
X143328528Y-76680000D02*
X144042814Y-76608572D01*
X144042814Y-76608572D02*
X143971385Y-76680000D01*
X143971385Y-76680000D02*
X143899957Y-76822858D01*
X143899957Y-76822858D02*
X143899957Y-77180000D01*
X143899957Y-77180000D02*
X143971385Y-77322858D01*
X143971385Y-77322858D02*
X144042814Y-77394286D01*
X144042814Y-77394286D02*
X144185671Y-77465715D01*
X144185671Y-77465715D02*
X144542814Y-77465715D01*
X144542814Y-77465715D02*
X144685671Y-77394286D01*
X144685671Y-77394286D02*
X144757100Y-77322858D01*
X144757100Y-77322858D02*
X144828528Y-77180000D01*
X144828528Y-77180000D02*
X144828528Y-76822858D01*
X144828528Y-76822858D02*
X144757100Y-76680000D01*
X144757100Y-76680000D02*
X144685671Y-76608572D01*
X143328528Y-77965714D02*
X143328528Y-78965714D01*
X143328528Y-78965714D02*
X144828528Y-78322857D01*
X143328528Y-79394285D02*
X143328528Y-80322857D01*
X143328528Y-80322857D02*
X143899957Y-79822857D01*
X143899957Y-79822857D02*
X143899957Y-80037142D01*
X143899957Y-80037142D02*
X143971385Y-80180000D01*
X143971385Y-80180000D02*
X144042814Y-80251428D01*
X144042814Y-80251428D02*
X144185671Y-80322857D01*
X144185671Y-80322857D02*
X144542814Y-80322857D01*
X144542814Y-80322857D02*
X144685671Y-80251428D01*
X144685671Y-80251428D02*
X144757100Y-80180000D01*
X144757100Y-80180000D02*
X144828528Y-80037142D01*
X144828528Y-80037142D02*
X144828528Y-79608571D01*
X144828528Y-79608571D02*
X144757100Y-79465714D01*
X144757100Y-79465714D02*
X144685671Y-79394285D01*
D10*
X95974819Y-51324095D02*
X96784342Y-51324095D01*
X96784342Y-51324095D02*
X96879580Y-51371714D01*
X96879580Y-51371714D02*
X96927200Y-51419333D01*
X96927200Y-51419333D02*
X96974819Y-51514571D01*
X96974819Y-51514571D02*
X96974819Y-51705047D01*
X96974819Y-51705047D02*
X96927200Y-51800285D01*
X96927200Y-51800285D02*
X96879580Y-51847904D01*
X96879580Y-51847904D02*
X96784342Y-51895523D01*
X96784342Y-51895523D02*
X95974819Y-51895523D01*
X96927200Y-52324095D02*
X96974819Y-52466952D01*
X96974819Y-52466952D02*
X96974819Y-52705047D01*
X96974819Y-52705047D02*
X96927200Y-52800285D01*
X96927200Y-52800285D02*
X96879580Y-52847904D01*
X96879580Y-52847904D02*
X96784342Y-52895523D01*
X96784342Y-52895523D02*
X96689104Y-52895523D01*
X96689104Y-52895523D02*
X96593866Y-52847904D01*
X96593866Y-52847904D02*
X96546247Y-52800285D01*
X96546247Y-52800285D02*
X96498628Y-52705047D01*
X96498628Y-52705047D02*
X96451009Y-52514571D01*
X96451009Y-52514571D02*
X96403390Y-52419333D01*
X96403390Y-52419333D02*
X96355771Y-52371714D01*
X96355771Y-52371714D02*
X96260533Y-52324095D01*
X96260533Y-52324095D02*
X96165295Y-52324095D01*
X96165295Y-52324095D02*
X96070057Y-52371714D01*
X96070057Y-52371714D02*
X96022438Y-52419333D01*
X96022438Y-52419333D02*
X95974819Y-52514571D01*
X95974819Y-52514571D02*
X95974819Y-52752666D01*
X95974819Y-52752666D02*
X96022438Y-52895523D01*
X96451009Y-53657428D02*
X96498628Y-53800285D01*
X96498628Y-53800285D02*
X96546247Y-53847904D01*
X96546247Y-53847904D02*
X96641485Y-53895523D01*
X96641485Y-53895523D02*
X96784342Y-53895523D01*
X96784342Y-53895523D02*
X96879580Y-53847904D01*
X96879580Y-53847904D02*
X96927200Y-53800285D01*
X96927200Y-53800285D02*
X96974819Y-53705047D01*
X96974819Y-53705047D02*
X96974819Y-53324095D01*
X96974819Y-53324095D02*
X95974819Y-53324095D01*
X95974819Y-53324095D02*
X95974819Y-53657428D01*
X95974819Y-53657428D02*
X96022438Y-53752666D01*
X96022438Y-53752666D02*
X96070057Y-53800285D01*
X96070057Y-53800285D02*
X96165295Y-53847904D01*
X96165295Y-53847904D02*
X96260533Y-53847904D01*
X96260533Y-53847904D02*
X96355771Y-53800285D01*
X96355771Y-53800285D02*
X96403390Y-53752666D01*
X96403390Y-53752666D02*
X96451009Y-53657428D01*
X96451009Y-53657428D02*
X96451009Y-53324095D01*
X96974819Y-54324095D02*
X95974819Y-54324095D01*
X95974819Y-54324095D02*
X95974819Y-54562190D01*
X95974819Y-54562190D02*
X96022438Y-54705047D01*
X96022438Y-54705047D02*
X96117676Y-54800285D01*
X96117676Y-54800285D02*
X96212914Y-54847904D01*
X96212914Y-54847904D02*
X96403390Y-54895523D01*
X96403390Y-54895523D02*
X96546247Y-54895523D01*
X96546247Y-54895523D02*
X96736723Y-54847904D01*
X96736723Y-54847904D02*
X96831961Y-54800285D01*
X96831961Y-54800285D02*
X96927200Y-54705047D01*
X96927200Y-54705047D02*
X96974819Y-54562190D01*
X96974819Y-54562190D02*
X96974819Y-54324095D01*
D11*
X105458528Y-65620000D02*
X103958528Y-65620000D01*
X103958528Y-65620000D02*
X105029957Y-66120000D01*
X105029957Y-66120000D02*
X103958528Y-66620000D01*
X103958528Y-66620000D02*
X105458528Y-66620000D01*
X105315671Y-68191429D02*
X105387100Y-68120001D01*
X105387100Y-68120001D02*
X105458528Y-67905715D01*
X105458528Y-67905715D02*
X105458528Y-67762858D01*
X105458528Y-67762858D02*
X105387100Y-67548572D01*
X105387100Y-67548572D02*
X105244242Y-67405715D01*
X105244242Y-67405715D02*
X105101385Y-67334286D01*
X105101385Y-67334286D02*
X104815671Y-67262858D01*
X104815671Y-67262858D02*
X104601385Y-67262858D01*
X104601385Y-67262858D02*
X104315671Y-67334286D01*
X104315671Y-67334286D02*
X104172814Y-67405715D01*
X104172814Y-67405715D02*
X104029957Y-67548572D01*
X104029957Y-67548572D02*
X103958528Y-67762858D01*
X103958528Y-67762858D02*
X103958528Y-67905715D01*
X103958528Y-67905715D02*
X104029957Y-68120001D01*
X104029957Y-68120001D02*
X104101385Y-68191429D01*
X105458528Y-68834286D02*
X103958528Y-68834286D01*
X103958528Y-68834286D02*
X103958528Y-69405715D01*
X103958528Y-69405715D02*
X104029957Y-69548572D01*
X104029957Y-69548572D02*
X104101385Y-69620001D01*
X104101385Y-69620001D02*
X104244242Y-69691429D01*
X104244242Y-69691429D02*
X104458528Y-69691429D01*
X104458528Y-69691429D02*
X104601385Y-69620001D01*
X104601385Y-69620001D02*
X104672814Y-69548572D01*
X104672814Y-69548572D02*
X104744242Y-69405715D01*
X104744242Y-69405715D02*
X104744242Y-68834286D01*
X104101385Y-70262858D02*
X104029957Y-70334286D01*
X104029957Y-70334286D02*
X103958528Y-70477144D01*
X103958528Y-70477144D02*
X103958528Y-70834286D01*
X103958528Y-70834286D02*
X104029957Y-70977144D01*
X104029957Y-70977144D02*
X104101385Y-71048572D01*
X104101385Y-71048572D02*
X104244242Y-71120001D01*
X104244242Y-71120001D02*
X104387100Y-71120001D01*
X104387100Y-71120001D02*
X104601385Y-71048572D01*
X104601385Y-71048572D02*
X105458528Y-70191429D01*
X105458528Y-70191429D02*
X105458528Y-71120001D01*
X104101385Y-71691429D02*
X104029957Y-71762857D01*
X104029957Y-71762857D02*
X103958528Y-71905715D01*
X103958528Y-71905715D02*
X103958528Y-72262857D01*
X103958528Y-72262857D02*
X104029957Y-72405715D01*
X104029957Y-72405715D02*
X104101385Y-72477143D01*
X104101385Y-72477143D02*
X104244242Y-72548572D01*
X104244242Y-72548572D02*
X104387100Y-72548572D01*
X104387100Y-72548572D02*
X104601385Y-72477143D01*
X104601385Y-72477143D02*
X105458528Y-71620000D01*
X105458528Y-71620000D02*
X105458528Y-72548572D01*
X104101385Y-73120000D02*
X104029957Y-73191428D01*
X104029957Y-73191428D02*
X103958528Y-73334286D01*
X103958528Y-73334286D02*
X103958528Y-73691428D01*
X103958528Y-73691428D02*
X104029957Y-73834286D01*
X104029957Y-73834286D02*
X104101385Y-73905714D01*
X104101385Y-73905714D02*
X104244242Y-73977143D01*
X104244242Y-73977143D02*
X104387100Y-73977143D01*
X104387100Y-73977143D02*
X104601385Y-73905714D01*
X104601385Y-73905714D02*
X105458528Y-73048571D01*
X105458528Y-73048571D02*
X105458528Y-73977143D01*
X105458528Y-75405714D02*
X105458528Y-74548571D01*
X105458528Y-74977142D02*
X103958528Y-74977142D01*
X103958528Y-74977142D02*
X104172814Y-74834285D01*
X104172814Y-74834285D02*
X104315671Y-74691428D01*
X104315671Y-74691428D02*
X104387100Y-74548571D01*
X105029957Y-75977142D02*
X105029957Y-76691428D01*
X105458528Y-75834285D02*
X103958528Y-76334285D01*
X103958528Y-76334285D02*
X105458528Y-76834285D01*
D10*
X107404819Y-52149524D02*
X107404819Y-52720952D01*
X108404819Y-52435238D02*
X107404819Y-52435238D01*
X108404819Y-52959048D02*
X107738152Y-53482857D01*
X107738152Y-52959048D02*
X108404819Y-53482857D01*
X108404819Y-53863810D02*
X107404819Y-53863810D01*
X107404819Y-53863810D02*
X107404819Y-54101905D01*
X107404819Y-54101905D02*
X107452438Y-54244762D01*
X107452438Y-54244762D02*
X107547676Y-54340000D01*
X107547676Y-54340000D02*
X107642914Y-54387619D01*
X107642914Y-54387619D02*
X107833390Y-54435238D01*
X107833390Y-54435238D02*
X107976247Y-54435238D01*
X107976247Y-54435238D02*
X108166723Y-54387619D01*
X108166723Y-54387619D02*
X108261961Y-54340000D01*
X108261961Y-54340000D02*
X108357200Y-54244762D01*
X108357200Y-54244762D02*
X108404819Y-54101905D01*
X108404819Y-54101905D02*
X108404819Y-53863810D01*
X81369819Y-87082857D02*
X81369819Y-87701904D01*
X81369819Y-87701904D02*
X81750771Y-87368571D01*
X81750771Y-87368571D02*
X81750771Y-87511428D01*
X81750771Y-87511428D02*
X81798390Y-87606666D01*
X81798390Y-87606666D02*
X81846009Y-87654285D01*
X81846009Y-87654285D02*
X81941247Y-87701904D01*
X81941247Y-87701904D02*
X82179342Y-87701904D01*
X82179342Y-87701904D02*
X82274580Y-87654285D01*
X82274580Y-87654285D02*
X82322200Y-87606666D01*
X82322200Y-87606666D02*
X82369819Y-87511428D01*
X82369819Y-87511428D02*
X82369819Y-87225714D01*
X82369819Y-87225714D02*
X82322200Y-87130476D01*
X82322200Y-87130476D02*
X82274580Y-87082857D01*
X82274580Y-88130476D02*
X82322200Y-88178095D01*
X82322200Y-88178095D02*
X82369819Y-88130476D01*
X82369819Y-88130476D02*
X82322200Y-88082857D01*
X82322200Y-88082857D02*
X82274580Y-88130476D01*
X82274580Y-88130476D02*
X82369819Y-88130476D01*
X81369819Y-89035237D02*
X81369819Y-88844761D01*
X81369819Y-88844761D02*
X81417438Y-88749523D01*
X81417438Y-88749523D02*
X81465057Y-88701904D01*
X81465057Y-88701904D02*
X81607914Y-88606666D01*
X81607914Y-88606666D02*
X81798390Y-88559047D01*
X81798390Y-88559047D02*
X82179342Y-88559047D01*
X82179342Y-88559047D02*
X82274580Y-88606666D01*
X82274580Y-88606666D02*
X82322200Y-88654285D01*
X82322200Y-88654285D02*
X82369819Y-88749523D01*
X82369819Y-88749523D02*
X82369819Y-88939999D01*
X82369819Y-88939999D02*
X82322200Y-89035237D01*
X82322200Y-89035237D02*
X82274580Y-89082856D01*
X82274580Y-89082856D02*
X82179342Y-89130475D01*
X82179342Y-89130475D02*
X81941247Y-89130475D01*
X81941247Y-89130475D02*
X81846009Y-89082856D01*
X81846009Y-89082856D02*
X81798390Y-89035237D01*
X81798390Y-89035237D02*
X81750771Y-88939999D01*
X81750771Y-88939999D02*
X81750771Y-88749523D01*
X81750771Y-88749523D02*
X81798390Y-88654285D01*
X81798390Y-88654285D02*
X81846009Y-88606666D01*
X81846009Y-88606666D02*
X81941247Y-88559047D01*
X81798390Y-89701904D02*
X81750771Y-89606666D01*
X81750771Y-89606666D02*
X81703152Y-89559047D01*
X81703152Y-89559047D02*
X81607914Y-89511428D01*
X81607914Y-89511428D02*
X81560295Y-89511428D01*
X81560295Y-89511428D02*
X81465057Y-89559047D01*
X81465057Y-89559047D02*
X81417438Y-89606666D01*
X81417438Y-89606666D02*
X81369819Y-89701904D01*
X81369819Y-89701904D02*
X81369819Y-89892380D01*
X81369819Y-89892380D02*
X81417438Y-89987618D01*
X81417438Y-89987618D02*
X81465057Y-90035237D01*
X81465057Y-90035237D02*
X81560295Y-90082856D01*
X81560295Y-90082856D02*
X81607914Y-90082856D01*
X81607914Y-90082856D02*
X81703152Y-90035237D01*
X81703152Y-90035237D02*
X81750771Y-89987618D01*
X81750771Y-89987618D02*
X81798390Y-89892380D01*
X81798390Y-89892380D02*
X81798390Y-89701904D01*
X81798390Y-89701904D02*
X81846009Y-89606666D01*
X81846009Y-89606666D02*
X81893628Y-89559047D01*
X81893628Y-89559047D02*
X81988866Y-89511428D01*
X81988866Y-89511428D02*
X82179342Y-89511428D01*
X82179342Y-89511428D02*
X82274580Y-89559047D01*
X82274580Y-89559047D02*
X82322200Y-89606666D01*
X82322200Y-89606666D02*
X82369819Y-89701904D01*
X82369819Y-89701904D02*
X82369819Y-89892380D01*
X82369819Y-89892380D02*
X82322200Y-89987618D01*
X82322200Y-89987618D02*
X82274580Y-90035237D01*
X82274580Y-90035237D02*
X82179342Y-90082856D01*
X82179342Y-90082856D02*
X81988866Y-90082856D01*
X81988866Y-90082856D02*
X81893628Y-90035237D01*
X81893628Y-90035237D02*
X81846009Y-89987618D01*
X81846009Y-89987618D02*
X81798390Y-89892380D01*
X81369819Y-90939999D02*
X81369819Y-90749523D01*
X81369819Y-90749523D02*
X81417438Y-90654285D01*
X81417438Y-90654285D02*
X81465057Y-90606666D01*
X81465057Y-90606666D02*
X81607914Y-90511428D01*
X81607914Y-90511428D02*
X81798390Y-90463809D01*
X81798390Y-90463809D02*
X82179342Y-90463809D01*
X82179342Y-90463809D02*
X82274580Y-90511428D01*
X82274580Y-90511428D02*
X82322200Y-90559047D01*
X82322200Y-90559047D02*
X82369819Y-90654285D01*
X82369819Y-90654285D02*
X82369819Y-90844761D01*
X82369819Y-90844761D02*
X82322200Y-90939999D01*
X82322200Y-90939999D02*
X82274580Y-90987618D01*
X82274580Y-90987618D02*
X82179342Y-91035237D01*
X82179342Y-91035237D02*
X81941247Y-91035237D01*
X81941247Y-91035237D02*
X81846009Y-90987618D01*
X81846009Y-90987618D02*
X81798390Y-90939999D01*
X81798390Y-90939999D02*
X81750771Y-90844761D01*
X81750771Y-90844761D02*
X81750771Y-90654285D01*
X81750771Y-90654285D02*
X81798390Y-90559047D01*
X81798390Y-90559047D02*
X81846009Y-90511428D01*
X81846009Y-90511428D02*
X81941247Y-90463809D01*
X81703152Y-91892380D02*
X82369819Y-91892380D01*
X81322200Y-91654285D02*
X82036485Y-91416190D01*
X82036485Y-91416190D02*
X82036485Y-92035237D01*
X82369819Y-93178095D02*
X81369819Y-93178095D01*
X81369819Y-93178095D02*
X82084104Y-93511428D01*
X82084104Y-93511428D02*
X81369819Y-93844761D01*
X81369819Y-93844761D02*
X82369819Y-93844761D01*
X82369819Y-94320952D02*
X81369819Y-94320952D01*
X81846009Y-94320952D02*
X81846009Y-94892380D01*
X82369819Y-94892380D02*
X81369819Y-94892380D01*
X81703152Y-95273333D02*
X81703152Y-95797142D01*
X81703152Y-95797142D02*
X82369819Y-95273333D01*
X82369819Y-95273333D02*
X82369819Y-95797142D01*
X160871819Y-52220952D02*
X160871819Y-52792380D01*
X161871819Y-52506666D02*
X160871819Y-52506666D01*
X161871819Y-53030476D02*
X161205152Y-53554285D01*
X161205152Y-53030476D02*
X161871819Y-53554285D01*
X161586104Y-53887619D02*
X161586104Y-54363809D01*
X161871819Y-53792381D02*
X160871819Y-54125714D01*
X160871819Y-54125714D02*
X161871819Y-54459047D01*
X144869819Y-52149524D02*
X144869819Y-52720952D01*
X145869819Y-52435238D02*
X144869819Y-52435238D01*
X145869819Y-52959048D02*
X145203152Y-53482857D01*
X145203152Y-52959048D02*
X145869819Y-53482857D01*
X145346009Y-54197143D02*
X145393628Y-54340000D01*
X145393628Y-54340000D02*
X145441247Y-54387619D01*
X145441247Y-54387619D02*
X145536485Y-54435238D01*
X145536485Y-54435238D02*
X145679342Y-54435238D01*
X145679342Y-54435238D02*
X145774580Y-54387619D01*
X145774580Y-54387619D02*
X145822200Y-54340000D01*
X145822200Y-54340000D02*
X145869819Y-54244762D01*
X145869819Y-54244762D02*
X145869819Y-53863810D01*
X145869819Y-53863810D02*
X144869819Y-53863810D01*
X144869819Y-53863810D02*
X144869819Y-54197143D01*
X144869819Y-54197143D02*
X144917438Y-54292381D01*
X144917438Y-54292381D02*
X144965057Y-54340000D01*
X144965057Y-54340000D02*
X145060295Y-54387619D01*
X145060295Y-54387619D02*
X145155533Y-54387619D01*
X145155533Y-54387619D02*
X145250771Y-54340000D01*
X145250771Y-54340000D02*
X145298390Y-54292381D01*
X145298390Y-54292381D02*
X145346009Y-54197143D01*
X145346009Y-54197143D02*
X145346009Y-53863810D01*
X156029819Y-52816190D02*
X155553628Y-52482857D01*
X156029819Y-52244762D02*
X155029819Y-52244762D01*
X155029819Y-52244762D02*
X155029819Y-52625714D01*
X155029819Y-52625714D02*
X155077438Y-52720952D01*
X155077438Y-52720952D02*
X155125057Y-52768571D01*
X155125057Y-52768571D02*
X155220295Y-52816190D01*
X155220295Y-52816190D02*
X155363152Y-52816190D01*
X155363152Y-52816190D02*
X155458390Y-52768571D01*
X155458390Y-52768571D02*
X155506009Y-52720952D01*
X155506009Y-52720952D02*
X155553628Y-52625714D01*
X155553628Y-52625714D02*
X155553628Y-52244762D01*
X156029819Y-53149524D02*
X155363152Y-53673333D01*
X155363152Y-53149524D02*
X156029819Y-53673333D01*
X155744104Y-54006667D02*
X155744104Y-54482857D01*
X156029819Y-53911429D02*
X155029819Y-54244762D01*
X155029819Y-54244762D02*
X156029819Y-54578095D01*
D11*
X143328528Y-96135715D02*
X143328528Y-97135715D01*
X143328528Y-97135715D02*
X144828528Y-96492858D01*
X143828528Y-98350001D02*
X144828528Y-98350001D01*
X143257100Y-97992858D02*
X144328528Y-97635715D01*
X144328528Y-97635715D02*
X144328528Y-98564286D01*
X144828528Y-99135714D02*
X143328528Y-99135714D01*
X144042814Y-99135714D02*
X144042814Y-99992857D01*
X144828528Y-99992857D02*
X143328528Y-99992857D01*
X144685671Y-101564286D02*
X144757100Y-101492858D01*
X144757100Y-101492858D02*
X144828528Y-101278572D01*
X144828528Y-101278572D02*
X144828528Y-101135715D01*
X144828528Y-101135715D02*
X144757100Y-100921429D01*
X144757100Y-100921429D02*
X144614242Y-100778572D01*
X144614242Y-100778572D02*
X144471385Y-100707143D01*
X144471385Y-100707143D02*
X144185671Y-100635715D01*
X144185671Y-100635715D02*
X143971385Y-100635715D01*
X143971385Y-100635715D02*
X143685671Y-100707143D01*
X143685671Y-100707143D02*
X143542814Y-100778572D01*
X143542814Y-100778572D02*
X143399957Y-100921429D01*
X143399957Y-100921429D02*
X143328528Y-101135715D01*
X143328528Y-101135715D02*
X143328528Y-101278572D01*
X143328528Y-101278572D02*
X143399957Y-101492858D01*
X143399957Y-101492858D02*
X143471385Y-101564286D01*
X143328528Y-101992858D02*
X143328528Y-102850001D01*
X144828528Y-102421429D02*
X143328528Y-102421429D01*
X144828528Y-104135715D02*
X144828528Y-103278572D01*
X144828528Y-103707143D02*
X143328528Y-103707143D01*
X143328528Y-103707143D02*
X143542814Y-103564286D01*
X143542814Y-103564286D02*
X143685671Y-103421429D01*
X143685671Y-103421429D02*
X143757100Y-103278572D01*
X143828528Y-105421429D02*
X144828528Y-105421429D01*
X143257100Y-105064286D02*
X144328528Y-104707143D01*
X144328528Y-104707143D02*
X144328528Y-105635714D01*
X143971385Y-106421428D02*
X143899957Y-106278571D01*
X143899957Y-106278571D02*
X143828528Y-106207142D01*
X143828528Y-106207142D02*
X143685671Y-106135714D01*
X143685671Y-106135714D02*
X143614242Y-106135714D01*
X143614242Y-106135714D02*
X143471385Y-106207142D01*
X143471385Y-106207142D02*
X143399957Y-106278571D01*
X143399957Y-106278571D02*
X143328528Y-106421428D01*
X143328528Y-106421428D02*
X143328528Y-106707142D01*
X143328528Y-106707142D02*
X143399957Y-106850000D01*
X143399957Y-106850000D02*
X143471385Y-106921428D01*
X143471385Y-106921428D02*
X143614242Y-106992857D01*
X143614242Y-106992857D02*
X143685671Y-106992857D01*
X143685671Y-106992857D02*
X143828528Y-106921428D01*
X143828528Y-106921428D02*
X143899957Y-106850000D01*
X143899957Y-106850000D02*
X143971385Y-106707142D01*
X143971385Y-106707142D02*
X143971385Y-106421428D01*
X143971385Y-106421428D02*
X144042814Y-106278571D01*
X144042814Y-106278571D02*
X144114242Y-106207142D01*
X144114242Y-106207142D02*
X144257100Y-106135714D01*
X144257100Y-106135714D02*
X144542814Y-106135714D01*
X144542814Y-106135714D02*
X144685671Y-106207142D01*
X144685671Y-106207142D02*
X144757100Y-106278571D01*
X144757100Y-106278571D02*
X144828528Y-106421428D01*
X144828528Y-106421428D02*
X144828528Y-106707142D01*
X144828528Y-106707142D02*
X144757100Y-106850000D01*
X144757100Y-106850000D02*
X144685671Y-106921428D01*
X144685671Y-106921428D02*
X144542814Y-106992857D01*
X144542814Y-106992857D02*
X144257100Y-106992857D01*
X144257100Y-106992857D02*
X144114242Y-106921428D01*
X144114242Y-106921428D02*
X144042814Y-106850000D01*
X144042814Y-106850000D02*
X143971385Y-106707142D01*
D10*
X124279819Y-52744761D02*
X123803628Y-52411428D01*
X124279819Y-52173333D02*
X123279819Y-52173333D01*
X123279819Y-52173333D02*
X123279819Y-52554285D01*
X123279819Y-52554285D02*
X123327438Y-52649523D01*
X123327438Y-52649523D02*
X123375057Y-52697142D01*
X123375057Y-52697142D02*
X123470295Y-52744761D01*
X123470295Y-52744761D02*
X123613152Y-52744761D01*
X123613152Y-52744761D02*
X123708390Y-52697142D01*
X123708390Y-52697142D02*
X123756009Y-52649523D01*
X123756009Y-52649523D02*
X123803628Y-52554285D01*
X123803628Y-52554285D02*
X123803628Y-52173333D01*
X124279819Y-53078095D02*
X123613152Y-53601904D01*
X123613152Y-53078095D02*
X124279819Y-53601904D01*
X124184580Y-54554285D02*
X124232200Y-54506666D01*
X124232200Y-54506666D02*
X124279819Y-54363809D01*
X124279819Y-54363809D02*
X124279819Y-54268571D01*
X124279819Y-54268571D02*
X124232200Y-54125714D01*
X124232200Y-54125714D02*
X124136961Y-54030476D01*
X124136961Y-54030476D02*
X124041723Y-53982857D01*
X124041723Y-53982857D02*
X123851247Y-53935238D01*
X123851247Y-53935238D02*
X123708390Y-53935238D01*
X123708390Y-53935238D02*
X123517914Y-53982857D01*
X123517914Y-53982857D02*
X123422676Y-54030476D01*
X123422676Y-54030476D02*
X123327438Y-54125714D01*
X123327438Y-54125714D02*
X123279819Y-54268571D01*
X123279819Y-54268571D02*
X123279819Y-54363809D01*
X123279819Y-54363809D02*
X123327438Y-54506666D01*
X123327438Y-54506666D02*
X123375057Y-54554285D01*
D11*
X176435671Y-56517342D02*
X176507100Y-56445914D01*
X176507100Y-56445914D02*
X176578528Y-56231628D01*
X176578528Y-56231628D02*
X176578528Y-56088771D01*
X176578528Y-56088771D02*
X176507100Y-55874485D01*
X176507100Y-55874485D02*
X176364242Y-55731628D01*
X176364242Y-55731628D02*
X176221385Y-55660199D01*
X176221385Y-55660199D02*
X175935671Y-55588771D01*
X175935671Y-55588771D02*
X175721385Y-55588771D01*
X175721385Y-55588771D02*
X175435671Y-55660199D01*
X175435671Y-55660199D02*
X175292814Y-55731628D01*
X175292814Y-55731628D02*
X175149957Y-55874485D01*
X175149957Y-55874485D02*
X175078528Y-56088771D01*
X175078528Y-56088771D02*
X175078528Y-56231628D01*
X175078528Y-56231628D02*
X175149957Y-56445914D01*
X175149957Y-56445914D02*
X175221385Y-56517342D01*
X175078528Y-57445914D02*
X175078528Y-57731628D01*
X175078528Y-57731628D02*
X175149957Y-57874485D01*
X175149957Y-57874485D02*
X175292814Y-58017342D01*
X175292814Y-58017342D02*
X175578528Y-58088771D01*
X175578528Y-58088771D02*
X176078528Y-58088771D01*
X176078528Y-58088771D02*
X176364242Y-58017342D01*
X176364242Y-58017342D02*
X176507100Y-57874485D01*
X176507100Y-57874485D02*
X176578528Y-57731628D01*
X176578528Y-57731628D02*
X176578528Y-57445914D01*
X176578528Y-57445914D02*
X176507100Y-57303057D01*
X176507100Y-57303057D02*
X176364242Y-57160199D01*
X176364242Y-57160199D02*
X176078528Y-57088771D01*
X176078528Y-57088771D02*
X175578528Y-57088771D01*
X175578528Y-57088771D02*
X175292814Y-57160199D01*
X175292814Y-57160199D02*
X175149957Y-57303057D01*
X175149957Y-57303057D02*
X175078528Y-57445914D01*
X176578528Y-58731628D02*
X175078528Y-58731628D01*
X175078528Y-58731628D02*
X176149957Y-59231628D01*
X176149957Y-59231628D02*
X175078528Y-59731628D01*
X175078528Y-59731628D02*
X176578528Y-59731628D01*
X175078528Y-60303057D02*
X175078528Y-61231629D01*
X175078528Y-61231629D02*
X175649957Y-60731629D01*
X175649957Y-60731629D02*
X175649957Y-60945914D01*
X175649957Y-60945914D02*
X175721385Y-61088772D01*
X175721385Y-61088772D02*
X175792814Y-61160200D01*
X175792814Y-61160200D02*
X175935671Y-61231629D01*
X175935671Y-61231629D02*
X176292814Y-61231629D01*
X176292814Y-61231629D02*
X176435671Y-61160200D01*
X176435671Y-61160200D02*
X176507100Y-61088772D01*
X176507100Y-61088772D02*
X176578528Y-60945914D01*
X176578528Y-60945914D02*
X176578528Y-60517343D01*
X176578528Y-60517343D02*
X176507100Y-60374486D01*
X176507100Y-60374486D02*
X176435671Y-60303057D01*
X176435671Y-61874485D02*
X176507100Y-61945914D01*
X176507100Y-61945914D02*
X176578528Y-61874485D01*
X176578528Y-61874485D02*
X176507100Y-61803057D01*
X176507100Y-61803057D02*
X176435671Y-61874485D01*
X176435671Y-61874485D02*
X176578528Y-61874485D01*
X175649957Y-61874485D02*
X175721385Y-61945914D01*
X175721385Y-61945914D02*
X175792814Y-61874485D01*
X175792814Y-61874485D02*
X175721385Y-61803057D01*
X175721385Y-61803057D02*
X175649957Y-61874485D01*
X175649957Y-61874485D02*
X175792814Y-61874485D01*
X175078528Y-63731628D02*
X176292814Y-63731628D01*
X176292814Y-63731628D02*
X176435671Y-63803057D01*
X176435671Y-63803057D02*
X176507100Y-63874486D01*
X176507100Y-63874486D02*
X176578528Y-64017343D01*
X176578528Y-64017343D02*
X176578528Y-64303057D01*
X176578528Y-64303057D02*
X176507100Y-64445914D01*
X176507100Y-64445914D02*
X176435671Y-64517343D01*
X176435671Y-64517343D02*
X176292814Y-64588771D01*
X176292814Y-64588771D02*
X175078528Y-64588771D01*
X176507100Y-65231629D02*
X176578528Y-65445915D01*
X176578528Y-65445915D02*
X176578528Y-65803057D01*
X176578528Y-65803057D02*
X176507100Y-65945915D01*
X176507100Y-65945915D02*
X176435671Y-66017343D01*
X176435671Y-66017343D02*
X176292814Y-66088772D01*
X176292814Y-66088772D02*
X176149957Y-66088772D01*
X176149957Y-66088772D02*
X176007100Y-66017343D01*
X176007100Y-66017343D02*
X175935671Y-65945915D01*
X175935671Y-65945915D02*
X175864242Y-65803057D01*
X175864242Y-65803057D02*
X175792814Y-65517343D01*
X175792814Y-65517343D02*
X175721385Y-65374486D01*
X175721385Y-65374486D02*
X175649957Y-65303057D01*
X175649957Y-65303057D02*
X175507100Y-65231629D01*
X175507100Y-65231629D02*
X175364242Y-65231629D01*
X175364242Y-65231629D02*
X175221385Y-65303057D01*
X175221385Y-65303057D02*
X175149957Y-65374486D01*
X175149957Y-65374486D02*
X175078528Y-65517343D01*
X175078528Y-65517343D02*
X175078528Y-65874486D01*
X175078528Y-65874486D02*
X175149957Y-66088772D01*
X175792814Y-67231628D02*
X175864242Y-67445914D01*
X175864242Y-67445914D02*
X175935671Y-67517343D01*
X175935671Y-67517343D02*
X176078528Y-67588771D01*
X176078528Y-67588771D02*
X176292814Y-67588771D01*
X176292814Y-67588771D02*
X176435671Y-67517343D01*
X176435671Y-67517343D02*
X176507100Y-67445914D01*
X176507100Y-67445914D02*
X176578528Y-67303057D01*
X176578528Y-67303057D02*
X176578528Y-66731628D01*
X176578528Y-66731628D02*
X175078528Y-66731628D01*
X175078528Y-66731628D02*
X175078528Y-67231628D01*
X175078528Y-67231628D02*
X175149957Y-67374486D01*
X175149957Y-67374486D02*
X175221385Y-67445914D01*
X175221385Y-67445914D02*
X175364242Y-67517343D01*
X175364242Y-67517343D02*
X175507100Y-67517343D01*
X175507100Y-67517343D02*
X175649957Y-67445914D01*
X175649957Y-67445914D02*
X175721385Y-67374486D01*
X175721385Y-67374486D02*
X175792814Y-67231628D01*
X175792814Y-67231628D02*
X175792814Y-66731628D01*
X175792814Y-69874485D02*
X175864242Y-70088771D01*
X175864242Y-70088771D02*
X175935671Y-70160200D01*
X175935671Y-70160200D02*
X176078528Y-70231628D01*
X176078528Y-70231628D02*
X176292814Y-70231628D01*
X176292814Y-70231628D02*
X176435671Y-70160200D01*
X176435671Y-70160200D02*
X176507100Y-70088771D01*
X176507100Y-70088771D02*
X176578528Y-69945914D01*
X176578528Y-69945914D02*
X176578528Y-69374485D01*
X176578528Y-69374485D02*
X175078528Y-69374485D01*
X175078528Y-69374485D02*
X175078528Y-69874485D01*
X175078528Y-69874485D02*
X175149957Y-70017343D01*
X175149957Y-70017343D02*
X175221385Y-70088771D01*
X175221385Y-70088771D02*
X175364242Y-70160200D01*
X175364242Y-70160200D02*
X175507100Y-70160200D01*
X175507100Y-70160200D02*
X175649957Y-70088771D01*
X175649957Y-70088771D02*
X175721385Y-70017343D01*
X175721385Y-70017343D02*
X175792814Y-69874485D01*
X175792814Y-69874485D02*
X175792814Y-69374485D01*
X117523528Y-65620000D02*
X116023528Y-65620000D01*
X116023528Y-65620000D02*
X117094957Y-66120000D01*
X117094957Y-66120000D02*
X116023528Y-66620000D01*
X116023528Y-66620000D02*
X117523528Y-66620000D01*
X117380671Y-68191429D02*
X117452100Y-68120001D01*
X117452100Y-68120001D02*
X117523528Y-67905715D01*
X117523528Y-67905715D02*
X117523528Y-67762858D01*
X117523528Y-67762858D02*
X117452100Y-67548572D01*
X117452100Y-67548572D02*
X117309242Y-67405715D01*
X117309242Y-67405715D02*
X117166385Y-67334286D01*
X117166385Y-67334286D02*
X116880671Y-67262858D01*
X116880671Y-67262858D02*
X116666385Y-67262858D01*
X116666385Y-67262858D02*
X116380671Y-67334286D01*
X116380671Y-67334286D02*
X116237814Y-67405715D01*
X116237814Y-67405715D02*
X116094957Y-67548572D01*
X116094957Y-67548572D02*
X116023528Y-67762858D01*
X116023528Y-67762858D02*
X116023528Y-67905715D01*
X116023528Y-67905715D02*
X116094957Y-68120001D01*
X116094957Y-68120001D02*
X116166385Y-68191429D01*
X117523528Y-68834286D02*
X116023528Y-68834286D01*
X116023528Y-68834286D02*
X116023528Y-69405715D01*
X116023528Y-69405715D02*
X116094957Y-69548572D01*
X116094957Y-69548572D02*
X116166385Y-69620001D01*
X116166385Y-69620001D02*
X116309242Y-69691429D01*
X116309242Y-69691429D02*
X116523528Y-69691429D01*
X116523528Y-69691429D02*
X116666385Y-69620001D01*
X116666385Y-69620001D02*
X116737814Y-69548572D01*
X116737814Y-69548572D02*
X116809242Y-69405715D01*
X116809242Y-69405715D02*
X116809242Y-68834286D01*
X116166385Y-70262858D02*
X116094957Y-70334286D01*
X116094957Y-70334286D02*
X116023528Y-70477144D01*
X116023528Y-70477144D02*
X116023528Y-70834286D01*
X116023528Y-70834286D02*
X116094957Y-70977144D01*
X116094957Y-70977144D02*
X116166385Y-71048572D01*
X116166385Y-71048572D02*
X116309242Y-71120001D01*
X116309242Y-71120001D02*
X116452100Y-71120001D01*
X116452100Y-71120001D02*
X116666385Y-71048572D01*
X116666385Y-71048572D02*
X117523528Y-70191429D01*
X117523528Y-70191429D02*
X117523528Y-71120001D01*
X116166385Y-71691429D02*
X116094957Y-71762857D01*
X116094957Y-71762857D02*
X116023528Y-71905715D01*
X116023528Y-71905715D02*
X116023528Y-72262857D01*
X116023528Y-72262857D02*
X116094957Y-72405715D01*
X116094957Y-72405715D02*
X116166385Y-72477143D01*
X116166385Y-72477143D02*
X116309242Y-72548572D01*
X116309242Y-72548572D02*
X116452100Y-72548572D01*
X116452100Y-72548572D02*
X116666385Y-72477143D01*
X116666385Y-72477143D02*
X117523528Y-71620000D01*
X117523528Y-71620000D02*
X117523528Y-72548572D01*
X116166385Y-73120000D02*
X116094957Y-73191428D01*
X116094957Y-73191428D02*
X116023528Y-73334286D01*
X116023528Y-73334286D02*
X116023528Y-73691428D01*
X116023528Y-73691428D02*
X116094957Y-73834286D01*
X116094957Y-73834286D02*
X116166385Y-73905714D01*
X116166385Y-73905714D02*
X116309242Y-73977143D01*
X116309242Y-73977143D02*
X116452100Y-73977143D01*
X116452100Y-73977143D02*
X116666385Y-73905714D01*
X116666385Y-73905714D02*
X117523528Y-73048571D01*
X117523528Y-73048571D02*
X117523528Y-73977143D01*
X117523528Y-75405714D02*
X117523528Y-74548571D01*
X117523528Y-74977142D02*
X116023528Y-74977142D01*
X116023528Y-74977142D02*
X116237814Y-74834285D01*
X116237814Y-74834285D02*
X116380671Y-74691428D01*
X116380671Y-74691428D02*
X116452100Y-74548571D01*
X117094957Y-75977142D02*
X117094957Y-76691428D01*
X117523528Y-75834285D02*
X116023528Y-76334285D01*
X116023528Y-76334285D02*
X117523528Y-76834285D01*
X128088528Y-66370000D02*
X128088528Y-67370000D01*
X128088528Y-67370000D02*
X129588528Y-66727143D01*
X128588528Y-68584286D02*
X129588528Y-68584286D01*
X128017100Y-68227143D02*
X129088528Y-67870000D01*
X129088528Y-67870000D02*
X129088528Y-68798571D01*
X129588528Y-69369999D02*
X128088528Y-69369999D01*
X128802814Y-69369999D02*
X128802814Y-70227142D01*
X129588528Y-70227142D02*
X128088528Y-70227142D01*
X129445671Y-71798571D02*
X129517100Y-71727143D01*
X129517100Y-71727143D02*
X129588528Y-71512857D01*
X129588528Y-71512857D02*
X129588528Y-71370000D01*
X129588528Y-71370000D02*
X129517100Y-71155714D01*
X129517100Y-71155714D02*
X129374242Y-71012857D01*
X129374242Y-71012857D02*
X129231385Y-70941428D01*
X129231385Y-70941428D02*
X128945671Y-70870000D01*
X128945671Y-70870000D02*
X128731385Y-70870000D01*
X128731385Y-70870000D02*
X128445671Y-70941428D01*
X128445671Y-70941428D02*
X128302814Y-71012857D01*
X128302814Y-71012857D02*
X128159957Y-71155714D01*
X128159957Y-71155714D02*
X128088528Y-71370000D01*
X128088528Y-71370000D02*
X128088528Y-71512857D01*
X128088528Y-71512857D02*
X128159957Y-71727143D01*
X128159957Y-71727143D02*
X128231385Y-71798571D01*
X128088528Y-72227143D02*
X128088528Y-73084286D01*
X129588528Y-72655714D02*
X128088528Y-72655714D01*
X128088528Y-73441428D02*
X128088528Y-74370000D01*
X128088528Y-74370000D02*
X128659957Y-73870000D01*
X128659957Y-73870000D02*
X128659957Y-74084285D01*
X128659957Y-74084285D02*
X128731385Y-74227143D01*
X128731385Y-74227143D02*
X128802814Y-74298571D01*
X128802814Y-74298571D02*
X128945671Y-74370000D01*
X128945671Y-74370000D02*
X129302814Y-74370000D01*
X129302814Y-74370000D02*
X129445671Y-74298571D01*
X129445671Y-74298571D02*
X129517100Y-74227143D01*
X129517100Y-74227143D02*
X129588528Y-74084285D01*
X129588528Y-74084285D02*
X129588528Y-73655714D01*
X129588528Y-73655714D02*
X129517100Y-73512857D01*
X129517100Y-73512857D02*
X129445671Y-73441428D01*
X128231385Y-74941428D02*
X128159957Y-75012856D01*
X128159957Y-75012856D02*
X128088528Y-75155714D01*
X128088528Y-75155714D02*
X128088528Y-75512856D01*
X128088528Y-75512856D02*
X128159957Y-75655714D01*
X128159957Y-75655714D02*
X128231385Y-75727142D01*
X128231385Y-75727142D02*
X128374242Y-75798571D01*
X128374242Y-75798571D02*
X128517100Y-75798571D01*
X128517100Y-75798571D02*
X128731385Y-75727142D01*
X128731385Y-75727142D02*
X129588528Y-74869999D01*
X129588528Y-74869999D02*
X129588528Y-75798571D01*
D12*
X107497238Y-103099047D02*
X107497238Y-104432380D01*
X107497238Y-104432380D02*
X109497238Y-103099047D01*
X109497238Y-103099047D02*
X109497238Y-104432380D01*
X108354380Y-105479999D02*
X108259142Y-105289523D01*
X108259142Y-105289523D02*
X108163904Y-105194285D01*
X108163904Y-105194285D02*
X107973428Y-105099047D01*
X107973428Y-105099047D02*
X107878190Y-105099047D01*
X107878190Y-105099047D02*
X107687714Y-105194285D01*
X107687714Y-105194285D02*
X107592476Y-105289523D01*
X107592476Y-105289523D02*
X107497238Y-105479999D01*
X107497238Y-105479999D02*
X107497238Y-105860952D01*
X107497238Y-105860952D02*
X107592476Y-106051428D01*
X107592476Y-106051428D02*
X107687714Y-106146666D01*
X107687714Y-106146666D02*
X107878190Y-106241904D01*
X107878190Y-106241904D02*
X107973428Y-106241904D01*
X107973428Y-106241904D02*
X108163904Y-106146666D01*
X108163904Y-106146666D02*
X108259142Y-106051428D01*
X108259142Y-106051428D02*
X108354380Y-105860952D01*
X108354380Y-105860952D02*
X108354380Y-105479999D01*
X108354380Y-105479999D02*
X108449619Y-105289523D01*
X108449619Y-105289523D02*
X108544857Y-105194285D01*
X108544857Y-105194285D02*
X108735333Y-105099047D01*
X108735333Y-105099047D02*
X109116285Y-105099047D01*
X109116285Y-105099047D02*
X109306761Y-105194285D01*
X109306761Y-105194285D02*
X109402000Y-105289523D01*
X109402000Y-105289523D02*
X109497238Y-105479999D01*
X109497238Y-105479999D02*
X109497238Y-105860952D01*
X109497238Y-105860952D02*
X109402000Y-106051428D01*
X109402000Y-106051428D02*
X109306761Y-106146666D01*
X109306761Y-106146666D02*
X109116285Y-106241904D01*
X109116285Y-106241904D02*
X108735333Y-106241904D01*
X108735333Y-106241904D02*
X108544857Y-106146666D01*
X108544857Y-106146666D02*
X108449619Y-106051428D01*
X108449619Y-106051428D02*
X108354380Y-105860952D01*
X108163904Y-107956190D02*
X109497238Y-107956190D01*
X107402000Y-107479999D02*
X108830571Y-107003809D01*
X108830571Y-107003809D02*
X108830571Y-108241904D01*
X109306761Y-110146666D02*
X109402000Y-110051428D01*
X109402000Y-110051428D02*
X109497238Y-109765714D01*
X109497238Y-109765714D02*
X109497238Y-109575238D01*
X109497238Y-109575238D02*
X109402000Y-109289523D01*
X109402000Y-109289523D02*
X109211523Y-109099047D01*
X109211523Y-109099047D02*
X109021047Y-109003809D01*
X109021047Y-109003809D02*
X108640095Y-108908571D01*
X108640095Y-108908571D02*
X108354380Y-108908571D01*
X108354380Y-108908571D02*
X107973428Y-109003809D01*
X107973428Y-109003809D02*
X107782952Y-109099047D01*
X107782952Y-109099047D02*
X107592476Y-109289523D01*
X107592476Y-109289523D02*
X107497238Y-109575238D01*
X107497238Y-109575238D02*
X107497238Y-109765714D01*
X107497238Y-109765714D02*
X107592476Y-110051428D01*
X107592476Y-110051428D02*
X107687714Y-110146666D01*
X108163904Y-111860952D02*
X109497238Y-111860952D01*
X107402000Y-111384761D02*
X108830571Y-110908571D01*
X108830571Y-110908571D02*
X108830571Y-112146666D01*
X107497238Y-113289523D02*
X107497238Y-113480000D01*
X107497238Y-113480000D02*
X107592476Y-113670476D01*
X107592476Y-113670476D02*
X107687714Y-113765714D01*
X107687714Y-113765714D02*
X107878190Y-113860952D01*
X107878190Y-113860952D02*
X108259142Y-113956190D01*
X108259142Y-113956190D02*
X108735333Y-113956190D01*
X108735333Y-113956190D02*
X109116285Y-113860952D01*
X109116285Y-113860952D02*
X109306761Y-113765714D01*
X109306761Y-113765714D02*
X109402000Y-113670476D01*
X109402000Y-113670476D02*
X109497238Y-113480000D01*
X109497238Y-113480000D02*
X109497238Y-113289523D01*
X109497238Y-113289523D02*
X109402000Y-113099047D01*
X109402000Y-113099047D02*
X109306761Y-113003809D01*
X109306761Y-113003809D02*
X109116285Y-112908571D01*
X109116285Y-112908571D02*
X108735333Y-112813333D01*
X108735333Y-112813333D02*
X108259142Y-112813333D01*
X108259142Y-112813333D02*
X107878190Y-112908571D01*
X107878190Y-112908571D02*
X107687714Y-113003809D01*
X107687714Y-113003809D02*
X107592476Y-113099047D01*
X107592476Y-113099047D02*
X107497238Y-113289523D01*
X109497238Y-115860952D02*
X109497238Y-114718095D01*
X109497238Y-115289523D02*
X107497238Y-115289523D01*
X107497238Y-115289523D02*
X107782952Y-115099047D01*
X107782952Y-115099047D02*
X107973428Y-114908571D01*
X107973428Y-114908571D02*
X108068666Y-114718095D01*
X107497238Y-117099047D02*
X107497238Y-117289524D01*
X107497238Y-117289524D02*
X107592476Y-117480000D01*
X107592476Y-117480000D02*
X107687714Y-117575238D01*
X107687714Y-117575238D02*
X107878190Y-117670476D01*
X107878190Y-117670476D02*
X108259142Y-117765714D01*
X108259142Y-117765714D02*
X108735333Y-117765714D01*
X108735333Y-117765714D02*
X109116285Y-117670476D01*
X109116285Y-117670476D02*
X109306761Y-117575238D01*
X109306761Y-117575238D02*
X109402000Y-117480000D01*
X109402000Y-117480000D02*
X109497238Y-117289524D01*
X109497238Y-117289524D02*
X109497238Y-117099047D01*
X109497238Y-117099047D02*
X109402000Y-116908571D01*
X109402000Y-116908571D02*
X109306761Y-116813333D01*
X109306761Y-116813333D02*
X109116285Y-116718095D01*
X109116285Y-116718095D02*
X108735333Y-116622857D01*
X108735333Y-116622857D02*
X108259142Y-116622857D01*
X108259142Y-116622857D02*
X107878190Y-116718095D01*
X107878190Y-116718095D02*
X107687714Y-116813333D01*
X107687714Y-116813333D02*
X107592476Y-116908571D01*
X107592476Y-116908571D02*
X107497238Y-117099047D01*
X127182238Y-103099047D02*
X127182238Y-104432380D01*
X127182238Y-104432380D02*
X129182238Y-103099047D01*
X129182238Y-103099047D02*
X129182238Y-104432380D01*
X128039380Y-105479999D02*
X127944142Y-105289523D01*
X127944142Y-105289523D02*
X127848904Y-105194285D01*
X127848904Y-105194285D02*
X127658428Y-105099047D01*
X127658428Y-105099047D02*
X127563190Y-105099047D01*
X127563190Y-105099047D02*
X127372714Y-105194285D01*
X127372714Y-105194285D02*
X127277476Y-105289523D01*
X127277476Y-105289523D02*
X127182238Y-105479999D01*
X127182238Y-105479999D02*
X127182238Y-105860952D01*
X127182238Y-105860952D02*
X127277476Y-106051428D01*
X127277476Y-106051428D02*
X127372714Y-106146666D01*
X127372714Y-106146666D02*
X127563190Y-106241904D01*
X127563190Y-106241904D02*
X127658428Y-106241904D01*
X127658428Y-106241904D02*
X127848904Y-106146666D01*
X127848904Y-106146666D02*
X127944142Y-106051428D01*
X127944142Y-106051428D02*
X128039380Y-105860952D01*
X128039380Y-105860952D02*
X128039380Y-105479999D01*
X128039380Y-105479999D02*
X128134619Y-105289523D01*
X128134619Y-105289523D02*
X128229857Y-105194285D01*
X128229857Y-105194285D02*
X128420333Y-105099047D01*
X128420333Y-105099047D02*
X128801285Y-105099047D01*
X128801285Y-105099047D02*
X128991761Y-105194285D01*
X128991761Y-105194285D02*
X129087000Y-105289523D01*
X129087000Y-105289523D02*
X129182238Y-105479999D01*
X129182238Y-105479999D02*
X129182238Y-105860952D01*
X129182238Y-105860952D02*
X129087000Y-106051428D01*
X129087000Y-106051428D02*
X128991761Y-106146666D01*
X128991761Y-106146666D02*
X128801285Y-106241904D01*
X128801285Y-106241904D02*
X128420333Y-106241904D01*
X128420333Y-106241904D02*
X128229857Y-106146666D01*
X128229857Y-106146666D02*
X128134619Y-106051428D01*
X128134619Y-106051428D02*
X128039380Y-105860952D01*
X127848904Y-107956190D02*
X129182238Y-107956190D01*
X127087000Y-107479999D02*
X128515571Y-107003809D01*
X128515571Y-107003809D02*
X128515571Y-108241904D01*
X128991761Y-110146666D02*
X129087000Y-110051428D01*
X129087000Y-110051428D02*
X129182238Y-109765714D01*
X129182238Y-109765714D02*
X129182238Y-109575238D01*
X129182238Y-109575238D02*
X129087000Y-109289523D01*
X129087000Y-109289523D02*
X128896523Y-109099047D01*
X128896523Y-109099047D02*
X128706047Y-109003809D01*
X128706047Y-109003809D02*
X128325095Y-108908571D01*
X128325095Y-108908571D02*
X128039380Y-108908571D01*
X128039380Y-108908571D02*
X127658428Y-109003809D01*
X127658428Y-109003809D02*
X127467952Y-109099047D01*
X127467952Y-109099047D02*
X127277476Y-109289523D01*
X127277476Y-109289523D02*
X127182238Y-109575238D01*
X127182238Y-109575238D02*
X127182238Y-109765714D01*
X127182238Y-109765714D02*
X127277476Y-110051428D01*
X127277476Y-110051428D02*
X127372714Y-110146666D01*
X127848904Y-111860952D02*
X129182238Y-111860952D01*
X127087000Y-111384761D02*
X128515571Y-110908571D01*
X128515571Y-110908571D02*
X128515571Y-112146666D01*
X127182238Y-113289523D02*
X127182238Y-113480000D01*
X127182238Y-113480000D02*
X127277476Y-113670476D01*
X127277476Y-113670476D02*
X127372714Y-113765714D01*
X127372714Y-113765714D02*
X127563190Y-113860952D01*
X127563190Y-113860952D02*
X127944142Y-113956190D01*
X127944142Y-113956190D02*
X128420333Y-113956190D01*
X128420333Y-113956190D02*
X128801285Y-113860952D01*
X128801285Y-113860952D02*
X128991761Y-113765714D01*
X128991761Y-113765714D02*
X129087000Y-113670476D01*
X129087000Y-113670476D02*
X129182238Y-113480000D01*
X129182238Y-113480000D02*
X129182238Y-113289523D01*
X129182238Y-113289523D02*
X129087000Y-113099047D01*
X129087000Y-113099047D02*
X128991761Y-113003809D01*
X128991761Y-113003809D02*
X128801285Y-112908571D01*
X128801285Y-112908571D02*
X128420333Y-112813333D01*
X128420333Y-112813333D02*
X127944142Y-112813333D01*
X127944142Y-112813333D02*
X127563190Y-112908571D01*
X127563190Y-112908571D02*
X127372714Y-113003809D01*
X127372714Y-113003809D02*
X127277476Y-113099047D01*
X127277476Y-113099047D02*
X127182238Y-113289523D01*
X129182238Y-115860952D02*
X129182238Y-114718095D01*
X129182238Y-115289523D02*
X127182238Y-115289523D01*
X127182238Y-115289523D02*
X127467952Y-115099047D01*
X127467952Y-115099047D02*
X127658428Y-114908571D01*
X127658428Y-114908571D02*
X127753666Y-114718095D01*
X127182238Y-117099047D02*
X127182238Y-117289524D01*
X127182238Y-117289524D02*
X127277476Y-117480000D01*
X127277476Y-117480000D02*
X127372714Y-117575238D01*
X127372714Y-117575238D02*
X127563190Y-117670476D01*
X127563190Y-117670476D02*
X127944142Y-117765714D01*
X127944142Y-117765714D02*
X128420333Y-117765714D01*
X128420333Y-117765714D02*
X128801285Y-117670476D01*
X128801285Y-117670476D02*
X128991761Y-117575238D01*
X128991761Y-117575238D02*
X129087000Y-117480000D01*
X129087000Y-117480000D02*
X129182238Y-117289524D01*
X129182238Y-117289524D02*
X129182238Y-117099047D01*
X129182238Y-117099047D02*
X129087000Y-116908571D01*
X129087000Y-116908571D02*
X128991761Y-116813333D01*
X128991761Y-116813333D02*
X128801285Y-116718095D01*
X128801285Y-116718095D02*
X128420333Y-116622857D01*
X128420333Y-116622857D02*
X127944142Y-116622857D01*
X127944142Y-116622857D02*
X127563190Y-116718095D01*
X127563190Y-116718095D02*
X127372714Y-116813333D01*
X127372714Y-116813333D02*
X127277476Y-116908571D01*
X127277476Y-116908571D02*
X127182238Y-117099047D01*
D13*
X175344161Y-113883933D02*
X175439400Y-113788695D01*
X175439400Y-113788695D02*
X175534638Y-113502981D01*
X175534638Y-113502981D02*
X175534638Y-113312505D01*
X175534638Y-113312505D02*
X175439400Y-113026790D01*
X175439400Y-113026790D02*
X175248923Y-112836314D01*
X175248923Y-112836314D02*
X175058447Y-112741076D01*
X175058447Y-112741076D02*
X174677495Y-112645838D01*
X174677495Y-112645838D02*
X174391780Y-112645838D01*
X174391780Y-112645838D02*
X174010828Y-112741076D01*
X174010828Y-112741076D02*
X173820352Y-112836314D01*
X173820352Y-112836314D02*
X173629876Y-113026790D01*
X173629876Y-113026790D02*
X173534638Y-113312505D01*
X173534638Y-113312505D02*
X173534638Y-113502981D01*
X173534638Y-113502981D02*
X173629876Y-113788695D01*
X173629876Y-113788695D02*
X173725114Y-113883933D01*
X173534638Y-115122028D02*
X173534638Y-115502981D01*
X173534638Y-115502981D02*
X173629876Y-115693457D01*
X173629876Y-115693457D02*
X173820352Y-115883933D01*
X173820352Y-115883933D02*
X174201304Y-115979171D01*
X174201304Y-115979171D02*
X174867971Y-115979171D01*
X174867971Y-115979171D02*
X175248923Y-115883933D01*
X175248923Y-115883933D02*
X175439400Y-115693457D01*
X175439400Y-115693457D02*
X175534638Y-115502981D01*
X175534638Y-115502981D02*
X175534638Y-115122028D01*
X175534638Y-115122028D02*
X175439400Y-114931552D01*
X175439400Y-114931552D02*
X175248923Y-114741076D01*
X175248923Y-114741076D02*
X174867971Y-114645838D01*
X174867971Y-114645838D02*
X174201304Y-114645838D01*
X174201304Y-114645838D02*
X173820352Y-114741076D01*
X173820352Y-114741076D02*
X173629876Y-114931552D01*
X173629876Y-114931552D02*
X173534638Y-115122028D01*
X175534638Y-116836314D02*
X173534638Y-116836314D01*
X173534638Y-116836314D02*
X174963209Y-117502981D01*
X174963209Y-117502981D02*
X173534638Y-118169647D01*
X173534638Y-118169647D02*
X175534638Y-118169647D01*
X175534638Y-120169647D02*
X175534638Y-119026790D01*
X175534638Y-119598218D02*
X173534638Y-119598218D01*
X173534638Y-119598218D02*
X173820352Y-119407742D01*
X173820352Y-119407742D02*
X174010828Y-119217266D01*
X174010828Y-119217266D02*
X174106066Y-119026790D01*
X175344161Y-121026790D02*
X175439400Y-121122028D01*
X175439400Y-121122028D02*
X175534638Y-121026790D01*
X175534638Y-121026790D02*
X175439400Y-120931552D01*
X175439400Y-120931552D02*
X175344161Y-121026790D01*
X175344161Y-121026790D02*
X175534638Y-121026790D01*
X174296542Y-121026790D02*
X174391780Y-121122028D01*
X174391780Y-121122028D02*
X174487019Y-121026790D01*
X174487019Y-121026790D02*
X174391780Y-120931552D01*
X174391780Y-120931552D02*
X174296542Y-121026790D01*
X174296542Y-121026790D02*
X174487019Y-121026790D01*
X175534638Y-123502981D02*
X173534638Y-123502981D01*
X173534638Y-123502981D02*
X173534638Y-123979171D01*
X173534638Y-123979171D02*
X173629876Y-124264886D01*
X173629876Y-124264886D02*
X173820352Y-124455362D01*
X173820352Y-124455362D02*
X174010828Y-124550600D01*
X174010828Y-124550600D02*
X174391780Y-124645838D01*
X174391780Y-124645838D02*
X174677495Y-124645838D01*
X174677495Y-124645838D02*
X175058447Y-124550600D01*
X175058447Y-124550600D02*
X175248923Y-124455362D01*
X175248923Y-124455362D02*
X175439400Y-124264886D01*
X175439400Y-124264886D02*
X175534638Y-123979171D01*
X175534638Y-123979171D02*
X175534638Y-123502981D01*
X175344161Y-126645838D02*
X175439400Y-126550600D01*
X175439400Y-126550600D02*
X175534638Y-126264886D01*
X175534638Y-126264886D02*
X175534638Y-126074410D01*
X175534638Y-126074410D02*
X175439400Y-125788695D01*
X175439400Y-125788695D02*
X175248923Y-125598219D01*
X175248923Y-125598219D02*
X175058447Y-125502981D01*
X175058447Y-125502981D02*
X174677495Y-125407743D01*
X174677495Y-125407743D02*
X174391780Y-125407743D01*
X174391780Y-125407743D02*
X174010828Y-125502981D01*
X174010828Y-125502981D02*
X173820352Y-125598219D01*
X173820352Y-125598219D02*
X173629876Y-125788695D01*
X173629876Y-125788695D02*
X173534638Y-126074410D01*
X173534638Y-126074410D02*
X173534638Y-126264886D01*
X173534638Y-126264886D02*
X173629876Y-126550600D01*
X173629876Y-126550600D02*
X173725114Y-126645838D01*
X174487019Y-127502981D02*
X174487019Y-128169648D01*
X175534638Y-128455362D02*
X175534638Y-127502981D01*
X175534638Y-127502981D02*
X173534638Y-127502981D01*
X173534638Y-127502981D02*
X173534638Y-128455362D01*
D11*
X143328528Y-120245715D02*
X143328528Y-121245715D01*
X143328528Y-121245715D02*
X144828528Y-120602858D01*
X143828528Y-122460001D02*
X144828528Y-122460001D01*
X143257100Y-122102858D02*
X144328528Y-121745715D01*
X144328528Y-121745715D02*
X144328528Y-122674286D01*
X144828528Y-123245714D02*
X143328528Y-123245714D01*
X144042814Y-123245714D02*
X144042814Y-124102857D01*
X144828528Y-124102857D02*
X143328528Y-124102857D01*
X144685671Y-125674286D02*
X144757100Y-125602858D01*
X144757100Y-125602858D02*
X144828528Y-125388572D01*
X144828528Y-125388572D02*
X144828528Y-125245715D01*
X144828528Y-125245715D02*
X144757100Y-125031429D01*
X144757100Y-125031429D02*
X144614242Y-124888572D01*
X144614242Y-124888572D02*
X144471385Y-124817143D01*
X144471385Y-124817143D02*
X144185671Y-124745715D01*
X144185671Y-124745715D02*
X143971385Y-124745715D01*
X143971385Y-124745715D02*
X143685671Y-124817143D01*
X143685671Y-124817143D02*
X143542814Y-124888572D01*
X143542814Y-124888572D02*
X143399957Y-125031429D01*
X143399957Y-125031429D02*
X143328528Y-125245715D01*
X143328528Y-125245715D02*
X143328528Y-125388572D01*
X143328528Y-125388572D02*
X143399957Y-125602858D01*
X143399957Y-125602858D02*
X143471385Y-125674286D01*
X143328528Y-126102858D02*
X143328528Y-126960001D01*
X144828528Y-126531429D02*
X143328528Y-126531429D01*
X144828528Y-128245715D02*
X144828528Y-127388572D01*
X144828528Y-127817143D02*
X143328528Y-127817143D01*
X143328528Y-127817143D02*
X143542814Y-127674286D01*
X143542814Y-127674286D02*
X143685671Y-127531429D01*
X143685671Y-127531429D02*
X143757100Y-127388572D01*
X143328528Y-128745714D02*
X143328528Y-129674286D01*
X143328528Y-129674286D02*
X143899957Y-129174286D01*
X143899957Y-129174286D02*
X143899957Y-129388571D01*
X143899957Y-129388571D02*
X143971385Y-129531429D01*
X143971385Y-129531429D02*
X144042814Y-129602857D01*
X144042814Y-129602857D02*
X144185671Y-129674286D01*
X144185671Y-129674286D02*
X144542814Y-129674286D01*
X144542814Y-129674286D02*
X144685671Y-129602857D01*
X144685671Y-129602857D02*
X144757100Y-129531429D01*
X144757100Y-129531429D02*
X144828528Y-129388571D01*
X144828528Y-129388571D02*
X144828528Y-128960000D01*
X144828528Y-128960000D02*
X144757100Y-128817143D01*
X144757100Y-128817143D02*
X144685671Y-128745714D01*
X143971385Y-130531428D02*
X143899957Y-130388571D01*
X143899957Y-130388571D02*
X143828528Y-130317142D01*
X143828528Y-130317142D02*
X143685671Y-130245714D01*
X143685671Y-130245714D02*
X143614242Y-130245714D01*
X143614242Y-130245714D02*
X143471385Y-130317142D01*
X143471385Y-130317142D02*
X143399957Y-130388571D01*
X143399957Y-130388571D02*
X143328528Y-130531428D01*
X143328528Y-130531428D02*
X143328528Y-130817142D01*
X143328528Y-130817142D02*
X143399957Y-130960000D01*
X143399957Y-130960000D02*
X143471385Y-131031428D01*
X143471385Y-131031428D02*
X143614242Y-131102857D01*
X143614242Y-131102857D02*
X143685671Y-131102857D01*
X143685671Y-131102857D02*
X143828528Y-131031428D01*
X143828528Y-131031428D02*
X143899957Y-130960000D01*
X143899957Y-130960000D02*
X143971385Y-130817142D01*
X143971385Y-130817142D02*
X143971385Y-130531428D01*
X143971385Y-130531428D02*
X144042814Y-130388571D01*
X144042814Y-130388571D02*
X144114242Y-130317142D01*
X144114242Y-130317142D02*
X144257100Y-130245714D01*
X144257100Y-130245714D02*
X144542814Y-130245714D01*
X144542814Y-130245714D02*
X144685671Y-130317142D01*
X144685671Y-130317142D02*
X144757100Y-130388571D01*
X144757100Y-130388571D02*
X144828528Y-130531428D01*
X144828528Y-130531428D02*
X144828528Y-130817142D01*
X144828528Y-130817142D02*
X144757100Y-130960000D01*
X144757100Y-130960000D02*
X144685671Y-131031428D01*
X144685671Y-131031428D02*
X144542814Y-131102857D01*
X144542814Y-131102857D02*
X144257100Y-131102857D01*
X144257100Y-131102857D02*
X144114242Y-131031428D01*
X144114242Y-131031428D02*
X144042814Y-130960000D01*
X144042814Y-130960000D02*
X143971385Y-130817142D01*
D13*
X175344161Y-81622028D02*
X175439400Y-81526790D01*
X175439400Y-81526790D02*
X175534638Y-81241076D01*
X175534638Y-81241076D02*
X175534638Y-81050600D01*
X175534638Y-81050600D02*
X175439400Y-80764885D01*
X175439400Y-80764885D02*
X175248923Y-80574409D01*
X175248923Y-80574409D02*
X175058447Y-80479171D01*
X175058447Y-80479171D02*
X174677495Y-80383933D01*
X174677495Y-80383933D02*
X174391780Y-80383933D01*
X174391780Y-80383933D02*
X174010828Y-80479171D01*
X174010828Y-80479171D02*
X173820352Y-80574409D01*
X173820352Y-80574409D02*
X173629876Y-80764885D01*
X173629876Y-80764885D02*
X173534638Y-81050600D01*
X173534638Y-81050600D02*
X173534638Y-81241076D01*
X173534638Y-81241076D02*
X173629876Y-81526790D01*
X173629876Y-81526790D02*
X173725114Y-81622028D01*
X173534638Y-82860123D02*
X173534638Y-83241076D01*
X173534638Y-83241076D02*
X173629876Y-83431552D01*
X173629876Y-83431552D02*
X173820352Y-83622028D01*
X173820352Y-83622028D02*
X174201304Y-83717266D01*
X174201304Y-83717266D02*
X174867971Y-83717266D01*
X174867971Y-83717266D02*
X175248923Y-83622028D01*
X175248923Y-83622028D02*
X175439400Y-83431552D01*
X175439400Y-83431552D02*
X175534638Y-83241076D01*
X175534638Y-83241076D02*
X175534638Y-82860123D01*
X175534638Y-82860123D02*
X175439400Y-82669647D01*
X175439400Y-82669647D02*
X175248923Y-82479171D01*
X175248923Y-82479171D02*
X174867971Y-82383933D01*
X174867971Y-82383933D02*
X174201304Y-82383933D01*
X174201304Y-82383933D02*
X173820352Y-82479171D01*
X173820352Y-82479171D02*
X173629876Y-82669647D01*
X173629876Y-82669647D02*
X173534638Y-82860123D01*
X175534638Y-84574409D02*
X173534638Y-84574409D01*
X173534638Y-84574409D02*
X174963209Y-85241076D01*
X174963209Y-85241076D02*
X173534638Y-85907742D01*
X173534638Y-85907742D02*
X175534638Y-85907742D01*
X173725114Y-86764885D02*
X173629876Y-86860123D01*
X173629876Y-86860123D02*
X173534638Y-87050599D01*
X173534638Y-87050599D02*
X173534638Y-87526790D01*
X173534638Y-87526790D02*
X173629876Y-87717266D01*
X173629876Y-87717266D02*
X173725114Y-87812504D01*
X173725114Y-87812504D02*
X173915590Y-87907742D01*
X173915590Y-87907742D02*
X174106066Y-87907742D01*
X174106066Y-87907742D02*
X174391780Y-87812504D01*
X174391780Y-87812504D02*
X175534638Y-86669647D01*
X175534638Y-86669647D02*
X175534638Y-87907742D01*
X175344161Y-88764885D02*
X175439400Y-88860123D01*
X175439400Y-88860123D02*
X175534638Y-88764885D01*
X175534638Y-88764885D02*
X175439400Y-88669647D01*
X175439400Y-88669647D02*
X175344161Y-88764885D01*
X175344161Y-88764885D02*
X175534638Y-88764885D01*
X174296542Y-88764885D02*
X174391780Y-88860123D01*
X174391780Y-88860123D02*
X174487019Y-88764885D01*
X174487019Y-88764885D02*
X174391780Y-88669647D01*
X174391780Y-88669647D02*
X174296542Y-88764885D01*
X174296542Y-88764885D02*
X174487019Y-88764885D01*
X175534638Y-91241076D02*
X173534638Y-91241076D01*
X173534638Y-91241076D02*
X173534638Y-91717266D01*
X173534638Y-91717266D02*
X173629876Y-92002981D01*
X173629876Y-92002981D02*
X173820352Y-92193457D01*
X173820352Y-92193457D02*
X174010828Y-92288695D01*
X174010828Y-92288695D02*
X174391780Y-92383933D01*
X174391780Y-92383933D02*
X174677495Y-92383933D01*
X174677495Y-92383933D02*
X175058447Y-92288695D01*
X175058447Y-92288695D02*
X175248923Y-92193457D01*
X175248923Y-92193457D02*
X175439400Y-92002981D01*
X175439400Y-92002981D02*
X175534638Y-91717266D01*
X175534638Y-91717266D02*
X175534638Y-91241076D01*
X173534638Y-92955362D02*
X173534638Y-94098219D01*
X175534638Y-93526790D02*
X173534638Y-93526790D01*
X174487019Y-94764886D02*
X174487019Y-95431553D01*
X175534638Y-95717267D02*
X175534638Y-94764886D01*
X175534638Y-94764886D02*
X173534638Y-94764886D01*
X173534638Y-94764886D02*
X173534638Y-95717267D01*
D12*
X87797238Y-110704047D02*
X87797238Y-112037380D01*
X87797238Y-112037380D02*
X89797238Y-110704047D01*
X89797238Y-110704047D02*
X89797238Y-112037380D01*
X88654380Y-113084999D02*
X88559142Y-112894523D01*
X88559142Y-112894523D02*
X88463904Y-112799285D01*
X88463904Y-112799285D02*
X88273428Y-112704047D01*
X88273428Y-112704047D02*
X88178190Y-112704047D01*
X88178190Y-112704047D02*
X87987714Y-112799285D01*
X87987714Y-112799285D02*
X87892476Y-112894523D01*
X87892476Y-112894523D02*
X87797238Y-113084999D01*
X87797238Y-113084999D02*
X87797238Y-113465952D01*
X87797238Y-113465952D02*
X87892476Y-113656428D01*
X87892476Y-113656428D02*
X87987714Y-113751666D01*
X87987714Y-113751666D02*
X88178190Y-113846904D01*
X88178190Y-113846904D02*
X88273428Y-113846904D01*
X88273428Y-113846904D02*
X88463904Y-113751666D01*
X88463904Y-113751666D02*
X88559142Y-113656428D01*
X88559142Y-113656428D02*
X88654380Y-113465952D01*
X88654380Y-113465952D02*
X88654380Y-113084999D01*
X88654380Y-113084999D02*
X88749619Y-112894523D01*
X88749619Y-112894523D02*
X88844857Y-112799285D01*
X88844857Y-112799285D02*
X89035333Y-112704047D01*
X89035333Y-112704047D02*
X89416285Y-112704047D01*
X89416285Y-112704047D02*
X89606761Y-112799285D01*
X89606761Y-112799285D02*
X89702000Y-112894523D01*
X89702000Y-112894523D02*
X89797238Y-113084999D01*
X89797238Y-113084999D02*
X89797238Y-113465952D01*
X89797238Y-113465952D02*
X89702000Y-113656428D01*
X89702000Y-113656428D02*
X89606761Y-113751666D01*
X89606761Y-113751666D02*
X89416285Y-113846904D01*
X89416285Y-113846904D02*
X89035333Y-113846904D01*
X89035333Y-113846904D02*
X88844857Y-113751666D01*
X88844857Y-113751666D02*
X88749619Y-113656428D01*
X88749619Y-113656428D02*
X88654380Y-113465952D01*
X88463904Y-115561190D02*
X89797238Y-115561190D01*
X87702000Y-115084999D02*
X89130571Y-114608809D01*
X89130571Y-114608809D02*
X89130571Y-115846904D01*
X89606761Y-117751666D02*
X89702000Y-117656428D01*
X89702000Y-117656428D02*
X89797238Y-117370714D01*
X89797238Y-117370714D02*
X89797238Y-117180238D01*
X89797238Y-117180238D02*
X89702000Y-116894523D01*
X89702000Y-116894523D02*
X89511523Y-116704047D01*
X89511523Y-116704047D02*
X89321047Y-116608809D01*
X89321047Y-116608809D02*
X88940095Y-116513571D01*
X88940095Y-116513571D02*
X88654380Y-116513571D01*
X88654380Y-116513571D02*
X88273428Y-116608809D01*
X88273428Y-116608809D02*
X88082952Y-116704047D01*
X88082952Y-116704047D02*
X87892476Y-116894523D01*
X87892476Y-116894523D02*
X87797238Y-117180238D01*
X87797238Y-117180238D02*
X87797238Y-117370714D01*
X87797238Y-117370714D02*
X87892476Y-117656428D01*
X87892476Y-117656428D02*
X87987714Y-117751666D01*
X87797238Y-118418333D02*
X87797238Y-119656428D01*
X87797238Y-119656428D02*
X88559142Y-118989761D01*
X88559142Y-118989761D02*
X88559142Y-119275476D01*
X88559142Y-119275476D02*
X88654380Y-119465952D01*
X88654380Y-119465952D02*
X88749619Y-119561190D01*
X88749619Y-119561190D02*
X88940095Y-119656428D01*
X88940095Y-119656428D02*
X89416285Y-119656428D01*
X89416285Y-119656428D02*
X89606761Y-119561190D01*
X89606761Y-119561190D02*
X89702000Y-119465952D01*
X89702000Y-119465952D02*
X89797238Y-119275476D01*
X89797238Y-119275476D02*
X89797238Y-118704047D01*
X89797238Y-118704047D02*
X89702000Y-118513571D01*
X89702000Y-118513571D02*
X89606761Y-118418333D01*
X87797238Y-120894523D02*
X87797238Y-121085000D01*
X87797238Y-121085000D02*
X87892476Y-121275476D01*
X87892476Y-121275476D02*
X87987714Y-121370714D01*
X87987714Y-121370714D02*
X88178190Y-121465952D01*
X88178190Y-121465952D02*
X88559142Y-121561190D01*
X88559142Y-121561190D02*
X89035333Y-121561190D01*
X89035333Y-121561190D02*
X89416285Y-121465952D01*
X89416285Y-121465952D02*
X89606761Y-121370714D01*
X89606761Y-121370714D02*
X89702000Y-121275476D01*
X89702000Y-121275476D02*
X89797238Y-121085000D01*
X89797238Y-121085000D02*
X89797238Y-120894523D01*
X89797238Y-120894523D02*
X89702000Y-120704047D01*
X89702000Y-120704047D02*
X89606761Y-120608809D01*
X89606761Y-120608809D02*
X89416285Y-120513571D01*
X89416285Y-120513571D02*
X89035333Y-120418333D01*
X89035333Y-120418333D02*
X88559142Y-120418333D01*
X88559142Y-120418333D02*
X88178190Y-120513571D01*
X88178190Y-120513571D02*
X87987714Y-120608809D01*
X87987714Y-120608809D02*
X87892476Y-120704047D01*
X87892476Y-120704047D02*
X87797238Y-120894523D01*
X89797238Y-123465952D02*
X89797238Y-122323095D01*
X89797238Y-122894523D02*
X87797238Y-122894523D01*
X87797238Y-122894523D02*
X88082952Y-122704047D01*
X88082952Y-122704047D02*
X88273428Y-122513571D01*
X88273428Y-122513571D02*
X88368666Y-122323095D01*
X87797238Y-124704047D02*
X87797238Y-124894524D01*
X87797238Y-124894524D02*
X87892476Y-125085000D01*
X87892476Y-125085000D02*
X87987714Y-125180238D01*
X87987714Y-125180238D02*
X88178190Y-125275476D01*
X88178190Y-125275476D02*
X88559142Y-125370714D01*
X88559142Y-125370714D02*
X89035333Y-125370714D01*
X89035333Y-125370714D02*
X89416285Y-125275476D01*
X89416285Y-125275476D02*
X89606761Y-125180238D01*
X89606761Y-125180238D02*
X89702000Y-125085000D01*
X89702000Y-125085000D02*
X89797238Y-124894524D01*
X89797238Y-124894524D02*
X89797238Y-124704047D01*
X89797238Y-124704047D02*
X89702000Y-124513571D01*
X89702000Y-124513571D02*
X89606761Y-124418333D01*
X89606761Y-124418333D02*
X89416285Y-124323095D01*
X89416285Y-124323095D02*
X89035333Y-124227857D01*
X89035333Y-124227857D02*
X88559142Y-124227857D01*
X88559142Y-124227857D02*
X88178190Y-124323095D01*
X88178190Y-124323095D02*
X87987714Y-124418333D01*
X87987714Y-124418333D02*
X87892476Y-124513571D01*
X87892476Y-124513571D02*
X87797238Y-124704047D01*
D10*
X140154819Y-52744761D02*
X139678628Y-52411428D01*
X140154819Y-52173333D02*
X139154819Y-52173333D01*
X139154819Y-52173333D02*
X139154819Y-52554285D01*
X139154819Y-52554285D02*
X139202438Y-52649523D01*
X139202438Y-52649523D02*
X139250057Y-52697142D01*
X139250057Y-52697142D02*
X139345295Y-52744761D01*
X139345295Y-52744761D02*
X139488152Y-52744761D01*
X139488152Y-52744761D02*
X139583390Y-52697142D01*
X139583390Y-52697142D02*
X139631009Y-52649523D01*
X139631009Y-52649523D02*
X139678628Y-52554285D01*
X139678628Y-52554285D02*
X139678628Y-52173333D01*
X140154819Y-53078095D02*
X139488152Y-53601904D01*
X139488152Y-53078095D02*
X140154819Y-53601904D01*
X139631009Y-54316190D02*
X139678628Y-54459047D01*
X139678628Y-54459047D02*
X139726247Y-54506666D01*
X139726247Y-54506666D02*
X139821485Y-54554285D01*
X139821485Y-54554285D02*
X139964342Y-54554285D01*
X139964342Y-54554285D02*
X140059580Y-54506666D01*
X140059580Y-54506666D02*
X140107200Y-54459047D01*
X140107200Y-54459047D02*
X140154819Y-54363809D01*
X140154819Y-54363809D02*
X140154819Y-53982857D01*
X140154819Y-53982857D02*
X139154819Y-53982857D01*
X139154819Y-53982857D02*
X139154819Y-54316190D01*
X139154819Y-54316190D02*
X139202438Y-54411428D01*
X139202438Y-54411428D02*
X139250057Y-54459047D01*
X139250057Y-54459047D02*
X139345295Y-54506666D01*
X139345295Y-54506666D02*
X139440533Y-54506666D01*
X139440533Y-54506666D02*
X139535771Y-54459047D01*
X139535771Y-54459047D02*
X139583390Y-54411428D01*
X139583390Y-54411428D02*
X139631009Y-54316190D01*
X139631009Y-54316190D02*
X139631009Y-53982857D01*
%LPC*%
D14*
X163830000Y-97810000D03*
X163830000Y-100310000D03*
D15*
X165100000Y-145805000D03*
X162560000Y-145805000D03*
X160020000Y-145805000D03*
X157480000Y-145805000D03*
X154940000Y-145805000D03*
X152400000Y-145805000D03*
X149860000Y-145805000D03*
X147320000Y-145805000D03*
X144780000Y-145805000D03*
X142240000Y-145805000D03*
X139700000Y-145805000D03*
X137160000Y-145805000D03*
X134620000Y-145805000D03*
X132080000Y-145805000D03*
X129540000Y-145805000D03*
X127000000Y-145805000D03*
X124460000Y-145805000D03*
X121920000Y-145805000D03*
X119380000Y-145805000D03*
X116840000Y-145805000D03*
X114300000Y-145805000D03*
X111760000Y-145805000D03*
X109220000Y-145805000D03*
X106680000Y-145805000D03*
X104140000Y-145805000D03*
X101600000Y-145805000D03*
X99060000Y-145805000D03*
X96520000Y-145805000D03*
X93980000Y-145805000D03*
X91440000Y-145805000D03*
X88900000Y-145805000D03*
D16*
X103485000Y-56800000D03*
D17*
X100945000Y-56800000D03*
D14*
X157460000Y-89535000D03*
X154960000Y-89535000D03*
D16*
X130790000Y-56800000D03*
D17*
X128250000Y-56800000D03*
D14*
X157460000Y-60325000D03*
X154960000Y-60325000D03*
X163830000Y-116860000D03*
X163830000Y-119360000D03*
D18*
X90089400Y-59365000D03*
D14*
X90089400Y-61865000D03*
X90089400Y-63865000D03*
X90089400Y-66365000D03*
D19*
X87379400Y-56295000D03*
X87379400Y-69435000D03*
D16*
X119360000Y-56800000D03*
D17*
X116820000Y-56800000D03*
D18*
X136525000Y-62230000D03*
D20*
X136525000Y-64770000D03*
X136525000Y-67310000D03*
X136525000Y-69850000D03*
X136525000Y-72390000D03*
X136525000Y-74930000D03*
X136525000Y-77470000D03*
X136525000Y-80010000D03*
X136525000Y-82550000D03*
D18*
X152400000Y-63500000D03*
D20*
X152400000Y-66040000D03*
X152400000Y-68580000D03*
X152400000Y-71120000D03*
X152400000Y-73660000D03*
X152400000Y-76200000D03*
X152400000Y-78740000D03*
X152400000Y-81280000D03*
X152400000Y-83820000D03*
X152400000Y-86360000D03*
X160020000Y-86360000D03*
X160020000Y-83820000D03*
X160020000Y-81280000D03*
X160020000Y-78740000D03*
X160020000Y-76200000D03*
X160020000Y-73660000D03*
X160020000Y-71120000D03*
X160020000Y-68580000D03*
X160020000Y-66040000D03*
X160020000Y-63500000D03*
D18*
X152410000Y-92700000D03*
D20*
X152410000Y-95240000D03*
X152410000Y-97780000D03*
X152410000Y-100320000D03*
X152410000Y-102860000D03*
X152410000Y-105400000D03*
X152410000Y-107940000D03*
X152410000Y-110480000D03*
X160030000Y-110480000D03*
X160030000Y-107940000D03*
X160030000Y-105400000D03*
X160030000Y-102860000D03*
X160030000Y-100320000D03*
X160030000Y-97780000D03*
X160030000Y-95240000D03*
X160030000Y-92700000D03*
D14*
X163830000Y-102890000D03*
X163830000Y-105390000D03*
X157460000Y-113665000D03*
X154960000Y-113665000D03*
X163830000Y-92730000D03*
X163830000Y-95230000D03*
D18*
X152410000Y-116820000D03*
D20*
X152410000Y-119360000D03*
X152410000Y-121900000D03*
X152410000Y-124440000D03*
X152410000Y-126980000D03*
X152410000Y-129520000D03*
X152410000Y-132060000D03*
X152410000Y-134600000D03*
X160030000Y-134600000D03*
X160030000Y-132060000D03*
X160030000Y-129520000D03*
X160030000Y-126980000D03*
X160030000Y-124440000D03*
X160030000Y-121900000D03*
X160030000Y-119360000D03*
X160030000Y-116820000D03*
D14*
X106065000Y-60325000D03*
X108565000Y-60325000D03*
D18*
X140335000Y-63500000D03*
D20*
X140335000Y-66040000D03*
X140335000Y-68580000D03*
X140335000Y-71120000D03*
X140335000Y-73660000D03*
X140335000Y-76200000D03*
X140335000Y-78740000D03*
X140335000Y-81280000D03*
X140335000Y-83820000D03*
X140335000Y-86360000D03*
X147955000Y-86360000D03*
X147955000Y-83820000D03*
X147955000Y-81280000D03*
X147955000Y-78740000D03*
X147955000Y-76200000D03*
X147955000Y-73660000D03*
X147955000Y-71120000D03*
X147955000Y-68580000D03*
X147955000Y-66040000D03*
X147955000Y-63500000D03*
D14*
X127020000Y-83185000D03*
X129520000Y-83185000D03*
D16*
X97770000Y-56800000D03*
D17*
X95230000Y-56800000D03*
D18*
X100965000Y-63500000D03*
D20*
X100965000Y-66040000D03*
X100965000Y-68580000D03*
X100965000Y-71120000D03*
X100965000Y-73660000D03*
X100965000Y-76200000D03*
X100965000Y-78740000D03*
X108585000Y-78740000D03*
X108585000Y-76200000D03*
X108585000Y-73660000D03*
X108585000Y-71120000D03*
X108585000Y-68580000D03*
X108585000Y-66040000D03*
X108585000Y-63500000D03*
D14*
X163830000Y-110490000D03*
X163830000Y-107990000D03*
X163830000Y-134600000D03*
X163830000Y-132100000D03*
X97155000Y-71120000D03*
D20*
X97155000Y-60960000D03*
D14*
X90170000Y-84455000D03*
X87670000Y-84455000D03*
D16*
X109220000Y-56800000D03*
D17*
X106680000Y-56800000D03*
D18*
X85090000Y-87630000D03*
D20*
X85090000Y-95250000D03*
X92710000Y-95250000D03*
X92710000Y-87630000D03*
D16*
X162560000Y-56800000D03*
D17*
X160020000Y-56800000D03*
D14*
X163830000Y-121940000D03*
X163830000Y-124440000D03*
D16*
X146685000Y-56800000D03*
D17*
X144145000Y-56800000D03*
D14*
X96520000Y-86360000D03*
D20*
X96520000Y-96520000D03*
D16*
X156845000Y-56800000D03*
D17*
X154305000Y-56800000D03*
D18*
X140335000Y-92710000D03*
D20*
X140335000Y-95250000D03*
X140335000Y-97790000D03*
X140335000Y-100330000D03*
X140335000Y-102870000D03*
X140335000Y-105410000D03*
X140335000Y-107950000D03*
X140335000Y-110490000D03*
X147955000Y-110490000D03*
X147955000Y-107950000D03*
X147955000Y-105410000D03*
X147955000Y-102870000D03*
X147955000Y-100330000D03*
X147955000Y-97790000D03*
X147955000Y-95250000D03*
X147955000Y-92710000D03*
D21*
X82550000Y-80645000D03*
D22*
X82550000Y-78105000D03*
X82550000Y-75565000D03*
D16*
X125075000Y-56800000D03*
D17*
X122535000Y-56800000D03*
D21*
X90170000Y-80645000D03*
D22*
X87630000Y-80645000D03*
X90170000Y-78105000D03*
X87630000Y-78105000D03*
X90170000Y-75565000D03*
X87630000Y-75565000D03*
D14*
X90170000Y-98425000D03*
X87670000Y-98425000D03*
D18*
X167707600Y-61660200D03*
D14*
X167707600Y-64160200D03*
X169707600Y-64160200D03*
X169707600Y-61660200D03*
D23*
X172567600Y-56910200D03*
X172567600Y-68910200D03*
D18*
X163830000Y-62230000D03*
D20*
X163830000Y-64770000D03*
X163830000Y-67310000D03*
X163830000Y-69850000D03*
X163830000Y-72390000D03*
X163830000Y-74930000D03*
X163830000Y-77470000D03*
X163830000Y-80010000D03*
X163830000Y-82550000D03*
X163830000Y-85090000D03*
X163830000Y-87630000D03*
D14*
X100985000Y-60325000D03*
X103485000Y-60325000D03*
D18*
X113030000Y-63500000D03*
D20*
X113030000Y-66040000D03*
X113030000Y-68580000D03*
X113030000Y-71120000D03*
X113030000Y-73660000D03*
X113030000Y-76200000D03*
X113030000Y-78740000D03*
X120650000Y-78740000D03*
X120650000Y-76200000D03*
X120650000Y-73660000D03*
X120650000Y-71120000D03*
X120650000Y-68580000D03*
X120650000Y-66040000D03*
X120650000Y-63500000D03*
D14*
X93980000Y-71120000D03*
D20*
X93980000Y-60960000D03*
D18*
X125095000Y-63500000D03*
D20*
X125095000Y-66040000D03*
X125095000Y-68580000D03*
X125095000Y-71120000D03*
X125095000Y-73660000D03*
X125095000Y-76200000D03*
X125095000Y-78740000D03*
X132715000Y-78740000D03*
X132715000Y-76200000D03*
X132715000Y-73660000D03*
X132715000Y-71120000D03*
X132715000Y-68580000D03*
X132715000Y-66040000D03*
X132715000Y-63500000D03*
D18*
X100965000Y-86350000D03*
D20*
X100965000Y-88890000D03*
X100965000Y-91430000D03*
X100965000Y-93970000D03*
X100965000Y-96510000D03*
X100965000Y-99050000D03*
X100965000Y-101590000D03*
X100965000Y-104130000D03*
X100965000Y-106670000D03*
X100965000Y-109210000D03*
X100965000Y-111750000D03*
X100965000Y-114290000D03*
X100965000Y-116830000D03*
X100965000Y-119370000D03*
X100965000Y-121910000D03*
X100965000Y-124450000D03*
X100965000Y-126990000D03*
X100965000Y-129530000D03*
X100965000Y-132070000D03*
X100965000Y-134610000D03*
X116205000Y-134610000D03*
X116205000Y-132070000D03*
X116205000Y-129530000D03*
X116205000Y-126990000D03*
X116205000Y-124450000D03*
X116205000Y-121910000D03*
X116205000Y-119370000D03*
X116205000Y-116830000D03*
X116205000Y-114290000D03*
X116205000Y-111750000D03*
X116205000Y-109210000D03*
X116205000Y-106670000D03*
X116205000Y-104130000D03*
X116205000Y-101590000D03*
X116205000Y-99050000D03*
X116205000Y-96510000D03*
X116205000Y-93970000D03*
X116205000Y-91430000D03*
X116205000Y-88890000D03*
X116205000Y-86350000D03*
D18*
X120650000Y-86350000D03*
D20*
X120650000Y-88890000D03*
X120650000Y-91430000D03*
X120650000Y-93970000D03*
X120650000Y-96510000D03*
X120650000Y-99050000D03*
X120650000Y-101590000D03*
X120650000Y-104130000D03*
X120650000Y-106670000D03*
X120650000Y-109210000D03*
X120650000Y-111750000D03*
X120650000Y-114290000D03*
X120650000Y-116830000D03*
X120650000Y-119370000D03*
X120650000Y-121910000D03*
X120650000Y-124450000D03*
X120650000Y-126990000D03*
X120650000Y-129530000D03*
X120650000Y-132070000D03*
X120650000Y-134610000D03*
X135890000Y-134610000D03*
X135890000Y-132070000D03*
X135890000Y-129530000D03*
X135890000Y-126990000D03*
X135890000Y-124450000D03*
X135890000Y-121910000D03*
X135890000Y-119370000D03*
X135890000Y-116830000D03*
X135890000Y-114290000D03*
X135890000Y-111750000D03*
X135890000Y-109210000D03*
X135890000Y-106670000D03*
X135890000Y-104130000D03*
X135890000Y-101590000D03*
X135890000Y-99050000D03*
X135890000Y-96510000D03*
X135890000Y-93970000D03*
X135890000Y-91430000D03*
X135890000Y-88890000D03*
X135890000Y-86350000D03*
D14*
X145395000Y-113665000D03*
X142895000Y-113665000D03*
X118130000Y-60325000D03*
X120630000Y-60325000D03*
D23*
X169409400Y-133050600D03*
X169409400Y-108050600D03*
D18*
X169109400Y-115010600D03*
D14*
X169109400Y-117780600D03*
X169109400Y-120550600D03*
X169109400Y-123320600D03*
X169109400Y-126090600D03*
X171949400Y-116395600D03*
X171949400Y-119165600D03*
X171949400Y-121935600D03*
X171949400Y-124705600D03*
X145395000Y-60325000D03*
X142895000Y-60325000D03*
D18*
X140335000Y-116820000D03*
D20*
X140335000Y-119360000D03*
X140335000Y-121900000D03*
X140335000Y-124440000D03*
X140335000Y-126980000D03*
X140335000Y-129520000D03*
X140335000Y-132060000D03*
X140335000Y-134600000D03*
X147955000Y-134600000D03*
X147955000Y-132060000D03*
X147955000Y-129520000D03*
X147955000Y-126980000D03*
X147955000Y-124440000D03*
X147955000Y-121900000D03*
X147955000Y-119360000D03*
X147955000Y-116820000D03*
D23*
X169409400Y-100550600D03*
X169409400Y-75550600D03*
D18*
X169109400Y-93590600D03*
D14*
X169109400Y-90820600D03*
X169109400Y-88050600D03*
X169109400Y-85280600D03*
X169109400Y-82510600D03*
X171949400Y-92205600D03*
X171949400Y-89435600D03*
X171949400Y-86665600D03*
X171949400Y-83895600D03*
D21*
X95250000Y-80645000D03*
D22*
X95250000Y-78105000D03*
X95250000Y-75565000D03*
D14*
X163830000Y-127020000D03*
X163830000Y-129520000D03*
X145395000Y-89535000D03*
X142895000Y-89535000D03*
X107335000Y-83185000D03*
X109835000Y-83185000D03*
D18*
X81265000Y-101575000D03*
D20*
X81265000Y-104115000D03*
X81265000Y-106655000D03*
X81265000Y-109195000D03*
X81265000Y-111735000D03*
X81265000Y-114275000D03*
X81265000Y-116815000D03*
X81265000Y-119355000D03*
X81265000Y-121895000D03*
X81265000Y-124435000D03*
X81265000Y-126975000D03*
X81265000Y-129515000D03*
X81265000Y-132055000D03*
X81265000Y-134595000D03*
X96505000Y-134595000D03*
X96505000Y-132055000D03*
X96505000Y-129515000D03*
X96505000Y-126975000D03*
X96505000Y-124435000D03*
X96505000Y-121895000D03*
X96505000Y-119355000D03*
X96505000Y-116815000D03*
X96505000Y-114275000D03*
X96505000Y-111735000D03*
X96505000Y-109195000D03*
X96505000Y-106655000D03*
X96505000Y-104115000D03*
X96505000Y-101575000D03*
D14*
X130155000Y-60325000D03*
X127655000Y-60325000D03*
D16*
X140970000Y-56800000D03*
D17*
X138430000Y-56800000D03*
D14*
X113050000Y-60325000D03*
X115550000Y-60325000D03*
%LPD*%
M02*
