G04 #@! TF.GenerationSoftware,KiCad,Pcbnew,7.0.7*
G04 #@! TF.CreationDate,2023-09-10T22:26:38-04:00*
G04 #@! TF.ProjectId,4 - Quad serial,34202d20-5175-4616-9420-73657269616c,1*
G04 #@! TF.SameCoordinates,Original*
G04 #@! TF.FileFunction,Soldermask,Bot*
G04 #@! TF.FilePolarity,Negative*
%FSLAX46Y46*%
G04 Gerber Fmt 4.6, Leading zero omitted, Abs format (unit mm)*
G04 Created by KiCad (PCBNEW 7.0.7) date 2023-09-10 22:26:38*
%MOMM*%
%LPD*%
G01*
G04 APERTURE LIST*
%ADD10C,1.600000*%
%ADD11R,1.780000X7.620000*%
%ADD12R,1.800000X1.800000*%
%ADD13C,1.800000*%
%ADD14R,1.600000X1.600000*%
%ADD15C,3.000000*%
%ADD16O,1.600000X1.600000*%
%ADD17R,1.700000X1.700000*%
%ADD18O,1.700000X1.700000*%
%ADD19C,4.000000*%
G04 APERTURE END LIST*
D10*
X163830000Y-97810000D03*
X163830000Y-100310000D03*
D11*
X165100000Y-145805000D03*
X162560000Y-145805000D03*
X160020000Y-145805000D03*
X157480000Y-145805000D03*
X154940000Y-145805000D03*
X152400000Y-145805000D03*
X149860000Y-145805000D03*
X147320000Y-145805000D03*
X144780000Y-145805000D03*
X142240000Y-145805000D03*
X139700000Y-145805000D03*
X137160000Y-145805000D03*
X134620000Y-145805000D03*
X132080000Y-145805000D03*
X129540000Y-145805000D03*
X127000000Y-145805000D03*
X124460000Y-145805000D03*
X121920000Y-145805000D03*
X119380000Y-145805000D03*
X116840000Y-145805000D03*
X114300000Y-145805000D03*
X111760000Y-145805000D03*
X109220000Y-145805000D03*
X106680000Y-145805000D03*
X104140000Y-145805000D03*
X101600000Y-145805000D03*
X99060000Y-145805000D03*
X96520000Y-145805000D03*
X93980000Y-145805000D03*
X91440000Y-145805000D03*
X88900000Y-145805000D03*
D12*
X103485000Y-56800000D03*
D13*
X100945000Y-56800000D03*
D10*
X157460000Y-89535000D03*
X154960000Y-89535000D03*
D12*
X130790000Y-56800000D03*
D13*
X128250000Y-56800000D03*
D10*
X157460000Y-60325000D03*
X154960000Y-60325000D03*
X163830000Y-116860000D03*
X163830000Y-119360000D03*
D14*
X90089400Y-59365000D03*
D10*
X90089400Y-61865000D03*
X90089400Y-63865000D03*
X90089400Y-66365000D03*
D15*
X87379400Y-56295000D03*
X87379400Y-69435000D03*
D12*
X119360000Y-56800000D03*
D13*
X116820000Y-56800000D03*
D14*
X136525000Y-62230000D03*
D16*
X136525000Y-64770000D03*
X136525000Y-67310000D03*
X136525000Y-69850000D03*
X136525000Y-72390000D03*
X136525000Y-74930000D03*
X136525000Y-77470000D03*
X136525000Y-80010000D03*
X136525000Y-82550000D03*
D14*
X152400000Y-63500000D03*
D16*
X152400000Y-66040000D03*
X152400000Y-68580000D03*
X152400000Y-71120000D03*
X152400000Y-73660000D03*
X152400000Y-76200000D03*
X152400000Y-78740000D03*
X152400000Y-81280000D03*
X152400000Y-83820000D03*
X152400000Y-86360000D03*
X160020000Y-86360000D03*
X160020000Y-83820000D03*
X160020000Y-81280000D03*
X160020000Y-78740000D03*
X160020000Y-76200000D03*
X160020000Y-73660000D03*
X160020000Y-71120000D03*
X160020000Y-68580000D03*
X160020000Y-66040000D03*
X160020000Y-63500000D03*
D14*
X152410000Y-92700000D03*
D16*
X152410000Y-95240000D03*
X152410000Y-97780000D03*
X152410000Y-100320000D03*
X152410000Y-102860000D03*
X152410000Y-105400000D03*
X152410000Y-107940000D03*
X152410000Y-110480000D03*
X160030000Y-110480000D03*
X160030000Y-107940000D03*
X160030000Y-105400000D03*
X160030000Y-102860000D03*
X160030000Y-100320000D03*
X160030000Y-97780000D03*
X160030000Y-95240000D03*
X160030000Y-92700000D03*
D10*
X163830000Y-102890000D03*
X163830000Y-105390000D03*
X157460000Y-113665000D03*
X154960000Y-113665000D03*
X163830000Y-92730000D03*
X163830000Y-95230000D03*
D14*
X152410000Y-116820000D03*
D16*
X152410000Y-119360000D03*
X152410000Y-121900000D03*
X152410000Y-124440000D03*
X152410000Y-126980000D03*
X152410000Y-129520000D03*
X152410000Y-132060000D03*
X152410000Y-134600000D03*
X160030000Y-134600000D03*
X160030000Y-132060000D03*
X160030000Y-129520000D03*
X160030000Y-126980000D03*
X160030000Y-124440000D03*
X160030000Y-121900000D03*
X160030000Y-119360000D03*
X160030000Y-116820000D03*
D10*
X106065000Y-60325000D03*
X108565000Y-60325000D03*
D14*
X140335000Y-63500000D03*
D16*
X140335000Y-66040000D03*
X140335000Y-68580000D03*
X140335000Y-71120000D03*
X140335000Y-73660000D03*
X140335000Y-76200000D03*
X140335000Y-78740000D03*
X140335000Y-81280000D03*
X140335000Y-83820000D03*
X140335000Y-86360000D03*
X147955000Y-86360000D03*
X147955000Y-83820000D03*
X147955000Y-81280000D03*
X147955000Y-78740000D03*
X147955000Y-76200000D03*
X147955000Y-73660000D03*
X147955000Y-71120000D03*
X147955000Y-68580000D03*
X147955000Y-66040000D03*
X147955000Y-63500000D03*
D10*
X127020000Y-83185000D03*
X129520000Y-83185000D03*
D12*
X97770000Y-56800000D03*
D13*
X95230000Y-56800000D03*
D14*
X100965000Y-63500000D03*
D16*
X100965000Y-66040000D03*
X100965000Y-68580000D03*
X100965000Y-71120000D03*
X100965000Y-73660000D03*
X100965000Y-76200000D03*
X100965000Y-78740000D03*
X108585000Y-78740000D03*
X108585000Y-76200000D03*
X108585000Y-73660000D03*
X108585000Y-71120000D03*
X108585000Y-68580000D03*
X108585000Y-66040000D03*
X108585000Y-63500000D03*
D10*
X163830000Y-110490000D03*
X163830000Y-107990000D03*
X163830000Y-134600000D03*
X163830000Y-132100000D03*
X97155000Y-71120000D03*
D16*
X97155000Y-60960000D03*
D10*
X90170000Y-84455000D03*
X87670000Y-84455000D03*
D12*
X109220000Y-56800000D03*
D13*
X106680000Y-56800000D03*
D14*
X85090000Y-87630000D03*
D16*
X85090000Y-95250000D03*
X92710000Y-95250000D03*
X92710000Y-87630000D03*
D12*
X162560000Y-56800000D03*
D13*
X160020000Y-56800000D03*
D10*
X163830000Y-121940000D03*
X163830000Y-124440000D03*
D12*
X146685000Y-56800000D03*
D13*
X144145000Y-56800000D03*
D10*
X96520000Y-86360000D03*
D16*
X96520000Y-96520000D03*
D12*
X156845000Y-56800000D03*
D13*
X154305000Y-56800000D03*
D14*
X140335000Y-92710000D03*
D16*
X140335000Y-95250000D03*
X140335000Y-97790000D03*
X140335000Y-100330000D03*
X140335000Y-102870000D03*
X140335000Y-105410000D03*
X140335000Y-107950000D03*
X140335000Y-110490000D03*
X147955000Y-110490000D03*
X147955000Y-107950000D03*
X147955000Y-105410000D03*
X147955000Y-102870000D03*
X147955000Y-100330000D03*
X147955000Y-97790000D03*
X147955000Y-95250000D03*
X147955000Y-92710000D03*
D17*
X82550000Y-80645000D03*
D18*
X82550000Y-78105000D03*
X82550000Y-75565000D03*
D12*
X125075000Y-56800000D03*
D13*
X122535000Y-56800000D03*
D17*
X90170000Y-80645000D03*
D18*
X87630000Y-80645000D03*
X90170000Y-78105000D03*
X87630000Y-78105000D03*
X90170000Y-75565000D03*
X87630000Y-75565000D03*
D10*
X90170000Y-98425000D03*
X87670000Y-98425000D03*
D14*
X167707600Y-61660200D03*
D10*
X167707600Y-64160200D03*
X169707600Y-64160200D03*
X169707600Y-61660200D03*
D19*
X172567600Y-56910200D03*
X172567600Y-68910200D03*
D14*
X163830000Y-62230000D03*
D16*
X163830000Y-64770000D03*
X163830000Y-67310000D03*
X163830000Y-69850000D03*
X163830000Y-72390000D03*
X163830000Y-74930000D03*
X163830000Y-77470000D03*
X163830000Y-80010000D03*
X163830000Y-82550000D03*
X163830000Y-85090000D03*
X163830000Y-87630000D03*
D10*
X100985000Y-60325000D03*
X103485000Y-60325000D03*
D14*
X113030000Y-63500000D03*
D16*
X113030000Y-66040000D03*
X113030000Y-68580000D03*
X113030000Y-71120000D03*
X113030000Y-73660000D03*
X113030000Y-76200000D03*
X113030000Y-78740000D03*
X120650000Y-78740000D03*
X120650000Y-76200000D03*
X120650000Y-73660000D03*
X120650000Y-71120000D03*
X120650000Y-68580000D03*
X120650000Y-66040000D03*
X120650000Y-63500000D03*
D10*
X93980000Y-71120000D03*
D16*
X93980000Y-60960000D03*
D14*
X125095000Y-63500000D03*
D16*
X125095000Y-66040000D03*
X125095000Y-68580000D03*
X125095000Y-71120000D03*
X125095000Y-73660000D03*
X125095000Y-76200000D03*
X125095000Y-78740000D03*
X132715000Y-78740000D03*
X132715000Y-76200000D03*
X132715000Y-73660000D03*
X132715000Y-71120000D03*
X132715000Y-68580000D03*
X132715000Y-66040000D03*
X132715000Y-63500000D03*
D14*
X100965000Y-86350000D03*
D16*
X100965000Y-88890000D03*
X100965000Y-91430000D03*
X100965000Y-93970000D03*
X100965000Y-96510000D03*
X100965000Y-99050000D03*
X100965000Y-101590000D03*
X100965000Y-104130000D03*
X100965000Y-106670000D03*
X100965000Y-109210000D03*
X100965000Y-111750000D03*
X100965000Y-114290000D03*
X100965000Y-116830000D03*
X100965000Y-119370000D03*
X100965000Y-121910000D03*
X100965000Y-124450000D03*
X100965000Y-126990000D03*
X100965000Y-129530000D03*
X100965000Y-132070000D03*
X100965000Y-134610000D03*
X116205000Y-134610000D03*
X116205000Y-132070000D03*
X116205000Y-129530000D03*
X116205000Y-126990000D03*
X116205000Y-124450000D03*
X116205000Y-121910000D03*
X116205000Y-119370000D03*
X116205000Y-116830000D03*
X116205000Y-114290000D03*
X116205000Y-111750000D03*
X116205000Y-109210000D03*
X116205000Y-106670000D03*
X116205000Y-104130000D03*
X116205000Y-101590000D03*
X116205000Y-99050000D03*
X116205000Y-96510000D03*
X116205000Y-93970000D03*
X116205000Y-91430000D03*
X116205000Y-88890000D03*
X116205000Y-86350000D03*
D14*
X120650000Y-86350000D03*
D16*
X120650000Y-88890000D03*
X120650000Y-91430000D03*
X120650000Y-93970000D03*
X120650000Y-96510000D03*
X120650000Y-99050000D03*
X120650000Y-101590000D03*
X120650000Y-104130000D03*
X120650000Y-106670000D03*
X120650000Y-109210000D03*
X120650000Y-111750000D03*
X120650000Y-114290000D03*
X120650000Y-116830000D03*
X120650000Y-119370000D03*
X120650000Y-121910000D03*
X120650000Y-124450000D03*
X120650000Y-126990000D03*
X120650000Y-129530000D03*
X120650000Y-132070000D03*
X120650000Y-134610000D03*
X135890000Y-134610000D03*
X135890000Y-132070000D03*
X135890000Y-129530000D03*
X135890000Y-126990000D03*
X135890000Y-124450000D03*
X135890000Y-121910000D03*
X135890000Y-119370000D03*
X135890000Y-116830000D03*
X135890000Y-114290000D03*
X135890000Y-111750000D03*
X135890000Y-109210000D03*
X135890000Y-106670000D03*
X135890000Y-104130000D03*
X135890000Y-101590000D03*
X135890000Y-99050000D03*
X135890000Y-96510000D03*
X135890000Y-93970000D03*
X135890000Y-91430000D03*
X135890000Y-88890000D03*
X135890000Y-86350000D03*
D10*
X145395000Y-113665000D03*
X142895000Y-113665000D03*
X118130000Y-60325000D03*
X120630000Y-60325000D03*
D19*
X169409400Y-133050600D03*
X169409400Y-108050600D03*
D14*
X169109400Y-115010600D03*
D10*
X169109400Y-117780600D03*
X169109400Y-120550600D03*
X169109400Y-123320600D03*
X169109400Y-126090600D03*
X171949400Y-116395600D03*
X171949400Y-119165600D03*
X171949400Y-121935600D03*
X171949400Y-124705600D03*
X145395000Y-60325000D03*
X142895000Y-60325000D03*
D14*
X140335000Y-116820000D03*
D16*
X140335000Y-119360000D03*
X140335000Y-121900000D03*
X140335000Y-124440000D03*
X140335000Y-126980000D03*
X140335000Y-129520000D03*
X140335000Y-132060000D03*
X140335000Y-134600000D03*
X147955000Y-134600000D03*
X147955000Y-132060000D03*
X147955000Y-129520000D03*
X147955000Y-126980000D03*
X147955000Y-124440000D03*
X147955000Y-121900000D03*
X147955000Y-119360000D03*
X147955000Y-116820000D03*
D19*
X169409400Y-100550600D03*
X169409400Y-75550600D03*
D14*
X169109400Y-93590600D03*
D10*
X169109400Y-90820600D03*
X169109400Y-88050600D03*
X169109400Y-85280600D03*
X169109400Y-82510600D03*
X171949400Y-92205600D03*
X171949400Y-89435600D03*
X171949400Y-86665600D03*
X171949400Y-83895600D03*
D17*
X95250000Y-80645000D03*
D18*
X95250000Y-78105000D03*
X95250000Y-75565000D03*
D10*
X163830000Y-127020000D03*
X163830000Y-129520000D03*
X145395000Y-89535000D03*
X142895000Y-89535000D03*
X107335000Y-83185000D03*
X109835000Y-83185000D03*
D14*
X81265000Y-101575000D03*
D16*
X81265000Y-104115000D03*
X81265000Y-106655000D03*
X81265000Y-109195000D03*
X81265000Y-111735000D03*
X81265000Y-114275000D03*
X81265000Y-116815000D03*
X81265000Y-119355000D03*
X81265000Y-121895000D03*
X81265000Y-124435000D03*
X81265000Y-126975000D03*
X81265000Y-129515000D03*
X81265000Y-132055000D03*
X81265000Y-134595000D03*
X96505000Y-134595000D03*
X96505000Y-132055000D03*
X96505000Y-129515000D03*
X96505000Y-126975000D03*
X96505000Y-124435000D03*
X96505000Y-121895000D03*
X96505000Y-119355000D03*
X96505000Y-116815000D03*
X96505000Y-114275000D03*
X96505000Y-111735000D03*
X96505000Y-109195000D03*
X96505000Y-106655000D03*
X96505000Y-104115000D03*
X96505000Y-101575000D03*
D10*
X130155000Y-60325000D03*
X127655000Y-60325000D03*
D12*
X140970000Y-56800000D03*
D13*
X138430000Y-56800000D03*
D10*
X113050000Y-60325000D03*
X115550000Y-60325000D03*
M02*
