%TF.GenerationSoftware,KiCad,Pcbnew,7.0.7*%
%TF.CreationDate,2023-09-10T22:27:07-04:00*%
%TF.ProjectId,4 - Quad serial,34202d20-5175-4616-9420-73657269616c,1*%
%TF.SameCoordinates,Original*%
%TF.FileFunction,Drillmap*%
%TF.FilePolarity,Positive*%
%FSLAX45Y45*%
G04 Gerber Fmt 4.5, Leading zero omitted, Abs format (unit mm)*
G04 Created by KiCad (PCBNEW 7.0.7) date 2023-09-10 22:27:07*
%MOMM*%
%LPD*%
G01*
G04 APERTURE LIST*
%ADD10C,0.200000*%
%ADD11C,0.040000*%
%ADD12C,0.050000*%
%ADD13C,0.080000*%
%ADD14C,0.090000*%
%ADD15C,0.092000*%
%ADD16C,0.095000*%
%ADD17C,0.100000*%
%ADD18C,0.230000*%
%ADD19C,0.320000*%
G04 APERTURE END LIST*
D10*
D11*
X7854000Y-5745800D02*
X7894000Y-5785800D01*
X7894000Y-5745800D02*
X7854000Y-5785800D01*
X8222300Y-9898700D02*
X8262300Y-9938700D01*
X8262300Y-9898700D02*
X8222300Y-9938700D01*
X8289060Y-10998800D02*
X8329060Y-11038800D01*
X8329060Y-10998800D02*
X8289060Y-11038800D01*
X8289140Y-10622680D02*
X8329140Y-10662680D01*
X8329140Y-10622680D02*
X8289140Y-10662680D01*
X8412800Y-12489500D02*
X8452800Y-12529500D01*
X8452800Y-12489500D02*
X8412800Y-12529500D01*
X8489000Y-6533200D02*
X8529000Y-6573200D01*
X8529000Y-6533200D02*
X8489000Y-6573200D01*
X8501700Y-10495600D02*
X8541700Y-10535600D01*
X8541700Y-10495600D02*
X8501700Y-10535600D01*
X8514400Y-12819700D02*
X8554400Y-12859700D01*
X8554400Y-12819700D02*
X8514400Y-12859700D01*
X8527100Y-11816400D02*
X8567100Y-11856400D01*
X8567100Y-11816400D02*
X8527100Y-11856400D01*
X8641400Y-7917500D02*
X8681400Y-7957500D01*
X8681400Y-7917500D02*
X8641400Y-7957500D01*
X8654100Y-10622600D02*
X8694100Y-10662600D01*
X8694100Y-10622600D02*
X8654100Y-10662600D01*
X8768400Y-13518200D02*
X8808400Y-13558200D01*
X8808400Y-13518200D02*
X8768400Y-13558200D01*
X8880120Y-10724950D02*
X8920120Y-10764950D01*
X8920120Y-10724950D02*
X8880120Y-10764950D01*
X8997000Y-8743000D02*
X9037000Y-8783000D01*
X9037000Y-8743000D02*
X8997000Y-8783000D01*
X8997000Y-13188000D02*
X9037000Y-13228000D01*
X9037000Y-13188000D02*
X8997000Y-13228000D01*
X9035100Y-13772200D02*
X9075100Y-13812200D01*
X9075100Y-13772200D02*
X9035100Y-13812200D01*
X9107559Y-13667479D02*
X9147559Y-13707479D01*
X9147559Y-13667479D02*
X9107559Y-13707479D01*
X9136700Y-8298500D02*
X9176700Y-8338500D01*
X9176700Y-8298500D02*
X9136700Y-8338500D01*
X9152330Y-6803920D02*
X9192330Y-6843920D01*
X9192330Y-6803920D02*
X9152330Y-6843920D01*
X9200200Y-10533700D02*
X9240200Y-10573700D01*
X9240200Y-10533700D02*
X9200200Y-10573700D01*
X9251000Y-9251000D02*
X9291000Y-9291000D01*
X9291000Y-9251000D02*
X9251000Y-9291000D01*
X9289100Y-14026200D02*
X9329100Y-14066200D01*
X9329100Y-14026200D02*
X9289100Y-14066200D01*
X9315780Y-8039740D02*
X9355780Y-8079740D01*
X9355780Y-8039740D02*
X9315780Y-8079740D01*
X9333120Y-8571980D02*
X9373120Y-8611980D01*
X9373120Y-8571980D02*
X9333120Y-8611980D01*
X9364390Y-10523240D02*
X9404390Y-10563240D01*
X9404390Y-10523240D02*
X9364390Y-10563240D01*
X9365300Y-9924100D02*
X9405300Y-9964100D01*
X9405300Y-9924100D02*
X9365300Y-9964100D01*
X9402000Y-8301180D02*
X9442000Y-8341180D01*
X9442000Y-8301180D02*
X9402000Y-8341180D01*
X9428800Y-12718100D02*
X9468800Y-12758100D01*
X9468800Y-12718100D02*
X9428800Y-12758100D01*
X9466900Y-12045000D02*
X9506900Y-12085000D01*
X9506900Y-12045000D02*
X9466900Y-12085000D01*
X9530400Y-14000800D02*
X9570400Y-14040800D01*
X9570400Y-14000800D02*
X9530400Y-14040800D01*
X9657400Y-6380800D02*
X9697400Y-6420800D01*
X9697400Y-6380800D02*
X9657400Y-6420800D01*
X9720900Y-8412800D02*
X9760900Y-8452800D01*
X9760900Y-8412800D02*
X9720900Y-8452800D01*
X9792330Y-9196050D02*
X9832330Y-9236050D01*
X9832330Y-9196050D02*
X9792330Y-9236050D01*
X9822500Y-8806500D02*
X9862500Y-8846500D01*
X9862500Y-8806500D02*
X9822500Y-8846500D01*
X9822500Y-12235500D02*
X9862500Y-12275500D01*
X9862500Y-12235500D02*
X9822500Y-12275500D01*
X9860600Y-7066600D02*
X9900600Y-7106600D01*
X9900600Y-7066600D02*
X9860600Y-7106600D01*
X9860600Y-11079800D02*
X9900600Y-11119800D01*
X9900600Y-11079800D02*
X9860600Y-11119800D01*
X9870290Y-12709740D02*
X9910290Y-12749740D01*
X9910290Y-12709740D02*
X9870290Y-12749740D01*
X9900530Y-11566350D02*
X9940530Y-11606350D01*
X9940530Y-11566350D02*
X9900530Y-11606350D01*
X9927440Y-12921240D02*
X9967440Y-12961240D01*
X9967440Y-12921240D02*
X9927440Y-12961240D01*
X9962200Y-14102400D02*
X10002200Y-14142400D01*
X10002200Y-14102400D02*
X9962200Y-14142400D01*
X10081080Y-13945420D02*
X10121080Y-13985420D01*
X10121080Y-13945420D02*
X10081080Y-13985420D01*
X10219240Y-12906140D02*
X10259240Y-12946140D01*
X10259240Y-12906140D02*
X10219240Y-12946140D01*
X10322220Y-12910930D02*
X10362220Y-12950930D01*
X10362220Y-12910930D02*
X10322220Y-12950930D01*
X10330500Y-8184200D02*
X10370500Y-8224200D01*
X10370500Y-8184200D02*
X10330500Y-8224200D01*
X10394000Y-13632500D02*
X10434000Y-13672500D01*
X10434000Y-13632500D02*
X10394000Y-13672500D01*
X10435180Y-9797100D02*
X10475180Y-9837100D01*
X10475180Y-9797100D02*
X10435180Y-9837100D01*
X10469920Y-12983380D02*
X10509920Y-13023380D01*
X10509920Y-12983380D02*
X10469920Y-13023380D01*
X10470200Y-13368550D02*
X10510200Y-13408550D01*
X10510200Y-13368550D02*
X10470200Y-13408550D01*
X10533700Y-10902000D02*
X10573700Y-10942000D01*
X10573700Y-10902000D02*
X10533700Y-10942000D01*
X10559100Y-13099100D02*
X10599100Y-13139100D01*
X10599100Y-13099100D02*
X10559100Y-13139100D01*
X10635300Y-7104700D02*
X10675300Y-7144700D01*
X10675300Y-7104700D02*
X10635300Y-7144700D01*
X10635300Y-7422200D02*
X10675300Y-7462200D01*
X10675300Y-7422200D02*
X10635300Y-7462200D01*
X10648000Y-11346500D02*
X10688000Y-11386500D01*
X10688000Y-11346500D02*
X10648000Y-11386500D01*
X10724230Y-13086400D02*
X10764230Y-13126400D01*
X10764230Y-13086400D02*
X10724230Y-13126400D01*
X10736900Y-8148600D02*
X10776900Y-8188600D01*
X10776900Y-8148600D02*
X10736900Y-8188600D01*
X10838500Y-9558550D02*
X10878500Y-9598550D01*
X10878500Y-9558550D02*
X10838500Y-9598550D01*
X10838500Y-9759000D02*
X10878500Y-9799000D01*
X10878500Y-9759000D02*
X10838500Y-9799000D01*
X10838500Y-13721400D02*
X10878500Y-13761400D01*
X10878500Y-13721400D02*
X10838500Y-13761400D01*
X10851200Y-9124000D02*
X10891200Y-9164000D01*
X10891200Y-9124000D02*
X10851200Y-9164000D01*
X10851200Y-9339900D02*
X10891200Y-9379900D01*
X10891200Y-9339900D02*
X10851200Y-9379900D01*
X10863900Y-9911400D02*
X10903900Y-9951400D01*
X10903900Y-9911400D02*
X10863900Y-9951400D01*
X10978200Y-12565700D02*
X11018200Y-12605700D01*
X11018200Y-12565700D02*
X10978200Y-12605700D01*
X11063510Y-10671300D02*
X11103510Y-10711300D01*
X11103510Y-10671300D02*
X11063510Y-10711300D01*
X11083550Y-13988100D02*
X11123550Y-14028100D01*
X11123550Y-13988100D02*
X11083550Y-14028100D01*
X11092500Y-13285160D02*
X11132500Y-13325160D01*
X11132500Y-13285160D02*
X11092500Y-13325160D01*
X11206800Y-11664000D02*
X11246800Y-11704000D01*
X11246800Y-11664000D02*
X11206800Y-11704000D01*
X11295700Y-12921300D02*
X11335700Y-12961300D01*
X11335700Y-12921300D02*
X11295700Y-12961300D01*
X11321739Y-13530261D02*
X11361739Y-13570261D01*
X11361739Y-13530261D02*
X11321739Y-13570261D01*
X11344030Y-10394000D02*
X11384030Y-10434000D01*
X11384030Y-10394000D02*
X11344030Y-10434000D01*
X11399190Y-12171000D02*
X11439190Y-12211000D01*
X11439190Y-12171000D02*
X11399190Y-12211000D01*
X11410000Y-9111300D02*
X11450000Y-9151300D01*
X11450000Y-9111300D02*
X11410000Y-9151300D01*
X11410000Y-13061000D02*
X11450000Y-13101000D01*
X11450000Y-13061000D02*
X11410000Y-13101000D01*
X11410735Y-8501825D02*
X11450735Y-8541825D01*
X11450735Y-8501825D02*
X11410735Y-8541825D01*
X11427595Y-13487905D02*
X11467595Y-13527905D01*
X11467595Y-13487905D02*
X11427595Y-13527905D01*
X11460800Y-7003100D02*
X11500800Y-7043100D01*
X11500800Y-7003100D02*
X11460800Y-7043100D01*
X11473500Y-6469700D02*
X11513500Y-6509700D01*
X11513500Y-6469700D02*
X11473500Y-6509700D01*
X11767880Y-8044500D02*
X11807880Y-8084500D01*
X11807880Y-8044500D02*
X11767880Y-8084500D01*
X11816400Y-7104700D02*
X11856400Y-7144700D01*
X11856400Y-7104700D02*
X11816400Y-7144700D01*
X11829100Y-7612700D02*
X11869100Y-7652700D01*
X11869100Y-7612700D02*
X11829100Y-7652700D01*
X11844000Y-12463670D02*
X11884000Y-12503670D01*
X11884000Y-12463670D02*
X11844000Y-12503670D01*
X11854500Y-7854000D02*
X11894500Y-7894000D01*
X11894500Y-7854000D02*
X11854500Y-7894000D01*
X11878750Y-11288103D02*
X11918750Y-11328103D01*
X11918750Y-11288103D02*
X11878750Y-11328103D01*
X11926950Y-12819700D02*
X11966950Y-12859700D01*
X11966950Y-12819700D02*
X11926950Y-12859700D01*
X11932470Y-8373560D02*
X11972470Y-8413560D01*
X11972470Y-8373560D02*
X11932470Y-8413560D01*
X12123280Y-8295560D02*
X12163280Y-8335560D01*
X12163280Y-8295560D02*
X12123280Y-8335560D01*
X12213850Y-9229350D02*
X12253850Y-9269350D01*
X12253850Y-9229350D02*
X12213850Y-9269350D01*
X12286300Y-13696000D02*
X12326300Y-13736000D01*
X12326300Y-13696000D02*
X12286300Y-13736000D01*
X12299000Y-5961700D02*
X12339000Y-6001700D01*
X12339000Y-5961700D02*
X12299000Y-6001700D01*
X12387900Y-12426000D02*
X12427900Y-12466000D01*
X12427900Y-12426000D02*
X12387900Y-12466000D01*
X12392496Y-9634046D02*
X12432496Y-9674046D01*
X12432496Y-9634046D02*
X12392496Y-9674046D01*
X12413300Y-5961700D02*
X12453300Y-6001700D01*
X12453300Y-5961700D02*
X12413300Y-6001700D01*
X12413300Y-11664000D02*
X12453300Y-11704000D01*
X12453300Y-11664000D02*
X12413300Y-11704000D01*
X12413300Y-12807000D02*
X12453300Y-12847000D01*
X12453300Y-12807000D02*
X12413300Y-12847000D01*
X12502200Y-11905300D02*
X12542200Y-11945300D01*
X12542200Y-11905300D02*
X12502200Y-11945300D01*
X12549150Y-10004180D02*
X12589150Y-10044180D01*
X12589150Y-10004180D02*
X12549150Y-10044180D01*
X12553000Y-13581700D02*
X12593000Y-13621700D01*
X12593000Y-13581700D02*
X12553000Y-13621700D01*
X12583900Y-8472780D02*
X12623900Y-8512780D01*
X12623900Y-8472780D02*
X12583900Y-8512780D01*
X12660550Y-7213170D02*
X12700550Y-7253170D01*
X12700550Y-7213170D02*
X12660550Y-7253170D01*
X12794300Y-9543100D02*
X12834300Y-9583100D01*
X12834300Y-9543100D02*
X12794300Y-9583100D01*
X12794300Y-12311700D02*
X12834300Y-12351700D01*
X12834300Y-12311700D02*
X12794300Y-12351700D01*
X12796180Y-13975400D02*
X12836180Y-14015400D01*
X12836180Y-13975400D02*
X12796180Y-14015400D01*
X12819700Y-8895400D02*
X12859700Y-8935400D01*
X12859700Y-8895400D02*
X12819700Y-8935400D01*
X12895900Y-7638100D02*
X12935900Y-7678100D01*
X12935900Y-7638100D02*
X12895900Y-7678100D01*
X12934000Y-13061000D02*
X12974000Y-13101000D01*
X12974000Y-13061000D02*
X12934000Y-13101000D01*
X12934000Y-13975400D02*
X12974000Y-14015400D01*
X12974000Y-13975400D02*
X12934000Y-14015400D01*
X12972100Y-6495100D02*
X13012100Y-6535100D01*
X13012100Y-6495100D02*
X12972100Y-6535100D01*
X12972800Y-12575740D02*
X13012800Y-12615740D01*
X13012800Y-12575740D02*
X12972800Y-12615740D01*
X12984800Y-7346000D02*
X13024800Y-7386000D01*
X13024800Y-7346000D02*
X12984800Y-7386000D01*
X12997500Y-6876100D02*
X13037500Y-6916100D01*
X13037500Y-6876100D02*
X12997500Y-6916100D01*
X13045250Y-12335900D02*
X13085250Y-12375900D01*
X13085250Y-12335900D02*
X13045250Y-12375900D01*
X13061000Y-10152700D02*
X13101000Y-10192700D01*
X13101000Y-10152700D02*
X13061000Y-10192700D01*
X13124500Y-11355450D02*
X13164500Y-11395450D01*
X13164500Y-11355450D02*
X13124500Y-11395450D01*
X13137200Y-12553000D02*
X13177200Y-12593000D01*
X13177200Y-12553000D02*
X13137200Y-12593000D01*
X13158845Y-10574550D02*
X13198845Y-10614550D01*
X13198845Y-10574550D02*
X13158845Y-10614550D01*
X13162810Y-12654600D02*
X13202810Y-12694600D01*
X13202810Y-12654600D02*
X13162810Y-12694600D01*
X13188000Y-14000800D02*
X13228000Y-14040800D01*
X13228000Y-14000800D02*
X13188000Y-14040800D01*
X13238800Y-6114100D02*
X13278800Y-6154100D01*
X13278800Y-6114100D02*
X13238800Y-6154100D01*
X13250780Y-13513450D02*
X13290780Y-13553450D01*
X13290780Y-13513450D02*
X13250780Y-13553450D01*
X13289600Y-9886000D02*
X13329600Y-9926000D01*
X13329600Y-9886000D02*
X13289600Y-9926000D01*
X13299990Y-11389820D02*
X13339990Y-11429820D01*
X13339990Y-11389820D02*
X13299990Y-11429820D01*
X13315000Y-10089200D02*
X13355000Y-10129200D01*
X13355000Y-10089200D02*
X13315000Y-10129200D01*
X13328070Y-8542460D02*
X13368070Y-8582460D01*
X13368070Y-8542460D02*
X13328070Y-8582460D01*
X13375110Y-10406700D02*
X13415110Y-10446700D01*
X13415110Y-10406700D02*
X13375110Y-10446700D01*
X13378500Y-5644200D02*
X13418500Y-5684200D01*
X13418500Y-5644200D02*
X13378500Y-5684200D01*
X13392287Y-12050988D02*
X13432287Y-12090988D01*
X13432287Y-12050988D02*
X13392287Y-12090988D01*
X13428620Y-10245840D02*
X13468620Y-10285840D01*
X13468620Y-10245840D02*
X13428620Y-10285840D01*
X13645200Y-5745800D02*
X13685200Y-5785800D01*
X13685200Y-5745800D02*
X13645200Y-5785800D01*
X13727950Y-9632000D02*
X13767950Y-9672000D01*
X13767950Y-9632000D02*
X13727950Y-9672000D01*
X13835700Y-7079300D02*
X13875700Y-7119300D01*
X13875700Y-7079300D02*
X13835700Y-7119300D01*
X13835700Y-14013500D02*
X13875700Y-14053500D01*
X13875700Y-14013500D02*
X13835700Y-14053500D01*
X13842118Y-12000711D02*
X13882118Y-12040711D01*
X13882118Y-12000711D02*
X13842118Y-12040711D01*
X13884870Y-10902000D02*
X13924870Y-10942000D01*
X13924870Y-10902000D02*
X13884870Y-10942000D01*
X13971690Y-11499760D02*
X14011690Y-11539760D01*
X14011690Y-11499760D02*
X13971690Y-11539760D01*
X14077020Y-6012470D02*
X14117020Y-6052470D01*
X14117020Y-6012470D02*
X14077020Y-6052470D01*
X14089700Y-11477010D02*
X14129700Y-11517010D01*
X14129700Y-11477010D02*
X14089700Y-11517010D01*
X14178600Y-13149900D02*
X14218600Y-13189900D01*
X14218600Y-13149900D02*
X14178600Y-13189900D01*
X14191300Y-7104700D02*
X14231300Y-7144700D01*
X14231300Y-7104700D02*
X14191300Y-7144700D01*
X14355830Y-9426260D02*
X14395830Y-9466260D01*
X14395830Y-9426260D02*
X14355830Y-9466260D01*
X14360470Y-6884800D02*
X14400470Y-6924800D01*
X14400470Y-6884800D02*
X14360470Y-6924800D01*
X14369100Y-10762300D02*
X14409100Y-10802300D01*
X14409100Y-10762300D02*
X14369100Y-10802300D01*
X14419900Y-9289100D02*
X14459900Y-9329100D01*
X14459900Y-9289100D02*
X14419900Y-9329100D01*
X14419900Y-13200700D02*
X14459900Y-13240700D01*
X14459900Y-13200700D02*
X14419900Y-13240700D01*
X14423070Y-11539290D02*
X14463070Y-11579290D01*
X14463070Y-11539290D02*
X14423070Y-11579290D01*
X14423450Y-13492270D02*
X14463450Y-13532270D01*
X14463450Y-13492270D02*
X14423450Y-13532270D01*
X14444070Y-7099110D02*
X14484070Y-7139110D01*
X14484070Y-7099110D02*
X14444070Y-7139110D01*
X14496100Y-11638600D02*
X14536100Y-11678600D01*
X14536100Y-11638600D02*
X14496100Y-11678600D01*
X14502790Y-6852100D02*
X14542790Y-6892100D01*
X14542790Y-6852100D02*
X14502790Y-6892100D01*
X14508800Y-11905300D02*
X14548800Y-11945300D01*
X14548800Y-11905300D02*
X14508800Y-11945300D01*
X14513650Y-10421660D02*
X14553650Y-10461660D01*
X14553650Y-10421660D02*
X14513650Y-10461660D01*
X14560880Y-10974660D02*
X14600880Y-11014660D01*
X14600880Y-10974660D02*
X14560880Y-11014660D01*
X14610400Y-12794300D02*
X14650400Y-12834300D01*
X14650400Y-12794300D02*
X14610400Y-12834300D01*
X14635800Y-6977700D02*
X14675800Y-7017700D01*
X14675800Y-6977700D02*
X14635800Y-7017700D01*
X14678760Y-6462790D02*
X14718760Y-6502790D01*
X14718760Y-6462790D02*
X14678760Y-6502790D01*
X14712000Y-14051600D02*
X14752000Y-14091600D01*
X14752000Y-14051600D02*
X14712000Y-14091600D01*
X14934880Y-8867410D02*
X14974880Y-8907410D01*
X14974880Y-8867410D02*
X14934880Y-8907410D01*
X14947380Y-8977390D02*
X14987380Y-9017390D01*
X14987380Y-8977390D02*
X14947380Y-9017390D01*
X14959410Y-8221620D02*
X14999410Y-8261620D01*
X14999410Y-8221620D02*
X14959410Y-8261620D01*
X14991400Y-11412970D02*
X15031400Y-11452970D01*
X15031400Y-11412970D02*
X14991400Y-11452970D01*
X15066710Y-13478980D02*
X15106710Y-13518980D01*
X15106710Y-13478980D02*
X15066710Y-13518980D01*
X15080300Y-11295700D02*
X15120300Y-11335700D01*
X15120300Y-11295700D02*
X15080300Y-11335700D01*
X15131530Y-11147050D02*
X15171530Y-11187050D01*
X15171530Y-11147050D02*
X15131530Y-11187050D01*
X15185110Y-5389780D02*
X15225110Y-5429780D01*
X15225110Y-5389780D02*
X15185110Y-5429780D01*
X15187520Y-8772600D02*
X15227520Y-8812600D01*
X15227520Y-8772600D02*
X15187520Y-8812600D01*
X15309750Y-8950790D02*
X15349750Y-8990790D01*
X15349750Y-8950790D02*
X15309750Y-8990790D01*
X15340160Y-9632000D02*
X15380160Y-9672000D01*
X15380160Y-9632000D02*
X15340160Y-9672000D01*
X15371805Y-13988695D02*
X15411805Y-14028695D01*
X15411805Y-13988695D02*
X15371805Y-14028695D01*
X15372400Y-9835200D02*
X15412400Y-9875200D01*
X15412400Y-9835200D02*
X15372400Y-9875200D01*
X15410500Y-12794300D02*
X15450500Y-12834300D01*
X15450500Y-12794300D02*
X15410500Y-12834300D01*
X15448600Y-12032300D02*
X15488600Y-12072300D01*
X15488600Y-12032300D02*
X15448600Y-12072300D01*
X15613700Y-9289100D02*
X15653700Y-9329100D01*
X15653700Y-9289100D02*
X15613700Y-9329100D01*
X15615670Y-8356410D02*
X15655670Y-8396410D01*
X15655670Y-8356410D02*
X15615670Y-8396410D01*
X15664500Y-10775000D02*
X15704500Y-10815000D01*
X15704500Y-10775000D02*
X15664500Y-10815000D01*
X15669200Y-14077000D02*
X15709200Y-14117000D01*
X15709200Y-14077000D02*
X15669200Y-14117000D01*
X15728000Y-6520500D02*
X15768000Y-6560500D01*
X15768000Y-6520500D02*
X15728000Y-6560500D01*
X15753400Y-7371400D02*
X15793400Y-7411400D01*
X15793400Y-7371400D02*
X15753400Y-7411400D01*
X15778800Y-10399880D02*
X15818800Y-10439880D01*
X15818800Y-10399880D02*
X15778800Y-10439880D01*
X15778800Y-13746800D02*
X15818800Y-13786800D01*
X15818800Y-13746800D02*
X15778800Y-13786800D01*
X15791500Y-13403900D02*
X15831500Y-13443900D01*
X15831500Y-13403900D02*
X15791500Y-13443900D01*
X15931200Y-6088700D02*
X15971200Y-6128700D01*
X15971200Y-6088700D02*
X15931200Y-6128700D01*
X16032800Y-5961700D02*
X16072800Y-6001700D01*
X16072800Y-5961700D02*
X16032800Y-6001700D01*
X16185200Y-13556300D02*
X16225200Y-13596300D01*
X16225200Y-13556300D02*
X16185200Y-13596300D01*
X16196060Y-5368950D02*
X16236060Y-5408950D01*
X16236060Y-5368950D02*
X16196060Y-5408950D01*
X16197900Y-9632000D02*
X16237900Y-9672000D01*
X16237900Y-9632000D02*
X16197900Y-9672000D01*
X16200335Y-9058065D02*
X16240335Y-9098065D01*
X16240335Y-9058065D02*
X16200335Y-9098065D01*
X16292024Y-8361931D02*
X16332024Y-8401931D01*
X16332024Y-8361931D02*
X16292024Y-8401931D01*
X16577380Y-8080850D02*
X16617380Y-8120850D01*
X16617380Y-8080850D02*
X16577380Y-8120850D01*
X16595350Y-9644700D02*
X16635350Y-9684700D01*
X16635350Y-9644700D02*
X16595350Y-9684700D01*
X16693200Y-12426000D02*
X16733200Y-12466000D01*
X16733200Y-12426000D02*
X16693200Y-12466000D01*
X16757250Y-8126250D02*
X16797250Y-8166250D01*
X16797250Y-8126250D02*
X16757250Y-8166250D01*
X16807500Y-5212400D02*
X16847500Y-5252400D01*
X16847500Y-5212400D02*
X16807500Y-5252400D01*
X17353600Y-6457000D02*
X17393600Y-6497000D01*
X17393600Y-6457000D02*
X17353600Y-6497000D01*
D12*
X8724500Y-11112500D02*
G75*
G03*
X8724500Y-11112500I-25000J0D01*
G01*
X8915000Y-14033500D02*
G75*
G03*
X8915000Y-14033500I-25000J0D01*
G01*
X9105500Y-11125200D02*
G75*
G03*
X9105500Y-11125200I-25000J0D01*
G01*
X9169000Y-14033500D02*
G75*
G03*
X9169000Y-14033500I-25000J0D01*
G01*
X10693000Y-10604500D02*
G75*
G03*
X10693000Y-10604500I-25000J0D01*
G01*
X11074000Y-10858500D02*
G75*
G03*
X11074000Y-10858500I-25000J0D01*
G01*
X12661500Y-10604500D02*
G75*
G03*
X12661500Y-10604500I-25000J0D01*
G01*
X13042500Y-10858500D02*
G75*
G03*
X13042500Y-10858500I-25000J0D01*
G01*
X16281000Y-14040980D02*
G75*
G03*
X16281000Y-14040980I-25000J0D01*
G01*
X16535000Y-13728700D02*
G75*
G03*
X16535000Y-13728700I-25000J0D01*
G01*
D13*
X8126500Y-10117500D02*
X8126500Y-10197500D01*
X8086500Y-10157500D02*
X8166500Y-10157500D01*
X8126500Y-10371500D02*
X8126500Y-10451500D01*
X8086500Y-10411500D02*
X8166500Y-10411500D01*
X8126500Y-10625500D02*
X8126500Y-10705500D01*
X8086500Y-10665500D02*
X8166500Y-10665500D01*
X8126500Y-10879500D02*
X8126500Y-10959500D01*
X8086500Y-10919500D02*
X8166500Y-10919500D01*
X8126500Y-11133500D02*
X8126500Y-11213500D01*
X8086500Y-11173500D02*
X8166500Y-11173500D01*
X8126500Y-11387500D02*
X8126500Y-11467500D01*
X8086500Y-11427500D02*
X8166500Y-11427500D01*
X8126500Y-11641500D02*
X8126500Y-11721500D01*
X8086500Y-11681500D02*
X8166500Y-11681500D01*
X8126500Y-11895500D02*
X8126500Y-11975500D01*
X8086500Y-11935500D02*
X8166500Y-11935500D01*
X8126500Y-12149500D02*
X8126500Y-12229500D01*
X8086500Y-12189500D02*
X8166500Y-12189500D01*
X8126500Y-12403500D02*
X8126500Y-12483500D01*
X8086500Y-12443500D02*
X8166500Y-12443500D01*
X8126500Y-12657500D02*
X8126500Y-12737500D01*
X8086500Y-12697500D02*
X8166500Y-12697500D01*
X8126500Y-12911500D02*
X8126500Y-12991500D01*
X8086500Y-12951500D02*
X8166500Y-12951500D01*
X8126500Y-13165500D02*
X8126500Y-13245500D01*
X8086500Y-13205500D02*
X8166500Y-13205500D01*
X8126500Y-13419500D02*
X8126500Y-13499500D01*
X8086500Y-13459500D02*
X8166500Y-13459500D01*
X8509000Y-8723000D02*
X8509000Y-8803000D01*
X8469000Y-8763000D02*
X8549000Y-8763000D01*
X8509000Y-9485000D02*
X8509000Y-9565000D01*
X8469000Y-9525000D02*
X8549000Y-9525000D01*
X8767000Y-8405500D02*
X8767000Y-8485500D01*
X8727000Y-8445500D02*
X8807000Y-8445500D01*
X8767000Y-9802500D02*
X8767000Y-9882500D01*
X8727000Y-9842500D02*
X8807000Y-9842500D01*
X9017000Y-8405500D02*
X9017000Y-8485500D01*
X8977000Y-8445500D02*
X9057000Y-8445500D01*
X9017000Y-9802500D02*
X9017000Y-9882500D01*
X8977000Y-9842500D02*
X9057000Y-9842500D01*
X9271000Y-8723000D02*
X9271000Y-8803000D01*
X9231000Y-8763000D02*
X9311000Y-8763000D01*
X9271000Y-9485000D02*
X9271000Y-9565000D01*
X9231000Y-9525000D02*
X9311000Y-9525000D01*
X9398000Y-6056000D02*
X9398000Y-6136000D01*
X9358000Y-6096000D02*
X9438000Y-6096000D01*
X9398000Y-7072000D02*
X9398000Y-7152000D01*
X9358000Y-7112000D02*
X9438000Y-7112000D01*
X9650500Y-10117500D02*
X9650500Y-10197500D01*
X9610500Y-10157500D02*
X9690500Y-10157500D01*
X9650500Y-10371500D02*
X9650500Y-10451500D01*
X9610500Y-10411500D02*
X9690500Y-10411500D01*
X9650500Y-10625500D02*
X9650500Y-10705500D01*
X9610500Y-10665500D02*
X9690500Y-10665500D01*
X9650500Y-10879500D02*
X9650500Y-10959500D01*
X9610500Y-10919500D02*
X9690500Y-10919500D01*
X9650500Y-11133500D02*
X9650500Y-11213500D01*
X9610500Y-11173500D02*
X9690500Y-11173500D01*
X9650500Y-11387500D02*
X9650500Y-11467500D01*
X9610500Y-11427500D02*
X9690500Y-11427500D01*
X9650500Y-11641500D02*
X9650500Y-11721500D01*
X9610500Y-11681500D02*
X9690500Y-11681500D01*
X9650500Y-11895500D02*
X9650500Y-11975500D01*
X9610500Y-11935500D02*
X9690500Y-11935500D01*
X9650500Y-12149500D02*
X9650500Y-12229500D01*
X9610500Y-12189500D02*
X9690500Y-12189500D01*
X9650500Y-12403500D02*
X9650500Y-12483500D01*
X9610500Y-12443500D02*
X9690500Y-12443500D01*
X9650500Y-12657500D02*
X9650500Y-12737500D01*
X9610500Y-12697500D02*
X9690500Y-12697500D01*
X9650500Y-12911500D02*
X9650500Y-12991500D01*
X9610500Y-12951500D02*
X9690500Y-12951500D01*
X9650500Y-13165500D02*
X9650500Y-13245500D01*
X9610500Y-13205500D02*
X9690500Y-13205500D01*
X9650500Y-13419500D02*
X9650500Y-13499500D01*
X9610500Y-13459500D02*
X9690500Y-13459500D01*
X9652000Y-8596000D02*
X9652000Y-8676000D01*
X9612000Y-8636000D02*
X9692000Y-8636000D01*
X9652000Y-9612000D02*
X9652000Y-9692000D01*
X9612000Y-9652000D02*
X9692000Y-9652000D01*
X9715500Y-6056000D02*
X9715500Y-6136000D01*
X9675500Y-6096000D02*
X9755500Y-6096000D01*
X9715500Y-7072000D02*
X9715500Y-7152000D01*
X9675500Y-7112000D02*
X9755500Y-7112000D01*
X10096500Y-6310000D02*
X10096500Y-6390000D01*
X10056500Y-6350000D02*
X10136500Y-6350000D01*
X10096500Y-6564000D02*
X10096500Y-6644000D01*
X10056500Y-6604000D02*
X10136500Y-6604000D01*
X10096500Y-6818000D02*
X10096500Y-6898000D01*
X10056500Y-6858000D02*
X10136500Y-6858000D01*
X10096500Y-7072000D02*
X10096500Y-7152000D01*
X10056500Y-7112000D02*
X10136500Y-7112000D01*
X10096500Y-7326000D02*
X10096500Y-7406000D01*
X10056500Y-7366000D02*
X10136500Y-7366000D01*
X10096500Y-7580000D02*
X10096500Y-7660000D01*
X10056500Y-7620000D02*
X10136500Y-7620000D01*
X10096500Y-7834000D02*
X10096500Y-7914000D01*
X10056500Y-7874000D02*
X10136500Y-7874000D01*
X10096500Y-8595000D02*
X10096500Y-8675000D01*
X10056500Y-8635000D02*
X10136500Y-8635000D01*
X10096500Y-8849000D02*
X10096500Y-8929000D01*
X10056500Y-8889000D02*
X10136500Y-8889000D01*
X10096500Y-9103000D02*
X10096500Y-9183000D01*
X10056500Y-9143000D02*
X10136500Y-9143000D01*
X10096500Y-9357000D02*
X10096500Y-9437000D01*
X10056500Y-9397000D02*
X10136500Y-9397000D01*
X10096500Y-9611000D02*
X10096500Y-9691000D01*
X10056500Y-9651000D02*
X10136500Y-9651000D01*
X10096500Y-9865000D02*
X10096500Y-9945000D01*
X10056500Y-9905000D02*
X10136500Y-9905000D01*
X10096500Y-10119000D02*
X10096500Y-10199000D01*
X10056500Y-10159000D02*
X10136500Y-10159000D01*
X10096500Y-10373000D02*
X10096500Y-10453000D01*
X10056500Y-10413000D02*
X10136500Y-10413000D01*
X10096500Y-10627000D02*
X10096500Y-10707000D01*
X10056500Y-10667000D02*
X10136500Y-10667000D01*
X10096500Y-10881000D02*
X10096500Y-10961000D01*
X10056500Y-10921000D02*
X10136500Y-10921000D01*
X10096500Y-11135000D02*
X10096500Y-11215000D01*
X10056500Y-11175000D02*
X10136500Y-11175000D01*
X10096500Y-11389000D02*
X10096500Y-11469000D01*
X10056500Y-11429000D02*
X10136500Y-11429000D01*
X10096500Y-11643000D02*
X10096500Y-11723000D01*
X10056500Y-11683000D02*
X10136500Y-11683000D01*
X10096500Y-11897000D02*
X10096500Y-11977000D01*
X10056500Y-11937000D02*
X10136500Y-11937000D01*
X10096500Y-12151000D02*
X10096500Y-12231000D01*
X10056500Y-12191000D02*
X10136500Y-12191000D01*
X10096500Y-12405000D02*
X10096500Y-12485000D01*
X10056500Y-12445000D02*
X10136500Y-12445000D01*
X10096500Y-12659000D02*
X10096500Y-12739000D01*
X10056500Y-12699000D02*
X10136500Y-12699000D01*
X10096500Y-12913000D02*
X10096500Y-12993000D01*
X10056500Y-12953000D02*
X10136500Y-12953000D01*
X10096500Y-13167000D02*
X10096500Y-13247000D01*
X10056500Y-13207000D02*
X10136500Y-13207000D01*
X10096500Y-13421000D02*
X10096500Y-13501000D01*
X10056500Y-13461000D02*
X10136500Y-13461000D01*
X10098500Y-5992500D02*
X10098500Y-6072500D01*
X10058500Y-6032500D02*
X10138500Y-6032500D01*
X10348500Y-5992500D02*
X10348500Y-6072500D01*
X10308500Y-6032500D02*
X10388500Y-6032500D01*
X10606500Y-5992500D02*
X10606500Y-6072500D01*
X10566500Y-6032500D02*
X10646500Y-6032500D01*
X10733500Y-8278500D02*
X10733500Y-8358500D01*
X10693500Y-8318500D02*
X10773500Y-8318500D01*
X10856500Y-5992500D02*
X10856500Y-6072500D01*
X10816500Y-6032500D02*
X10896500Y-6032500D01*
X10858500Y-6310000D02*
X10858500Y-6390000D01*
X10818500Y-6350000D02*
X10898500Y-6350000D01*
X10858500Y-6564000D02*
X10858500Y-6644000D01*
X10818500Y-6604000D02*
X10898500Y-6604000D01*
X10858500Y-6818000D02*
X10858500Y-6898000D01*
X10818500Y-6858000D02*
X10898500Y-6858000D01*
X10858500Y-7072000D02*
X10858500Y-7152000D01*
X10818500Y-7112000D02*
X10898500Y-7112000D01*
X10858500Y-7326000D02*
X10858500Y-7406000D01*
X10818500Y-7366000D02*
X10898500Y-7366000D01*
X10858500Y-7580000D02*
X10858500Y-7660000D01*
X10818500Y-7620000D02*
X10898500Y-7620000D01*
X10858500Y-7834000D02*
X10858500Y-7914000D01*
X10818500Y-7874000D02*
X10898500Y-7874000D01*
X10983500Y-8278500D02*
X10983500Y-8358500D01*
X10943500Y-8318500D02*
X11023500Y-8318500D01*
X11303000Y-6310000D02*
X11303000Y-6390000D01*
X11263000Y-6350000D02*
X11343000Y-6350000D01*
X11303000Y-6564000D02*
X11303000Y-6644000D01*
X11263000Y-6604000D02*
X11343000Y-6604000D01*
X11303000Y-6818000D02*
X11303000Y-6898000D01*
X11263000Y-6858000D02*
X11343000Y-6858000D01*
X11303000Y-7072000D02*
X11303000Y-7152000D01*
X11263000Y-7112000D02*
X11343000Y-7112000D01*
X11303000Y-7326000D02*
X11303000Y-7406000D01*
X11263000Y-7366000D02*
X11343000Y-7366000D01*
X11303000Y-7580000D02*
X11303000Y-7660000D01*
X11263000Y-7620000D02*
X11343000Y-7620000D01*
X11303000Y-7834000D02*
X11303000Y-7914000D01*
X11263000Y-7874000D02*
X11343000Y-7874000D01*
X11305000Y-5992500D02*
X11305000Y-6072500D01*
X11265000Y-6032500D02*
X11345000Y-6032500D01*
X11555000Y-5992500D02*
X11555000Y-6072500D01*
X11515000Y-6032500D02*
X11595000Y-6032500D01*
X11620500Y-8595000D02*
X11620500Y-8675000D01*
X11580500Y-8635000D02*
X11660500Y-8635000D01*
X11620500Y-8849000D02*
X11620500Y-8929000D01*
X11580500Y-8889000D02*
X11660500Y-8889000D01*
X11620500Y-9103000D02*
X11620500Y-9183000D01*
X11580500Y-9143000D02*
X11660500Y-9143000D01*
X11620500Y-9357000D02*
X11620500Y-9437000D01*
X11580500Y-9397000D02*
X11660500Y-9397000D01*
X11620500Y-9611000D02*
X11620500Y-9691000D01*
X11580500Y-9651000D02*
X11660500Y-9651000D01*
X11620500Y-9865000D02*
X11620500Y-9945000D01*
X11580500Y-9905000D02*
X11660500Y-9905000D01*
X11620500Y-10119000D02*
X11620500Y-10199000D01*
X11580500Y-10159000D02*
X11660500Y-10159000D01*
X11620500Y-10373000D02*
X11620500Y-10453000D01*
X11580500Y-10413000D02*
X11660500Y-10413000D01*
X11620500Y-10627000D02*
X11620500Y-10707000D01*
X11580500Y-10667000D02*
X11660500Y-10667000D01*
X11620500Y-10881000D02*
X11620500Y-10961000D01*
X11580500Y-10921000D02*
X11660500Y-10921000D01*
X11620500Y-11135000D02*
X11620500Y-11215000D01*
X11580500Y-11175000D02*
X11660500Y-11175000D01*
X11620500Y-11389000D02*
X11620500Y-11469000D01*
X11580500Y-11429000D02*
X11660500Y-11429000D01*
X11620500Y-11643000D02*
X11620500Y-11723000D01*
X11580500Y-11683000D02*
X11660500Y-11683000D01*
X11620500Y-11897000D02*
X11620500Y-11977000D01*
X11580500Y-11937000D02*
X11660500Y-11937000D01*
X11620500Y-12151000D02*
X11620500Y-12231000D01*
X11580500Y-12191000D02*
X11660500Y-12191000D01*
X11620500Y-12405000D02*
X11620500Y-12485000D01*
X11580500Y-12445000D02*
X11660500Y-12445000D01*
X11620500Y-12659000D02*
X11620500Y-12739000D01*
X11580500Y-12699000D02*
X11660500Y-12699000D01*
X11620500Y-12913000D02*
X11620500Y-12993000D01*
X11580500Y-12953000D02*
X11660500Y-12953000D01*
X11620500Y-13167000D02*
X11620500Y-13247000D01*
X11580500Y-13207000D02*
X11660500Y-13207000D01*
X11620500Y-13421000D02*
X11620500Y-13501000D01*
X11580500Y-13461000D02*
X11660500Y-13461000D01*
X11813000Y-5992500D02*
X11813000Y-6072500D01*
X11773000Y-6032500D02*
X11853000Y-6032500D01*
X12063000Y-5992500D02*
X12063000Y-6072500D01*
X12023000Y-6032500D02*
X12103000Y-6032500D01*
X12065000Y-6310000D02*
X12065000Y-6390000D01*
X12025000Y-6350000D02*
X12105000Y-6350000D01*
X12065000Y-6564000D02*
X12065000Y-6644000D01*
X12025000Y-6604000D02*
X12105000Y-6604000D01*
X12065000Y-6818000D02*
X12065000Y-6898000D01*
X12025000Y-6858000D02*
X12105000Y-6858000D01*
X12065000Y-7072000D02*
X12065000Y-7152000D01*
X12025000Y-7112000D02*
X12105000Y-7112000D01*
X12065000Y-7326000D02*
X12065000Y-7406000D01*
X12025000Y-7366000D02*
X12105000Y-7366000D01*
X12065000Y-7580000D02*
X12065000Y-7660000D01*
X12025000Y-7620000D02*
X12105000Y-7620000D01*
X12065000Y-7834000D02*
X12065000Y-7914000D01*
X12025000Y-7874000D02*
X12105000Y-7874000D01*
X12065000Y-8595000D02*
X12065000Y-8675000D01*
X12025000Y-8635000D02*
X12105000Y-8635000D01*
X12065000Y-8849000D02*
X12065000Y-8929000D01*
X12025000Y-8889000D02*
X12105000Y-8889000D01*
X12065000Y-9103000D02*
X12065000Y-9183000D01*
X12025000Y-9143000D02*
X12105000Y-9143000D01*
X12065000Y-9357000D02*
X12065000Y-9437000D01*
X12025000Y-9397000D02*
X12105000Y-9397000D01*
X12065000Y-9611000D02*
X12065000Y-9691000D01*
X12025000Y-9651000D02*
X12105000Y-9651000D01*
X12065000Y-9865000D02*
X12065000Y-9945000D01*
X12025000Y-9905000D02*
X12105000Y-9905000D01*
X12065000Y-10119000D02*
X12065000Y-10199000D01*
X12025000Y-10159000D02*
X12105000Y-10159000D01*
X12065000Y-10373000D02*
X12065000Y-10453000D01*
X12025000Y-10413000D02*
X12105000Y-10413000D01*
X12065000Y-10627000D02*
X12065000Y-10707000D01*
X12025000Y-10667000D02*
X12105000Y-10667000D01*
X12065000Y-10881000D02*
X12065000Y-10961000D01*
X12025000Y-10921000D02*
X12105000Y-10921000D01*
X12065000Y-11135000D02*
X12065000Y-11215000D01*
X12025000Y-11175000D02*
X12105000Y-11175000D01*
X12065000Y-11389000D02*
X12065000Y-11469000D01*
X12025000Y-11429000D02*
X12105000Y-11429000D01*
X12065000Y-11643000D02*
X12065000Y-11723000D01*
X12025000Y-11683000D02*
X12105000Y-11683000D01*
X12065000Y-11897000D02*
X12065000Y-11977000D01*
X12025000Y-11937000D02*
X12105000Y-11937000D01*
X12065000Y-12151000D02*
X12065000Y-12231000D01*
X12025000Y-12191000D02*
X12105000Y-12191000D01*
X12065000Y-12405000D02*
X12065000Y-12485000D01*
X12025000Y-12445000D02*
X12105000Y-12445000D01*
X12065000Y-12659000D02*
X12065000Y-12739000D01*
X12025000Y-12699000D02*
X12105000Y-12699000D01*
X12065000Y-12913000D02*
X12065000Y-12993000D01*
X12025000Y-12953000D02*
X12105000Y-12953000D01*
X12065000Y-13167000D02*
X12065000Y-13247000D01*
X12025000Y-13207000D02*
X12105000Y-13207000D01*
X12065000Y-13421000D02*
X12065000Y-13501000D01*
X12025000Y-13461000D02*
X12105000Y-13461000D01*
X12509500Y-6310000D02*
X12509500Y-6390000D01*
X12469500Y-6350000D02*
X12549500Y-6350000D01*
X12509500Y-6564000D02*
X12509500Y-6644000D01*
X12469500Y-6604000D02*
X12549500Y-6604000D01*
X12509500Y-6818000D02*
X12509500Y-6898000D01*
X12469500Y-6858000D02*
X12549500Y-6858000D01*
X12509500Y-7072000D02*
X12509500Y-7152000D01*
X12469500Y-7112000D02*
X12549500Y-7112000D01*
X12509500Y-7326000D02*
X12509500Y-7406000D01*
X12469500Y-7366000D02*
X12549500Y-7366000D01*
X12509500Y-7580000D02*
X12509500Y-7660000D01*
X12469500Y-7620000D02*
X12549500Y-7620000D01*
X12509500Y-7834000D02*
X12509500Y-7914000D01*
X12469500Y-7874000D02*
X12549500Y-7874000D01*
X12702000Y-8278500D02*
X12702000Y-8358500D01*
X12662000Y-8318500D02*
X12742000Y-8318500D01*
X12765500Y-5992500D02*
X12765500Y-6072500D01*
X12725500Y-6032500D02*
X12805500Y-6032500D01*
X12952000Y-8278500D02*
X12952000Y-8358500D01*
X12912000Y-8318500D02*
X12992000Y-8318500D01*
X13015500Y-5992500D02*
X13015500Y-6072500D01*
X12975500Y-6032500D02*
X13055500Y-6032500D01*
X13271500Y-6310000D02*
X13271500Y-6390000D01*
X13231500Y-6350000D02*
X13311500Y-6350000D01*
X13271500Y-6564000D02*
X13271500Y-6644000D01*
X13231500Y-6604000D02*
X13311500Y-6604000D01*
X13271500Y-6818000D02*
X13271500Y-6898000D01*
X13231500Y-6858000D02*
X13311500Y-6858000D01*
X13271500Y-7072000D02*
X13271500Y-7152000D01*
X13231500Y-7112000D02*
X13311500Y-7112000D01*
X13271500Y-7326000D02*
X13271500Y-7406000D01*
X13231500Y-7366000D02*
X13311500Y-7366000D01*
X13271500Y-7580000D02*
X13271500Y-7660000D01*
X13231500Y-7620000D02*
X13311500Y-7620000D01*
X13271500Y-7834000D02*
X13271500Y-7914000D01*
X13231500Y-7874000D02*
X13311500Y-7874000D01*
X13589000Y-8595000D02*
X13589000Y-8675000D01*
X13549000Y-8635000D02*
X13629000Y-8635000D01*
X13589000Y-8849000D02*
X13589000Y-8929000D01*
X13549000Y-8889000D02*
X13629000Y-8889000D01*
X13589000Y-9103000D02*
X13589000Y-9183000D01*
X13549000Y-9143000D02*
X13629000Y-9143000D01*
X13589000Y-9357000D02*
X13589000Y-9437000D01*
X13549000Y-9397000D02*
X13629000Y-9397000D01*
X13589000Y-9611000D02*
X13589000Y-9691000D01*
X13549000Y-9651000D02*
X13629000Y-9651000D01*
X13589000Y-9865000D02*
X13589000Y-9945000D01*
X13549000Y-9905000D02*
X13629000Y-9905000D01*
X13589000Y-10119000D02*
X13589000Y-10199000D01*
X13549000Y-10159000D02*
X13629000Y-10159000D01*
X13589000Y-10373000D02*
X13589000Y-10453000D01*
X13549000Y-10413000D02*
X13629000Y-10413000D01*
X13589000Y-10627000D02*
X13589000Y-10707000D01*
X13549000Y-10667000D02*
X13629000Y-10667000D01*
X13589000Y-10881000D02*
X13589000Y-10961000D01*
X13549000Y-10921000D02*
X13629000Y-10921000D01*
X13589000Y-11135000D02*
X13589000Y-11215000D01*
X13549000Y-11175000D02*
X13629000Y-11175000D01*
X13589000Y-11389000D02*
X13589000Y-11469000D01*
X13549000Y-11429000D02*
X13629000Y-11429000D01*
X13589000Y-11643000D02*
X13589000Y-11723000D01*
X13549000Y-11683000D02*
X13629000Y-11683000D01*
X13589000Y-11897000D02*
X13589000Y-11977000D01*
X13549000Y-11937000D02*
X13629000Y-11937000D01*
X13589000Y-12151000D02*
X13589000Y-12231000D01*
X13549000Y-12191000D02*
X13629000Y-12191000D01*
X13589000Y-12405000D02*
X13589000Y-12485000D01*
X13549000Y-12445000D02*
X13629000Y-12445000D01*
X13589000Y-12659000D02*
X13589000Y-12739000D01*
X13549000Y-12699000D02*
X13629000Y-12699000D01*
X13589000Y-12913000D02*
X13589000Y-12993000D01*
X13549000Y-12953000D02*
X13629000Y-12953000D01*
X13589000Y-13167000D02*
X13589000Y-13247000D01*
X13549000Y-13207000D02*
X13629000Y-13207000D01*
X13589000Y-13421000D02*
X13589000Y-13501000D01*
X13549000Y-13461000D02*
X13629000Y-13461000D01*
X13652500Y-6183000D02*
X13652500Y-6263000D01*
X13612500Y-6223000D02*
X13692500Y-6223000D01*
X13652500Y-6437000D02*
X13652500Y-6517000D01*
X13612500Y-6477000D02*
X13692500Y-6477000D01*
X13652500Y-6691000D02*
X13652500Y-6771000D01*
X13612500Y-6731000D02*
X13692500Y-6731000D01*
X13652500Y-6945000D02*
X13652500Y-7025000D01*
X13612500Y-6985000D02*
X13692500Y-6985000D01*
X13652500Y-7199000D02*
X13652500Y-7279000D01*
X13612500Y-7239000D02*
X13692500Y-7239000D01*
X13652500Y-7453000D02*
X13652500Y-7533000D01*
X13612500Y-7493000D02*
X13692500Y-7493000D01*
X13652500Y-7707000D02*
X13652500Y-7787000D01*
X13612500Y-7747000D02*
X13692500Y-7747000D01*
X13652500Y-7961000D02*
X13652500Y-8041000D01*
X13612500Y-8001000D02*
X13692500Y-8001000D01*
X13652500Y-8215000D02*
X13652500Y-8295000D01*
X13612500Y-8255000D02*
X13692500Y-8255000D01*
X14033500Y-6310000D02*
X14033500Y-6390000D01*
X13993500Y-6350000D02*
X14073500Y-6350000D01*
X14033500Y-6564000D02*
X14033500Y-6644000D01*
X13993500Y-6604000D02*
X14073500Y-6604000D01*
X14033500Y-6818000D02*
X14033500Y-6898000D01*
X13993500Y-6858000D02*
X14073500Y-6858000D01*
X14033500Y-7072000D02*
X14033500Y-7152000D01*
X13993500Y-7112000D02*
X14073500Y-7112000D01*
X14033500Y-7326000D02*
X14033500Y-7406000D01*
X13993500Y-7366000D02*
X14073500Y-7366000D01*
X14033500Y-7580000D02*
X14033500Y-7660000D01*
X13993500Y-7620000D02*
X14073500Y-7620000D01*
X14033500Y-7834000D02*
X14033500Y-7914000D01*
X13993500Y-7874000D02*
X14073500Y-7874000D01*
X14033500Y-8088000D02*
X14033500Y-8168000D01*
X13993500Y-8128000D02*
X14073500Y-8128000D01*
X14033500Y-8342000D02*
X14033500Y-8422000D01*
X13993500Y-8382000D02*
X14073500Y-8382000D01*
X14033500Y-8596000D02*
X14033500Y-8676000D01*
X13993500Y-8636000D02*
X14073500Y-8636000D01*
X14033500Y-9231000D02*
X14033500Y-9311000D01*
X13993500Y-9271000D02*
X14073500Y-9271000D01*
X14033500Y-9485000D02*
X14033500Y-9565000D01*
X13993500Y-9525000D02*
X14073500Y-9525000D01*
X14033500Y-9739000D02*
X14033500Y-9819000D01*
X13993500Y-9779000D02*
X14073500Y-9779000D01*
X14033500Y-9993000D02*
X14033500Y-10073000D01*
X13993500Y-10033000D02*
X14073500Y-10033000D01*
X14033500Y-10247000D02*
X14033500Y-10327000D01*
X13993500Y-10287000D02*
X14073500Y-10287000D01*
X14033500Y-10501000D02*
X14033500Y-10581000D01*
X13993500Y-10541000D02*
X14073500Y-10541000D01*
X14033500Y-10755000D02*
X14033500Y-10835000D01*
X13993500Y-10795000D02*
X14073500Y-10795000D01*
X14033500Y-11009000D02*
X14033500Y-11089000D01*
X13993500Y-11049000D02*
X14073500Y-11049000D01*
X14033500Y-11642000D02*
X14033500Y-11722000D01*
X13993500Y-11682000D02*
X14073500Y-11682000D01*
X14033500Y-11896000D02*
X14033500Y-11976000D01*
X13993500Y-11936000D02*
X14073500Y-11936000D01*
X14033500Y-12150000D02*
X14033500Y-12230000D01*
X13993500Y-12190000D02*
X14073500Y-12190000D01*
X14033500Y-12404000D02*
X14033500Y-12484000D01*
X13993500Y-12444000D02*
X14073500Y-12444000D01*
X14033500Y-12658000D02*
X14033500Y-12738000D01*
X13993500Y-12698000D02*
X14073500Y-12698000D01*
X14033500Y-12912000D02*
X14033500Y-12992000D01*
X13993500Y-12952000D02*
X14073500Y-12952000D01*
X14033500Y-13166000D02*
X14033500Y-13246000D01*
X13993500Y-13206000D02*
X14073500Y-13206000D01*
X14033500Y-13420000D02*
X14033500Y-13500000D01*
X13993500Y-13460000D02*
X14073500Y-13460000D01*
X14289500Y-5992500D02*
X14289500Y-6072500D01*
X14249500Y-6032500D02*
X14329500Y-6032500D01*
X14289500Y-8913500D02*
X14289500Y-8993500D01*
X14249500Y-8953500D02*
X14329500Y-8953500D01*
X14289500Y-11326500D02*
X14289500Y-11406500D01*
X14249500Y-11366500D02*
X14329500Y-11366500D01*
X14539500Y-5992500D02*
X14539500Y-6072500D01*
X14499500Y-6032500D02*
X14579500Y-6032500D01*
X14539500Y-8913500D02*
X14539500Y-8993500D01*
X14499500Y-8953500D02*
X14579500Y-8953500D01*
X14539500Y-11326500D02*
X14539500Y-11406500D01*
X14499500Y-11366500D02*
X14579500Y-11366500D01*
X14795500Y-6310000D02*
X14795500Y-6390000D01*
X14755500Y-6350000D02*
X14835500Y-6350000D01*
X14795500Y-6564000D02*
X14795500Y-6644000D01*
X14755500Y-6604000D02*
X14835500Y-6604000D01*
X14795500Y-6818000D02*
X14795500Y-6898000D01*
X14755500Y-6858000D02*
X14835500Y-6858000D01*
X14795500Y-7072000D02*
X14795500Y-7152000D01*
X14755500Y-7112000D02*
X14835500Y-7112000D01*
X14795500Y-7326000D02*
X14795500Y-7406000D01*
X14755500Y-7366000D02*
X14835500Y-7366000D01*
X14795500Y-7580000D02*
X14795500Y-7660000D01*
X14755500Y-7620000D02*
X14835500Y-7620000D01*
X14795500Y-7834000D02*
X14795500Y-7914000D01*
X14755500Y-7874000D02*
X14835500Y-7874000D01*
X14795500Y-8088000D02*
X14795500Y-8168000D01*
X14755500Y-8128000D02*
X14835500Y-8128000D01*
X14795500Y-8342000D02*
X14795500Y-8422000D01*
X14755500Y-8382000D02*
X14835500Y-8382000D01*
X14795500Y-8596000D02*
X14795500Y-8676000D01*
X14755500Y-8636000D02*
X14835500Y-8636000D01*
X14795500Y-9231000D02*
X14795500Y-9311000D01*
X14755500Y-9271000D02*
X14835500Y-9271000D01*
X14795500Y-9485000D02*
X14795500Y-9565000D01*
X14755500Y-9525000D02*
X14835500Y-9525000D01*
X14795500Y-9739000D02*
X14795500Y-9819000D01*
X14755500Y-9779000D02*
X14835500Y-9779000D01*
X14795500Y-9993000D02*
X14795500Y-10073000D01*
X14755500Y-10033000D02*
X14835500Y-10033000D01*
X14795500Y-10247000D02*
X14795500Y-10327000D01*
X14755500Y-10287000D02*
X14835500Y-10287000D01*
X14795500Y-10501000D02*
X14795500Y-10581000D01*
X14755500Y-10541000D02*
X14835500Y-10541000D01*
X14795500Y-10755000D02*
X14795500Y-10835000D01*
X14755500Y-10795000D02*
X14835500Y-10795000D01*
X14795500Y-11009000D02*
X14795500Y-11089000D01*
X14755500Y-11049000D02*
X14835500Y-11049000D01*
X14795500Y-11642000D02*
X14795500Y-11722000D01*
X14755500Y-11682000D02*
X14835500Y-11682000D01*
X14795500Y-11896000D02*
X14795500Y-11976000D01*
X14755500Y-11936000D02*
X14835500Y-11936000D01*
X14795500Y-12150000D02*
X14795500Y-12230000D01*
X14755500Y-12190000D02*
X14835500Y-12190000D01*
X14795500Y-12404000D02*
X14795500Y-12484000D01*
X14755500Y-12444000D02*
X14835500Y-12444000D01*
X14795500Y-12658000D02*
X14795500Y-12738000D01*
X14755500Y-12698000D02*
X14835500Y-12698000D01*
X14795500Y-12912000D02*
X14795500Y-12992000D01*
X14755500Y-12952000D02*
X14835500Y-12952000D01*
X14795500Y-13166000D02*
X14795500Y-13246000D01*
X14755500Y-13206000D02*
X14835500Y-13206000D01*
X14795500Y-13420000D02*
X14795500Y-13500000D01*
X14755500Y-13460000D02*
X14835500Y-13460000D01*
X15240000Y-6310000D02*
X15240000Y-6390000D01*
X15200000Y-6350000D02*
X15280000Y-6350000D01*
X15240000Y-6564000D02*
X15240000Y-6644000D01*
X15200000Y-6604000D02*
X15280000Y-6604000D01*
X15240000Y-6818000D02*
X15240000Y-6898000D01*
X15200000Y-6858000D02*
X15280000Y-6858000D01*
X15240000Y-7072000D02*
X15240000Y-7152000D01*
X15200000Y-7112000D02*
X15280000Y-7112000D01*
X15240000Y-7326000D02*
X15240000Y-7406000D01*
X15200000Y-7366000D02*
X15280000Y-7366000D01*
X15240000Y-7580000D02*
X15240000Y-7660000D01*
X15200000Y-7620000D02*
X15280000Y-7620000D01*
X15240000Y-7834000D02*
X15240000Y-7914000D01*
X15200000Y-7874000D02*
X15280000Y-7874000D01*
X15240000Y-8088000D02*
X15240000Y-8168000D01*
X15200000Y-8128000D02*
X15280000Y-8128000D01*
X15240000Y-8342000D02*
X15240000Y-8422000D01*
X15200000Y-8382000D02*
X15280000Y-8382000D01*
X15240000Y-8596000D02*
X15240000Y-8676000D01*
X15200000Y-8636000D02*
X15280000Y-8636000D01*
X15241000Y-9230000D02*
X15241000Y-9310000D01*
X15201000Y-9270000D02*
X15281000Y-9270000D01*
X15241000Y-9484000D02*
X15241000Y-9564000D01*
X15201000Y-9524000D02*
X15281000Y-9524000D01*
X15241000Y-9738000D02*
X15241000Y-9818000D01*
X15201000Y-9778000D02*
X15281000Y-9778000D01*
X15241000Y-9992000D02*
X15241000Y-10072000D01*
X15201000Y-10032000D02*
X15281000Y-10032000D01*
X15241000Y-10246000D02*
X15241000Y-10326000D01*
X15201000Y-10286000D02*
X15281000Y-10286000D01*
X15241000Y-10500000D02*
X15241000Y-10580000D01*
X15201000Y-10540000D02*
X15281000Y-10540000D01*
X15241000Y-10754000D02*
X15241000Y-10834000D01*
X15201000Y-10794000D02*
X15281000Y-10794000D01*
X15241000Y-11008000D02*
X15241000Y-11088000D01*
X15201000Y-11048000D02*
X15281000Y-11048000D01*
X15241000Y-11642000D02*
X15241000Y-11722000D01*
X15201000Y-11682000D02*
X15281000Y-11682000D01*
X15241000Y-11896000D02*
X15241000Y-11976000D01*
X15201000Y-11936000D02*
X15281000Y-11936000D01*
X15241000Y-12150000D02*
X15241000Y-12230000D01*
X15201000Y-12190000D02*
X15281000Y-12190000D01*
X15241000Y-12404000D02*
X15241000Y-12484000D01*
X15201000Y-12444000D02*
X15281000Y-12444000D01*
X15241000Y-12658000D02*
X15241000Y-12738000D01*
X15201000Y-12698000D02*
X15281000Y-12698000D01*
X15241000Y-12912000D02*
X15241000Y-12992000D01*
X15201000Y-12952000D02*
X15281000Y-12952000D01*
X15241000Y-13166000D02*
X15241000Y-13246000D01*
X15201000Y-13206000D02*
X15281000Y-13206000D01*
X15241000Y-13420000D02*
X15241000Y-13500000D01*
X15201000Y-13460000D02*
X15281000Y-13460000D01*
X15496000Y-5992500D02*
X15496000Y-6072500D01*
X15456000Y-6032500D02*
X15536000Y-6032500D01*
X15496000Y-8913500D02*
X15496000Y-8993500D01*
X15456000Y-8953500D02*
X15536000Y-8953500D01*
X15496000Y-11326500D02*
X15496000Y-11406500D01*
X15456000Y-11366500D02*
X15536000Y-11366500D01*
X15746000Y-5992500D02*
X15746000Y-6072500D01*
X15706000Y-6032500D02*
X15786000Y-6032500D01*
X15746000Y-8913500D02*
X15746000Y-8993500D01*
X15706000Y-8953500D02*
X15786000Y-8953500D01*
X15746000Y-11326500D02*
X15746000Y-11406500D01*
X15706000Y-11366500D02*
X15786000Y-11366500D01*
X16002000Y-6310000D02*
X16002000Y-6390000D01*
X15962000Y-6350000D02*
X16042000Y-6350000D01*
X16002000Y-6564000D02*
X16002000Y-6644000D01*
X15962000Y-6604000D02*
X16042000Y-6604000D01*
X16002000Y-6818000D02*
X16002000Y-6898000D01*
X15962000Y-6858000D02*
X16042000Y-6858000D01*
X16002000Y-7072000D02*
X16002000Y-7152000D01*
X15962000Y-7112000D02*
X16042000Y-7112000D01*
X16002000Y-7326000D02*
X16002000Y-7406000D01*
X15962000Y-7366000D02*
X16042000Y-7366000D01*
X16002000Y-7580000D02*
X16002000Y-7660000D01*
X15962000Y-7620000D02*
X16042000Y-7620000D01*
X16002000Y-7834000D02*
X16002000Y-7914000D01*
X15962000Y-7874000D02*
X16042000Y-7874000D01*
X16002000Y-8088000D02*
X16002000Y-8168000D01*
X15962000Y-8128000D02*
X16042000Y-8128000D01*
X16002000Y-8342000D02*
X16002000Y-8422000D01*
X15962000Y-8382000D02*
X16042000Y-8382000D01*
X16002000Y-8596000D02*
X16002000Y-8676000D01*
X15962000Y-8636000D02*
X16042000Y-8636000D01*
X16003000Y-9230000D02*
X16003000Y-9310000D01*
X15963000Y-9270000D02*
X16043000Y-9270000D01*
X16003000Y-9484000D02*
X16003000Y-9564000D01*
X15963000Y-9524000D02*
X16043000Y-9524000D01*
X16003000Y-9738000D02*
X16003000Y-9818000D01*
X15963000Y-9778000D02*
X16043000Y-9778000D01*
X16003000Y-9992000D02*
X16003000Y-10072000D01*
X15963000Y-10032000D02*
X16043000Y-10032000D01*
X16003000Y-10246000D02*
X16003000Y-10326000D01*
X15963000Y-10286000D02*
X16043000Y-10286000D01*
X16003000Y-10500000D02*
X16003000Y-10580000D01*
X15963000Y-10540000D02*
X16043000Y-10540000D01*
X16003000Y-10754000D02*
X16003000Y-10834000D01*
X15963000Y-10794000D02*
X16043000Y-10794000D01*
X16003000Y-11008000D02*
X16003000Y-11088000D01*
X15963000Y-11048000D02*
X16043000Y-11048000D01*
X16003000Y-11642000D02*
X16003000Y-11722000D01*
X15963000Y-11682000D02*
X16043000Y-11682000D01*
X16003000Y-11896000D02*
X16003000Y-11976000D01*
X15963000Y-11936000D02*
X16043000Y-11936000D01*
X16003000Y-12150000D02*
X16003000Y-12230000D01*
X15963000Y-12190000D02*
X16043000Y-12190000D01*
X16003000Y-12404000D02*
X16003000Y-12484000D01*
X15963000Y-12444000D02*
X16043000Y-12444000D01*
X16003000Y-12658000D02*
X16003000Y-12738000D01*
X15963000Y-12698000D02*
X16043000Y-12698000D01*
X16003000Y-12912000D02*
X16003000Y-12992000D01*
X15963000Y-12952000D02*
X16043000Y-12952000D01*
X16003000Y-13166000D02*
X16003000Y-13246000D01*
X15963000Y-13206000D02*
X16043000Y-13206000D01*
X16003000Y-13420000D02*
X16003000Y-13500000D01*
X15963000Y-13460000D02*
X16043000Y-13460000D01*
X16383000Y-6183000D02*
X16383000Y-6263000D01*
X16343000Y-6223000D02*
X16423000Y-6223000D01*
X16383000Y-6437000D02*
X16383000Y-6517000D01*
X16343000Y-6477000D02*
X16423000Y-6477000D01*
X16383000Y-6691000D02*
X16383000Y-6771000D01*
X16343000Y-6731000D02*
X16423000Y-6731000D01*
X16383000Y-6945000D02*
X16383000Y-7025000D01*
X16343000Y-6985000D02*
X16423000Y-6985000D01*
X16383000Y-7199000D02*
X16383000Y-7279000D01*
X16343000Y-7239000D02*
X16423000Y-7239000D01*
X16383000Y-7453000D02*
X16383000Y-7533000D01*
X16343000Y-7493000D02*
X16423000Y-7493000D01*
X16383000Y-7707000D02*
X16383000Y-7787000D01*
X16343000Y-7747000D02*
X16423000Y-7747000D01*
X16383000Y-7961000D02*
X16383000Y-8041000D01*
X16343000Y-8001000D02*
X16423000Y-8001000D01*
X16383000Y-8215000D02*
X16383000Y-8295000D01*
X16343000Y-8255000D02*
X16423000Y-8255000D01*
X16383000Y-8469000D02*
X16383000Y-8549000D01*
X16343000Y-8509000D02*
X16423000Y-8509000D01*
X16383000Y-8723000D02*
X16383000Y-8803000D01*
X16343000Y-8763000D02*
X16423000Y-8763000D01*
X16383000Y-9233000D02*
X16383000Y-9313000D01*
X16343000Y-9273000D02*
X16423000Y-9273000D01*
X16383000Y-9483000D02*
X16383000Y-9563000D01*
X16343000Y-9523000D02*
X16423000Y-9523000D01*
X16383000Y-9741000D02*
X16383000Y-9821000D01*
X16343000Y-9781000D02*
X16423000Y-9781000D01*
X16383000Y-9991000D02*
X16383000Y-10071000D01*
X16343000Y-10031000D02*
X16423000Y-10031000D01*
X16383000Y-10249000D02*
X16383000Y-10329000D01*
X16343000Y-10289000D02*
X16423000Y-10289000D01*
X16383000Y-10499000D02*
X16383000Y-10579000D01*
X16343000Y-10539000D02*
X16423000Y-10539000D01*
X16383000Y-10759000D02*
X16383000Y-10839000D01*
X16343000Y-10799000D02*
X16423000Y-10799000D01*
X16383000Y-11009000D02*
X16383000Y-11089000D01*
X16343000Y-11049000D02*
X16423000Y-11049000D01*
X16383000Y-11646000D02*
X16383000Y-11726000D01*
X16343000Y-11686000D02*
X16423000Y-11686000D01*
X16383000Y-11896000D02*
X16383000Y-11976000D01*
X16343000Y-11936000D02*
X16423000Y-11936000D01*
X16383000Y-12154000D02*
X16383000Y-12234000D01*
X16343000Y-12194000D02*
X16423000Y-12194000D01*
X16383000Y-12404000D02*
X16383000Y-12484000D01*
X16343000Y-12444000D02*
X16423000Y-12444000D01*
X16383000Y-12662000D02*
X16383000Y-12742000D01*
X16343000Y-12702000D02*
X16423000Y-12702000D01*
X16383000Y-12912000D02*
X16383000Y-12992000D01*
X16343000Y-12952000D02*
X16423000Y-12952000D01*
X16383000Y-13170000D02*
X16383000Y-13250000D01*
X16343000Y-13210000D02*
X16423000Y-13210000D01*
X16383000Y-13420000D02*
X16383000Y-13500000D01*
X16343000Y-13460000D02*
X16423000Y-13460000D01*
D14*
X9554820Y-5711820D02*
X9554820Y-5648180D01*
X9491180Y-5648180D01*
X9491180Y-5711820D01*
X9554820Y-5711820D01*
X9808820Y-5711820D02*
X9808820Y-5648180D01*
X9745180Y-5648180D01*
X9745180Y-5711820D01*
X9808820Y-5711820D01*
X10126320Y-5711820D02*
X10126320Y-5648180D01*
X10062680Y-5648180D01*
X10062680Y-5711820D01*
X10126320Y-5711820D01*
X10380320Y-5711820D02*
X10380320Y-5648180D01*
X10316680Y-5648180D01*
X10316680Y-5711820D01*
X10380320Y-5711820D01*
X10699820Y-5711820D02*
X10699820Y-5648180D01*
X10636180Y-5648180D01*
X10636180Y-5711820D01*
X10699820Y-5711820D01*
X10953820Y-5711820D02*
X10953820Y-5648180D01*
X10890180Y-5648180D01*
X10890180Y-5711820D01*
X10953820Y-5711820D01*
X11713820Y-5711820D02*
X11713820Y-5648180D01*
X11650180Y-5648180D01*
X11650180Y-5711820D01*
X11713820Y-5711820D01*
X11967820Y-5711820D02*
X11967820Y-5648180D01*
X11904180Y-5648180D01*
X11904180Y-5711820D01*
X11967820Y-5711820D01*
X12285320Y-5711820D02*
X12285320Y-5648180D01*
X12221680Y-5648180D01*
X12221680Y-5711820D01*
X12285320Y-5711820D01*
X12539320Y-5711820D02*
X12539320Y-5648180D01*
X12475680Y-5648180D01*
X12475680Y-5711820D01*
X12539320Y-5711820D01*
X12856820Y-5711820D02*
X12856820Y-5648180D01*
X12793180Y-5648180D01*
X12793180Y-5711820D01*
X12856820Y-5711820D01*
X13110820Y-5711820D02*
X13110820Y-5648180D01*
X13047180Y-5648180D01*
X13047180Y-5711820D01*
X13110820Y-5711820D01*
X13874820Y-5711820D02*
X13874820Y-5648180D01*
X13811180Y-5648180D01*
X13811180Y-5711820D01*
X13874820Y-5711820D01*
X14128820Y-5711820D02*
X14128820Y-5648180D01*
X14065180Y-5648180D01*
X14065180Y-5711820D01*
X14128820Y-5711820D01*
X14446320Y-5711820D02*
X14446320Y-5648180D01*
X14382680Y-5648180D01*
X14382680Y-5711820D01*
X14446320Y-5711820D01*
X14700320Y-5711820D02*
X14700320Y-5648180D01*
X14636680Y-5648180D01*
X14636680Y-5711820D01*
X14700320Y-5711820D01*
X15462320Y-5711820D02*
X15462320Y-5648180D01*
X15398680Y-5648180D01*
X15398680Y-5711820D01*
X15462320Y-5711820D01*
X15716320Y-5711820D02*
X15716320Y-5648180D01*
X15652680Y-5648180D01*
X15652680Y-5711820D01*
X15716320Y-5711820D01*
X16033820Y-5711820D02*
X16033820Y-5648180D01*
X15970180Y-5648180D01*
X15970180Y-5711820D01*
X16033820Y-5711820D01*
X16287820Y-5711820D02*
X16287820Y-5648180D01*
X16224180Y-5648180D01*
X16224180Y-5711820D01*
X16287820Y-5711820D01*
D15*
X9008940Y-5982500D02*
X9054940Y-5936500D01*
X9008940Y-5890500D01*
X8962940Y-5936500D01*
X9008940Y-5982500D01*
X9008940Y-6232500D02*
X9054940Y-6186500D01*
X9008940Y-6140500D01*
X8962940Y-6186500D01*
X9008940Y-6232500D01*
X9008940Y-6432500D02*
X9054940Y-6386500D01*
X9008940Y-6340500D01*
X8962940Y-6386500D01*
X9008940Y-6432500D01*
X9008940Y-6682500D02*
X9054940Y-6636500D01*
X9008940Y-6590500D01*
X8962940Y-6636500D01*
X9008940Y-6682500D01*
D16*
X16723260Y-6118520D02*
X16818260Y-6213520D01*
X16818260Y-6118520D02*
X16723260Y-6213520D01*
X16818260Y-6166020D02*
G75*
G03*
X16818260Y-6166020I-47500J0D01*
G01*
X16723260Y-6368520D02*
X16818260Y-6463520D01*
X16818260Y-6368520D02*
X16723260Y-6463520D01*
X16818260Y-6416020D02*
G75*
G03*
X16818260Y-6416020I-47500J0D01*
G01*
X16923260Y-6118520D02*
X17018260Y-6213520D01*
X17018260Y-6118520D02*
X16923260Y-6213520D01*
X17018260Y-6166020D02*
G75*
G03*
X17018260Y-6166020I-47500J0D01*
G01*
X16923260Y-6368520D02*
X17018260Y-6463520D01*
X17018260Y-6368520D02*
X16923260Y-6463520D01*
X17018260Y-6416020D02*
G75*
G03*
X17018260Y-6416020I-47500J0D01*
G01*
D17*
X8205000Y-7506500D02*
X8305000Y-7606500D01*
X8305000Y-7506500D02*
X8205000Y-7606500D01*
X8255000Y-7506500D02*
X8255000Y-7606500D01*
X8205000Y-7556500D02*
X8305000Y-7556500D01*
X8205000Y-7760500D02*
X8305000Y-7860500D01*
X8305000Y-7760500D02*
X8205000Y-7860500D01*
X8255000Y-7760500D02*
X8255000Y-7860500D01*
X8205000Y-7810500D02*
X8305000Y-7810500D01*
X8205000Y-8014500D02*
X8305000Y-8114500D01*
X8305000Y-8014500D02*
X8205000Y-8114500D01*
X8255000Y-8014500D02*
X8255000Y-8114500D01*
X8205000Y-8064500D02*
X8305000Y-8064500D01*
X8713000Y-7506500D02*
X8813000Y-7606500D01*
X8813000Y-7506500D02*
X8713000Y-7606500D01*
X8763000Y-7506500D02*
X8763000Y-7606500D01*
X8713000Y-7556500D02*
X8813000Y-7556500D01*
X8713000Y-7760500D02*
X8813000Y-7860500D01*
X8813000Y-7760500D02*
X8713000Y-7860500D01*
X8763000Y-7760500D02*
X8763000Y-7860500D01*
X8713000Y-7810500D02*
X8813000Y-7810500D01*
X8713000Y-8014500D02*
X8813000Y-8114500D01*
X8813000Y-8014500D02*
X8713000Y-8114500D01*
X8763000Y-8014500D02*
X8763000Y-8114500D01*
X8713000Y-8064500D02*
X8813000Y-8064500D01*
X8967000Y-7506500D02*
X9067000Y-7606500D01*
X9067000Y-7506500D02*
X8967000Y-7606500D01*
X9017000Y-7506500D02*
X9017000Y-7606500D01*
X8967000Y-7556500D02*
X9067000Y-7556500D01*
X8967000Y-7760500D02*
X9067000Y-7860500D01*
X9067000Y-7760500D02*
X8967000Y-7860500D01*
X9017000Y-7760500D02*
X9017000Y-7860500D01*
X8967000Y-7810500D02*
X9067000Y-7810500D01*
X8967000Y-8014500D02*
X9067000Y-8114500D01*
X9067000Y-8014500D02*
X8967000Y-8114500D01*
X9017000Y-8014500D02*
X9017000Y-8114500D01*
X8967000Y-8064500D02*
X9067000Y-8064500D01*
X9475000Y-7506500D02*
X9575000Y-7606500D01*
X9575000Y-7506500D02*
X9475000Y-7606500D01*
X9525000Y-7506500D02*
X9525000Y-7606500D01*
X9475000Y-7556500D02*
X9575000Y-7556500D01*
X9475000Y-7760500D02*
X9575000Y-7860500D01*
X9575000Y-7760500D02*
X9475000Y-7860500D01*
X9525000Y-7760500D02*
X9525000Y-7860500D01*
X9475000Y-7810500D02*
X9575000Y-7810500D01*
X9475000Y-8014500D02*
X9575000Y-8114500D01*
X9575000Y-8014500D02*
X9475000Y-8114500D01*
X9525000Y-8014500D02*
X9525000Y-8114500D01*
X9475000Y-8064500D02*
X9575000Y-8064500D01*
X16860940Y-8201060D02*
X16960940Y-8301060D01*
X16960940Y-8201060D02*
X16860940Y-8301060D01*
X16910940Y-8201060D02*
X16910940Y-8301060D01*
X16860940Y-8251060D02*
X16960940Y-8251060D01*
X16860940Y-8478060D02*
X16960940Y-8578060D01*
X16960940Y-8478060D02*
X16860940Y-8578060D01*
X16910940Y-8478060D02*
X16910940Y-8578060D01*
X16860940Y-8528060D02*
X16960940Y-8528060D01*
X16860940Y-8755060D02*
X16960940Y-8855060D01*
X16960940Y-8755060D02*
X16860940Y-8855060D01*
X16910940Y-8755060D02*
X16910940Y-8855060D01*
X16860940Y-8805060D02*
X16960940Y-8805060D01*
X16860940Y-9032060D02*
X16960940Y-9132060D01*
X16960940Y-9032060D02*
X16860940Y-9132060D01*
X16910940Y-9032060D02*
X16910940Y-9132060D01*
X16860940Y-9082060D02*
X16960940Y-9082060D01*
X16860940Y-9309060D02*
X16960940Y-9409060D01*
X16960940Y-9309060D02*
X16860940Y-9409060D01*
X16910940Y-9309060D02*
X16910940Y-9409060D01*
X16860940Y-9359060D02*
X16960940Y-9359060D01*
X16860940Y-11451060D02*
X16960940Y-11551060D01*
X16960940Y-11451060D02*
X16860940Y-11551060D01*
X16910940Y-11451060D02*
X16910940Y-11551060D01*
X16860940Y-11501060D02*
X16960940Y-11501060D01*
X16860940Y-11728060D02*
X16960940Y-11828060D01*
X16960940Y-11728060D02*
X16860940Y-11828060D01*
X16910940Y-11728060D02*
X16910940Y-11828060D01*
X16860940Y-11778060D02*
X16960940Y-11778060D01*
X16860940Y-12005060D02*
X16960940Y-12105060D01*
X16960940Y-12005060D02*
X16860940Y-12105060D01*
X16910940Y-12005060D02*
X16910940Y-12105060D01*
X16860940Y-12055060D02*
X16960940Y-12055060D01*
X16860940Y-12282060D02*
X16960940Y-12382060D01*
X16960940Y-12282060D02*
X16860940Y-12382060D01*
X16910940Y-12282060D02*
X16910940Y-12382060D01*
X16860940Y-12332060D02*
X16960940Y-12332060D01*
X16860940Y-12559060D02*
X16960940Y-12659060D01*
X16960940Y-12559060D02*
X16860940Y-12659060D01*
X16910940Y-12559060D02*
X16910940Y-12659060D01*
X16860940Y-12609060D02*
X16960940Y-12609060D01*
X17144940Y-8339560D02*
X17244940Y-8439560D01*
X17244940Y-8339560D02*
X17144940Y-8439560D01*
X17194940Y-8339560D02*
X17194940Y-8439560D01*
X17144940Y-8389560D02*
X17244940Y-8389560D01*
X17144940Y-8616560D02*
X17244940Y-8716560D01*
X17244940Y-8616560D02*
X17144940Y-8716560D01*
X17194940Y-8616560D02*
X17194940Y-8716560D01*
X17144940Y-8666560D02*
X17244940Y-8666560D01*
X17144940Y-8893560D02*
X17244940Y-8993560D01*
X17244940Y-8893560D02*
X17144940Y-8993560D01*
X17194940Y-8893560D02*
X17194940Y-8993560D01*
X17144940Y-8943560D02*
X17244940Y-8943560D01*
X17144940Y-9170560D02*
X17244940Y-9270560D01*
X17244940Y-9170560D02*
X17144940Y-9270560D01*
X17194940Y-9170560D02*
X17194940Y-9270560D01*
X17144940Y-9220560D02*
X17244940Y-9220560D01*
X17144940Y-11589560D02*
X17244940Y-11689560D01*
X17244940Y-11589560D02*
X17144940Y-11689560D01*
X17194940Y-11589560D02*
X17194940Y-11689560D01*
X17144940Y-11639560D02*
X17244940Y-11639560D01*
X17144940Y-11866560D02*
X17244940Y-11966560D01*
X17244940Y-11866560D02*
X17144940Y-11966560D01*
X17194940Y-11866560D02*
X17194940Y-11966560D01*
X17144940Y-11916560D02*
X17244940Y-11916560D01*
X17144940Y-12143560D02*
X17244940Y-12243560D01*
X17244940Y-12143560D02*
X17144940Y-12243560D01*
X17194940Y-12143560D02*
X17194940Y-12243560D01*
X17144940Y-12193560D02*
X17244940Y-12193560D01*
X17144940Y-12420560D02*
X17244940Y-12520560D01*
X17244940Y-12420560D02*
X17144940Y-12520560D01*
X17194940Y-12420560D02*
X17194940Y-12520560D01*
X17144940Y-12470560D02*
X17244940Y-12470560D01*
D18*
X8622940Y-5514500D02*
X8852940Y-5744500D01*
X8852940Y-5514500D02*
X8622940Y-5744500D01*
X8819258Y-5710818D02*
X8819258Y-5548182D01*
X8656622Y-5548182D01*
X8656622Y-5710818D01*
X8819258Y-5710818D01*
X8622940Y-6828500D02*
X8852940Y-7058500D01*
X8852940Y-6828500D02*
X8622940Y-7058500D01*
X8819258Y-7024818D02*
X8819258Y-6862182D01*
X8656622Y-6862182D01*
X8656622Y-7024818D01*
X8819258Y-7024818D01*
X17141760Y-5576020D02*
X17371760Y-5806020D01*
X17371760Y-5576020D02*
X17141760Y-5806020D01*
X17338078Y-5772338D02*
X17338078Y-5609702D01*
X17175442Y-5609702D01*
X17175442Y-5772338D01*
X17338078Y-5772338D01*
X17141760Y-6776020D02*
X17371760Y-7006020D01*
X17371760Y-6776020D02*
X17141760Y-7006020D01*
X17338078Y-6972338D02*
X17338078Y-6809702D01*
X17175442Y-6809702D01*
X17175442Y-6972338D01*
X17338078Y-6972338D01*
D19*
X16780940Y-7395060D02*
X17100940Y-7715060D01*
X17100940Y-7395060D02*
X16780940Y-7715060D01*
X16940940Y-7715060D02*
X17100940Y-7555060D01*
X16940940Y-7395060D01*
X16780940Y-7555060D01*
X16940940Y-7715060D01*
X16780940Y-9895060D02*
X17100940Y-10215060D01*
X17100940Y-9895060D02*
X16780940Y-10215060D01*
X16940940Y-10215060D02*
X17100940Y-10055060D01*
X16940940Y-9895060D01*
X16780940Y-10055060D01*
X16940940Y-10215060D01*
X16780940Y-10645060D02*
X17100940Y-10965060D01*
X17100940Y-10645060D02*
X16780940Y-10965060D01*
X16940940Y-10965060D02*
X17100940Y-10805060D01*
X16940940Y-10645060D01*
X16780940Y-10805060D01*
X16940940Y-10965060D01*
X16780940Y-13145060D02*
X17100940Y-13465060D01*
X17100940Y-13145060D02*
X16780940Y-13465060D01*
X16940940Y-13465060D02*
X17100940Y-13305060D01*
X16940940Y-13145060D01*
X16780940Y-13305060D01*
X16940940Y-13465060D01*
D10*
X7954777Y-15286984D02*
X7954777Y-15086984D01*
X7954777Y-15086984D02*
X8002396Y-15086984D01*
X8002396Y-15086984D02*
X8030967Y-15096508D01*
X8030967Y-15096508D02*
X8050015Y-15115555D01*
X8050015Y-15115555D02*
X8059539Y-15134603D01*
X8059539Y-15134603D02*
X8069062Y-15172698D01*
X8069062Y-15172698D02*
X8069062Y-15201269D01*
X8069062Y-15201269D02*
X8059539Y-15239365D01*
X8059539Y-15239365D02*
X8050015Y-15258412D01*
X8050015Y-15258412D02*
X8030967Y-15277460D01*
X8030967Y-15277460D02*
X8002396Y-15286984D01*
X8002396Y-15286984D02*
X7954777Y-15286984D01*
X8154777Y-15286984D02*
X8154777Y-15153650D01*
X8154777Y-15191746D02*
X8164301Y-15172698D01*
X8164301Y-15172698D02*
X8173824Y-15163174D01*
X8173824Y-15163174D02*
X8192872Y-15153650D01*
X8192872Y-15153650D02*
X8211920Y-15153650D01*
X8278586Y-15286984D02*
X8278586Y-15153650D01*
X8278586Y-15086984D02*
X8269062Y-15096508D01*
X8269062Y-15096508D02*
X8278586Y-15106031D01*
X8278586Y-15106031D02*
X8288110Y-15096508D01*
X8288110Y-15096508D02*
X8278586Y-15086984D01*
X8278586Y-15086984D02*
X8278586Y-15106031D01*
X8402396Y-15286984D02*
X8383348Y-15277460D01*
X8383348Y-15277460D02*
X8373824Y-15258412D01*
X8373824Y-15258412D02*
X8373824Y-15086984D01*
X8507158Y-15286984D02*
X8488110Y-15277460D01*
X8488110Y-15277460D02*
X8478586Y-15258412D01*
X8478586Y-15258412D02*
X8478586Y-15086984D01*
X8735729Y-15286984D02*
X8735729Y-15086984D01*
X8735729Y-15086984D02*
X8802396Y-15229841D01*
X8802396Y-15229841D02*
X8869063Y-15086984D01*
X8869063Y-15086984D02*
X8869063Y-15286984D01*
X9050015Y-15286984D02*
X9050015Y-15182222D01*
X9050015Y-15182222D02*
X9040491Y-15163174D01*
X9040491Y-15163174D02*
X9021444Y-15153650D01*
X9021444Y-15153650D02*
X8983348Y-15153650D01*
X8983348Y-15153650D02*
X8964301Y-15163174D01*
X9050015Y-15277460D02*
X9030967Y-15286984D01*
X9030967Y-15286984D02*
X8983348Y-15286984D01*
X8983348Y-15286984D02*
X8964301Y-15277460D01*
X8964301Y-15277460D02*
X8954777Y-15258412D01*
X8954777Y-15258412D02*
X8954777Y-15239365D01*
X8954777Y-15239365D02*
X8964301Y-15220317D01*
X8964301Y-15220317D02*
X8983348Y-15210793D01*
X8983348Y-15210793D02*
X9030967Y-15210793D01*
X9030967Y-15210793D02*
X9050015Y-15201269D01*
X9145253Y-15153650D02*
X9145253Y-15353650D01*
X9145253Y-15163174D02*
X9164301Y-15153650D01*
X9164301Y-15153650D02*
X9202396Y-15153650D01*
X9202396Y-15153650D02*
X9221444Y-15163174D01*
X9221444Y-15163174D02*
X9230967Y-15172698D01*
X9230967Y-15172698D02*
X9240491Y-15191746D01*
X9240491Y-15191746D02*
X9240491Y-15248888D01*
X9240491Y-15248888D02*
X9230967Y-15267936D01*
X9230967Y-15267936D02*
X9221444Y-15277460D01*
X9221444Y-15277460D02*
X9202396Y-15286984D01*
X9202396Y-15286984D02*
X9164301Y-15286984D01*
X9164301Y-15286984D02*
X9145253Y-15277460D01*
X9326205Y-15267936D02*
X9335729Y-15277460D01*
X9335729Y-15277460D02*
X9326205Y-15286984D01*
X9326205Y-15286984D02*
X9316682Y-15277460D01*
X9316682Y-15277460D02*
X9326205Y-15267936D01*
X9326205Y-15267936D02*
X9326205Y-15286984D01*
X9326205Y-15163174D02*
X9335729Y-15172698D01*
X9335729Y-15172698D02*
X9326205Y-15182222D01*
X9326205Y-15182222D02*
X9316682Y-15172698D01*
X9316682Y-15172698D02*
X9326205Y-15163174D01*
X9326205Y-15163174D02*
X9326205Y-15182222D01*
D11*
X7654000Y-15595500D02*
X7694000Y-15635500D01*
X7694000Y-15595500D02*
X7654000Y-15635500D01*
D10*
X7992872Y-15506984D02*
X8011920Y-15506984D01*
X8011920Y-15506984D02*
X8030967Y-15516508D01*
X8030967Y-15516508D02*
X8040491Y-15526031D01*
X8040491Y-15526031D02*
X8050015Y-15545079D01*
X8050015Y-15545079D02*
X8059539Y-15583174D01*
X8059539Y-15583174D02*
X8059539Y-15630793D01*
X8059539Y-15630793D02*
X8050015Y-15668888D01*
X8050015Y-15668888D02*
X8040491Y-15687936D01*
X8040491Y-15687936D02*
X8030967Y-15697460D01*
X8030967Y-15697460D02*
X8011920Y-15706984D01*
X8011920Y-15706984D02*
X7992872Y-15706984D01*
X7992872Y-15706984D02*
X7973824Y-15697460D01*
X7973824Y-15697460D02*
X7964301Y-15687936D01*
X7964301Y-15687936D02*
X7954777Y-15668888D01*
X7954777Y-15668888D02*
X7945253Y-15630793D01*
X7945253Y-15630793D02*
X7945253Y-15583174D01*
X7945253Y-15583174D02*
X7954777Y-15545079D01*
X7954777Y-15545079D02*
X7964301Y-15526031D01*
X7964301Y-15526031D02*
X7973824Y-15516508D01*
X7973824Y-15516508D02*
X7992872Y-15506984D01*
X8145253Y-15687936D02*
X8154777Y-15697460D01*
X8154777Y-15697460D02*
X8145253Y-15706984D01*
X8145253Y-15706984D02*
X8135729Y-15697460D01*
X8135729Y-15697460D02*
X8145253Y-15687936D01*
X8145253Y-15687936D02*
X8145253Y-15706984D01*
X8326205Y-15573650D02*
X8326205Y-15706984D01*
X8278586Y-15497460D02*
X8230967Y-15640317D01*
X8230967Y-15640317D02*
X8354777Y-15640317D01*
X8469063Y-15506984D02*
X8488110Y-15506984D01*
X8488110Y-15506984D02*
X8507158Y-15516508D01*
X8507158Y-15516508D02*
X8516682Y-15526031D01*
X8516682Y-15526031D02*
X8526205Y-15545079D01*
X8526205Y-15545079D02*
X8535729Y-15583174D01*
X8535729Y-15583174D02*
X8535729Y-15630793D01*
X8535729Y-15630793D02*
X8526205Y-15668888D01*
X8526205Y-15668888D02*
X8516682Y-15687936D01*
X8516682Y-15687936D02*
X8507158Y-15697460D01*
X8507158Y-15697460D02*
X8488110Y-15706984D01*
X8488110Y-15706984D02*
X8469063Y-15706984D01*
X8469063Y-15706984D02*
X8450015Y-15697460D01*
X8450015Y-15697460D02*
X8440491Y-15687936D01*
X8440491Y-15687936D02*
X8430967Y-15668888D01*
X8430967Y-15668888D02*
X8421444Y-15630793D01*
X8421444Y-15630793D02*
X8421444Y-15583174D01*
X8421444Y-15583174D02*
X8430967Y-15545079D01*
X8430967Y-15545079D02*
X8440491Y-15526031D01*
X8440491Y-15526031D02*
X8450015Y-15516508D01*
X8450015Y-15516508D02*
X8469063Y-15506984D01*
X8659539Y-15506984D02*
X8678586Y-15506984D01*
X8678586Y-15506984D02*
X8697634Y-15516508D01*
X8697634Y-15516508D02*
X8707158Y-15526031D01*
X8707158Y-15526031D02*
X8716682Y-15545079D01*
X8716682Y-15545079D02*
X8726205Y-15583174D01*
X8726205Y-15583174D02*
X8726205Y-15630793D01*
X8726205Y-15630793D02*
X8716682Y-15668888D01*
X8716682Y-15668888D02*
X8707158Y-15687936D01*
X8707158Y-15687936D02*
X8697634Y-15697460D01*
X8697634Y-15697460D02*
X8678586Y-15706984D01*
X8678586Y-15706984D02*
X8659539Y-15706984D01*
X8659539Y-15706984D02*
X8640491Y-15697460D01*
X8640491Y-15697460D02*
X8630967Y-15687936D01*
X8630967Y-15687936D02*
X8621444Y-15668888D01*
X8621444Y-15668888D02*
X8611920Y-15630793D01*
X8611920Y-15630793D02*
X8611920Y-15583174D01*
X8611920Y-15583174D02*
X8621444Y-15545079D01*
X8621444Y-15545079D02*
X8630967Y-15526031D01*
X8630967Y-15526031D02*
X8640491Y-15516508D01*
X8640491Y-15516508D02*
X8659539Y-15506984D01*
X8811920Y-15706984D02*
X8811920Y-15573650D01*
X8811920Y-15592698D02*
X8821444Y-15583174D01*
X8821444Y-15583174D02*
X8840491Y-15573650D01*
X8840491Y-15573650D02*
X8869063Y-15573650D01*
X8869063Y-15573650D02*
X8888110Y-15583174D01*
X8888110Y-15583174D02*
X8897634Y-15602222D01*
X8897634Y-15602222D02*
X8897634Y-15706984D01*
X8897634Y-15602222D02*
X8907158Y-15583174D01*
X8907158Y-15583174D02*
X8926205Y-15573650D01*
X8926205Y-15573650D02*
X8954777Y-15573650D01*
X8954777Y-15573650D02*
X8973825Y-15583174D01*
X8973825Y-15583174D02*
X8983348Y-15602222D01*
X8983348Y-15602222D02*
X8983348Y-15706984D01*
X9078586Y-15706984D02*
X9078586Y-15573650D01*
X9078586Y-15592698D02*
X9088110Y-15583174D01*
X9088110Y-15583174D02*
X9107158Y-15573650D01*
X9107158Y-15573650D02*
X9135729Y-15573650D01*
X9135729Y-15573650D02*
X9154777Y-15583174D01*
X9154777Y-15583174D02*
X9164301Y-15602222D01*
X9164301Y-15602222D02*
X9164301Y-15706984D01*
X9164301Y-15602222D02*
X9173825Y-15583174D01*
X9173825Y-15583174D02*
X9192872Y-15573650D01*
X9192872Y-15573650D02*
X9221444Y-15573650D01*
X9221444Y-15573650D02*
X9240491Y-15583174D01*
X9240491Y-15583174D02*
X9250015Y-15602222D01*
X9250015Y-15602222D02*
X9250015Y-15706984D01*
X9640491Y-15497460D02*
X9469063Y-15754603D01*
X9897634Y-15506984D02*
X9916682Y-15506984D01*
X9916682Y-15506984D02*
X9935729Y-15516508D01*
X9935729Y-15516508D02*
X9945253Y-15526031D01*
X9945253Y-15526031D02*
X9954777Y-15545079D01*
X9954777Y-15545079D02*
X9964301Y-15583174D01*
X9964301Y-15583174D02*
X9964301Y-15630793D01*
X9964301Y-15630793D02*
X9954777Y-15668888D01*
X9954777Y-15668888D02*
X9945253Y-15687936D01*
X9945253Y-15687936D02*
X9935729Y-15697460D01*
X9935729Y-15697460D02*
X9916682Y-15706984D01*
X9916682Y-15706984D02*
X9897634Y-15706984D01*
X9897634Y-15706984D02*
X9878587Y-15697460D01*
X9878587Y-15697460D02*
X9869063Y-15687936D01*
X9869063Y-15687936D02*
X9859539Y-15668888D01*
X9859539Y-15668888D02*
X9850015Y-15630793D01*
X9850015Y-15630793D02*
X9850015Y-15583174D01*
X9850015Y-15583174D02*
X9859539Y-15545079D01*
X9859539Y-15545079D02*
X9869063Y-15526031D01*
X9869063Y-15526031D02*
X9878587Y-15516508D01*
X9878587Y-15516508D02*
X9897634Y-15506984D01*
X10050015Y-15687936D02*
X10059539Y-15697460D01*
X10059539Y-15697460D02*
X10050015Y-15706984D01*
X10050015Y-15706984D02*
X10040491Y-15697460D01*
X10040491Y-15697460D02*
X10050015Y-15687936D01*
X10050015Y-15687936D02*
X10050015Y-15706984D01*
X10183348Y-15506984D02*
X10202396Y-15506984D01*
X10202396Y-15506984D02*
X10221444Y-15516508D01*
X10221444Y-15516508D02*
X10230968Y-15526031D01*
X10230968Y-15526031D02*
X10240491Y-15545079D01*
X10240491Y-15545079D02*
X10250015Y-15583174D01*
X10250015Y-15583174D02*
X10250015Y-15630793D01*
X10250015Y-15630793D02*
X10240491Y-15668888D01*
X10240491Y-15668888D02*
X10230968Y-15687936D01*
X10230968Y-15687936D02*
X10221444Y-15697460D01*
X10221444Y-15697460D02*
X10202396Y-15706984D01*
X10202396Y-15706984D02*
X10183348Y-15706984D01*
X10183348Y-15706984D02*
X10164301Y-15697460D01*
X10164301Y-15697460D02*
X10154777Y-15687936D01*
X10154777Y-15687936D02*
X10145253Y-15668888D01*
X10145253Y-15668888D02*
X10135729Y-15630793D01*
X10135729Y-15630793D02*
X10135729Y-15583174D01*
X10135729Y-15583174D02*
X10145253Y-15545079D01*
X10145253Y-15545079D02*
X10154777Y-15526031D01*
X10154777Y-15526031D02*
X10164301Y-15516508D01*
X10164301Y-15516508D02*
X10183348Y-15506984D01*
X10440491Y-15706984D02*
X10326206Y-15706984D01*
X10383348Y-15706984D02*
X10383348Y-15506984D01*
X10383348Y-15506984D02*
X10364301Y-15535555D01*
X10364301Y-15535555D02*
X10345253Y-15554603D01*
X10345253Y-15554603D02*
X10326206Y-15564127D01*
X10621444Y-15506984D02*
X10526206Y-15506984D01*
X10526206Y-15506984D02*
X10516682Y-15602222D01*
X10516682Y-15602222D02*
X10526206Y-15592698D01*
X10526206Y-15592698D02*
X10545253Y-15583174D01*
X10545253Y-15583174D02*
X10592872Y-15583174D01*
X10592872Y-15583174D02*
X10611920Y-15592698D01*
X10611920Y-15592698D02*
X10621444Y-15602222D01*
X10621444Y-15602222D02*
X10630968Y-15621269D01*
X10630968Y-15621269D02*
X10630968Y-15668888D01*
X10630968Y-15668888D02*
X10621444Y-15687936D01*
X10621444Y-15687936D02*
X10611920Y-15697460D01*
X10611920Y-15697460D02*
X10592872Y-15706984D01*
X10592872Y-15706984D02*
X10545253Y-15706984D01*
X10545253Y-15706984D02*
X10526206Y-15697460D01*
X10526206Y-15697460D02*
X10516682Y-15687936D01*
X10697634Y-15506984D02*
X10830968Y-15506984D01*
X10830968Y-15506984D02*
X10745253Y-15706984D01*
X10897634Y-15506984D02*
X10897634Y-15545079D01*
X10973825Y-15506984D02*
X10973825Y-15545079D01*
X11269063Y-15783174D02*
X11259539Y-15773650D01*
X11259539Y-15773650D02*
X11240491Y-15745079D01*
X11240491Y-15745079D02*
X11230968Y-15726031D01*
X11230968Y-15726031D02*
X11221444Y-15697460D01*
X11221444Y-15697460D02*
X11211920Y-15649841D01*
X11211920Y-15649841D02*
X11211920Y-15611746D01*
X11211920Y-15611746D02*
X11221444Y-15564127D01*
X11221444Y-15564127D02*
X11230968Y-15535555D01*
X11230968Y-15535555D02*
X11240491Y-15516508D01*
X11240491Y-15516508D02*
X11259539Y-15487936D01*
X11259539Y-15487936D02*
X11269063Y-15478412D01*
X11450015Y-15706984D02*
X11335729Y-15706984D01*
X11392872Y-15706984D02*
X11392872Y-15506984D01*
X11392872Y-15506984D02*
X11373825Y-15535555D01*
X11373825Y-15535555D02*
X11354777Y-15554603D01*
X11354777Y-15554603D02*
X11335729Y-15564127D01*
X11545253Y-15706984D02*
X11583348Y-15706984D01*
X11583348Y-15706984D02*
X11602396Y-15697460D01*
X11602396Y-15697460D02*
X11611920Y-15687936D01*
X11611920Y-15687936D02*
X11630968Y-15659365D01*
X11630968Y-15659365D02*
X11640491Y-15621269D01*
X11640491Y-15621269D02*
X11640491Y-15545079D01*
X11640491Y-15545079D02*
X11630968Y-15526031D01*
X11630968Y-15526031D02*
X11621444Y-15516508D01*
X11621444Y-15516508D02*
X11602396Y-15506984D01*
X11602396Y-15506984D02*
X11564301Y-15506984D01*
X11564301Y-15506984D02*
X11545253Y-15516508D01*
X11545253Y-15516508D02*
X11535729Y-15526031D01*
X11535729Y-15526031D02*
X11526206Y-15545079D01*
X11526206Y-15545079D02*
X11526206Y-15592698D01*
X11526206Y-15592698D02*
X11535729Y-15611746D01*
X11535729Y-15611746D02*
X11545253Y-15621269D01*
X11545253Y-15621269D02*
X11564301Y-15630793D01*
X11564301Y-15630793D02*
X11602396Y-15630793D01*
X11602396Y-15630793D02*
X11621444Y-15621269D01*
X11621444Y-15621269D02*
X11630968Y-15611746D01*
X11630968Y-15611746D02*
X11640491Y-15592698D01*
X11716682Y-15526031D02*
X11726206Y-15516508D01*
X11726206Y-15516508D02*
X11745253Y-15506984D01*
X11745253Y-15506984D02*
X11792872Y-15506984D01*
X11792872Y-15506984D02*
X11811920Y-15516508D01*
X11811920Y-15516508D02*
X11821444Y-15526031D01*
X11821444Y-15526031D02*
X11830968Y-15545079D01*
X11830968Y-15545079D02*
X11830968Y-15564127D01*
X11830968Y-15564127D02*
X11821444Y-15592698D01*
X11821444Y-15592698D02*
X11707158Y-15706984D01*
X11707158Y-15706984D02*
X11830968Y-15706984D01*
X12069063Y-15706984D02*
X12069063Y-15506984D01*
X12154777Y-15706984D02*
X12154777Y-15602222D01*
X12154777Y-15602222D02*
X12145253Y-15583174D01*
X12145253Y-15583174D02*
X12126206Y-15573650D01*
X12126206Y-15573650D02*
X12097634Y-15573650D01*
X12097634Y-15573650D02*
X12078587Y-15583174D01*
X12078587Y-15583174D02*
X12069063Y-15592698D01*
X12278587Y-15706984D02*
X12259539Y-15697460D01*
X12259539Y-15697460D02*
X12250015Y-15687936D01*
X12250015Y-15687936D02*
X12240491Y-15668888D01*
X12240491Y-15668888D02*
X12240491Y-15611746D01*
X12240491Y-15611746D02*
X12250015Y-15592698D01*
X12250015Y-15592698D02*
X12259539Y-15583174D01*
X12259539Y-15583174D02*
X12278587Y-15573650D01*
X12278587Y-15573650D02*
X12307158Y-15573650D01*
X12307158Y-15573650D02*
X12326206Y-15583174D01*
X12326206Y-15583174D02*
X12335730Y-15592698D01*
X12335730Y-15592698D02*
X12345253Y-15611746D01*
X12345253Y-15611746D02*
X12345253Y-15668888D01*
X12345253Y-15668888D02*
X12335730Y-15687936D01*
X12335730Y-15687936D02*
X12326206Y-15697460D01*
X12326206Y-15697460D02*
X12307158Y-15706984D01*
X12307158Y-15706984D02*
X12278587Y-15706984D01*
X12459539Y-15706984D02*
X12440491Y-15697460D01*
X12440491Y-15697460D02*
X12430968Y-15678412D01*
X12430968Y-15678412D02*
X12430968Y-15506984D01*
X12611920Y-15697460D02*
X12592872Y-15706984D01*
X12592872Y-15706984D02*
X12554777Y-15706984D01*
X12554777Y-15706984D02*
X12535730Y-15697460D01*
X12535730Y-15697460D02*
X12526206Y-15678412D01*
X12526206Y-15678412D02*
X12526206Y-15602222D01*
X12526206Y-15602222D02*
X12535730Y-15583174D01*
X12535730Y-15583174D02*
X12554777Y-15573650D01*
X12554777Y-15573650D02*
X12592872Y-15573650D01*
X12592872Y-15573650D02*
X12611920Y-15583174D01*
X12611920Y-15583174D02*
X12621444Y-15602222D01*
X12621444Y-15602222D02*
X12621444Y-15621269D01*
X12621444Y-15621269D02*
X12526206Y-15640317D01*
X12697634Y-15697460D02*
X12716682Y-15706984D01*
X12716682Y-15706984D02*
X12754777Y-15706984D01*
X12754777Y-15706984D02*
X12773825Y-15697460D01*
X12773825Y-15697460D02*
X12783349Y-15678412D01*
X12783349Y-15678412D02*
X12783349Y-15668888D01*
X12783349Y-15668888D02*
X12773825Y-15649841D01*
X12773825Y-15649841D02*
X12754777Y-15640317D01*
X12754777Y-15640317D02*
X12726206Y-15640317D01*
X12726206Y-15640317D02*
X12707158Y-15630793D01*
X12707158Y-15630793D02*
X12697634Y-15611746D01*
X12697634Y-15611746D02*
X12697634Y-15602222D01*
X12697634Y-15602222D02*
X12707158Y-15583174D01*
X12707158Y-15583174D02*
X12726206Y-15573650D01*
X12726206Y-15573650D02*
X12754777Y-15573650D01*
X12754777Y-15573650D02*
X12773825Y-15583174D01*
X12850015Y-15783174D02*
X12859539Y-15773650D01*
X12859539Y-15773650D02*
X12878587Y-15745079D01*
X12878587Y-15745079D02*
X12888111Y-15726031D01*
X12888111Y-15726031D02*
X12897634Y-15697460D01*
X12897634Y-15697460D02*
X12907158Y-15649841D01*
X12907158Y-15649841D02*
X12907158Y-15611746D01*
X12907158Y-15611746D02*
X12897634Y-15564127D01*
X12897634Y-15564127D02*
X12888111Y-15535555D01*
X12888111Y-15535555D02*
X12878587Y-15516508D01*
X12878587Y-15516508D02*
X12859539Y-15487936D01*
X12859539Y-15487936D02*
X12850015Y-15478412D01*
D12*
X7694000Y-15879500D02*
G75*
G03*
X7694000Y-15879500I-25000J0D01*
G01*
D10*
X7992872Y-15770984D02*
X8011920Y-15770984D01*
X8011920Y-15770984D02*
X8030967Y-15780508D01*
X8030967Y-15780508D02*
X8040491Y-15790031D01*
X8040491Y-15790031D02*
X8050015Y-15809079D01*
X8050015Y-15809079D02*
X8059539Y-15847174D01*
X8059539Y-15847174D02*
X8059539Y-15894793D01*
X8059539Y-15894793D02*
X8050015Y-15932888D01*
X8050015Y-15932888D02*
X8040491Y-15951936D01*
X8040491Y-15951936D02*
X8030967Y-15961460D01*
X8030967Y-15961460D02*
X8011920Y-15970984D01*
X8011920Y-15970984D02*
X7992872Y-15970984D01*
X7992872Y-15970984D02*
X7973824Y-15961460D01*
X7973824Y-15961460D02*
X7964301Y-15951936D01*
X7964301Y-15951936D02*
X7954777Y-15932888D01*
X7954777Y-15932888D02*
X7945253Y-15894793D01*
X7945253Y-15894793D02*
X7945253Y-15847174D01*
X7945253Y-15847174D02*
X7954777Y-15809079D01*
X7954777Y-15809079D02*
X7964301Y-15790031D01*
X7964301Y-15790031D02*
X7973824Y-15780508D01*
X7973824Y-15780508D02*
X7992872Y-15770984D01*
X8145253Y-15951936D02*
X8154777Y-15961460D01*
X8154777Y-15961460D02*
X8145253Y-15970984D01*
X8145253Y-15970984D02*
X8135729Y-15961460D01*
X8135729Y-15961460D02*
X8145253Y-15951936D01*
X8145253Y-15951936D02*
X8145253Y-15970984D01*
X8335729Y-15770984D02*
X8240491Y-15770984D01*
X8240491Y-15770984D02*
X8230967Y-15866222D01*
X8230967Y-15866222D02*
X8240491Y-15856698D01*
X8240491Y-15856698D02*
X8259539Y-15847174D01*
X8259539Y-15847174D02*
X8307158Y-15847174D01*
X8307158Y-15847174D02*
X8326205Y-15856698D01*
X8326205Y-15856698D02*
X8335729Y-15866222D01*
X8335729Y-15866222D02*
X8345253Y-15885269D01*
X8345253Y-15885269D02*
X8345253Y-15932888D01*
X8345253Y-15932888D02*
X8335729Y-15951936D01*
X8335729Y-15951936D02*
X8326205Y-15961460D01*
X8326205Y-15961460D02*
X8307158Y-15970984D01*
X8307158Y-15970984D02*
X8259539Y-15970984D01*
X8259539Y-15970984D02*
X8240491Y-15961460D01*
X8240491Y-15961460D02*
X8230967Y-15951936D01*
X8469063Y-15770984D02*
X8488110Y-15770984D01*
X8488110Y-15770984D02*
X8507158Y-15780508D01*
X8507158Y-15780508D02*
X8516682Y-15790031D01*
X8516682Y-15790031D02*
X8526205Y-15809079D01*
X8526205Y-15809079D02*
X8535729Y-15847174D01*
X8535729Y-15847174D02*
X8535729Y-15894793D01*
X8535729Y-15894793D02*
X8526205Y-15932888D01*
X8526205Y-15932888D02*
X8516682Y-15951936D01*
X8516682Y-15951936D02*
X8507158Y-15961460D01*
X8507158Y-15961460D02*
X8488110Y-15970984D01*
X8488110Y-15970984D02*
X8469063Y-15970984D01*
X8469063Y-15970984D02*
X8450015Y-15961460D01*
X8450015Y-15961460D02*
X8440491Y-15951936D01*
X8440491Y-15951936D02*
X8430967Y-15932888D01*
X8430967Y-15932888D02*
X8421444Y-15894793D01*
X8421444Y-15894793D02*
X8421444Y-15847174D01*
X8421444Y-15847174D02*
X8430967Y-15809079D01*
X8430967Y-15809079D02*
X8440491Y-15790031D01*
X8440491Y-15790031D02*
X8450015Y-15780508D01*
X8450015Y-15780508D02*
X8469063Y-15770984D01*
X8659539Y-15770984D02*
X8678586Y-15770984D01*
X8678586Y-15770984D02*
X8697634Y-15780508D01*
X8697634Y-15780508D02*
X8707158Y-15790031D01*
X8707158Y-15790031D02*
X8716682Y-15809079D01*
X8716682Y-15809079D02*
X8726205Y-15847174D01*
X8726205Y-15847174D02*
X8726205Y-15894793D01*
X8726205Y-15894793D02*
X8716682Y-15932888D01*
X8716682Y-15932888D02*
X8707158Y-15951936D01*
X8707158Y-15951936D02*
X8697634Y-15961460D01*
X8697634Y-15961460D02*
X8678586Y-15970984D01*
X8678586Y-15970984D02*
X8659539Y-15970984D01*
X8659539Y-15970984D02*
X8640491Y-15961460D01*
X8640491Y-15961460D02*
X8630967Y-15951936D01*
X8630967Y-15951936D02*
X8621444Y-15932888D01*
X8621444Y-15932888D02*
X8611920Y-15894793D01*
X8611920Y-15894793D02*
X8611920Y-15847174D01*
X8611920Y-15847174D02*
X8621444Y-15809079D01*
X8621444Y-15809079D02*
X8630967Y-15790031D01*
X8630967Y-15790031D02*
X8640491Y-15780508D01*
X8640491Y-15780508D02*
X8659539Y-15770984D01*
X8811920Y-15970984D02*
X8811920Y-15837650D01*
X8811920Y-15856698D02*
X8821444Y-15847174D01*
X8821444Y-15847174D02*
X8840491Y-15837650D01*
X8840491Y-15837650D02*
X8869063Y-15837650D01*
X8869063Y-15837650D02*
X8888110Y-15847174D01*
X8888110Y-15847174D02*
X8897634Y-15866222D01*
X8897634Y-15866222D02*
X8897634Y-15970984D01*
X8897634Y-15866222D02*
X8907158Y-15847174D01*
X8907158Y-15847174D02*
X8926205Y-15837650D01*
X8926205Y-15837650D02*
X8954777Y-15837650D01*
X8954777Y-15837650D02*
X8973825Y-15847174D01*
X8973825Y-15847174D02*
X8983348Y-15866222D01*
X8983348Y-15866222D02*
X8983348Y-15970984D01*
X9078586Y-15970984D02*
X9078586Y-15837650D01*
X9078586Y-15856698D02*
X9088110Y-15847174D01*
X9088110Y-15847174D02*
X9107158Y-15837650D01*
X9107158Y-15837650D02*
X9135729Y-15837650D01*
X9135729Y-15837650D02*
X9154777Y-15847174D01*
X9154777Y-15847174D02*
X9164301Y-15866222D01*
X9164301Y-15866222D02*
X9164301Y-15970984D01*
X9164301Y-15866222D02*
X9173825Y-15847174D01*
X9173825Y-15847174D02*
X9192872Y-15837650D01*
X9192872Y-15837650D02*
X9221444Y-15837650D01*
X9221444Y-15837650D02*
X9240491Y-15847174D01*
X9240491Y-15847174D02*
X9250015Y-15866222D01*
X9250015Y-15866222D02*
X9250015Y-15970984D01*
X9640491Y-15761460D02*
X9469063Y-16018603D01*
X9897634Y-15770984D02*
X9916682Y-15770984D01*
X9916682Y-15770984D02*
X9935729Y-15780508D01*
X9935729Y-15780508D02*
X9945253Y-15790031D01*
X9945253Y-15790031D02*
X9954777Y-15809079D01*
X9954777Y-15809079D02*
X9964301Y-15847174D01*
X9964301Y-15847174D02*
X9964301Y-15894793D01*
X9964301Y-15894793D02*
X9954777Y-15932888D01*
X9954777Y-15932888D02*
X9945253Y-15951936D01*
X9945253Y-15951936D02*
X9935729Y-15961460D01*
X9935729Y-15961460D02*
X9916682Y-15970984D01*
X9916682Y-15970984D02*
X9897634Y-15970984D01*
X9897634Y-15970984D02*
X9878587Y-15961460D01*
X9878587Y-15961460D02*
X9869063Y-15951936D01*
X9869063Y-15951936D02*
X9859539Y-15932888D01*
X9859539Y-15932888D02*
X9850015Y-15894793D01*
X9850015Y-15894793D02*
X9850015Y-15847174D01*
X9850015Y-15847174D02*
X9859539Y-15809079D01*
X9859539Y-15809079D02*
X9869063Y-15790031D01*
X9869063Y-15790031D02*
X9878587Y-15780508D01*
X9878587Y-15780508D02*
X9897634Y-15770984D01*
X10050015Y-15951936D02*
X10059539Y-15961460D01*
X10059539Y-15961460D02*
X10050015Y-15970984D01*
X10050015Y-15970984D02*
X10040491Y-15961460D01*
X10040491Y-15961460D02*
X10050015Y-15951936D01*
X10050015Y-15951936D02*
X10050015Y-15970984D01*
X10183348Y-15770984D02*
X10202396Y-15770984D01*
X10202396Y-15770984D02*
X10221444Y-15780508D01*
X10221444Y-15780508D02*
X10230968Y-15790031D01*
X10230968Y-15790031D02*
X10240491Y-15809079D01*
X10240491Y-15809079D02*
X10250015Y-15847174D01*
X10250015Y-15847174D02*
X10250015Y-15894793D01*
X10250015Y-15894793D02*
X10240491Y-15932888D01*
X10240491Y-15932888D02*
X10230968Y-15951936D01*
X10230968Y-15951936D02*
X10221444Y-15961460D01*
X10221444Y-15961460D02*
X10202396Y-15970984D01*
X10202396Y-15970984D02*
X10183348Y-15970984D01*
X10183348Y-15970984D02*
X10164301Y-15961460D01*
X10164301Y-15961460D02*
X10154777Y-15951936D01*
X10154777Y-15951936D02*
X10145253Y-15932888D01*
X10145253Y-15932888D02*
X10135729Y-15894793D01*
X10135729Y-15894793D02*
X10135729Y-15847174D01*
X10135729Y-15847174D02*
X10145253Y-15809079D01*
X10145253Y-15809079D02*
X10154777Y-15790031D01*
X10154777Y-15790031D02*
X10164301Y-15780508D01*
X10164301Y-15780508D02*
X10183348Y-15770984D01*
X10440491Y-15970984D02*
X10326206Y-15970984D01*
X10383348Y-15970984D02*
X10383348Y-15770984D01*
X10383348Y-15770984D02*
X10364301Y-15799555D01*
X10364301Y-15799555D02*
X10345253Y-15818603D01*
X10345253Y-15818603D02*
X10326206Y-15828127D01*
X10535729Y-15970984D02*
X10573825Y-15970984D01*
X10573825Y-15970984D02*
X10592872Y-15961460D01*
X10592872Y-15961460D02*
X10602396Y-15951936D01*
X10602396Y-15951936D02*
X10621444Y-15923365D01*
X10621444Y-15923365D02*
X10630968Y-15885269D01*
X10630968Y-15885269D02*
X10630968Y-15809079D01*
X10630968Y-15809079D02*
X10621444Y-15790031D01*
X10621444Y-15790031D02*
X10611920Y-15780508D01*
X10611920Y-15780508D02*
X10592872Y-15770984D01*
X10592872Y-15770984D02*
X10554777Y-15770984D01*
X10554777Y-15770984D02*
X10535729Y-15780508D01*
X10535729Y-15780508D02*
X10526206Y-15790031D01*
X10526206Y-15790031D02*
X10516682Y-15809079D01*
X10516682Y-15809079D02*
X10516682Y-15856698D01*
X10516682Y-15856698D02*
X10526206Y-15875746D01*
X10526206Y-15875746D02*
X10535729Y-15885269D01*
X10535729Y-15885269D02*
X10554777Y-15894793D01*
X10554777Y-15894793D02*
X10592872Y-15894793D01*
X10592872Y-15894793D02*
X10611920Y-15885269D01*
X10611920Y-15885269D02*
X10621444Y-15875746D01*
X10621444Y-15875746D02*
X10630968Y-15856698D01*
X10697634Y-15770984D02*
X10830968Y-15770984D01*
X10830968Y-15770984D02*
X10745253Y-15970984D01*
X10897634Y-15770984D02*
X10897634Y-15809079D01*
X10973825Y-15770984D02*
X10973825Y-15809079D01*
X11269063Y-16047174D02*
X11259539Y-16037650D01*
X11259539Y-16037650D02*
X11240491Y-16009079D01*
X11240491Y-16009079D02*
X11230968Y-15990031D01*
X11230968Y-15990031D02*
X11221444Y-15961460D01*
X11221444Y-15961460D02*
X11211920Y-15913841D01*
X11211920Y-15913841D02*
X11211920Y-15875746D01*
X11211920Y-15875746D02*
X11221444Y-15828127D01*
X11221444Y-15828127D02*
X11230968Y-15799555D01*
X11230968Y-15799555D02*
X11240491Y-15780508D01*
X11240491Y-15780508D02*
X11259539Y-15751936D01*
X11259539Y-15751936D02*
X11269063Y-15742412D01*
X11450015Y-15970984D02*
X11335729Y-15970984D01*
X11392872Y-15970984D02*
X11392872Y-15770984D01*
X11392872Y-15770984D02*
X11373825Y-15799555D01*
X11373825Y-15799555D02*
X11354777Y-15818603D01*
X11354777Y-15818603D02*
X11335729Y-15828127D01*
X11573825Y-15770984D02*
X11592872Y-15770984D01*
X11592872Y-15770984D02*
X11611920Y-15780508D01*
X11611920Y-15780508D02*
X11621444Y-15790031D01*
X11621444Y-15790031D02*
X11630968Y-15809079D01*
X11630968Y-15809079D02*
X11640491Y-15847174D01*
X11640491Y-15847174D02*
X11640491Y-15894793D01*
X11640491Y-15894793D02*
X11630968Y-15932888D01*
X11630968Y-15932888D02*
X11621444Y-15951936D01*
X11621444Y-15951936D02*
X11611920Y-15961460D01*
X11611920Y-15961460D02*
X11592872Y-15970984D01*
X11592872Y-15970984D02*
X11573825Y-15970984D01*
X11573825Y-15970984D02*
X11554777Y-15961460D01*
X11554777Y-15961460D02*
X11545253Y-15951936D01*
X11545253Y-15951936D02*
X11535729Y-15932888D01*
X11535729Y-15932888D02*
X11526206Y-15894793D01*
X11526206Y-15894793D02*
X11526206Y-15847174D01*
X11526206Y-15847174D02*
X11535729Y-15809079D01*
X11535729Y-15809079D02*
X11545253Y-15790031D01*
X11545253Y-15790031D02*
X11554777Y-15780508D01*
X11554777Y-15780508D02*
X11573825Y-15770984D01*
X11878587Y-15970984D02*
X11878587Y-15770984D01*
X11964301Y-15970984D02*
X11964301Y-15866222D01*
X11964301Y-15866222D02*
X11954777Y-15847174D01*
X11954777Y-15847174D02*
X11935730Y-15837650D01*
X11935730Y-15837650D02*
X11907158Y-15837650D01*
X11907158Y-15837650D02*
X11888110Y-15847174D01*
X11888110Y-15847174D02*
X11878587Y-15856698D01*
X12088110Y-15970984D02*
X12069063Y-15961460D01*
X12069063Y-15961460D02*
X12059539Y-15951936D01*
X12059539Y-15951936D02*
X12050015Y-15932888D01*
X12050015Y-15932888D02*
X12050015Y-15875746D01*
X12050015Y-15875746D02*
X12059539Y-15856698D01*
X12059539Y-15856698D02*
X12069063Y-15847174D01*
X12069063Y-15847174D02*
X12088110Y-15837650D01*
X12088110Y-15837650D02*
X12116682Y-15837650D01*
X12116682Y-15837650D02*
X12135730Y-15847174D01*
X12135730Y-15847174D02*
X12145253Y-15856698D01*
X12145253Y-15856698D02*
X12154777Y-15875746D01*
X12154777Y-15875746D02*
X12154777Y-15932888D01*
X12154777Y-15932888D02*
X12145253Y-15951936D01*
X12145253Y-15951936D02*
X12135730Y-15961460D01*
X12135730Y-15961460D02*
X12116682Y-15970984D01*
X12116682Y-15970984D02*
X12088110Y-15970984D01*
X12269063Y-15970984D02*
X12250015Y-15961460D01*
X12250015Y-15961460D02*
X12240491Y-15942412D01*
X12240491Y-15942412D02*
X12240491Y-15770984D01*
X12421444Y-15961460D02*
X12402396Y-15970984D01*
X12402396Y-15970984D02*
X12364301Y-15970984D01*
X12364301Y-15970984D02*
X12345253Y-15961460D01*
X12345253Y-15961460D02*
X12335730Y-15942412D01*
X12335730Y-15942412D02*
X12335730Y-15866222D01*
X12335730Y-15866222D02*
X12345253Y-15847174D01*
X12345253Y-15847174D02*
X12364301Y-15837650D01*
X12364301Y-15837650D02*
X12402396Y-15837650D01*
X12402396Y-15837650D02*
X12421444Y-15847174D01*
X12421444Y-15847174D02*
X12430968Y-15866222D01*
X12430968Y-15866222D02*
X12430968Y-15885269D01*
X12430968Y-15885269D02*
X12335730Y-15904317D01*
X12507158Y-15961460D02*
X12526206Y-15970984D01*
X12526206Y-15970984D02*
X12564301Y-15970984D01*
X12564301Y-15970984D02*
X12583349Y-15961460D01*
X12583349Y-15961460D02*
X12592872Y-15942412D01*
X12592872Y-15942412D02*
X12592872Y-15932888D01*
X12592872Y-15932888D02*
X12583349Y-15913841D01*
X12583349Y-15913841D02*
X12564301Y-15904317D01*
X12564301Y-15904317D02*
X12535730Y-15904317D01*
X12535730Y-15904317D02*
X12516682Y-15894793D01*
X12516682Y-15894793D02*
X12507158Y-15875746D01*
X12507158Y-15875746D02*
X12507158Y-15866222D01*
X12507158Y-15866222D02*
X12516682Y-15847174D01*
X12516682Y-15847174D02*
X12535730Y-15837650D01*
X12535730Y-15837650D02*
X12564301Y-15837650D01*
X12564301Y-15837650D02*
X12583349Y-15847174D01*
X12659539Y-16047174D02*
X12669063Y-16037650D01*
X12669063Y-16037650D02*
X12688111Y-16009079D01*
X12688111Y-16009079D02*
X12697634Y-15990031D01*
X12697634Y-15990031D02*
X12707158Y-15961460D01*
X12707158Y-15961460D02*
X12716682Y-15913841D01*
X12716682Y-15913841D02*
X12716682Y-15875746D01*
X12716682Y-15875746D02*
X12707158Y-15828127D01*
X12707158Y-15828127D02*
X12697634Y-15799555D01*
X12697634Y-15799555D02*
X12688111Y-15780508D01*
X12688111Y-15780508D02*
X12669063Y-15751936D01*
X12669063Y-15751936D02*
X12659539Y-15742412D01*
D13*
X7654000Y-16103500D02*
X7654000Y-16183500D01*
X7614000Y-16143500D02*
X7694000Y-16143500D01*
D10*
X7992872Y-16034984D02*
X8011920Y-16034984D01*
X8011920Y-16034984D02*
X8030967Y-16044508D01*
X8030967Y-16044508D02*
X8040491Y-16054031D01*
X8040491Y-16054031D02*
X8050015Y-16073079D01*
X8050015Y-16073079D02*
X8059539Y-16111174D01*
X8059539Y-16111174D02*
X8059539Y-16158793D01*
X8059539Y-16158793D02*
X8050015Y-16196888D01*
X8050015Y-16196888D02*
X8040491Y-16215936D01*
X8040491Y-16215936D02*
X8030967Y-16225460D01*
X8030967Y-16225460D02*
X8011920Y-16234984D01*
X8011920Y-16234984D02*
X7992872Y-16234984D01*
X7992872Y-16234984D02*
X7973824Y-16225460D01*
X7973824Y-16225460D02*
X7964301Y-16215936D01*
X7964301Y-16215936D02*
X7954777Y-16196888D01*
X7954777Y-16196888D02*
X7945253Y-16158793D01*
X7945253Y-16158793D02*
X7945253Y-16111174D01*
X7945253Y-16111174D02*
X7954777Y-16073079D01*
X7954777Y-16073079D02*
X7964301Y-16054031D01*
X7964301Y-16054031D02*
X7973824Y-16044508D01*
X7973824Y-16044508D02*
X7992872Y-16034984D01*
X8145253Y-16215936D02*
X8154777Y-16225460D01*
X8154777Y-16225460D02*
X8145253Y-16234984D01*
X8145253Y-16234984D02*
X8135729Y-16225460D01*
X8135729Y-16225460D02*
X8145253Y-16215936D01*
X8145253Y-16215936D02*
X8145253Y-16234984D01*
X8269062Y-16120698D02*
X8250015Y-16111174D01*
X8250015Y-16111174D02*
X8240491Y-16101650D01*
X8240491Y-16101650D02*
X8230967Y-16082603D01*
X8230967Y-16082603D02*
X8230967Y-16073079D01*
X8230967Y-16073079D02*
X8240491Y-16054031D01*
X8240491Y-16054031D02*
X8250015Y-16044508D01*
X8250015Y-16044508D02*
X8269062Y-16034984D01*
X8269062Y-16034984D02*
X8307158Y-16034984D01*
X8307158Y-16034984D02*
X8326205Y-16044508D01*
X8326205Y-16044508D02*
X8335729Y-16054031D01*
X8335729Y-16054031D02*
X8345253Y-16073079D01*
X8345253Y-16073079D02*
X8345253Y-16082603D01*
X8345253Y-16082603D02*
X8335729Y-16101650D01*
X8335729Y-16101650D02*
X8326205Y-16111174D01*
X8326205Y-16111174D02*
X8307158Y-16120698D01*
X8307158Y-16120698D02*
X8269062Y-16120698D01*
X8269062Y-16120698D02*
X8250015Y-16130222D01*
X8250015Y-16130222D02*
X8240491Y-16139746D01*
X8240491Y-16139746D02*
X8230967Y-16158793D01*
X8230967Y-16158793D02*
X8230967Y-16196888D01*
X8230967Y-16196888D02*
X8240491Y-16215936D01*
X8240491Y-16215936D02*
X8250015Y-16225460D01*
X8250015Y-16225460D02*
X8269062Y-16234984D01*
X8269062Y-16234984D02*
X8307158Y-16234984D01*
X8307158Y-16234984D02*
X8326205Y-16225460D01*
X8326205Y-16225460D02*
X8335729Y-16215936D01*
X8335729Y-16215936D02*
X8345253Y-16196888D01*
X8345253Y-16196888D02*
X8345253Y-16158793D01*
X8345253Y-16158793D02*
X8335729Y-16139746D01*
X8335729Y-16139746D02*
X8326205Y-16130222D01*
X8326205Y-16130222D02*
X8307158Y-16120698D01*
X8469063Y-16034984D02*
X8488110Y-16034984D01*
X8488110Y-16034984D02*
X8507158Y-16044508D01*
X8507158Y-16044508D02*
X8516682Y-16054031D01*
X8516682Y-16054031D02*
X8526205Y-16073079D01*
X8526205Y-16073079D02*
X8535729Y-16111174D01*
X8535729Y-16111174D02*
X8535729Y-16158793D01*
X8535729Y-16158793D02*
X8526205Y-16196888D01*
X8526205Y-16196888D02*
X8516682Y-16215936D01*
X8516682Y-16215936D02*
X8507158Y-16225460D01*
X8507158Y-16225460D02*
X8488110Y-16234984D01*
X8488110Y-16234984D02*
X8469063Y-16234984D01*
X8469063Y-16234984D02*
X8450015Y-16225460D01*
X8450015Y-16225460D02*
X8440491Y-16215936D01*
X8440491Y-16215936D02*
X8430967Y-16196888D01*
X8430967Y-16196888D02*
X8421444Y-16158793D01*
X8421444Y-16158793D02*
X8421444Y-16111174D01*
X8421444Y-16111174D02*
X8430967Y-16073079D01*
X8430967Y-16073079D02*
X8440491Y-16054031D01*
X8440491Y-16054031D02*
X8450015Y-16044508D01*
X8450015Y-16044508D02*
X8469063Y-16034984D01*
X8659539Y-16034984D02*
X8678586Y-16034984D01*
X8678586Y-16034984D02*
X8697634Y-16044508D01*
X8697634Y-16044508D02*
X8707158Y-16054031D01*
X8707158Y-16054031D02*
X8716682Y-16073079D01*
X8716682Y-16073079D02*
X8726205Y-16111174D01*
X8726205Y-16111174D02*
X8726205Y-16158793D01*
X8726205Y-16158793D02*
X8716682Y-16196888D01*
X8716682Y-16196888D02*
X8707158Y-16215936D01*
X8707158Y-16215936D02*
X8697634Y-16225460D01*
X8697634Y-16225460D02*
X8678586Y-16234984D01*
X8678586Y-16234984D02*
X8659539Y-16234984D01*
X8659539Y-16234984D02*
X8640491Y-16225460D01*
X8640491Y-16225460D02*
X8630967Y-16215936D01*
X8630967Y-16215936D02*
X8621444Y-16196888D01*
X8621444Y-16196888D02*
X8611920Y-16158793D01*
X8611920Y-16158793D02*
X8611920Y-16111174D01*
X8611920Y-16111174D02*
X8621444Y-16073079D01*
X8621444Y-16073079D02*
X8630967Y-16054031D01*
X8630967Y-16054031D02*
X8640491Y-16044508D01*
X8640491Y-16044508D02*
X8659539Y-16034984D01*
X8811920Y-16234984D02*
X8811920Y-16101650D01*
X8811920Y-16120698D02*
X8821444Y-16111174D01*
X8821444Y-16111174D02*
X8840491Y-16101650D01*
X8840491Y-16101650D02*
X8869063Y-16101650D01*
X8869063Y-16101650D02*
X8888110Y-16111174D01*
X8888110Y-16111174D02*
X8897634Y-16130222D01*
X8897634Y-16130222D02*
X8897634Y-16234984D01*
X8897634Y-16130222D02*
X8907158Y-16111174D01*
X8907158Y-16111174D02*
X8926205Y-16101650D01*
X8926205Y-16101650D02*
X8954777Y-16101650D01*
X8954777Y-16101650D02*
X8973825Y-16111174D01*
X8973825Y-16111174D02*
X8983348Y-16130222D01*
X8983348Y-16130222D02*
X8983348Y-16234984D01*
X9078586Y-16234984D02*
X9078586Y-16101650D01*
X9078586Y-16120698D02*
X9088110Y-16111174D01*
X9088110Y-16111174D02*
X9107158Y-16101650D01*
X9107158Y-16101650D02*
X9135729Y-16101650D01*
X9135729Y-16101650D02*
X9154777Y-16111174D01*
X9154777Y-16111174D02*
X9164301Y-16130222D01*
X9164301Y-16130222D02*
X9164301Y-16234984D01*
X9164301Y-16130222D02*
X9173825Y-16111174D01*
X9173825Y-16111174D02*
X9192872Y-16101650D01*
X9192872Y-16101650D02*
X9221444Y-16101650D01*
X9221444Y-16101650D02*
X9240491Y-16111174D01*
X9240491Y-16111174D02*
X9250015Y-16130222D01*
X9250015Y-16130222D02*
X9250015Y-16234984D01*
X9640491Y-16025460D02*
X9469063Y-16282603D01*
X9897634Y-16034984D02*
X9916682Y-16034984D01*
X9916682Y-16034984D02*
X9935729Y-16044508D01*
X9935729Y-16044508D02*
X9945253Y-16054031D01*
X9945253Y-16054031D02*
X9954777Y-16073079D01*
X9954777Y-16073079D02*
X9964301Y-16111174D01*
X9964301Y-16111174D02*
X9964301Y-16158793D01*
X9964301Y-16158793D02*
X9954777Y-16196888D01*
X9954777Y-16196888D02*
X9945253Y-16215936D01*
X9945253Y-16215936D02*
X9935729Y-16225460D01*
X9935729Y-16225460D02*
X9916682Y-16234984D01*
X9916682Y-16234984D02*
X9897634Y-16234984D01*
X9897634Y-16234984D02*
X9878587Y-16225460D01*
X9878587Y-16225460D02*
X9869063Y-16215936D01*
X9869063Y-16215936D02*
X9859539Y-16196888D01*
X9859539Y-16196888D02*
X9850015Y-16158793D01*
X9850015Y-16158793D02*
X9850015Y-16111174D01*
X9850015Y-16111174D02*
X9859539Y-16073079D01*
X9859539Y-16073079D02*
X9869063Y-16054031D01*
X9869063Y-16054031D02*
X9878587Y-16044508D01*
X9878587Y-16044508D02*
X9897634Y-16034984D01*
X10050015Y-16215936D02*
X10059539Y-16225460D01*
X10059539Y-16225460D02*
X10050015Y-16234984D01*
X10050015Y-16234984D02*
X10040491Y-16225460D01*
X10040491Y-16225460D02*
X10050015Y-16215936D01*
X10050015Y-16215936D02*
X10050015Y-16234984D01*
X10183348Y-16034984D02*
X10202396Y-16034984D01*
X10202396Y-16034984D02*
X10221444Y-16044508D01*
X10221444Y-16044508D02*
X10230968Y-16054031D01*
X10230968Y-16054031D02*
X10240491Y-16073079D01*
X10240491Y-16073079D02*
X10250015Y-16111174D01*
X10250015Y-16111174D02*
X10250015Y-16158793D01*
X10250015Y-16158793D02*
X10240491Y-16196888D01*
X10240491Y-16196888D02*
X10230968Y-16215936D01*
X10230968Y-16215936D02*
X10221444Y-16225460D01*
X10221444Y-16225460D02*
X10202396Y-16234984D01*
X10202396Y-16234984D02*
X10183348Y-16234984D01*
X10183348Y-16234984D02*
X10164301Y-16225460D01*
X10164301Y-16225460D02*
X10154777Y-16215936D01*
X10154777Y-16215936D02*
X10145253Y-16196888D01*
X10145253Y-16196888D02*
X10135729Y-16158793D01*
X10135729Y-16158793D02*
X10135729Y-16111174D01*
X10135729Y-16111174D02*
X10145253Y-16073079D01*
X10145253Y-16073079D02*
X10154777Y-16054031D01*
X10154777Y-16054031D02*
X10164301Y-16044508D01*
X10164301Y-16044508D02*
X10183348Y-16034984D01*
X10316682Y-16034984D02*
X10440491Y-16034984D01*
X10440491Y-16034984D02*
X10373825Y-16111174D01*
X10373825Y-16111174D02*
X10402396Y-16111174D01*
X10402396Y-16111174D02*
X10421444Y-16120698D01*
X10421444Y-16120698D02*
X10430968Y-16130222D01*
X10430968Y-16130222D02*
X10440491Y-16149269D01*
X10440491Y-16149269D02*
X10440491Y-16196888D01*
X10440491Y-16196888D02*
X10430968Y-16215936D01*
X10430968Y-16215936D02*
X10421444Y-16225460D01*
X10421444Y-16225460D02*
X10402396Y-16234984D01*
X10402396Y-16234984D02*
X10345253Y-16234984D01*
X10345253Y-16234984D02*
X10326206Y-16225460D01*
X10326206Y-16225460D02*
X10316682Y-16215936D01*
X10630968Y-16234984D02*
X10516682Y-16234984D01*
X10573825Y-16234984D02*
X10573825Y-16034984D01*
X10573825Y-16034984D02*
X10554777Y-16063555D01*
X10554777Y-16063555D02*
X10535729Y-16082603D01*
X10535729Y-16082603D02*
X10516682Y-16092127D01*
X10811920Y-16034984D02*
X10716682Y-16034984D01*
X10716682Y-16034984D02*
X10707158Y-16130222D01*
X10707158Y-16130222D02*
X10716682Y-16120698D01*
X10716682Y-16120698D02*
X10735729Y-16111174D01*
X10735729Y-16111174D02*
X10783349Y-16111174D01*
X10783349Y-16111174D02*
X10802396Y-16120698D01*
X10802396Y-16120698D02*
X10811920Y-16130222D01*
X10811920Y-16130222D02*
X10821444Y-16149269D01*
X10821444Y-16149269D02*
X10821444Y-16196888D01*
X10821444Y-16196888D02*
X10811920Y-16215936D01*
X10811920Y-16215936D02*
X10802396Y-16225460D01*
X10802396Y-16225460D02*
X10783349Y-16234984D01*
X10783349Y-16234984D02*
X10735729Y-16234984D01*
X10735729Y-16234984D02*
X10716682Y-16225460D01*
X10716682Y-16225460D02*
X10707158Y-16215936D01*
X10897634Y-16034984D02*
X10897634Y-16073079D01*
X10973825Y-16034984D02*
X10973825Y-16073079D01*
X11269063Y-16311174D02*
X11259539Y-16301650D01*
X11259539Y-16301650D02*
X11240491Y-16273079D01*
X11240491Y-16273079D02*
X11230968Y-16254031D01*
X11230968Y-16254031D02*
X11221444Y-16225460D01*
X11221444Y-16225460D02*
X11211920Y-16177841D01*
X11211920Y-16177841D02*
X11211920Y-16139746D01*
X11211920Y-16139746D02*
X11221444Y-16092127D01*
X11221444Y-16092127D02*
X11230968Y-16063555D01*
X11230968Y-16063555D02*
X11240491Y-16044508D01*
X11240491Y-16044508D02*
X11259539Y-16015936D01*
X11259539Y-16015936D02*
X11269063Y-16006412D01*
X11326206Y-16034984D02*
X11450015Y-16034984D01*
X11450015Y-16034984D02*
X11383348Y-16111174D01*
X11383348Y-16111174D02*
X11411920Y-16111174D01*
X11411920Y-16111174D02*
X11430968Y-16120698D01*
X11430968Y-16120698D02*
X11440491Y-16130222D01*
X11440491Y-16130222D02*
X11450015Y-16149269D01*
X11450015Y-16149269D02*
X11450015Y-16196888D01*
X11450015Y-16196888D02*
X11440491Y-16215936D01*
X11440491Y-16215936D02*
X11430968Y-16225460D01*
X11430968Y-16225460D02*
X11411920Y-16234984D01*
X11411920Y-16234984D02*
X11354777Y-16234984D01*
X11354777Y-16234984D02*
X11335729Y-16225460D01*
X11335729Y-16225460D02*
X11326206Y-16215936D01*
X11516682Y-16034984D02*
X11640491Y-16034984D01*
X11640491Y-16034984D02*
X11573825Y-16111174D01*
X11573825Y-16111174D02*
X11602396Y-16111174D01*
X11602396Y-16111174D02*
X11621444Y-16120698D01*
X11621444Y-16120698D02*
X11630968Y-16130222D01*
X11630968Y-16130222D02*
X11640491Y-16149269D01*
X11640491Y-16149269D02*
X11640491Y-16196888D01*
X11640491Y-16196888D02*
X11630968Y-16215936D01*
X11630968Y-16215936D02*
X11621444Y-16225460D01*
X11621444Y-16225460D02*
X11602396Y-16234984D01*
X11602396Y-16234984D02*
X11545253Y-16234984D01*
X11545253Y-16234984D02*
X11526206Y-16225460D01*
X11526206Y-16225460D02*
X11516682Y-16215936D01*
X11764301Y-16034984D02*
X11783349Y-16034984D01*
X11783349Y-16034984D02*
X11802396Y-16044508D01*
X11802396Y-16044508D02*
X11811920Y-16054031D01*
X11811920Y-16054031D02*
X11821444Y-16073079D01*
X11821444Y-16073079D02*
X11830968Y-16111174D01*
X11830968Y-16111174D02*
X11830968Y-16158793D01*
X11830968Y-16158793D02*
X11821444Y-16196888D01*
X11821444Y-16196888D02*
X11811920Y-16215936D01*
X11811920Y-16215936D02*
X11802396Y-16225460D01*
X11802396Y-16225460D02*
X11783349Y-16234984D01*
X11783349Y-16234984D02*
X11764301Y-16234984D01*
X11764301Y-16234984D02*
X11745253Y-16225460D01*
X11745253Y-16225460D02*
X11735729Y-16215936D01*
X11735729Y-16215936D02*
X11726206Y-16196888D01*
X11726206Y-16196888D02*
X11716682Y-16158793D01*
X11716682Y-16158793D02*
X11716682Y-16111174D01*
X11716682Y-16111174D02*
X11726206Y-16073079D01*
X11726206Y-16073079D02*
X11735729Y-16054031D01*
X11735729Y-16054031D02*
X11745253Y-16044508D01*
X11745253Y-16044508D02*
X11764301Y-16034984D01*
X12069063Y-16234984D02*
X12069063Y-16034984D01*
X12154777Y-16234984D02*
X12154777Y-16130222D01*
X12154777Y-16130222D02*
X12145253Y-16111174D01*
X12145253Y-16111174D02*
X12126206Y-16101650D01*
X12126206Y-16101650D02*
X12097634Y-16101650D01*
X12097634Y-16101650D02*
X12078587Y-16111174D01*
X12078587Y-16111174D02*
X12069063Y-16120698D01*
X12278587Y-16234984D02*
X12259539Y-16225460D01*
X12259539Y-16225460D02*
X12250015Y-16215936D01*
X12250015Y-16215936D02*
X12240491Y-16196888D01*
X12240491Y-16196888D02*
X12240491Y-16139746D01*
X12240491Y-16139746D02*
X12250015Y-16120698D01*
X12250015Y-16120698D02*
X12259539Y-16111174D01*
X12259539Y-16111174D02*
X12278587Y-16101650D01*
X12278587Y-16101650D02*
X12307158Y-16101650D01*
X12307158Y-16101650D02*
X12326206Y-16111174D01*
X12326206Y-16111174D02*
X12335730Y-16120698D01*
X12335730Y-16120698D02*
X12345253Y-16139746D01*
X12345253Y-16139746D02*
X12345253Y-16196888D01*
X12345253Y-16196888D02*
X12335730Y-16215936D01*
X12335730Y-16215936D02*
X12326206Y-16225460D01*
X12326206Y-16225460D02*
X12307158Y-16234984D01*
X12307158Y-16234984D02*
X12278587Y-16234984D01*
X12459539Y-16234984D02*
X12440491Y-16225460D01*
X12440491Y-16225460D02*
X12430968Y-16206412D01*
X12430968Y-16206412D02*
X12430968Y-16034984D01*
X12611920Y-16225460D02*
X12592872Y-16234984D01*
X12592872Y-16234984D02*
X12554777Y-16234984D01*
X12554777Y-16234984D02*
X12535730Y-16225460D01*
X12535730Y-16225460D02*
X12526206Y-16206412D01*
X12526206Y-16206412D02*
X12526206Y-16130222D01*
X12526206Y-16130222D02*
X12535730Y-16111174D01*
X12535730Y-16111174D02*
X12554777Y-16101650D01*
X12554777Y-16101650D02*
X12592872Y-16101650D01*
X12592872Y-16101650D02*
X12611920Y-16111174D01*
X12611920Y-16111174D02*
X12621444Y-16130222D01*
X12621444Y-16130222D02*
X12621444Y-16149269D01*
X12621444Y-16149269D02*
X12526206Y-16168317D01*
X12697634Y-16225460D02*
X12716682Y-16234984D01*
X12716682Y-16234984D02*
X12754777Y-16234984D01*
X12754777Y-16234984D02*
X12773825Y-16225460D01*
X12773825Y-16225460D02*
X12783349Y-16206412D01*
X12783349Y-16206412D02*
X12783349Y-16196888D01*
X12783349Y-16196888D02*
X12773825Y-16177841D01*
X12773825Y-16177841D02*
X12754777Y-16168317D01*
X12754777Y-16168317D02*
X12726206Y-16168317D01*
X12726206Y-16168317D02*
X12707158Y-16158793D01*
X12707158Y-16158793D02*
X12697634Y-16139746D01*
X12697634Y-16139746D02*
X12697634Y-16130222D01*
X12697634Y-16130222D02*
X12707158Y-16111174D01*
X12707158Y-16111174D02*
X12726206Y-16101650D01*
X12726206Y-16101650D02*
X12754777Y-16101650D01*
X12754777Y-16101650D02*
X12773825Y-16111174D01*
X12850015Y-16311174D02*
X12859539Y-16301650D01*
X12859539Y-16301650D02*
X12878587Y-16273079D01*
X12878587Y-16273079D02*
X12888111Y-16254031D01*
X12888111Y-16254031D02*
X12897634Y-16225460D01*
X12897634Y-16225460D02*
X12907158Y-16177841D01*
X12907158Y-16177841D02*
X12907158Y-16139746D01*
X12907158Y-16139746D02*
X12897634Y-16092127D01*
X12897634Y-16092127D02*
X12888111Y-16063555D01*
X12888111Y-16063555D02*
X12878587Y-16044508D01*
X12878587Y-16044508D02*
X12859539Y-16015936D01*
X12859539Y-16015936D02*
X12850015Y-16006412D01*
D14*
X7680820Y-16439320D02*
X7680820Y-16375680D01*
X7617180Y-16375680D01*
X7617180Y-16439320D01*
X7680820Y-16439320D01*
D10*
X7992872Y-16298984D02*
X8011920Y-16298984D01*
X8011920Y-16298984D02*
X8030967Y-16308508D01*
X8030967Y-16308508D02*
X8040491Y-16318031D01*
X8040491Y-16318031D02*
X8050015Y-16337079D01*
X8050015Y-16337079D02*
X8059539Y-16375174D01*
X8059539Y-16375174D02*
X8059539Y-16422793D01*
X8059539Y-16422793D02*
X8050015Y-16460888D01*
X8050015Y-16460888D02*
X8040491Y-16479936D01*
X8040491Y-16479936D02*
X8030967Y-16489460D01*
X8030967Y-16489460D02*
X8011920Y-16498984D01*
X8011920Y-16498984D02*
X7992872Y-16498984D01*
X7992872Y-16498984D02*
X7973824Y-16489460D01*
X7973824Y-16489460D02*
X7964301Y-16479936D01*
X7964301Y-16479936D02*
X7954777Y-16460888D01*
X7954777Y-16460888D02*
X7945253Y-16422793D01*
X7945253Y-16422793D02*
X7945253Y-16375174D01*
X7945253Y-16375174D02*
X7954777Y-16337079D01*
X7954777Y-16337079D02*
X7964301Y-16318031D01*
X7964301Y-16318031D02*
X7973824Y-16308508D01*
X7973824Y-16308508D02*
X7992872Y-16298984D01*
X8145253Y-16479936D02*
X8154777Y-16489460D01*
X8154777Y-16489460D02*
X8145253Y-16498984D01*
X8145253Y-16498984D02*
X8135729Y-16489460D01*
X8135729Y-16489460D02*
X8145253Y-16479936D01*
X8145253Y-16479936D02*
X8145253Y-16498984D01*
X8250015Y-16498984D02*
X8288110Y-16498984D01*
X8288110Y-16498984D02*
X8307158Y-16489460D01*
X8307158Y-16489460D02*
X8316682Y-16479936D01*
X8316682Y-16479936D02*
X8335729Y-16451365D01*
X8335729Y-16451365D02*
X8345253Y-16413269D01*
X8345253Y-16413269D02*
X8345253Y-16337079D01*
X8345253Y-16337079D02*
X8335729Y-16318031D01*
X8335729Y-16318031D02*
X8326205Y-16308508D01*
X8326205Y-16308508D02*
X8307158Y-16298984D01*
X8307158Y-16298984D02*
X8269062Y-16298984D01*
X8269062Y-16298984D02*
X8250015Y-16308508D01*
X8250015Y-16308508D02*
X8240491Y-16318031D01*
X8240491Y-16318031D02*
X8230967Y-16337079D01*
X8230967Y-16337079D02*
X8230967Y-16384698D01*
X8230967Y-16384698D02*
X8240491Y-16403746D01*
X8240491Y-16403746D02*
X8250015Y-16413269D01*
X8250015Y-16413269D02*
X8269062Y-16422793D01*
X8269062Y-16422793D02*
X8307158Y-16422793D01*
X8307158Y-16422793D02*
X8326205Y-16413269D01*
X8326205Y-16413269D02*
X8335729Y-16403746D01*
X8335729Y-16403746D02*
X8345253Y-16384698D01*
X8469063Y-16298984D02*
X8488110Y-16298984D01*
X8488110Y-16298984D02*
X8507158Y-16308508D01*
X8507158Y-16308508D02*
X8516682Y-16318031D01*
X8516682Y-16318031D02*
X8526205Y-16337079D01*
X8526205Y-16337079D02*
X8535729Y-16375174D01*
X8535729Y-16375174D02*
X8535729Y-16422793D01*
X8535729Y-16422793D02*
X8526205Y-16460888D01*
X8526205Y-16460888D02*
X8516682Y-16479936D01*
X8516682Y-16479936D02*
X8507158Y-16489460D01*
X8507158Y-16489460D02*
X8488110Y-16498984D01*
X8488110Y-16498984D02*
X8469063Y-16498984D01*
X8469063Y-16498984D02*
X8450015Y-16489460D01*
X8450015Y-16489460D02*
X8440491Y-16479936D01*
X8440491Y-16479936D02*
X8430967Y-16460888D01*
X8430967Y-16460888D02*
X8421444Y-16422793D01*
X8421444Y-16422793D02*
X8421444Y-16375174D01*
X8421444Y-16375174D02*
X8430967Y-16337079D01*
X8430967Y-16337079D02*
X8440491Y-16318031D01*
X8440491Y-16318031D02*
X8450015Y-16308508D01*
X8450015Y-16308508D02*
X8469063Y-16298984D01*
X8659539Y-16298984D02*
X8678586Y-16298984D01*
X8678586Y-16298984D02*
X8697634Y-16308508D01*
X8697634Y-16308508D02*
X8707158Y-16318031D01*
X8707158Y-16318031D02*
X8716682Y-16337079D01*
X8716682Y-16337079D02*
X8726205Y-16375174D01*
X8726205Y-16375174D02*
X8726205Y-16422793D01*
X8726205Y-16422793D02*
X8716682Y-16460888D01*
X8716682Y-16460888D02*
X8707158Y-16479936D01*
X8707158Y-16479936D02*
X8697634Y-16489460D01*
X8697634Y-16489460D02*
X8678586Y-16498984D01*
X8678586Y-16498984D02*
X8659539Y-16498984D01*
X8659539Y-16498984D02*
X8640491Y-16489460D01*
X8640491Y-16489460D02*
X8630967Y-16479936D01*
X8630967Y-16479936D02*
X8621444Y-16460888D01*
X8621444Y-16460888D02*
X8611920Y-16422793D01*
X8611920Y-16422793D02*
X8611920Y-16375174D01*
X8611920Y-16375174D02*
X8621444Y-16337079D01*
X8621444Y-16337079D02*
X8630967Y-16318031D01*
X8630967Y-16318031D02*
X8640491Y-16308508D01*
X8640491Y-16308508D02*
X8659539Y-16298984D01*
X8811920Y-16498984D02*
X8811920Y-16365650D01*
X8811920Y-16384698D02*
X8821444Y-16375174D01*
X8821444Y-16375174D02*
X8840491Y-16365650D01*
X8840491Y-16365650D02*
X8869063Y-16365650D01*
X8869063Y-16365650D02*
X8888110Y-16375174D01*
X8888110Y-16375174D02*
X8897634Y-16394222D01*
X8897634Y-16394222D02*
X8897634Y-16498984D01*
X8897634Y-16394222D02*
X8907158Y-16375174D01*
X8907158Y-16375174D02*
X8926205Y-16365650D01*
X8926205Y-16365650D02*
X8954777Y-16365650D01*
X8954777Y-16365650D02*
X8973825Y-16375174D01*
X8973825Y-16375174D02*
X8983348Y-16394222D01*
X8983348Y-16394222D02*
X8983348Y-16498984D01*
X9078586Y-16498984D02*
X9078586Y-16365650D01*
X9078586Y-16384698D02*
X9088110Y-16375174D01*
X9088110Y-16375174D02*
X9107158Y-16365650D01*
X9107158Y-16365650D02*
X9135729Y-16365650D01*
X9135729Y-16365650D02*
X9154777Y-16375174D01*
X9154777Y-16375174D02*
X9164301Y-16394222D01*
X9164301Y-16394222D02*
X9164301Y-16498984D01*
X9164301Y-16394222D02*
X9173825Y-16375174D01*
X9173825Y-16375174D02*
X9192872Y-16365650D01*
X9192872Y-16365650D02*
X9221444Y-16365650D01*
X9221444Y-16365650D02*
X9240491Y-16375174D01*
X9240491Y-16375174D02*
X9250015Y-16394222D01*
X9250015Y-16394222D02*
X9250015Y-16498984D01*
X9640491Y-16289460D02*
X9469063Y-16546603D01*
X9897634Y-16298984D02*
X9916682Y-16298984D01*
X9916682Y-16298984D02*
X9935729Y-16308508D01*
X9935729Y-16308508D02*
X9945253Y-16318031D01*
X9945253Y-16318031D02*
X9954777Y-16337079D01*
X9954777Y-16337079D02*
X9964301Y-16375174D01*
X9964301Y-16375174D02*
X9964301Y-16422793D01*
X9964301Y-16422793D02*
X9954777Y-16460888D01*
X9954777Y-16460888D02*
X9945253Y-16479936D01*
X9945253Y-16479936D02*
X9935729Y-16489460D01*
X9935729Y-16489460D02*
X9916682Y-16498984D01*
X9916682Y-16498984D02*
X9897634Y-16498984D01*
X9897634Y-16498984D02*
X9878587Y-16489460D01*
X9878587Y-16489460D02*
X9869063Y-16479936D01*
X9869063Y-16479936D02*
X9859539Y-16460888D01*
X9859539Y-16460888D02*
X9850015Y-16422793D01*
X9850015Y-16422793D02*
X9850015Y-16375174D01*
X9850015Y-16375174D02*
X9859539Y-16337079D01*
X9859539Y-16337079D02*
X9869063Y-16318031D01*
X9869063Y-16318031D02*
X9878587Y-16308508D01*
X9878587Y-16308508D02*
X9897634Y-16298984D01*
X10050015Y-16479936D02*
X10059539Y-16489460D01*
X10059539Y-16489460D02*
X10050015Y-16498984D01*
X10050015Y-16498984D02*
X10040491Y-16489460D01*
X10040491Y-16489460D02*
X10050015Y-16479936D01*
X10050015Y-16479936D02*
X10050015Y-16498984D01*
X10183348Y-16298984D02*
X10202396Y-16298984D01*
X10202396Y-16298984D02*
X10221444Y-16308508D01*
X10221444Y-16308508D02*
X10230968Y-16318031D01*
X10230968Y-16318031D02*
X10240491Y-16337079D01*
X10240491Y-16337079D02*
X10250015Y-16375174D01*
X10250015Y-16375174D02*
X10250015Y-16422793D01*
X10250015Y-16422793D02*
X10240491Y-16460888D01*
X10240491Y-16460888D02*
X10230968Y-16479936D01*
X10230968Y-16479936D02*
X10221444Y-16489460D01*
X10221444Y-16489460D02*
X10202396Y-16498984D01*
X10202396Y-16498984D02*
X10183348Y-16498984D01*
X10183348Y-16498984D02*
X10164301Y-16489460D01*
X10164301Y-16489460D02*
X10154777Y-16479936D01*
X10154777Y-16479936D02*
X10145253Y-16460888D01*
X10145253Y-16460888D02*
X10135729Y-16422793D01*
X10135729Y-16422793D02*
X10135729Y-16375174D01*
X10135729Y-16375174D02*
X10145253Y-16337079D01*
X10145253Y-16337079D02*
X10154777Y-16318031D01*
X10154777Y-16318031D02*
X10164301Y-16308508D01*
X10164301Y-16308508D02*
X10183348Y-16298984D01*
X10316682Y-16298984D02*
X10440491Y-16298984D01*
X10440491Y-16298984D02*
X10373825Y-16375174D01*
X10373825Y-16375174D02*
X10402396Y-16375174D01*
X10402396Y-16375174D02*
X10421444Y-16384698D01*
X10421444Y-16384698D02*
X10430968Y-16394222D01*
X10430968Y-16394222D02*
X10440491Y-16413269D01*
X10440491Y-16413269D02*
X10440491Y-16460888D01*
X10440491Y-16460888D02*
X10430968Y-16479936D01*
X10430968Y-16479936D02*
X10421444Y-16489460D01*
X10421444Y-16489460D02*
X10402396Y-16498984D01*
X10402396Y-16498984D02*
X10345253Y-16498984D01*
X10345253Y-16498984D02*
X10326206Y-16489460D01*
X10326206Y-16489460D02*
X10316682Y-16479936D01*
X10621444Y-16298984D02*
X10526206Y-16298984D01*
X10526206Y-16298984D02*
X10516682Y-16394222D01*
X10516682Y-16394222D02*
X10526206Y-16384698D01*
X10526206Y-16384698D02*
X10545253Y-16375174D01*
X10545253Y-16375174D02*
X10592872Y-16375174D01*
X10592872Y-16375174D02*
X10611920Y-16384698D01*
X10611920Y-16384698D02*
X10621444Y-16394222D01*
X10621444Y-16394222D02*
X10630968Y-16413269D01*
X10630968Y-16413269D02*
X10630968Y-16460888D01*
X10630968Y-16460888D02*
X10621444Y-16479936D01*
X10621444Y-16479936D02*
X10611920Y-16489460D01*
X10611920Y-16489460D02*
X10592872Y-16498984D01*
X10592872Y-16498984D02*
X10545253Y-16498984D01*
X10545253Y-16498984D02*
X10526206Y-16489460D01*
X10526206Y-16489460D02*
X10516682Y-16479936D01*
X10802396Y-16365650D02*
X10802396Y-16498984D01*
X10754777Y-16289460D02*
X10707158Y-16432317D01*
X10707158Y-16432317D02*
X10830968Y-16432317D01*
X10897634Y-16298984D02*
X10897634Y-16337079D01*
X10973825Y-16298984D02*
X10973825Y-16337079D01*
X11269063Y-16575174D02*
X11259539Y-16565650D01*
X11259539Y-16565650D02*
X11240491Y-16537079D01*
X11240491Y-16537079D02*
X11230968Y-16518031D01*
X11230968Y-16518031D02*
X11221444Y-16489460D01*
X11221444Y-16489460D02*
X11211920Y-16441841D01*
X11211920Y-16441841D02*
X11211920Y-16403746D01*
X11211920Y-16403746D02*
X11221444Y-16356127D01*
X11221444Y-16356127D02*
X11230968Y-16327555D01*
X11230968Y-16327555D02*
X11240491Y-16308508D01*
X11240491Y-16308508D02*
X11259539Y-16279936D01*
X11259539Y-16279936D02*
X11269063Y-16270412D01*
X11335729Y-16318031D02*
X11345253Y-16308508D01*
X11345253Y-16308508D02*
X11364301Y-16298984D01*
X11364301Y-16298984D02*
X11411920Y-16298984D01*
X11411920Y-16298984D02*
X11430968Y-16308508D01*
X11430968Y-16308508D02*
X11440491Y-16318031D01*
X11440491Y-16318031D02*
X11450015Y-16337079D01*
X11450015Y-16337079D02*
X11450015Y-16356127D01*
X11450015Y-16356127D02*
X11440491Y-16384698D01*
X11440491Y-16384698D02*
X11326206Y-16498984D01*
X11326206Y-16498984D02*
X11450015Y-16498984D01*
X11573825Y-16298984D02*
X11592872Y-16298984D01*
X11592872Y-16298984D02*
X11611920Y-16308508D01*
X11611920Y-16308508D02*
X11621444Y-16318031D01*
X11621444Y-16318031D02*
X11630968Y-16337079D01*
X11630968Y-16337079D02*
X11640491Y-16375174D01*
X11640491Y-16375174D02*
X11640491Y-16422793D01*
X11640491Y-16422793D02*
X11630968Y-16460888D01*
X11630968Y-16460888D02*
X11621444Y-16479936D01*
X11621444Y-16479936D02*
X11611920Y-16489460D01*
X11611920Y-16489460D02*
X11592872Y-16498984D01*
X11592872Y-16498984D02*
X11573825Y-16498984D01*
X11573825Y-16498984D02*
X11554777Y-16489460D01*
X11554777Y-16489460D02*
X11545253Y-16479936D01*
X11545253Y-16479936D02*
X11535729Y-16460888D01*
X11535729Y-16460888D02*
X11526206Y-16422793D01*
X11526206Y-16422793D02*
X11526206Y-16375174D01*
X11526206Y-16375174D02*
X11535729Y-16337079D01*
X11535729Y-16337079D02*
X11545253Y-16318031D01*
X11545253Y-16318031D02*
X11554777Y-16308508D01*
X11554777Y-16308508D02*
X11573825Y-16298984D01*
X11878587Y-16498984D02*
X11878587Y-16298984D01*
X11964301Y-16498984D02*
X11964301Y-16394222D01*
X11964301Y-16394222D02*
X11954777Y-16375174D01*
X11954777Y-16375174D02*
X11935730Y-16365650D01*
X11935730Y-16365650D02*
X11907158Y-16365650D01*
X11907158Y-16365650D02*
X11888110Y-16375174D01*
X11888110Y-16375174D02*
X11878587Y-16384698D01*
X12088110Y-16498984D02*
X12069063Y-16489460D01*
X12069063Y-16489460D02*
X12059539Y-16479936D01*
X12059539Y-16479936D02*
X12050015Y-16460888D01*
X12050015Y-16460888D02*
X12050015Y-16403746D01*
X12050015Y-16403746D02*
X12059539Y-16384698D01*
X12059539Y-16384698D02*
X12069063Y-16375174D01*
X12069063Y-16375174D02*
X12088110Y-16365650D01*
X12088110Y-16365650D02*
X12116682Y-16365650D01*
X12116682Y-16365650D02*
X12135730Y-16375174D01*
X12135730Y-16375174D02*
X12145253Y-16384698D01*
X12145253Y-16384698D02*
X12154777Y-16403746D01*
X12154777Y-16403746D02*
X12154777Y-16460888D01*
X12154777Y-16460888D02*
X12145253Y-16479936D01*
X12145253Y-16479936D02*
X12135730Y-16489460D01*
X12135730Y-16489460D02*
X12116682Y-16498984D01*
X12116682Y-16498984D02*
X12088110Y-16498984D01*
X12269063Y-16498984D02*
X12250015Y-16489460D01*
X12250015Y-16489460D02*
X12240491Y-16470412D01*
X12240491Y-16470412D02*
X12240491Y-16298984D01*
X12421444Y-16489460D02*
X12402396Y-16498984D01*
X12402396Y-16498984D02*
X12364301Y-16498984D01*
X12364301Y-16498984D02*
X12345253Y-16489460D01*
X12345253Y-16489460D02*
X12335730Y-16470412D01*
X12335730Y-16470412D02*
X12335730Y-16394222D01*
X12335730Y-16394222D02*
X12345253Y-16375174D01*
X12345253Y-16375174D02*
X12364301Y-16365650D01*
X12364301Y-16365650D02*
X12402396Y-16365650D01*
X12402396Y-16365650D02*
X12421444Y-16375174D01*
X12421444Y-16375174D02*
X12430968Y-16394222D01*
X12430968Y-16394222D02*
X12430968Y-16413269D01*
X12430968Y-16413269D02*
X12335730Y-16432317D01*
X12507158Y-16489460D02*
X12526206Y-16498984D01*
X12526206Y-16498984D02*
X12564301Y-16498984D01*
X12564301Y-16498984D02*
X12583349Y-16489460D01*
X12583349Y-16489460D02*
X12592872Y-16470412D01*
X12592872Y-16470412D02*
X12592872Y-16460888D01*
X12592872Y-16460888D02*
X12583349Y-16441841D01*
X12583349Y-16441841D02*
X12564301Y-16432317D01*
X12564301Y-16432317D02*
X12535730Y-16432317D01*
X12535730Y-16432317D02*
X12516682Y-16422793D01*
X12516682Y-16422793D02*
X12507158Y-16403746D01*
X12507158Y-16403746D02*
X12507158Y-16394222D01*
X12507158Y-16394222D02*
X12516682Y-16375174D01*
X12516682Y-16375174D02*
X12535730Y-16365650D01*
X12535730Y-16365650D02*
X12564301Y-16365650D01*
X12564301Y-16365650D02*
X12583349Y-16375174D01*
X12659539Y-16575174D02*
X12669063Y-16565650D01*
X12669063Y-16565650D02*
X12688111Y-16537079D01*
X12688111Y-16537079D02*
X12697634Y-16518031D01*
X12697634Y-16518031D02*
X12707158Y-16489460D01*
X12707158Y-16489460D02*
X12716682Y-16441841D01*
X12716682Y-16441841D02*
X12716682Y-16403746D01*
X12716682Y-16403746D02*
X12707158Y-16356127D01*
X12707158Y-16356127D02*
X12697634Y-16327555D01*
X12697634Y-16327555D02*
X12688111Y-16308508D01*
X12688111Y-16308508D02*
X12669063Y-16279936D01*
X12669063Y-16279936D02*
X12659539Y-16270412D01*
D15*
X7648000Y-16717500D02*
X7694000Y-16671500D01*
X7648000Y-16625500D01*
X7602000Y-16671500D01*
X7648000Y-16717500D01*
D10*
X7992872Y-16562984D02*
X8011920Y-16562984D01*
X8011920Y-16562984D02*
X8030967Y-16572508D01*
X8030967Y-16572508D02*
X8040491Y-16582031D01*
X8040491Y-16582031D02*
X8050015Y-16601079D01*
X8050015Y-16601079D02*
X8059539Y-16639174D01*
X8059539Y-16639174D02*
X8059539Y-16686793D01*
X8059539Y-16686793D02*
X8050015Y-16724888D01*
X8050015Y-16724888D02*
X8040491Y-16743936D01*
X8040491Y-16743936D02*
X8030967Y-16753460D01*
X8030967Y-16753460D02*
X8011920Y-16762984D01*
X8011920Y-16762984D02*
X7992872Y-16762984D01*
X7992872Y-16762984D02*
X7973824Y-16753460D01*
X7973824Y-16753460D02*
X7964301Y-16743936D01*
X7964301Y-16743936D02*
X7954777Y-16724888D01*
X7954777Y-16724888D02*
X7945253Y-16686793D01*
X7945253Y-16686793D02*
X7945253Y-16639174D01*
X7945253Y-16639174D02*
X7954777Y-16601079D01*
X7954777Y-16601079D02*
X7964301Y-16582031D01*
X7964301Y-16582031D02*
X7973824Y-16572508D01*
X7973824Y-16572508D02*
X7992872Y-16562984D01*
X8145253Y-16743936D02*
X8154777Y-16753460D01*
X8154777Y-16753460D02*
X8145253Y-16762984D01*
X8145253Y-16762984D02*
X8135729Y-16753460D01*
X8135729Y-16753460D02*
X8145253Y-16743936D01*
X8145253Y-16743936D02*
X8145253Y-16762984D01*
X8250015Y-16762984D02*
X8288110Y-16762984D01*
X8288110Y-16762984D02*
X8307158Y-16753460D01*
X8307158Y-16753460D02*
X8316682Y-16743936D01*
X8316682Y-16743936D02*
X8335729Y-16715365D01*
X8335729Y-16715365D02*
X8345253Y-16677269D01*
X8345253Y-16677269D02*
X8345253Y-16601079D01*
X8345253Y-16601079D02*
X8335729Y-16582031D01*
X8335729Y-16582031D02*
X8326205Y-16572508D01*
X8326205Y-16572508D02*
X8307158Y-16562984D01*
X8307158Y-16562984D02*
X8269062Y-16562984D01*
X8269062Y-16562984D02*
X8250015Y-16572508D01*
X8250015Y-16572508D02*
X8240491Y-16582031D01*
X8240491Y-16582031D02*
X8230967Y-16601079D01*
X8230967Y-16601079D02*
X8230967Y-16648698D01*
X8230967Y-16648698D02*
X8240491Y-16667746D01*
X8240491Y-16667746D02*
X8250015Y-16677269D01*
X8250015Y-16677269D02*
X8269062Y-16686793D01*
X8269062Y-16686793D02*
X8307158Y-16686793D01*
X8307158Y-16686793D02*
X8326205Y-16677269D01*
X8326205Y-16677269D02*
X8335729Y-16667746D01*
X8335729Y-16667746D02*
X8345253Y-16648698D01*
X8421444Y-16582031D02*
X8430967Y-16572508D01*
X8430967Y-16572508D02*
X8450015Y-16562984D01*
X8450015Y-16562984D02*
X8497634Y-16562984D01*
X8497634Y-16562984D02*
X8516682Y-16572508D01*
X8516682Y-16572508D02*
X8526205Y-16582031D01*
X8526205Y-16582031D02*
X8535729Y-16601079D01*
X8535729Y-16601079D02*
X8535729Y-16620127D01*
X8535729Y-16620127D02*
X8526205Y-16648698D01*
X8526205Y-16648698D02*
X8411920Y-16762984D01*
X8411920Y-16762984D02*
X8535729Y-16762984D01*
X8659539Y-16562984D02*
X8678586Y-16562984D01*
X8678586Y-16562984D02*
X8697634Y-16572508D01*
X8697634Y-16572508D02*
X8707158Y-16582031D01*
X8707158Y-16582031D02*
X8716682Y-16601079D01*
X8716682Y-16601079D02*
X8726205Y-16639174D01*
X8726205Y-16639174D02*
X8726205Y-16686793D01*
X8726205Y-16686793D02*
X8716682Y-16724888D01*
X8716682Y-16724888D02*
X8707158Y-16743936D01*
X8707158Y-16743936D02*
X8697634Y-16753460D01*
X8697634Y-16753460D02*
X8678586Y-16762984D01*
X8678586Y-16762984D02*
X8659539Y-16762984D01*
X8659539Y-16762984D02*
X8640491Y-16753460D01*
X8640491Y-16753460D02*
X8630967Y-16743936D01*
X8630967Y-16743936D02*
X8621444Y-16724888D01*
X8621444Y-16724888D02*
X8611920Y-16686793D01*
X8611920Y-16686793D02*
X8611920Y-16639174D01*
X8611920Y-16639174D02*
X8621444Y-16601079D01*
X8621444Y-16601079D02*
X8630967Y-16582031D01*
X8630967Y-16582031D02*
X8640491Y-16572508D01*
X8640491Y-16572508D02*
X8659539Y-16562984D01*
X8811920Y-16762984D02*
X8811920Y-16629650D01*
X8811920Y-16648698D02*
X8821444Y-16639174D01*
X8821444Y-16639174D02*
X8840491Y-16629650D01*
X8840491Y-16629650D02*
X8869063Y-16629650D01*
X8869063Y-16629650D02*
X8888110Y-16639174D01*
X8888110Y-16639174D02*
X8897634Y-16658222D01*
X8897634Y-16658222D02*
X8897634Y-16762984D01*
X8897634Y-16658222D02*
X8907158Y-16639174D01*
X8907158Y-16639174D02*
X8926205Y-16629650D01*
X8926205Y-16629650D02*
X8954777Y-16629650D01*
X8954777Y-16629650D02*
X8973825Y-16639174D01*
X8973825Y-16639174D02*
X8983348Y-16658222D01*
X8983348Y-16658222D02*
X8983348Y-16762984D01*
X9078586Y-16762984D02*
X9078586Y-16629650D01*
X9078586Y-16648698D02*
X9088110Y-16639174D01*
X9088110Y-16639174D02*
X9107158Y-16629650D01*
X9107158Y-16629650D02*
X9135729Y-16629650D01*
X9135729Y-16629650D02*
X9154777Y-16639174D01*
X9154777Y-16639174D02*
X9164301Y-16658222D01*
X9164301Y-16658222D02*
X9164301Y-16762984D01*
X9164301Y-16658222D02*
X9173825Y-16639174D01*
X9173825Y-16639174D02*
X9192872Y-16629650D01*
X9192872Y-16629650D02*
X9221444Y-16629650D01*
X9221444Y-16629650D02*
X9240491Y-16639174D01*
X9240491Y-16639174D02*
X9250015Y-16658222D01*
X9250015Y-16658222D02*
X9250015Y-16762984D01*
X9640491Y-16553460D02*
X9469063Y-16810603D01*
X9897634Y-16562984D02*
X9916682Y-16562984D01*
X9916682Y-16562984D02*
X9935729Y-16572508D01*
X9935729Y-16572508D02*
X9945253Y-16582031D01*
X9945253Y-16582031D02*
X9954777Y-16601079D01*
X9954777Y-16601079D02*
X9964301Y-16639174D01*
X9964301Y-16639174D02*
X9964301Y-16686793D01*
X9964301Y-16686793D02*
X9954777Y-16724888D01*
X9954777Y-16724888D02*
X9945253Y-16743936D01*
X9945253Y-16743936D02*
X9935729Y-16753460D01*
X9935729Y-16753460D02*
X9916682Y-16762984D01*
X9916682Y-16762984D02*
X9897634Y-16762984D01*
X9897634Y-16762984D02*
X9878587Y-16753460D01*
X9878587Y-16753460D02*
X9869063Y-16743936D01*
X9869063Y-16743936D02*
X9859539Y-16724888D01*
X9859539Y-16724888D02*
X9850015Y-16686793D01*
X9850015Y-16686793D02*
X9850015Y-16639174D01*
X9850015Y-16639174D02*
X9859539Y-16601079D01*
X9859539Y-16601079D02*
X9869063Y-16582031D01*
X9869063Y-16582031D02*
X9878587Y-16572508D01*
X9878587Y-16572508D02*
X9897634Y-16562984D01*
X10050015Y-16743936D02*
X10059539Y-16753460D01*
X10059539Y-16753460D02*
X10050015Y-16762984D01*
X10050015Y-16762984D02*
X10040491Y-16753460D01*
X10040491Y-16753460D02*
X10050015Y-16743936D01*
X10050015Y-16743936D02*
X10050015Y-16762984D01*
X10183348Y-16562984D02*
X10202396Y-16562984D01*
X10202396Y-16562984D02*
X10221444Y-16572508D01*
X10221444Y-16572508D02*
X10230968Y-16582031D01*
X10230968Y-16582031D02*
X10240491Y-16601079D01*
X10240491Y-16601079D02*
X10250015Y-16639174D01*
X10250015Y-16639174D02*
X10250015Y-16686793D01*
X10250015Y-16686793D02*
X10240491Y-16724888D01*
X10240491Y-16724888D02*
X10230968Y-16743936D01*
X10230968Y-16743936D02*
X10221444Y-16753460D01*
X10221444Y-16753460D02*
X10202396Y-16762984D01*
X10202396Y-16762984D02*
X10183348Y-16762984D01*
X10183348Y-16762984D02*
X10164301Y-16753460D01*
X10164301Y-16753460D02*
X10154777Y-16743936D01*
X10154777Y-16743936D02*
X10145253Y-16724888D01*
X10145253Y-16724888D02*
X10135729Y-16686793D01*
X10135729Y-16686793D02*
X10135729Y-16639174D01*
X10135729Y-16639174D02*
X10145253Y-16601079D01*
X10145253Y-16601079D02*
X10154777Y-16582031D01*
X10154777Y-16582031D02*
X10164301Y-16572508D01*
X10164301Y-16572508D02*
X10183348Y-16562984D01*
X10316682Y-16562984D02*
X10440491Y-16562984D01*
X10440491Y-16562984D02*
X10373825Y-16639174D01*
X10373825Y-16639174D02*
X10402396Y-16639174D01*
X10402396Y-16639174D02*
X10421444Y-16648698D01*
X10421444Y-16648698D02*
X10430968Y-16658222D01*
X10430968Y-16658222D02*
X10440491Y-16677269D01*
X10440491Y-16677269D02*
X10440491Y-16724888D01*
X10440491Y-16724888D02*
X10430968Y-16743936D01*
X10430968Y-16743936D02*
X10421444Y-16753460D01*
X10421444Y-16753460D02*
X10402396Y-16762984D01*
X10402396Y-16762984D02*
X10345253Y-16762984D01*
X10345253Y-16762984D02*
X10326206Y-16753460D01*
X10326206Y-16753460D02*
X10316682Y-16743936D01*
X10611920Y-16562984D02*
X10573825Y-16562984D01*
X10573825Y-16562984D02*
X10554777Y-16572508D01*
X10554777Y-16572508D02*
X10545253Y-16582031D01*
X10545253Y-16582031D02*
X10526206Y-16610603D01*
X10526206Y-16610603D02*
X10516682Y-16648698D01*
X10516682Y-16648698D02*
X10516682Y-16724888D01*
X10516682Y-16724888D02*
X10526206Y-16743936D01*
X10526206Y-16743936D02*
X10535729Y-16753460D01*
X10535729Y-16753460D02*
X10554777Y-16762984D01*
X10554777Y-16762984D02*
X10592872Y-16762984D01*
X10592872Y-16762984D02*
X10611920Y-16753460D01*
X10611920Y-16753460D02*
X10621444Y-16743936D01*
X10621444Y-16743936D02*
X10630968Y-16724888D01*
X10630968Y-16724888D02*
X10630968Y-16677269D01*
X10630968Y-16677269D02*
X10621444Y-16658222D01*
X10621444Y-16658222D02*
X10611920Y-16648698D01*
X10611920Y-16648698D02*
X10592872Y-16639174D01*
X10592872Y-16639174D02*
X10554777Y-16639174D01*
X10554777Y-16639174D02*
X10535729Y-16648698D01*
X10535729Y-16648698D02*
X10526206Y-16658222D01*
X10526206Y-16658222D02*
X10516682Y-16677269D01*
X10707158Y-16582031D02*
X10716682Y-16572508D01*
X10716682Y-16572508D02*
X10735729Y-16562984D01*
X10735729Y-16562984D02*
X10783349Y-16562984D01*
X10783349Y-16562984D02*
X10802396Y-16572508D01*
X10802396Y-16572508D02*
X10811920Y-16582031D01*
X10811920Y-16582031D02*
X10821444Y-16601079D01*
X10821444Y-16601079D02*
X10821444Y-16620127D01*
X10821444Y-16620127D02*
X10811920Y-16648698D01*
X10811920Y-16648698D02*
X10697634Y-16762984D01*
X10697634Y-16762984D02*
X10821444Y-16762984D01*
X10897634Y-16562984D02*
X10897634Y-16601079D01*
X10973825Y-16562984D02*
X10973825Y-16601079D01*
X11269063Y-16839174D02*
X11259539Y-16829650D01*
X11259539Y-16829650D02*
X11240491Y-16801079D01*
X11240491Y-16801079D02*
X11230968Y-16782031D01*
X11230968Y-16782031D02*
X11221444Y-16753460D01*
X11221444Y-16753460D02*
X11211920Y-16705841D01*
X11211920Y-16705841D02*
X11211920Y-16667746D01*
X11211920Y-16667746D02*
X11221444Y-16620127D01*
X11221444Y-16620127D02*
X11230968Y-16591555D01*
X11230968Y-16591555D02*
X11240491Y-16572508D01*
X11240491Y-16572508D02*
X11259539Y-16543936D01*
X11259539Y-16543936D02*
X11269063Y-16534412D01*
X11430968Y-16629650D02*
X11430968Y-16762984D01*
X11383348Y-16553460D02*
X11335729Y-16696317D01*
X11335729Y-16696317D02*
X11459539Y-16696317D01*
X11688110Y-16762984D02*
X11688110Y-16562984D01*
X11773825Y-16762984D02*
X11773825Y-16658222D01*
X11773825Y-16658222D02*
X11764301Y-16639174D01*
X11764301Y-16639174D02*
X11745253Y-16629650D01*
X11745253Y-16629650D02*
X11716682Y-16629650D01*
X11716682Y-16629650D02*
X11697634Y-16639174D01*
X11697634Y-16639174D02*
X11688110Y-16648698D01*
X11897634Y-16762984D02*
X11878587Y-16753460D01*
X11878587Y-16753460D02*
X11869063Y-16743936D01*
X11869063Y-16743936D02*
X11859539Y-16724888D01*
X11859539Y-16724888D02*
X11859539Y-16667746D01*
X11859539Y-16667746D02*
X11869063Y-16648698D01*
X11869063Y-16648698D02*
X11878587Y-16639174D01*
X11878587Y-16639174D02*
X11897634Y-16629650D01*
X11897634Y-16629650D02*
X11926206Y-16629650D01*
X11926206Y-16629650D02*
X11945253Y-16639174D01*
X11945253Y-16639174D02*
X11954777Y-16648698D01*
X11954777Y-16648698D02*
X11964301Y-16667746D01*
X11964301Y-16667746D02*
X11964301Y-16724888D01*
X11964301Y-16724888D02*
X11954777Y-16743936D01*
X11954777Y-16743936D02*
X11945253Y-16753460D01*
X11945253Y-16753460D02*
X11926206Y-16762984D01*
X11926206Y-16762984D02*
X11897634Y-16762984D01*
X12078587Y-16762984D02*
X12059539Y-16753460D01*
X12059539Y-16753460D02*
X12050015Y-16734412D01*
X12050015Y-16734412D02*
X12050015Y-16562984D01*
X12230968Y-16753460D02*
X12211920Y-16762984D01*
X12211920Y-16762984D02*
X12173825Y-16762984D01*
X12173825Y-16762984D02*
X12154777Y-16753460D01*
X12154777Y-16753460D02*
X12145253Y-16734412D01*
X12145253Y-16734412D02*
X12145253Y-16658222D01*
X12145253Y-16658222D02*
X12154777Y-16639174D01*
X12154777Y-16639174D02*
X12173825Y-16629650D01*
X12173825Y-16629650D02*
X12211920Y-16629650D01*
X12211920Y-16629650D02*
X12230968Y-16639174D01*
X12230968Y-16639174D02*
X12240491Y-16658222D01*
X12240491Y-16658222D02*
X12240491Y-16677269D01*
X12240491Y-16677269D02*
X12145253Y-16696317D01*
X12316682Y-16753460D02*
X12335730Y-16762984D01*
X12335730Y-16762984D02*
X12373825Y-16762984D01*
X12373825Y-16762984D02*
X12392872Y-16753460D01*
X12392872Y-16753460D02*
X12402396Y-16734412D01*
X12402396Y-16734412D02*
X12402396Y-16724888D01*
X12402396Y-16724888D02*
X12392872Y-16705841D01*
X12392872Y-16705841D02*
X12373825Y-16696317D01*
X12373825Y-16696317D02*
X12345253Y-16696317D01*
X12345253Y-16696317D02*
X12326206Y-16686793D01*
X12326206Y-16686793D02*
X12316682Y-16667746D01*
X12316682Y-16667746D02*
X12316682Y-16658222D01*
X12316682Y-16658222D02*
X12326206Y-16639174D01*
X12326206Y-16639174D02*
X12345253Y-16629650D01*
X12345253Y-16629650D02*
X12373825Y-16629650D01*
X12373825Y-16629650D02*
X12392872Y-16639174D01*
X12469063Y-16839174D02*
X12478587Y-16829650D01*
X12478587Y-16829650D02*
X12497634Y-16801079D01*
X12497634Y-16801079D02*
X12507158Y-16782031D01*
X12507158Y-16782031D02*
X12516682Y-16753460D01*
X12516682Y-16753460D02*
X12526206Y-16705841D01*
X12526206Y-16705841D02*
X12526206Y-16667746D01*
X12526206Y-16667746D02*
X12516682Y-16620127D01*
X12516682Y-16620127D02*
X12507158Y-16591555D01*
X12507158Y-16591555D02*
X12497634Y-16572508D01*
X12497634Y-16572508D02*
X12478587Y-16543936D01*
X12478587Y-16543936D02*
X12469063Y-16534412D01*
D16*
X7599000Y-16888000D02*
X7694000Y-16983000D01*
X7694000Y-16888000D02*
X7599000Y-16983000D01*
X7694000Y-16935500D02*
G75*
G03*
X7694000Y-16935500I-47500J0D01*
G01*
D10*
X7992872Y-16826984D02*
X8011920Y-16826984D01*
X8011920Y-16826984D02*
X8030967Y-16836508D01*
X8030967Y-16836508D02*
X8040491Y-16846031D01*
X8040491Y-16846031D02*
X8050015Y-16865079D01*
X8050015Y-16865079D02*
X8059539Y-16903174D01*
X8059539Y-16903174D02*
X8059539Y-16950793D01*
X8059539Y-16950793D02*
X8050015Y-16988889D01*
X8050015Y-16988889D02*
X8040491Y-17007936D01*
X8040491Y-17007936D02*
X8030967Y-17017460D01*
X8030967Y-17017460D02*
X8011920Y-17026984D01*
X8011920Y-17026984D02*
X7992872Y-17026984D01*
X7992872Y-17026984D02*
X7973824Y-17017460D01*
X7973824Y-17017460D02*
X7964301Y-17007936D01*
X7964301Y-17007936D02*
X7954777Y-16988889D01*
X7954777Y-16988889D02*
X7945253Y-16950793D01*
X7945253Y-16950793D02*
X7945253Y-16903174D01*
X7945253Y-16903174D02*
X7954777Y-16865079D01*
X7954777Y-16865079D02*
X7964301Y-16846031D01*
X7964301Y-16846031D02*
X7973824Y-16836508D01*
X7973824Y-16836508D02*
X7992872Y-16826984D01*
X8145253Y-17007936D02*
X8154777Y-17017460D01*
X8154777Y-17017460D02*
X8145253Y-17026984D01*
X8145253Y-17026984D02*
X8135729Y-17017460D01*
X8135729Y-17017460D02*
X8145253Y-17007936D01*
X8145253Y-17007936D02*
X8145253Y-17026984D01*
X8250015Y-17026984D02*
X8288110Y-17026984D01*
X8288110Y-17026984D02*
X8307158Y-17017460D01*
X8307158Y-17017460D02*
X8316682Y-17007936D01*
X8316682Y-17007936D02*
X8335729Y-16979365D01*
X8335729Y-16979365D02*
X8345253Y-16941270D01*
X8345253Y-16941270D02*
X8345253Y-16865079D01*
X8345253Y-16865079D02*
X8335729Y-16846031D01*
X8335729Y-16846031D02*
X8326205Y-16836508D01*
X8326205Y-16836508D02*
X8307158Y-16826984D01*
X8307158Y-16826984D02*
X8269062Y-16826984D01*
X8269062Y-16826984D02*
X8250015Y-16836508D01*
X8250015Y-16836508D02*
X8240491Y-16846031D01*
X8240491Y-16846031D02*
X8230967Y-16865079D01*
X8230967Y-16865079D02*
X8230967Y-16912698D01*
X8230967Y-16912698D02*
X8240491Y-16931746D01*
X8240491Y-16931746D02*
X8250015Y-16941270D01*
X8250015Y-16941270D02*
X8269062Y-16950793D01*
X8269062Y-16950793D02*
X8307158Y-16950793D01*
X8307158Y-16950793D02*
X8326205Y-16941270D01*
X8326205Y-16941270D02*
X8335729Y-16931746D01*
X8335729Y-16931746D02*
X8345253Y-16912698D01*
X8526205Y-16826984D02*
X8430967Y-16826984D01*
X8430967Y-16826984D02*
X8421444Y-16922222D01*
X8421444Y-16922222D02*
X8430967Y-16912698D01*
X8430967Y-16912698D02*
X8450015Y-16903174D01*
X8450015Y-16903174D02*
X8497634Y-16903174D01*
X8497634Y-16903174D02*
X8516682Y-16912698D01*
X8516682Y-16912698D02*
X8526205Y-16922222D01*
X8526205Y-16922222D02*
X8535729Y-16941270D01*
X8535729Y-16941270D02*
X8535729Y-16988889D01*
X8535729Y-16988889D02*
X8526205Y-17007936D01*
X8526205Y-17007936D02*
X8516682Y-17017460D01*
X8516682Y-17017460D02*
X8497634Y-17026984D01*
X8497634Y-17026984D02*
X8450015Y-17026984D01*
X8450015Y-17026984D02*
X8430967Y-17017460D01*
X8430967Y-17017460D02*
X8421444Y-17007936D01*
X8659539Y-16826984D02*
X8678586Y-16826984D01*
X8678586Y-16826984D02*
X8697634Y-16836508D01*
X8697634Y-16836508D02*
X8707158Y-16846031D01*
X8707158Y-16846031D02*
X8716682Y-16865079D01*
X8716682Y-16865079D02*
X8726205Y-16903174D01*
X8726205Y-16903174D02*
X8726205Y-16950793D01*
X8726205Y-16950793D02*
X8716682Y-16988889D01*
X8716682Y-16988889D02*
X8707158Y-17007936D01*
X8707158Y-17007936D02*
X8697634Y-17017460D01*
X8697634Y-17017460D02*
X8678586Y-17026984D01*
X8678586Y-17026984D02*
X8659539Y-17026984D01*
X8659539Y-17026984D02*
X8640491Y-17017460D01*
X8640491Y-17017460D02*
X8630967Y-17007936D01*
X8630967Y-17007936D02*
X8621444Y-16988889D01*
X8621444Y-16988889D02*
X8611920Y-16950793D01*
X8611920Y-16950793D02*
X8611920Y-16903174D01*
X8611920Y-16903174D02*
X8621444Y-16865079D01*
X8621444Y-16865079D02*
X8630967Y-16846031D01*
X8630967Y-16846031D02*
X8640491Y-16836508D01*
X8640491Y-16836508D02*
X8659539Y-16826984D01*
X8811920Y-17026984D02*
X8811920Y-16893650D01*
X8811920Y-16912698D02*
X8821444Y-16903174D01*
X8821444Y-16903174D02*
X8840491Y-16893650D01*
X8840491Y-16893650D02*
X8869063Y-16893650D01*
X8869063Y-16893650D02*
X8888110Y-16903174D01*
X8888110Y-16903174D02*
X8897634Y-16922222D01*
X8897634Y-16922222D02*
X8897634Y-17026984D01*
X8897634Y-16922222D02*
X8907158Y-16903174D01*
X8907158Y-16903174D02*
X8926205Y-16893650D01*
X8926205Y-16893650D02*
X8954777Y-16893650D01*
X8954777Y-16893650D02*
X8973825Y-16903174D01*
X8973825Y-16903174D02*
X8983348Y-16922222D01*
X8983348Y-16922222D02*
X8983348Y-17026984D01*
X9078586Y-17026984D02*
X9078586Y-16893650D01*
X9078586Y-16912698D02*
X9088110Y-16903174D01*
X9088110Y-16903174D02*
X9107158Y-16893650D01*
X9107158Y-16893650D02*
X9135729Y-16893650D01*
X9135729Y-16893650D02*
X9154777Y-16903174D01*
X9154777Y-16903174D02*
X9164301Y-16922222D01*
X9164301Y-16922222D02*
X9164301Y-17026984D01*
X9164301Y-16922222D02*
X9173825Y-16903174D01*
X9173825Y-16903174D02*
X9192872Y-16893650D01*
X9192872Y-16893650D02*
X9221444Y-16893650D01*
X9221444Y-16893650D02*
X9240491Y-16903174D01*
X9240491Y-16903174D02*
X9250015Y-16922222D01*
X9250015Y-16922222D02*
X9250015Y-17026984D01*
X9640491Y-16817460D02*
X9469063Y-17074603D01*
X9897634Y-16826984D02*
X9916682Y-16826984D01*
X9916682Y-16826984D02*
X9935729Y-16836508D01*
X9935729Y-16836508D02*
X9945253Y-16846031D01*
X9945253Y-16846031D02*
X9954777Y-16865079D01*
X9954777Y-16865079D02*
X9964301Y-16903174D01*
X9964301Y-16903174D02*
X9964301Y-16950793D01*
X9964301Y-16950793D02*
X9954777Y-16988889D01*
X9954777Y-16988889D02*
X9945253Y-17007936D01*
X9945253Y-17007936D02*
X9935729Y-17017460D01*
X9935729Y-17017460D02*
X9916682Y-17026984D01*
X9916682Y-17026984D02*
X9897634Y-17026984D01*
X9897634Y-17026984D02*
X9878587Y-17017460D01*
X9878587Y-17017460D02*
X9869063Y-17007936D01*
X9869063Y-17007936D02*
X9859539Y-16988889D01*
X9859539Y-16988889D02*
X9850015Y-16950793D01*
X9850015Y-16950793D02*
X9850015Y-16903174D01*
X9850015Y-16903174D02*
X9859539Y-16865079D01*
X9859539Y-16865079D02*
X9869063Y-16846031D01*
X9869063Y-16846031D02*
X9878587Y-16836508D01*
X9878587Y-16836508D02*
X9897634Y-16826984D01*
X10050015Y-17007936D02*
X10059539Y-17017460D01*
X10059539Y-17017460D02*
X10050015Y-17026984D01*
X10050015Y-17026984D02*
X10040491Y-17017460D01*
X10040491Y-17017460D02*
X10050015Y-17007936D01*
X10050015Y-17007936D02*
X10050015Y-17026984D01*
X10183348Y-16826984D02*
X10202396Y-16826984D01*
X10202396Y-16826984D02*
X10221444Y-16836508D01*
X10221444Y-16836508D02*
X10230968Y-16846031D01*
X10230968Y-16846031D02*
X10240491Y-16865079D01*
X10240491Y-16865079D02*
X10250015Y-16903174D01*
X10250015Y-16903174D02*
X10250015Y-16950793D01*
X10250015Y-16950793D02*
X10240491Y-16988889D01*
X10240491Y-16988889D02*
X10230968Y-17007936D01*
X10230968Y-17007936D02*
X10221444Y-17017460D01*
X10221444Y-17017460D02*
X10202396Y-17026984D01*
X10202396Y-17026984D02*
X10183348Y-17026984D01*
X10183348Y-17026984D02*
X10164301Y-17017460D01*
X10164301Y-17017460D02*
X10154777Y-17007936D01*
X10154777Y-17007936D02*
X10145253Y-16988889D01*
X10145253Y-16988889D02*
X10135729Y-16950793D01*
X10135729Y-16950793D02*
X10135729Y-16903174D01*
X10135729Y-16903174D02*
X10145253Y-16865079D01*
X10145253Y-16865079D02*
X10154777Y-16846031D01*
X10154777Y-16846031D02*
X10164301Y-16836508D01*
X10164301Y-16836508D02*
X10183348Y-16826984D01*
X10316682Y-16826984D02*
X10440491Y-16826984D01*
X10440491Y-16826984D02*
X10373825Y-16903174D01*
X10373825Y-16903174D02*
X10402396Y-16903174D01*
X10402396Y-16903174D02*
X10421444Y-16912698D01*
X10421444Y-16912698D02*
X10430968Y-16922222D01*
X10430968Y-16922222D02*
X10440491Y-16941270D01*
X10440491Y-16941270D02*
X10440491Y-16988889D01*
X10440491Y-16988889D02*
X10430968Y-17007936D01*
X10430968Y-17007936D02*
X10421444Y-17017460D01*
X10421444Y-17017460D02*
X10402396Y-17026984D01*
X10402396Y-17026984D02*
X10345253Y-17026984D01*
X10345253Y-17026984D02*
X10326206Y-17017460D01*
X10326206Y-17017460D02*
X10316682Y-17007936D01*
X10507158Y-16826984D02*
X10640491Y-16826984D01*
X10640491Y-16826984D02*
X10554777Y-17026984D01*
X10802396Y-16893650D02*
X10802396Y-17026984D01*
X10754777Y-16817460D02*
X10707158Y-16960317D01*
X10707158Y-16960317D02*
X10830968Y-16960317D01*
X10897634Y-16826984D02*
X10897634Y-16865079D01*
X10973825Y-16826984D02*
X10973825Y-16865079D01*
X11269063Y-17103174D02*
X11259539Y-17093650D01*
X11259539Y-17093650D02*
X11240491Y-17065079D01*
X11240491Y-17065079D02*
X11230968Y-17046031D01*
X11230968Y-17046031D02*
X11221444Y-17017460D01*
X11221444Y-17017460D02*
X11211920Y-16969841D01*
X11211920Y-16969841D02*
X11211920Y-16931746D01*
X11211920Y-16931746D02*
X11221444Y-16884127D01*
X11221444Y-16884127D02*
X11230968Y-16855555D01*
X11230968Y-16855555D02*
X11240491Y-16836508D01*
X11240491Y-16836508D02*
X11259539Y-16807936D01*
X11259539Y-16807936D02*
X11269063Y-16798412D01*
X11430968Y-16893650D02*
X11430968Y-17026984D01*
X11383348Y-16817460D02*
X11335729Y-16960317D01*
X11335729Y-16960317D02*
X11459539Y-16960317D01*
X11688110Y-17026984D02*
X11688110Y-16826984D01*
X11773825Y-17026984D02*
X11773825Y-16922222D01*
X11773825Y-16922222D02*
X11764301Y-16903174D01*
X11764301Y-16903174D02*
X11745253Y-16893650D01*
X11745253Y-16893650D02*
X11716682Y-16893650D01*
X11716682Y-16893650D02*
X11697634Y-16903174D01*
X11697634Y-16903174D02*
X11688110Y-16912698D01*
X11897634Y-17026984D02*
X11878587Y-17017460D01*
X11878587Y-17017460D02*
X11869063Y-17007936D01*
X11869063Y-17007936D02*
X11859539Y-16988889D01*
X11859539Y-16988889D02*
X11859539Y-16931746D01*
X11859539Y-16931746D02*
X11869063Y-16912698D01*
X11869063Y-16912698D02*
X11878587Y-16903174D01*
X11878587Y-16903174D02*
X11897634Y-16893650D01*
X11897634Y-16893650D02*
X11926206Y-16893650D01*
X11926206Y-16893650D02*
X11945253Y-16903174D01*
X11945253Y-16903174D02*
X11954777Y-16912698D01*
X11954777Y-16912698D02*
X11964301Y-16931746D01*
X11964301Y-16931746D02*
X11964301Y-16988889D01*
X11964301Y-16988889D02*
X11954777Y-17007936D01*
X11954777Y-17007936D02*
X11945253Y-17017460D01*
X11945253Y-17017460D02*
X11926206Y-17026984D01*
X11926206Y-17026984D02*
X11897634Y-17026984D01*
X12078587Y-17026984D02*
X12059539Y-17017460D01*
X12059539Y-17017460D02*
X12050015Y-16998412D01*
X12050015Y-16998412D02*
X12050015Y-16826984D01*
X12230968Y-17017460D02*
X12211920Y-17026984D01*
X12211920Y-17026984D02*
X12173825Y-17026984D01*
X12173825Y-17026984D02*
X12154777Y-17017460D01*
X12154777Y-17017460D02*
X12145253Y-16998412D01*
X12145253Y-16998412D02*
X12145253Y-16922222D01*
X12145253Y-16922222D02*
X12154777Y-16903174D01*
X12154777Y-16903174D02*
X12173825Y-16893650D01*
X12173825Y-16893650D02*
X12211920Y-16893650D01*
X12211920Y-16893650D02*
X12230968Y-16903174D01*
X12230968Y-16903174D02*
X12240491Y-16922222D01*
X12240491Y-16922222D02*
X12240491Y-16941270D01*
X12240491Y-16941270D02*
X12145253Y-16960317D01*
X12316682Y-17017460D02*
X12335730Y-17026984D01*
X12335730Y-17026984D02*
X12373825Y-17026984D01*
X12373825Y-17026984D02*
X12392872Y-17017460D01*
X12392872Y-17017460D02*
X12402396Y-16998412D01*
X12402396Y-16998412D02*
X12402396Y-16988889D01*
X12402396Y-16988889D02*
X12392872Y-16969841D01*
X12392872Y-16969841D02*
X12373825Y-16960317D01*
X12373825Y-16960317D02*
X12345253Y-16960317D01*
X12345253Y-16960317D02*
X12326206Y-16950793D01*
X12326206Y-16950793D02*
X12316682Y-16931746D01*
X12316682Y-16931746D02*
X12316682Y-16922222D01*
X12316682Y-16922222D02*
X12326206Y-16903174D01*
X12326206Y-16903174D02*
X12345253Y-16893650D01*
X12345253Y-16893650D02*
X12373825Y-16893650D01*
X12373825Y-16893650D02*
X12392872Y-16903174D01*
X12469063Y-17103174D02*
X12478587Y-17093650D01*
X12478587Y-17093650D02*
X12497634Y-17065079D01*
X12497634Y-17065079D02*
X12507158Y-17046031D01*
X12507158Y-17046031D02*
X12516682Y-17017460D01*
X12516682Y-17017460D02*
X12526206Y-16969841D01*
X12526206Y-16969841D02*
X12526206Y-16931746D01*
X12526206Y-16931746D02*
X12516682Y-16884127D01*
X12516682Y-16884127D02*
X12507158Y-16855555D01*
X12507158Y-16855555D02*
X12497634Y-16836508D01*
X12497634Y-16836508D02*
X12478587Y-16807936D01*
X12478587Y-16807936D02*
X12469063Y-16798412D01*
D17*
X7594000Y-17149500D02*
X7694000Y-17249500D01*
X7694000Y-17149500D02*
X7594000Y-17249500D01*
X7644000Y-17149500D02*
X7644000Y-17249500D01*
X7594000Y-17199500D02*
X7694000Y-17199500D01*
D10*
X8059539Y-17290984D02*
X7945253Y-17290984D01*
X8002396Y-17290984D02*
X8002396Y-17090984D01*
X8002396Y-17090984D02*
X7983348Y-17119555D01*
X7983348Y-17119555D02*
X7964301Y-17138603D01*
X7964301Y-17138603D02*
X7945253Y-17148127D01*
X8145253Y-17271936D02*
X8154777Y-17281460D01*
X8154777Y-17281460D02*
X8145253Y-17290984D01*
X8145253Y-17290984D02*
X8135729Y-17281460D01*
X8135729Y-17281460D02*
X8145253Y-17271936D01*
X8145253Y-17271936D02*
X8145253Y-17290984D01*
X8278586Y-17090984D02*
X8297634Y-17090984D01*
X8297634Y-17090984D02*
X8316682Y-17100508D01*
X8316682Y-17100508D02*
X8326205Y-17110031D01*
X8326205Y-17110031D02*
X8335729Y-17129079D01*
X8335729Y-17129079D02*
X8345253Y-17167174D01*
X8345253Y-17167174D02*
X8345253Y-17214793D01*
X8345253Y-17214793D02*
X8335729Y-17252889D01*
X8335729Y-17252889D02*
X8326205Y-17271936D01*
X8326205Y-17271936D02*
X8316682Y-17281460D01*
X8316682Y-17281460D02*
X8297634Y-17290984D01*
X8297634Y-17290984D02*
X8278586Y-17290984D01*
X8278586Y-17290984D02*
X8259539Y-17281460D01*
X8259539Y-17281460D02*
X8250015Y-17271936D01*
X8250015Y-17271936D02*
X8240491Y-17252889D01*
X8240491Y-17252889D02*
X8230967Y-17214793D01*
X8230967Y-17214793D02*
X8230967Y-17167174D01*
X8230967Y-17167174D02*
X8240491Y-17129079D01*
X8240491Y-17129079D02*
X8250015Y-17110031D01*
X8250015Y-17110031D02*
X8259539Y-17100508D01*
X8259539Y-17100508D02*
X8278586Y-17090984D01*
X8469063Y-17090984D02*
X8488110Y-17090984D01*
X8488110Y-17090984D02*
X8507158Y-17100508D01*
X8507158Y-17100508D02*
X8516682Y-17110031D01*
X8516682Y-17110031D02*
X8526205Y-17129079D01*
X8526205Y-17129079D02*
X8535729Y-17167174D01*
X8535729Y-17167174D02*
X8535729Y-17214793D01*
X8535729Y-17214793D02*
X8526205Y-17252889D01*
X8526205Y-17252889D02*
X8516682Y-17271936D01*
X8516682Y-17271936D02*
X8507158Y-17281460D01*
X8507158Y-17281460D02*
X8488110Y-17290984D01*
X8488110Y-17290984D02*
X8469063Y-17290984D01*
X8469063Y-17290984D02*
X8450015Y-17281460D01*
X8450015Y-17281460D02*
X8440491Y-17271936D01*
X8440491Y-17271936D02*
X8430967Y-17252889D01*
X8430967Y-17252889D02*
X8421444Y-17214793D01*
X8421444Y-17214793D02*
X8421444Y-17167174D01*
X8421444Y-17167174D02*
X8430967Y-17129079D01*
X8430967Y-17129079D02*
X8440491Y-17110031D01*
X8440491Y-17110031D02*
X8450015Y-17100508D01*
X8450015Y-17100508D02*
X8469063Y-17090984D01*
X8659539Y-17090984D02*
X8678586Y-17090984D01*
X8678586Y-17090984D02*
X8697634Y-17100508D01*
X8697634Y-17100508D02*
X8707158Y-17110031D01*
X8707158Y-17110031D02*
X8716682Y-17129079D01*
X8716682Y-17129079D02*
X8726205Y-17167174D01*
X8726205Y-17167174D02*
X8726205Y-17214793D01*
X8726205Y-17214793D02*
X8716682Y-17252889D01*
X8716682Y-17252889D02*
X8707158Y-17271936D01*
X8707158Y-17271936D02*
X8697634Y-17281460D01*
X8697634Y-17281460D02*
X8678586Y-17290984D01*
X8678586Y-17290984D02*
X8659539Y-17290984D01*
X8659539Y-17290984D02*
X8640491Y-17281460D01*
X8640491Y-17281460D02*
X8630967Y-17271936D01*
X8630967Y-17271936D02*
X8621444Y-17252889D01*
X8621444Y-17252889D02*
X8611920Y-17214793D01*
X8611920Y-17214793D02*
X8611920Y-17167174D01*
X8611920Y-17167174D02*
X8621444Y-17129079D01*
X8621444Y-17129079D02*
X8630967Y-17110031D01*
X8630967Y-17110031D02*
X8640491Y-17100508D01*
X8640491Y-17100508D02*
X8659539Y-17090984D01*
X8811920Y-17290984D02*
X8811920Y-17157650D01*
X8811920Y-17176698D02*
X8821444Y-17167174D01*
X8821444Y-17167174D02*
X8840491Y-17157650D01*
X8840491Y-17157650D02*
X8869063Y-17157650D01*
X8869063Y-17157650D02*
X8888110Y-17167174D01*
X8888110Y-17167174D02*
X8897634Y-17186222D01*
X8897634Y-17186222D02*
X8897634Y-17290984D01*
X8897634Y-17186222D02*
X8907158Y-17167174D01*
X8907158Y-17167174D02*
X8926205Y-17157650D01*
X8926205Y-17157650D02*
X8954777Y-17157650D01*
X8954777Y-17157650D02*
X8973825Y-17167174D01*
X8973825Y-17167174D02*
X8983348Y-17186222D01*
X8983348Y-17186222D02*
X8983348Y-17290984D01*
X9078586Y-17290984D02*
X9078586Y-17157650D01*
X9078586Y-17176698D02*
X9088110Y-17167174D01*
X9088110Y-17167174D02*
X9107158Y-17157650D01*
X9107158Y-17157650D02*
X9135729Y-17157650D01*
X9135729Y-17157650D02*
X9154777Y-17167174D01*
X9154777Y-17167174D02*
X9164301Y-17186222D01*
X9164301Y-17186222D02*
X9164301Y-17290984D01*
X9164301Y-17186222D02*
X9173825Y-17167174D01*
X9173825Y-17167174D02*
X9192872Y-17157650D01*
X9192872Y-17157650D02*
X9221444Y-17157650D01*
X9221444Y-17157650D02*
X9240491Y-17167174D01*
X9240491Y-17167174D02*
X9250015Y-17186222D01*
X9250015Y-17186222D02*
X9250015Y-17290984D01*
X9640491Y-17081460D02*
X9469063Y-17338603D01*
X9897634Y-17090984D02*
X9916682Y-17090984D01*
X9916682Y-17090984D02*
X9935729Y-17100508D01*
X9935729Y-17100508D02*
X9945253Y-17110031D01*
X9945253Y-17110031D02*
X9954777Y-17129079D01*
X9954777Y-17129079D02*
X9964301Y-17167174D01*
X9964301Y-17167174D02*
X9964301Y-17214793D01*
X9964301Y-17214793D02*
X9954777Y-17252889D01*
X9954777Y-17252889D02*
X9945253Y-17271936D01*
X9945253Y-17271936D02*
X9935729Y-17281460D01*
X9935729Y-17281460D02*
X9916682Y-17290984D01*
X9916682Y-17290984D02*
X9897634Y-17290984D01*
X9897634Y-17290984D02*
X9878587Y-17281460D01*
X9878587Y-17281460D02*
X9869063Y-17271936D01*
X9869063Y-17271936D02*
X9859539Y-17252889D01*
X9859539Y-17252889D02*
X9850015Y-17214793D01*
X9850015Y-17214793D02*
X9850015Y-17167174D01*
X9850015Y-17167174D02*
X9859539Y-17129079D01*
X9859539Y-17129079D02*
X9869063Y-17110031D01*
X9869063Y-17110031D02*
X9878587Y-17100508D01*
X9878587Y-17100508D02*
X9897634Y-17090984D01*
X10050015Y-17271936D02*
X10059539Y-17281460D01*
X10059539Y-17281460D02*
X10050015Y-17290984D01*
X10050015Y-17290984D02*
X10040491Y-17281460D01*
X10040491Y-17281460D02*
X10050015Y-17271936D01*
X10050015Y-17271936D02*
X10050015Y-17290984D01*
X10183348Y-17090984D02*
X10202396Y-17090984D01*
X10202396Y-17090984D02*
X10221444Y-17100508D01*
X10221444Y-17100508D02*
X10230968Y-17110031D01*
X10230968Y-17110031D02*
X10240491Y-17129079D01*
X10240491Y-17129079D02*
X10250015Y-17167174D01*
X10250015Y-17167174D02*
X10250015Y-17214793D01*
X10250015Y-17214793D02*
X10240491Y-17252889D01*
X10240491Y-17252889D02*
X10230968Y-17271936D01*
X10230968Y-17271936D02*
X10221444Y-17281460D01*
X10221444Y-17281460D02*
X10202396Y-17290984D01*
X10202396Y-17290984D02*
X10183348Y-17290984D01*
X10183348Y-17290984D02*
X10164301Y-17281460D01*
X10164301Y-17281460D02*
X10154777Y-17271936D01*
X10154777Y-17271936D02*
X10145253Y-17252889D01*
X10145253Y-17252889D02*
X10135729Y-17214793D01*
X10135729Y-17214793D02*
X10135729Y-17167174D01*
X10135729Y-17167174D02*
X10145253Y-17129079D01*
X10145253Y-17129079D02*
X10154777Y-17110031D01*
X10154777Y-17110031D02*
X10164301Y-17100508D01*
X10164301Y-17100508D02*
X10183348Y-17090984D01*
X10316682Y-17090984D02*
X10440491Y-17090984D01*
X10440491Y-17090984D02*
X10373825Y-17167174D01*
X10373825Y-17167174D02*
X10402396Y-17167174D01*
X10402396Y-17167174D02*
X10421444Y-17176698D01*
X10421444Y-17176698D02*
X10430968Y-17186222D01*
X10430968Y-17186222D02*
X10440491Y-17205270D01*
X10440491Y-17205270D02*
X10440491Y-17252889D01*
X10440491Y-17252889D02*
X10430968Y-17271936D01*
X10430968Y-17271936D02*
X10421444Y-17281460D01*
X10421444Y-17281460D02*
X10402396Y-17290984D01*
X10402396Y-17290984D02*
X10345253Y-17290984D01*
X10345253Y-17290984D02*
X10326206Y-17281460D01*
X10326206Y-17281460D02*
X10316682Y-17271936D01*
X10535729Y-17290984D02*
X10573825Y-17290984D01*
X10573825Y-17290984D02*
X10592872Y-17281460D01*
X10592872Y-17281460D02*
X10602396Y-17271936D01*
X10602396Y-17271936D02*
X10621444Y-17243365D01*
X10621444Y-17243365D02*
X10630968Y-17205270D01*
X10630968Y-17205270D02*
X10630968Y-17129079D01*
X10630968Y-17129079D02*
X10621444Y-17110031D01*
X10621444Y-17110031D02*
X10611920Y-17100508D01*
X10611920Y-17100508D02*
X10592872Y-17090984D01*
X10592872Y-17090984D02*
X10554777Y-17090984D01*
X10554777Y-17090984D02*
X10535729Y-17100508D01*
X10535729Y-17100508D02*
X10526206Y-17110031D01*
X10526206Y-17110031D02*
X10516682Y-17129079D01*
X10516682Y-17129079D02*
X10516682Y-17176698D01*
X10516682Y-17176698D02*
X10526206Y-17195746D01*
X10526206Y-17195746D02*
X10535729Y-17205270D01*
X10535729Y-17205270D02*
X10554777Y-17214793D01*
X10554777Y-17214793D02*
X10592872Y-17214793D01*
X10592872Y-17214793D02*
X10611920Y-17205270D01*
X10611920Y-17205270D02*
X10621444Y-17195746D01*
X10621444Y-17195746D02*
X10630968Y-17176698D01*
X10802396Y-17157650D02*
X10802396Y-17290984D01*
X10754777Y-17081460D02*
X10707158Y-17224317D01*
X10707158Y-17224317D02*
X10830968Y-17224317D01*
X10897634Y-17090984D02*
X10897634Y-17129079D01*
X10973825Y-17090984D02*
X10973825Y-17129079D01*
X11269063Y-17367174D02*
X11259539Y-17357650D01*
X11259539Y-17357650D02*
X11240491Y-17329079D01*
X11240491Y-17329079D02*
X11230968Y-17310031D01*
X11230968Y-17310031D02*
X11221444Y-17281460D01*
X11221444Y-17281460D02*
X11211920Y-17233841D01*
X11211920Y-17233841D02*
X11211920Y-17195746D01*
X11211920Y-17195746D02*
X11221444Y-17148127D01*
X11221444Y-17148127D02*
X11230968Y-17119555D01*
X11230968Y-17119555D02*
X11240491Y-17100508D01*
X11240491Y-17100508D02*
X11259539Y-17071936D01*
X11259539Y-17071936D02*
X11269063Y-17062412D01*
X11326206Y-17090984D02*
X11450015Y-17090984D01*
X11450015Y-17090984D02*
X11383348Y-17167174D01*
X11383348Y-17167174D02*
X11411920Y-17167174D01*
X11411920Y-17167174D02*
X11430968Y-17176698D01*
X11430968Y-17176698D02*
X11440491Y-17186222D01*
X11440491Y-17186222D02*
X11450015Y-17205270D01*
X11450015Y-17205270D02*
X11450015Y-17252889D01*
X11450015Y-17252889D02*
X11440491Y-17271936D01*
X11440491Y-17271936D02*
X11430968Y-17281460D01*
X11430968Y-17281460D02*
X11411920Y-17290984D01*
X11411920Y-17290984D02*
X11354777Y-17290984D01*
X11354777Y-17290984D02*
X11335729Y-17281460D01*
X11335729Y-17281460D02*
X11326206Y-17271936D01*
X11573825Y-17090984D02*
X11592872Y-17090984D01*
X11592872Y-17090984D02*
X11611920Y-17100508D01*
X11611920Y-17100508D02*
X11621444Y-17110031D01*
X11621444Y-17110031D02*
X11630968Y-17129079D01*
X11630968Y-17129079D02*
X11640491Y-17167174D01*
X11640491Y-17167174D02*
X11640491Y-17214793D01*
X11640491Y-17214793D02*
X11630968Y-17252889D01*
X11630968Y-17252889D02*
X11621444Y-17271936D01*
X11621444Y-17271936D02*
X11611920Y-17281460D01*
X11611920Y-17281460D02*
X11592872Y-17290984D01*
X11592872Y-17290984D02*
X11573825Y-17290984D01*
X11573825Y-17290984D02*
X11554777Y-17281460D01*
X11554777Y-17281460D02*
X11545253Y-17271936D01*
X11545253Y-17271936D02*
X11535729Y-17252889D01*
X11535729Y-17252889D02*
X11526206Y-17214793D01*
X11526206Y-17214793D02*
X11526206Y-17167174D01*
X11526206Y-17167174D02*
X11535729Y-17129079D01*
X11535729Y-17129079D02*
X11545253Y-17110031D01*
X11545253Y-17110031D02*
X11554777Y-17100508D01*
X11554777Y-17100508D02*
X11573825Y-17090984D01*
X11878587Y-17290984D02*
X11878587Y-17090984D01*
X11964301Y-17290984D02*
X11964301Y-17186222D01*
X11964301Y-17186222D02*
X11954777Y-17167174D01*
X11954777Y-17167174D02*
X11935730Y-17157650D01*
X11935730Y-17157650D02*
X11907158Y-17157650D01*
X11907158Y-17157650D02*
X11888110Y-17167174D01*
X11888110Y-17167174D02*
X11878587Y-17176698D01*
X12088110Y-17290984D02*
X12069063Y-17281460D01*
X12069063Y-17281460D02*
X12059539Y-17271936D01*
X12059539Y-17271936D02*
X12050015Y-17252889D01*
X12050015Y-17252889D02*
X12050015Y-17195746D01*
X12050015Y-17195746D02*
X12059539Y-17176698D01*
X12059539Y-17176698D02*
X12069063Y-17167174D01*
X12069063Y-17167174D02*
X12088110Y-17157650D01*
X12088110Y-17157650D02*
X12116682Y-17157650D01*
X12116682Y-17157650D02*
X12135730Y-17167174D01*
X12135730Y-17167174D02*
X12145253Y-17176698D01*
X12145253Y-17176698D02*
X12154777Y-17195746D01*
X12154777Y-17195746D02*
X12154777Y-17252889D01*
X12154777Y-17252889D02*
X12145253Y-17271936D01*
X12145253Y-17271936D02*
X12135730Y-17281460D01*
X12135730Y-17281460D02*
X12116682Y-17290984D01*
X12116682Y-17290984D02*
X12088110Y-17290984D01*
X12269063Y-17290984D02*
X12250015Y-17281460D01*
X12250015Y-17281460D02*
X12240491Y-17262412D01*
X12240491Y-17262412D02*
X12240491Y-17090984D01*
X12421444Y-17281460D02*
X12402396Y-17290984D01*
X12402396Y-17290984D02*
X12364301Y-17290984D01*
X12364301Y-17290984D02*
X12345253Y-17281460D01*
X12345253Y-17281460D02*
X12335730Y-17262412D01*
X12335730Y-17262412D02*
X12335730Y-17186222D01*
X12335730Y-17186222D02*
X12345253Y-17167174D01*
X12345253Y-17167174D02*
X12364301Y-17157650D01*
X12364301Y-17157650D02*
X12402396Y-17157650D01*
X12402396Y-17157650D02*
X12421444Y-17167174D01*
X12421444Y-17167174D02*
X12430968Y-17186222D01*
X12430968Y-17186222D02*
X12430968Y-17205270D01*
X12430968Y-17205270D02*
X12335730Y-17224317D01*
X12507158Y-17281460D02*
X12526206Y-17290984D01*
X12526206Y-17290984D02*
X12564301Y-17290984D01*
X12564301Y-17290984D02*
X12583349Y-17281460D01*
X12583349Y-17281460D02*
X12592872Y-17262412D01*
X12592872Y-17262412D02*
X12592872Y-17252889D01*
X12592872Y-17252889D02*
X12583349Y-17233841D01*
X12583349Y-17233841D02*
X12564301Y-17224317D01*
X12564301Y-17224317D02*
X12535730Y-17224317D01*
X12535730Y-17224317D02*
X12516682Y-17214793D01*
X12516682Y-17214793D02*
X12507158Y-17195746D01*
X12507158Y-17195746D02*
X12507158Y-17186222D01*
X12507158Y-17186222D02*
X12516682Y-17167174D01*
X12516682Y-17167174D02*
X12535730Y-17157650D01*
X12535730Y-17157650D02*
X12564301Y-17157650D01*
X12564301Y-17157650D02*
X12583349Y-17167174D01*
X12659539Y-17367174D02*
X12669063Y-17357650D01*
X12669063Y-17357650D02*
X12688111Y-17329079D01*
X12688111Y-17329079D02*
X12697634Y-17310031D01*
X12697634Y-17310031D02*
X12707158Y-17281460D01*
X12707158Y-17281460D02*
X12716682Y-17233841D01*
X12716682Y-17233841D02*
X12716682Y-17195746D01*
X12716682Y-17195746D02*
X12707158Y-17148127D01*
X12707158Y-17148127D02*
X12697634Y-17119555D01*
X12697634Y-17119555D02*
X12688111Y-17100508D01*
X12688111Y-17100508D02*
X12669063Y-17071936D01*
X12669063Y-17071936D02*
X12659539Y-17062412D01*
X7494000Y-17363500D02*
X7694000Y-17563500D01*
X7694000Y-17363500D02*
X7494000Y-17563500D01*
X7664711Y-17534211D02*
X7664711Y-17392789D01*
X7523289Y-17392789D01*
X7523289Y-17534211D01*
X7664711Y-17534211D01*
X7945253Y-17374031D02*
X7954777Y-17364508D01*
X7954777Y-17364508D02*
X7973824Y-17354984D01*
X7973824Y-17354984D02*
X8021443Y-17354984D01*
X8021443Y-17354984D02*
X8040491Y-17364508D01*
X8040491Y-17364508D02*
X8050015Y-17374031D01*
X8050015Y-17374031D02*
X8059539Y-17393079D01*
X8059539Y-17393079D02*
X8059539Y-17412127D01*
X8059539Y-17412127D02*
X8050015Y-17440698D01*
X8050015Y-17440698D02*
X7935729Y-17554984D01*
X7935729Y-17554984D02*
X8059539Y-17554984D01*
X8145253Y-17535936D02*
X8154777Y-17545460D01*
X8154777Y-17545460D02*
X8145253Y-17554984D01*
X8145253Y-17554984D02*
X8135729Y-17545460D01*
X8135729Y-17545460D02*
X8145253Y-17535936D01*
X8145253Y-17535936D02*
X8145253Y-17554984D01*
X8221443Y-17354984D02*
X8345253Y-17354984D01*
X8345253Y-17354984D02*
X8278586Y-17431174D01*
X8278586Y-17431174D02*
X8307158Y-17431174D01*
X8307158Y-17431174D02*
X8326205Y-17440698D01*
X8326205Y-17440698D02*
X8335729Y-17450222D01*
X8335729Y-17450222D02*
X8345253Y-17469270D01*
X8345253Y-17469270D02*
X8345253Y-17516889D01*
X8345253Y-17516889D02*
X8335729Y-17535936D01*
X8335729Y-17535936D02*
X8326205Y-17545460D01*
X8326205Y-17545460D02*
X8307158Y-17554984D01*
X8307158Y-17554984D02*
X8250015Y-17554984D01*
X8250015Y-17554984D02*
X8230967Y-17545460D01*
X8230967Y-17545460D02*
X8221443Y-17535936D01*
X8469063Y-17354984D02*
X8488110Y-17354984D01*
X8488110Y-17354984D02*
X8507158Y-17364508D01*
X8507158Y-17364508D02*
X8516682Y-17374031D01*
X8516682Y-17374031D02*
X8526205Y-17393079D01*
X8526205Y-17393079D02*
X8535729Y-17431174D01*
X8535729Y-17431174D02*
X8535729Y-17478793D01*
X8535729Y-17478793D02*
X8526205Y-17516889D01*
X8526205Y-17516889D02*
X8516682Y-17535936D01*
X8516682Y-17535936D02*
X8507158Y-17545460D01*
X8507158Y-17545460D02*
X8488110Y-17554984D01*
X8488110Y-17554984D02*
X8469063Y-17554984D01*
X8469063Y-17554984D02*
X8450015Y-17545460D01*
X8450015Y-17545460D02*
X8440491Y-17535936D01*
X8440491Y-17535936D02*
X8430967Y-17516889D01*
X8430967Y-17516889D02*
X8421444Y-17478793D01*
X8421444Y-17478793D02*
X8421444Y-17431174D01*
X8421444Y-17431174D02*
X8430967Y-17393079D01*
X8430967Y-17393079D02*
X8440491Y-17374031D01*
X8440491Y-17374031D02*
X8450015Y-17364508D01*
X8450015Y-17364508D02*
X8469063Y-17354984D01*
X8659539Y-17354984D02*
X8678586Y-17354984D01*
X8678586Y-17354984D02*
X8697634Y-17364508D01*
X8697634Y-17364508D02*
X8707158Y-17374031D01*
X8707158Y-17374031D02*
X8716682Y-17393079D01*
X8716682Y-17393079D02*
X8726205Y-17431174D01*
X8726205Y-17431174D02*
X8726205Y-17478793D01*
X8726205Y-17478793D02*
X8716682Y-17516889D01*
X8716682Y-17516889D02*
X8707158Y-17535936D01*
X8707158Y-17535936D02*
X8697634Y-17545460D01*
X8697634Y-17545460D02*
X8678586Y-17554984D01*
X8678586Y-17554984D02*
X8659539Y-17554984D01*
X8659539Y-17554984D02*
X8640491Y-17545460D01*
X8640491Y-17545460D02*
X8630967Y-17535936D01*
X8630967Y-17535936D02*
X8621444Y-17516889D01*
X8621444Y-17516889D02*
X8611920Y-17478793D01*
X8611920Y-17478793D02*
X8611920Y-17431174D01*
X8611920Y-17431174D02*
X8621444Y-17393079D01*
X8621444Y-17393079D02*
X8630967Y-17374031D01*
X8630967Y-17374031D02*
X8640491Y-17364508D01*
X8640491Y-17364508D02*
X8659539Y-17354984D01*
X8811920Y-17554984D02*
X8811920Y-17421650D01*
X8811920Y-17440698D02*
X8821444Y-17431174D01*
X8821444Y-17431174D02*
X8840491Y-17421650D01*
X8840491Y-17421650D02*
X8869063Y-17421650D01*
X8869063Y-17421650D02*
X8888110Y-17431174D01*
X8888110Y-17431174D02*
X8897634Y-17450222D01*
X8897634Y-17450222D02*
X8897634Y-17554984D01*
X8897634Y-17450222D02*
X8907158Y-17431174D01*
X8907158Y-17431174D02*
X8926205Y-17421650D01*
X8926205Y-17421650D02*
X8954777Y-17421650D01*
X8954777Y-17421650D02*
X8973825Y-17431174D01*
X8973825Y-17431174D02*
X8983348Y-17450222D01*
X8983348Y-17450222D02*
X8983348Y-17554984D01*
X9078586Y-17554984D02*
X9078586Y-17421650D01*
X9078586Y-17440698D02*
X9088110Y-17431174D01*
X9088110Y-17431174D02*
X9107158Y-17421650D01*
X9107158Y-17421650D02*
X9135729Y-17421650D01*
X9135729Y-17421650D02*
X9154777Y-17431174D01*
X9154777Y-17431174D02*
X9164301Y-17450222D01*
X9164301Y-17450222D02*
X9164301Y-17554984D01*
X9164301Y-17450222D02*
X9173825Y-17431174D01*
X9173825Y-17431174D02*
X9192872Y-17421650D01*
X9192872Y-17421650D02*
X9221444Y-17421650D01*
X9221444Y-17421650D02*
X9240491Y-17431174D01*
X9240491Y-17431174D02*
X9250015Y-17450222D01*
X9250015Y-17450222D02*
X9250015Y-17554984D01*
X9640491Y-17345460D02*
X9469063Y-17602603D01*
X9897634Y-17354984D02*
X9916682Y-17354984D01*
X9916682Y-17354984D02*
X9935729Y-17364508D01*
X9935729Y-17364508D02*
X9945253Y-17374031D01*
X9945253Y-17374031D02*
X9954777Y-17393079D01*
X9954777Y-17393079D02*
X9964301Y-17431174D01*
X9964301Y-17431174D02*
X9964301Y-17478793D01*
X9964301Y-17478793D02*
X9954777Y-17516889D01*
X9954777Y-17516889D02*
X9945253Y-17535936D01*
X9945253Y-17535936D02*
X9935729Y-17545460D01*
X9935729Y-17545460D02*
X9916682Y-17554984D01*
X9916682Y-17554984D02*
X9897634Y-17554984D01*
X9897634Y-17554984D02*
X9878587Y-17545460D01*
X9878587Y-17545460D02*
X9869063Y-17535936D01*
X9869063Y-17535936D02*
X9859539Y-17516889D01*
X9859539Y-17516889D02*
X9850015Y-17478793D01*
X9850015Y-17478793D02*
X9850015Y-17431174D01*
X9850015Y-17431174D02*
X9859539Y-17393079D01*
X9859539Y-17393079D02*
X9869063Y-17374031D01*
X9869063Y-17374031D02*
X9878587Y-17364508D01*
X9878587Y-17364508D02*
X9897634Y-17354984D01*
X10050015Y-17535936D02*
X10059539Y-17545460D01*
X10059539Y-17545460D02*
X10050015Y-17554984D01*
X10050015Y-17554984D02*
X10040491Y-17545460D01*
X10040491Y-17545460D02*
X10050015Y-17535936D01*
X10050015Y-17535936D02*
X10050015Y-17554984D01*
X10183348Y-17354984D02*
X10202396Y-17354984D01*
X10202396Y-17354984D02*
X10221444Y-17364508D01*
X10221444Y-17364508D02*
X10230968Y-17374031D01*
X10230968Y-17374031D02*
X10240491Y-17393079D01*
X10240491Y-17393079D02*
X10250015Y-17431174D01*
X10250015Y-17431174D02*
X10250015Y-17478793D01*
X10250015Y-17478793D02*
X10240491Y-17516889D01*
X10240491Y-17516889D02*
X10230968Y-17535936D01*
X10230968Y-17535936D02*
X10221444Y-17545460D01*
X10221444Y-17545460D02*
X10202396Y-17554984D01*
X10202396Y-17554984D02*
X10183348Y-17554984D01*
X10183348Y-17554984D02*
X10164301Y-17545460D01*
X10164301Y-17545460D02*
X10154777Y-17535936D01*
X10154777Y-17535936D02*
X10145253Y-17516889D01*
X10145253Y-17516889D02*
X10135729Y-17478793D01*
X10135729Y-17478793D02*
X10135729Y-17431174D01*
X10135729Y-17431174D02*
X10145253Y-17393079D01*
X10145253Y-17393079D02*
X10154777Y-17374031D01*
X10154777Y-17374031D02*
X10164301Y-17364508D01*
X10164301Y-17364508D02*
X10183348Y-17354984D01*
X10345253Y-17554984D02*
X10383348Y-17554984D01*
X10383348Y-17554984D02*
X10402396Y-17545460D01*
X10402396Y-17545460D02*
X10411920Y-17535936D01*
X10411920Y-17535936D02*
X10430968Y-17507365D01*
X10430968Y-17507365D02*
X10440491Y-17469270D01*
X10440491Y-17469270D02*
X10440491Y-17393079D01*
X10440491Y-17393079D02*
X10430968Y-17374031D01*
X10430968Y-17374031D02*
X10421444Y-17364508D01*
X10421444Y-17364508D02*
X10402396Y-17354984D01*
X10402396Y-17354984D02*
X10364301Y-17354984D01*
X10364301Y-17354984D02*
X10345253Y-17364508D01*
X10345253Y-17364508D02*
X10335729Y-17374031D01*
X10335729Y-17374031D02*
X10326206Y-17393079D01*
X10326206Y-17393079D02*
X10326206Y-17440698D01*
X10326206Y-17440698D02*
X10335729Y-17459746D01*
X10335729Y-17459746D02*
X10345253Y-17469270D01*
X10345253Y-17469270D02*
X10364301Y-17478793D01*
X10364301Y-17478793D02*
X10402396Y-17478793D01*
X10402396Y-17478793D02*
X10421444Y-17469270D01*
X10421444Y-17469270D02*
X10430968Y-17459746D01*
X10430968Y-17459746D02*
X10440491Y-17440698D01*
X10564301Y-17354984D02*
X10583349Y-17354984D01*
X10583349Y-17354984D02*
X10602396Y-17364508D01*
X10602396Y-17364508D02*
X10611920Y-17374031D01*
X10611920Y-17374031D02*
X10621444Y-17393079D01*
X10621444Y-17393079D02*
X10630968Y-17431174D01*
X10630968Y-17431174D02*
X10630968Y-17478793D01*
X10630968Y-17478793D02*
X10621444Y-17516889D01*
X10621444Y-17516889D02*
X10611920Y-17535936D01*
X10611920Y-17535936D02*
X10602396Y-17545460D01*
X10602396Y-17545460D02*
X10583349Y-17554984D01*
X10583349Y-17554984D02*
X10564301Y-17554984D01*
X10564301Y-17554984D02*
X10545253Y-17545460D01*
X10545253Y-17545460D02*
X10535729Y-17535936D01*
X10535729Y-17535936D02*
X10526206Y-17516889D01*
X10526206Y-17516889D02*
X10516682Y-17478793D01*
X10516682Y-17478793D02*
X10516682Y-17431174D01*
X10516682Y-17431174D02*
X10526206Y-17393079D01*
X10526206Y-17393079D02*
X10535729Y-17374031D01*
X10535729Y-17374031D02*
X10545253Y-17364508D01*
X10545253Y-17364508D02*
X10564301Y-17354984D01*
X10802396Y-17354984D02*
X10764301Y-17354984D01*
X10764301Y-17354984D02*
X10745253Y-17364508D01*
X10745253Y-17364508D02*
X10735729Y-17374031D01*
X10735729Y-17374031D02*
X10716682Y-17402603D01*
X10716682Y-17402603D02*
X10707158Y-17440698D01*
X10707158Y-17440698D02*
X10707158Y-17516889D01*
X10707158Y-17516889D02*
X10716682Y-17535936D01*
X10716682Y-17535936D02*
X10726206Y-17545460D01*
X10726206Y-17545460D02*
X10745253Y-17554984D01*
X10745253Y-17554984D02*
X10783349Y-17554984D01*
X10783349Y-17554984D02*
X10802396Y-17545460D01*
X10802396Y-17545460D02*
X10811920Y-17535936D01*
X10811920Y-17535936D02*
X10821444Y-17516889D01*
X10821444Y-17516889D02*
X10821444Y-17469270D01*
X10821444Y-17469270D02*
X10811920Y-17450222D01*
X10811920Y-17450222D02*
X10802396Y-17440698D01*
X10802396Y-17440698D02*
X10783349Y-17431174D01*
X10783349Y-17431174D02*
X10745253Y-17431174D01*
X10745253Y-17431174D02*
X10726206Y-17440698D01*
X10726206Y-17440698D02*
X10716682Y-17450222D01*
X10716682Y-17450222D02*
X10707158Y-17469270D01*
X10897634Y-17354984D02*
X10897634Y-17393079D01*
X10973825Y-17354984D02*
X10973825Y-17393079D01*
X11269063Y-17631174D02*
X11259539Y-17621650D01*
X11259539Y-17621650D02*
X11240491Y-17593079D01*
X11240491Y-17593079D02*
X11230968Y-17574031D01*
X11230968Y-17574031D02*
X11221444Y-17545460D01*
X11221444Y-17545460D02*
X11211920Y-17497841D01*
X11211920Y-17497841D02*
X11211920Y-17459746D01*
X11211920Y-17459746D02*
X11221444Y-17412127D01*
X11221444Y-17412127D02*
X11230968Y-17383555D01*
X11230968Y-17383555D02*
X11240491Y-17364508D01*
X11240491Y-17364508D02*
X11259539Y-17335936D01*
X11259539Y-17335936D02*
X11269063Y-17326412D01*
X11430968Y-17421650D02*
X11430968Y-17554984D01*
X11383348Y-17345460D02*
X11335729Y-17488317D01*
X11335729Y-17488317D02*
X11459539Y-17488317D01*
X11688110Y-17554984D02*
X11688110Y-17354984D01*
X11773825Y-17554984D02*
X11773825Y-17450222D01*
X11773825Y-17450222D02*
X11764301Y-17431174D01*
X11764301Y-17431174D02*
X11745253Y-17421650D01*
X11745253Y-17421650D02*
X11716682Y-17421650D01*
X11716682Y-17421650D02*
X11697634Y-17431174D01*
X11697634Y-17431174D02*
X11688110Y-17440698D01*
X11897634Y-17554984D02*
X11878587Y-17545460D01*
X11878587Y-17545460D02*
X11869063Y-17535936D01*
X11869063Y-17535936D02*
X11859539Y-17516889D01*
X11859539Y-17516889D02*
X11859539Y-17459746D01*
X11859539Y-17459746D02*
X11869063Y-17440698D01*
X11869063Y-17440698D02*
X11878587Y-17431174D01*
X11878587Y-17431174D02*
X11897634Y-17421650D01*
X11897634Y-17421650D02*
X11926206Y-17421650D01*
X11926206Y-17421650D02*
X11945253Y-17431174D01*
X11945253Y-17431174D02*
X11954777Y-17440698D01*
X11954777Y-17440698D02*
X11964301Y-17459746D01*
X11964301Y-17459746D02*
X11964301Y-17516889D01*
X11964301Y-17516889D02*
X11954777Y-17535936D01*
X11954777Y-17535936D02*
X11945253Y-17545460D01*
X11945253Y-17545460D02*
X11926206Y-17554984D01*
X11926206Y-17554984D02*
X11897634Y-17554984D01*
X12078587Y-17554984D02*
X12059539Y-17545460D01*
X12059539Y-17545460D02*
X12050015Y-17526412D01*
X12050015Y-17526412D02*
X12050015Y-17354984D01*
X12230968Y-17545460D02*
X12211920Y-17554984D01*
X12211920Y-17554984D02*
X12173825Y-17554984D01*
X12173825Y-17554984D02*
X12154777Y-17545460D01*
X12154777Y-17545460D02*
X12145253Y-17526412D01*
X12145253Y-17526412D02*
X12145253Y-17450222D01*
X12145253Y-17450222D02*
X12154777Y-17431174D01*
X12154777Y-17431174D02*
X12173825Y-17421650D01*
X12173825Y-17421650D02*
X12211920Y-17421650D01*
X12211920Y-17421650D02*
X12230968Y-17431174D01*
X12230968Y-17431174D02*
X12240491Y-17450222D01*
X12240491Y-17450222D02*
X12240491Y-17469270D01*
X12240491Y-17469270D02*
X12145253Y-17488317D01*
X12316682Y-17545460D02*
X12335730Y-17554984D01*
X12335730Y-17554984D02*
X12373825Y-17554984D01*
X12373825Y-17554984D02*
X12392872Y-17545460D01*
X12392872Y-17545460D02*
X12402396Y-17526412D01*
X12402396Y-17526412D02*
X12402396Y-17516889D01*
X12402396Y-17516889D02*
X12392872Y-17497841D01*
X12392872Y-17497841D02*
X12373825Y-17488317D01*
X12373825Y-17488317D02*
X12345253Y-17488317D01*
X12345253Y-17488317D02*
X12326206Y-17478793D01*
X12326206Y-17478793D02*
X12316682Y-17459746D01*
X12316682Y-17459746D02*
X12316682Y-17450222D01*
X12316682Y-17450222D02*
X12326206Y-17431174D01*
X12326206Y-17431174D02*
X12345253Y-17421650D01*
X12345253Y-17421650D02*
X12373825Y-17421650D01*
X12373825Y-17421650D02*
X12392872Y-17431174D01*
X12469063Y-17631174D02*
X12478587Y-17621650D01*
X12478587Y-17621650D02*
X12497634Y-17593079D01*
X12497634Y-17593079D02*
X12507158Y-17574031D01*
X12507158Y-17574031D02*
X12516682Y-17545460D01*
X12516682Y-17545460D02*
X12526206Y-17497841D01*
X12526206Y-17497841D02*
X12526206Y-17459746D01*
X12526206Y-17459746D02*
X12516682Y-17412127D01*
X12516682Y-17412127D02*
X12507158Y-17383555D01*
X12507158Y-17383555D02*
X12497634Y-17364508D01*
X12497634Y-17364508D02*
X12478587Y-17335936D01*
X12478587Y-17335936D02*
X12469063Y-17326412D01*
X7494000Y-17683500D02*
X7694000Y-17883500D01*
X7694000Y-17683500D02*
X7494000Y-17883500D01*
X7594000Y-17883500D02*
X7694000Y-17783500D01*
X7594000Y-17683500D01*
X7494000Y-17783500D01*
X7594000Y-17883500D01*
X7935729Y-17674984D02*
X8059539Y-17674984D01*
X8059539Y-17674984D02*
X7992872Y-17751174D01*
X7992872Y-17751174D02*
X8021443Y-17751174D01*
X8021443Y-17751174D02*
X8040491Y-17760698D01*
X8040491Y-17760698D02*
X8050015Y-17770222D01*
X8050015Y-17770222D02*
X8059539Y-17789270D01*
X8059539Y-17789270D02*
X8059539Y-17836889D01*
X8059539Y-17836889D02*
X8050015Y-17855936D01*
X8050015Y-17855936D02*
X8040491Y-17865460D01*
X8040491Y-17865460D02*
X8021443Y-17874984D01*
X8021443Y-17874984D02*
X7964301Y-17874984D01*
X7964301Y-17874984D02*
X7945253Y-17865460D01*
X7945253Y-17865460D02*
X7935729Y-17855936D01*
X8145253Y-17855936D02*
X8154777Y-17865460D01*
X8154777Y-17865460D02*
X8145253Y-17874984D01*
X8145253Y-17874984D02*
X8135729Y-17865460D01*
X8135729Y-17865460D02*
X8145253Y-17855936D01*
X8145253Y-17855936D02*
X8145253Y-17874984D01*
X8230967Y-17694031D02*
X8240491Y-17684508D01*
X8240491Y-17684508D02*
X8259539Y-17674984D01*
X8259539Y-17674984D02*
X8307158Y-17674984D01*
X8307158Y-17674984D02*
X8326205Y-17684508D01*
X8326205Y-17684508D02*
X8335729Y-17694031D01*
X8335729Y-17694031D02*
X8345253Y-17713079D01*
X8345253Y-17713079D02*
X8345253Y-17732127D01*
X8345253Y-17732127D02*
X8335729Y-17760698D01*
X8335729Y-17760698D02*
X8221443Y-17874984D01*
X8221443Y-17874984D02*
X8345253Y-17874984D01*
X8469063Y-17674984D02*
X8488110Y-17674984D01*
X8488110Y-17674984D02*
X8507158Y-17684508D01*
X8507158Y-17684508D02*
X8516682Y-17694031D01*
X8516682Y-17694031D02*
X8526205Y-17713079D01*
X8526205Y-17713079D02*
X8535729Y-17751174D01*
X8535729Y-17751174D02*
X8535729Y-17798793D01*
X8535729Y-17798793D02*
X8526205Y-17836889D01*
X8526205Y-17836889D02*
X8516682Y-17855936D01*
X8516682Y-17855936D02*
X8507158Y-17865460D01*
X8507158Y-17865460D02*
X8488110Y-17874984D01*
X8488110Y-17874984D02*
X8469063Y-17874984D01*
X8469063Y-17874984D02*
X8450015Y-17865460D01*
X8450015Y-17865460D02*
X8440491Y-17855936D01*
X8440491Y-17855936D02*
X8430967Y-17836889D01*
X8430967Y-17836889D02*
X8421444Y-17798793D01*
X8421444Y-17798793D02*
X8421444Y-17751174D01*
X8421444Y-17751174D02*
X8430967Y-17713079D01*
X8430967Y-17713079D02*
X8440491Y-17694031D01*
X8440491Y-17694031D02*
X8450015Y-17684508D01*
X8450015Y-17684508D02*
X8469063Y-17674984D01*
X8659539Y-17674984D02*
X8678586Y-17674984D01*
X8678586Y-17674984D02*
X8697634Y-17684508D01*
X8697634Y-17684508D02*
X8707158Y-17694031D01*
X8707158Y-17694031D02*
X8716682Y-17713079D01*
X8716682Y-17713079D02*
X8726205Y-17751174D01*
X8726205Y-17751174D02*
X8726205Y-17798793D01*
X8726205Y-17798793D02*
X8716682Y-17836889D01*
X8716682Y-17836889D02*
X8707158Y-17855936D01*
X8707158Y-17855936D02*
X8697634Y-17865460D01*
X8697634Y-17865460D02*
X8678586Y-17874984D01*
X8678586Y-17874984D02*
X8659539Y-17874984D01*
X8659539Y-17874984D02*
X8640491Y-17865460D01*
X8640491Y-17865460D02*
X8630967Y-17855936D01*
X8630967Y-17855936D02*
X8621444Y-17836889D01*
X8621444Y-17836889D02*
X8611920Y-17798793D01*
X8611920Y-17798793D02*
X8611920Y-17751174D01*
X8611920Y-17751174D02*
X8621444Y-17713079D01*
X8621444Y-17713079D02*
X8630967Y-17694031D01*
X8630967Y-17694031D02*
X8640491Y-17684508D01*
X8640491Y-17684508D02*
X8659539Y-17674984D01*
X8811920Y-17874984D02*
X8811920Y-17741650D01*
X8811920Y-17760698D02*
X8821444Y-17751174D01*
X8821444Y-17751174D02*
X8840491Y-17741650D01*
X8840491Y-17741650D02*
X8869063Y-17741650D01*
X8869063Y-17741650D02*
X8888110Y-17751174D01*
X8888110Y-17751174D02*
X8897634Y-17770222D01*
X8897634Y-17770222D02*
X8897634Y-17874984D01*
X8897634Y-17770222D02*
X8907158Y-17751174D01*
X8907158Y-17751174D02*
X8926205Y-17741650D01*
X8926205Y-17741650D02*
X8954777Y-17741650D01*
X8954777Y-17741650D02*
X8973825Y-17751174D01*
X8973825Y-17751174D02*
X8983348Y-17770222D01*
X8983348Y-17770222D02*
X8983348Y-17874984D01*
X9078586Y-17874984D02*
X9078586Y-17741650D01*
X9078586Y-17760698D02*
X9088110Y-17751174D01*
X9088110Y-17751174D02*
X9107158Y-17741650D01*
X9107158Y-17741650D02*
X9135729Y-17741650D01*
X9135729Y-17741650D02*
X9154777Y-17751174D01*
X9154777Y-17751174D02*
X9164301Y-17770222D01*
X9164301Y-17770222D02*
X9164301Y-17874984D01*
X9164301Y-17770222D02*
X9173825Y-17751174D01*
X9173825Y-17751174D02*
X9192872Y-17741650D01*
X9192872Y-17741650D02*
X9221444Y-17741650D01*
X9221444Y-17741650D02*
X9240491Y-17751174D01*
X9240491Y-17751174D02*
X9250015Y-17770222D01*
X9250015Y-17770222D02*
X9250015Y-17874984D01*
X9640491Y-17665460D02*
X9469063Y-17922603D01*
X9897634Y-17674984D02*
X9916682Y-17674984D01*
X9916682Y-17674984D02*
X9935729Y-17684508D01*
X9935729Y-17684508D02*
X9945253Y-17694031D01*
X9945253Y-17694031D02*
X9954777Y-17713079D01*
X9954777Y-17713079D02*
X9964301Y-17751174D01*
X9964301Y-17751174D02*
X9964301Y-17798793D01*
X9964301Y-17798793D02*
X9954777Y-17836889D01*
X9954777Y-17836889D02*
X9945253Y-17855936D01*
X9945253Y-17855936D02*
X9935729Y-17865460D01*
X9935729Y-17865460D02*
X9916682Y-17874984D01*
X9916682Y-17874984D02*
X9897634Y-17874984D01*
X9897634Y-17874984D02*
X9878587Y-17865460D01*
X9878587Y-17865460D02*
X9869063Y-17855936D01*
X9869063Y-17855936D02*
X9859539Y-17836889D01*
X9859539Y-17836889D02*
X9850015Y-17798793D01*
X9850015Y-17798793D02*
X9850015Y-17751174D01*
X9850015Y-17751174D02*
X9859539Y-17713079D01*
X9859539Y-17713079D02*
X9869063Y-17694031D01*
X9869063Y-17694031D02*
X9878587Y-17684508D01*
X9878587Y-17684508D02*
X9897634Y-17674984D01*
X10050015Y-17855936D02*
X10059539Y-17865460D01*
X10059539Y-17865460D02*
X10050015Y-17874984D01*
X10050015Y-17874984D02*
X10040491Y-17865460D01*
X10040491Y-17865460D02*
X10050015Y-17855936D01*
X10050015Y-17855936D02*
X10050015Y-17874984D01*
X10250015Y-17874984D02*
X10135729Y-17874984D01*
X10192872Y-17874984D02*
X10192872Y-17674984D01*
X10192872Y-17674984D02*
X10173825Y-17703555D01*
X10173825Y-17703555D02*
X10154777Y-17722603D01*
X10154777Y-17722603D02*
X10135729Y-17732127D01*
X10326206Y-17694031D02*
X10335729Y-17684508D01*
X10335729Y-17684508D02*
X10354777Y-17674984D01*
X10354777Y-17674984D02*
X10402396Y-17674984D01*
X10402396Y-17674984D02*
X10421444Y-17684508D01*
X10421444Y-17684508D02*
X10430968Y-17694031D01*
X10430968Y-17694031D02*
X10440491Y-17713079D01*
X10440491Y-17713079D02*
X10440491Y-17732127D01*
X10440491Y-17732127D02*
X10430968Y-17760698D01*
X10430968Y-17760698D02*
X10316682Y-17874984D01*
X10316682Y-17874984D02*
X10440491Y-17874984D01*
X10611920Y-17674984D02*
X10573825Y-17674984D01*
X10573825Y-17674984D02*
X10554777Y-17684508D01*
X10554777Y-17684508D02*
X10545253Y-17694031D01*
X10545253Y-17694031D02*
X10526206Y-17722603D01*
X10526206Y-17722603D02*
X10516682Y-17760698D01*
X10516682Y-17760698D02*
X10516682Y-17836889D01*
X10516682Y-17836889D02*
X10526206Y-17855936D01*
X10526206Y-17855936D02*
X10535729Y-17865460D01*
X10535729Y-17865460D02*
X10554777Y-17874984D01*
X10554777Y-17874984D02*
X10592872Y-17874984D01*
X10592872Y-17874984D02*
X10611920Y-17865460D01*
X10611920Y-17865460D02*
X10621444Y-17855936D01*
X10621444Y-17855936D02*
X10630968Y-17836889D01*
X10630968Y-17836889D02*
X10630968Y-17789270D01*
X10630968Y-17789270D02*
X10621444Y-17770222D01*
X10621444Y-17770222D02*
X10611920Y-17760698D01*
X10611920Y-17760698D02*
X10592872Y-17751174D01*
X10592872Y-17751174D02*
X10554777Y-17751174D01*
X10554777Y-17751174D02*
X10535729Y-17760698D01*
X10535729Y-17760698D02*
X10526206Y-17770222D01*
X10526206Y-17770222D02*
X10516682Y-17789270D01*
X10754777Y-17674984D02*
X10773825Y-17674984D01*
X10773825Y-17674984D02*
X10792872Y-17684508D01*
X10792872Y-17684508D02*
X10802396Y-17694031D01*
X10802396Y-17694031D02*
X10811920Y-17713079D01*
X10811920Y-17713079D02*
X10821444Y-17751174D01*
X10821444Y-17751174D02*
X10821444Y-17798793D01*
X10821444Y-17798793D02*
X10811920Y-17836889D01*
X10811920Y-17836889D02*
X10802396Y-17855936D01*
X10802396Y-17855936D02*
X10792872Y-17865460D01*
X10792872Y-17865460D02*
X10773825Y-17874984D01*
X10773825Y-17874984D02*
X10754777Y-17874984D01*
X10754777Y-17874984D02*
X10735729Y-17865460D01*
X10735729Y-17865460D02*
X10726206Y-17855936D01*
X10726206Y-17855936D02*
X10716682Y-17836889D01*
X10716682Y-17836889D02*
X10707158Y-17798793D01*
X10707158Y-17798793D02*
X10707158Y-17751174D01*
X10707158Y-17751174D02*
X10716682Y-17713079D01*
X10716682Y-17713079D02*
X10726206Y-17694031D01*
X10726206Y-17694031D02*
X10735729Y-17684508D01*
X10735729Y-17684508D02*
X10754777Y-17674984D01*
X10897634Y-17674984D02*
X10897634Y-17713079D01*
X10973825Y-17674984D02*
X10973825Y-17713079D01*
X11269063Y-17951174D02*
X11259539Y-17941650D01*
X11259539Y-17941650D02*
X11240491Y-17913079D01*
X11240491Y-17913079D02*
X11230968Y-17894031D01*
X11230968Y-17894031D02*
X11221444Y-17865460D01*
X11221444Y-17865460D02*
X11211920Y-17817841D01*
X11211920Y-17817841D02*
X11211920Y-17779746D01*
X11211920Y-17779746D02*
X11221444Y-17732127D01*
X11221444Y-17732127D02*
X11230968Y-17703555D01*
X11230968Y-17703555D02*
X11240491Y-17684508D01*
X11240491Y-17684508D02*
X11259539Y-17655936D01*
X11259539Y-17655936D02*
X11269063Y-17646412D01*
X11430968Y-17741650D02*
X11430968Y-17874984D01*
X11383348Y-17665460D02*
X11335729Y-17808317D01*
X11335729Y-17808317D02*
X11459539Y-17808317D01*
X11688110Y-17874984D02*
X11688110Y-17674984D01*
X11773825Y-17874984D02*
X11773825Y-17770222D01*
X11773825Y-17770222D02*
X11764301Y-17751174D01*
X11764301Y-17751174D02*
X11745253Y-17741650D01*
X11745253Y-17741650D02*
X11716682Y-17741650D01*
X11716682Y-17741650D02*
X11697634Y-17751174D01*
X11697634Y-17751174D02*
X11688110Y-17760698D01*
X11897634Y-17874984D02*
X11878587Y-17865460D01*
X11878587Y-17865460D02*
X11869063Y-17855936D01*
X11869063Y-17855936D02*
X11859539Y-17836889D01*
X11859539Y-17836889D02*
X11859539Y-17779746D01*
X11859539Y-17779746D02*
X11869063Y-17760698D01*
X11869063Y-17760698D02*
X11878587Y-17751174D01*
X11878587Y-17751174D02*
X11897634Y-17741650D01*
X11897634Y-17741650D02*
X11926206Y-17741650D01*
X11926206Y-17741650D02*
X11945253Y-17751174D01*
X11945253Y-17751174D02*
X11954777Y-17760698D01*
X11954777Y-17760698D02*
X11964301Y-17779746D01*
X11964301Y-17779746D02*
X11964301Y-17836889D01*
X11964301Y-17836889D02*
X11954777Y-17855936D01*
X11954777Y-17855936D02*
X11945253Y-17865460D01*
X11945253Y-17865460D02*
X11926206Y-17874984D01*
X11926206Y-17874984D02*
X11897634Y-17874984D01*
X12078587Y-17874984D02*
X12059539Y-17865460D01*
X12059539Y-17865460D02*
X12050015Y-17846412D01*
X12050015Y-17846412D02*
X12050015Y-17674984D01*
X12230968Y-17865460D02*
X12211920Y-17874984D01*
X12211920Y-17874984D02*
X12173825Y-17874984D01*
X12173825Y-17874984D02*
X12154777Y-17865460D01*
X12154777Y-17865460D02*
X12145253Y-17846412D01*
X12145253Y-17846412D02*
X12145253Y-17770222D01*
X12145253Y-17770222D02*
X12154777Y-17751174D01*
X12154777Y-17751174D02*
X12173825Y-17741650D01*
X12173825Y-17741650D02*
X12211920Y-17741650D01*
X12211920Y-17741650D02*
X12230968Y-17751174D01*
X12230968Y-17751174D02*
X12240491Y-17770222D01*
X12240491Y-17770222D02*
X12240491Y-17789270D01*
X12240491Y-17789270D02*
X12145253Y-17808317D01*
X12316682Y-17865460D02*
X12335730Y-17874984D01*
X12335730Y-17874984D02*
X12373825Y-17874984D01*
X12373825Y-17874984D02*
X12392872Y-17865460D01*
X12392872Y-17865460D02*
X12402396Y-17846412D01*
X12402396Y-17846412D02*
X12402396Y-17836889D01*
X12402396Y-17836889D02*
X12392872Y-17817841D01*
X12392872Y-17817841D02*
X12373825Y-17808317D01*
X12373825Y-17808317D02*
X12345253Y-17808317D01*
X12345253Y-17808317D02*
X12326206Y-17798793D01*
X12326206Y-17798793D02*
X12316682Y-17779746D01*
X12316682Y-17779746D02*
X12316682Y-17770222D01*
X12316682Y-17770222D02*
X12326206Y-17751174D01*
X12326206Y-17751174D02*
X12345253Y-17741650D01*
X12345253Y-17741650D02*
X12373825Y-17741650D01*
X12373825Y-17741650D02*
X12392872Y-17751174D01*
X12469063Y-17951174D02*
X12478587Y-17941650D01*
X12478587Y-17941650D02*
X12497634Y-17913079D01*
X12497634Y-17913079D02*
X12507158Y-17894031D01*
X12507158Y-17894031D02*
X12516682Y-17865460D01*
X12516682Y-17865460D02*
X12526206Y-17817841D01*
X12526206Y-17817841D02*
X12526206Y-17779746D01*
X12526206Y-17779746D02*
X12516682Y-17732127D01*
X12516682Y-17732127D02*
X12507158Y-17703555D01*
X12507158Y-17703555D02*
X12497634Y-17684508D01*
X12497634Y-17684508D02*
X12478587Y-17655936D01*
X12478587Y-17655936D02*
X12469063Y-17646412D01*
M02*
