M48
; DRILL file {KiCad 7.0.7} date Sun Sep 10 22:27:06 2023
; FORMAT={-:-/ absolute / metric / decimal}
; #@! TF.CreationDate,2023-09-10T22:27:06-04:00
; #@! TF.GenerationSoftware,Kicad,Pcbnew,7.0.7
; #@! TF.FileFunction,Plated,1,2,PTH
FMAT,2
METRIC
; #@! TA.AperFunction,Plated,PTH,ViaDrill
T1C0.400
; #@! TA.AperFunction,Plated,PTH,ViaDrill
T2C0.500
; #@! TA.AperFunction,Plated,PTH,ComponentDrill
T3C0.800
; #@! TA.AperFunction,Plated,PTH,ComponentDrill
T4C0.900
; #@! TA.AperFunction,Plated,PTH,ComponentDrill
T5C0.920
; #@! TA.AperFunction,Plated,PTH,ComponentDrill
T6C0.950
; #@! TA.AperFunction,Plated,PTH,ComponentDrill
T7C1.000
; #@! TA.AperFunction,Plated,PTH,ComponentDrill
T8C2.300
; #@! TA.AperFunction,Plated,PTH,ComponentDrill
T9C3.200
%
G90
G05
T1
X78.74Y-57.658
X82.423Y-99.187
X83.091Y-110.188
X83.091Y-106.427
X84.328Y-125.095
X85.09Y-65.532
X85.217Y-105.156
X85.344Y-128.397
X85.471Y-118.364
X86.614Y-79.375
X86.741Y-106.426
X87.884Y-135.382
X89.001Y-107.45
X90.17Y-87.63
X90.17Y-132.08
X90.551Y-137.922
X91.276Y-136.875
X91.567Y-83.185
X91.723Y-68.239
X92.202Y-105.537
X92.71Y-92.71
X93.091Y-140.462
X93.358Y-80.597
X93.531Y-85.92
X93.844Y-105.432
X93.853Y-99.441
X94.22Y-83.212
X94.488Y-127.381
X94.869Y-120.65
X95.504Y-140.208
X96.774Y-64.008
X97.409Y-84.328
X98.123Y-92.16
X98.425Y-88.265
X98.425Y-122.555
X98.806Y-70.866
X98.806Y-110.998
X98.903Y-127.297
X99.205Y-115.864
X99.474Y-129.412
X99.822Y-141.224
X101.011Y-139.654
X102.392Y-129.261
X103.422Y-129.309
X103.505Y-82.042
X104.14Y-136.525
X104.552Y-98.171
X104.899Y-130.034
X104.902Y-133.886
X105.537Y-109.22
X105.791Y-131.191
X106.553Y-71.247
X106.553Y-74.422
X106.68Y-113.665
X107.442Y-131.064
X107.569Y-81.686
X108.585Y-95.785
X108.585Y-97.79
X108.585Y-137.414
X108.712Y-91.44
X108.712Y-93.599
X108.839Y-99.314
X109.982Y-125.857
X110.835Y-106.913
X111.035Y-140.081
X111.125Y-133.052
X112.268Y-116.84
X113.157Y-129.413
X113.417Y-135.503
X113.64Y-104.14
X114.192Y-121.91
X114.3Y-91.313
X114.3Y-130.81
X114.307Y-85.218
X114.476Y-135.079
X114.808Y-70.231
X114.935Y-64.897
X117.879Y-80.645
X118.364Y-71.247
X118.491Y-76.327
X118.64Y-124.837
X118.745Y-78.74
X118.987Y-113.081
X119.469Y-128.397
X119.525Y-83.936
X121.433Y-83.156
X122.338Y-92.493
X123.063Y-137.16
X123.19Y-59.817
X124.079Y-124.46
X124.125Y-96.54
X124.333Y-59.817
X124.333Y-116.84
X124.333Y-128.27
X125.222Y-119.253
X125.691Y-100.242
X125.73Y-136.017
X126.039Y-84.928
X126.805Y-72.332
X128.143Y-95.631
X128.143Y-123.317
X128.162Y-139.954
X128.397Y-89.154
X129.159Y-76.581
X129.54Y-130.81
X129.54Y-139.954
X129.921Y-65.151
X129.928Y-125.957
X130.048Y-73.66
X130.175Y-68.961
X130.653Y-123.559
X130.81Y-101.727
X131.445Y-113.754
X131.572Y-125.73
X131.788Y-105.945
X131.828Y-126.746
X132.08Y-140.208
X132.588Y-61.341
X132.708Y-135.334
X133.096Y-99.06
X133.2Y-114.098
X133.35Y-101.092
X133.481Y-85.625
X133.951Y-104.267
X133.985Y-56.642
X134.123Y-120.71
X134.486Y-102.658
X136.652Y-57.658
X137.48Y-96.52
X138.557Y-70.993
X138.557Y-140.335
X138.621Y-120.207
X139.049Y-109.22
X139.917Y-115.198
X140.97Y-60.325
X141.097Y-114.97
X141.986Y-131.699
X142.113Y-71.247
X143.758Y-94.463
X143.805Y-69.048
X143.891Y-107.823
X144.399Y-93.091
X144.399Y-132.207
X144.431Y-115.593
X144.434Y-135.123
X144.641Y-71.191
X145.161Y-116.586
X145.228Y-68.721
X145.288Y-119.253
X145.337Y-104.417
X145.809Y-109.947
X146.304Y-128.143
X146.558Y-69.977
X146.988Y-64.828
X147.32Y-140.716
X149.549Y-88.874
X149.674Y-89.974
X149.794Y-82.416
X150.114Y-114.33
X150.867Y-134.99
X151.003Y-113.157
X151.515Y-111.67
X152.051Y-54.098
X152.075Y-87.926
X153.297Y-89.708
X153.602Y-96.52
X153.918Y-140.087
X153.924Y-98.552
X154.305Y-128.143
X154.686Y-120.523
X156.337Y-93.091
X156.357Y-83.764
X156.845Y-107.95
X156.892Y-140.97
X157.48Y-65.405
X157.734Y-73.914
X157.988Y-104.199
X157.988Y-137.668
X158.115Y-134.239
X159.512Y-61.087
X160.528Y-59.817
X162.052Y-135.763
X162.161Y-53.889
X162.179Y-96.52
X162.203Y-90.781
X163.12Y-83.819
X165.974Y-81.008
X166.153Y-96.647
X167.132Y-124.46
X167.772Y-81.462
X168.275Y-52.324
X173.736Y-64.77
T2
X86.995Y-111.125
X88.9Y-140.335
X90.805Y-111.252
X91.44Y-140.335
X106.68Y-106.045
X110.49Y-108.585
X126.365Y-106.045
X130.175Y-108.585
X162.56Y-140.41
X165.1Y-137.287
T3
X81.265Y-101.575
X81.265Y-104.115
X81.265Y-106.655
X81.265Y-109.195
X81.265Y-111.735
X81.265Y-114.275
X81.265Y-116.815
X81.265Y-119.355
X81.265Y-121.895
X81.265Y-124.435
X81.265Y-126.975
X81.265Y-129.515
X81.265Y-132.055
X81.265Y-134.595
X85.09Y-87.63
X85.09Y-95.25
X87.67Y-84.455
X87.67Y-98.425
X90.17Y-84.455
X90.17Y-98.425
X92.71Y-87.63
X92.71Y-95.25
X93.98Y-60.96
X93.98Y-71.12
X96.505Y-101.575
X96.505Y-104.115
X96.505Y-106.655
X96.505Y-109.195
X96.505Y-111.735
X96.505Y-114.275
X96.505Y-116.815
X96.505Y-119.355
X96.505Y-121.895
X96.505Y-124.435
X96.505Y-126.975
X96.505Y-129.515
X96.505Y-132.055
X96.505Y-134.595
X96.52Y-86.36
X96.52Y-96.52
X97.155Y-60.96
X97.155Y-71.12
X100.965Y-63.5
X100.965Y-66.04
X100.965Y-68.58
X100.965Y-71.12
X100.965Y-73.66
X100.965Y-76.2
X100.965Y-78.74
X100.965Y-86.35
X100.965Y-88.89
X100.965Y-91.43
X100.965Y-93.97
X100.965Y-96.51
X100.965Y-99.05
X100.965Y-101.59
X100.965Y-104.13
X100.965Y-106.67
X100.965Y-109.21
X100.965Y-111.75
X100.965Y-114.29
X100.965Y-116.83
X100.965Y-119.37
X100.965Y-121.91
X100.965Y-124.45
X100.965Y-126.99
X100.965Y-129.53
X100.965Y-132.07
X100.965Y-134.61
X100.985Y-60.325
X103.485Y-60.325
X106.065Y-60.325
X107.335Y-83.185
X108.565Y-60.325
X108.585Y-63.5
X108.585Y-66.04
X108.585Y-68.58
X108.585Y-71.12
X108.585Y-73.66
X108.585Y-76.2
X108.585Y-78.74
X109.835Y-83.185
X113.03Y-63.5
X113.03Y-66.04
X113.03Y-68.58
X113.03Y-71.12
X113.03Y-73.66
X113.03Y-76.2
X113.03Y-78.74
X113.05Y-60.325
X115.55Y-60.325
X116.205Y-86.35
X116.205Y-88.89
X116.205Y-91.43
X116.205Y-93.97
X116.205Y-96.51
X116.205Y-99.05
X116.205Y-101.59
X116.205Y-104.13
X116.205Y-106.67
X116.205Y-109.21
X116.205Y-111.75
X116.205Y-114.29
X116.205Y-116.83
X116.205Y-119.37
X116.205Y-121.91
X116.205Y-124.45
X116.205Y-126.99
X116.205Y-129.53
X116.205Y-132.07
X116.205Y-134.61
X118.13Y-60.325
X120.63Y-60.325
X120.65Y-63.5
X120.65Y-66.04
X120.65Y-68.58
X120.65Y-71.12
X120.65Y-73.66
X120.65Y-76.2
X120.65Y-78.74
X120.65Y-86.35
X120.65Y-88.89
X120.65Y-91.43
X120.65Y-93.97
X120.65Y-96.51
X120.65Y-99.05
X120.65Y-101.59
X120.65Y-104.13
X120.65Y-106.67
X120.65Y-109.21
X120.65Y-111.75
X120.65Y-114.29
X120.65Y-116.83
X120.65Y-119.37
X120.65Y-121.91
X120.65Y-124.45
X120.65Y-126.99
X120.65Y-129.53
X120.65Y-132.07
X120.65Y-134.61
X125.095Y-63.5
X125.095Y-66.04
X125.095Y-68.58
X125.095Y-71.12
X125.095Y-73.66
X125.095Y-76.2
X125.095Y-78.74
X127.02Y-83.185
X127.655Y-60.325
X129.52Y-83.185
X130.155Y-60.325
X132.715Y-63.5
X132.715Y-66.04
X132.715Y-68.58
X132.715Y-71.12
X132.715Y-73.66
X132.715Y-76.2
X132.715Y-78.74
X135.89Y-86.35
X135.89Y-88.89
X135.89Y-91.43
X135.89Y-93.97
X135.89Y-96.51
X135.89Y-99.05
X135.89Y-101.59
X135.89Y-104.13
X135.89Y-106.67
X135.89Y-109.21
X135.89Y-111.75
X135.89Y-114.29
X135.89Y-116.83
X135.89Y-119.37
X135.89Y-121.91
X135.89Y-124.45
X135.89Y-126.99
X135.89Y-129.53
X135.89Y-132.07
X135.89Y-134.61
X136.525Y-62.23
X136.525Y-64.77
X136.525Y-67.31
X136.525Y-69.85
X136.525Y-72.39
X136.525Y-74.93
X136.525Y-77.47
X136.525Y-80.01
X136.525Y-82.55
X140.335Y-63.5
X140.335Y-66.04
X140.335Y-68.58
X140.335Y-71.12
X140.335Y-73.66
X140.335Y-76.2
X140.335Y-78.74
X140.335Y-81.28
X140.335Y-83.82
X140.335Y-86.36
X140.335Y-92.71
X140.335Y-95.25
X140.335Y-97.79
X140.335Y-100.33
X140.335Y-102.87
X140.335Y-105.41
X140.335Y-107.95
X140.335Y-110.49
X140.335Y-116.82
X140.335Y-119.36
X140.335Y-121.9
X140.335Y-124.44
X140.335Y-126.98
X140.335Y-129.52
X140.335Y-132.06
X140.335Y-134.6
X142.895Y-60.325
X142.895Y-89.535
X142.895Y-113.665
X145.395Y-60.325
X145.395Y-89.535
X145.395Y-113.665
X147.955Y-63.5
X147.955Y-66.04
X147.955Y-68.58
X147.955Y-71.12
X147.955Y-73.66
X147.955Y-76.2
X147.955Y-78.74
X147.955Y-81.28
X147.955Y-83.82
X147.955Y-86.36
X147.955Y-92.71
X147.955Y-95.25
X147.955Y-97.79
X147.955Y-100.33
X147.955Y-102.87
X147.955Y-105.41
X147.955Y-107.95
X147.955Y-110.49
X147.955Y-116.82
X147.955Y-119.36
X147.955Y-121.9
X147.955Y-124.44
X147.955Y-126.98
X147.955Y-129.52
X147.955Y-132.06
X147.955Y-134.6
X152.4Y-63.5
X152.4Y-66.04
X152.4Y-68.58
X152.4Y-71.12
X152.4Y-73.66
X152.4Y-76.2
X152.4Y-78.74
X152.4Y-81.28
X152.4Y-83.82
X152.4Y-86.36
X152.41Y-92.7
X152.41Y-95.24
X152.41Y-97.78
X152.41Y-100.32
X152.41Y-102.86
X152.41Y-105.4
X152.41Y-107.94
X152.41Y-110.48
X152.41Y-116.82
X152.41Y-119.36
X152.41Y-121.9
X152.41Y-124.44
X152.41Y-126.98
X152.41Y-129.52
X152.41Y-132.06
X152.41Y-134.6
X154.96Y-60.325
X154.96Y-89.535
X154.96Y-113.665
X157.46Y-60.325
X157.46Y-89.535
X157.46Y-113.665
X160.02Y-63.5
X160.02Y-66.04
X160.02Y-68.58
X160.02Y-71.12
X160.02Y-73.66
X160.02Y-76.2
X160.02Y-78.74
X160.02Y-81.28
X160.02Y-83.82
X160.02Y-86.36
X160.03Y-92.7
X160.03Y-95.24
X160.03Y-97.78
X160.03Y-100.32
X160.03Y-102.86
X160.03Y-105.4
X160.03Y-107.94
X160.03Y-110.48
X160.03Y-116.82
X160.03Y-119.36
X160.03Y-121.9
X160.03Y-124.44
X160.03Y-126.98
X160.03Y-129.52
X160.03Y-132.06
X160.03Y-134.6
X163.83Y-62.23
X163.83Y-64.77
X163.83Y-67.31
X163.83Y-69.85
X163.83Y-72.39
X163.83Y-74.93
X163.83Y-77.47
X163.83Y-80.01
X163.83Y-82.55
X163.83Y-85.09
X163.83Y-87.63
X163.83Y-92.73
X163.83Y-95.23
X163.83Y-97.81
X163.83Y-100.31
X163.83Y-102.89
X163.83Y-105.39
X163.83Y-107.99
X163.83Y-110.49
X163.83Y-116.86
X163.83Y-119.36
X163.83Y-121.94
X163.83Y-124.44
X163.83Y-127.02
X163.83Y-129.52
X163.83Y-132.1
X163.83Y-134.6
T4
X95.23Y-56.8
X97.77Y-56.8
X100.945Y-56.8
X103.485Y-56.8
X106.68Y-56.8
X109.22Y-56.8
X116.82Y-56.8
X119.36Y-56.8
X122.535Y-56.8
X125.075Y-56.8
X128.25Y-56.8
X130.79Y-56.8
X138.43Y-56.8
X140.97Y-56.8
X144.145Y-56.8
X146.685Y-56.8
X154.305Y-56.8
X156.845Y-56.8
X160.02Y-56.8
X162.56Y-56.8
T5
X90.089Y-59.365
X90.089Y-61.865
X90.089Y-63.865
X90.089Y-66.365
T6
X167.708Y-61.66
X167.708Y-64.16
X169.708Y-61.66
X169.708Y-64.16
T7
X82.55Y-75.565
X82.55Y-78.105
X82.55Y-80.645
X87.63Y-75.565
X87.63Y-78.105
X87.63Y-80.645
X90.17Y-75.565
X90.17Y-78.105
X90.17Y-80.645
X95.25Y-75.565
X95.25Y-78.105
X95.25Y-80.645
X169.109Y-82.511
X169.109Y-85.281
X169.109Y-88.051
X169.109Y-90.821
X169.109Y-93.591
X169.109Y-115.011
X169.109Y-117.781
X169.109Y-120.551
X169.109Y-123.321
X169.109Y-126.091
X171.949Y-83.896
X171.949Y-86.666
X171.949Y-89.436
X171.949Y-92.206
X171.949Y-116.396
X171.949Y-119.166
X171.949Y-121.936
X171.949Y-124.706
T8
X87.379Y-56.295
X87.379Y-69.435
X172.568Y-56.91
X172.568Y-68.91
T9
X169.409Y-75.551
X169.409Y-100.551
X169.409Y-108.051
X169.409Y-133.051
T0
M30
