M48
; DRILL file {KiCad 7.0.6} date Mon Aug  7 17:46:07 2023
; FORMAT={-:-/ absolute / metric / decimal}
; #@! TF.CreationDate,2023-08-07T17:46:07-04:00
; #@! TF.GenerationSoftware,Kicad,Pcbnew,7.0.6
; #@! TF.FileFunction,Plated,1,2,PTH
FMAT,2
METRIC
; #@! TA.AperFunction,Plated,PTH,ViaDrill
T1C0.400
; #@! TA.AperFunction,Plated,PTH,ViaDrill
T2C0.500
; #@! TA.AperFunction,Plated,PTH,ComponentDrill
T3C0.800
; #@! TA.AperFunction,Plated,PTH,ComponentDrill
T4C0.900
; #@! TA.AperFunction,Plated,PTH,ComponentDrill
T5C1.000
; #@! TA.AperFunction,Plated,PTH,ComponentDrill
T6C1.100
; #@! TA.AperFunction,Plated,PTH,ComponentDrill
T7C3.200
%
G90
G05
T1
X103.251Y-86.233
X103.505Y-126.746
X108.311Y-130.854
X112.903Y-123.698
X113.665Y-130.81
X115.408Y-116.459
X117.922Y-130.81
X119.125Y-114.586
X119.352Y-122.174
X120.326Y-97.898
X120.971Y-127.036
X122.555Y-128.571
X124.841Y-129.413
X127.889Y-120.65
X128.149Y-104.902
X128.149Y-107.95
X128.15Y-92.177
X129.54Y-128.27
X132.627Y-76.669
X137.287Y-124.841
X139.465Y-128.009
X141.917Y-86.291
X142.558Y-127.674
X143.305Y-96.906
X147.273Y-79.008
X147.838Y-96.181
T2
X95.25Y-131.445
X97.79Y-131.445
X120.015Y-80.645
X122.936Y-82.169
X140.335Y-80.645
X144.145Y-83.185
X169.545Y-131.445
X172.085Y-131.445
T3
X98.425Y-119.4
X98.425Y-121.9
X101.508Y-116.84
X101.508Y-124.46
X101.6Y-52.705
X101.6Y-93.98
X101.6Y-96.52
X101.6Y-99.06
X101.6Y-101.6
X101.6Y-104.14
X101.6Y-106.68
X101.6Y-109.22
X101.61Y-60.965
X101.61Y-63.505
X101.61Y-66.045
X101.61Y-68.585
X101.61Y-71.125
X101.61Y-73.665
X101.61Y-76.205
X101.61Y-78.745
X101.61Y-81.285
X101.61Y-83.825
X104.16Y-57.785
X104.16Y-90.805
X106.66Y-57.785
X106.66Y-90.805
X109.128Y-116.84
X109.128Y-124.46
X109.22Y-93.98
X109.22Y-96.52
X109.22Y-99.06
X109.22Y-101.6
X109.22Y-104.14
X109.22Y-106.68
X109.22Y-109.22
X109.23Y-60.965
X109.23Y-63.505
X109.23Y-66.045
X109.23Y-68.585
X109.23Y-71.125
X109.23Y-73.665
X109.23Y-76.205
X109.23Y-78.745
X109.23Y-81.285
X109.23Y-83.825
X111.76Y-52.705
X114.3Y-60.96
X114.3Y-63.5
X114.3Y-66.04
X114.3Y-68.58
X114.3Y-71.12
X114.3Y-73.66
X114.3Y-76.2
X114.3Y-78.74
X114.3Y-81.28
X114.3Y-83.82
X114.3Y-86.36
X114.3Y-88.9
X114.3Y-91.44
X114.3Y-93.98
X114.3Y-96.52
X114.3Y-99.06
X114.3Y-101.6
X114.3Y-104.14
X114.3Y-106.68
X114.3Y-109.22
X120.65Y-57.785
X121.92Y-52.705
X123.15Y-57.785
X124.46Y-52.705
X127.0Y-52.705
X129.54Y-52.705
X129.54Y-60.96
X129.54Y-63.5
X129.54Y-66.04
X129.54Y-68.58
X129.54Y-71.12
X129.54Y-73.66
X129.54Y-76.2
X129.54Y-78.74
X129.54Y-81.28
X129.54Y-83.82
X129.54Y-86.36
X129.54Y-88.9
X129.54Y-91.44
X129.54Y-93.98
X129.54Y-96.52
X129.54Y-99.06
X129.54Y-101.6
X129.54Y-104.14
X129.54Y-106.68
X129.54Y-109.22
X132.08Y-52.705
X134.62Y-52.705
X134.62Y-60.96
X134.62Y-63.5
X134.62Y-66.04
X134.62Y-68.58
X134.62Y-71.12
X134.62Y-73.66
X134.62Y-76.2
X134.62Y-78.74
X134.62Y-81.28
X134.62Y-83.82
X134.62Y-86.36
X134.62Y-88.9
X134.62Y-91.44
X134.62Y-93.98
X134.62Y-96.52
X134.62Y-99.06
X134.62Y-101.6
X134.62Y-104.14
X134.62Y-106.68
X134.62Y-109.22
X137.16Y-52.705
X139.7Y-52.705
X140.99Y-57.785
X141.605Y-119.38
X141.605Y-121.88
X142.24Y-52.705
X143.49Y-57.785
X144.77Y-116.83
X144.77Y-124.45
X147.31Y-116.83
X147.31Y-124.45
X149.85Y-116.83
X149.85Y-124.45
X149.86Y-60.96
X149.86Y-63.5
X149.86Y-66.04
X149.86Y-68.58
X149.86Y-71.12
X149.86Y-73.66
X149.86Y-76.2
X149.86Y-78.74
X149.86Y-81.28
X149.86Y-83.82
X149.86Y-86.36
X149.86Y-88.9
X149.86Y-91.44
X149.86Y-93.98
X149.86Y-96.52
X149.86Y-99.06
X149.86Y-101.6
X149.86Y-104.14
X149.86Y-106.68
X149.86Y-109.22
X152.39Y-116.83
X152.39Y-124.45
X152.4Y-52.705
X154.93Y-116.83
X154.93Y-124.45
X154.94Y-60.96
X154.94Y-63.5
X154.94Y-66.04
X154.94Y-68.58
X154.94Y-71.12
X154.94Y-73.66
X154.94Y-76.2
X154.94Y-78.74
X154.95Y-91.43
X154.95Y-93.97
X154.95Y-96.51
X154.95Y-99.05
X154.95Y-101.59
X154.95Y-104.13
X154.95Y-106.67
X154.95Y-109.21
X157.47Y-116.83
X157.47Y-124.45
X157.5Y-57.785
X157.5Y-88.265
X160.0Y-57.785
X160.0Y-88.265
X160.01Y-116.83
X160.01Y-124.45
X162.55Y-116.83
X162.55Y-124.45
X162.56Y-52.705
X162.56Y-60.96
X162.56Y-63.5
X162.56Y-66.04
X162.56Y-68.58
X162.56Y-71.12
X162.56Y-73.66
X162.56Y-76.2
X162.56Y-78.74
X162.57Y-91.43
X162.57Y-93.97
X162.57Y-96.51
X162.57Y-99.05
X162.57Y-101.59
X162.57Y-104.13
X162.57Y-106.67
X162.57Y-109.21
X166.37Y-61.0
X166.37Y-63.5
X166.37Y-66.04
X166.37Y-68.54
X166.37Y-71.16
X166.37Y-73.66
X166.37Y-76.2
X166.37Y-78.7
X166.37Y-91.44
X166.37Y-93.94
X166.37Y-96.52
X166.37Y-99.02
X166.37Y-101.64
X166.37Y-104.14
X166.37Y-106.72
X166.37Y-109.22
T4
X99.06Y-47.275
X101.6Y-47.275
X104.14Y-47.275
X106.68Y-47.275
X119.38Y-47.275
X121.92Y-47.275
X124.46Y-47.275
X127.0Y-47.275
X139.715Y-47.275
X142.255Y-47.275
X144.795Y-47.275
X147.335Y-47.275
X160.02Y-47.275
X162.56Y-47.275
X165.1Y-47.275
X167.64Y-47.275
T5
X86.99Y-86.36
X86.99Y-88.9
X86.995Y-76.2
X86.995Y-78.74
X86.995Y-96.52
X89.53Y-86.36
X89.53Y-88.9
X89.535Y-76.2
X89.535Y-78.74
X89.535Y-96.52
X93.98Y-53.34
X93.98Y-55.88
X93.98Y-58.42
X93.98Y-60.96
X93.98Y-104.14
X93.98Y-106.68
X93.98Y-109.22
X93.98Y-111.76
X93.98Y-114.3
X93.98Y-116.84
X175.595Y-62.06
X175.595Y-64.83
X175.595Y-67.6
X175.595Y-70.37
X175.595Y-73.14
X175.595Y-99.88
X175.595Y-102.65
X175.595Y-105.42
X175.595Y-108.19
X175.595Y-110.96
X178.435Y-63.445
X178.435Y-66.215
X178.435Y-68.985
X178.435Y-71.755
X178.435Y-101.265
X178.435Y-104.035
X178.435Y-106.805
X178.435Y-109.575
T6
X121.285Y-116.84
X121.285Y-124.46
X131.445Y-116.84
X131.445Y-124.46
T7
X175.895Y-55.1
X175.895Y-80.1
X175.895Y-92.92
X175.895Y-117.92
T0
M30
