G04 #@! TF.GenerationSoftware,KiCad,Pcbnew,7.0.6*
G04 #@! TF.CreationDate,2023-08-07T17:45:37-04:00*
G04 #@! TF.ProjectId,3 - Quad Serial card v3,33202d20-5175-4616-9420-53657269616c,1*
G04 #@! TF.SameCoordinates,Original*
G04 #@! TF.FileFunction,Legend,Bot*
G04 #@! TF.FilePolarity,Positive*
%FSLAX46Y46*%
G04 Gerber Fmt 4.6, Leading zero omitted, Abs format (unit mm)*
G04 Created by KiCad (PCBNEW 7.0.6) date 2023-08-07 17:45:37*
%MOMM*%
%LPD*%
G01*
G04 APERTURE LIST*
%ADD10C,0.150000*%
%ADD11C,0.200000*%
%ADD12C,0.300000*%
%ADD13C,0.250000*%
%ADD14C,0.220000*%
%ADD15R,1.700000X1.700000*%
%ADD16O,1.700000X1.700000*%
%ADD17C,1.600000*%
%ADD18R,1.800000X1.800000*%
%ADD19C,1.800000*%
%ADD20O,1.600000X1.600000*%
%ADD21R,1.600000X1.600000*%
%ADD22R,1.780000X7.620000*%
%ADD23C,4.000000*%
%ADD24R,2.200000X2.200000*%
%ADD25O,2.200000X2.200000*%
G04 APERTURE END LIST*
D10*
X108505238Y-119567438D02*
X107171905Y-121567438D01*
X107171905Y-119567438D02*
X108505238Y-121567438D01*
X106695714Y-119567438D02*
X105552857Y-119567438D01*
X106124286Y-121567438D02*
X106124286Y-119567438D01*
X104981428Y-120996009D02*
X104029047Y-120996009D01*
X105171904Y-121567438D02*
X104505238Y-119567438D01*
X104505238Y-119567438D02*
X103838571Y-121567438D01*
X102219523Y-121567438D02*
X103171904Y-121567438D01*
X103171904Y-121567438D02*
X103171904Y-119567438D01*
X160003333Y-119567438D02*
X158670000Y-119567438D01*
X158670000Y-119567438D02*
X159527143Y-121567438D01*
X157050952Y-120234104D02*
X157050952Y-121567438D01*
X157527143Y-119472200D02*
X158003333Y-120900771D01*
X158003333Y-120900771D02*
X156765238Y-120900771D01*
X156098571Y-120996009D02*
X155146190Y-120996009D01*
X156289047Y-121567438D02*
X155622381Y-119567438D01*
X155622381Y-119567438D02*
X154955714Y-121567438D01*
X153146190Y-121376961D02*
X153241428Y-121472200D01*
X153241428Y-121472200D02*
X153527142Y-121567438D01*
X153527142Y-121567438D02*
X153717618Y-121567438D01*
X153717618Y-121567438D02*
X154003333Y-121472200D01*
X154003333Y-121472200D02*
X154193809Y-121281723D01*
X154193809Y-121281723D02*
X154289047Y-121091247D01*
X154289047Y-121091247D02*
X154384285Y-120710295D01*
X154384285Y-120710295D02*
X154384285Y-120424580D01*
X154384285Y-120424580D02*
X154289047Y-120043628D01*
X154289047Y-120043628D02*
X154193809Y-119853152D01*
X154193809Y-119853152D02*
X154003333Y-119662676D01*
X154003333Y-119662676D02*
X153717618Y-119567438D01*
X153717618Y-119567438D02*
X153527142Y-119567438D01*
X153527142Y-119567438D02*
X153241428Y-119662676D01*
X153241428Y-119662676D02*
X153146190Y-119757914D01*
X151241428Y-121567438D02*
X152384285Y-121567438D01*
X151812857Y-121567438D02*
X151812857Y-119567438D01*
X151812857Y-119567438D02*
X152003333Y-119853152D01*
X152003333Y-119853152D02*
X152193809Y-120043628D01*
X152193809Y-120043628D02*
X152384285Y-120138866D01*
X150574761Y-119567438D02*
X149336666Y-119567438D01*
X149336666Y-119567438D02*
X150003333Y-120329342D01*
X150003333Y-120329342D02*
X149717618Y-120329342D01*
X149717618Y-120329342D02*
X149527142Y-120424580D01*
X149527142Y-120424580D02*
X149431904Y-120519819D01*
X149431904Y-120519819D02*
X149336666Y-120710295D01*
X149336666Y-120710295D02*
X149336666Y-121186485D01*
X149336666Y-121186485D02*
X149431904Y-121376961D01*
X149431904Y-121376961D02*
X149527142Y-121472200D01*
X149527142Y-121472200D02*
X149717618Y-121567438D01*
X149717618Y-121567438D02*
X150289047Y-121567438D01*
X150289047Y-121567438D02*
X150479523Y-121472200D01*
X150479523Y-121472200D02*
X150574761Y-121376961D01*
X148193809Y-120424580D02*
X148384285Y-120329342D01*
X148384285Y-120329342D02*
X148479523Y-120234104D01*
X148479523Y-120234104D02*
X148574761Y-120043628D01*
X148574761Y-120043628D02*
X148574761Y-119948390D01*
X148574761Y-119948390D02*
X148479523Y-119757914D01*
X148479523Y-119757914D02*
X148384285Y-119662676D01*
X148384285Y-119662676D02*
X148193809Y-119567438D01*
X148193809Y-119567438D02*
X147812856Y-119567438D01*
X147812856Y-119567438D02*
X147622380Y-119662676D01*
X147622380Y-119662676D02*
X147527142Y-119757914D01*
X147527142Y-119757914D02*
X147431904Y-119948390D01*
X147431904Y-119948390D02*
X147431904Y-120043628D01*
X147431904Y-120043628D02*
X147527142Y-120234104D01*
X147527142Y-120234104D02*
X147622380Y-120329342D01*
X147622380Y-120329342D02*
X147812856Y-120424580D01*
X147812856Y-120424580D02*
X148193809Y-120424580D01*
X148193809Y-120424580D02*
X148384285Y-120519819D01*
X148384285Y-120519819D02*
X148479523Y-120615057D01*
X148479523Y-120615057D02*
X148574761Y-120805533D01*
X148574761Y-120805533D02*
X148574761Y-121186485D01*
X148574761Y-121186485D02*
X148479523Y-121376961D01*
X148479523Y-121376961D02*
X148384285Y-121472200D01*
X148384285Y-121472200D02*
X148193809Y-121567438D01*
X148193809Y-121567438D02*
X147812856Y-121567438D01*
X147812856Y-121567438D02*
X147622380Y-121472200D01*
X147622380Y-121472200D02*
X147527142Y-121376961D01*
X147527142Y-121376961D02*
X147431904Y-121186485D01*
X147431904Y-121186485D02*
X147431904Y-120805533D01*
X147431904Y-120805533D02*
X147527142Y-120615057D01*
X147527142Y-120615057D02*
X147622380Y-120519819D01*
X147622380Y-120519819D02*
X147812856Y-120424580D01*
D11*
X143862542Y-103018571D02*
X143862542Y-101018571D01*
X143862542Y-101018571D02*
X140862542Y-103018571D01*
X140862542Y-103018571D02*
X140862542Y-101018571D01*
X142576828Y-99447142D02*
X142719685Y-99732857D01*
X142719685Y-99732857D02*
X142862542Y-99875714D01*
X142862542Y-99875714D02*
X143148257Y-100018571D01*
X143148257Y-100018571D02*
X143291114Y-100018571D01*
X143291114Y-100018571D02*
X143576828Y-99875714D01*
X143576828Y-99875714D02*
X143719685Y-99732857D01*
X143719685Y-99732857D02*
X143862542Y-99447142D01*
X143862542Y-99447142D02*
X143862542Y-98875714D01*
X143862542Y-98875714D02*
X143719685Y-98590000D01*
X143719685Y-98590000D02*
X143576828Y-98447142D01*
X143576828Y-98447142D02*
X143291114Y-98304285D01*
X143291114Y-98304285D02*
X143148257Y-98304285D01*
X143148257Y-98304285D02*
X142862542Y-98447142D01*
X142862542Y-98447142D02*
X142719685Y-98590000D01*
X142719685Y-98590000D02*
X142576828Y-98875714D01*
X142576828Y-98875714D02*
X142576828Y-99447142D01*
X142576828Y-99447142D02*
X142433971Y-99732857D01*
X142433971Y-99732857D02*
X142291114Y-99875714D01*
X142291114Y-99875714D02*
X142005400Y-100018571D01*
X142005400Y-100018571D02*
X141433971Y-100018571D01*
X141433971Y-100018571D02*
X141148257Y-99875714D01*
X141148257Y-99875714D02*
X141005400Y-99732857D01*
X141005400Y-99732857D02*
X140862542Y-99447142D01*
X140862542Y-99447142D02*
X140862542Y-98875714D01*
X140862542Y-98875714D02*
X141005400Y-98590000D01*
X141005400Y-98590000D02*
X141148257Y-98447142D01*
X141148257Y-98447142D02*
X141433971Y-98304285D01*
X141433971Y-98304285D02*
X142005400Y-98304285D01*
X142005400Y-98304285D02*
X142291114Y-98447142D01*
X142291114Y-98447142D02*
X142433971Y-98590000D01*
X142433971Y-98590000D02*
X142576828Y-98875714D01*
X142862542Y-95732857D02*
X140862542Y-95732857D01*
X144005400Y-96447142D02*
X141862542Y-97161428D01*
X141862542Y-97161428D02*
X141862542Y-95304285D01*
X141148257Y-92447142D02*
X141005400Y-92589999D01*
X141005400Y-92589999D02*
X140862542Y-93018571D01*
X140862542Y-93018571D02*
X140862542Y-93304285D01*
X140862542Y-93304285D02*
X141005400Y-93732856D01*
X141005400Y-93732856D02*
X141291114Y-94018571D01*
X141291114Y-94018571D02*
X141576828Y-94161428D01*
X141576828Y-94161428D02*
X142148257Y-94304285D01*
X142148257Y-94304285D02*
X142576828Y-94304285D01*
X142576828Y-94304285D02*
X143148257Y-94161428D01*
X143148257Y-94161428D02*
X143433971Y-94018571D01*
X143433971Y-94018571D02*
X143719685Y-93732856D01*
X143719685Y-93732856D02*
X143862542Y-93304285D01*
X143862542Y-93304285D02*
X143862542Y-93018571D01*
X143862542Y-93018571D02*
X143719685Y-92589999D01*
X143719685Y-92589999D02*
X143576828Y-92447142D01*
X142862542Y-89875714D02*
X140862542Y-89875714D01*
X144005400Y-90589999D02*
X141862542Y-91304285D01*
X141862542Y-91304285D02*
X141862542Y-89447142D01*
X143862542Y-87732856D02*
X143862542Y-87447142D01*
X143862542Y-87447142D02*
X143719685Y-87161428D01*
X143719685Y-87161428D02*
X143576828Y-87018571D01*
X143576828Y-87018571D02*
X143291114Y-86875713D01*
X143291114Y-86875713D02*
X142719685Y-86732856D01*
X142719685Y-86732856D02*
X142005400Y-86732856D01*
X142005400Y-86732856D02*
X141433971Y-86875713D01*
X141433971Y-86875713D02*
X141148257Y-87018571D01*
X141148257Y-87018571D02*
X141005400Y-87161428D01*
X141005400Y-87161428D02*
X140862542Y-87447142D01*
X140862542Y-87447142D02*
X140862542Y-87732856D01*
X140862542Y-87732856D02*
X141005400Y-88018571D01*
X141005400Y-88018571D02*
X141148257Y-88161428D01*
X141148257Y-88161428D02*
X141433971Y-88304285D01*
X141433971Y-88304285D02*
X142005400Y-88447142D01*
X142005400Y-88447142D02*
X142719685Y-88447142D01*
X142719685Y-88447142D02*
X143291114Y-88304285D01*
X143291114Y-88304285D02*
X143576828Y-88161428D01*
X143576828Y-88161428D02*
X143719685Y-88018571D01*
X143719685Y-88018571D02*
X143862542Y-87732856D01*
X140862542Y-83875713D02*
X140862542Y-85589999D01*
X140862542Y-84732856D02*
X143862542Y-84732856D01*
X143862542Y-84732856D02*
X143433971Y-85018570D01*
X143433971Y-85018570D02*
X143148257Y-85304285D01*
X143148257Y-85304285D02*
X143005400Y-85589999D01*
X143862542Y-82018570D02*
X143862542Y-81732856D01*
X143862542Y-81732856D02*
X143719685Y-81447142D01*
X143719685Y-81447142D02*
X143576828Y-81304285D01*
X143576828Y-81304285D02*
X143291114Y-81161427D01*
X143291114Y-81161427D02*
X142719685Y-81018570D01*
X142719685Y-81018570D02*
X142005400Y-81018570D01*
X142005400Y-81018570D02*
X141433971Y-81161427D01*
X141433971Y-81161427D02*
X141148257Y-81304285D01*
X141148257Y-81304285D02*
X141005400Y-81447142D01*
X141005400Y-81447142D02*
X140862542Y-81732856D01*
X140862542Y-81732856D02*
X140862542Y-82018570D01*
X140862542Y-82018570D02*
X141005400Y-82304285D01*
X141005400Y-82304285D02*
X141148257Y-82447142D01*
X141148257Y-82447142D02*
X141433971Y-82589999D01*
X141433971Y-82589999D02*
X142005400Y-82732856D01*
X142005400Y-82732856D02*
X142719685Y-82732856D01*
X142719685Y-82732856D02*
X143291114Y-82589999D01*
X143291114Y-82589999D02*
X143576828Y-82447142D01*
X143576828Y-82447142D02*
X143719685Y-82304285D01*
X143719685Y-82304285D02*
X143862542Y-82018570D01*
X139719685Y-76589999D02*
X139862542Y-76732856D01*
X139862542Y-76732856D02*
X140291114Y-77018570D01*
X140291114Y-77018570D02*
X140576828Y-77161428D01*
X140576828Y-77161428D02*
X141005400Y-77304285D01*
X141005400Y-77304285D02*
X141719685Y-77447142D01*
X141719685Y-77447142D02*
X142291114Y-77447142D01*
X142291114Y-77447142D02*
X143005400Y-77304285D01*
X143005400Y-77304285D02*
X143433971Y-77161428D01*
X143433971Y-77161428D02*
X143719685Y-77018570D01*
X143719685Y-77018570D02*
X144148257Y-76732856D01*
X144148257Y-76732856D02*
X144291114Y-76589999D01*
X141005400Y-75589999D02*
X140862542Y-75161428D01*
X140862542Y-75161428D02*
X140862542Y-74447142D01*
X140862542Y-74447142D02*
X141005400Y-74161428D01*
X141005400Y-74161428D02*
X141148257Y-74018570D01*
X141148257Y-74018570D02*
X141433971Y-73875713D01*
X141433971Y-73875713D02*
X141719685Y-73875713D01*
X141719685Y-73875713D02*
X142005400Y-74018570D01*
X142005400Y-74018570D02*
X142148257Y-74161428D01*
X142148257Y-74161428D02*
X142291114Y-74447142D01*
X142291114Y-74447142D02*
X142433971Y-75018570D01*
X142433971Y-75018570D02*
X142576828Y-75304285D01*
X142576828Y-75304285D02*
X142719685Y-75447142D01*
X142719685Y-75447142D02*
X143005400Y-75589999D01*
X143005400Y-75589999D02*
X143291114Y-75589999D01*
X143291114Y-75589999D02*
X143576828Y-75447142D01*
X143576828Y-75447142D02*
X143719685Y-75304285D01*
X143719685Y-75304285D02*
X143862542Y-75018570D01*
X143862542Y-75018570D02*
X143862542Y-74304285D01*
X143862542Y-74304285D02*
X143719685Y-73875713D01*
X140862542Y-72589999D02*
X143862542Y-72589999D01*
X143862542Y-70589999D02*
X143862542Y-70018571D01*
X143862542Y-70018571D02*
X143719685Y-69732856D01*
X143719685Y-69732856D02*
X143433971Y-69447142D01*
X143433971Y-69447142D02*
X142862542Y-69304285D01*
X142862542Y-69304285D02*
X141862542Y-69304285D01*
X141862542Y-69304285D02*
X141291114Y-69447142D01*
X141291114Y-69447142D02*
X141005400Y-69732856D01*
X141005400Y-69732856D02*
X140862542Y-70018571D01*
X140862542Y-70018571D02*
X140862542Y-70589999D01*
X140862542Y-70589999D02*
X141005400Y-70875714D01*
X141005400Y-70875714D02*
X141291114Y-71161428D01*
X141291114Y-71161428D02*
X141862542Y-71304285D01*
X141862542Y-71304285D02*
X142862542Y-71304285D01*
X142862542Y-71304285D02*
X143433971Y-71161428D01*
X143433971Y-71161428D02*
X143719685Y-70875714D01*
X143719685Y-70875714D02*
X143862542Y-70589999D01*
X139719685Y-68304285D02*
X139862542Y-68161428D01*
X139862542Y-68161428D02*
X140291114Y-67875714D01*
X140291114Y-67875714D02*
X140576828Y-67732857D01*
X140576828Y-67732857D02*
X141005400Y-67589999D01*
X141005400Y-67589999D02*
X141719685Y-67447142D01*
X141719685Y-67447142D02*
X142291114Y-67447142D01*
X142291114Y-67447142D02*
X143005400Y-67589999D01*
X143005400Y-67589999D02*
X143433971Y-67732857D01*
X143433971Y-67732857D02*
X143719685Y-67875714D01*
X143719685Y-67875714D02*
X144148257Y-68161428D01*
X144148257Y-68161428D02*
X144291114Y-68304285D01*
X123542542Y-103018571D02*
X123542542Y-101018571D01*
X123542542Y-101018571D02*
X120542542Y-103018571D01*
X120542542Y-103018571D02*
X120542542Y-101018571D01*
X122256828Y-99447142D02*
X122399685Y-99732857D01*
X122399685Y-99732857D02*
X122542542Y-99875714D01*
X122542542Y-99875714D02*
X122828257Y-100018571D01*
X122828257Y-100018571D02*
X122971114Y-100018571D01*
X122971114Y-100018571D02*
X123256828Y-99875714D01*
X123256828Y-99875714D02*
X123399685Y-99732857D01*
X123399685Y-99732857D02*
X123542542Y-99447142D01*
X123542542Y-99447142D02*
X123542542Y-98875714D01*
X123542542Y-98875714D02*
X123399685Y-98590000D01*
X123399685Y-98590000D02*
X123256828Y-98447142D01*
X123256828Y-98447142D02*
X122971114Y-98304285D01*
X122971114Y-98304285D02*
X122828257Y-98304285D01*
X122828257Y-98304285D02*
X122542542Y-98447142D01*
X122542542Y-98447142D02*
X122399685Y-98590000D01*
X122399685Y-98590000D02*
X122256828Y-98875714D01*
X122256828Y-98875714D02*
X122256828Y-99447142D01*
X122256828Y-99447142D02*
X122113971Y-99732857D01*
X122113971Y-99732857D02*
X121971114Y-99875714D01*
X121971114Y-99875714D02*
X121685400Y-100018571D01*
X121685400Y-100018571D02*
X121113971Y-100018571D01*
X121113971Y-100018571D02*
X120828257Y-99875714D01*
X120828257Y-99875714D02*
X120685400Y-99732857D01*
X120685400Y-99732857D02*
X120542542Y-99447142D01*
X120542542Y-99447142D02*
X120542542Y-98875714D01*
X120542542Y-98875714D02*
X120685400Y-98590000D01*
X120685400Y-98590000D02*
X120828257Y-98447142D01*
X120828257Y-98447142D02*
X121113971Y-98304285D01*
X121113971Y-98304285D02*
X121685400Y-98304285D01*
X121685400Y-98304285D02*
X121971114Y-98447142D01*
X121971114Y-98447142D02*
X122113971Y-98590000D01*
X122113971Y-98590000D02*
X122256828Y-98875714D01*
X122542542Y-95732857D02*
X120542542Y-95732857D01*
X123685400Y-96447142D02*
X121542542Y-97161428D01*
X121542542Y-97161428D02*
X121542542Y-95304285D01*
X120828257Y-92447142D02*
X120685400Y-92589999D01*
X120685400Y-92589999D02*
X120542542Y-93018571D01*
X120542542Y-93018571D02*
X120542542Y-93304285D01*
X120542542Y-93304285D02*
X120685400Y-93732856D01*
X120685400Y-93732856D02*
X120971114Y-94018571D01*
X120971114Y-94018571D02*
X121256828Y-94161428D01*
X121256828Y-94161428D02*
X121828257Y-94304285D01*
X121828257Y-94304285D02*
X122256828Y-94304285D01*
X122256828Y-94304285D02*
X122828257Y-94161428D01*
X122828257Y-94161428D02*
X123113971Y-94018571D01*
X123113971Y-94018571D02*
X123399685Y-93732856D01*
X123399685Y-93732856D02*
X123542542Y-93304285D01*
X123542542Y-93304285D02*
X123542542Y-93018571D01*
X123542542Y-93018571D02*
X123399685Y-92589999D01*
X123399685Y-92589999D02*
X123256828Y-92447142D01*
X122542542Y-89875714D02*
X120542542Y-89875714D01*
X123685400Y-90589999D02*
X121542542Y-91304285D01*
X121542542Y-91304285D02*
X121542542Y-89447142D01*
X123542542Y-87732856D02*
X123542542Y-87447142D01*
X123542542Y-87447142D02*
X123399685Y-87161428D01*
X123399685Y-87161428D02*
X123256828Y-87018571D01*
X123256828Y-87018571D02*
X122971114Y-86875713D01*
X122971114Y-86875713D02*
X122399685Y-86732856D01*
X122399685Y-86732856D02*
X121685400Y-86732856D01*
X121685400Y-86732856D02*
X121113971Y-86875713D01*
X121113971Y-86875713D02*
X120828257Y-87018571D01*
X120828257Y-87018571D02*
X120685400Y-87161428D01*
X120685400Y-87161428D02*
X120542542Y-87447142D01*
X120542542Y-87447142D02*
X120542542Y-87732856D01*
X120542542Y-87732856D02*
X120685400Y-88018571D01*
X120685400Y-88018571D02*
X120828257Y-88161428D01*
X120828257Y-88161428D02*
X121113971Y-88304285D01*
X121113971Y-88304285D02*
X121685400Y-88447142D01*
X121685400Y-88447142D02*
X122399685Y-88447142D01*
X122399685Y-88447142D02*
X122971114Y-88304285D01*
X122971114Y-88304285D02*
X123256828Y-88161428D01*
X123256828Y-88161428D02*
X123399685Y-88018571D01*
X123399685Y-88018571D02*
X123542542Y-87732856D01*
X120542542Y-83875713D02*
X120542542Y-85589999D01*
X120542542Y-84732856D02*
X123542542Y-84732856D01*
X123542542Y-84732856D02*
X123113971Y-85018570D01*
X123113971Y-85018570D02*
X122828257Y-85304285D01*
X122828257Y-85304285D02*
X122685400Y-85589999D01*
X123542542Y-82018570D02*
X123542542Y-81732856D01*
X123542542Y-81732856D02*
X123399685Y-81447142D01*
X123399685Y-81447142D02*
X123256828Y-81304285D01*
X123256828Y-81304285D02*
X122971114Y-81161427D01*
X122971114Y-81161427D02*
X122399685Y-81018570D01*
X122399685Y-81018570D02*
X121685400Y-81018570D01*
X121685400Y-81018570D02*
X121113971Y-81161427D01*
X121113971Y-81161427D02*
X120828257Y-81304285D01*
X120828257Y-81304285D02*
X120685400Y-81447142D01*
X120685400Y-81447142D02*
X120542542Y-81732856D01*
X120542542Y-81732856D02*
X120542542Y-82018570D01*
X120542542Y-82018570D02*
X120685400Y-82304285D01*
X120685400Y-82304285D02*
X120828257Y-82447142D01*
X120828257Y-82447142D02*
X121113971Y-82589999D01*
X121113971Y-82589999D02*
X121685400Y-82732856D01*
X121685400Y-82732856D02*
X122399685Y-82732856D01*
X122399685Y-82732856D02*
X122971114Y-82589999D01*
X122971114Y-82589999D02*
X123256828Y-82447142D01*
X123256828Y-82447142D02*
X123399685Y-82304285D01*
X123399685Y-82304285D02*
X123542542Y-82018570D01*
X119399685Y-76589999D02*
X119542542Y-76732856D01*
X119542542Y-76732856D02*
X119971114Y-77018570D01*
X119971114Y-77018570D02*
X120256828Y-77161428D01*
X120256828Y-77161428D02*
X120685400Y-77304285D01*
X120685400Y-77304285D02*
X121399685Y-77447142D01*
X121399685Y-77447142D02*
X121971114Y-77447142D01*
X121971114Y-77447142D02*
X122685400Y-77304285D01*
X122685400Y-77304285D02*
X123113971Y-77161428D01*
X123113971Y-77161428D02*
X123399685Y-77018570D01*
X123399685Y-77018570D02*
X123828257Y-76732856D01*
X123828257Y-76732856D02*
X123971114Y-76589999D01*
X120685400Y-75589999D02*
X120542542Y-75161428D01*
X120542542Y-75161428D02*
X120542542Y-74447142D01*
X120542542Y-74447142D02*
X120685400Y-74161428D01*
X120685400Y-74161428D02*
X120828257Y-74018570D01*
X120828257Y-74018570D02*
X121113971Y-73875713D01*
X121113971Y-73875713D02*
X121399685Y-73875713D01*
X121399685Y-73875713D02*
X121685400Y-74018570D01*
X121685400Y-74018570D02*
X121828257Y-74161428D01*
X121828257Y-74161428D02*
X121971114Y-74447142D01*
X121971114Y-74447142D02*
X122113971Y-75018570D01*
X122113971Y-75018570D02*
X122256828Y-75304285D01*
X122256828Y-75304285D02*
X122399685Y-75447142D01*
X122399685Y-75447142D02*
X122685400Y-75589999D01*
X122685400Y-75589999D02*
X122971114Y-75589999D01*
X122971114Y-75589999D02*
X123256828Y-75447142D01*
X123256828Y-75447142D02*
X123399685Y-75304285D01*
X123399685Y-75304285D02*
X123542542Y-75018570D01*
X123542542Y-75018570D02*
X123542542Y-74304285D01*
X123542542Y-74304285D02*
X123399685Y-73875713D01*
X120542542Y-72589999D02*
X123542542Y-72589999D01*
X123542542Y-70589999D02*
X123542542Y-70018571D01*
X123542542Y-70018571D02*
X123399685Y-69732856D01*
X123399685Y-69732856D02*
X123113971Y-69447142D01*
X123113971Y-69447142D02*
X122542542Y-69304285D01*
X122542542Y-69304285D02*
X121542542Y-69304285D01*
X121542542Y-69304285D02*
X120971114Y-69447142D01*
X120971114Y-69447142D02*
X120685400Y-69732856D01*
X120685400Y-69732856D02*
X120542542Y-70018571D01*
X120542542Y-70018571D02*
X120542542Y-70589999D01*
X120542542Y-70589999D02*
X120685400Y-70875714D01*
X120685400Y-70875714D02*
X120971114Y-71161428D01*
X120971114Y-71161428D02*
X121542542Y-71304285D01*
X121542542Y-71304285D02*
X122542542Y-71304285D01*
X122542542Y-71304285D02*
X123113971Y-71161428D01*
X123113971Y-71161428D02*
X123399685Y-70875714D01*
X123399685Y-70875714D02*
X123542542Y-70589999D01*
X119399685Y-68304285D02*
X119542542Y-68161428D01*
X119542542Y-68161428D02*
X119971114Y-67875714D01*
X119971114Y-67875714D02*
X120256828Y-67732857D01*
X120256828Y-67732857D02*
X120685400Y-67589999D01*
X120685400Y-67589999D02*
X121399685Y-67447142D01*
X121399685Y-67447142D02*
X121971114Y-67447142D01*
X121971114Y-67447142D02*
X122685400Y-67589999D01*
X122685400Y-67589999D02*
X123113971Y-67732857D01*
X123113971Y-67732857D02*
X123399685Y-67875714D01*
X123399685Y-67875714D02*
X123828257Y-68161428D01*
X123828257Y-68161428D02*
X123971114Y-68304285D01*
D10*
X106492561Y-106980952D02*
X106492561Y-105647619D01*
X106492561Y-105647619D02*
X104492561Y-106504762D01*
X105825895Y-104028571D02*
X104492561Y-104028571D01*
X106587800Y-104504762D02*
X105159228Y-104980952D01*
X105159228Y-104980952D02*
X105159228Y-103742857D01*
X105063990Y-103076190D02*
X105063990Y-102123809D01*
X104492561Y-103266666D02*
X106492561Y-102600000D01*
X106492561Y-102600000D02*
X104492561Y-101933333D01*
X104683038Y-100123809D02*
X104587800Y-100219047D01*
X104587800Y-100219047D02*
X104492561Y-100504761D01*
X104492561Y-100504761D02*
X104492561Y-100695237D01*
X104492561Y-100695237D02*
X104587800Y-100980952D01*
X104587800Y-100980952D02*
X104778276Y-101171428D01*
X104778276Y-101171428D02*
X104968752Y-101266666D01*
X104968752Y-101266666D02*
X105349704Y-101361904D01*
X105349704Y-101361904D02*
X105635419Y-101361904D01*
X105635419Y-101361904D02*
X106016371Y-101266666D01*
X106016371Y-101266666D02*
X106206847Y-101171428D01*
X106206847Y-101171428D02*
X106397323Y-100980952D01*
X106397323Y-100980952D02*
X106492561Y-100695237D01*
X106492561Y-100695237D02*
X106492561Y-100504761D01*
X106492561Y-100504761D02*
X106397323Y-100219047D01*
X106397323Y-100219047D02*
X106302085Y-100123809D01*
X106492561Y-99457142D02*
X106492561Y-98219047D01*
X106492561Y-98219047D02*
X105730657Y-98885714D01*
X105730657Y-98885714D02*
X105730657Y-98599999D01*
X105730657Y-98599999D02*
X105635419Y-98409523D01*
X105635419Y-98409523D02*
X105540180Y-98314285D01*
X105540180Y-98314285D02*
X105349704Y-98219047D01*
X105349704Y-98219047D02*
X104873514Y-98219047D01*
X104873514Y-98219047D02*
X104683038Y-98314285D01*
X104683038Y-98314285D02*
X104587800Y-98409523D01*
X104587800Y-98409523D02*
X104492561Y-98599999D01*
X104492561Y-98599999D02*
X104492561Y-99171428D01*
X104492561Y-99171428D02*
X104587800Y-99361904D01*
X104587800Y-99361904D02*
X104683038Y-99457142D01*
X106302085Y-97457142D02*
X106397323Y-97361904D01*
X106397323Y-97361904D02*
X106492561Y-97171428D01*
X106492561Y-97171428D02*
X106492561Y-96695237D01*
X106492561Y-96695237D02*
X106397323Y-96504761D01*
X106397323Y-96504761D02*
X106302085Y-96409523D01*
X106302085Y-96409523D02*
X106111609Y-96314285D01*
X106111609Y-96314285D02*
X105921133Y-96314285D01*
X105921133Y-96314285D02*
X105635419Y-96409523D01*
X105635419Y-96409523D02*
X104492561Y-97552380D01*
X104492561Y-97552380D02*
X104492561Y-96314285D01*
X106492561Y-78913809D02*
X106492561Y-77580476D01*
X106492561Y-77580476D02*
X104492561Y-78437619D01*
X105825895Y-75961428D02*
X104492561Y-75961428D01*
X106587800Y-76437619D02*
X105159228Y-76913809D01*
X105159228Y-76913809D02*
X105159228Y-75675714D01*
X104492561Y-74913809D02*
X106492561Y-74913809D01*
X105540180Y-74913809D02*
X105540180Y-73770952D01*
X104492561Y-73770952D02*
X106492561Y-73770952D01*
X104683038Y-71675714D02*
X104587800Y-71770952D01*
X104587800Y-71770952D02*
X104492561Y-72056666D01*
X104492561Y-72056666D02*
X104492561Y-72247142D01*
X104492561Y-72247142D02*
X104587800Y-72532857D01*
X104587800Y-72532857D02*
X104778276Y-72723333D01*
X104778276Y-72723333D02*
X104968752Y-72818571D01*
X104968752Y-72818571D02*
X105349704Y-72913809D01*
X105349704Y-72913809D02*
X105635419Y-72913809D01*
X105635419Y-72913809D02*
X106016371Y-72818571D01*
X106016371Y-72818571D02*
X106206847Y-72723333D01*
X106206847Y-72723333D02*
X106397323Y-72532857D01*
X106397323Y-72532857D02*
X106492561Y-72247142D01*
X106492561Y-72247142D02*
X106492561Y-72056666D01*
X106492561Y-72056666D02*
X106397323Y-71770952D01*
X106397323Y-71770952D02*
X106302085Y-71675714D01*
X106492561Y-69866190D02*
X106492561Y-70818571D01*
X106492561Y-70818571D02*
X105540180Y-70913809D01*
X105540180Y-70913809D02*
X105635419Y-70818571D01*
X105635419Y-70818571D02*
X105730657Y-70628095D01*
X105730657Y-70628095D02*
X105730657Y-70151904D01*
X105730657Y-70151904D02*
X105635419Y-69961428D01*
X105635419Y-69961428D02*
X105540180Y-69866190D01*
X105540180Y-69866190D02*
X105349704Y-69770952D01*
X105349704Y-69770952D02*
X104873514Y-69770952D01*
X104873514Y-69770952D02*
X104683038Y-69866190D01*
X104683038Y-69866190D02*
X104587800Y-69961428D01*
X104587800Y-69961428D02*
X104492561Y-70151904D01*
X104492561Y-70151904D02*
X104492561Y-70628095D01*
X104492561Y-70628095D02*
X104587800Y-70818571D01*
X104587800Y-70818571D02*
X104683038Y-70913809D01*
X106492561Y-68056666D02*
X106492561Y-68437619D01*
X106492561Y-68437619D02*
X106397323Y-68628095D01*
X106397323Y-68628095D02*
X106302085Y-68723333D01*
X106302085Y-68723333D02*
X106016371Y-68913809D01*
X106016371Y-68913809D02*
X105635419Y-69009047D01*
X105635419Y-69009047D02*
X104873514Y-69009047D01*
X104873514Y-69009047D02*
X104683038Y-68913809D01*
X104683038Y-68913809D02*
X104587800Y-68818571D01*
X104587800Y-68818571D02*
X104492561Y-68628095D01*
X104492561Y-68628095D02*
X104492561Y-68247142D01*
X104492561Y-68247142D02*
X104587800Y-68056666D01*
X104587800Y-68056666D02*
X104683038Y-67961428D01*
X104683038Y-67961428D02*
X104873514Y-67866190D01*
X104873514Y-67866190D02*
X105349704Y-67866190D01*
X105349704Y-67866190D02*
X105540180Y-67961428D01*
X105540180Y-67961428D02*
X105635419Y-68056666D01*
X105635419Y-68056666D02*
X105730657Y-68247142D01*
X105730657Y-68247142D02*
X105730657Y-68628095D01*
X105730657Y-68628095D02*
X105635419Y-68818571D01*
X105635419Y-68818571D02*
X105540180Y-68913809D01*
X105540180Y-68913809D02*
X105349704Y-69009047D01*
X106492561Y-67199523D02*
X106492561Y-65961428D01*
X106492561Y-65961428D02*
X105730657Y-66628095D01*
X105730657Y-66628095D02*
X105730657Y-66342380D01*
X105730657Y-66342380D02*
X105635419Y-66151904D01*
X105635419Y-66151904D02*
X105540180Y-66056666D01*
X105540180Y-66056666D02*
X105349704Y-65961428D01*
X105349704Y-65961428D02*
X104873514Y-65961428D01*
X104873514Y-65961428D02*
X104683038Y-66056666D01*
X104683038Y-66056666D02*
X104587800Y-66151904D01*
X104587800Y-66151904D02*
X104492561Y-66342380D01*
X104492561Y-66342380D02*
X104492561Y-66913809D01*
X104492561Y-66913809D02*
X104587800Y-67104285D01*
X104587800Y-67104285D02*
X104683038Y-67199523D01*
X157832561Y-105663333D02*
X159832561Y-105663333D01*
X159832561Y-105663333D02*
X158403990Y-104996666D01*
X158403990Y-104996666D02*
X159832561Y-104330000D01*
X159832561Y-104330000D02*
X157832561Y-104330000D01*
X158403990Y-103472857D02*
X158403990Y-102520476D01*
X157832561Y-103663333D02*
X159832561Y-102996667D01*
X159832561Y-102996667D02*
X157832561Y-102330000D01*
X159832561Y-101853809D02*
X157832561Y-100520476D01*
X159832561Y-100520476D02*
X157832561Y-101853809D01*
X159642085Y-99853809D02*
X159737323Y-99758571D01*
X159737323Y-99758571D02*
X159832561Y-99568095D01*
X159832561Y-99568095D02*
X159832561Y-99091904D01*
X159832561Y-99091904D02*
X159737323Y-98901428D01*
X159737323Y-98901428D02*
X159642085Y-98806190D01*
X159642085Y-98806190D02*
X159451609Y-98710952D01*
X159451609Y-98710952D02*
X159261133Y-98710952D01*
X159261133Y-98710952D02*
X158975419Y-98806190D01*
X158975419Y-98806190D02*
X157832561Y-99949047D01*
X157832561Y-99949047D02*
X157832561Y-98710952D01*
X159832561Y-98044285D02*
X159832561Y-96806190D01*
X159832561Y-96806190D02*
X159070657Y-97472857D01*
X159070657Y-97472857D02*
X159070657Y-97187142D01*
X159070657Y-97187142D02*
X158975419Y-96996666D01*
X158975419Y-96996666D02*
X158880180Y-96901428D01*
X158880180Y-96901428D02*
X158689704Y-96806190D01*
X158689704Y-96806190D02*
X158213514Y-96806190D01*
X158213514Y-96806190D02*
X158023038Y-96901428D01*
X158023038Y-96901428D02*
X157927800Y-96996666D01*
X157927800Y-96996666D02*
X157832561Y-97187142D01*
X157832561Y-97187142D02*
X157832561Y-97758571D01*
X157832561Y-97758571D02*
X157927800Y-97949047D01*
X157927800Y-97949047D02*
X158023038Y-98044285D01*
X159642085Y-96044285D02*
X159737323Y-95949047D01*
X159737323Y-95949047D02*
X159832561Y-95758571D01*
X159832561Y-95758571D02*
X159832561Y-95282380D01*
X159832561Y-95282380D02*
X159737323Y-95091904D01*
X159737323Y-95091904D02*
X159642085Y-94996666D01*
X159642085Y-94996666D02*
X159451609Y-94901428D01*
X159451609Y-94901428D02*
X159261133Y-94901428D01*
X159261133Y-94901428D02*
X158975419Y-94996666D01*
X158975419Y-94996666D02*
X157832561Y-96139523D01*
X157832561Y-96139523D02*
X157832561Y-94901428D01*
X157832561Y-75183333D02*
X159832561Y-75183333D01*
X159832561Y-75183333D02*
X158403990Y-74516666D01*
X158403990Y-74516666D02*
X159832561Y-73850000D01*
X159832561Y-73850000D02*
X157832561Y-73850000D01*
X158403990Y-72992857D02*
X158403990Y-72040476D01*
X157832561Y-73183333D02*
X159832561Y-72516667D01*
X159832561Y-72516667D02*
X157832561Y-71850000D01*
X159832561Y-71373809D02*
X157832561Y-70040476D01*
X159832561Y-70040476D02*
X157832561Y-71373809D01*
X159642085Y-69373809D02*
X159737323Y-69278571D01*
X159737323Y-69278571D02*
X159832561Y-69088095D01*
X159832561Y-69088095D02*
X159832561Y-68611904D01*
X159832561Y-68611904D02*
X159737323Y-68421428D01*
X159737323Y-68421428D02*
X159642085Y-68326190D01*
X159642085Y-68326190D02*
X159451609Y-68230952D01*
X159451609Y-68230952D02*
X159261133Y-68230952D01*
X159261133Y-68230952D02*
X158975419Y-68326190D01*
X158975419Y-68326190D02*
X157832561Y-69469047D01*
X157832561Y-69469047D02*
X157832561Y-68230952D01*
X159832561Y-67564285D02*
X159832561Y-66326190D01*
X159832561Y-66326190D02*
X159070657Y-66992857D01*
X159070657Y-66992857D02*
X159070657Y-66707142D01*
X159070657Y-66707142D02*
X158975419Y-66516666D01*
X158975419Y-66516666D02*
X158880180Y-66421428D01*
X158880180Y-66421428D02*
X158689704Y-66326190D01*
X158689704Y-66326190D02*
X158213514Y-66326190D01*
X158213514Y-66326190D02*
X158023038Y-66421428D01*
X158023038Y-66421428D02*
X157927800Y-66516666D01*
X157927800Y-66516666D02*
X157832561Y-66707142D01*
X157832561Y-66707142D02*
X157832561Y-67278571D01*
X157832561Y-67278571D02*
X157927800Y-67469047D01*
X157927800Y-67469047D02*
X158023038Y-67564285D01*
X159642085Y-65564285D02*
X159737323Y-65469047D01*
X159737323Y-65469047D02*
X159832561Y-65278571D01*
X159832561Y-65278571D02*
X159832561Y-64802380D01*
X159832561Y-64802380D02*
X159737323Y-64611904D01*
X159737323Y-64611904D02*
X159642085Y-64516666D01*
X159642085Y-64516666D02*
X159451609Y-64421428D01*
X159451609Y-64421428D02*
X159261133Y-64421428D01*
X159261133Y-64421428D02*
X158975419Y-64516666D01*
X158975419Y-64516666D02*
X157832561Y-65659523D01*
X157832561Y-65659523D02*
X157832561Y-64421428D01*
D12*
X179629285Y-123725471D02*
X179700713Y-123796900D01*
X179700713Y-123796900D02*
X179914999Y-123868328D01*
X179914999Y-123868328D02*
X180057856Y-123868328D01*
X180057856Y-123868328D02*
X180272142Y-123796900D01*
X180272142Y-123796900D02*
X180414999Y-123654042D01*
X180414999Y-123654042D02*
X180486428Y-123511185D01*
X180486428Y-123511185D02*
X180557856Y-123225471D01*
X180557856Y-123225471D02*
X180557856Y-123011185D01*
X180557856Y-123011185D02*
X180486428Y-122725471D01*
X180486428Y-122725471D02*
X180414999Y-122582614D01*
X180414999Y-122582614D02*
X180272142Y-122439757D01*
X180272142Y-122439757D02*
X180057856Y-122368328D01*
X180057856Y-122368328D02*
X179914999Y-122368328D01*
X179914999Y-122368328D02*
X179700713Y-122439757D01*
X179700713Y-122439757D02*
X179629285Y-122511185D01*
X178700713Y-122368328D02*
X178414999Y-122368328D01*
X178414999Y-122368328D02*
X178272142Y-122439757D01*
X178272142Y-122439757D02*
X178129285Y-122582614D01*
X178129285Y-122582614D02*
X178057856Y-122868328D01*
X178057856Y-122868328D02*
X178057856Y-123368328D01*
X178057856Y-123368328D02*
X178129285Y-123654042D01*
X178129285Y-123654042D02*
X178272142Y-123796900D01*
X178272142Y-123796900D02*
X178414999Y-123868328D01*
X178414999Y-123868328D02*
X178700713Y-123868328D01*
X178700713Y-123868328D02*
X178843571Y-123796900D01*
X178843571Y-123796900D02*
X178986428Y-123654042D01*
X178986428Y-123654042D02*
X179057856Y-123368328D01*
X179057856Y-123368328D02*
X179057856Y-122868328D01*
X179057856Y-122868328D02*
X178986428Y-122582614D01*
X178986428Y-122582614D02*
X178843571Y-122439757D01*
X178843571Y-122439757D02*
X178700713Y-122368328D01*
X177414999Y-123868328D02*
X177414999Y-122368328D01*
X177414999Y-122368328D02*
X176914999Y-123439757D01*
X176914999Y-123439757D02*
X176414999Y-122368328D01*
X176414999Y-122368328D02*
X176414999Y-123868328D01*
X174629284Y-122511185D02*
X174557856Y-122439757D01*
X174557856Y-122439757D02*
X174414999Y-122368328D01*
X174414999Y-122368328D02*
X174057856Y-122368328D01*
X174057856Y-122368328D02*
X173914999Y-122439757D01*
X173914999Y-122439757D02*
X173843570Y-122511185D01*
X173843570Y-122511185D02*
X173772141Y-122654042D01*
X173772141Y-122654042D02*
X173772141Y-122796900D01*
X173772141Y-122796900D02*
X173843570Y-123011185D01*
X173843570Y-123011185D02*
X174700713Y-123868328D01*
X174700713Y-123868328D02*
X173772141Y-123868328D01*
X179629285Y-85625471D02*
X179700713Y-85696900D01*
X179700713Y-85696900D02*
X179914999Y-85768328D01*
X179914999Y-85768328D02*
X180057856Y-85768328D01*
X180057856Y-85768328D02*
X180272142Y-85696900D01*
X180272142Y-85696900D02*
X180414999Y-85554042D01*
X180414999Y-85554042D02*
X180486428Y-85411185D01*
X180486428Y-85411185D02*
X180557856Y-85125471D01*
X180557856Y-85125471D02*
X180557856Y-84911185D01*
X180557856Y-84911185D02*
X180486428Y-84625471D01*
X180486428Y-84625471D02*
X180414999Y-84482614D01*
X180414999Y-84482614D02*
X180272142Y-84339757D01*
X180272142Y-84339757D02*
X180057856Y-84268328D01*
X180057856Y-84268328D02*
X179914999Y-84268328D01*
X179914999Y-84268328D02*
X179700713Y-84339757D01*
X179700713Y-84339757D02*
X179629285Y-84411185D01*
X178700713Y-84268328D02*
X178414999Y-84268328D01*
X178414999Y-84268328D02*
X178272142Y-84339757D01*
X178272142Y-84339757D02*
X178129285Y-84482614D01*
X178129285Y-84482614D02*
X178057856Y-84768328D01*
X178057856Y-84768328D02*
X178057856Y-85268328D01*
X178057856Y-85268328D02*
X178129285Y-85554042D01*
X178129285Y-85554042D02*
X178272142Y-85696900D01*
X178272142Y-85696900D02*
X178414999Y-85768328D01*
X178414999Y-85768328D02*
X178700713Y-85768328D01*
X178700713Y-85768328D02*
X178843571Y-85696900D01*
X178843571Y-85696900D02*
X178986428Y-85554042D01*
X178986428Y-85554042D02*
X179057856Y-85268328D01*
X179057856Y-85268328D02*
X179057856Y-84768328D01*
X179057856Y-84768328D02*
X178986428Y-84482614D01*
X178986428Y-84482614D02*
X178843571Y-84339757D01*
X178843571Y-84339757D02*
X178700713Y-84268328D01*
X177414999Y-85768328D02*
X177414999Y-84268328D01*
X177414999Y-84268328D02*
X176914999Y-85339757D01*
X176914999Y-85339757D02*
X176414999Y-84268328D01*
X176414999Y-84268328D02*
X176414999Y-85768328D01*
X173772141Y-85768328D02*
X174629284Y-85768328D01*
X174200713Y-85768328D02*
X174200713Y-84268328D01*
X174200713Y-84268328D02*
X174343570Y-84482614D01*
X174343570Y-84482614D02*
X174486427Y-84625471D01*
X174486427Y-84625471D02*
X174629284Y-84696900D01*
X90729285Y-120550471D02*
X90800713Y-120621900D01*
X90800713Y-120621900D02*
X91014999Y-120693328D01*
X91014999Y-120693328D02*
X91157856Y-120693328D01*
X91157856Y-120693328D02*
X91372142Y-120621900D01*
X91372142Y-120621900D02*
X91514999Y-120479042D01*
X91514999Y-120479042D02*
X91586428Y-120336185D01*
X91586428Y-120336185D02*
X91657856Y-120050471D01*
X91657856Y-120050471D02*
X91657856Y-119836185D01*
X91657856Y-119836185D02*
X91586428Y-119550471D01*
X91586428Y-119550471D02*
X91514999Y-119407614D01*
X91514999Y-119407614D02*
X91372142Y-119264757D01*
X91372142Y-119264757D02*
X91157856Y-119193328D01*
X91157856Y-119193328D02*
X91014999Y-119193328D01*
X91014999Y-119193328D02*
X90800713Y-119264757D01*
X90800713Y-119264757D02*
X90729285Y-119336185D01*
X89800713Y-119193328D02*
X89514999Y-119193328D01*
X89514999Y-119193328D02*
X89372142Y-119264757D01*
X89372142Y-119264757D02*
X89229285Y-119407614D01*
X89229285Y-119407614D02*
X89157856Y-119693328D01*
X89157856Y-119693328D02*
X89157856Y-120193328D01*
X89157856Y-120193328D02*
X89229285Y-120479042D01*
X89229285Y-120479042D02*
X89372142Y-120621900D01*
X89372142Y-120621900D02*
X89514999Y-120693328D01*
X89514999Y-120693328D02*
X89800713Y-120693328D01*
X89800713Y-120693328D02*
X89943571Y-120621900D01*
X89943571Y-120621900D02*
X90086428Y-120479042D01*
X90086428Y-120479042D02*
X90157856Y-120193328D01*
X90157856Y-120193328D02*
X90157856Y-119693328D01*
X90157856Y-119693328D02*
X90086428Y-119407614D01*
X90086428Y-119407614D02*
X89943571Y-119264757D01*
X89943571Y-119264757D02*
X89800713Y-119193328D01*
X88514999Y-120693328D02*
X88514999Y-119193328D01*
X88514999Y-119193328D02*
X88014999Y-120264757D01*
X88014999Y-120264757D02*
X87514999Y-119193328D01*
X87514999Y-119193328D02*
X87514999Y-120693328D01*
X85014999Y-119693328D02*
X85014999Y-120693328D01*
X85372141Y-119121900D02*
X85729284Y-120193328D01*
X85729284Y-120193328D02*
X84800713Y-120193328D01*
X90729285Y-64670471D02*
X90800713Y-64741900D01*
X90800713Y-64741900D02*
X91014999Y-64813328D01*
X91014999Y-64813328D02*
X91157856Y-64813328D01*
X91157856Y-64813328D02*
X91372142Y-64741900D01*
X91372142Y-64741900D02*
X91514999Y-64599042D01*
X91514999Y-64599042D02*
X91586428Y-64456185D01*
X91586428Y-64456185D02*
X91657856Y-64170471D01*
X91657856Y-64170471D02*
X91657856Y-63956185D01*
X91657856Y-63956185D02*
X91586428Y-63670471D01*
X91586428Y-63670471D02*
X91514999Y-63527614D01*
X91514999Y-63527614D02*
X91372142Y-63384757D01*
X91372142Y-63384757D02*
X91157856Y-63313328D01*
X91157856Y-63313328D02*
X91014999Y-63313328D01*
X91014999Y-63313328D02*
X90800713Y-63384757D01*
X90800713Y-63384757D02*
X90729285Y-63456185D01*
X89800713Y-63313328D02*
X89514999Y-63313328D01*
X89514999Y-63313328D02*
X89372142Y-63384757D01*
X89372142Y-63384757D02*
X89229285Y-63527614D01*
X89229285Y-63527614D02*
X89157856Y-63813328D01*
X89157856Y-63813328D02*
X89157856Y-64313328D01*
X89157856Y-64313328D02*
X89229285Y-64599042D01*
X89229285Y-64599042D02*
X89372142Y-64741900D01*
X89372142Y-64741900D02*
X89514999Y-64813328D01*
X89514999Y-64813328D02*
X89800713Y-64813328D01*
X89800713Y-64813328D02*
X89943571Y-64741900D01*
X89943571Y-64741900D02*
X90086428Y-64599042D01*
X90086428Y-64599042D02*
X90157856Y-64313328D01*
X90157856Y-64313328D02*
X90157856Y-63813328D01*
X90157856Y-63813328D02*
X90086428Y-63527614D01*
X90086428Y-63527614D02*
X89943571Y-63384757D01*
X89943571Y-63384757D02*
X89800713Y-63313328D01*
X88514999Y-64813328D02*
X88514999Y-63313328D01*
X88514999Y-63313328D02*
X88014999Y-64384757D01*
X88014999Y-64384757D02*
X87514999Y-63313328D01*
X87514999Y-63313328D02*
X87514999Y-64813328D01*
X85800713Y-63313328D02*
X84872141Y-63313328D01*
X84872141Y-63313328D02*
X85372141Y-63884757D01*
X85372141Y-63884757D02*
X85157856Y-63884757D01*
X85157856Y-63884757D02*
X85014999Y-63956185D01*
X85014999Y-63956185D02*
X84943570Y-64027614D01*
X84943570Y-64027614D02*
X84872141Y-64170471D01*
X84872141Y-64170471D02*
X84872141Y-64527614D01*
X84872141Y-64527614D02*
X84943570Y-64670471D01*
X84943570Y-64670471D02*
X85014999Y-64741900D01*
X85014999Y-64741900D02*
X85157856Y-64813328D01*
X85157856Y-64813328D02*
X85586427Y-64813328D01*
X85586427Y-64813328D02*
X85729284Y-64741900D01*
X85729284Y-64741900D02*
X85800713Y-64670471D01*
D11*
X166460952Y-42593528D02*
X166894285Y-41879242D01*
X167203809Y-42593528D02*
X167203809Y-41093528D01*
X167203809Y-41093528D02*
X166708571Y-41093528D01*
X166708571Y-41093528D02*
X166584761Y-41164957D01*
X166584761Y-41164957D02*
X166522856Y-41236385D01*
X166522856Y-41236385D02*
X166460952Y-41379242D01*
X166460952Y-41379242D02*
X166460952Y-41593528D01*
X166460952Y-41593528D02*
X166522856Y-41736385D01*
X166522856Y-41736385D02*
X166584761Y-41807814D01*
X166584761Y-41807814D02*
X166708571Y-41879242D01*
X166708571Y-41879242D02*
X167203809Y-41879242D01*
X166027618Y-42593528D02*
X165346666Y-41593528D01*
X166027618Y-41593528D02*
X165346666Y-42593528D01*
X162065714Y-41093528D02*
X161322857Y-41093528D01*
X161694285Y-42593528D02*
X161694285Y-41093528D01*
X161013333Y-42593528D02*
X160332381Y-41593528D01*
X161013333Y-41593528D02*
X160332381Y-42593528D01*
X146140952Y-42593528D02*
X146574285Y-41879242D01*
X146883809Y-42593528D02*
X146883809Y-41093528D01*
X146883809Y-41093528D02*
X146388571Y-41093528D01*
X146388571Y-41093528D02*
X146264761Y-41164957D01*
X146264761Y-41164957D02*
X146202856Y-41236385D01*
X146202856Y-41236385D02*
X146140952Y-41379242D01*
X146140952Y-41379242D02*
X146140952Y-41593528D01*
X146140952Y-41593528D02*
X146202856Y-41736385D01*
X146202856Y-41736385D02*
X146264761Y-41807814D01*
X146264761Y-41807814D02*
X146388571Y-41879242D01*
X146388571Y-41879242D02*
X146883809Y-41879242D01*
X145707618Y-42593528D02*
X145026666Y-41593528D01*
X145707618Y-41593528D02*
X145026666Y-42593528D01*
X141745714Y-41093528D02*
X141002857Y-41093528D01*
X141374285Y-42593528D02*
X141374285Y-41093528D01*
X140693333Y-42593528D02*
X140012381Y-41593528D01*
X140693333Y-41593528D02*
X140012381Y-42593528D01*
X125820952Y-42593528D02*
X126254285Y-41879242D01*
X126563809Y-42593528D02*
X126563809Y-41093528D01*
X126563809Y-41093528D02*
X126068571Y-41093528D01*
X126068571Y-41093528D02*
X125944761Y-41164957D01*
X125944761Y-41164957D02*
X125882856Y-41236385D01*
X125882856Y-41236385D02*
X125820952Y-41379242D01*
X125820952Y-41379242D02*
X125820952Y-41593528D01*
X125820952Y-41593528D02*
X125882856Y-41736385D01*
X125882856Y-41736385D02*
X125944761Y-41807814D01*
X125944761Y-41807814D02*
X126068571Y-41879242D01*
X126068571Y-41879242D02*
X126563809Y-41879242D01*
X125387618Y-42593528D02*
X124706666Y-41593528D01*
X125387618Y-41593528D02*
X124706666Y-42593528D01*
X121425714Y-41093528D02*
X120682857Y-41093528D01*
X121054285Y-42593528D02*
X121054285Y-41093528D01*
X120373333Y-42593528D02*
X119692381Y-41593528D01*
X120373333Y-41593528D02*
X119692381Y-42593528D01*
X105500952Y-42593528D02*
X105934285Y-41879242D01*
X106243809Y-42593528D02*
X106243809Y-41093528D01*
X106243809Y-41093528D02*
X105748571Y-41093528D01*
X105748571Y-41093528D02*
X105624761Y-41164957D01*
X105624761Y-41164957D02*
X105562856Y-41236385D01*
X105562856Y-41236385D02*
X105500952Y-41379242D01*
X105500952Y-41379242D02*
X105500952Y-41593528D01*
X105500952Y-41593528D02*
X105562856Y-41736385D01*
X105562856Y-41736385D02*
X105624761Y-41807814D01*
X105624761Y-41807814D02*
X105748571Y-41879242D01*
X105748571Y-41879242D02*
X106243809Y-41879242D01*
X105067618Y-42593528D02*
X104386666Y-41593528D01*
X105067618Y-41593528D02*
X104386666Y-42593528D01*
X101105714Y-41093528D02*
X100362857Y-41093528D01*
X100734285Y-42593528D02*
X100734285Y-41093528D01*
X100053333Y-42593528D02*
X99372381Y-41593528D01*
X100053333Y-41593528D02*
X99372381Y-42593528D01*
D13*
X106320000Y-45208500D02*
X106420000Y-45308500D01*
X106420000Y-45308500D02*
X106720000Y-45408500D01*
X106720000Y-45408500D02*
X106920000Y-45408500D01*
X106920000Y-45408500D02*
X107220000Y-45308500D01*
X107220000Y-45308500D02*
X107420000Y-45108500D01*
X107420000Y-45108500D02*
X107520000Y-44908500D01*
X107520000Y-44908500D02*
X107620000Y-44508500D01*
X107620000Y-44508500D02*
X107620000Y-44208500D01*
X107620000Y-44208500D02*
X107520000Y-43808500D01*
X107520000Y-43808500D02*
X107420000Y-43608500D01*
X107420000Y-43608500D02*
X107220000Y-43408500D01*
X107220000Y-43408500D02*
X106920000Y-43308500D01*
X106920000Y-43308500D02*
X106720000Y-43308500D01*
X106720000Y-43308500D02*
X106420000Y-43408500D01*
X106420000Y-43408500D02*
X106320000Y-43508500D01*
X105020000Y-43308500D02*
X104620000Y-43308500D01*
X104620000Y-43308500D02*
X104420000Y-43408500D01*
X104420000Y-43408500D02*
X104220000Y-43608500D01*
X104220000Y-43608500D02*
X104120000Y-44008500D01*
X104120000Y-44008500D02*
X104120000Y-44708500D01*
X104120000Y-44708500D02*
X104220000Y-45108500D01*
X104220000Y-45108500D02*
X104420000Y-45308500D01*
X104420000Y-45308500D02*
X104620000Y-45408500D01*
X104620000Y-45408500D02*
X105020000Y-45408500D01*
X105020000Y-45408500D02*
X105220000Y-45308500D01*
X105220000Y-45308500D02*
X105420000Y-45108500D01*
X105420000Y-45108500D02*
X105520000Y-44708500D01*
X105520000Y-44708500D02*
X105520000Y-44008500D01*
X105520000Y-44008500D02*
X105420000Y-43608500D01*
X105420000Y-43608500D02*
X105220000Y-43408500D01*
X105220000Y-43408500D02*
X105020000Y-43308500D01*
X103220000Y-45408500D02*
X103220000Y-43308500D01*
X103220000Y-43308500D02*
X102520000Y-44808500D01*
X102520000Y-44808500D02*
X101820000Y-43308500D01*
X101820000Y-43308500D02*
X101820000Y-45408500D01*
X98120000Y-45408500D02*
X99320000Y-45408500D01*
X98720000Y-45408500D02*
X98720000Y-43308500D01*
X98720000Y-43308500D02*
X98920000Y-43608500D01*
X98920000Y-43608500D02*
X99120000Y-43808500D01*
X99120000Y-43808500D02*
X99320000Y-43908500D01*
X126640000Y-45208500D02*
X126740000Y-45308500D01*
X126740000Y-45308500D02*
X127040000Y-45408500D01*
X127040000Y-45408500D02*
X127240000Y-45408500D01*
X127240000Y-45408500D02*
X127540000Y-45308500D01*
X127540000Y-45308500D02*
X127740000Y-45108500D01*
X127740000Y-45108500D02*
X127840000Y-44908500D01*
X127840000Y-44908500D02*
X127940000Y-44508500D01*
X127940000Y-44508500D02*
X127940000Y-44208500D01*
X127940000Y-44208500D02*
X127840000Y-43808500D01*
X127840000Y-43808500D02*
X127740000Y-43608500D01*
X127740000Y-43608500D02*
X127540000Y-43408500D01*
X127540000Y-43408500D02*
X127240000Y-43308500D01*
X127240000Y-43308500D02*
X127040000Y-43308500D01*
X127040000Y-43308500D02*
X126740000Y-43408500D01*
X126740000Y-43408500D02*
X126640000Y-43508500D01*
X125340000Y-43308500D02*
X124940000Y-43308500D01*
X124940000Y-43308500D02*
X124740000Y-43408500D01*
X124740000Y-43408500D02*
X124540000Y-43608500D01*
X124540000Y-43608500D02*
X124440000Y-44008500D01*
X124440000Y-44008500D02*
X124440000Y-44708500D01*
X124440000Y-44708500D02*
X124540000Y-45108500D01*
X124540000Y-45108500D02*
X124740000Y-45308500D01*
X124740000Y-45308500D02*
X124940000Y-45408500D01*
X124940000Y-45408500D02*
X125340000Y-45408500D01*
X125340000Y-45408500D02*
X125540000Y-45308500D01*
X125540000Y-45308500D02*
X125740000Y-45108500D01*
X125740000Y-45108500D02*
X125840000Y-44708500D01*
X125840000Y-44708500D02*
X125840000Y-44008500D01*
X125840000Y-44008500D02*
X125740000Y-43608500D01*
X125740000Y-43608500D02*
X125540000Y-43408500D01*
X125540000Y-43408500D02*
X125340000Y-43308500D01*
X123540000Y-45408500D02*
X123540000Y-43308500D01*
X123540000Y-43308500D02*
X122840000Y-44808500D01*
X122840000Y-44808500D02*
X122140000Y-43308500D01*
X122140000Y-43308500D02*
X122140000Y-45408500D01*
X119640000Y-43508500D02*
X119540000Y-43408500D01*
X119540000Y-43408500D02*
X119340000Y-43308500D01*
X119340000Y-43308500D02*
X118840000Y-43308500D01*
X118840000Y-43308500D02*
X118640000Y-43408500D01*
X118640000Y-43408500D02*
X118540000Y-43508500D01*
X118540000Y-43508500D02*
X118440000Y-43708500D01*
X118440000Y-43708500D02*
X118440000Y-43908500D01*
X118440000Y-43908500D02*
X118540000Y-44208500D01*
X118540000Y-44208500D02*
X119740000Y-45408500D01*
X119740000Y-45408500D02*
X118440000Y-45408500D01*
X146960000Y-45208500D02*
X147060000Y-45308500D01*
X147060000Y-45308500D02*
X147360000Y-45408500D01*
X147360000Y-45408500D02*
X147560000Y-45408500D01*
X147560000Y-45408500D02*
X147860000Y-45308500D01*
X147860000Y-45308500D02*
X148060000Y-45108500D01*
X148060000Y-45108500D02*
X148160000Y-44908500D01*
X148160000Y-44908500D02*
X148260000Y-44508500D01*
X148260000Y-44508500D02*
X148260000Y-44208500D01*
X148260000Y-44208500D02*
X148160000Y-43808500D01*
X148160000Y-43808500D02*
X148060000Y-43608500D01*
X148060000Y-43608500D02*
X147860000Y-43408500D01*
X147860000Y-43408500D02*
X147560000Y-43308500D01*
X147560000Y-43308500D02*
X147360000Y-43308500D01*
X147360000Y-43308500D02*
X147060000Y-43408500D01*
X147060000Y-43408500D02*
X146960000Y-43508500D01*
X145660000Y-43308500D02*
X145260000Y-43308500D01*
X145260000Y-43308500D02*
X145060000Y-43408500D01*
X145060000Y-43408500D02*
X144860000Y-43608500D01*
X144860000Y-43608500D02*
X144760000Y-44008500D01*
X144760000Y-44008500D02*
X144760000Y-44708500D01*
X144760000Y-44708500D02*
X144860000Y-45108500D01*
X144860000Y-45108500D02*
X145060000Y-45308500D01*
X145060000Y-45308500D02*
X145260000Y-45408500D01*
X145260000Y-45408500D02*
X145660000Y-45408500D01*
X145660000Y-45408500D02*
X145860000Y-45308500D01*
X145860000Y-45308500D02*
X146060000Y-45108500D01*
X146060000Y-45108500D02*
X146160000Y-44708500D01*
X146160000Y-44708500D02*
X146160000Y-44008500D01*
X146160000Y-44008500D02*
X146060000Y-43608500D01*
X146060000Y-43608500D02*
X145860000Y-43408500D01*
X145860000Y-43408500D02*
X145660000Y-43308500D01*
X143860000Y-45408500D02*
X143860000Y-43308500D01*
X143860000Y-43308500D02*
X143160000Y-44808500D01*
X143160000Y-44808500D02*
X142460000Y-43308500D01*
X142460000Y-43308500D02*
X142460000Y-45408500D01*
X140060000Y-43308500D02*
X138760000Y-43308500D01*
X138760000Y-43308500D02*
X139460000Y-44108500D01*
X139460000Y-44108500D02*
X139160000Y-44108500D01*
X139160000Y-44108500D02*
X138960000Y-44208500D01*
X138960000Y-44208500D02*
X138860000Y-44308500D01*
X138860000Y-44308500D02*
X138760000Y-44508500D01*
X138760000Y-44508500D02*
X138760000Y-45008500D01*
X138760000Y-45008500D02*
X138860000Y-45208500D01*
X138860000Y-45208500D02*
X138960000Y-45308500D01*
X138960000Y-45308500D02*
X139160000Y-45408500D01*
X139160000Y-45408500D02*
X139760000Y-45408500D01*
X139760000Y-45408500D02*
X139960000Y-45308500D01*
X139960000Y-45308500D02*
X140060000Y-45208500D01*
X167280000Y-45208500D02*
X167380000Y-45308500D01*
X167380000Y-45308500D02*
X167680000Y-45408500D01*
X167680000Y-45408500D02*
X167880000Y-45408500D01*
X167880000Y-45408500D02*
X168180000Y-45308500D01*
X168180000Y-45308500D02*
X168380000Y-45108500D01*
X168380000Y-45108500D02*
X168480000Y-44908500D01*
X168480000Y-44908500D02*
X168580000Y-44508500D01*
X168580000Y-44508500D02*
X168580000Y-44208500D01*
X168580000Y-44208500D02*
X168480000Y-43808500D01*
X168480000Y-43808500D02*
X168380000Y-43608500D01*
X168380000Y-43608500D02*
X168180000Y-43408500D01*
X168180000Y-43408500D02*
X167880000Y-43308500D01*
X167880000Y-43308500D02*
X167680000Y-43308500D01*
X167680000Y-43308500D02*
X167380000Y-43408500D01*
X167380000Y-43408500D02*
X167280000Y-43508500D01*
X165980000Y-43308500D02*
X165580000Y-43308500D01*
X165580000Y-43308500D02*
X165380000Y-43408500D01*
X165380000Y-43408500D02*
X165180000Y-43608500D01*
X165180000Y-43608500D02*
X165080000Y-44008500D01*
X165080000Y-44008500D02*
X165080000Y-44708500D01*
X165080000Y-44708500D02*
X165180000Y-45108500D01*
X165180000Y-45108500D02*
X165380000Y-45308500D01*
X165380000Y-45308500D02*
X165580000Y-45408500D01*
X165580000Y-45408500D02*
X165980000Y-45408500D01*
X165980000Y-45408500D02*
X166180000Y-45308500D01*
X166180000Y-45308500D02*
X166380000Y-45108500D01*
X166380000Y-45108500D02*
X166480000Y-44708500D01*
X166480000Y-44708500D02*
X166480000Y-44008500D01*
X166480000Y-44008500D02*
X166380000Y-43608500D01*
X166380000Y-43608500D02*
X166180000Y-43408500D01*
X166180000Y-43408500D02*
X165980000Y-43308500D01*
X164180000Y-45408500D02*
X164180000Y-43308500D01*
X164180000Y-43308500D02*
X163480000Y-44808500D01*
X163480000Y-44808500D02*
X162780000Y-43308500D01*
X162780000Y-43308500D02*
X162780000Y-45408500D01*
X159280000Y-44008500D02*
X159280000Y-45408500D01*
X159780000Y-43208500D02*
X160280000Y-44708500D01*
X160280000Y-44708500D02*
X158980000Y-44708500D01*
D10*
X172847000Y-52120800D02*
X183311800Y-52120800D01*
X183311800Y-83083400D01*
X172847000Y-83083400D01*
X172847000Y-52120800D01*
X172821600Y-89941400D02*
X183311800Y-89941400D01*
X183311800Y-120904000D01*
X172821600Y-120904000D01*
X172821600Y-89941400D01*
X143383000Y-115493800D02*
X163931600Y-115493800D01*
X163931600Y-125780800D01*
X143383000Y-125780800D01*
X143383000Y-115493800D01*
X123647200Y-122986800D02*
X129082800Y-122986800D01*
X129082800Y-125933200D01*
X123647200Y-125933200D01*
X123647200Y-122986800D01*
X123647200Y-115366800D02*
X129082800Y-115366800D01*
X129082800Y-118313200D01*
X123647200Y-118313200D01*
X123647200Y-115366800D01*
X83896200Y-102819200D02*
X95389700Y-102819200D01*
X95389700Y-118160800D01*
X83896200Y-118160800D01*
X83896200Y-102819200D01*
X85674200Y-95199200D02*
X90855800Y-95199200D01*
X90855800Y-97840800D01*
X85674200Y-97840800D01*
X85674200Y-95199200D01*
X85648800Y-85039200D02*
X90855800Y-85039200D01*
X90855800Y-90220800D01*
X85648800Y-90220800D01*
X85648800Y-85039200D01*
X85674200Y-74879200D02*
X90855800Y-74879200D01*
X90855800Y-80060800D01*
X85674200Y-80060800D01*
X85674200Y-74879200D01*
X83896200Y-52019200D02*
X95389700Y-52019200D01*
X95389700Y-62280800D01*
X83896200Y-62280800D01*
X83896200Y-52019200D01*
X103428800Y-51333400D02*
X109956600Y-51333400D01*
X109956600Y-54076600D01*
X103428800Y-54076600D01*
X103428800Y-51333400D01*
X120472200Y-51308000D02*
X143662400Y-51308000D01*
X143662400Y-54076600D01*
X120472200Y-54076600D01*
X120472200Y-51308000D01*
X154228800Y-51358800D02*
X160756600Y-51358800D01*
X160756600Y-54076600D01*
X154228800Y-54076600D01*
X154228800Y-51358800D01*
D14*
X138979403Y-128872821D02*
X138979403Y-129694250D01*
X138979403Y-129694250D02*
X139034164Y-129858536D01*
X139034164Y-129858536D02*
X139143688Y-129968060D01*
X139143688Y-129968060D02*
X139307974Y-130022821D01*
X139307974Y-130022821D02*
X139417498Y-130022821D01*
X137884165Y-130022821D02*
X138431784Y-130022821D01*
X138431784Y-130022821D02*
X138431784Y-128872821D01*
X136843689Y-129913298D02*
X136898451Y-129968060D01*
X136898451Y-129968060D02*
X137062737Y-130022821D01*
X137062737Y-130022821D02*
X137172261Y-130022821D01*
X137172261Y-130022821D02*
X137336546Y-129968060D01*
X137336546Y-129968060D02*
X137446070Y-129858536D01*
X137446070Y-129858536D02*
X137500832Y-129749012D01*
X137500832Y-129749012D02*
X137555594Y-129529964D01*
X137555594Y-129529964D02*
X137555594Y-129365679D01*
X137555594Y-129365679D02*
X137500832Y-129146631D01*
X137500832Y-129146631D02*
X137446070Y-129037107D01*
X137446070Y-129037107D02*
X137336546Y-128927583D01*
X137336546Y-128927583D02*
X137172261Y-128872821D01*
X137172261Y-128872821D02*
X137062737Y-128872821D01*
X137062737Y-128872821D02*
X136898451Y-128927583D01*
X136898451Y-128927583D02*
X136843689Y-128982345D01*
X136022261Y-128872821D02*
X136022261Y-129694250D01*
X136022261Y-129694250D02*
X136077022Y-129858536D01*
X136077022Y-129858536D02*
X136186546Y-129968060D01*
X136186546Y-129968060D02*
X136350832Y-130022821D01*
X136350832Y-130022821D02*
X136460356Y-130022821D01*
X134927023Y-130022821D02*
X135474642Y-130022821D01*
X135474642Y-130022821D02*
X135474642Y-128872821D01*
X133886547Y-129913298D02*
X133941309Y-129968060D01*
X133941309Y-129968060D02*
X134105595Y-130022821D01*
X134105595Y-130022821D02*
X134215119Y-130022821D01*
X134215119Y-130022821D02*
X134379404Y-129968060D01*
X134379404Y-129968060D02*
X134488928Y-129858536D01*
X134488928Y-129858536D02*
X134543690Y-129749012D01*
X134543690Y-129749012D02*
X134598452Y-129529964D01*
X134598452Y-129529964D02*
X134598452Y-129365679D01*
X134598452Y-129365679D02*
X134543690Y-129146631D01*
X134543690Y-129146631D02*
X134488928Y-129037107D01*
X134488928Y-129037107D02*
X134379404Y-128927583D01*
X134379404Y-128927583D02*
X134215119Y-128872821D01*
X134215119Y-128872821D02*
X134105595Y-128872821D01*
X134105595Y-128872821D02*
X133941309Y-128927583D01*
X133941309Y-128927583D02*
X133886547Y-128982345D01*
X133065119Y-128872821D02*
X133065119Y-129694250D01*
X133065119Y-129694250D02*
X133119880Y-129858536D01*
X133119880Y-129858536D02*
X133229404Y-129968060D01*
X133229404Y-129968060D02*
X133393690Y-130022821D01*
X133393690Y-130022821D02*
X133503214Y-130022821D01*
X131969881Y-130022821D02*
X132517500Y-130022821D01*
X132517500Y-130022821D02*
X132517500Y-128872821D01*
X130929405Y-129913298D02*
X130984167Y-129968060D01*
X130984167Y-129968060D02*
X131148453Y-130022821D01*
X131148453Y-130022821D02*
X131257977Y-130022821D01*
X131257977Y-130022821D02*
X131422262Y-129968060D01*
X131422262Y-129968060D02*
X131531786Y-129858536D01*
X131531786Y-129858536D02*
X131586548Y-129749012D01*
X131586548Y-129749012D02*
X131641310Y-129529964D01*
X131641310Y-129529964D02*
X131641310Y-129365679D01*
X131641310Y-129365679D02*
X131586548Y-129146631D01*
X131586548Y-129146631D02*
X131531786Y-129037107D01*
X131531786Y-129037107D02*
X131422262Y-128927583D01*
X131422262Y-128927583D02*
X131257977Y-128872821D01*
X131257977Y-128872821D02*
X131148453Y-128872821D01*
X131148453Y-128872821D02*
X130984167Y-128927583D01*
X130984167Y-128927583D02*
X130929405Y-128982345D01*
X130107977Y-128872821D02*
X130107977Y-129694250D01*
X130107977Y-129694250D02*
X130162738Y-129858536D01*
X130162738Y-129858536D02*
X130272262Y-129968060D01*
X130272262Y-129968060D02*
X130436548Y-130022821D01*
X130436548Y-130022821D02*
X130546072Y-130022821D01*
X129012739Y-130022821D02*
X129560358Y-130022821D01*
X129560358Y-130022821D02*
X129560358Y-128872821D01*
X127972263Y-129913298D02*
X128027025Y-129968060D01*
X128027025Y-129968060D02*
X128191311Y-130022821D01*
X128191311Y-130022821D02*
X128300835Y-130022821D01*
X128300835Y-130022821D02*
X128465120Y-129968060D01*
X128465120Y-129968060D02*
X128574644Y-129858536D01*
X128574644Y-129858536D02*
X128629406Y-129749012D01*
X128629406Y-129749012D02*
X128684168Y-129529964D01*
X128684168Y-129529964D02*
X128684168Y-129365679D01*
X128684168Y-129365679D02*
X128629406Y-129146631D01*
X128629406Y-129146631D02*
X128574644Y-129037107D01*
X128574644Y-129037107D02*
X128465120Y-128927583D01*
X128465120Y-128927583D02*
X128300835Y-128872821D01*
X128300835Y-128872821D02*
X128191311Y-128872821D01*
X128191311Y-128872821D02*
X128027025Y-128927583D01*
X128027025Y-128927583D02*
X127972263Y-128982345D01*
D10*
X133299200Y-59618400D02*
X151180800Y-59618400D01*
X151180800Y-110621600D01*
X133299200Y-110621600D01*
X133299200Y-59618400D01*
X153660000Y-59613800D02*
X163921600Y-59613800D01*
X163921600Y-80137000D01*
X153660000Y-80137000D01*
X153660000Y-59613800D01*
X100304600Y-59588400D02*
X110566200Y-59588400D01*
X110566200Y-85217000D01*
X100304600Y-85217000D01*
X100304600Y-59588400D01*
X100126800Y-115519200D02*
X110515400Y-115519200D01*
X110515400Y-125780800D01*
X100126800Y-125780800D01*
X100126800Y-115519200D01*
X100279200Y-92608400D02*
X110566200Y-92608400D01*
X110566200Y-110591600D01*
X100279200Y-110591600D01*
X100279200Y-92608400D01*
X112979200Y-59618400D02*
X130860800Y-59618400D01*
X130860800Y-110621600D01*
X112979200Y-110621600D01*
X112979200Y-59618400D01*
X153619200Y-90093800D02*
X163880800Y-90093800D01*
X163880800Y-110667800D01*
X153619200Y-110667800D01*
X153619200Y-90093800D01*
X90503333Y-50254819D02*
X90503333Y-50969104D01*
X90503333Y-50969104D02*
X90550952Y-51111961D01*
X90550952Y-51111961D02*
X90646190Y-51207200D01*
X90646190Y-51207200D02*
X90789047Y-51254819D01*
X90789047Y-51254819D02*
X90884285Y-51254819D01*
X89598571Y-50254819D02*
X89789047Y-50254819D01*
X89789047Y-50254819D02*
X89884285Y-50302438D01*
X89884285Y-50302438D02*
X89931904Y-50350057D01*
X89931904Y-50350057D02*
X90027142Y-50492914D01*
X90027142Y-50492914D02*
X90074761Y-50683390D01*
X90074761Y-50683390D02*
X90074761Y-51064342D01*
X90074761Y-51064342D02*
X90027142Y-51159580D01*
X90027142Y-51159580D02*
X89979523Y-51207200D01*
X89979523Y-51207200D02*
X89884285Y-51254819D01*
X89884285Y-51254819D02*
X89693809Y-51254819D01*
X89693809Y-51254819D02*
X89598571Y-51207200D01*
X89598571Y-51207200D02*
X89550952Y-51159580D01*
X89550952Y-51159580D02*
X89503333Y-51064342D01*
X89503333Y-51064342D02*
X89503333Y-50826247D01*
X89503333Y-50826247D02*
X89550952Y-50731009D01*
X89550952Y-50731009D02*
X89598571Y-50683390D01*
X89598571Y-50683390D02*
X89693809Y-50635771D01*
X89693809Y-50635771D02*
X89884285Y-50635771D01*
X89884285Y-50635771D02*
X89979523Y-50683390D01*
X89979523Y-50683390D02*
X90027142Y-50731009D01*
X90027142Y-50731009D02*
X90074761Y-50826247D01*
X168634580Y-67143333D02*
X168682200Y-67095714D01*
X168682200Y-67095714D02*
X168729819Y-66952857D01*
X168729819Y-66952857D02*
X168729819Y-66857619D01*
X168729819Y-66857619D02*
X168682200Y-66714762D01*
X168682200Y-66714762D02*
X168586961Y-66619524D01*
X168586961Y-66619524D02*
X168491723Y-66571905D01*
X168491723Y-66571905D02*
X168301247Y-66524286D01*
X168301247Y-66524286D02*
X168158390Y-66524286D01*
X168158390Y-66524286D02*
X167967914Y-66571905D01*
X167967914Y-66571905D02*
X167872676Y-66619524D01*
X167872676Y-66619524D02*
X167777438Y-66714762D01*
X167777438Y-66714762D02*
X167729819Y-66857619D01*
X167729819Y-66857619D02*
X167729819Y-66952857D01*
X167729819Y-66952857D02*
X167777438Y-67095714D01*
X167777438Y-67095714D02*
X167825057Y-67143333D01*
X168158390Y-67714762D02*
X168110771Y-67619524D01*
X168110771Y-67619524D02*
X168063152Y-67571905D01*
X168063152Y-67571905D02*
X167967914Y-67524286D01*
X167967914Y-67524286D02*
X167920295Y-67524286D01*
X167920295Y-67524286D02*
X167825057Y-67571905D01*
X167825057Y-67571905D02*
X167777438Y-67619524D01*
X167777438Y-67619524D02*
X167729819Y-67714762D01*
X167729819Y-67714762D02*
X167729819Y-67905238D01*
X167729819Y-67905238D02*
X167777438Y-68000476D01*
X167777438Y-68000476D02*
X167825057Y-68048095D01*
X167825057Y-68048095D02*
X167920295Y-68095714D01*
X167920295Y-68095714D02*
X167967914Y-68095714D01*
X167967914Y-68095714D02*
X168063152Y-68048095D01*
X168063152Y-68048095D02*
X168110771Y-68000476D01*
X168110771Y-68000476D02*
X168158390Y-67905238D01*
X168158390Y-67905238D02*
X168158390Y-67714762D01*
X168158390Y-67714762D02*
X168206009Y-67619524D01*
X168206009Y-67619524D02*
X168253628Y-67571905D01*
X168253628Y-67571905D02*
X168348866Y-67524286D01*
X168348866Y-67524286D02*
X168539342Y-67524286D01*
X168539342Y-67524286D02*
X168634580Y-67571905D01*
X168634580Y-67571905D02*
X168682200Y-67619524D01*
X168682200Y-67619524D02*
X168729819Y-67714762D01*
X168729819Y-67714762D02*
X168729819Y-67905238D01*
X168729819Y-67905238D02*
X168682200Y-68000476D01*
X168682200Y-68000476D02*
X168634580Y-68048095D01*
X168634580Y-68048095D02*
X168539342Y-68095714D01*
X168539342Y-68095714D02*
X168348866Y-68095714D01*
X168348866Y-68095714D02*
X168253628Y-68048095D01*
X168253628Y-68048095D02*
X168206009Y-68000476D01*
X168206009Y-68000476D02*
X168158390Y-67905238D01*
X168634580Y-71747142D02*
X168682200Y-71699523D01*
X168682200Y-71699523D02*
X168729819Y-71556666D01*
X168729819Y-71556666D02*
X168729819Y-71461428D01*
X168729819Y-71461428D02*
X168682200Y-71318571D01*
X168682200Y-71318571D02*
X168586961Y-71223333D01*
X168586961Y-71223333D02*
X168491723Y-71175714D01*
X168491723Y-71175714D02*
X168301247Y-71128095D01*
X168301247Y-71128095D02*
X168158390Y-71128095D01*
X168158390Y-71128095D02*
X167967914Y-71175714D01*
X167967914Y-71175714D02*
X167872676Y-71223333D01*
X167872676Y-71223333D02*
X167777438Y-71318571D01*
X167777438Y-71318571D02*
X167729819Y-71461428D01*
X167729819Y-71461428D02*
X167729819Y-71556666D01*
X167729819Y-71556666D02*
X167777438Y-71699523D01*
X167777438Y-71699523D02*
X167825057Y-71747142D01*
X168729819Y-72699523D02*
X168729819Y-72128095D01*
X168729819Y-72413809D02*
X167729819Y-72413809D01*
X167729819Y-72413809D02*
X167872676Y-72318571D01*
X167872676Y-72318571D02*
X167967914Y-72223333D01*
X167967914Y-72223333D02*
X168015533Y-72128095D01*
X167729819Y-73032857D02*
X167729819Y-73651904D01*
X167729819Y-73651904D02*
X168110771Y-73318571D01*
X168110771Y-73318571D02*
X168110771Y-73461428D01*
X168110771Y-73461428D02*
X168158390Y-73556666D01*
X168158390Y-73556666D02*
X168206009Y-73604285D01*
X168206009Y-73604285D02*
X168301247Y-73651904D01*
X168301247Y-73651904D02*
X168539342Y-73651904D01*
X168539342Y-73651904D02*
X168634580Y-73604285D01*
X168634580Y-73604285D02*
X168682200Y-73556666D01*
X168682200Y-73556666D02*
X168729819Y-73461428D01*
X168729819Y-73461428D02*
X168729819Y-73175714D01*
X168729819Y-73175714D02*
X168682200Y-73080476D01*
X168682200Y-73080476D02*
X168634580Y-73032857D01*
X168634580Y-102227142D02*
X168682200Y-102179523D01*
X168682200Y-102179523D02*
X168729819Y-102036666D01*
X168729819Y-102036666D02*
X168729819Y-101941428D01*
X168729819Y-101941428D02*
X168682200Y-101798571D01*
X168682200Y-101798571D02*
X168586961Y-101703333D01*
X168586961Y-101703333D02*
X168491723Y-101655714D01*
X168491723Y-101655714D02*
X168301247Y-101608095D01*
X168301247Y-101608095D02*
X168158390Y-101608095D01*
X168158390Y-101608095D02*
X167967914Y-101655714D01*
X167967914Y-101655714D02*
X167872676Y-101703333D01*
X167872676Y-101703333D02*
X167777438Y-101798571D01*
X167777438Y-101798571D02*
X167729819Y-101941428D01*
X167729819Y-101941428D02*
X167729819Y-102036666D01*
X167729819Y-102036666D02*
X167777438Y-102179523D01*
X167777438Y-102179523D02*
X167825057Y-102227142D01*
X168729819Y-103179523D02*
X168729819Y-102608095D01*
X168729819Y-102893809D02*
X167729819Y-102893809D01*
X167729819Y-102893809D02*
X167872676Y-102798571D01*
X167872676Y-102798571D02*
X167967914Y-102703333D01*
X167967914Y-102703333D02*
X168015533Y-102608095D01*
X167729819Y-104084285D02*
X167729819Y-103608095D01*
X167729819Y-103608095D02*
X168206009Y-103560476D01*
X168206009Y-103560476D02*
X168158390Y-103608095D01*
X168158390Y-103608095D02*
X168110771Y-103703333D01*
X168110771Y-103703333D02*
X168110771Y-103941428D01*
X168110771Y-103941428D02*
X168158390Y-104036666D01*
X168158390Y-104036666D02*
X168206009Y-104084285D01*
X168206009Y-104084285D02*
X168301247Y-104131904D01*
X168301247Y-104131904D02*
X168539342Y-104131904D01*
X168539342Y-104131904D02*
X168634580Y-104084285D01*
X168634580Y-104084285D02*
X168682200Y-104036666D01*
X168682200Y-104036666D02*
X168729819Y-103941428D01*
X168729819Y-103941428D02*
X168729819Y-103703333D01*
X168729819Y-103703333D02*
X168682200Y-103608095D01*
X168682200Y-103608095D02*
X168634580Y-103560476D01*
X168634580Y-92047142D02*
X168682200Y-91999523D01*
X168682200Y-91999523D02*
X168729819Y-91856666D01*
X168729819Y-91856666D02*
X168729819Y-91761428D01*
X168729819Y-91761428D02*
X168682200Y-91618571D01*
X168682200Y-91618571D02*
X168586961Y-91523333D01*
X168586961Y-91523333D02*
X168491723Y-91475714D01*
X168491723Y-91475714D02*
X168301247Y-91428095D01*
X168301247Y-91428095D02*
X168158390Y-91428095D01*
X168158390Y-91428095D02*
X167967914Y-91475714D01*
X167967914Y-91475714D02*
X167872676Y-91523333D01*
X167872676Y-91523333D02*
X167777438Y-91618571D01*
X167777438Y-91618571D02*
X167729819Y-91761428D01*
X167729819Y-91761428D02*
X167729819Y-91856666D01*
X167729819Y-91856666D02*
X167777438Y-91999523D01*
X167777438Y-91999523D02*
X167825057Y-92047142D01*
X168729819Y-92999523D02*
X168729819Y-92428095D01*
X168729819Y-92713809D02*
X167729819Y-92713809D01*
X167729819Y-92713809D02*
X167872676Y-92618571D01*
X167872676Y-92618571D02*
X167967914Y-92523333D01*
X167967914Y-92523333D02*
X168015533Y-92428095D01*
X168063152Y-93856666D02*
X168729819Y-93856666D01*
X167682200Y-93618571D02*
X168396485Y-93380476D01*
X168396485Y-93380476D02*
X168396485Y-93999523D01*
X90503333Y-101054819D02*
X90503333Y-101769104D01*
X90503333Y-101769104D02*
X90550952Y-101911961D01*
X90550952Y-101911961D02*
X90646190Y-102007200D01*
X90646190Y-102007200D02*
X90789047Y-102054819D01*
X90789047Y-102054819D02*
X90884285Y-102054819D01*
X89884285Y-101483390D02*
X89979523Y-101435771D01*
X89979523Y-101435771D02*
X90027142Y-101388152D01*
X90027142Y-101388152D02*
X90074761Y-101292914D01*
X90074761Y-101292914D02*
X90074761Y-101245295D01*
X90074761Y-101245295D02*
X90027142Y-101150057D01*
X90027142Y-101150057D02*
X89979523Y-101102438D01*
X89979523Y-101102438D02*
X89884285Y-101054819D01*
X89884285Y-101054819D02*
X89693809Y-101054819D01*
X89693809Y-101054819D02*
X89598571Y-101102438D01*
X89598571Y-101102438D02*
X89550952Y-101150057D01*
X89550952Y-101150057D02*
X89503333Y-101245295D01*
X89503333Y-101245295D02*
X89503333Y-101292914D01*
X89503333Y-101292914D02*
X89550952Y-101388152D01*
X89550952Y-101388152D02*
X89598571Y-101435771D01*
X89598571Y-101435771D02*
X89693809Y-101483390D01*
X89693809Y-101483390D02*
X89884285Y-101483390D01*
X89884285Y-101483390D02*
X89979523Y-101531009D01*
X89979523Y-101531009D02*
X90027142Y-101578628D01*
X90027142Y-101578628D02*
X90074761Y-101673866D01*
X90074761Y-101673866D02*
X90074761Y-101864342D01*
X90074761Y-101864342D02*
X90027142Y-101959580D01*
X90027142Y-101959580D02*
X89979523Y-102007200D01*
X89979523Y-102007200D02*
X89884285Y-102054819D01*
X89884285Y-102054819D02*
X89693809Y-102054819D01*
X89693809Y-102054819D02*
X89598571Y-102007200D01*
X89598571Y-102007200D02*
X89550952Y-101959580D01*
X89550952Y-101959580D02*
X89503333Y-101864342D01*
X89503333Y-101864342D02*
X89503333Y-101673866D01*
X89503333Y-101673866D02*
X89550952Y-101578628D01*
X89550952Y-101578628D02*
X89598571Y-101531009D01*
X89598571Y-101531009D02*
X89693809Y-101483390D01*
X105576666Y-89259580D02*
X105624285Y-89307200D01*
X105624285Y-89307200D02*
X105767142Y-89354819D01*
X105767142Y-89354819D02*
X105862380Y-89354819D01*
X105862380Y-89354819D02*
X106005237Y-89307200D01*
X106005237Y-89307200D02*
X106100475Y-89211961D01*
X106100475Y-89211961D02*
X106148094Y-89116723D01*
X106148094Y-89116723D02*
X106195713Y-88926247D01*
X106195713Y-88926247D02*
X106195713Y-88783390D01*
X106195713Y-88783390D02*
X106148094Y-88592914D01*
X106148094Y-88592914D02*
X106100475Y-88497676D01*
X106100475Y-88497676D02*
X106005237Y-88402438D01*
X106005237Y-88402438D02*
X105862380Y-88354819D01*
X105862380Y-88354819D02*
X105767142Y-88354819D01*
X105767142Y-88354819D02*
X105624285Y-88402438D01*
X105624285Y-88402438D02*
X105576666Y-88450057D01*
X104624285Y-89354819D02*
X105195713Y-89354819D01*
X104909999Y-89354819D02*
X104909999Y-88354819D01*
X104909999Y-88354819D02*
X105005237Y-88497676D01*
X105005237Y-88497676D02*
X105100475Y-88592914D01*
X105100475Y-88592914D02*
X105195713Y-88640533D01*
X96879580Y-120483333D02*
X96927200Y-120435714D01*
X96927200Y-120435714D02*
X96974819Y-120292857D01*
X96974819Y-120292857D02*
X96974819Y-120197619D01*
X96974819Y-120197619D02*
X96927200Y-120054762D01*
X96927200Y-120054762D02*
X96831961Y-119959524D01*
X96831961Y-119959524D02*
X96736723Y-119911905D01*
X96736723Y-119911905D02*
X96546247Y-119864286D01*
X96546247Y-119864286D02*
X96403390Y-119864286D01*
X96403390Y-119864286D02*
X96212914Y-119911905D01*
X96212914Y-119911905D02*
X96117676Y-119959524D01*
X96117676Y-119959524D02*
X96022438Y-120054762D01*
X96022438Y-120054762D02*
X95974819Y-120197619D01*
X95974819Y-120197619D02*
X95974819Y-120292857D01*
X95974819Y-120292857D02*
X96022438Y-120435714D01*
X96022438Y-120435714D02*
X96070057Y-120483333D01*
X95974819Y-120816667D02*
X95974819Y-121435714D01*
X95974819Y-121435714D02*
X96355771Y-121102381D01*
X96355771Y-121102381D02*
X96355771Y-121245238D01*
X96355771Y-121245238D02*
X96403390Y-121340476D01*
X96403390Y-121340476D02*
X96451009Y-121388095D01*
X96451009Y-121388095D02*
X96546247Y-121435714D01*
X96546247Y-121435714D02*
X96784342Y-121435714D01*
X96784342Y-121435714D02*
X96879580Y-121388095D01*
X96879580Y-121388095D02*
X96927200Y-121340476D01*
X96927200Y-121340476D02*
X96974819Y-121245238D01*
X96974819Y-121245238D02*
X96974819Y-120959524D01*
X96974819Y-120959524D02*
X96927200Y-120864286D01*
X96927200Y-120864286D02*
X96879580Y-120816667D01*
X88598333Y-73114819D02*
X88598333Y-73829104D01*
X88598333Y-73829104D02*
X88645952Y-73971961D01*
X88645952Y-73971961D02*
X88741190Y-74067200D01*
X88741190Y-74067200D02*
X88884047Y-74114819D01*
X88884047Y-74114819D02*
X88979285Y-74114819D01*
X87693571Y-73448152D02*
X87693571Y-74114819D01*
X87931666Y-73067200D02*
X88169761Y-73781485D01*
X88169761Y-73781485D02*
X87550714Y-73781485D01*
X105576666Y-56239580D02*
X105624285Y-56287200D01*
X105624285Y-56287200D02*
X105767142Y-56334819D01*
X105767142Y-56334819D02*
X105862380Y-56334819D01*
X105862380Y-56334819D02*
X106005237Y-56287200D01*
X106005237Y-56287200D02*
X106100475Y-56191961D01*
X106100475Y-56191961D02*
X106148094Y-56096723D01*
X106148094Y-56096723D02*
X106195713Y-55906247D01*
X106195713Y-55906247D02*
X106195713Y-55763390D01*
X106195713Y-55763390D02*
X106148094Y-55572914D01*
X106148094Y-55572914D02*
X106100475Y-55477676D01*
X106100475Y-55477676D02*
X106005237Y-55382438D01*
X106005237Y-55382438D02*
X105862380Y-55334819D01*
X105862380Y-55334819D02*
X105767142Y-55334819D01*
X105767142Y-55334819D02*
X105624285Y-55382438D01*
X105624285Y-55382438D02*
X105576666Y-55430057D01*
X104719523Y-55668152D02*
X104719523Y-56334819D01*
X104957618Y-55287200D02*
X105195713Y-56001485D01*
X105195713Y-56001485D02*
X104576666Y-56001485D01*
X142406666Y-56239580D02*
X142454285Y-56287200D01*
X142454285Y-56287200D02*
X142597142Y-56334819D01*
X142597142Y-56334819D02*
X142692380Y-56334819D01*
X142692380Y-56334819D02*
X142835237Y-56287200D01*
X142835237Y-56287200D02*
X142930475Y-56191961D01*
X142930475Y-56191961D02*
X142978094Y-56096723D01*
X142978094Y-56096723D02*
X143025713Y-55906247D01*
X143025713Y-55906247D02*
X143025713Y-55763390D01*
X143025713Y-55763390D02*
X142978094Y-55572914D01*
X142978094Y-55572914D02*
X142930475Y-55477676D01*
X142930475Y-55477676D02*
X142835237Y-55382438D01*
X142835237Y-55382438D02*
X142692380Y-55334819D01*
X142692380Y-55334819D02*
X142597142Y-55334819D01*
X142597142Y-55334819D02*
X142454285Y-55382438D01*
X142454285Y-55382438D02*
X142406666Y-55430057D01*
X141501904Y-55334819D02*
X141978094Y-55334819D01*
X141978094Y-55334819D02*
X142025713Y-55811009D01*
X142025713Y-55811009D02*
X141978094Y-55763390D01*
X141978094Y-55763390D02*
X141882856Y-55715771D01*
X141882856Y-55715771D02*
X141644761Y-55715771D01*
X141644761Y-55715771D02*
X141549523Y-55763390D01*
X141549523Y-55763390D02*
X141501904Y-55811009D01*
X141501904Y-55811009D02*
X141454285Y-55906247D01*
X141454285Y-55906247D02*
X141454285Y-56144342D01*
X141454285Y-56144342D02*
X141501904Y-56239580D01*
X141501904Y-56239580D02*
X141549523Y-56287200D01*
X141549523Y-56287200D02*
X141644761Y-56334819D01*
X141644761Y-56334819D02*
X141882856Y-56334819D01*
X141882856Y-56334819D02*
X141978094Y-56287200D01*
X141978094Y-56287200D02*
X142025713Y-56239580D01*
X106846666Y-53159819D02*
X107179999Y-52683628D01*
X107418094Y-53159819D02*
X107418094Y-52159819D01*
X107418094Y-52159819D02*
X107037142Y-52159819D01*
X107037142Y-52159819D02*
X106941904Y-52207438D01*
X106941904Y-52207438D02*
X106894285Y-52255057D01*
X106894285Y-52255057D02*
X106846666Y-52350295D01*
X106846666Y-52350295D02*
X106846666Y-52493152D01*
X106846666Y-52493152D02*
X106894285Y-52588390D01*
X106894285Y-52588390D02*
X106941904Y-52636009D01*
X106941904Y-52636009D02*
X107037142Y-52683628D01*
X107037142Y-52683628D02*
X107418094Y-52683628D01*
X106465713Y-52255057D02*
X106418094Y-52207438D01*
X106418094Y-52207438D02*
X106322856Y-52159819D01*
X106322856Y-52159819D02*
X106084761Y-52159819D01*
X106084761Y-52159819D02*
X105989523Y-52207438D01*
X105989523Y-52207438D02*
X105941904Y-52255057D01*
X105941904Y-52255057D02*
X105894285Y-52350295D01*
X105894285Y-52350295D02*
X105894285Y-52445533D01*
X105894285Y-52445533D02*
X105941904Y-52588390D01*
X105941904Y-52588390D02*
X106513332Y-53159819D01*
X106513332Y-53159819D02*
X105894285Y-53159819D01*
X168634580Y-107327142D02*
X168682200Y-107279523D01*
X168682200Y-107279523D02*
X168729819Y-107136666D01*
X168729819Y-107136666D02*
X168729819Y-107041428D01*
X168729819Y-107041428D02*
X168682200Y-106898571D01*
X168682200Y-106898571D02*
X168586961Y-106803333D01*
X168586961Y-106803333D02*
X168491723Y-106755714D01*
X168491723Y-106755714D02*
X168301247Y-106708095D01*
X168301247Y-106708095D02*
X168158390Y-106708095D01*
X168158390Y-106708095D02*
X167967914Y-106755714D01*
X167967914Y-106755714D02*
X167872676Y-106803333D01*
X167872676Y-106803333D02*
X167777438Y-106898571D01*
X167777438Y-106898571D02*
X167729819Y-107041428D01*
X167729819Y-107041428D02*
X167729819Y-107136666D01*
X167729819Y-107136666D02*
X167777438Y-107279523D01*
X167777438Y-107279523D02*
X167825057Y-107327142D01*
X168729819Y-108279523D02*
X168729819Y-107708095D01*
X168729819Y-107993809D02*
X167729819Y-107993809D01*
X167729819Y-107993809D02*
X167872676Y-107898571D01*
X167872676Y-107898571D02*
X167967914Y-107803333D01*
X167967914Y-107803333D02*
X168015533Y-107708095D01*
X168729819Y-109231904D02*
X168729819Y-108660476D01*
X168729819Y-108946190D02*
X167729819Y-108946190D01*
X167729819Y-108946190D02*
X167872676Y-108850952D01*
X167872676Y-108850952D02*
X167967914Y-108755714D01*
X167967914Y-108755714D02*
X168015533Y-108660476D01*
X168634580Y-97127142D02*
X168682200Y-97079523D01*
X168682200Y-97079523D02*
X168729819Y-96936666D01*
X168729819Y-96936666D02*
X168729819Y-96841428D01*
X168729819Y-96841428D02*
X168682200Y-96698571D01*
X168682200Y-96698571D02*
X168586961Y-96603333D01*
X168586961Y-96603333D02*
X168491723Y-96555714D01*
X168491723Y-96555714D02*
X168301247Y-96508095D01*
X168301247Y-96508095D02*
X168158390Y-96508095D01*
X168158390Y-96508095D02*
X167967914Y-96555714D01*
X167967914Y-96555714D02*
X167872676Y-96603333D01*
X167872676Y-96603333D02*
X167777438Y-96698571D01*
X167777438Y-96698571D02*
X167729819Y-96841428D01*
X167729819Y-96841428D02*
X167729819Y-96936666D01*
X167729819Y-96936666D02*
X167777438Y-97079523D01*
X167777438Y-97079523D02*
X167825057Y-97127142D01*
X168729819Y-98079523D02*
X168729819Y-97508095D01*
X168729819Y-97793809D02*
X167729819Y-97793809D01*
X167729819Y-97793809D02*
X167872676Y-97698571D01*
X167872676Y-97698571D02*
X167967914Y-97603333D01*
X167967914Y-97603333D02*
X168015533Y-97508095D01*
X167729819Y-98698571D02*
X167729819Y-98793809D01*
X167729819Y-98793809D02*
X167777438Y-98889047D01*
X167777438Y-98889047D02*
X167825057Y-98936666D01*
X167825057Y-98936666D02*
X167920295Y-98984285D01*
X167920295Y-98984285D02*
X168110771Y-99031904D01*
X168110771Y-99031904D02*
X168348866Y-99031904D01*
X168348866Y-99031904D02*
X168539342Y-98984285D01*
X168539342Y-98984285D02*
X168634580Y-98936666D01*
X168634580Y-98936666D02*
X168682200Y-98889047D01*
X168682200Y-98889047D02*
X168729819Y-98793809D01*
X168729819Y-98793809D02*
X168729819Y-98698571D01*
X168729819Y-98698571D02*
X168682200Y-98603333D01*
X168682200Y-98603333D02*
X168634580Y-98555714D01*
X168634580Y-98555714D02*
X168539342Y-98508095D01*
X168539342Y-98508095D02*
X168348866Y-98460476D01*
X168348866Y-98460476D02*
X168110771Y-98460476D01*
X168110771Y-98460476D02*
X167920295Y-98508095D01*
X167920295Y-98508095D02*
X167825057Y-98555714D01*
X167825057Y-98555714D02*
X167777438Y-98603333D01*
X167777438Y-98603333D02*
X167729819Y-98698571D01*
X168634580Y-77283333D02*
X168682200Y-77235714D01*
X168682200Y-77235714D02*
X168729819Y-77092857D01*
X168729819Y-77092857D02*
X168729819Y-76997619D01*
X168729819Y-76997619D02*
X168682200Y-76854762D01*
X168682200Y-76854762D02*
X168586961Y-76759524D01*
X168586961Y-76759524D02*
X168491723Y-76711905D01*
X168491723Y-76711905D02*
X168301247Y-76664286D01*
X168301247Y-76664286D02*
X168158390Y-76664286D01*
X168158390Y-76664286D02*
X167967914Y-76711905D01*
X167967914Y-76711905D02*
X167872676Y-76759524D01*
X167872676Y-76759524D02*
X167777438Y-76854762D01*
X167777438Y-76854762D02*
X167729819Y-76997619D01*
X167729819Y-76997619D02*
X167729819Y-77092857D01*
X167729819Y-77092857D02*
X167777438Y-77235714D01*
X167777438Y-77235714D02*
X167825057Y-77283333D01*
X168729819Y-77759524D02*
X168729819Y-77950000D01*
X168729819Y-77950000D02*
X168682200Y-78045238D01*
X168682200Y-78045238D02*
X168634580Y-78092857D01*
X168634580Y-78092857D02*
X168491723Y-78188095D01*
X168491723Y-78188095D02*
X168301247Y-78235714D01*
X168301247Y-78235714D02*
X167920295Y-78235714D01*
X167920295Y-78235714D02*
X167825057Y-78188095D01*
X167825057Y-78188095D02*
X167777438Y-78140476D01*
X167777438Y-78140476D02*
X167729819Y-78045238D01*
X167729819Y-78045238D02*
X167729819Y-77854762D01*
X167729819Y-77854762D02*
X167777438Y-77759524D01*
X167777438Y-77759524D02*
X167825057Y-77711905D01*
X167825057Y-77711905D02*
X167920295Y-77664286D01*
X167920295Y-77664286D02*
X168158390Y-77664286D01*
X168158390Y-77664286D02*
X168253628Y-77711905D01*
X168253628Y-77711905D02*
X168301247Y-77759524D01*
X168301247Y-77759524D02*
X168348866Y-77854762D01*
X168348866Y-77854762D02*
X168348866Y-78045238D01*
X168348866Y-78045238D02*
X168301247Y-78140476D01*
X168301247Y-78140476D02*
X168253628Y-78188095D01*
X168253628Y-78188095D02*
X168158390Y-78235714D01*
X132757776Y-55699819D02*
X133091109Y-55223628D01*
X133329204Y-55699819D02*
X133329204Y-54699819D01*
X133329204Y-54699819D02*
X132948252Y-54699819D01*
X132948252Y-54699819D02*
X132853014Y-54747438D01*
X132853014Y-54747438D02*
X132805395Y-54795057D01*
X132805395Y-54795057D02*
X132757776Y-54890295D01*
X132757776Y-54890295D02*
X132757776Y-55033152D01*
X132757776Y-55033152D02*
X132805395Y-55128390D01*
X132805395Y-55128390D02*
X132853014Y-55176009D01*
X132853014Y-55176009D02*
X132948252Y-55223628D01*
X132948252Y-55223628D02*
X133329204Y-55223628D01*
X132329204Y-55699819D02*
X132329204Y-54699819D01*
X132329204Y-54699819D02*
X131757776Y-55699819D01*
X131757776Y-55699819D02*
X131757776Y-54699819D01*
X130757776Y-55699819D02*
X131329204Y-55699819D01*
X131043490Y-55699819D02*
X131043490Y-54699819D01*
X131043490Y-54699819D02*
X131138728Y-54842676D01*
X131138728Y-54842676D02*
X131233966Y-54937914D01*
X131233966Y-54937914D02*
X131329204Y-54985533D01*
X127420594Y-117294819D02*
X127420594Y-116294819D01*
X127420594Y-116294819D02*
X127182499Y-116294819D01*
X127182499Y-116294819D02*
X127039642Y-116342438D01*
X127039642Y-116342438D02*
X126944404Y-116437676D01*
X126944404Y-116437676D02*
X126896785Y-116532914D01*
X126896785Y-116532914D02*
X126849166Y-116723390D01*
X126849166Y-116723390D02*
X126849166Y-116866247D01*
X126849166Y-116866247D02*
X126896785Y-117056723D01*
X126896785Y-117056723D02*
X126944404Y-117151961D01*
X126944404Y-117151961D02*
X127039642Y-117247200D01*
X127039642Y-117247200D02*
X127182499Y-117294819D01*
X127182499Y-117294819D02*
X127420594Y-117294819D01*
X126372975Y-117294819D02*
X126182499Y-117294819D01*
X126182499Y-117294819D02*
X126087261Y-117247200D01*
X126087261Y-117247200D02*
X126039642Y-117199580D01*
X126039642Y-117199580D02*
X125944404Y-117056723D01*
X125944404Y-117056723D02*
X125896785Y-116866247D01*
X125896785Y-116866247D02*
X125896785Y-116485295D01*
X125896785Y-116485295D02*
X125944404Y-116390057D01*
X125944404Y-116390057D02*
X125992023Y-116342438D01*
X125992023Y-116342438D02*
X126087261Y-116294819D01*
X126087261Y-116294819D02*
X126277737Y-116294819D01*
X126277737Y-116294819D02*
X126372975Y-116342438D01*
X126372975Y-116342438D02*
X126420594Y-116390057D01*
X126420594Y-116390057D02*
X126468213Y-116485295D01*
X126468213Y-116485295D02*
X126468213Y-116723390D01*
X126468213Y-116723390D02*
X126420594Y-116818628D01*
X126420594Y-116818628D02*
X126372975Y-116866247D01*
X126372975Y-116866247D02*
X126277737Y-116913866D01*
X126277737Y-116913866D02*
X126087261Y-116913866D01*
X126087261Y-116913866D02*
X125992023Y-116866247D01*
X125992023Y-116866247D02*
X125944404Y-116818628D01*
X125944404Y-116818628D02*
X125896785Y-116723390D01*
X157646666Y-53159819D02*
X157979999Y-52683628D01*
X158218094Y-53159819D02*
X158218094Y-52159819D01*
X158218094Y-52159819D02*
X157837142Y-52159819D01*
X157837142Y-52159819D02*
X157741904Y-52207438D01*
X157741904Y-52207438D02*
X157694285Y-52255057D01*
X157694285Y-52255057D02*
X157646666Y-52350295D01*
X157646666Y-52350295D02*
X157646666Y-52493152D01*
X157646666Y-52493152D02*
X157694285Y-52588390D01*
X157694285Y-52588390D02*
X157741904Y-52636009D01*
X157741904Y-52636009D02*
X157837142Y-52683628D01*
X157837142Y-52683628D02*
X158218094Y-52683628D01*
X156694285Y-53159819D02*
X157265713Y-53159819D01*
X156979999Y-53159819D02*
X156979999Y-52159819D01*
X156979999Y-52159819D02*
X157075237Y-52302676D01*
X157075237Y-52302676D02*
X157170475Y-52397914D01*
X157170475Y-52397914D02*
X157265713Y-52445533D01*
X158916666Y-56239580D02*
X158964285Y-56287200D01*
X158964285Y-56287200D02*
X159107142Y-56334819D01*
X159107142Y-56334819D02*
X159202380Y-56334819D01*
X159202380Y-56334819D02*
X159345237Y-56287200D01*
X159345237Y-56287200D02*
X159440475Y-56191961D01*
X159440475Y-56191961D02*
X159488094Y-56096723D01*
X159488094Y-56096723D02*
X159535713Y-55906247D01*
X159535713Y-55906247D02*
X159535713Y-55763390D01*
X159535713Y-55763390D02*
X159488094Y-55572914D01*
X159488094Y-55572914D02*
X159440475Y-55477676D01*
X159440475Y-55477676D02*
X159345237Y-55382438D01*
X159345237Y-55382438D02*
X159202380Y-55334819D01*
X159202380Y-55334819D02*
X159107142Y-55334819D01*
X159107142Y-55334819D02*
X158964285Y-55382438D01*
X158964285Y-55382438D02*
X158916666Y-55430057D01*
X158059523Y-55334819D02*
X158249999Y-55334819D01*
X158249999Y-55334819D02*
X158345237Y-55382438D01*
X158345237Y-55382438D02*
X158392856Y-55430057D01*
X158392856Y-55430057D02*
X158488094Y-55572914D01*
X158488094Y-55572914D02*
X158535713Y-55763390D01*
X158535713Y-55763390D02*
X158535713Y-56144342D01*
X158535713Y-56144342D02*
X158488094Y-56239580D01*
X158488094Y-56239580D02*
X158440475Y-56287200D01*
X158440475Y-56287200D02*
X158345237Y-56334819D01*
X158345237Y-56334819D02*
X158154761Y-56334819D01*
X158154761Y-56334819D02*
X158059523Y-56287200D01*
X158059523Y-56287200D02*
X158011904Y-56239580D01*
X158011904Y-56239580D02*
X157964285Y-56144342D01*
X157964285Y-56144342D02*
X157964285Y-55906247D01*
X157964285Y-55906247D02*
X158011904Y-55811009D01*
X158011904Y-55811009D02*
X158059523Y-55763390D01*
X158059523Y-55763390D02*
X158154761Y-55715771D01*
X158154761Y-55715771D02*
X158345237Y-55715771D01*
X158345237Y-55715771D02*
X158440475Y-55763390D01*
X158440475Y-55763390D02*
X158488094Y-55811009D01*
X158488094Y-55811009D02*
X158535713Y-55906247D01*
X88598333Y-83274819D02*
X88598333Y-83989104D01*
X88598333Y-83989104D02*
X88645952Y-84131961D01*
X88645952Y-84131961D02*
X88741190Y-84227200D01*
X88741190Y-84227200D02*
X88884047Y-84274819D01*
X88884047Y-84274819D02*
X88979285Y-84274819D01*
X87645952Y-83274819D02*
X88122142Y-83274819D01*
X88122142Y-83274819D02*
X88169761Y-83751009D01*
X88169761Y-83751009D02*
X88122142Y-83703390D01*
X88122142Y-83703390D02*
X88026904Y-83655771D01*
X88026904Y-83655771D02*
X87788809Y-83655771D01*
X87788809Y-83655771D02*
X87693571Y-83703390D01*
X87693571Y-83703390D02*
X87645952Y-83751009D01*
X87645952Y-83751009D02*
X87598333Y-83846247D01*
X87598333Y-83846247D02*
X87598333Y-84084342D01*
X87598333Y-84084342D02*
X87645952Y-84179580D01*
X87645952Y-84179580D02*
X87693571Y-84227200D01*
X87693571Y-84227200D02*
X87788809Y-84274819D01*
X87788809Y-84274819D02*
X88026904Y-84274819D01*
X88026904Y-84274819D02*
X88122142Y-84227200D01*
X88122142Y-84227200D02*
X88169761Y-84179580D01*
X158916666Y-86739980D02*
X158964285Y-86787600D01*
X158964285Y-86787600D02*
X159107142Y-86835219D01*
X159107142Y-86835219D02*
X159202380Y-86835219D01*
X159202380Y-86835219D02*
X159345237Y-86787600D01*
X159345237Y-86787600D02*
X159440475Y-86692361D01*
X159440475Y-86692361D02*
X159488094Y-86597123D01*
X159488094Y-86597123D02*
X159535713Y-86406647D01*
X159535713Y-86406647D02*
X159535713Y-86263790D01*
X159535713Y-86263790D02*
X159488094Y-86073314D01*
X159488094Y-86073314D02*
X159440475Y-85978076D01*
X159440475Y-85978076D02*
X159345237Y-85882838D01*
X159345237Y-85882838D02*
X159202380Y-85835219D01*
X159202380Y-85835219D02*
X159107142Y-85835219D01*
X159107142Y-85835219D02*
X158964285Y-85882838D01*
X158964285Y-85882838D02*
X158916666Y-85930457D01*
X158583332Y-85835219D02*
X157916666Y-85835219D01*
X157916666Y-85835219D02*
X158345237Y-86835219D01*
X168634580Y-61587142D02*
X168682200Y-61539523D01*
X168682200Y-61539523D02*
X168729819Y-61396666D01*
X168729819Y-61396666D02*
X168729819Y-61301428D01*
X168729819Y-61301428D02*
X168682200Y-61158571D01*
X168682200Y-61158571D02*
X168586961Y-61063333D01*
X168586961Y-61063333D02*
X168491723Y-61015714D01*
X168491723Y-61015714D02*
X168301247Y-60968095D01*
X168301247Y-60968095D02*
X168158390Y-60968095D01*
X168158390Y-60968095D02*
X167967914Y-61015714D01*
X167967914Y-61015714D02*
X167872676Y-61063333D01*
X167872676Y-61063333D02*
X167777438Y-61158571D01*
X167777438Y-61158571D02*
X167729819Y-61301428D01*
X167729819Y-61301428D02*
X167729819Y-61396666D01*
X167729819Y-61396666D02*
X167777438Y-61539523D01*
X167777438Y-61539523D02*
X167825057Y-61587142D01*
X168729819Y-62539523D02*
X168729819Y-61968095D01*
X168729819Y-62253809D02*
X167729819Y-62253809D01*
X167729819Y-62253809D02*
X167872676Y-62158571D01*
X167872676Y-62158571D02*
X167967914Y-62063333D01*
X167967914Y-62063333D02*
X168015533Y-61968095D01*
X167825057Y-62920476D02*
X167777438Y-62968095D01*
X167777438Y-62968095D02*
X167729819Y-63063333D01*
X167729819Y-63063333D02*
X167729819Y-63301428D01*
X167729819Y-63301428D02*
X167777438Y-63396666D01*
X167777438Y-63396666D02*
X167825057Y-63444285D01*
X167825057Y-63444285D02*
X167920295Y-63491904D01*
X167920295Y-63491904D02*
X168015533Y-63491904D01*
X168015533Y-63491904D02*
X168158390Y-63444285D01*
X168158390Y-63444285D02*
X168729819Y-62872857D01*
X168729819Y-62872857D02*
X168729819Y-63491904D01*
X88598333Y-93434819D02*
X88598333Y-94149104D01*
X88598333Y-94149104D02*
X88645952Y-94291961D01*
X88645952Y-94291961D02*
X88741190Y-94387200D01*
X88741190Y-94387200D02*
X88884047Y-94434819D01*
X88884047Y-94434819D02*
X88979285Y-94434819D01*
X88217380Y-93434819D02*
X87550714Y-93434819D01*
X87550714Y-93434819D02*
X87979285Y-94434819D01*
X122542857Y-56239580D02*
X122590476Y-56287200D01*
X122590476Y-56287200D02*
X122733333Y-56334819D01*
X122733333Y-56334819D02*
X122828571Y-56334819D01*
X122828571Y-56334819D02*
X122971428Y-56287200D01*
X122971428Y-56287200D02*
X123066666Y-56191961D01*
X123066666Y-56191961D02*
X123114285Y-56096723D01*
X123114285Y-56096723D02*
X123161904Y-55906247D01*
X123161904Y-55906247D02*
X123161904Y-55763390D01*
X123161904Y-55763390D02*
X123114285Y-55572914D01*
X123114285Y-55572914D02*
X123066666Y-55477676D01*
X123066666Y-55477676D02*
X122971428Y-55382438D01*
X122971428Y-55382438D02*
X122828571Y-55334819D01*
X122828571Y-55334819D02*
X122733333Y-55334819D01*
X122733333Y-55334819D02*
X122590476Y-55382438D01*
X122590476Y-55382438D02*
X122542857Y-55430057D01*
X121590476Y-56334819D02*
X122161904Y-56334819D01*
X121876190Y-56334819D02*
X121876190Y-55334819D01*
X121876190Y-55334819D02*
X121971428Y-55477676D01*
X121971428Y-55477676D02*
X122066666Y-55572914D01*
X122066666Y-55572914D02*
X122161904Y-55620533D01*
X120733333Y-55334819D02*
X120923809Y-55334819D01*
X120923809Y-55334819D02*
X121019047Y-55382438D01*
X121019047Y-55382438D02*
X121066666Y-55430057D01*
X121066666Y-55430057D02*
X121161904Y-55572914D01*
X121161904Y-55572914D02*
X121209523Y-55763390D01*
X121209523Y-55763390D02*
X121209523Y-56144342D01*
X121209523Y-56144342D02*
X121161904Y-56239580D01*
X121161904Y-56239580D02*
X121114285Y-56287200D01*
X121114285Y-56287200D02*
X121019047Y-56334819D01*
X121019047Y-56334819D02*
X120828571Y-56334819D01*
X120828571Y-56334819D02*
X120733333Y-56287200D01*
X120733333Y-56287200D02*
X120685714Y-56239580D01*
X120685714Y-56239580D02*
X120638095Y-56144342D01*
X120638095Y-56144342D02*
X120638095Y-55906247D01*
X120638095Y-55906247D02*
X120685714Y-55811009D01*
X120685714Y-55811009D02*
X120733333Y-55763390D01*
X120733333Y-55763390D02*
X120828571Y-55715771D01*
X120828571Y-55715771D02*
X121019047Y-55715771D01*
X121019047Y-55715771D02*
X121114285Y-55763390D01*
X121114285Y-55763390D02*
X121161904Y-55811009D01*
X121161904Y-55811009D02*
X121209523Y-55906247D01*
X140059580Y-120483333D02*
X140107200Y-120435714D01*
X140107200Y-120435714D02*
X140154819Y-120292857D01*
X140154819Y-120292857D02*
X140154819Y-120197619D01*
X140154819Y-120197619D02*
X140107200Y-120054762D01*
X140107200Y-120054762D02*
X140011961Y-119959524D01*
X140011961Y-119959524D02*
X139916723Y-119911905D01*
X139916723Y-119911905D02*
X139726247Y-119864286D01*
X139726247Y-119864286D02*
X139583390Y-119864286D01*
X139583390Y-119864286D02*
X139392914Y-119911905D01*
X139392914Y-119911905D02*
X139297676Y-119959524D01*
X139297676Y-119959524D02*
X139202438Y-120054762D01*
X139202438Y-120054762D02*
X139154819Y-120197619D01*
X139154819Y-120197619D02*
X139154819Y-120292857D01*
X139154819Y-120292857D02*
X139202438Y-120435714D01*
X139202438Y-120435714D02*
X139250057Y-120483333D01*
X139250057Y-120864286D02*
X139202438Y-120911905D01*
X139202438Y-120911905D02*
X139154819Y-121007143D01*
X139154819Y-121007143D02*
X139154819Y-121245238D01*
X139154819Y-121245238D02*
X139202438Y-121340476D01*
X139202438Y-121340476D02*
X139250057Y-121388095D01*
X139250057Y-121388095D02*
X139345295Y-121435714D01*
X139345295Y-121435714D02*
X139440533Y-121435714D01*
X139440533Y-121435714D02*
X139583390Y-121388095D01*
X139583390Y-121388095D02*
X140154819Y-120816667D01*
X140154819Y-120816667D02*
X140154819Y-121435714D01*
X127896785Y-124914819D02*
X127896785Y-123914819D01*
X127896785Y-123914819D02*
X127658690Y-123914819D01*
X127658690Y-123914819D02*
X127515833Y-123962438D01*
X127515833Y-123962438D02*
X127420595Y-124057676D01*
X127420595Y-124057676D02*
X127372976Y-124152914D01*
X127372976Y-124152914D02*
X127325357Y-124343390D01*
X127325357Y-124343390D02*
X127325357Y-124486247D01*
X127325357Y-124486247D02*
X127372976Y-124676723D01*
X127372976Y-124676723D02*
X127420595Y-124771961D01*
X127420595Y-124771961D02*
X127515833Y-124867200D01*
X127515833Y-124867200D02*
X127658690Y-124914819D01*
X127658690Y-124914819D02*
X127896785Y-124914819D01*
X126372976Y-124914819D02*
X126944404Y-124914819D01*
X126658690Y-124914819D02*
X126658690Y-123914819D01*
X126658690Y-123914819D02*
X126753928Y-124057676D01*
X126753928Y-124057676D02*
X126849166Y-124152914D01*
X126849166Y-124152914D02*
X126944404Y-124200533D01*
X125753928Y-123914819D02*
X125658690Y-123914819D01*
X125658690Y-123914819D02*
X125563452Y-123962438D01*
X125563452Y-123962438D02*
X125515833Y-124010057D01*
X125515833Y-124010057D02*
X125468214Y-124105295D01*
X125468214Y-124105295D02*
X125420595Y-124295771D01*
X125420595Y-124295771D02*
X125420595Y-124533866D01*
X125420595Y-124533866D02*
X125468214Y-124724342D01*
X125468214Y-124724342D02*
X125515833Y-124819580D01*
X125515833Y-124819580D02*
X125563452Y-124867200D01*
X125563452Y-124867200D02*
X125658690Y-124914819D01*
X125658690Y-124914819D02*
X125753928Y-124914819D01*
X125753928Y-124914819D02*
X125849166Y-124867200D01*
X125849166Y-124867200D02*
X125896785Y-124819580D01*
X125896785Y-124819580D02*
X125944404Y-124724342D01*
X125944404Y-124724342D02*
X125992023Y-124533866D01*
X125992023Y-124533866D02*
X125992023Y-124295771D01*
X125992023Y-124295771D02*
X125944404Y-124105295D01*
X125944404Y-124105295D02*
X125896785Y-124010057D01*
X125896785Y-124010057D02*
X125849166Y-123962438D01*
X125849166Y-123962438D02*
X125753928Y-123914819D01*
%LPC*%
D15*
X93980000Y-60960000D03*
D16*
X93980000Y-58420000D03*
X93980000Y-55880000D03*
X93980000Y-53340000D03*
D17*
X166370000Y-66040000D03*
X166370000Y-68540000D03*
X166370000Y-73660000D03*
X166370000Y-71160000D03*
X166370000Y-101640000D03*
X166370000Y-104140000D03*
D18*
X127000000Y-47275000D03*
D19*
X124460000Y-47275000D03*
D17*
X166370000Y-91440000D03*
X166370000Y-93940000D03*
D16*
X93980000Y-104140000D03*
X93980000Y-106680000D03*
X93980000Y-109220000D03*
X93980000Y-111760000D03*
X93980000Y-114300000D03*
D15*
X93980000Y-116840000D03*
D17*
X106660000Y-90805000D03*
X104160000Y-90805000D03*
X98425000Y-119400000D03*
X98425000Y-121900000D03*
D15*
X86995000Y-76200000D03*
D16*
X89535000Y-76200000D03*
X86995000Y-78740000D03*
X89535000Y-78740000D03*
D18*
X101600000Y-47275000D03*
D19*
X99060000Y-47275000D03*
D17*
X106660000Y-57785000D03*
X104160000Y-57785000D03*
D20*
X101508400Y-116840000D03*
X109128400Y-116840000D03*
X109128400Y-124460000D03*
D21*
X101508400Y-124460000D03*
D18*
X147335000Y-47275000D03*
D19*
X144795000Y-47275000D03*
D21*
X144770000Y-124450000D03*
D20*
X147310000Y-124450000D03*
X149850000Y-124450000D03*
X152390000Y-124450000D03*
X154930000Y-124450000D03*
X157470000Y-124450000D03*
X160010000Y-124450000D03*
X162550000Y-124450000D03*
X162550000Y-116830000D03*
X160010000Y-116830000D03*
X157470000Y-116830000D03*
X154930000Y-116830000D03*
X152390000Y-116830000D03*
X149850000Y-116830000D03*
X147310000Y-116830000D03*
X144770000Y-116830000D03*
D18*
X142255000Y-47275000D03*
D19*
X139715000Y-47275000D03*
X160020000Y-47275000D03*
D18*
X162560000Y-47275000D03*
D17*
X140990000Y-57785000D03*
X143490000Y-57785000D03*
D20*
X162570000Y-91430000D03*
X162570000Y-93970000D03*
X162570000Y-96510000D03*
X162570000Y-99050000D03*
X162570000Y-101590000D03*
X162570000Y-104130000D03*
X162570000Y-106670000D03*
X162570000Y-109210000D03*
X154950000Y-109210000D03*
X154950000Y-106670000D03*
X154950000Y-104130000D03*
X154950000Y-101590000D03*
X154950000Y-99050000D03*
X154950000Y-96510000D03*
X154950000Y-93970000D03*
D21*
X154950000Y-91430000D03*
D17*
X101600000Y-52705000D03*
D20*
X111760000Y-52705000D03*
D17*
X166370000Y-106720000D03*
X166370000Y-109220000D03*
D18*
X167640000Y-47275000D03*
D19*
X165100000Y-47275000D03*
D22*
X171704000Y-136612000D03*
X169164000Y-136612000D03*
X166624000Y-136612000D03*
X164084000Y-136612000D03*
X161544000Y-136612000D03*
X159004000Y-136612000D03*
X156464000Y-136612000D03*
X153924000Y-136612000D03*
X151384000Y-136612000D03*
X148844000Y-136612000D03*
X146304000Y-136612000D03*
X143764000Y-136612000D03*
X141224000Y-136612000D03*
X138684000Y-136612000D03*
X136144000Y-136612000D03*
X133604000Y-136612000D03*
X131064000Y-136612000D03*
X128524000Y-136612000D03*
X125984000Y-136612000D03*
X123444000Y-136612000D03*
X120904000Y-136612000D03*
X118364000Y-136612000D03*
X115824000Y-136612000D03*
X113284000Y-136612000D03*
X110744000Y-136612000D03*
X108204000Y-136612000D03*
X105664000Y-136612000D03*
X103124000Y-136612000D03*
X100584000Y-136612000D03*
X98044000Y-136612000D03*
X95504000Y-136612000D03*
D21*
X101610000Y-60965000D03*
D20*
X101610000Y-63505000D03*
X101610000Y-66045000D03*
X101610000Y-68585000D03*
X101610000Y-71125000D03*
X101610000Y-73665000D03*
X101610000Y-76205000D03*
X101610000Y-78745000D03*
X101610000Y-81285000D03*
X101610000Y-83825000D03*
X109230000Y-83825000D03*
X109230000Y-81285000D03*
X109230000Y-78745000D03*
X109230000Y-76205000D03*
X109230000Y-73665000D03*
X109230000Y-71125000D03*
X109230000Y-68585000D03*
X109230000Y-66045000D03*
X109230000Y-63505000D03*
X109230000Y-60965000D03*
D17*
X178435000Y-71755000D03*
X178435000Y-68985000D03*
X178435000Y-66215000D03*
X178435000Y-63445000D03*
X175595000Y-73140000D03*
X175595000Y-70370000D03*
X175595000Y-67600000D03*
X175595000Y-64830000D03*
D21*
X175595000Y-62060000D03*
D23*
X175895000Y-55100000D03*
X175895000Y-80100000D03*
D17*
X166370000Y-96520000D03*
X166370000Y-99020000D03*
X166370000Y-76200000D03*
X166370000Y-78700000D03*
D21*
X121920000Y-52705000D03*
D20*
X124460000Y-52705000D03*
X127000000Y-52705000D03*
X129540000Y-52705000D03*
X132080000Y-52705000D03*
X134620000Y-52705000D03*
X137160000Y-52705000D03*
X139700000Y-52705000D03*
X142240000Y-52705000D03*
D24*
X121285000Y-116840000D03*
D25*
X131445000Y-116840000D03*
D18*
X121920000Y-47275000D03*
D19*
X119380000Y-47275000D03*
D17*
X162560000Y-52705000D03*
D20*
X152400000Y-52705000D03*
D17*
X160000000Y-57785000D03*
X157500000Y-57785000D03*
D15*
X86990000Y-86360000D03*
D16*
X89530000Y-86360000D03*
X86990000Y-88900000D03*
X89530000Y-88900000D03*
D17*
X160000000Y-88265000D03*
X157500000Y-88265000D03*
X166370000Y-61000000D03*
X166370000Y-63500000D03*
D18*
X106680000Y-47275000D03*
D19*
X104140000Y-47275000D03*
D15*
X86995000Y-96520000D03*
D16*
X89535000Y-96520000D03*
D21*
X154940000Y-60960000D03*
D20*
X154940000Y-63500000D03*
X154940000Y-66040000D03*
X154940000Y-68580000D03*
X154940000Y-71120000D03*
X154940000Y-73660000D03*
X154940000Y-76200000D03*
X154940000Y-78740000D03*
X162560000Y-78740000D03*
X162560000Y-76200000D03*
X162560000Y-73660000D03*
X162560000Y-71120000D03*
X162560000Y-68580000D03*
X162560000Y-66040000D03*
X162560000Y-63500000D03*
X162560000Y-60960000D03*
D23*
X175895000Y-117920000D03*
X175895000Y-92920000D03*
D21*
X175595000Y-110960000D03*
D17*
X175595000Y-108190000D03*
X175595000Y-105420000D03*
X175595000Y-102650000D03*
X175595000Y-99880000D03*
X178435000Y-109575000D03*
X178435000Y-106805000D03*
X178435000Y-104035000D03*
X178435000Y-101265000D03*
D21*
X114300000Y-60960000D03*
D20*
X114300000Y-63500000D03*
X114300000Y-66040000D03*
X114300000Y-68580000D03*
X114300000Y-71120000D03*
X114300000Y-73660000D03*
X114300000Y-76200000D03*
X114300000Y-78740000D03*
X114300000Y-81280000D03*
X114300000Y-83820000D03*
X114300000Y-86360000D03*
X114300000Y-88900000D03*
X114300000Y-91440000D03*
X114300000Y-93980000D03*
X114300000Y-96520000D03*
X114300000Y-99060000D03*
X114300000Y-101600000D03*
X114300000Y-104140000D03*
X114300000Y-106680000D03*
X114300000Y-109220000D03*
X129540000Y-109220000D03*
X129540000Y-106680000D03*
X129540000Y-104140000D03*
X129540000Y-101600000D03*
X129540000Y-99060000D03*
X129540000Y-96520000D03*
X129540000Y-93980000D03*
X129540000Y-91440000D03*
X129540000Y-88900000D03*
X129540000Y-86360000D03*
X129540000Y-83820000D03*
X129540000Y-81280000D03*
X129540000Y-78740000D03*
X129540000Y-76200000D03*
X129540000Y-73660000D03*
X129540000Y-71120000D03*
X129540000Y-68580000D03*
X129540000Y-66040000D03*
X129540000Y-63500000D03*
X129540000Y-60960000D03*
D21*
X101600000Y-93980000D03*
D20*
X101600000Y-96520000D03*
X101600000Y-99060000D03*
X101600000Y-101600000D03*
X101600000Y-104140000D03*
X101600000Y-106680000D03*
X101600000Y-109220000D03*
X109220000Y-109220000D03*
X109220000Y-106680000D03*
X109220000Y-104140000D03*
X109220000Y-101600000D03*
X109220000Y-99060000D03*
X109220000Y-96520000D03*
X109220000Y-93980000D03*
D17*
X120650000Y-57785000D03*
X123150000Y-57785000D03*
X141605000Y-119380000D03*
X141605000Y-121880000D03*
D21*
X134620000Y-60960000D03*
D20*
X134620000Y-63500000D03*
X134620000Y-66040000D03*
X134620000Y-68580000D03*
X134620000Y-71120000D03*
X134620000Y-73660000D03*
X134620000Y-76200000D03*
X134620000Y-78740000D03*
X134620000Y-81280000D03*
X134620000Y-83820000D03*
X134620000Y-86360000D03*
X134620000Y-88900000D03*
X134620000Y-91440000D03*
X134620000Y-93980000D03*
X134620000Y-96520000D03*
X134620000Y-99060000D03*
X134620000Y-101600000D03*
X134620000Y-104140000D03*
X134620000Y-106680000D03*
X134620000Y-109220000D03*
X149860000Y-109220000D03*
X149860000Y-106680000D03*
X149860000Y-104140000D03*
X149860000Y-101600000D03*
X149860000Y-99060000D03*
X149860000Y-96520000D03*
X149860000Y-93980000D03*
X149860000Y-91440000D03*
X149860000Y-88900000D03*
X149860000Y-86360000D03*
X149860000Y-83820000D03*
X149860000Y-81280000D03*
X149860000Y-78740000D03*
X149860000Y-76200000D03*
X149860000Y-73660000D03*
X149860000Y-71120000D03*
X149860000Y-68580000D03*
X149860000Y-66040000D03*
X149860000Y-63500000D03*
X149860000Y-60960000D03*
D24*
X121285000Y-124460000D03*
D25*
X131445000Y-124460000D03*
%LPD*%
M02*
