%TF.GenerationSoftware,KiCad,Pcbnew,7.0.6*%
%TF.CreationDate,2023-08-07T17:46:09-04:00*%
%TF.ProjectId,3 - Quad Serial card v3,33202d20-5175-4616-9420-53657269616c,1*%
%TF.SameCoordinates,Original*%
%TF.FileFunction,Drillmap*%
%TF.FilePolarity,Positive*%
%FSLAX45Y45*%
G04 Gerber Fmt 4.5, Leading zero omitted, Abs format (unit mm)*
G04 Created by KiCad (PCBNEW 7.0.6) date 2023-08-07 17:46:09*
%MOMM*%
%LPD*%
G01*
G04 APERTURE LIST*
%ADD10C,0.200000*%
%ADD11C,0.040000*%
%ADD12C,0.050000*%
%ADD13C,0.080000*%
%ADD14C,0.090000*%
%ADD15C,0.100000*%
%ADD16C,0.110000*%
%ADD17C,0.320000*%
G04 APERTURE END LIST*
D10*
D11*
X10305100Y-8603300D02*
X10345100Y-8643300D01*
X10345100Y-8603300D02*
X10305100Y-8643300D01*
X10330500Y-12654600D02*
X10370500Y-12694600D01*
X10370500Y-12654600D02*
X10330500Y-12694600D01*
X10811140Y-13065390D02*
X10851140Y-13105390D01*
X10851140Y-13065390D02*
X10811140Y-13105390D01*
X11270300Y-12349800D02*
X11310300Y-12389800D01*
X11310300Y-12349800D02*
X11270300Y-12389800D01*
X11346500Y-13061000D02*
X11386500Y-13101000D01*
X11386500Y-13061000D02*
X11346500Y-13101000D01*
X11520850Y-11625900D02*
X11560850Y-11665900D01*
X11560850Y-11625900D02*
X11520850Y-11665900D01*
X11772160Y-13061000D02*
X11812160Y-13101000D01*
X11812160Y-13061000D02*
X11772160Y-13101000D01*
X11892540Y-11438610D02*
X11932540Y-11478610D01*
X11932540Y-11438610D02*
X11892540Y-11478610D01*
X11915180Y-12197400D02*
X11955180Y-12237400D01*
X11955180Y-12197400D02*
X11915180Y-12237400D01*
X12012650Y-9769800D02*
X12052650Y-9809800D01*
X12052650Y-9769800D02*
X12012650Y-9809800D01*
X12077082Y-12683592D02*
X12117082Y-12723592D01*
X12117082Y-12683592D02*
X12077082Y-12723592D01*
X12235500Y-12837060D02*
X12275500Y-12877060D01*
X12275500Y-12837060D02*
X12235500Y-12877060D01*
X12464100Y-12921300D02*
X12504100Y-12961300D01*
X12504100Y-12921300D02*
X12464100Y-12961300D01*
X12768900Y-12045000D02*
X12808900Y-12085000D01*
X12808900Y-12045000D02*
X12768900Y-12085000D01*
X12794930Y-10470200D02*
X12834930Y-10510200D01*
X12834930Y-10470200D02*
X12794930Y-10510200D01*
X12794930Y-10775000D02*
X12834930Y-10815000D01*
X12834930Y-10775000D02*
X12794930Y-10815000D01*
X12795010Y-9197730D02*
X12835010Y-9237730D01*
X12835010Y-9197730D02*
X12795010Y-9237730D01*
X12934000Y-12807000D02*
X12974000Y-12847000D01*
X12974000Y-12807000D02*
X12934000Y-12847000D01*
X13242730Y-7646870D02*
X13282730Y-7686870D01*
X13282730Y-7646870D02*
X13242730Y-7686870D01*
X13708700Y-12464100D02*
X13748700Y-12504100D01*
X13748700Y-12464100D02*
X13708700Y-12504100D01*
X13926469Y-12780869D02*
X13966469Y-12820869D01*
X13966469Y-12780869D02*
X13926469Y-12820869D01*
X14171675Y-8609075D02*
X14211675Y-8649075D01*
X14211675Y-8609075D02*
X14171675Y-8649075D01*
X14235750Y-12747355D02*
X14275750Y-12787355D01*
X14275750Y-12747355D02*
X14235750Y-12787355D01*
X14310530Y-9670580D02*
X14350530Y-9710580D01*
X14350530Y-9670580D02*
X14310530Y-9710580D01*
X14707320Y-7880780D02*
X14747320Y-7920780D01*
X14747320Y-7880780D02*
X14707320Y-7920780D01*
X14763820Y-9598130D02*
X14803820Y-9638130D01*
X14803820Y-9598130D02*
X14763820Y-9638130D01*
D12*
X9550000Y-13144500D02*
G75*
G03*
X9550000Y-13144500I-25000J0D01*
G01*
X9804000Y-13144500D02*
G75*
G03*
X9804000Y-13144500I-25000J0D01*
G01*
X12026500Y-8064500D02*
G75*
G03*
X12026500Y-8064500I-25000J0D01*
G01*
X12318600Y-8216900D02*
G75*
G03*
X12318600Y-8216900I-25000J0D01*
G01*
X14058500Y-8064500D02*
G75*
G03*
X14058500Y-8064500I-25000J0D01*
G01*
X14439500Y-8318500D02*
G75*
G03*
X14439500Y-8318500I-25000J0D01*
G01*
X16979500Y-13144500D02*
G75*
G03*
X16979500Y-13144500I-25000J0D01*
G01*
X17233500Y-13144500D02*
G75*
G03*
X17233500Y-13144500I-25000J0D01*
G01*
D13*
X9842500Y-11900000D02*
X9842500Y-11980000D01*
X9802500Y-11940000D02*
X9882500Y-11940000D01*
X9842500Y-12150000D02*
X9842500Y-12230000D01*
X9802500Y-12190000D02*
X9882500Y-12190000D01*
X10150840Y-11644000D02*
X10150840Y-11724000D01*
X10110840Y-11684000D02*
X10190840Y-11684000D01*
X10150840Y-12406000D02*
X10150840Y-12486000D01*
X10110840Y-12446000D02*
X10190840Y-12446000D01*
X10160000Y-5230500D02*
X10160000Y-5310500D01*
X10120000Y-5270500D02*
X10200000Y-5270500D01*
X10160000Y-9358000D02*
X10160000Y-9438000D01*
X10120000Y-9398000D02*
X10200000Y-9398000D01*
X10160000Y-9612000D02*
X10160000Y-9692000D01*
X10120000Y-9652000D02*
X10200000Y-9652000D01*
X10160000Y-9866000D02*
X10160000Y-9946000D01*
X10120000Y-9906000D02*
X10200000Y-9906000D01*
X10160000Y-10120000D02*
X10160000Y-10200000D01*
X10120000Y-10160000D02*
X10200000Y-10160000D01*
X10160000Y-10374000D02*
X10160000Y-10454000D01*
X10120000Y-10414000D02*
X10200000Y-10414000D01*
X10160000Y-10628000D02*
X10160000Y-10708000D01*
X10120000Y-10668000D02*
X10200000Y-10668000D01*
X10160000Y-10882000D02*
X10160000Y-10962000D01*
X10120000Y-10922000D02*
X10200000Y-10922000D01*
X10161000Y-6056500D02*
X10161000Y-6136500D01*
X10121000Y-6096500D02*
X10201000Y-6096500D01*
X10161000Y-6310500D02*
X10161000Y-6390500D01*
X10121000Y-6350500D02*
X10201000Y-6350500D01*
X10161000Y-6564500D02*
X10161000Y-6644500D01*
X10121000Y-6604500D02*
X10201000Y-6604500D01*
X10161000Y-6818500D02*
X10161000Y-6898500D01*
X10121000Y-6858500D02*
X10201000Y-6858500D01*
X10161000Y-7072500D02*
X10161000Y-7152500D01*
X10121000Y-7112500D02*
X10201000Y-7112500D01*
X10161000Y-7326500D02*
X10161000Y-7406500D01*
X10121000Y-7366500D02*
X10201000Y-7366500D01*
X10161000Y-7580500D02*
X10161000Y-7660500D01*
X10121000Y-7620500D02*
X10201000Y-7620500D01*
X10161000Y-7834500D02*
X10161000Y-7914500D01*
X10121000Y-7874500D02*
X10201000Y-7874500D01*
X10161000Y-8088500D02*
X10161000Y-8168500D01*
X10121000Y-8128500D02*
X10201000Y-8128500D01*
X10161000Y-8342500D02*
X10161000Y-8422500D01*
X10121000Y-8382500D02*
X10201000Y-8382500D01*
X10416000Y-5738500D02*
X10416000Y-5818500D01*
X10376000Y-5778500D02*
X10456000Y-5778500D01*
X10416000Y-9040500D02*
X10416000Y-9120500D01*
X10376000Y-9080500D02*
X10456000Y-9080500D01*
X10666000Y-5738500D02*
X10666000Y-5818500D01*
X10626000Y-5778500D02*
X10706000Y-5778500D01*
X10666000Y-9040500D02*
X10666000Y-9120500D01*
X10626000Y-9080500D02*
X10706000Y-9080500D01*
X10912840Y-11644000D02*
X10912840Y-11724000D01*
X10872840Y-11684000D02*
X10952840Y-11684000D01*
X10912840Y-12406000D02*
X10912840Y-12486000D01*
X10872840Y-12446000D02*
X10952840Y-12446000D01*
X10922000Y-9358000D02*
X10922000Y-9438000D01*
X10882000Y-9398000D02*
X10962000Y-9398000D01*
X10922000Y-9612000D02*
X10922000Y-9692000D01*
X10882000Y-9652000D02*
X10962000Y-9652000D01*
X10922000Y-9866000D02*
X10922000Y-9946000D01*
X10882000Y-9906000D02*
X10962000Y-9906000D01*
X10922000Y-10120000D02*
X10922000Y-10200000D01*
X10882000Y-10160000D02*
X10962000Y-10160000D01*
X10922000Y-10374000D02*
X10922000Y-10454000D01*
X10882000Y-10414000D02*
X10962000Y-10414000D01*
X10922000Y-10628000D02*
X10922000Y-10708000D01*
X10882000Y-10668000D02*
X10962000Y-10668000D01*
X10922000Y-10882000D02*
X10922000Y-10962000D01*
X10882000Y-10922000D02*
X10962000Y-10922000D01*
X10923000Y-6056500D02*
X10923000Y-6136500D01*
X10883000Y-6096500D02*
X10963000Y-6096500D01*
X10923000Y-6310500D02*
X10923000Y-6390500D01*
X10883000Y-6350500D02*
X10963000Y-6350500D01*
X10923000Y-6564500D02*
X10923000Y-6644500D01*
X10883000Y-6604500D02*
X10963000Y-6604500D01*
X10923000Y-6818500D02*
X10923000Y-6898500D01*
X10883000Y-6858500D02*
X10963000Y-6858500D01*
X10923000Y-7072500D02*
X10923000Y-7152500D01*
X10883000Y-7112500D02*
X10963000Y-7112500D01*
X10923000Y-7326500D02*
X10923000Y-7406500D01*
X10883000Y-7366500D02*
X10963000Y-7366500D01*
X10923000Y-7580500D02*
X10923000Y-7660500D01*
X10883000Y-7620500D02*
X10963000Y-7620500D01*
X10923000Y-7834500D02*
X10923000Y-7914500D01*
X10883000Y-7874500D02*
X10963000Y-7874500D01*
X10923000Y-8088500D02*
X10923000Y-8168500D01*
X10883000Y-8128500D02*
X10963000Y-8128500D01*
X10923000Y-8342500D02*
X10923000Y-8422500D01*
X10883000Y-8382500D02*
X10963000Y-8382500D01*
X11176000Y-5230500D02*
X11176000Y-5310500D01*
X11136000Y-5270500D02*
X11216000Y-5270500D01*
X11430000Y-6056000D02*
X11430000Y-6136000D01*
X11390000Y-6096000D02*
X11470000Y-6096000D01*
X11430000Y-6310000D02*
X11430000Y-6390000D01*
X11390000Y-6350000D02*
X11470000Y-6350000D01*
X11430000Y-6564000D02*
X11430000Y-6644000D01*
X11390000Y-6604000D02*
X11470000Y-6604000D01*
X11430000Y-6818000D02*
X11430000Y-6898000D01*
X11390000Y-6858000D02*
X11470000Y-6858000D01*
X11430000Y-7072000D02*
X11430000Y-7152000D01*
X11390000Y-7112000D02*
X11470000Y-7112000D01*
X11430000Y-7326000D02*
X11430000Y-7406000D01*
X11390000Y-7366000D02*
X11470000Y-7366000D01*
X11430000Y-7580000D02*
X11430000Y-7660000D01*
X11390000Y-7620000D02*
X11470000Y-7620000D01*
X11430000Y-7834000D02*
X11430000Y-7914000D01*
X11390000Y-7874000D02*
X11470000Y-7874000D01*
X11430000Y-8088000D02*
X11430000Y-8168000D01*
X11390000Y-8128000D02*
X11470000Y-8128000D01*
X11430000Y-8342000D02*
X11430000Y-8422000D01*
X11390000Y-8382000D02*
X11470000Y-8382000D01*
X11430000Y-8596000D02*
X11430000Y-8676000D01*
X11390000Y-8636000D02*
X11470000Y-8636000D01*
X11430000Y-8850000D02*
X11430000Y-8930000D01*
X11390000Y-8890000D02*
X11470000Y-8890000D01*
X11430000Y-9104000D02*
X11430000Y-9184000D01*
X11390000Y-9144000D02*
X11470000Y-9144000D01*
X11430000Y-9358000D02*
X11430000Y-9438000D01*
X11390000Y-9398000D02*
X11470000Y-9398000D01*
X11430000Y-9612000D02*
X11430000Y-9692000D01*
X11390000Y-9652000D02*
X11470000Y-9652000D01*
X11430000Y-9866000D02*
X11430000Y-9946000D01*
X11390000Y-9906000D02*
X11470000Y-9906000D01*
X11430000Y-10120000D02*
X11430000Y-10200000D01*
X11390000Y-10160000D02*
X11470000Y-10160000D01*
X11430000Y-10374000D02*
X11430000Y-10454000D01*
X11390000Y-10414000D02*
X11470000Y-10414000D01*
X11430000Y-10628000D02*
X11430000Y-10708000D01*
X11390000Y-10668000D02*
X11470000Y-10668000D01*
X11430000Y-10882000D02*
X11430000Y-10962000D01*
X11390000Y-10922000D02*
X11470000Y-10922000D01*
X12065000Y-5738500D02*
X12065000Y-5818500D01*
X12025000Y-5778500D02*
X12105000Y-5778500D01*
X12192000Y-5230500D02*
X12192000Y-5310500D01*
X12152000Y-5270500D02*
X12232000Y-5270500D01*
X12315000Y-5738500D02*
X12315000Y-5818500D01*
X12275000Y-5778500D02*
X12355000Y-5778500D01*
X12446000Y-5230500D02*
X12446000Y-5310500D01*
X12406000Y-5270500D02*
X12486000Y-5270500D01*
X12700000Y-5230500D02*
X12700000Y-5310500D01*
X12660000Y-5270500D02*
X12740000Y-5270500D01*
X12954000Y-5230500D02*
X12954000Y-5310500D01*
X12914000Y-5270500D02*
X12994000Y-5270500D01*
X12954000Y-6056000D02*
X12954000Y-6136000D01*
X12914000Y-6096000D02*
X12994000Y-6096000D01*
X12954000Y-6310000D02*
X12954000Y-6390000D01*
X12914000Y-6350000D02*
X12994000Y-6350000D01*
X12954000Y-6564000D02*
X12954000Y-6644000D01*
X12914000Y-6604000D02*
X12994000Y-6604000D01*
X12954000Y-6818000D02*
X12954000Y-6898000D01*
X12914000Y-6858000D02*
X12994000Y-6858000D01*
X12954000Y-7072000D02*
X12954000Y-7152000D01*
X12914000Y-7112000D02*
X12994000Y-7112000D01*
X12954000Y-7326000D02*
X12954000Y-7406000D01*
X12914000Y-7366000D02*
X12994000Y-7366000D01*
X12954000Y-7580000D02*
X12954000Y-7660000D01*
X12914000Y-7620000D02*
X12994000Y-7620000D01*
X12954000Y-7834000D02*
X12954000Y-7914000D01*
X12914000Y-7874000D02*
X12994000Y-7874000D01*
X12954000Y-8088000D02*
X12954000Y-8168000D01*
X12914000Y-8128000D02*
X12994000Y-8128000D01*
X12954000Y-8342000D02*
X12954000Y-8422000D01*
X12914000Y-8382000D02*
X12994000Y-8382000D01*
X12954000Y-8596000D02*
X12954000Y-8676000D01*
X12914000Y-8636000D02*
X12994000Y-8636000D01*
X12954000Y-8850000D02*
X12954000Y-8930000D01*
X12914000Y-8890000D02*
X12994000Y-8890000D01*
X12954000Y-9104000D02*
X12954000Y-9184000D01*
X12914000Y-9144000D02*
X12994000Y-9144000D01*
X12954000Y-9358000D02*
X12954000Y-9438000D01*
X12914000Y-9398000D02*
X12994000Y-9398000D01*
X12954000Y-9612000D02*
X12954000Y-9692000D01*
X12914000Y-9652000D02*
X12994000Y-9652000D01*
X12954000Y-9866000D02*
X12954000Y-9946000D01*
X12914000Y-9906000D02*
X12994000Y-9906000D01*
X12954000Y-10120000D02*
X12954000Y-10200000D01*
X12914000Y-10160000D02*
X12994000Y-10160000D01*
X12954000Y-10374000D02*
X12954000Y-10454000D01*
X12914000Y-10414000D02*
X12994000Y-10414000D01*
X12954000Y-10628000D02*
X12954000Y-10708000D01*
X12914000Y-10668000D02*
X12994000Y-10668000D01*
X12954000Y-10882000D02*
X12954000Y-10962000D01*
X12914000Y-10922000D02*
X12994000Y-10922000D01*
X13208000Y-5230500D02*
X13208000Y-5310500D01*
X13168000Y-5270500D02*
X13248000Y-5270500D01*
X13462000Y-5230500D02*
X13462000Y-5310500D01*
X13422000Y-5270500D02*
X13502000Y-5270500D01*
X13462000Y-6056000D02*
X13462000Y-6136000D01*
X13422000Y-6096000D02*
X13502000Y-6096000D01*
X13462000Y-6310000D02*
X13462000Y-6390000D01*
X13422000Y-6350000D02*
X13502000Y-6350000D01*
X13462000Y-6564000D02*
X13462000Y-6644000D01*
X13422000Y-6604000D02*
X13502000Y-6604000D01*
X13462000Y-6818000D02*
X13462000Y-6898000D01*
X13422000Y-6858000D02*
X13502000Y-6858000D01*
X13462000Y-7072000D02*
X13462000Y-7152000D01*
X13422000Y-7112000D02*
X13502000Y-7112000D01*
X13462000Y-7326000D02*
X13462000Y-7406000D01*
X13422000Y-7366000D02*
X13502000Y-7366000D01*
X13462000Y-7580000D02*
X13462000Y-7660000D01*
X13422000Y-7620000D02*
X13502000Y-7620000D01*
X13462000Y-7834000D02*
X13462000Y-7914000D01*
X13422000Y-7874000D02*
X13502000Y-7874000D01*
X13462000Y-8088000D02*
X13462000Y-8168000D01*
X13422000Y-8128000D02*
X13502000Y-8128000D01*
X13462000Y-8342000D02*
X13462000Y-8422000D01*
X13422000Y-8382000D02*
X13502000Y-8382000D01*
X13462000Y-8596000D02*
X13462000Y-8676000D01*
X13422000Y-8636000D02*
X13502000Y-8636000D01*
X13462000Y-8850000D02*
X13462000Y-8930000D01*
X13422000Y-8890000D02*
X13502000Y-8890000D01*
X13462000Y-9104000D02*
X13462000Y-9184000D01*
X13422000Y-9144000D02*
X13502000Y-9144000D01*
X13462000Y-9358000D02*
X13462000Y-9438000D01*
X13422000Y-9398000D02*
X13502000Y-9398000D01*
X13462000Y-9612000D02*
X13462000Y-9692000D01*
X13422000Y-9652000D02*
X13502000Y-9652000D01*
X13462000Y-9866000D02*
X13462000Y-9946000D01*
X13422000Y-9906000D02*
X13502000Y-9906000D01*
X13462000Y-10120000D02*
X13462000Y-10200000D01*
X13422000Y-10160000D02*
X13502000Y-10160000D01*
X13462000Y-10374000D02*
X13462000Y-10454000D01*
X13422000Y-10414000D02*
X13502000Y-10414000D01*
X13462000Y-10628000D02*
X13462000Y-10708000D01*
X13422000Y-10668000D02*
X13502000Y-10668000D01*
X13462000Y-10882000D02*
X13462000Y-10962000D01*
X13422000Y-10922000D02*
X13502000Y-10922000D01*
X13716000Y-5230500D02*
X13716000Y-5310500D01*
X13676000Y-5270500D02*
X13756000Y-5270500D01*
X13970000Y-5230500D02*
X13970000Y-5310500D01*
X13930000Y-5270500D02*
X14010000Y-5270500D01*
X14099000Y-5738500D02*
X14099000Y-5818500D01*
X14059000Y-5778500D02*
X14139000Y-5778500D01*
X14160500Y-11898000D02*
X14160500Y-11978000D01*
X14120500Y-11938000D02*
X14200500Y-11938000D01*
X14160500Y-12148000D02*
X14160500Y-12228000D01*
X14120500Y-12188000D02*
X14200500Y-12188000D01*
X14224000Y-5230500D02*
X14224000Y-5310500D01*
X14184000Y-5270500D02*
X14264000Y-5270500D01*
X14349000Y-5738500D02*
X14349000Y-5818500D01*
X14309000Y-5778500D02*
X14389000Y-5778500D01*
X14477000Y-11643000D02*
X14477000Y-11723000D01*
X14437000Y-11683000D02*
X14517000Y-11683000D01*
X14477000Y-12405000D02*
X14477000Y-12485000D01*
X14437000Y-12445000D02*
X14517000Y-12445000D01*
X14731000Y-11643000D02*
X14731000Y-11723000D01*
X14691000Y-11683000D02*
X14771000Y-11683000D01*
X14731000Y-12405000D02*
X14731000Y-12485000D01*
X14691000Y-12445000D02*
X14771000Y-12445000D01*
X14985000Y-11643000D02*
X14985000Y-11723000D01*
X14945000Y-11683000D02*
X15025000Y-11683000D01*
X14985000Y-12405000D02*
X14985000Y-12485000D01*
X14945000Y-12445000D02*
X15025000Y-12445000D01*
X14986000Y-6056000D02*
X14986000Y-6136000D01*
X14946000Y-6096000D02*
X15026000Y-6096000D01*
X14986000Y-6310000D02*
X14986000Y-6390000D01*
X14946000Y-6350000D02*
X15026000Y-6350000D01*
X14986000Y-6564000D02*
X14986000Y-6644000D01*
X14946000Y-6604000D02*
X15026000Y-6604000D01*
X14986000Y-6818000D02*
X14986000Y-6898000D01*
X14946000Y-6858000D02*
X15026000Y-6858000D01*
X14986000Y-7072000D02*
X14986000Y-7152000D01*
X14946000Y-7112000D02*
X15026000Y-7112000D01*
X14986000Y-7326000D02*
X14986000Y-7406000D01*
X14946000Y-7366000D02*
X15026000Y-7366000D01*
X14986000Y-7580000D02*
X14986000Y-7660000D01*
X14946000Y-7620000D02*
X15026000Y-7620000D01*
X14986000Y-7834000D02*
X14986000Y-7914000D01*
X14946000Y-7874000D02*
X15026000Y-7874000D01*
X14986000Y-8088000D02*
X14986000Y-8168000D01*
X14946000Y-8128000D02*
X15026000Y-8128000D01*
X14986000Y-8342000D02*
X14986000Y-8422000D01*
X14946000Y-8382000D02*
X15026000Y-8382000D01*
X14986000Y-8596000D02*
X14986000Y-8676000D01*
X14946000Y-8636000D02*
X15026000Y-8636000D01*
X14986000Y-8850000D02*
X14986000Y-8930000D01*
X14946000Y-8890000D02*
X15026000Y-8890000D01*
X14986000Y-9104000D02*
X14986000Y-9184000D01*
X14946000Y-9144000D02*
X15026000Y-9144000D01*
X14986000Y-9358000D02*
X14986000Y-9438000D01*
X14946000Y-9398000D02*
X15026000Y-9398000D01*
X14986000Y-9612000D02*
X14986000Y-9692000D01*
X14946000Y-9652000D02*
X15026000Y-9652000D01*
X14986000Y-9866000D02*
X14986000Y-9946000D01*
X14946000Y-9906000D02*
X15026000Y-9906000D01*
X14986000Y-10120000D02*
X14986000Y-10200000D01*
X14946000Y-10160000D02*
X15026000Y-10160000D01*
X14986000Y-10374000D02*
X14986000Y-10454000D01*
X14946000Y-10414000D02*
X15026000Y-10414000D01*
X14986000Y-10628000D02*
X14986000Y-10708000D01*
X14946000Y-10668000D02*
X15026000Y-10668000D01*
X14986000Y-10882000D02*
X14986000Y-10962000D01*
X14946000Y-10922000D02*
X15026000Y-10922000D01*
X15239000Y-11643000D02*
X15239000Y-11723000D01*
X15199000Y-11683000D02*
X15279000Y-11683000D01*
X15239000Y-12405000D02*
X15239000Y-12485000D01*
X15199000Y-12445000D02*
X15279000Y-12445000D01*
X15240000Y-5230500D02*
X15240000Y-5310500D01*
X15200000Y-5270500D02*
X15280000Y-5270500D01*
X15493000Y-11643000D02*
X15493000Y-11723000D01*
X15453000Y-11683000D02*
X15533000Y-11683000D01*
X15493000Y-12405000D02*
X15493000Y-12485000D01*
X15453000Y-12445000D02*
X15533000Y-12445000D01*
X15494000Y-6056000D02*
X15494000Y-6136000D01*
X15454000Y-6096000D02*
X15534000Y-6096000D01*
X15494000Y-6310000D02*
X15494000Y-6390000D01*
X15454000Y-6350000D02*
X15534000Y-6350000D01*
X15494000Y-6564000D02*
X15494000Y-6644000D01*
X15454000Y-6604000D02*
X15534000Y-6604000D01*
X15494000Y-6818000D02*
X15494000Y-6898000D01*
X15454000Y-6858000D02*
X15534000Y-6858000D01*
X15494000Y-7072000D02*
X15494000Y-7152000D01*
X15454000Y-7112000D02*
X15534000Y-7112000D01*
X15494000Y-7326000D02*
X15494000Y-7406000D01*
X15454000Y-7366000D02*
X15534000Y-7366000D01*
X15494000Y-7580000D02*
X15494000Y-7660000D01*
X15454000Y-7620000D02*
X15534000Y-7620000D01*
X15494000Y-7834000D02*
X15494000Y-7914000D01*
X15454000Y-7874000D02*
X15534000Y-7874000D01*
X15495000Y-9103000D02*
X15495000Y-9183000D01*
X15455000Y-9143000D02*
X15535000Y-9143000D01*
X15495000Y-9357000D02*
X15495000Y-9437000D01*
X15455000Y-9397000D02*
X15535000Y-9397000D01*
X15495000Y-9611000D02*
X15495000Y-9691000D01*
X15455000Y-9651000D02*
X15535000Y-9651000D01*
X15495000Y-9865000D02*
X15495000Y-9945000D01*
X15455000Y-9905000D02*
X15535000Y-9905000D01*
X15495000Y-10119000D02*
X15495000Y-10199000D01*
X15455000Y-10159000D02*
X15535000Y-10159000D01*
X15495000Y-10373000D02*
X15495000Y-10453000D01*
X15455000Y-10413000D02*
X15535000Y-10413000D01*
X15495000Y-10627000D02*
X15495000Y-10707000D01*
X15455000Y-10667000D02*
X15535000Y-10667000D01*
X15495000Y-10881000D02*
X15495000Y-10961000D01*
X15455000Y-10921000D02*
X15535000Y-10921000D01*
X15747000Y-11643000D02*
X15747000Y-11723000D01*
X15707000Y-11683000D02*
X15787000Y-11683000D01*
X15747000Y-12405000D02*
X15747000Y-12485000D01*
X15707000Y-12445000D02*
X15787000Y-12445000D01*
X15750000Y-5738500D02*
X15750000Y-5818500D01*
X15710000Y-5778500D02*
X15790000Y-5778500D01*
X15750000Y-8786500D02*
X15750000Y-8866500D01*
X15710000Y-8826500D02*
X15790000Y-8826500D01*
X16000000Y-5738500D02*
X16000000Y-5818500D01*
X15960000Y-5778500D02*
X16040000Y-5778500D01*
X16000000Y-8786500D02*
X16000000Y-8866500D01*
X15960000Y-8826500D02*
X16040000Y-8826500D01*
X16001000Y-11643000D02*
X16001000Y-11723000D01*
X15961000Y-11683000D02*
X16041000Y-11683000D01*
X16001000Y-12405000D02*
X16001000Y-12485000D01*
X15961000Y-12445000D02*
X16041000Y-12445000D01*
X16255000Y-11643000D02*
X16255000Y-11723000D01*
X16215000Y-11683000D02*
X16295000Y-11683000D01*
X16255000Y-12405000D02*
X16255000Y-12485000D01*
X16215000Y-12445000D02*
X16295000Y-12445000D01*
X16256000Y-5230500D02*
X16256000Y-5310500D01*
X16216000Y-5270500D02*
X16296000Y-5270500D01*
X16256000Y-6056000D02*
X16256000Y-6136000D01*
X16216000Y-6096000D02*
X16296000Y-6096000D01*
X16256000Y-6310000D02*
X16256000Y-6390000D01*
X16216000Y-6350000D02*
X16296000Y-6350000D01*
X16256000Y-6564000D02*
X16256000Y-6644000D01*
X16216000Y-6604000D02*
X16296000Y-6604000D01*
X16256000Y-6818000D02*
X16256000Y-6898000D01*
X16216000Y-6858000D02*
X16296000Y-6858000D01*
X16256000Y-7072000D02*
X16256000Y-7152000D01*
X16216000Y-7112000D02*
X16296000Y-7112000D01*
X16256000Y-7326000D02*
X16256000Y-7406000D01*
X16216000Y-7366000D02*
X16296000Y-7366000D01*
X16256000Y-7580000D02*
X16256000Y-7660000D01*
X16216000Y-7620000D02*
X16296000Y-7620000D01*
X16256000Y-7834000D02*
X16256000Y-7914000D01*
X16216000Y-7874000D02*
X16296000Y-7874000D01*
X16257000Y-9103000D02*
X16257000Y-9183000D01*
X16217000Y-9143000D02*
X16297000Y-9143000D01*
X16257000Y-9357000D02*
X16257000Y-9437000D01*
X16217000Y-9397000D02*
X16297000Y-9397000D01*
X16257000Y-9611000D02*
X16257000Y-9691000D01*
X16217000Y-9651000D02*
X16297000Y-9651000D01*
X16257000Y-9865000D02*
X16257000Y-9945000D01*
X16217000Y-9905000D02*
X16297000Y-9905000D01*
X16257000Y-10119000D02*
X16257000Y-10199000D01*
X16217000Y-10159000D02*
X16297000Y-10159000D01*
X16257000Y-10373000D02*
X16257000Y-10453000D01*
X16217000Y-10413000D02*
X16297000Y-10413000D01*
X16257000Y-10627000D02*
X16257000Y-10707000D01*
X16217000Y-10667000D02*
X16297000Y-10667000D01*
X16257000Y-10881000D02*
X16257000Y-10961000D01*
X16217000Y-10921000D02*
X16297000Y-10921000D01*
X16637000Y-6060000D02*
X16637000Y-6140000D01*
X16597000Y-6100000D02*
X16677000Y-6100000D01*
X16637000Y-6310000D02*
X16637000Y-6390000D01*
X16597000Y-6350000D02*
X16677000Y-6350000D01*
X16637000Y-6564000D02*
X16637000Y-6644000D01*
X16597000Y-6604000D02*
X16677000Y-6604000D01*
X16637000Y-6814000D02*
X16637000Y-6894000D01*
X16597000Y-6854000D02*
X16677000Y-6854000D01*
X16637000Y-7076000D02*
X16637000Y-7156000D01*
X16597000Y-7116000D02*
X16677000Y-7116000D01*
X16637000Y-7326000D02*
X16637000Y-7406000D01*
X16597000Y-7366000D02*
X16677000Y-7366000D01*
X16637000Y-7580000D02*
X16637000Y-7660000D01*
X16597000Y-7620000D02*
X16677000Y-7620000D01*
X16637000Y-7830000D02*
X16637000Y-7910000D01*
X16597000Y-7870000D02*
X16677000Y-7870000D01*
X16637000Y-9104000D02*
X16637000Y-9184000D01*
X16597000Y-9144000D02*
X16677000Y-9144000D01*
X16637000Y-9354000D02*
X16637000Y-9434000D01*
X16597000Y-9394000D02*
X16677000Y-9394000D01*
X16637000Y-9612000D02*
X16637000Y-9692000D01*
X16597000Y-9652000D02*
X16677000Y-9652000D01*
X16637000Y-9862000D02*
X16637000Y-9942000D01*
X16597000Y-9902000D02*
X16677000Y-9902000D01*
X16637000Y-10124000D02*
X16637000Y-10204000D01*
X16597000Y-10164000D02*
X16677000Y-10164000D01*
X16637000Y-10374000D02*
X16637000Y-10454000D01*
X16597000Y-10414000D02*
X16677000Y-10414000D01*
X16637000Y-10632000D02*
X16637000Y-10712000D01*
X16597000Y-10672000D02*
X16677000Y-10672000D01*
X16637000Y-10882000D02*
X16637000Y-10962000D01*
X16597000Y-10922000D02*
X16677000Y-10922000D01*
D14*
X9937820Y-4759320D02*
X9937820Y-4695680D01*
X9874180Y-4695680D01*
X9874180Y-4759320D01*
X9937820Y-4759320D01*
X10191820Y-4759320D02*
X10191820Y-4695680D01*
X10128180Y-4695680D01*
X10128180Y-4759320D01*
X10191820Y-4759320D01*
X10445820Y-4759320D02*
X10445820Y-4695680D01*
X10382180Y-4695680D01*
X10382180Y-4759320D01*
X10445820Y-4759320D01*
X10699820Y-4759320D02*
X10699820Y-4695680D01*
X10636180Y-4695680D01*
X10636180Y-4759320D01*
X10699820Y-4759320D01*
X11969820Y-4759320D02*
X11969820Y-4695680D01*
X11906180Y-4695680D01*
X11906180Y-4759320D01*
X11969820Y-4759320D01*
X12223820Y-4759320D02*
X12223820Y-4695680D01*
X12160180Y-4695680D01*
X12160180Y-4759320D01*
X12223820Y-4759320D01*
X12477820Y-4759320D02*
X12477820Y-4695680D01*
X12414180Y-4695680D01*
X12414180Y-4759320D01*
X12477820Y-4759320D01*
X12731820Y-4759320D02*
X12731820Y-4695680D01*
X12668180Y-4695680D01*
X12668180Y-4759320D01*
X12731820Y-4759320D01*
X14003320Y-4759320D02*
X14003320Y-4695680D01*
X13939680Y-4695680D01*
X13939680Y-4759320D01*
X14003320Y-4759320D01*
X14257320Y-4759320D02*
X14257320Y-4695680D01*
X14193680Y-4695680D01*
X14193680Y-4759320D01*
X14257320Y-4759320D01*
X14511320Y-4759320D02*
X14511320Y-4695680D01*
X14447680Y-4695680D01*
X14447680Y-4759320D01*
X14511320Y-4759320D01*
X14765320Y-4759320D02*
X14765320Y-4695680D01*
X14701680Y-4695680D01*
X14701680Y-4759320D01*
X14765320Y-4759320D01*
X16033820Y-4759320D02*
X16033820Y-4695680D01*
X15970180Y-4695680D01*
X15970180Y-4759320D01*
X16033820Y-4759320D01*
X16287820Y-4759320D02*
X16287820Y-4695680D01*
X16224180Y-4695680D01*
X16224180Y-4759320D01*
X16287820Y-4759320D01*
X16541820Y-4759320D02*
X16541820Y-4695680D01*
X16478180Y-4695680D01*
X16478180Y-4759320D01*
X16541820Y-4759320D01*
X16795820Y-4759320D02*
X16795820Y-4695680D01*
X16732180Y-4695680D01*
X16732180Y-4759320D01*
X16795820Y-4759320D01*
D15*
X8699000Y-8686000D02*
X8749000Y-8636000D01*
X8699000Y-8586000D01*
X8649000Y-8636000D01*
X8699000Y-8686000D01*
X8699000Y-8940000D02*
X8749000Y-8890000D01*
X8699000Y-8840000D01*
X8649000Y-8890000D01*
X8699000Y-8940000D01*
X8699500Y-7670000D02*
X8749500Y-7620000D01*
X8699500Y-7570000D01*
X8649500Y-7620000D01*
X8699500Y-7670000D01*
X8699500Y-7924000D02*
X8749500Y-7874000D01*
X8699500Y-7824000D01*
X8649500Y-7874000D01*
X8699500Y-7924000D01*
X8699500Y-9702000D02*
X8749500Y-9652000D01*
X8699500Y-9602000D01*
X8649500Y-9652000D01*
X8699500Y-9702000D01*
X8953000Y-8686000D02*
X9003000Y-8636000D01*
X8953000Y-8586000D01*
X8903000Y-8636000D01*
X8953000Y-8686000D01*
X8953000Y-8940000D02*
X9003000Y-8890000D01*
X8953000Y-8840000D01*
X8903000Y-8890000D01*
X8953000Y-8940000D01*
X8953500Y-7670000D02*
X9003500Y-7620000D01*
X8953500Y-7570000D01*
X8903500Y-7620000D01*
X8953500Y-7670000D01*
X8953500Y-7924000D02*
X9003500Y-7874000D01*
X8953500Y-7824000D01*
X8903500Y-7874000D01*
X8953500Y-7924000D01*
X8953500Y-9702000D02*
X9003500Y-9652000D01*
X8953500Y-9602000D01*
X8903500Y-9652000D01*
X8953500Y-9702000D01*
X9398000Y-5384000D02*
X9448000Y-5334000D01*
X9398000Y-5284000D01*
X9348000Y-5334000D01*
X9398000Y-5384000D01*
X9398000Y-5638000D02*
X9448000Y-5588000D01*
X9398000Y-5538000D01*
X9348000Y-5588000D01*
X9398000Y-5638000D01*
X9398000Y-5892000D02*
X9448000Y-5842000D01*
X9398000Y-5792000D01*
X9348000Y-5842000D01*
X9398000Y-5892000D01*
X9398000Y-6146000D02*
X9448000Y-6096000D01*
X9398000Y-6046000D01*
X9348000Y-6096000D01*
X9398000Y-6146000D01*
X9398000Y-10464000D02*
X9448000Y-10414000D01*
X9398000Y-10364000D01*
X9348000Y-10414000D01*
X9398000Y-10464000D01*
X9398000Y-10718000D02*
X9448000Y-10668000D01*
X9398000Y-10618000D01*
X9348000Y-10668000D01*
X9398000Y-10718000D01*
X9398000Y-10972000D02*
X9448000Y-10922000D01*
X9398000Y-10872000D01*
X9348000Y-10922000D01*
X9398000Y-10972000D01*
X9398000Y-11226000D02*
X9448000Y-11176000D01*
X9398000Y-11126000D01*
X9348000Y-11176000D01*
X9398000Y-11226000D01*
X9398000Y-11480000D02*
X9448000Y-11430000D01*
X9398000Y-11380000D01*
X9348000Y-11430000D01*
X9398000Y-11480000D01*
X9398000Y-11734000D02*
X9448000Y-11684000D01*
X9398000Y-11634000D01*
X9348000Y-11684000D01*
X9398000Y-11734000D01*
X17559500Y-6256000D02*
X17609500Y-6206000D01*
X17559500Y-6156000D01*
X17509500Y-6206000D01*
X17559500Y-6256000D01*
X17559500Y-6533000D02*
X17609500Y-6483000D01*
X17559500Y-6433000D01*
X17509500Y-6483000D01*
X17559500Y-6533000D01*
X17559500Y-6810000D02*
X17609500Y-6760000D01*
X17559500Y-6710000D01*
X17509500Y-6760000D01*
X17559500Y-6810000D01*
X17559500Y-7087000D02*
X17609500Y-7037000D01*
X17559500Y-6987000D01*
X17509500Y-7037000D01*
X17559500Y-7087000D01*
X17559500Y-7364000D02*
X17609500Y-7314000D01*
X17559500Y-7264000D01*
X17509500Y-7314000D01*
X17559500Y-7364000D01*
X17559500Y-10038000D02*
X17609500Y-9988000D01*
X17559500Y-9938000D01*
X17509500Y-9988000D01*
X17559500Y-10038000D01*
X17559500Y-10315000D02*
X17609500Y-10265000D01*
X17559500Y-10215000D01*
X17509500Y-10265000D01*
X17559500Y-10315000D01*
X17559500Y-10592000D02*
X17609500Y-10542000D01*
X17559500Y-10492000D01*
X17509500Y-10542000D01*
X17559500Y-10592000D01*
X17559500Y-10869000D02*
X17609500Y-10819000D01*
X17559500Y-10769000D01*
X17509500Y-10819000D01*
X17559500Y-10869000D01*
X17559500Y-11146000D02*
X17609500Y-11096000D01*
X17559500Y-11046000D01*
X17509500Y-11096000D01*
X17559500Y-11146000D01*
X17843500Y-6394500D02*
X17893500Y-6344500D01*
X17843500Y-6294500D01*
X17793500Y-6344500D01*
X17843500Y-6394500D01*
X17843500Y-6671500D02*
X17893500Y-6621500D01*
X17843500Y-6571500D01*
X17793500Y-6621500D01*
X17843500Y-6671500D01*
X17843500Y-6948500D02*
X17893500Y-6898500D01*
X17843500Y-6848500D01*
X17793500Y-6898500D01*
X17843500Y-6948500D01*
X17843500Y-7225500D02*
X17893500Y-7175500D01*
X17843500Y-7125500D01*
X17793500Y-7175500D01*
X17843500Y-7225500D01*
X17843500Y-10176500D02*
X17893500Y-10126500D01*
X17843500Y-10076500D01*
X17793500Y-10126500D01*
X17843500Y-10176500D01*
X17843500Y-10453500D02*
X17893500Y-10403500D01*
X17843500Y-10353500D01*
X17793500Y-10403500D01*
X17843500Y-10453500D01*
X17843500Y-10730500D02*
X17893500Y-10680500D01*
X17843500Y-10630500D01*
X17793500Y-10680500D01*
X17843500Y-10730500D01*
X17843500Y-11007500D02*
X17893500Y-10957500D01*
X17843500Y-10907500D01*
X17793500Y-10957500D01*
X17843500Y-11007500D01*
D16*
X12073500Y-11629000D02*
X12183500Y-11739000D01*
X12183500Y-11629000D02*
X12073500Y-11739000D01*
X12183500Y-11684000D02*
G75*
G03*
X12183500Y-11684000I-55000J0D01*
G01*
X12073500Y-12391000D02*
X12183500Y-12501000D01*
X12183500Y-12391000D02*
X12073500Y-12501000D01*
X12183500Y-12446000D02*
G75*
G03*
X12183500Y-12446000I-55000J0D01*
G01*
X13089500Y-11629000D02*
X13199500Y-11739000D01*
X13199500Y-11629000D02*
X13089500Y-11739000D01*
X13199500Y-11684000D02*
G75*
G03*
X13199500Y-11684000I-55000J0D01*
G01*
X13089500Y-12391000D02*
X13199500Y-12501000D01*
X13199500Y-12391000D02*
X13089500Y-12501000D01*
X13199500Y-12446000D02*
G75*
G03*
X13199500Y-12446000I-55000J0D01*
G01*
D17*
X17429500Y-5350000D02*
X17749500Y-5670000D01*
X17749500Y-5350000D02*
X17429500Y-5670000D01*
X17589500Y-5350000D02*
X17589500Y-5670000D01*
X17429500Y-5510000D02*
X17749500Y-5510000D01*
X17429500Y-7850000D02*
X17749500Y-8170000D01*
X17749500Y-7850000D02*
X17429500Y-8170000D01*
X17589500Y-7850000D02*
X17589500Y-8170000D01*
X17429500Y-8010000D02*
X17749500Y-8010000D01*
X17429500Y-9132000D02*
X17749500Y-9452000D01*
X17749500Y-9132000D02*
X17429500Y-9452000D01*
X17589500Y-9132000D02*
X17589500Y-9452000D01*
X17429500Y-9292000D02*
X17749500Y-9292000D01*
X17429500Y-11632000D02*
X17749500Y-11952000D01*
X17749500Y-11632000D02*
X17429500Y-11952000D01*
X17589500Y-11632000D02*
X17589500Y-11952000D01*
X17429500Y-11792000D02*
X17749500Y-11792000D01*
D10*
X8615177Y-14367684D02*
X8615177Y-14167684D01*
X8615177Y-14167684D02*
X8662796Y-14167684D01*
X8662796Y-14167684D02*
X8691367Y-14177208D01*
X8691367Y-14177208D02*
X8710415Y-14196255D01*
X8710415Y-14196255D02*
X8719939Y-14215303D01*
X8719939Y-14215303D02*
X8729463Y-14253398D01*
X8729463Y-14253398D02*
X8729463Y-14281969D01*
X8729463Y-14281969D02*
X8719939Y-14320065D01*
X8719939Y-14320065D02*
X8710415Y-14339112D01*
X8710415Y-14339112D02*
X8691367Y-14358160D01*
X8691367Y-14358160D02*
X8662796Y-14367684D01*
X8662796Y-14367684D02*
X8615177Y-14367684D01*
X8815177Y-14367684D02*
X8815177Y-14234350D01*
X8815177Y-14272446D02*
X8824701Y-14253398D01*
X8824701Y-14253398D02*
X8834224Y-14243874D01*
X8834224Y-14243874D02*
X8853272Y-14234350D01*
X8853272Y-14234350D02*
X8872320Y-14234350D01*
X8938986Y-14367684D02*
X8938986Y-14234350D01*
X8938986Y-14167684D02*
X8929463Y-14177208D01*
X8929463Y-14177208D02*
X8938986Y-14186731D01*
X8938986Y-14186731D02*
X8948510Y-14177208D01*
X8948510Y-14177208D02*
X8938986Y-14167684D01*
X8938986Y-14167684D02*
X8938986Y-14186731D01*
X9062796Y-14367684D02*
X9043748Y-14358160D01*
X9043748Y-14358160D02*
X9034224Y-14339112D01*
X9034224Y-14339112D02*
X9034224Y-14167684D01*
X9167558Y-14367684D02*
X9148510Y-14358160D01*
X9148510Y-14358160D02*
X9138986Y-14339112D01*
X9138986Y-14339112D02*
X9138986Y-14167684D01*
X9396129Y-14367684D02*
X9396129Y-14167684D01*
X9396129Y-14167684D02*
X9462796Y-14310541D01*
X9462796Y-14310541D02*
X9529463Y-14167684D01*
X9529463Y-14167684D02*
X9529463Y-14367684D01*
X9710415Y-14367684D02*
X9710415Y-14262922D01*
X9710415Y-14262922D02*
X9700891Y-14243874D01*
X9700891Y-14243874D02*
X9681844Y-14234350D01*
X9681844Y-14234350D02*
X9643748Y-14234350D01*
X9643748Y-14234350D02*
X9624701Y-14243874D01*
X9710415Y-14358160D02*
X9691367Y-14367684D01*
X9691367Y-14367684D02*
X9643748Y-14367684D01*
X9643748Y-14367684D02*
X9624701Y-14358160D01*
X9624701Y-14358160D02*
X9615177Y-14339112D01*
X9615177Y-14339112D02*
X9615177Y-14320065D01*
X9615177Y-14320065D02*
X9624701Y-14301017D01*
X9624701Y-14301017D02*
X9643748Y-14291493D01*
X9643748Y-14291493D02*
X9691367Y-14291493D01*
X9691367Y-14291493D02*
X9710415Y-14281969D01*
X9805653Y-14234350D02*
X9805653Y-14434350D01*
X9805653Y-14243874D02*
X9824701Y-14234350D01*
X9824701Y-14234350D02*
X9862796Y-14234350D01*
X9862796Y-14234350D02*
X9881844Y-14243874D01*
X9881844Y-14243874D02*
X9891367Y-14253398D01*
X9891367Y-14253398D02*
X9900891Y-14272446D01*
X9900891Y-14272446D02*
X9900891Y-14329588D01*
X9900891Y-14329588D02*
X9891367Y-14348636D01*
X9891367Y-14348636D02*
X9881844Y-14358160D01*
X9881844Y-14358160D02*
X9862796Y-14367684D01*
X9862796Y-14367684D02*
X9824701Y-14367684D01*
X9824701Y-14367684D02*
X9805653Y-14358160D01*
X9986605Y-14348636D02*
X9996129Y-14358160D01*
X9996129Y-14358160D02*
X9986605Y-14367684D01*
X9986605Y-14367684D02*
X9977082Y-14358160D01*
X9977082Y-14358160D02*
X9986605Y-14348636D01*
X9986605Y-14348636D02*
X9986605Y-14367684D01*
X9986605Y-14243874D02*
X9996129Y-14253398D01*
X9996129Y-14253398D02*
X9986605Y-14262922D01*
X9986605Y-14262922D02*
X9977082Y-14253398D01*
X9977082Y-14253398D02*
X9986605Y-14243874D01*
X9986605Y-14243874D02*
X9986605Y-14262922D01*
D11*
X8314400Y-14676200D02*
X8354400Y-14716200D01*
X8354400Y-14676200D02*
X8314400Y-14716200D01*
D10*
X8653272Y-14587684D02*
X8672320Y-14587684D01*
X8672320Y-14587684D02*
X8691367Y-14597208D01*
X8691367Y-14597208D02*
X8700891Y-14606731D01*
X8700891Y-14606731D02*
X8710415Y-14625779D01*
X8710415Y-14625779D02*
X8719939Y-14663874D01*
X8719939Y-14663874D02*
X8719939Y-14711493D01*
X8719939Y-14711493D02*
X8710415Y-14749588D01*
X8710415Y-14749588D02*
X8700891Y-14768636D01*
X8700891Y-14768636D02*
X8691367Y-14778160D01*
X8691367Y-14778160D02*
X8672320Y-14787684D01*
X8672320Y-14787684D02*
X8653272Y-14787684D01*
X8653272Y-14787684D02*
X8634224Y-14778160D01*
X8634224Y-14778160D02*
X8624701Y-14768636D01*
X8624701Y-14768636D02*
X8615177Y-14749588D01*
X8615177Y-14749588D02*
X8605653Y-14711493D01*
X8605653Y-14711493D02*
X8605653Y-14663874D01*
X8605653Y-14663874D02*
X8615177Y-14625779D01*
X8615177Y-14625779D02*
X8624701Y-14606731D01*
X8624701Y-14606731D02*
X8634224Y-14597208D01*
X8634224Y-14597208D02*
X8653272Y-14587684D01*
X8805653Y-14768636D02*
X8815177Y-14778160D01*
X8815177Y-14778160D02*
X8805653Y-14787684D01*
X8805653Y-14787684D02*
X8796129Y-14778160D01*
X8796129Y-14778160D02*
X8805653Y-14768636D01*
X8805653Y-14768636D02*
X8805653Y-14787684D01*
X8986605Y-14654350D02*
X8986605Y-14787684D01*
X8938986Y-14578160D02*
X8891367Y-14721017D01*
X8891367Y-14721017D02*
X9015177Y-14721017D01*
X9129463Y-14587684D02*
X9148510Y-14587684D01*
X9148510Y-14587684D02*
X9167558Y-14597208D01*
X9167558Y-14597208D02*
X9177082Y-14606731D01*
X9177082Y-14606731D02*
X9186605Y-14625779D01*
X9186605Y-14625779D02*
X9196129Y-14663874D01*
X9196129Y-14663874D02*
X9196129Y-14711493D01*
X9196129Y-14711493D02*
X9186605Y-14749588D01*
X9186605Y-14749588D02*
X9177082Y-14768636D01*
X9177082Y-14768636D02*
X9167558Y-14778160D01*
X9167558Y-14778160D02*
X9148510Y-14787684D01*
X9148510Y-14787684D02*
X9129463Y-14787684D01*
X9129463Y-14787684D02*
X9110415Y-14778160D01*
X9110415Y-14778160D02*
X9100891Y-14768636D01*
X9100891Y-14768636D02*
X9091367Y-14749588D01*
X9091367Y-14749588D02*
X9081844Y-14711493D01*
X9081844Y-14711493D02*
X9081844Y-14663874D01*
X9081844Y-14663874D02*
X9091367Y-14625779D01*
X9091367Y-14625779D02*
X9100891Y-14606731D01*
X9100891Y-14606731D02*
X9110415Y-14597208D01*
X9110415Y-14597208D02*
X9129463Y-14587684D01*
X9319939Y-14587684D02*
X9338986Y-14587684D01*
X9338986Y-14587684D02*
X9358034Y-14597208D01*
X9358034Y-14597208D02*
X9367558Y-14606731D01*
X9367558Y-14606731D02*
X9377082Y-14625779D01*
X9377082Y-14625779D02*
X9386605Y-14663874D01*
X9386605Y-14663874D02*
X9386605Y-14711493D01*
X9386605Y-14711493D02*
X9377082Y-14749588D01*
X9377082Y-14749588D02*
X9367558Y-14768636D01*
X9367558Y-14768636D02*
X9358034Y-14778160D01*
X9358034Y-14778160D02*
X9338986Y-14787684D01*
X9338986Y-14787684D02*
X9319939Y-14787684D01*
X9319939Y-14787684D02*
X9300891Y-14778160D01*
X9300891Y-14778160D02*
X9291367Y-14768636D01*
X9291367Y-14768636D02*
X9281844Y-14749588D01*
X9281844Y-14749588D02*
X9272320Y-14711493D01*
X9272320Y-14711493D02*
X9272320Y-14663874D01*
X9272320Y-14663874D02*
X9281844Y-14625779D01*
X9281844Y-14625779D02*
X9291367Y-14606731D01*
X9291367Y-14606731D02*
X9300891Y-14597208D01*
X9300891Y-14597208D02*
X9319939Y-14587684D01*
X9472320Y-14787684D02*
X9472320Y-14654350D01*
X9472320Y-14673398D02*
X9481844Y-14663874D01*
X9481844Y-14663874D02*
X9500891Y-14654350D01*
X9500891Y-14654350D02*
X9529463Y-14654350D01*
X9529463Y-14654350D02*
X9548510Y-14663874D01*
X9548510Y-14663874D02*
X9558034Y-14682922D01*
X9558034Y-14682922D02*
X9558034Y-14787684D01*
X9558034Y-14682922D02*
X9567558Y-14663874D01*
X9567558Y-14663874D02*
X9586605Y-14654350D01*
X9586605Y-14654350D02*
X9615177Y-14654350D01*
X9615177Y-14654350D02*
X9634225Y-14663874D01*
X9634225Y-14663874D02*
X9643748Y-14682922D01*
X9643748Y-14682922D02*
X9643748Y-14787684D01*
X9738986Y-14787684D02*
X9738986Y-14654350D01*
X9738986Y-14673398D02*
X9748510Y-14663874D01*
X9748510Y-14663874D02*
X9767558Y-14654350D01*
X9767558Y-14654350D02*
X9796129Y-14654350D01*
X9796129Y-14654350D02*
X9815177Y-14663874D01*
X9815177Y-14663874D02*
X9824701Y-14682922D01*
X9824701Y-14682922D02*
X9824701Y-14787684D01*
X9824701Y-14682922D02*
X9834225Y-14663874D01*
X9834225Y-14663874D02*
X9853272Y-14654350D01*
X9853272Y-14654350D02*
X9881844Y-14654350D01*
X9881844Y-14654350D02*
X9900891Y-14663874D01*
X9900891Y-14663874D02*
X9910415Y-14682922D01*
X9910415Y-14682922D02*
X9910415Y-14787684D01*
X10300891Y-14578160D02*
X10129463Y-14835303D01*
X10558034Y-14587684D02*
X10577082Y-14587684D01*
X10577082Y-14587684D02*
X10596129Y-14597208D01*
X10596129Y-14597208D02*
X10605653Y-14606731D01*
X10605653Y-14606731D02*
X10615177Y-14625779D01*
X10615177Y-14625779D02*
X10624701Y-14663874D01*
X10624701Y-14663874D02*
X10624701Y-14711493D01*
X10624701Y-14711493D02*
X10615177Y-14749588D01*
X10615177Y-14749588D02*
X10605653Y-14768636D01*
X10605653Y-14768636D02*
X10596129Y-14778160D01*
X10596129Y-14778160D02*
X10577082Y-14787684D01*
X10577082Y-14787684D02*
X10558034Y-14787684D01*
X10558034Y-14787684D02*
X10538987Y-14778160D01*
X10538987Y-14778160D02*
X10529463Y-14768636D01*
X10529463Y-14768636D02*
X10519939Y-14749588D01*
X10519939Y-14749588D02*
X10510415Y-14711493D01*
X10510415Y-14711493D02*
X10510415Y-14663874D01*
X10510415Y-14663874D02*
X10519939Y-14625779D01*
X10519939Y-14625779D02*
X10529463Y-14606731D01*
X10529463Y-14606731D02*
X10538987Y-14597208D01*
X10538987Y-14597208D02*
X10558034Y-14587684D01*
X10710415Y-14768636D02*
X10719939Y-14778160D01*
X10719939Y-14778160D02*
X10710415Y-14787684D01*
X10710415Y-14787684D02*
X10700891Y-14778160D01*
X10700891Y-14778160D02*
X10710415Y-14768636D01*
X10710415Y-14768636D02*
X10710415Y-14787684D01*
X10843748Y-14587684D02*
X10862796Y-14587684D01*
X10862796Y-14587684D02*
X10881844Y-14597208D01*
X10881844Y-14597208D02*
X10891368Y-14606731D01*
X10891368Y-14606731D02*
X10900891Y-14625779D01*
X10900891Y-14625779D02*
X10910415Y-14663874D01*
X10910415Y-14663874D02*
X10910415Y-14711493D01*
X10910415Y-14711493D02*
X10900891Y-14749588D01*
X10900891Y-14749588D02*
X10891368Y-14768636D01*
X10891368Y-14768636D02*
X10881844Y-14778160D01*
X10881844Y-14778160D02*
X10862796Y-14787684D01*
X10862796Y-14787684D02*
X10843748Y-14787684D01*
X10843748Y-14787684D02*
X10824701Y-14778160D01*
X10824701Y-14778160D02*
X10815177Y-14768636D01*
X10815177Y-14768636D02*
X10805653Y-14749588D01*
X10805653Y-14749588D02*
X10796129Y-14711493D01*
X10796129Y-14711493D02*
X10796129Y-14663874D01*
X10796129Y-14663874D02*
X10805653Y-14625779D01*
X10805653Y-14625779D02*
X10815177Y-14606731D01*
X10815177Y-14606731D02*
X10824701Y-14597208D01*
X10824701Y-14597208D02*
X10843748Y-14587684D01*
X11100891Y-14787684D02*
X10986606Y-14787684D01*
X11043748Y-14787684D02*
X11043748Y-14587684D01*
X11043748Y-14587684D02*
X11024701Y-14616255D01*
X11024701Y-14616255D02*
X11005653Y-14635303D01*
X11005653Y-14635303D02*
X10986606Y-14644827D01*
X11281844Y-14587684D02*
X11186606Y-14587684D01*
X11186606Y-14587684D02*
X11177082Y-14682922D01*
X11177082Y-14682922D02*
X11186606Y-14673398D01*
X11186606Y-14673398D02*
X11205653Y-14663874D01*
X11205653Y-14663874D02*
X11253272Y-14663874D01*
X11253272Y-14663874D02*
X11272320Y-14673398D01*
X11272320Y-14673398D02*
X11281844Y-14682922D01*
X11281844Y-14682922D02*
X11291367Y-14701969D01*
X11291367Y-14701969D02*
X11291367Y-14749588D01*
X11291367Y-14749588D02*
X11281844Y-14768636D01*
X11281844Y-14768636D02*
X11272320Y-14778160D01*
X11272320Y-14778160D02*
X11253272Y-14787684D01*
X11253272Y-14787684D02*
X11205653Y-14787684D01*
X11205653Y-14787684D02*
X11186606Y-14778160D01*
X11186606Y-14778160D02*
X11177082Y-14768636D01*
X11358034Y-14587684D02*
X11491367Y-14587684D01*
X11491367Y-14587684D02*
X11405653Y-14787684D01*
X11558034Y-14587684D02*
X11558034Y-14625779D01*
X11634225Y-14587684D02*
X11634225Y-14625779D01*
X11929463Y-14863874D02*
X11919939Y-14854350D01*
X11919939Y-14854350D02*
X11900891Y-14825779D01*
X11900891Y-14825779D02*
X11891368Y-14806731D01*
X11891368Y-14806731D02*
X11881844Y-14778160D01*
X11881844Y-14778160D02*
X11872320Y-14730541D01*
X11872320Y-14730541D02*
X11872320Y-14692446D01*
X11872320Y-14692446D02*
X11881844Y-14644827D01*
X11881844Y-14644827D02*
X11891368Y-14616255D01*
X11891368Y-14616255D02*
X11900891Y-14597208D01*
X11900891Y-14597208D02*
X11919939Y-14568636D01*
X11919939Y-14568636D02*
X11929463Y-14559112D01*
X11996129Y-14606731D02*
X12005653Y-14597208D01*
X12005653Y-14597208D02*
X12024701Y-14587684D01*
X12024701Y-14587684D02*
X12072320Y-14587684D01*
X12072320Y-14587684D02*
X12091368Y-14597208D01*
X12091368Y-14597208D02*
X12100891Y-14606731D01*
X12100891Y-14606731D02*
X12110415Y-14625779D01*
X12110415Y-14625779D02*
X12110415Y-14644827D01*
X12110415Y-14644827D02*
X12100891Y-14673398D01*
X12100891Y-14673398D02*
X11986606Y-14787684D01*
X11986606Y-14787684D02*
X12110415Y-14787684D01*
X12281844Y-14587684D02*
X12243748Y-14587684D01*
X12243748Y-14587684D02*
X12224701Y-14597208D01*
X12224701Y-14597208D02*
X12215177Y-14606731D01*
X12215177Y-14606731D02*
X12196129Y-14635303D01*
X12196129Y-14635303D02*
X12186606Y-14673398D01*
X12186606Y-14673398D02*
X12186606Y-14749588D01*
X12186606Y-14749588D02*
X12196129Y-14768636D01*
X12196129Y-14768636D02*
X12205653Y-14778160D01*
X12205653Y-14778160D02*
X12224701Y-14787684D01*
X12224701Y-14787684D02*
X12262796Y-14787684D01*
X12262796Y-14787684D02*
X12281844Y-14778160D01*
X12281844Y-14778160D02*
X12291368Y-14768636D01*
X12291368Y-14768636D02*
X12300891Y-14749588D01*
X12300891Y-14749588D02*
X12300891Y-14701969D01*
X12300891Y-14701969D02*
X12291368Y-14682922D01*
X12291368Y-14682922D02*
X12281844Y-14673398D01*
X12281844Y-14673398D02*
X12262796Y-14663874D01*
X12262796Y-14663874D02*
X12224701Y-14663874D01*
X12224701Y-14663874D02*
X12205653Y-14673398D01*
X12205653Y-14673398D02*
X12196129Y-14682922D01*
X12196129Y-14682922D02*
X12186606Y-14701969D01*
X12538987Y-14787684D02*
X12538987Y-14587684D01*
X12624701Y-14787684D02*
X12624701Y-14682922D01*
X12624701Y-14682922D02*
X12615177Y-14663874D01*
X12615177Y-14663874D02*
X12596130Y-14654350D01*
X12596130Y-14654350D02*
X12567558Y-14654350D01*
X12567558Y-14654350D02*
X12548510Y-14663874D01*
X12548510Y-14663874D02*
X12538987Y-14673398D01*
X12748510Y-14787684D02*
X12729463Y-14778160D01*
X12729463Y-14778160D02*
X12719939Y-14768636D01*
X12719939Y-14768636D02*
X12710415Y-14749588D01*
X12710415Y-14749588D02*
X12710415Y-14692446D01*
X12710415Y-14692446D02*
X12719939Y-14673398D01*
X12719939Y-14673398D02*
X12729463Y-14663874D01*
X12729463Y-14663874D02*
X12748510Y-14654350D01*
X12748510Y-14654350D02*
X12777082Y-14654350D01*
X12777082Y-14654350D02*
X12796130Y-14663874D01*
X12796130Y-14663874D02*
X12805653Y-14673398D01*
X12805653Y-14673398D02*
X12815177Y-14692446D01*
X12815177Y-14692446D02*
X12815177Y-14749588D01*
X12815177Y-14749588D02*
X12805653Y-14768636D01*
X12805653Y-14768636D02*
X12796130Y-14778160D01*
X12796130Y-14778160D02*
X12777082Y-14787684D01*
X12777082Y-14787684D02*
X12748510Y-14787684D01*
X12929463Y-14787684D02*
X12910415Y-14778160D01*
X12910415Y-14778160D02*
X12900891Y-14759112D01*
X12900891Y-14759112D02*
X12900891Y-14587684D01*
X13081844Y-14778160D02*
X13062796Y-14787684D01*
X13062796Y-14787684D02*
X13024701Y-14787684D01*
X13024701Y-14787684D02*
X13005653Y-14778160D01*
X13005653Y-14778160D02*
X12996130Y-14759112D01*
X12996130Y-14759112D02*
X12996130Y-14682922D01*
X12996130Y-14682922D02*
X13005653Y-14663874D01*
X13005653Y-14663874D02*
X13024701Y-14654350D01*
X13024701Y-14654350D02*
X13062796Y-14654350D01*
X13062796Y-14654350D02*
X13081844Y-14663874D01*
X13081844Y-14663874D02*
X13091368Y-14682922D01*
X13091368Y-14682922D02*
X13091368Y-14701969D01*
X13091368Y-14701969D02*
X12996130Y-14721017D01*
X13167558Y-14778160D02*
X13186606Y-14787684D01*
X13186606Y-14787684D02*
X13224701Y-14787684D01*
X13224701Y-14787684D02*
X13243749Y-14778160D01*
X13243749Y-14778160D02*
X13253272Y-14759112D01*
X13253272Y-14759112D02*
X13253272Y-14749588D01*
X13253272Y-14749588D02*
X13243749Y-14730541D01*
X13243749Y-14730541D02*
X13224701Y-14721017D01*
X13224701Y-14721017D02*
X13196130Y-14721017D01*
X13196130Y-14721017D02*
X13177082Y-14711493D01*
X13177082Y-14711493D02*
X13167558Y-14692446D01*
X13167558Y-14692446D02*
X13167558Y-14682922D01*
X13167558Y-14682922D02*
X13177082Y-14663874D01*
X13177082Y-14663874D02*
X13196130Y-14654350D01*
X13196130Y-14654350D02*
X13224701Y-14654350D01*
X13224701Y-14654350D02*
X13243749Y-14663874D01*
X13319939Y-14863874D02*
X13329463Y-14854350D01*
X13329463Y-14854350D02*
X13348511Y-14825779D01*
X13348511Y-14825779D02*
X13358034Y-14806731D01*
X13358034Y-14806731D02*
X13367558Y-14778160D01*
X13367558Y-14778160D02*
X13377082Y-14730541D01*
X13377082Y-14730541D02*
X13377082Y-14692446D01*
X13377082Y-14692446D02*
X13367558Y-14644827D01*
X13367558Y-14644827D02*
X13358034Y-14616255D01*
X13358034Y-14616255D02*
X13348511Y-14597208D01*
X13348511Y-14597208D02*
X13329463Y-14568636D01*
X13329463Y-14568636D02*
X13319939Y-14559112D01*
D12*
X8354400Y-14960200D02*
G75*
G03*
X8354400Y-14960200I-25000J0D01*
G01*
D10*
X8653272Y-14851684D02*
X8672320Y-14851684D01*
X8672320Y-14851684D02*
X8691367Y-14861208D01*
X8691367Y-14861208D02*
X8700891Y-14870731D01*
X8700891Y-14870731D02*
X8710415Y-14889779D01*
X8710415Y-14889779D02*
X8719939Y-14927874D01*
X8719939Y-14927874D02*
X8719939Y-14975493D01*
X8719939Y-14975493D02*
X8710415Y-15013588D01*
X8710415Y-15013588D02*
X8700891Y-15032636D01*
X8700891Y-15032636D02*
X8691367Y-15042160D01*
X8691367Y-15042160D02*
X8672320Y-15051684D01*
X8672320Y-15051684D02*
X8653272Y-15051684D01*
X8653272Y-15051684D02*
X8634224Y-15042160D01*
X8634224Y-15042160D02*
X8624701Y-15032636D01*
X8624701Y-15032636D02*
X8615177Y-15013588D01*
X8615177Y-15013588D02*
X8605653Y-14975493D01*
X8605653Y-14975493D02*
X8605653Y-14927874D01*
X8605653Y-14927874D02*
X8615177Y-14889779D01*
X8615177Y-14889779D02*
X8624701Y-14870731D01*
X8624701Y-14870731D02*
X8634224Y-14861208D01*
X8634224Y-14861208D02*
X8653272Y-14851684D01*
X8805653Y-15032636D02*
X8815177Y-15042160D01*
X8815177Y-15042160D02*
X8805653Y-15051684D01*
X8805653Y-15051684D02*
X8796129Y-15042160D01*
X8796129Y-15042160D02*
X8805653Y-15032636D01*
X8805653Y-15032636D02*
X8805653Y-15051684D01*
X8996129Y-14851684D02*
X8900891Y-14851684D01*
X8900891Y-14851684D02*
X8891367Y-14946922D01*
X8891367Y-14946922D02*
X8900891Y-14937398D01*
X8900891Y-14937398D02*
X8919939Y-14927874D01*
X8919939Y-14927874D02*
X8967558Y-14927874D01*
X8967558Y-14927874D02*
X8986605Y-14937398D01*
X8986605Y-14937398D02*
X8996129Y-14946922D01*
X8996129Y-14946922D02*
X9005653Y-14965969D01*
X9005653Y-14965969D02*
X9005653Y-15013588D01*
X9005653Y-15013588D02*
X8996129Y-15032636D01*
X8996129Y-15032636D02*
X8986605Y-15042160D01*
X8986605Y-15042160D02*
X8967558Y-15051684D01*
X8967558Y-15051684D02*
X8919939Y-15051684D01*
X8919939Y-15051684D02*
X8900891Y-15042160D01*
X8900891Y-15042160D02*
X8891367Y-15032636D01*
X9129463Y-14851684D02*
X9148510Y-14851684D01*
X9148510Y-14851684D02*
X9167558Y-14861208D01*
X9167558Y-14861208D02*
X9177082Y-14870731D01*
X9177082Y-14870731D02*
X9186605Y-14889779D01*
X9186605Y-14889779D02*
X9196129Y-14927874D01*
X9196129Y-14927874D02*
X9196129Y-14975493D01*
X9196129Y-14975493D02*
X9186605Y-15013588D01*
X9186605Y-15013588D02*
X9177082Y-15032636D01*
X9177082Y-15032636D02*
X9167558Y-15042160D01*
X9167558Y-15042160D02*
X9148510Y-15051684D01*
X9148510Y-15051684D02*
X9129463Y-15051684D01*
X9129463Y-15051684D02*
X9110415Y-15042160D01*
X9110415Y-15042160D02*
X9100891Y-15032636D01*
X9100891Y-15032636D02*
X9091367Y-15013588D01*
X9091367Y-15013588D02*
X9081844Y-14975493D01*
X9081844Y-14975493D02*
X9081844Y-14927874D01*
X9081844Y-14927874D02*
X9091367Y-14889779D01*
X9091367Y-14889779D02*
X9100891Y-14870731D01*
X9100891Y-14870731D02*
X9110415Y-14861208D01*
X9110415Y-14861208D02*
X9129463Y-14851684D01*
X9319939Y-14851684D02*
X9338986Y-14851684D01*
X9338986Y-14851684D02*
X9358034Y-14861208D01*
X9358034Y-14861208D02*
X9367558Y-14870731D01*
X9367558Y-14870731D02*
X9377082Y-14889779D01*
X9377082Y-14889779D02*
X9386605Y-14927874D01*
X9386605Y-14927874D02*
X9386605Y-14975493D01*
X9386605Y-14975493D02*
X9377082Y-15013588D01*
X9377082Y-15013588D02*
X9367558Y-15032636D01*
X9367558Y-15032636D02*
X9358034Y-15042160D01*
X9358034Y-15042160D02*
X9338986Y-15051684D01*
X9338986Y-15051684D02*
X9319939Y-15051684D01*
X9319939Y-15051684D02*
X9300891Y-15042160D01*
X9300891Y-15042160D02*
X9291367Y-15032636D01*
X9291367Y-15032636D02*
X9281844Y-15013588D01*
X9281844Y-15013588D02*
X9272320Y-14975493D01*
X9272320Y-14975493D02*
X9272320Y-14927874D01*
X9272320Y-14927874D02*
X9281844Y-14889779D01*
X9281844Y-14889779D02*
X9291367Y-14870731D01*
X9291367Y-14870731D02*
X9300891Y-14861208D01*
X9300891Y-14861208D02*
X9319939Y-14851684D01*
X9472320Y-15051684D02*
X9472320Y-14918350D01*
X9472320Y-14937398D02*
X9481844Y-14927874D01*
X9481844Y-14927874D02*
X9500891Y-14918350D01*
X9500891Y-14918350D02*
X9529463Y-14918350D01*
X9529463Y-14918350D02*
X9548510Y-14927874D01*
X9548510Y-14927874D02*
X9558034Y-14946922D01*
X9558034Y-14946922D02*
X9558034Y-15051684D01*
X9558034Y-14946922D02*
X9567558Y-14927874D01*
X9567558Y-14927874D02*
X9586605Y-14918350D01*
X9586605Y-14918350D02*
X9615177Y-14918350D01*
X9615177Y-14918350D02*
X9634225Y-14927874D01*
X9634225Y-14927874D02*
X9643748Y-14946922D01*
X9643748Y-14946922D02*
X9643748Y-15051684D01*
X9738986Y-15051684D02*
X9738986Y-14918350D01*
X9738986Y-14937398D02*
X9748510Y-14927874D01*
X9748510Y-14927874D02*
X9767558Y-14918350D01*
X9767558Y-14918350D02*
X9796129Y-14918350D01*
X9796129Y-14918350D02*
X9815177Y-14927874D01*
X9815177Y-14927874D02*
X9824701Y-14946922D01*
X9824701Y-14946922D02*
X9824701Y-15051684D01*
X9824701Y-14946922D02*
X9834225Y-14927874D01*
X9834225Y-14927874D02*
X9853272Y-14918350D01*
X9853272Y-14918350D02*
X9881844Y-14918350D01*
X9881844Y-14918350D02*
X9900891Y-14927874D01*
X9900891Y-14927874D02*
X9910415Y-14946922D01*
X9910415Y-14946922D02*
X9910415Y-15051684D01*
X10300891Y-14842160D02*
X10129463Y-15099303D01*
X10558034Y-14851684D02*
X10577082Y-14851684D01*
X10577082Y-14851684D02*
X10596129Y-14861208D01*
X10596129Y-14861208D02*
X10605653Y-14870731D01*
X10605653Y-14870731D02*
X10615177Y-14889779D01*
X10615177Y-14889779D02*
X10624701Y-14927874D01*
X10624701Y-14927874D02*
X10624701Y-14975493D01*
X10624701Y-14975493D02*
X10615177Y-15013588D01*
X10615177Y-15013588D02*
X10605653Y-15032636D01*
X10605653Y-15032636D02*
X10596129Y-15042160D01*
X10596129Y-15042160D02*
X10577082Y-15051684D01*
X10577082Y-15051684D02*
X10558034Y-15051684D01*
X10558034Y-15051684D02*
X10538987Y-15042160D01*
X10538987Y-15042160D02*
X10529463Y-15032636D01*
X10529463Y-15032636D02*
X10519939Y-15013588D01*
X10519939Y-15013588D02*
X10510415Y-14975493D01*
X10510415Y-14975493D02*
X10510415Y-14927874D01*
X10510415Y-14927874D02*
X10519939Y-14889779D01*
X10519939Y-14889779D02*
X10529463Y-14870731D01*
X10529463Y-14870731D02*
X10538987Y-14861208D01*
X10538987Y-14861208D02*
X10558034Y-14851684D01*
X10710415Y-15032636D02*
X10719939Y-15042160D01*
X10719939Y-15042160D02*
X10710415Y-15051684D01*
X10710415Y-15051684D02*
X10700891Y-15042160D01*
X10700891Y-15042160D02*
X10710415Y-15032636D01*
X10710415Y-15032636D02*
X10710415Y-15051684D01*
X10843748Y-14851684D02*
X10862796Y-14851684D01*
X10862796Y-14851684D02*
X10881844Y-14861208D01*
X10881844Y-14861208D02*
X10891368Y-14870731D01*
X10891368Y-14870731D02*
X10900891Y-14889779D01*
X10900891Y-14889779D02*
X10910415Y-14927874D01*
X10910415Y-14927874D02*
X10910415Y-14975493D01*
X10910415Y-14975493D02*
X10900891Y-15013588D01*
X10900891Y-15013588D02*
X10891368Y-15032636D01*
X10891368Y-15032636D02*
X10881844Y-15042160D01*
X10881844Y-15042160D02*
X10862796Y-15051684D01*
X10862796Y-15051684D02*
X10843748Y-15051684D01*
X10843748Y-15051684D02*
X10824701Y-15042160D01*
X10824701Y-15042160D02*
X10815177Y-15032636D01*
X10815177Y-15032636D02*
X10805653Y-15013588D01*
X10805653Y-15013588D02*
X10796129Y-14975493D01*
X10796129Y-14975493D02*
X10796129Y-14927874D01*
X10796129Y-14927874D02*
X10805653Y-14889779D01*
X10805653Y-14889779D02*
X10815177Y-14870731D01*
X10815177Y-14870731D02*
X10824701Y-14861208D01*
X10824701Y-14861208D02*
X10843748Y-14851684D01*
X11100891Y-15051684D02*
X10986606Y-15051684D01*
X11043748Y-15051684D02*
X11043748Y-14851684D01*
X11043748Y-14851684D02*
X11024701Y-14880255D01*
X11024701Y-14880255D02*
X11005653Y-14899303D01*
X11005653Y-14899303D02*
X10986606Y-14908827D01*
X11196129Y-15051684D02*
X11234225Y-15051684D01*
X11234225Y-15051684D02*
X11253272Y-15042160D01*
X11253272Y-15042160D02*
X11262796Y-15032636D01*
X11262796Y-15032636D02*
X11281844Y-15004065D01*
X11281844Y-15004065D02*
X11291367Y-14965969D01*
X11291367Y-14965969D02*
X11291367Y-14889779D01*
X11291367Y-14889779D02*
X11281844Y-14870731D01*
X11281844Y-14870731D02*
X11272320Y-14861208D01*
X11272320Y-14861208D02*
X11253272Y-14851684D01*
X11253272Y-14851684D02*
X11215177Y-14851684D01*
X11215177Y-14851684D02*
X11196129Y-14861208D01*
X11196129Y-14861208D02*
X11186606Y-14870731D01*
X11186606Y-14870731D02*
X11177082Y-14889779D01*
X11177082Y-14889779D02*
X11177082Y-14937398D01*
X11177082Y-14937398D02*
X11186606Y-14956446D01*
X11186606Y-14956446D02*
X11196129Y-14965969D01*
X11196129Y-14965969D02*
X11215177Y-14975493D01*
X11215177Y-14975493D02*
X11253272Y-14975493D01*
X11253272Y-14975493D02*
X11272320Y-14965969D01*
X11272320Y-14965969D02*
X11281844Y-14956446D01*
X11281844Y-14956446D02*
X11291367Y-14937398D01*
X11358034Y-14851684D02*
X11491367Y-14851684D01*
X11491367Y-14851684D02*
X11405653Y-15051684D01*
X11558034Y-14851684D02*
X11558034Y-14889779D01*
X11634225Y-14851684D02*
X11634225Y-14889779D01*
X11929463Y-15127874D02*
X11919939Y-15118350D01*
X11919939Y-15118350D02*
X11900891Y-15089779D01*
X11900891Y-15089779D02*
X11891368Y-15070731D01*
X11891368Y-15070731D02*
X11881844Y-15042160D01*
X11881844Y-15042160D02*
X11872320Y-14994541D01*
X11872320Y-14994541D02*
X11872320Y-14956446D01*
X11872320Y-14956446D02*
X11881844Y-14908827D01*
X11881844Y-14908827D02*
X11891368Y-14880255D01*
X11891368Y-14880255D02*
X11900891Y-14861208D01*
X11900891Y-14861208D02*
X11919939Y-14832636D01*
X11919939Y-14832636D02*
X11929463Y-14823112D01*
X12034225Y-14937398D02*
X12015177Y-14927874D01*
X12015177Y-14927874D02*
X12005653Y-14918350D01*
X12005653Y-14918350D02*
X11996129Y-14899303D01*
X11996129Y-14899303D02*
X11996129Y-14889779D01*
X11996129Y-14889779D02*
X12005653Y-14870731D01*
X12005653Y-14870731D02*
X12015177Y-14861208D01*
X12015177Y-14861208D02*
X12034225Y-14851684D01*
X12034225Y-14851684D02*
X12072320Y-14851684D01*
X12072320Y-14851684D02*
X12091368Y-14861208D01*
X12091368Y-14861208D02*
X12100891Y-14870731D01*
X12100891Y-14870731D02*
X12110415Y-14889779D01*
X12110415Y-14889779D02*
X12110415Y-14899303D01*
X12110415Y-14899303D02*
X12100891Y-14918350D01*
X12100891Y-14918350D02*
X12091368Y-14927874D01*
X12091368Y-14927874D02*
X12072320Y-14937398D01*
X12072320Y-14937398D02*
X12034225Y-14937398D01*
X12034225Y-14937398D02*
X12015177Y-14946922D01*
X12015177Y-14946922D02*
X12005653Y-14956446D01*
X12005653Y-14956446D02*
X11996129Y-14975493D01*
X11996129Y-14975493D02*
X11996129Y-15013588D01*
X11996129Y-15013588D02*
X12005653Y-15032636D01*
X12005653Y-15032636D02*
X12015177Y-15042160D01*
X12015177Y-15042160D02*
X12034225Y-15051684D01*
X12034225Y-15051684D02*
X12072320Y-15051684D01*
X12072320Y-15051684D02*
X12091368Y-15042160D01*
X12091368Y-15042160D02*
X12100891Y-15032636D01*
X12100891Y-15032636D02*
X12110415Y-15013588D01*
X12110415Y-15013588D02*
X12110415Y-14975493D01*
X12110415Y-14975493D02*
X12100891Y-14956446D01*
X12100891Y-14956446D02*
X12091368Y-14946922D01*
X12091368Y-14946922D02*
X12072320Y-14937398D01*
X12348510Y-15051684D02*
X12348510Y-14851684D01*
X12434225Y-15051684D02*
X12434225Y-14946922D01*
X12434225Y-14946922D02*
X12424701Y-14927874D01*
X12424701Y-14927874D02*
X12405653Y-14918350D01*
X12405653Y-14918350D02*
X12377082Y-14918350D01*
X12377082Y-14918350D02*
X12358034Y-14927874D01*
X12358034Y-14927874D02*
X12348510Y-14937398D01*
X12558034Y-15051684D02*
X12538987Y-15042160D01*
X12538987Y-15042160D02*
X12529463Y-15032636D01*
X12529463Y-15032636D02*
X12519939Y-15013588D01*
X12519939Y-15013588D02*
X12519939Y-14956446D01*
X12519939Y-14956446D02*
X12529463Y-14937398D01*
X12529463Y-14937398D02*
X12538987Y-14927874D01*
X12538987Y-14927874D02*
X12558034Y-14918350D01*
X12558034Y-14918350D02*
X12586606Y-14918350D01*
X12586606Y-14918350D02*
X12605653Y-14927874D01*
X12605653Y-14927874D02*
X12615177Y-14937398D01*
X12615177Y-14937398D02*
X12624701Y-14956446D01*
X12624701Y-14956446D02*
X12624701Y-15013588D01*
X12624701Y-15013588D02*
X12615177Y-15032636D01*
X12615177Y-15032636D02*
X12605653Y-15042160D01*
X12605653Y-15042160D02*
X12586606Y-15051684D01*
X12586606Y-15051684D02*
X12558034Y-15051684D01*
X12738987Y-15051684D02*
X12719939Y-15042160D01*
X12719939Y-15042160D02*
X12710415Y-15023112D01*
X12710415Y-15023112D02*
X12710415Y-14851684D01*
X12891368Y-15042160D02*
X12872320Y-15051684D01*
X12872320Y-15051684D02*
X12834225Y-15051684D01*
X12834225Y-15051684D02*
X12815177Y-15042160D01*
X12815177Y-15042160D02*
X12805653Y-15023112D01*
X12805653Y-15023112D02*
X12805653Y-14946922D01*
X12805653Y-14946922D02*
X12815177Y-14927874D01*
X12815177Y-14927874D02*
X12834225Y-14918350D01*
X12834225Y-14918350D02*
X12872320Y-14918350D01*
X12872320Y-14918350D02*
X12891368Y-14927874D01*
X12891368Y-14927874D02*
X12900891Y-14946922D01*
X12900891Y-14946922D02*
X12900891Y-14965969D01*
X12900891Y-14965969D02*
X12805653Y-14985017D01*
X12977082Y-15042160D02*
X12996130Y-15051684D01*
X12996130Y-15051684D02*
X13034225Y-15051684D01*
X13034225Y-15051684D02*
X13053272Y-15042160D01*
X13053272Y-15042160D02*
X13062796Y-15023112D01*
X13062796Y-15023112D02*
X13062796Y-15013588D01*
X13062796Y-15013588D02*
X13053272Y-14994541D01*
X13053272Y-14994541D02*
X13034225Y-14985017D01*
X13034225Y-14985017D02*
X13005653Y-14985017D01*
X13005653Y-14985017D02*
X12986606Y-14975493D01*
X12986606Y-14975493D02*
X12977082Y-14956446D01*
X12977082Y-14956446D02*
X12977082Y-14946922D01*
X12977082Y-14946922D02*
X12986606Y-14927874D01*
X12986606Y-14927874D02*
X13005653Y-14918350D01*
X13005653Y-14918350D02*
X13034225Y-14918350D01*
X13034225Y-14918350D02*
X13053272Y-14927874D01*
X13129463Y-15127874D02*
X13138987Y-15118350D01*
X13138987Y-15118350D02*
X13158034Y-15089779D01*
X13158034Y-15089779D02*
X13167558Y-15070731D01*
X13167558Y-15070731D02*
X13177082Y-15042160D01*
X13177082Y-15042160D02*
X13186606Y-14994541D01*
X13186606Y-14994541D02*
X13186606Y-14956446D01*
X13186606Y-14956446D02*
X13177082Y-14908827D01*
X13177082Y-14908827D02*
X13167558Y-14880255D01*
X13167558Y-14880255D02*
X13158034Y-14861208D01*
X13158034Y-14861208D02*
X13138987Y-14832636D01*
X13138987Y-14832636D02*
X13129463Y-14823112D01*
D13*
X8314400Y-15184200D02*
X8314400Y-15264200D01*
X8274400Y-15224200D02*
X8354400Y-15224200D01*
D10*
X8653272Y-15115684D02*
X8672320Y-15115684D01*
X8672320Y-15115684D02*
X8691367Y-15125208D01*
X8691367Y-15125208D02*
X8700891Y-15134731D01*
X8700891Y-15134731D02*
X8710415Y-15153779D01*
X8710415Y-15153779D02*
X8719939Y-15191874D01*
X8719939Y-15191874D02*
X8719939Y-15239493D01*
X8719939Y-15239493D02*
X8710415Y-15277588D01*
X8710415Y-15277588D02*
X8700891Y-15296636D01*
X8700891Y-15296636D02*
X8691367Y-15306160D01*
X8691367Y-15306160D02*
X8672320Y-15315684D01*
X8672320Y-15315684D02*
X8653272Y-15315684D01*
X8653272Y-15315684D02*
X8634224Y-15306160D01*
X8634224Y-15306160D02*
X8624701Y-15296636D01*
X8624701Y-15296636D02*
X8615177Y-15277588D01*
X8615177Y-15277588D02*
X8605653Y-15239493D01*
X8605653Y-15239493D02*
X8605653Y-15191874D01*
X8605653Y-15191874D02*
X8615177Y-15153779D01*
X8615177Y-15153779D02*
X8624701Y-15134731D01*
X8624701Y-15134731D02*
X8634224Y-15125208D01*
X8634224Y-15125208D02*
X8653272Y-15115684D01*
X8805653Y-15296636D02*
X8815177Y-15306160D01*
X8815177Y-15306160D02*
X8805653Y-15315684D01*
X8805653Y-15315684D02*
X8796129Y-15306160D01*
X8796129Y-15306160D02*
X8805653Y-15296636D01*
X8805653Y-15296636D02*
X8805653Y-15315684D01*
X8929463Y-15201398D02*
X8910415Y-15191874D01*
X8910415Y-15191874D02*
X8900891Y-15182350D01*
X8900891Y-15182350D02*
X8891367Y-15163303D01*
X8891367Y-15163303D02*
X8891367Y-15153779D01*
X8891367Y-15153779D02*
X8900891Y-15134731D01*
X8900891Y-15134731D02*
X8910415Y-15125208D01*
X8910415Y-15125208D02*
X8929463Y-15115684D01*
X8929463Y-15115684D02*
X8967558Y-15115684D01*
X8967558Y-15115684D02*
X8986605Y-15125208D01*
X8986605Y-15125208D02*
X8996129Y-15134731D01*
X8996129Y-15134731D02*
X9005653Y-15153779D01*
X9005653Y-15153779D02*
X9005653Y-15163303D01*
X9005653Y-15163303D02*
X8996129Y-15182350D01*
X8996129Y-15182350D02*
X8986605Y-15191874D01*
X8986605Y-15191874D02*
X8967558Y-15201398D01*
X8967558Y-15201398D02*
X8929463Y-15201398D01*
X8929463Y-15201398D02*
X8910415Y-15210922D01*
X8910415Y-15210922D02*
X8900891Y-15220446D01*
X8900891Y-15220446D02*
X8891367Y-15239493D01*
X8891367Y-15239493D02*
X8891367Y-15277588D01*
X8891367Y-15277588D02*
X8900891Y-15296636D01*
X8900891Y-15296636D02*
X8910415Y-15306160D01*
X8910415Y-15306160D02*
X8929463Y-15315684D01*
X8929463Y-15315684D02*
X8967558Y-15315684D01*
X8967558Y-15315684D02*
X8986605Y-15306160D01*
X8986605Y-15306160D02*
X8996129Y-15296636D01*
X8996129Y-15296636D02*
X9005653Y-15277588D01*
X9005653Y-15277588D02*
X9005653Y-15239493D01*
X9005653Y-15239493D02*
X8996129Y-15220446D01*
X8996129Y-15220446D02*
X8986605Y-15210922D01*
X8986605Y-15210922D02*
X8967558Y-15201398D01*
X9129463Y-15115684D02*
X9148510Y-15115684D01*
X9148510Y-15115684D02*
X9167558Y-15125208D01*
X9167558Y-15125208D02*
X9177082Y-15134731D01*
X9177082Y-15134731D02*
X9186605Y-15153779D01*
X9186605Y-15153779D02*
X9196129Y-15191874D01*
X9196129Y-15191874D02*
X9196129Y-15239493D01*
X9196129Y-15239493D02*
X9186605Y-15277588D01*
X9186605Y-15277588D02*
X9177082Y-15296636D01*
X9177082Y-15296636D02*
X9167558Y-15306160D01*
X9167558Y-15306160D02*
X9148510Y-15315684D01*
X9148510Y-15315684D02*
X9129463Y-15315684D01*
X9129463Y-15315684D02*
X9110415Y-15306160D01*
X9110415Y-15306160D02*
X9100891Y-15296636D01*
X9100891Y-15296636D02*
X9091367Y-15277588D01*
X9091367Y-15277588D02*
X9081844Y-15239493D01*
X9081844Y-15239493D02*
X9081844Y-15191874D01*
X9081844Y-15191874D02*
X9091367Y-15153779D01*
X9091367Y-15153779D02*
X9100891Y-15134731D01*
X9100891Y-15134731D02*
X9110415Y-15125208D01*
X9110415Y-15125208D02*
X9129463Y-15115684D01*
X9319939Y-15115684D02*
X9338986Y-15115684D01*
X9338986Y-15115684D02*
X9358034Y-15125208D01*
X9358034Y-15125208D02*
X9367558Y-15134731D01*
X9367558Y-15134731D02*
X9377082Y-15153779D01*
X9377082Y-15153779D02*
X9386605Y-15191874D01*
X9386605Y-15191874D02*
X9386605Y-15239493D01*
X9386605Y-15239493D02*
X9377082Y-15277588D01*
X9377082Y-15277588D02*
X9367558Y-15296636D01*
X9367558Y-15296636D02*
X9358034Y-15306160D01*
X9358034Y-15306160D02*
X9338986Y-15315684D01*
X9338986Y-15315684D02*
X9319939Y-15315684D01*
X9319939Y-15315684D02*
X9300891Y-15306160D01*
X9300891Y-15306160D02*
X9291367Y-15296636D01*
X9291367Y-15296636D02*
X9281844Y-15277588D01*
X9281844Y-15277588D02*
X9272320Y-15239493D01*
X9272320Y-15239493D02*
X9272320Y-15191874D01*
X9272320Y-15191874D02*
X9281844Y-15153779D01*
X9281844Y-15153779D02*
X9291367Y-15134731D01*
X9291367Y-15134731D02*
X9300891Y-15125208D01*
X9300891Y-15125208D02*
X9319939Y-15115684D01*
X9472320Y-15315684D02*
X9472320Y-15182350D01*
X9472320Y-15201398D02*
X9481844Y-15191874D01*
X9481844Y-15191874D02*
X9500891Y-15182350D01*
X9500891Y-15182350D02*
X9529463Y-15182350D01*
X9529463Y-15182350D02*
X9548510Y-15191874D01*
X9548510Y-15191874D02*
X9558034Y-15210922D01*
X9558034Y-15210922D02*
X9558034Y-15315684D01*
X9558034Y-15210922D02*
X9567558Y-15191874D01*
X9567558Y-15191874D02*
X9586605Y-15182350D01*
X9586605Y-15182350D02*
X9615177Y-15182350D01*
X9615177Y-15182350D02*
X9634225Y-15191874D01*
X9634225Y-15191874D02*
X9643748Y-15210922D01*
X9643748Y-15210922D02*
X9643748Y-15315684D01*
X9738986Y-15315684D02*
X9738986Y-15182350D01*
X9738986Y-15201398D02*
X9748510Y-15191874D01*
X9748510Y-15191874D02*
X9767558Y-15182350D01*
X9767558Y-15182350D02*
X9796129Y-15182350D01*
X9796129Y-15182350D02*
X9815177Y-15191874D01*
X9815177Y-15191874D02*
X9824701Y-15210922D01*
X9824701Y-15210922D02*
X9824701Y-15315684D01*
X9824701Y-15210922D02*
X9834225Y-15191874D01*
X9834225Y-15191874D02*
X9853272Y-15182350D01*
X9853272Y-15182350D02*
X9881844Y-15182350D01*
X9881844Y-15182350D02*
X9900891Y-15191874D01*
X9900891Y-15191874D02*
X9910415Y-15210922D01*
X9910415Y-15210922D02*
X9910415Y-15315684D01*
X10300891Y-15106160D02*
X10129463Y-15363303D01*
X10558034Y-15115684D02*
X10577082Y-15115684D01*
X10577082Y-15115684D02*
X10596129Y-15125208D01*
X10596129Y-15125208D02*
X10605653Y-15134731D01*
X10605653Y-15134731D02*
X10615177Y-15153779D01*
X10615177Y-15153779D02*
X10624701Y-15191874D01*
X10624701Y-15191874D02*
X10624701Y-15239493D01*
X10624701Y-15239493D02*
X10615177Y-15277588D01*
X10615177Y-15277588D02*
X10605653Y-15296636D01*
X10605653Y-15296636D02*
X10596129Y-15306160D01*
X10596129Y-15306160D02*
X10577082Y-15315684D01*
X10577082Y-15315684D02*
X10558034Y-15315684D01*
X10558034Y-15315684D02*
X10538987Y-15306160D01*
X10538987Y-15306160D02*
X10529463Y-15296636D01*
X10529463Y-15296636D02*
X10519939Y-15277588D01*
X10519939Y-15277588D02*
X10510415Y-15239493D01*
X10510415Y-15239493D02*
X10510415Y-15191874D01*
X10510415Y-15191874D02*
X10519939Y-15153779D01*
X10519939Y-15153779D02*
X10529463Y-15134731D01*
X10529463Y-15134731D02*
X10538987Y-15125208D01*
X10538987Y-15125208D02*
X10558034Y-15115684D01*
X10710415Y-15296636D02*
X10719939Y-15306160D01*
X10719939Y-15306160D02*
X10710415Y-15315684D01*
X10710415Y-15315684D02*
X10700891Y-15306160D01*
X10700891Y-15306160D02*
X10710415Y-15296636D01*
X10710415Y-15296636D02*
X10710415Y-15315684D01*
X10843748Y-15115684D02*
X10862796Y-15115684D01*
X10862796Y-15115684D02*
X10881844Y-15125208D01*
X10881844Y-15125208D02*
X10891368Y-15134731D01*
X10891368Y-15134731D02*
X10900891Y-15153779D01*
X10900891Y-15153779D02*
X10910415Y-15191874D01*
X10910415Y-15191874D02*
X10910415Y-15239493D01*
X10910415Y-15239493D02*
X10900891Y-15277588D01*
X10900891Y-15277588D02*
X10891368Y-15296636D01*
X10891368Y-15296636D02*
X10881844Y-15306160D01*
X10881844Y-15306160D02*
X10862796Y-15315684D01*
X10862796Y-15315684D02*
X10843748Y-15315684D01*
X10843748Y-15315684D02*
X10824701Y-15306160D01*
X10824701Y-15306160D02*
X10815177Y-15296636D01*
X10815177Y-15296636D02*
X10805653Y-15277588D01*
X10805653Y-15277588D02*
X10796129Y-15239493D01*
X10796129Y-15239493D02*
X10796129Y-15191874D01*
X10796129Y-15191874D02*
X10805653Y-15153779D01*
X10805653Y-15153779D02*
X10815177Y-15134731D01*
X10815177Y-15134731D02*
X10824701Y-15125208D01*
X10824701Y-15125208D02*
X10843748Y-15115684D01*
X10977082Y-15115684D02*
X11100891Y-15115684D01*
X11100891Y-15115684D02*
X11034225Y-15191874D01*
X11034225Y-15191874D02*
X11062796Y-15191874D01*
X11062796Y-15191874D02*
X11081844Y-15201398D01*
X11081844Y-15201398D02*
X11091368Y-15210922D01*
X11091368Y-15210922D02*
X11100891Y-15229969D01*
X11100891Y-15229969D02*
X11100891Y-15277588D01*
X11100891Y-15277588D02*
X11091368Y-15296636D01*
X11091368Y-15296636D02*
X11081844Y-15306160D01*
X11081844Y-15306160D02*
X11062796Y-15315684D01*
X11062796Y-15315684D02*
X11005653Y-15315684D01*
X11005653Y-15315684D02*
X10986606Y-15306160D01*
X10986606Y-15306160D02*
X10977082Y-15296636D01*
X11291367Y-15315684D02*
X11177082Y-15315684D01*
X11234225Y-15315684D02*
X11234225Y-15115684D01*
X11234225Y-15115684D02*
X11215177Y-15144255D01*
X11215177Y-15144255D02*
X11196129Y-15163303D01*
X11196129Y-15163303D02*
X11177082Y-15172827D01*
X11472320Y-15115684D02*
X11377082Y-15115684D01*
X11377082Y-15115684D02*
X11367558Y-15210922D01*
X11367558Y-15210922D02*
X11377082Y-15201398D01*
X11377082Y-15201398D02*
X11396129Y-15191874D01*
X11396129Y-15191874D02*
X11443748Y-15191874D01*
X11443748Y-15191874D02*
X11462796Y-15201398D01*
X11462796Y-15201398D02*
X11472320Y-15210922D01*
X11472320Y-15210922D02*
X11481844Y-15229969D01*
X11481844Y-15229969D02*
X11481844Y-15277588D01*
X11481844Y-15277588D02*
X11472320Y-15296636D01*
X11472320Y-15296636D02*
X11462796Y-15306160D01*
X11462796Y-15306160D02*
X11443748Y-15315684D01*
X11443748Y-15315684D02*
X11396129Y-15315684D01*
X11396129Y-15315684D02*
X11377082Y-15306160D01*
X11377082Y-15306160D02*
X11367558Y-15296636D01*
X11558034Y-15115684D02*
X11558034Y-15153779D01*
X11634225Y-15115684D02*
X11634225Y-15153779D01*
X11929463Y-15391874D02*
X11919939Y-15382350D01*
X11919939Y-15382350D02*
X11900891Y-15353779D01*
X11900891Y-15353779D02*
X11891368Y-15334731D01*
X11891368Y-15334731D02*
X11881844Y-15306160D01*
X11881844Y-15306160D02*
X11872320Y-15258541D01*
X11872320Y-15258541D02*
X11872320Y-15220446D01*
X11872320Y-15220446D02*
X11881844Y-15172827D01*
X11881844Y-15172827D02*
X11891368Y-15144255D01*
X11891368Y-15144255D02*
X11900891Y-15125208D01*
X11900891Y-15125208D02*
X11919939Y-15096636D01*
X11919939Y-15096636D02*
X11929463Y-15087112D01*
X11996129Y-15134731D02*
X12005653Y-15125208D01*
X12005653Y-15125208D02*
X12024701Y-15115684D01*
X12024701Y-15115684D02*
X12072320Y-15115684D01*
X12072320Y-15115684D02*
X12091368Y-15125208D01*
X12091368Y-15125208D02*
X12100891Y-15134731D01*
X12100891Y-15134731D02*
X12110415Y-15153779D01*
X12110415Y-15153779D02*
X12110415Y-15172827D01*
X12110415Y-15172827D02*
X12100891Y-15201398D01*
X12100891Y-15201398D02*
X11986606Y-15315684D01*
X11986606Y-15315684D02*
X12110415Y-15315684D01*
X12300891Y-15315684D02*
X12186606Y-15315684D01*
X12243748Y-15315684D02*
X12243748Y-15115684D01*
X12243748Y-15115684D02*
X12224701Y-15144255D01*
X12224701Y-15144255D02*
X12205653Y-15163303D01*
X12205653Y-15163303D02*
X12186606Y-15172827D01*
X12491368Y-15315684D02*
X12377082Y-15315684D01*
X12434225Y-15315684D02*
X12434225Y-15115684D01*
X12434225Y-15115684D02*
X12415177Y-15144255D01*
X12415177Y-15144255D02*
X12396129Y-15163303D01*
X12396129Y-15163303D02*
X12377082Y-15172827D01*
X12729463Y-15315684D02*
X12729463Y-15115684D01*
X12815177Y-15315684D02*
X12815177Y-15210922D01*
X12815177Y-15210922D02*
X12805653Y-15191874D01*
X12805653Y-15191874D02*
X12786606Y-15182350D01*
X12786606Y-15182350D02*
X12758034Y-15182350D01*
X12758034Y-15182350D02*
X12738987Y-15191874D01*
X12738987Y-15191874D02*
X12729463Y-15201398D01*
X12938987Y-15315684D02*
X12919939Y-15306160D01*
X12919939Y-15306160D02*
X12910415Y-15296636D01*
X12910415Y-15296636D02*
X12900891Y-15277588D01*
X12900891Y-15277588D02*
X12900891Y-15220446D01*
X12900891Y-15220446D02*
X12910415Y-15201398D01*
X12910415Y-15201398D02*
X12919939Y-15191874D01*
X12919939Y-15191874D02*
X12938987Y-15182350D01*
X12938987Y-15182350D02*
X12967558Y-15182350D01*
X12967558Y-15182350D02*
X12986606Y-15191874D01*
X12986606Y-15191874D02*
X12996130Y-15201398D01*
X12996130Y-15201398D02*
X13005653Y-15220446D01*
X13005653Y-15220446D02*
X13005653Y-15277588D01*
X13005653Y-15277588D02*
X12996130Y-15296636D01*
X12996130Y-15296636D02*
X12986606Y-15306160D01*
X12986606Y-15306160D02*
X12967558Y-15315684D01*
X12967558Y-15315684D02*
X12938987Y-15315684D01*
X13119939Y-15315684D02*
X13100891Y-15306160D01*
X13100891Y-15306160D02*
X13091368Y-15287112D01*
X13091368Y-15287112D02*
X13091368Y-15115684D01*
X13272320Y-15306160D02*
X13253272Y-15315684D01*
X13253272Y-15315684D02*
X13215177Y-15315684D01*
X13215177Y-15315684D02*
X13196130Y-15306160D01*
X13196130Y-15306160D02*
X13186606Y-15287112D01*
X13186606Y-15287112D02*
X13186606Y-15210922D01*
X13186606Y-15210922D02*
X13196130Y-15191874D01*
X13196130Y-15191874D02*
X13215177Y-15182350D01*
X13215177Y-15182350D02*
X13253272Y-15182350D01*
X13253272Y-15182350D02*
X13272320Y-15191874D01*
X13272320Y-15191874D02*
X13281844Y-15210922D01*
X13281844Y-15210922D02*
X13281844Y-15229969D01*
X13281844Y-15229969D02*
X13186606Y-15249017D01*
X13358034Y-15306160D02*
X13377082Y-15315684D01*
X13377082Y-15315684D02*
X13415177Y-15315684D01*
X13415177Y-15315684D02*
X13434225Y-15306160D01*
X13434225Y-15306160D02*
X13443749Y-15287112D01*
X13443749Y-15287112D02*
X13443749Y-15277588D01*
X13443749Y-15277588D02*
X13434225Y-15258541D01*
X13434225Y-15258541D02*
X13415177Y-15249017D01*
X13415177Y-15249017D02*
X13386606Y-15249017D01*
X13386606Y-15249017D02*
X13367558Y-15239493D01*
X13367558Y-15239493D02*
X13358034Y-15220446D01*
X13358034Y-15220446D02*
X13358034Y-15210922D01*
X13358034Y-15210922D02*
X13367558Y-15191874D01*
X13367558Y-15191874D02*
X13386606Y-15182350D01*
X13386606Y-15182350D02*
X13415177Y-15182350D01*
X13415177Y-15182350D02*
X13434225Y-15191874D01*
X13510415Y-15391874D02*
X13519939Y-15382350D01*
X13519939Y-15382350D02*
X13538987Y-15353779D01*
X13538987Y-15353779D02*
X13548511Y-15334731D01*
X13548511Y-15334731D02*
X13558034Y-15306160D01*
X13558034Y-15306160D02*
X13567558Y-15258541D01*
X13567558Y-15258541D02*
X13567558Y-15220446D01*
X13567558Y-15220446D02*
X13558034Y-15172827D01*
X13558034Y-15172827D02*
X13548511Y-15144255D01*
X13548511Y-15144255D02*
X13538987Y-15125208D01*
X13538987Y-15125208D02*
X13519939Y-15096636D01*
X13519939Y-15096636D02*
X13510415Y-15087112D01*
D14*
X8341220Y-15520020D02*
X8341220Y-15456380D01*
X8277580Y-15456380D01*
X8277580Y-15520020D01*
X8341220Y-15520020D01*
D10*
X8653272Y-15379684D02*
X8672320Y-15379684D01*
X8672320Y-15379684D02*
X8691367Y-15389208D01*
X8691367Y-15389208D02*
X8700891Y-15398731D01*
X8700891Y-15398731D02*
X8710415Y-15417779D01*
X8710415Y-15417779D02*
X8719939Y-15455874D01*
X8719939Y-15455874D02*
X8719939Y-15503493D01*
X8719939Y-15503493D02*
X8710415Y-15541588D01*
X8710415Y-15541588D02*
X8700891Y-15560636D01*
X8700891Y-15560636D02*
X8691367Y-15570160D01*
X8691367Y-15570160D02*
X8672320Y-15579684D01*
X8672320Y-15579684D02*
X8653272Y-15579684D01*
X8653272Y-15579684D02*
X8634224Y-15570160D01*
X8634224Y-15570160D02*
X8624701Y-15560636D01*
X8624701Y-15560636D02*
X8615177Y-15541588D01*
X8615177Y-15541588D02*
X8605653Y-15503493D01*
X8605653Y-15503493D02*
X8605653Y-15455874D01*
X8605653Y-15455874D02*
X8615177Y-15417779D01*
X8615177Y-15417779D02*
X8624701Y-15398731D01*
X8624701Y-15398731D02*
X8634224Y-15389208D01*
X8634224Y-15389208D02*
X8653272Y-15379684D01*
X8805653Y-15560636D02*
X8815177Y-15570160D01*
X8815177Y-15570160D02*
X8805653Y-15579684D01*
X8805653Y-15579684D02*
X8796129Y-15570160D01*
X8796129Y-15570160D02*
X8805653Y-15560636D01*
X8805653Y-15560636D02*
X8805653Y-15579684D01*
X8910415Y-15579684D02*
X8948510Y-15579684D01*
X8948510Y-15579684D02*
X8967558Y-15570160D01*
X8967558Y-15570160D02*
X8977082Y-15560636D01*
X8977082Y-15560636D02*
X8996129Y-15532065D01*
X8996129Y-15532065D02*
X9005653Y-15493969D01*
X9005653Y-15493969D02*
X9005653Y-15417779D01*
X9005653Y-15417779D02*
X8996129Y-15398731D01*
X8996129Y-15398731D02*
X8986605Y-15389208D01*
X8986605Y-15389208D02*
X8967558Y-15379684D01*
X8967558Y-15379684D02*
X8929463Y-15379684D01*
X8929463Y-15379684D02*
X8910415Y-15389208D01*
X8910415Y-15389208D02*
X8900891Y-15398731D01*
X8900891Y-15398731D02*
X8891367Y-15417779D01*
X8891367Y-15417779D02*
X8891367Y-15465398D01*
X8891367Y-15465398D02*
X8900891Y-15484446D01*
X8900891Y-15484446D02*
X8910415Y-15493969D01*
X8910415Y-15493969D02*
X8929463Y-15503493D01*
X8929463Y-15503493D02*
X8967558Y-15503493D01*
X8967558Y-15503493D02*
X8986605Y-15493969D01*
X8986605Y-15493969D02*
X8996129Y-15484446D01*
X8996129Y-15484446D02*
X9005653Y-15465398D01*
X9129463Y-15379684D02*
X9148510Y-15379684D01*
X9148510Y-15379684D02*
X9167558Y-15389208D01*
X9167558Y-15389208D02*
X9177082Y-15398731D01*
X9177082Y-15398731D02*
X9186605Y-15417779D01*
X9186605Y-15417779D02*
X9196129Y-15455874D01*
X9196129Y-15455874D02*
X9196129Y-15503493D01*
X9196129Y-15503493D02*
X9186605Y-15541588D01*
X9186605Y-15541588D02*
X9177082Y-15560636D01*
X9177082Y-15560636D02*
X9167558Y-15570160D01*
X9167558Y-15570160D02*
X9148510Y-15579684D01*
X9148510Y-15579684D02*
X9129463Y-15579684D01*
X9129463Y-15579684D02*
X9110415Y-15570160D01*
X9110415Y-15570160D02*
X9100891Y-15560636D01*
X9100891Y-15560636D02*
X9091367Y-15541588D01*
X9091367Y-15541588D02*
X9081844Y-15503493D01*
X9081844Y-15503493D02*
X9081844Y-15455874D01*
X9081844Y-15455874D02*
X9091367Y-15417779D01*
X9091367Y-15417779D02*
X9100891Y-15398731D01*
X9100891Y-15398731D02*
X9110415Y-15389208D01*
X9110415Y-15389208D02*
X9129463Y-15379684D01*
X9319939Y-15379684D02*
X9338986Y-15379684D01*
X9338986Y-15379684D02*
X9358034Y-15389208D01*
X9358034Y-15389208D02*
X9367558Y-15398731D01*
X9367558Y-15398731D02*
X9377082Y-15417779D01*
X9377082Y-15417779D02*
X9386605Y-15455874D01*
X9386605Y-15455874D02*
X9386605Y-15503493D01*
X9386605Y-15503493D02*
X9377082Y-15541588D01*
X9377082Y-15541588D02*
X9367558Y-15560636D01*
X9367558Y-15560636D02*
X9358034Y-15570160D01*
X9358034Y-15570160D02*
X9338986Y-15579684D01*
X9338986Y-15579684D02*
X9319939Y-15579684D01*
X9319939Y-15579684D02*
X9300891Y-15570160D01*
X9300891Y-15570160D02*
X9291367Y-15560636D01*
X9291367Y-15560636D02*
X9281844Y-15541588D01*
X9281844Y-15541588D02*
X9272320Y-15503493D01*
X9272320Y-15503493D02*
X9272320Y-15455874D01*
X9272320Y-15455874D02*
X9281844Y-15417779D01*
X9281844Y-15417779D02*
X9291367Y-15398731D01*
X9291367Y-15398731D02*
X9300891Y-15389208D01*
X9300891Y-15389208D02*
X9319939Y-15379684D01*
X9472320Y-15579684D02*
X9472320Y-15446350D01*
X9472320Y-15465398D02*
X9481844Y-15455874D01*
X9481844Y-15455874D02*
X9500891Y-15446350D01*
X9500891Y-15446350D02*
X9529463Y-15446350D01*
X9529463Y-15446350D02*
X9548510Y-15455874D01*
X9548510Y-15455874D02*
X9558034Y-15474922D01*
X9558034Y-15474922D02*
X9558034Y-15579684D01*
X9558034Y-15474922D02*
X9567558Y-15455874D01*
X9567558Y-15455874D02*
X9586605Y-15446350D01*
X9586605Y-15446350D02*
X9615177Y-15446350D01*
X9615177Y-15446350D02*
X9634225Y-15455874D01*
X9634225Y-15455874D02*
X9643748Y-15474922D01*
X9643748Y-15474922D02*
X9643748Y-15579684D01*
X9738986Y-15579684D02*
X9738986Y-15446350D01*
X9738986Y-15465398D02*
X9748510Y-15455874D01*
X9748510Y-15455874D02*
X9767558Y-15446350D01*
X9767558Y-15446350D02*
X9796129Y-15446350D01*
X9796129Y-15446350D02*
X9815177Y-15455874D01*
X9815177Y-15455874D02*
X9824701Y-15474922D01*
X9824701Y-15474922D02*
X9824701Y-15579684D01*
X9824701Y-15474922D02*
X9834225Y-15455874D01*
X9834225Y-15455874D02*
X9853272Y-15446350D01*
X9853272Y-15446350D02*
X9881844Y-15446350D01*
X9881844Y-15446350D02*
X9900891Y-15455874D01*
X9900891Y-15455874D02*
X9910415Y-15474922D01*
X9910415Y-15474922D02*
X9910415Y-15579684D01*
X10300891Y-15370160D02*
X10129463Y-15627303D01*
X10558034Y-15379684D02*
X10577082Y-15379684D01*
X10577082Y-15379684D02*
X10596129Y-15389208D01*
X10596129Y-15389208D02*
X10605653Y-15398731D01*
X10605653Y-15398731D02*
X10615177Y-15417779D01*
X10615177Y-15417779D02*
X10624701Y-15455874D01*
X10624701Y-15455874D02*
X10624701Y-15503493D01*
X10624701Y-15503493D02*
X10615177Y-15541588D01*
X10615177Y-15541588D02*
X10605653Y-15560636D01*
X10605653Y-15560636D02*
X10596129Y-15570160D01*
X10596129Y-15570160D02*
X10577082Y-15579684D01*
X10577082Y-15579684D02*
X10558034Y-15579684D01*
X10558034Y-15579684D02*
X10538987Y-15570160D01*
X10538987Y-15570160D02*
X10529463Y-15560636D01*
X10529463Y-15560636D02*
X10519939Y-15541588D01*
X10519939Y-15541588D02*
X10510415Y-15503493D01*
X10510415Y-15503493D02*
X10510415Y-15455874D01*
X10510415Y-15455874D02*
X10519939Y-15417779D01*
X10519939Y-15417779D02*
X10529463Y-15398731D01*
X10529463Y-15398731D02*
X10538987Y-15389208D01*
X10538987Y-15389208D02*
X10558034Y-15379684D01*
X10710415Y-15560636D02*
X10719939Y-15570160D01*
X10719939Y-15570160D02*
X10710415Y-15579684D01*
X10710415Y-15579684D02*
X10700891Y-15570160D01*
X10700891Y-15570160D02*
X10710415Y-15560636D01*
X10710415Y-15560636D02*
X10710415Y-15579684D01*
X10843748Y-15379684D02*
X10862796Y-15379684D01*
X10862796Y-15379684D02*
X10881844Y-15389208D01*
X10881844Y-15389208D02*
X10891368Y-15398731D01*
X10891368Y-15398731D02*
X10900891Y-15417779D01*
X10900891Y-15417779D02*
X10910415Y-15455874D01*
X10910415Y-15455874D02*
X10910415Y-15503493D01*
X10910415Y-15503493D02*
X10900891Y-15541588D01*
X10900891Y-15541588D02*
X10891368Y-15560636D01*
X10891368Y-15560636D02*
X10881844Y-15570160D01*
X10881844Y-15570160D02*
X10862796Y-15579684D01*
X10862796Y-15579684D02*
X10843748Y-15579684D01*
X10843748Y-15579684D02*
X10824701Y-15570160D01*
X10824701Y-15570160D02*
X10815177Y-15560636D01*
X10815177Y-15560636D02*
X10805653Y-15541588D01*
X10805653Y-15541588D02*
X10796129Y-15503493D01*
X10796129Y-15503493D02*
X10796129Y-15455874D01*
X10796129Y-15455874D02*
X10805653Y-15417779D01*
X10805653Y-15417779D02*
X10815177Y-15398731D01*
X10815177Y-15398731D02*
X10824701Y-15389208D01*
X10824701Y-15389208D02*
X10843748Y-15379684D01*
X10977082Y-15379684D02*
X11100891Y-15379684D01*
X11100891Y-15379684D02*
X11034225Y-15455874D01*
X11034225Y-15455874D02*
X11062796Y-15455874D01*
X11062796Y-15455874D02*
X11081844Y-15465398D01*
X11081844Y-15465398D02*
X11091368Y-15474922D01*
X11091368Y-15474922D02*
X11100891Y-15493969D01*
X11100891Y-15493969D02*
X11100891Y-15541588D01*
X11100891Y-15541588D02*
X11091368Y-15560636D01*
X11091368Y-15560636D02*
X11081844Y-15570160D01*
X11081844Y-15570160D02*
X11062796Y-15579684D01*
X11062796Y-15579684D02*
X11005653Y-15579684D01*
X11005653Y-15579684D02*
X10986606Y-15570160D01*
X10986606Y-15570160D02*
X10977082Y-15560636D01*
X11281844Y-15379684D02*
X11186606Y-15379684D01*
X11186606Y-15379684D02*
X11177082Y-15474922D01*
X11177082Y-15474922D02*
X11186606Y-15465398D01*
X11186606Y-15465398D02*
X11205653Y-15455874D01*
X11205653Y-15455874D02*
X11253272Y-15455874D01*
X11253272Y-15455874D02*
X11272320Y-15465398D01*
X11272320Y-15465398D02*
X11281844Y-15474922D01*
X11281844Y-15474922D02*
X11291367Y-15493969D01*
X11291367Y-15493969D02*
X11291367Y-15541588D01*
X11291367Y-15541588D02*
X11281844Y-15560636D01*
X11281844Y-15560636D02*
X11272320Y-15570160D01*
X11272320Y-15570160D02*
X11253272Y-15579684D01*
X11253272Y-15579684D02*
X11205653Y-15579684D01*
X11205653Y-15579684D02*
X11186606Y-15570160D01*
X11186606Y-15570160D02*
X11177082Y-15560636D01*
X11462796Y-15446350D02*
X11462796Y-15579684D01*
X11415177Y-15370160D02*
X11367558Y-15513017D01*
X11367558Y-15513017D02*
X11491367Y-15513017D01*
X11558034Y-15379684D02*
X11558034Y-15417779D01*
X11634225Y-15379684D02*
X11634225Y-15417779D01*
X11929463Y-15655874D02*
X11919939Y-15646350D01*
X11919939Y-15646350D02*
X11900891Y-15617779D01*
X11900891Y-15617779D02*
X11891368Y-15598731D01*
X11891368Y-15598731D02*
X11881844Y-15570160D01*
X11881844Y-15570160D02*
X11872320Y-15522541D01*
X11872320Y-15522541D02*
X11872320Y-15484446D01*
X11872320Y-15484446D02*
X11881844Y-15436827D01*
X11881844Y-15436827D02*
X11891368Y-15408255D01*
X11891368Y-15408255D02*
X11900891Y-15389208D01*
X11900891Y-15389208D02*
X11919939Y-15360636D01*
X11919939Y-15360636D02*
X11929463Y-15351112D01*
X12110415Y-15579684D02*
X11996129Y-15579684D01*
X12053272Y-15579684D02*
X12053272Y-15379684D01*
X12053272Y-15379684D02*
X12034225Y-15408255D01*
X12034225Y-15408255D02*
X12015177Y-15427303D01*
X12015177Y-15427303D02*
X11996129Y-15436827D01*
X12281844Y-15379684D02*
X12243748Y-15379684D01*
X12243748Y-15379684D02*
X12224701Y-15389208D01*
X12224701Y-15389208D02*
X12215177Y-15398731D01*
X12215177Y-15398731D02*
X12196129Y-15427303D01*
X12196129Y-15427303D02*
X12186606Y-15465398D01*
X12186606Y-15465398D02*
X12186606Y-15541588D01*
X12186606Y-15541588D02*
X12196129Y-15560636D01*
X12196129Y-15560636D02*
X12205653Y-15570160D01*
X12205653Y-15570160D02*
X12224701Y-15579684D01*
X12224701Y-15579684D02*
X12262796Y-15579684D01*
X12262796Y-15579684D02*
X12281844Y-15570160D01*
X12281844Y-15570160D02*
X12291368Y-15560636D01*
X12291368Y-15560636D02*
X12300891Y-15541588D01*
X12300891Y-15541588D02*
X12300891Y-15493969D01*
X12300891Y-15493969D02*
X12291368Y-15474922D01*
X12291368Y-15474922D02*
X12281844Y-15465398D01*
X12281844Y-15465398D02*
X12262796Y-15455874D01*
X12262796Y-15455874D02*
X12224701Y-15455874D01*
X12224701Y-15455874D02*
X12205653Y-15465398D01*
X12205653Y-15465398D02*
X12196129Y-15474922D01*
X12196129Y-15474922D02*
X12186606Y-15493969D01*
X12538987Y-15579684D02*
X12538987Y-15379684D01*
X12624701Y-15579684D02*
X12624701Y-15474922D01*
X12624701Y-15474922D02*
X12615177Y-15455874D01*
X12615177Y-15455874D02*
X12596130Y-15446350D01*
X12596130Y-15446350D02*
X12567558Y-15446350D01*
X12567558Y-15446350D02*
X12548510Y-15455874D01*
X12548510Y-15455874D02*
X12538987Y-15465398D01*
X12748510Y-15579684D02*
X12729463Y-15570160D01*
X12729463Y-15570160D02*
X12719939Y-15560636D01*
X12719939Y-15560636D02*
X12710415Y-15541588D01*
X12710415Y-15541588D02*
X12710415Y-15484446D01*
X12710415Y-15484446D02*
X12719939Y-15465398D01*
X12719939Y-15465398D02*
X12729463Y-15455874D01*
X12729463Y-15455874D02*
X12748510Y-15446350D01*
X12748510Y-15446350D02*
X12777082Y-15446350D01*
X12777082Y-15446350D02*
X12796130Y-15455874D01*
X12796130Y-15455874D02*
X12805653Y-15465398D01*
X12805653Y-15465398D02*
X12815177Y-15484446D01*
X12815177Y-15484446D02*
X12815177Y-15541588D01*
X12815177Y-15541588D02*
X12805653Y-15560636D01*
X12805653Y-15560636D02*
X12796130Y-15570160D01*
X12796130Y-15570160D02*
X12777082Y-15579684D01*
X12777082Y-15579684D02*
X12748510Y-15579684D01*
X12929463Y-15579684D02*
X12910415Y-15570160D01*
X12910415Y-15570160D02*
X12900891Y-15551112D01*
X12900891Y-15551112D02*
X12900891Y-15379684D01*
X13081844Y-15570160D02*
X13062796Y-15579684D01*
X13062796Y-15579684D02*
X13024701Y-15579684D01*
X13024701Y-15579684D02*
X13005653Y-15570160D01*
X13005653Y-15570160D02*
X12996130Y-15551112D01*
X12996130Y-15551112D02*
X12996130Y-15474922D01*
X12996130Y-15474922D02*
X13005653Y-15455874D01*
X13005653Y-15455874D02*
X13024701Y-15446350D01*
X13024701Y-15446350D02*
X13062796Y-15446350D01*
X13062796Y-15446350D02*
X13081844Y-15455874D01*
X13081844Y-15455874D02*
X13091368Y-15474922D01*
X13091368Y-15474922D02*
X13091368Y-15493969D01*
X13091368Y-15493969D02*
X12996130Y-15513017D01*
X13167558Y-15570160D02*
X13186606Y-15579684D01*
X13186606Y-15579684D02*
X13224701Y-15579684D01*
X13224701Y-15579684D02*
X13243749Y-15570160D01*
X13243749Y-15570160D02*
X13253272Y-15551112D01*
X13253272Y-15551112D02*
X13253272Y-15541588D01*
X13253272Y-15541588D02*
X13243749Y-15522541D01*
X13243749Y-15522541D02*
X13224701Y-15513017D01*
X13224701Y-15513017D02*
X13196130Y-15513017D01*
X13196130Y-15513017D02*
X13177082Y-15503493D01*
X13177082Y-15503493D02*
X13167558Y-15484446D01*
X13167558Y-15484446D02*
X13167558Y-15474922D01*
X13167558Y-15474922D02*
X13177082Y-15455874D01*
X13177082Y-15455874D02*
X13196130Y-15446350D01*
X13196130Y-15446350D02*
X13224701Y-15446350D01*
X13224701Y-15446350D02*
X13243749Y-15455874D01*
X13319939Y-15655874D02*
X13329463Y-15646350D01*
X13329463Y-15646350D02*
X13348511Y-15617779D01*
X13348511Y-15617779D02*
X13358034Y-15598731D01*
X13358034Y-15598731D02*
X13367558Y-15570160D01*
X13367558Y-15570160D02*
X13377082Y-15522541D01*
X13377082Y-15522541D02*
X13377082Y-15484446D01*
X13377082Y-15484446D02*
X13367558Y-15436827D01*
X13367558Y-15436827D02*
X13358034Y-15408255D01*
X13358034Y-15408255D02*
X13348511Y-15389208D01*
X13348511Y-15389208D02*
X13329463Y-15360636D01*
X13329463Y-15360636D02*
X13319939Y-15351112D01*
D15*
X8304400Y-15802200D02*
X8354400Y-15752200D01*
X8304400Y-15702200D01*
X8254400Y-15752200D01*
X8304400Y-15802200D01*
D10*
X8719939Y-15843684D02*
X8605653Y-15843684D01*
X8662796Y-15843684D02*
X8662796Y-15643684D01*
X8662796Y-15643684D02*
X8643748Y-15672255D01*
X8643748Y-15672255D02*
X8624701Y-15691303D01*
X8624701Y-15691303D02*
X8605653Y-15700827D01*
X8805653Y-15824636D02*
X8815177Y-15834160D01*
X8815177Y-15834160D02*
X8805653Y-15843684D01*
X8805653Y-15843684D02*
X8796129Y-15834160D01*
X8796129Y-15834160D02*
X8805653Y-15824636D01*
X8805653Y-15824636D02*
X8805653Y-15843684D01*
X8938986Y-15643684D02*
X8958034Y-15643684D01*
X8958034Y-15643684D02*
X8977082Y-15653208D01*
X8977082Y-15653208D02*
X8986605Y-15662731D01*
X8986605Y-15662731D02*
X8996129Y-15681779D01*
X8996129Y-15681779D02*
X9005653Y-15719874D01*
X9005653Y-15719874D02*
X9005653Y-15767493D01*
X9005653Y-15767493D02*
X8996129Y-15805588D01*
X8996129Y-15805588D02*
X8986605Y-15824636D01*
X8986605Y-15824636D02*
X8977082Y-15834160D01*
X8977082Y-15834160D02*
X8958034Y-15843684D01*
X8958034Y-15843684D02*
X8938986Y-15843684D01*
X8938986Y-15843684D02*
X8919939Y-15834160D01*
X8919939Y-15834160D02*
X8910415Y-15824636D01*
X8910415Y-15824636D02*
X8900891Y-15805588D01*
X8900891Y-15805588D02*
X8891367Y-15767493D01*
X8891367Y-15767493D02*
X8891367Y-15719874D01*
X8891367Y-15719874D02*
X8900891Y-15681779D01*
X8900891Y-15681779D02*
X8910415Y-15662731D01*
X8910415Y-15662731D02*
X8919939Y-15653208D01*
X8919939Y-15653208D02*
X8938986Y-15643684D01*
X9129463Y-15643684D02*
X9148510Y-15643684D01*
X9148510Y-15643684D02*
X9167558Y-15653208D01*
X9167558Y-15653208D02*
X9177082Y-15662731D01*
X9177082Y-15662731D02*
X9186605Y-15681779D01*
X9186605Y-15681779D02*
X9196129Y-15719874D01*
X9196129Y-15719874D02*
X9196129Y-15767493D01*
X9196129Y-15767493D02*
X9186605Y-15805588D01*
X9186605Y-15805588D02*
X9177082Y-15824636D01*
X9177082Y-15824636D02*
X9167558Y-15834160D01*
X9167558Y-15834160D02*
X9148510Y-15843684D01*
X9148510Y-15843684D02*
X9129463Y-15843684D01*
X9129463Y-15843684D02*
X9110415Y-15834160D01*
X9110415Y-15834160D02*
X9100891Y-15824636D01*
X9100891Y-15824636D02*
X9091367Y-15805588D01*
X9091367Y-15805588D02*
X9081844Y-15767493D01*
X9081844Y-15767493D02*
X9081844Y-15719874D01*
X9081844Y-15719874D02*
X9091367Y-15681779D01*
X9091367Y-15681779D02*
X9100891Y-15662731D01*
X9100891Y-15662731D02*
X9110415Y-15653208D01*
X9110415Y-15653208D02*
X9129463Y-15643684D01*
X9319939Y-15643684D02*
X9338986Y-15643684D01*
X9338986Y-15643684D02*
X9358034Y-15653208D01*
X9358034Y-15653208D02*
X9367558Y-15662731D01*
X9367558Y-15662731D02*
X9377082Y-15681779D01*
X9377082Y-15681779D02*
X9386605Y-15719874D01*
X9386605Y-15719874D02*
X9386605Y-15767493D01*
X9386605Y-15767493D02*
X9377082Y-15805588D01*
X9377082Y-15805588D02*
X9367558Y-15824636D01*
X9367558Y-15824636D02*
X9358034Y-15834160D01*
X9358034Y-15834160D02*
X9338986Y-15843684D01*
X9338986Y-15843684D02*
X9319939Y-15843684D01*
X9319939Y-15843684D02*
X9300891Y-15834160D01*
X9300891Y-15834160D02*
X9291367Y-15824636D01*
X9291367Y-15824636D02*
X9281844Y-15805588D01*
X9281844Y-15805588D02*
X9272320Y-15767493D01*
X9272320Y-15767493D02*
X9272320Y-15719874D01*
X9272320Y-15719874D02*
X9281844Y-15681779D01*
X9281844Y-15681779D02*
X9291367Y-15662731D01*
X9291367Y-15662731D02*
X9300891Y-15653208D01*
X9300891Y-15653208D02*
X9319939Y-15643684D01*
X9472320Y-15843684D02*
X9472320Y-15710350D01*
X9472320Y-15729398D02*
X9481844Y-15719874D01*
X9481844Y-15719874D02*
X9500891Y-15710350D01*
X9500891Y-15710350D02*
X9529463Y-15710350D01*
X9529463Y-15710350D02*
X9548510Y-15719874D01*
X9548510Y-15719874D02*
X9558034Y-15738922D01*
X9558034Y-15738922D02*
X9558034Y-15843684D01*
X9558034Y-15738922D02*
X9567558Y-15719874D01*
X9567558Y-15719874D02*
X9586605Y-15710350D01*
X9586605Y-15710350D02*
X9615177Y-15710350D01*
X9615177Y-15710350D02*
X9634225Y-15719874D01*
X9634225Y-15719874D02*
X9643748Y-15738922D01*
X9643748Y-15738922D02*
X9643748Y-15843684D01*
X9738986Y-15843684D02*
X9738986Y-15710350D01*
X9738986Y-15729398D02*
X9748510Y-15719874D01*
X9748510Y-15719874D02*
X9767558Y-15710350D01*
X9767558Y-15710350D02*
X9796129Y-15710350D01*
X9796129Y-15710350D02*
X9815177Y-15719874D01*
X9815177Y-15719874D02*
X9824701Y-15738922D01*
X9824701Y-15738922D02*
X9824701Y-15843684D01*
X9824701Y-15738922D02*
X9834225Y-15719874D01*
X9834225Y-15719874D02*
X9853272Y-15710350D01*
X9853272Y-15710350D02*
X9881844Y-15710350D01*
X9881844Y-15710350D02*
X9900891Y-15719874D01*
X9900891Y-15719874D02*
X9910415Y-15738922D01*
X9910415Y-15738922D02*
X9910415Y-15843684D01*
X10300891Y-15634160D02*
X10129463Y-15891303D01*
X10558034Y-15643684D02*
X10577082Y-15643684D01*
X10577082Y-15643684D02*
X10596129Y-15653208D01*
X10596129Y-15653208D02*
X10605653Y-15662731D01*
X10605653Y-15662731D02*
X10615177Y-15681779D01*
X10615177Y-15681779D02*
X10624701Y-15719874D01*
X10624701Y-15719874D02*
X10624701Y-15767493D01*
X10624701Y-15767493D02*
X10615177Y-15805588D01*
X10615177Y-15805588D02*
X10605653Y-15824636D01*
X10605653Y-15824636D02*
X10596129Y-15834160D01*
X10596129Y-15834160D02*
X10577082Y-15843684D01*
X10577082Y-15843684D02*
X10558034Y-15843684D01*
X10558034Y-15843684D02*
X10538987Y-15834160D01*
X10538987Y-15834160D02*
X10529463Y-15824636D01*
X10529463Y-15824636D02*
X10519939Y-15805588D01*
X10519939Y-15805588D02*
X10510415Y-15767493D01*
X10510415Y-15767493D02*
X10510415Y-15719874D01*
X10510415Y-15719874D02*
X10519939Y-15681779D01*
X10519939Y-15681779D02*
X10529463Y-15662731D01*
X10529463Y-15662731D02*
X10538987Y-15653208D01*
X10538987Y-15653208D02*
X10558034Y-15643684D01*
X10710415Y-15824636D02*
X10719939Y-15834160D01*
X10719939Y-15834160D02*
X10710415Y-15843684D01*
X10710415Y-15843684D02*
X10700891Y-15834160D01*
X10700891Y-15834160D02*
X10710415Y-15824636D01*
X10710415Y-15824636D02*
X10710415Y-15843684D01*
X10843748Y-15643684D02*
X10862796Y-15643684D01*
X10862796Y-15643684D02*
X10881844Y-15653208D01*
X10881844Y-15653208D02*
X10891368Y-15662731D01*
X10891368Y-15662731D02*
X10900891Y-15681779D01*
X10900891Y-15681779D02*
X10910415Y-15719874D01*
X10910415Y-15719874D02*
X10910415Y-15767493D01*
X10910415Y-15767493D02*
X10900891Y-15805588D01*
X10900891Y-15805588D02*
X10891368Y-15824636D01*
X10891368Y-15824636D02*
X10881844Y-15834160D01*
X10881844Y-15834160D02*
X10862796Y-15843684D01*
X10862796Y-15843684D02*
X10843748Y-15843684D01*
X10843748Y-15843684D02*
X10824701Y-15834160D01*
X10824701Y-15834160D02*
X10815177Y-15824636D01*
X10815177Y-15824636D02*
X10805653Y-15805588D01*
X10805653Y-15805588D02*
X10796129Y-15767493D01*
X10796129Y-15767493D02*
X10796129Y-15719874D01*
X10796129Y-15719874D02*
X10805653Y-15681779D01*
X10805653Y-15681779D02*
X10815177Y-15662731D01*
X10815177Y-15662731D02*
X10824701Y-15653208D01*
X10824701Y-15653208D02*
X10843748Y-15643684D01*
X10977082Y-15643684D02*
X11100891Y-15643684D01*
X11100891Y-15643684D02*
X11034225Y-15719874D01*
X11034225Y-15719874D02*
X11062796Y-15719874D01*
X11062796Y-15719874D02*
X11081844Y-15729398D01*
X11081844Y-15729398D02*
X11091368Y-15738922D01*
X11091368Y-15738922D02*
X11100891Y-15757969D01*
X11100891Y-15757969D02*
X11100891Y-15805588D01*
X11100891Y-15805588D02*
X11091368Y-15824636D01*
X11091368Y-15824636D02*
X11081844Y-15834160D01*
X11081844Y-15834160D02*
X11062796Y-15843684D01*
X11062796Y-15843684D02*
X11005653Y-15843684D01*
X11005653Y-15843684D02*
X10986606Y-15834160D01*
X10986606Y-15834160D02*
X10977082Y-15824636D01*
X11196129Y-15843684D02*
X11234225Y-15843684D01*
X11234225Y-15843684D02*
X11253272Y-15834160D01*
X11253272Y-15834160D02*
X11262796Y-15824636D01*
X11262796Y-15824636D02*
X11281844Y-15796065D01*
X11281844Y-15796065D02*
X11291367Y-15757969D01*
X11291367Y-15757969D02*
X11291367Y-15681779D01*
X11291367Y-15681779D02*
X11281844Y-15662731D01*
X11281844Y-15662731D02*
X11272320Y-15653208D01*
X11272320Y-15653208D02*
X11253272Y-15643684D01*
X11253272Y-15643684D02*
X11215177Y-15643684D01*
X11215177Y-15643684D02*
X11196129Y-15653208D01*
X11196129Y-15653208D02*
X11186606Y-15662731D01*
X11186606Y-15662731D02*
X11177082Y-15681779D01*
X11177082Y-15681779D02*
X11177082Y-15729398D01*
X11177082Y-15729398D02*
X11186606Y-15748446D01*
X11186606Y-15748446D02*
X11196129Y-15757969D01*
X11196129Y-15757969D02*
X11215177Y-15767493D01*
X11215177Y-15767493D02*
X11253272Y-15767493D01*
X11253272Y-15767493D02*
X11272320Y-15757969D01*
X11272320Y-15757969D02*
X11281844Y-15748446D01*
X11281844Y-15748446D02*
X11291367Y-15729398D01*
X11462796Y-15710350D02*
X11462796Y-15843684D01*
X11415177Y-15634160D02*
X11367558Y-15777017D01*
X11367558Y-15777017D02*
X11491367Y-15777017D01*
X11558034Y-15643684D02*
X11558034Y-15681779D01*
X11634225Y-15643684D02*
X11634225Y-15681779D01*
X11929463Y-15919874D02*
X11919939Y-15910350D01*
X11919939Y-15910350D02*
X11900891Y-15881779D01*
X11900891Y-15881779D02*
X11891368Y-15862731D01*
X11891368Y-15862731D02*
X11881844Y-15834160D01*
X11881844Y-15834160D02*
X11872320Y-15786541D01*
X11872320Y-15786541D02*
X11872320Y-15748446D01*
X11872320Y-15748446D02*
X11881844Y-15700827D01*
X11881844Y-15700827D02*
X11891368Y-15672255D01*
X11891368Y-15672255D02*
X11900891Y-15653208D01*
X11900891Y-15653208D02*
X11919939Y-15624636D01*
X11919939Y-15624636D02*
X11929463Y-15615112D01*
X11986606Y-15643684D02*
X12110415Y-15643684D01*
X12110415Y-15643684D02*
X12043748Y-15719874D01*
X12043748Y-15719874D02*
X12072320Y-15719874D01*
X12072320Y-15719874D02*
X12091368Y-15729398D01*
X12091368Y-15729398D02*
X12100891Y-15738922D01*
X12100891Y-15738922D02*
X12110415Y-15757969D01*
X12110415Y-15757969D02*
X12110415Y-15805588D01*
X12110415Y-15805588D02*
X12100891Y-15824636D01*
X12100891Y-15824636D02*
X12091368Y-15834160D01*
X12091368Y-15834160D02*
X12072320Y-15843684D01*
X12072320Y-15843684D02*
X12015177Y-15843684D01*
X12015177Y-15843684D02*
X11996129Y-15834160D01*
X11996129Y-15834160D02*
X11986606Y-15824636D01*
X12224701Y-15729398D02*
X12205653Y-15719874D01*
X12205653Y-15719874D02*
X12196129Y-15710350D01*
X12196129Y-15710350D02*
X12186606Y-15691303D01*
X12186606Y-15691303D02*
X12186606Y-15681779D01*
X12186606Y-15681779D02*
X12196129Y-15662731D01*
X12196129Y-15662731D02*
X12205653Y-15653208D01*
X12205653Y-15653208D02*
X12224701Y-15643684D01*
X12224701Y-15643684D02*
X12262796Y-15643684D01*
X12262796Y-15643684D02*
X12281844Y-15653208D01*
X12281844Y-15653208D02*
X12291368Y-15662731D01*
X12291368Y-15662731D02*
X12300891Y-15681779D01*
X12300891Y-15681779D02*
X12300891Y-15691303D01*
X12300891Y-15691303D02*
X12291368Y-15710350D01*
X12291368Y-15710350D02*
X12281844Y-15719874D01*
X12281844Y-15719874D02*
X12262796Y-15729398D01*
X12262796Y-15729398D02*
X12224701Y-15729398D01*
X12224701Y-15729398D02*
X12205653Y-15738922D01*
X12205653Y-15738922D02*
X12196129Y-15748446D01*
X12196129Y-15748446D02*
X12186606Y-15767493D01*
X12186606Y-15767493D02*
X12186606Y-15805588D01*
X12186606Y-15805588D02*
X12196129Y-15824636D01*
X12196129Y-15824636D02*
X12205653Y-15834160D01*
X12205653Y-15834160D02*
X12224701Y-15843684D01*
X12224701Y-15843684D02*
X12262796Y-15843684D01*
X12262796Y-15843684D02*
X12281844Y-15834160D01*
X12281844Y-15834160D02*
X12291368Y-15824636D01*
X12291368Y-15824636D02*
X12300891Y-15805588D01*
X12300891Y-15805588D02*
X12300891Y-15767493D01*
X12300891Y-15767493D02*
X12291368Y-15748446D01*
X12291368Y-15748446D02*
X12281844Y-15738922D01*
X12281844Y-15738922D02*
X12262796Y-15729398D01*
X12538987Y-15843684D02*
X12538987Y-15643684D01*
X12624701Y-15843684D02*
X12624701Y-15738922D01*
X12624701Y-15738922D02*
X12615177Y-15719874D01*
X12615177Y-15719874D02*
X12596130Y-15710350D01*
X12596130Y-15710350D02*
X12567558Y-15710350D01*
X12567558Y-15710350D02*
X12548510Y-15719874D01*
X12548510Y-15719874D02*
X12538987Y-15729398D01*
X12748510Y-15843684D02*
X12729463Y-15834160D01*
X12729463Y-15834160D02*
X12719939Y-15824636D01*
X12719939Y-15824636D02*
X12710415Y-15805588D01*
X12710415Y-15805588D02*
X12710415Y-15748446D01*
X12710415Y-15748446D02*
X12719939Y-15729398D01*
X12719939Y-15729398D02*
X12729463Y-15719874D01*
X12729463Y-15719874D02*
X12748510Y-15710350D01*
X12748510Y-15710350D02*
X12777082Y-15710350D01*
X12777082Y-15710350D02*
X12796130Y-15719874D01*
X12796130Y-15719874D02*
X12805653Y-15729398D01*
X12805653Y-15729398D02*
X12815177Y-15748446D01*
X12815177Y-15748446D02*
X12815177Y-15805588D01*
X12815177Y-15805588D02*
X12805653Y-15824636D01*
X12805653Y-15824636D02*
X12796130Y-15834160D01*
X12796130Y-15834160D02*
X12777082Y-15843684D01*
X12777082Y-15843684D02*
X12748510Y-15843684D01*
X12929463Y-15843684D02*
X12910415Y-15834160D01*
X12910415Y-15834160D02*
X12900891Y-15815112D01*
X12900891Y-15815112D02*
X12900891Y-15643684D01*
X13081844Y-15834160D02*
X13062796Y-15843684D01*
X13062796Y-15843684D02*
X13024701Y-15843684D01*
X13024701Y-15843684D02*
X13005653Y-15834160D01*
X13005653Y-15834160D02*
X12996130Y-15815112D01*
X12996130Y-15815112D02*
X12996130Y-15738922D01*
X12996130Y-15738922D02*
X13005653Y-15719874D01*
X13005653Y-15719874D02*
X13024701Y-15710350D01*
X13024701Y-15710350D02*
X13062796Y-15710350D01*
X13062796Y-15710350D02*
X13081844Y-15719874D01*
X13081844Y-15719874D02*
X13091368Y-15738922D01*
X13091368Y-15738922D02*
X13091368Y-15757969D01*
X13091368Y-15757969D02*
X12996130Y-15777017D01*
X13167558Y-15834160D02*
X13186606Y-15843684D01*
X13186606Y-15843684D02*
X13224701Y-15843684D01*
X13224701Y-15843684D02*
X13243749Y-15834160D01*
X13243749Y-15834160D02*
X13253272Y-15815112D01*
X13253272Y-15815112D02*
X13253272Y-15805588D01*
X13253272Y-15805588D02*
X13243749Y-15786541D01*
X13243749Y-15786541D02*
X13224701Y-15777017D01*
X13224701Y-15777017D02*
X13196130Y-15777017D01*
X13196130Y-15777017D02*
X13177082Y-15767493D01*
X13177082Y-15767493D02*
X13167558Y-15748446D01*
X13167558Y-15748446D02*
X13167558Y-15738922D01*
X13167558Y-15738922D02*
X13177082Y-15719874D01*
X13177082Y-15719874D02*
X13196130Y-15710350D01*
X13196130Y-15710350D02*
X13224701Y-15710350D01*
X13224701Y-15710350D02*
X13243749Y-15719874D01*
X13319939Y-15919874D02*
X13329463Y-15910350D01*
X13329463Y-15910350D02*
X13348511Y-15881779D01*
X13348511Y-15881779D02*
X13358034Y-15862731D01*
X13358034Y-15862731D02*
X13367558Y-15834160D01*
X13367558Y-15834160D02*
X13377082Y-15786541D01*
X13377082Y-15786541D02*
X13377082Y-15748446D01*
X13377082Y-15748446D02*
X13367558Y-15700827D01*
X13367558Y-15700827D02*
X13358034Y-15672255D01*
X13358034Y-15672255D02*
X13348511Y-15653208D01*
X13348511Y-15653208D02*
X13329463Y-15624636D01*
X13329463Y-15624636D02*
X13319939Y-15615112D01*
D16*
X8244400Y-15961200D02*
X8354400Y-16071200D01*
X8354400Y-15961200D02*
X8244400Y-16071200D01*
X8354400Y-16016200D02*
G75*
G03*
X8354400Y-16016200I-55000J0D01*
G01*
D10*
X8719939Y-16107684D02*
X8605653Y-16107684D01*
X8662796Y-16107684D02*
X8662796Y-15907684D01*
X8662796Y-15907684D02*
X8643748Y-15936255D01*
X8643748Y-15936255D02*
X8624701Y-15955303D01*
X8624701Y-15955303D02*
X8605653Y-15964827D01*
X8805653Y-16088636D02*
X8815177Y-16098160D01*
X8815177Y-16098160D02*
X8805653Y-16107684D01*
X8805653Y-16107684D02*
X8796129Y-16098160D01*
X8796129Y-16098160D02*
X8805653Y-16088636D01*
X8805653Y-16088636D02*
X8805653Y-16107684D01*
X9005653Y-16107684D02*
X8891367Y-16107684D01*
X8948510Y-16107684D02*
X8948510Y-15907684D01*
X8948510Y-15907684D02*
X8929463Y-15936255D01*
X8929463Y-15936255D02*
X8910415Y-15955303D01*
X8910415Y-15955303D02*
X8891367Y-15964827D01*
X9129463Y-15907684D02*
X9148510Y-15907684D01*
X9148510Y-15907684D02*
X9167558Y-15917208D01*
X9167558Y-15917208D02*
X9177082Y-15926731D01*
X9177082Y-15926731D02*
X9186605Y-15945779D01*
X9186605Y-15945779D02*
X9196129Y-15983874D01*
X9196129Y-15983874D02*
X9196129Y-16031493D01*
X9196129Y-16031493D02*
X9186605Y-16069588D01*
X9186605Y-16069588D02*
X9177082Y-16088636D01*
X9177082Y-16088636D02*
X9167558Y-16098160D01*
X9167558Y-16098160D02*
X9148510Y-16107684D01*
X9148510Y-16107684D02*
X9129463Y-16107684D01*
X9129463Y-16107684D02*
X9110415Y-16098160D01*
X9110415Y-16098160D02*
X9100891Y-16088636D01*
X9100891Y-16088636D02*
X9091367Y-16069588D01*
X9091367Y-16069588D02*
X9081844Y-16031493D01*
X9081844Y-16031493D02*
X9081844Y-15983874D01*
X9081844Y-15983874D02*
X9091367Y-15945779D01*
X9091367Y-15945779D02*
X9100891Y-15926731D01*
X9100891Y-15926731D02*
X9110415Y-15917208D01*
X9110415Y-15917208D02*
X9129463Y-15907684D01*
X9319939Y-15907684D02*
X9338986Y-15907684D01*
X9338986Y-15907684D02*
X9358034Y-15917208D01*
X9358034Y-15917208D02*
X9367558Y-15926731D01*
X9367558Y-15926731D02*
X9377082Y-15945779D01*
X9377082Y-15945779D02*
X9386605Y-15983874D01*
X9386605Y-15983874D02*
X9386605Y-16031493D01*
X9386605Y-16031493D02*
X9377082Y-16069588D01*
X9377082Y-16069588D02*
X9367558Y-16088636D01*
X9367558Y-16088636D02*
X9358034Y-16098160D01*
X9358034Y-16098160D02*
X9338986Y-16107684D01*
X9338986Y-16107684D02*
X9319939Y-16107684D01*
X9319939Y-16107684D02*
X9300891Y-16098160D01*
X9300891Y-16098160D02*
X9291367Y-16088636D01*
X9291367Y-16088636D02*
X9281844Y-16069588D01*
X9281844Y-16069588D02*
X9272320Y-16031493D01*
X9272320Y-16031493D02*
X9272320Y-15983874D01*
X9272320Y-15983874D02*
X9281844Y-15945779D01*
X9281844Y-15945779D02*
X9291367Y-15926731D01*
X9291367Y-15926731D02*
X9300891Y-15917208D01*
X9300891Y-15917208D02*
X9319939Y-15907684D01*
X9472320Y-16107684D02*
X9472320Y-15974350D01*
X9472320Y-15993398D02*
X9481844Y-15983874D01*
X9481844Y-15983874D02*
X9500891Y-15974350D01*
X9500891Y-15974350D02*
X9529463Y-15974350D01*
X9529463Y-15974350D02*
X9548510Y-15983874D01*
X9548510Y-15983874D02*
X9558034Y-16002922D01*
X9558034Y-16002922D02*
X9558034Y-16107684D01*
X9558034Y-16002922D02*
X9567558Y-15983874D01*
X9567558Y-15983874D02*
X9586605Y-15974350D01*
X9586605Y-15974350D02*
X9615177Y-15974350D01*
X9615177Y-15974350D02*
X9634225Y-15983874D01*
X9634225Y-15983874D02*
X9643748Y-16002922D01*
X9643748Y-16002922D02*
X9643748Y-16107684D01*
X9738986Y-16107684D02*
X9738986Y-15974350D01*
X9738986Y-15993398D02*
X9748510Y-15983874D01*
X9748510Y-15983874D02*
X9767558Y-15974350D01*
X9767558Y-15974350D02*
X9796129Y-15974350D01*
X9796129Y-15974350D02*
X9815177Y-15983874D01*
X9815177Y-15983874D02*
X9824701Y-16002922D01*
X9824701Y-16002922D02*
X9824701Y-16107684D01*
X9824701Y-16002922D02*
X9834225Y-15983874D01*
X9834225Y-15983874D02*
X9853272Y-15974350D01*
X9853272Y-15974350D02*
X9881844Y-15974350D01*
X9881844Y-15974350D02*
X9900891Y-15983874D01*
X9900891Y-15983874D02*
X9910415Y-16002922D01*
X9910415Y-16002922D02*
X9910415Y-16107684D01*
X10300891Y-15898160D02*
X10129463Y-16155303D01*
X10558034Y-15907684D02*
X10577082Y-15907684D01*
X10577082Y-15907684D02*
X10596129Y-15917208D01*
X10596129Y-15917208D02*
X10605653Y-15926731D01*
X10605653Y-15926731D02*
X10615177Y-15945779D01*
X10615177Y-15945779D02*
X10624701Y-15983874D01*
X10624701Y-15983874D02*
X10624701Y-16031493D01*
X10624701Y-16031493D02*
X10615177Y-16069588D01*
X10615177Y-16069588D02*
X10605653Y-16088636D01*
X10605653Y-16088636D02*
X10596129Y-16098160D01*
X10596129Y-16098160D02*
X10577082Y-16107684D01*
X10577082Y-16107684D02*
X10558034Y-16107684D01*
X10558034Y-16107684D02*
X10538987Y-16098160D01*
X10538987Y-16098160D02*
X10529463Y-16088636D01*
X10529463Y-16088636D02*
X10519939Y-16069588D01*
X10519939Y-16069588D02*
X10510415Y-16031493D01*
X10510415Y-16031493D02*
X10510415Y-15983874D01*
X10510415Y-15983874D02*
X10519939Y-15945779D01*
X10519939Y-15945779D02*
X10529463Y-15926731D01*
X10529463Y-15926731D02*
X10538987Y-15917208D01*
X10538987Y-15917208D02*
X10558034Y-15907684D01*
X10710415Y-16088636D02*
X10719939Y-16098160D01*
X10719939Y-16098160D02*
X10710415Y-16107684D01*
X10710415Y-16107684D02*
X10700891Y-16098160D01*
X10700891Y-16098160D02*
X10710415Y-16088636D01*
X10710415Y-16088636D02*
X10710415Y-16107684D01*
X10843748Y-15907684D02*
X10862796Y-15907684D01*
X10862796Y-15907684D02*
X10881844Y-15917208D01*
X10881844Y-15917208D02*
X10891368Y-15926731D01*
X10891368Y-15926731D02*
X10900891Y-15945779D01*
X10900891Y-15945779D02*
X10910415Y-15983874D01*
X10910415Y-15983874D02*
X10910415Y-16031493D01*
X10910415Y-16031493D02*
X10900891Y-16069588D01*
X10900891Y-16069588D02*
X10891368Y-16088636D01*
X10891368Y-16088636D02*
X10881844Y-16098160D01*
X10881844Y-16098160D02*
X10862796Y-16107684D01*
X10862796Y-16107684D02*
X10843748Y-16107684D01*
X10843748Y-16107684D02*
X10824701Y-16098160D01*
X10824701Y-16098160D02*
X10815177Y-16088636D01*
X10815177Y-16088636D02*
X10805653Y-16069588D01*
X10805653Y-16069588D02*
X10796129Y-16031493D01*
X10796129Y-16031493D02*
X10796129Y-15983874D01*
X10796129Y-15983874D02*
X10805653Y-15945779D01*
X10805653Y-15945779D02*
X10815177Y-15926731D01*
X10815177Y-15926731D02*
X10824701Y-15917208D01*
X10824701Y-15917208D02*
X10843748Y-15907684D01*
X11081844Y-15974350D02*
X11081844Y-16107684D01*
X11034225Y-15898160D02*
X10986606Y-16041017D01*
X10986606Y-16041017D02*
X11110415Y-16041017D01*
X11167558Y-15907684D02*
X11291367Y-15907684D01*
X11291367Y-15907684D02*
X11224701Y-15983874D01*
X11224701Y-15983874D02*
X11253272Y-15983874D01*
X11253272Y-15983874D02*
X11272320Y-15993398D01*
X11272320Y-15993398D02*
X11281844Y-16002922D01*
X11281844Y-16002922D02*
X11291367Y-16021969D01*
X11291367Y-16021969D02*
X11291367Y-16069588D01*
X11291367Y-16069588D02*
X11281844Y-16088636D01*
X11281844Y-16088636D02*
X11272320Y-16098160D01*
X11272320Y-16098160D02*
X11253272Y-16107684D01*
X11253272Y-16107684D02*
X11196129Y-16107684D01*
X11196129Y-16107684D02*
X11177082Y-16098160D01*
X11177082Y-16098160D02*
X11167558Y-16088636D01*
X11358034Y-15907684D02*
X11481844Y-15907684D01*
X11481844Y-15907684D02*
X11415177Y-15983874D01*
X11415177Y-15983874D02*
X11443748Y-15983874D01*
X11443748Y-15983874D02*
X11462796Y-15993398D01*
X11462796Y-15993398D02*
X11472320Y-16002922D01*
X11472320Y-16002922D02*
X11481844Y-16021969D01*
X11481844Y-16021969D02*
X11481844Y-16069588D01*
X11481844Y-16069588D02*
X11472320Y-16088636D01*
X11472320Y-16088636D02*
X11462796Y-16098160D01*
X11462796Y-16098160D02*
X11443748Y-16107684D01*
X11443748Y-16107684D02*
X11386606Y-16107684D01*
X11386606Y-16107684D02*
X11367558Y-16098160D01*
X11367558Y-16098160D02*
X11358034Y-16088636D01*
X11558034Y-15907684D02*
X11558034Y-15945779D01*
X11634225Y-15907684D02*
X11634225Y-15945779D01*
X11929463Y-16183874D02*
X11919939Y-16174350D01*
X11919939Y-16174350D02*
X11900891Y-16145779D01*
X11900891Y-16145779D02*
X11891368Y-16126731D01*
X11891368Y-16126731D02*
X11881844Y-16098160D01*
X11881844Y-16098160D02*
X11872320Y-16050541D01*
X11872320Y-16050541D02*
X11872320Y-16012446D01*
X11872320Y-16012446D02*
X11881844Y-15964827D01*
X11881844Y-15964827D02*
X11891368Y-15936255D01*
X11891368Y-15936255D02*
X11900891Y-15917208D01*
X11900891Y-15917208D02*
X11919939Y-15888636D01*
X11919939Y-15888636D02*
X11929463Y-15879112D01*
X12091368Y-15974350D02*
X12091368Y-16107684D01*
X12043748Y-15898160D02*
X11996129Y-16041017D01*
X11996129Y-16041017D02*
X12119939Y-16041017D01*
X12348510Y-16107684D02*
X12348510Y-15907684D01*
X12434225Y-16107684D02*
X12434225Y-16002922D01*
X12434225Y-16002922D02*
X12424701Y-15983874D01*
X12424701Y-15983874D02*
X12405653Y-15974350D01*
X12405653Y-15974350D02*
X12377082Y-15974350D01*
X12377082Y-15974350D02*
X12358034Y-15983874D01*
X12358034Y-15983874D02*
X12348510Y-15993398D01*
X12558034Y-16107684D02*
X12538987Y-16098160D01*
X12538987Y-16098160D02*
X12529463Y-16088636D01*
X12529463Y-16088636D02*
X12519939Y-16069588D01*
X12519939Y-16069588D02*
X12519939Y-16012446D01*
X12519939Y-16012446D02*
X12529463Y-15993398D01*
X12529463Y-15993398D02*
X12538987Y-15983874D01*
X12538987Y-15983874D02*
X12558034Y-15974350D01*
X12558034Y-15974350D02*
X12586606Y-15974350D01*
X12586606Y-15974350D02*
X12605653Y-15983874D01*
X12605653Y-15983874D02*
X12615177Y-15993398D01*
X12615177Y-15993398D02*
X12624701Y-16012446D01*
X12624701Y-16012446D02*
X12624701Y-16069588D01*
X12624701Y-16069588D02*
X12615177Y-16088636D01*
X12615177Y-16088636D02*
X12605653Y-16098160D01*
X12605653Y-16098160D02*
X12586606Y-16107684D01*
X12586606Y-16107684D02*
X12558034Y-16107684D01*
X12738987Y-16107684D02*
X12719939Y-16098160D01*
X12719939Y-16098160D02*
X12710415Y-16079112D01*
X12710415Y-16079112D02*
X12710415Y-15907684D01*
X12891368Y-16098160D02*
X12872320Y-16107684D01*
X12872320Y-16107684D02*
X12834225Y-16107684D01*
X12834225Y-16107684D02*
X12815177Y-16098160D01*
X12815177Y-16098160D02*
X12805653Y-16079112D01*
X12805653Y-16079112D02*
X12805653Y-16002922D01*
X12805653Y-16002922D02*
X12815177Y-15983874D01*
X12815177Y-15983874D02*
X12834225Y-15974350D01*
X12834225Y-15974350D02*
X12872320Y-15974350D01*
X12872320Y-15974350D02*
X12891368Y-15983874D01*
X12891368Y-15983874D02*
X12900891Y-16002922D01*
X12900891Y-16002922D02*
X12900891Y-16021969D01*
X12900891Y-16021969D02*
X12805653Y-16041017D01*
X12977082Y-16098160D02*
X12996130Y-16107684D01*
X12996130Y-16107684D02*
X13034225Y-16107684D01*
X13034225Y-16107684D02*
X13053272Y-16098160D01*
X13053272Y-16098160D02*
X13062796Y-16079112D01*
X13062796Y-16079112D02*
X13062796Y-16069588D01*
X13062796Y-16069588D02*
X13053272Y-16050541D01*
X13053272Y-16050541D02*
X13034225Y-16041017D01*
X13034225Y-16041017D02*
X13005653Y-16041017D01*
X13005653Y-16041017D02*
X12986606Y-16031493D01*
X12986606Y-16031493D02*
X12977082Y-16012446D01*
X12977082Y-16012446D02*
X12977082Y-16002922D01*
X12977082Y-16002922D02*
X12986606Y-15983874D01*
X12986606Y-15983874D02*
X13005653Y-15974350D01*
X13005653Y-15974350D02*
X13034225Y-15974350D01*
X13034225Y-15974350D02*
X13053272Y-15983874D01*
X13129463Y-16183874D02*
X13138987Y-16174350D01*
X13138987Y-16174350D02*
X13158034Y-16145779D01*
X13158034Y-16145779D02*
X13167558Y-16126731D01*
X13167558Y-16126731D02*
X13177082Y-16098160D01*
X13177082Y-16098160D02*
X13186606Y-16050541D01*
X13186606Y-16050541D02*
X13186606Y-16012446D01*
X13186606Y-16012446D02*
X13177082Y-15964827D01*
X13177082Y-15964827D02*
X13167558Y-15936255D01*
X13167558Y-15936255D02*
X13158034Y-15917208D01*
X13158034Y-15917208D02*
X13138987Y-15888636D01*
X13138987Y-15888636D02*
X13129463Y-15879112D01*
X8154400Y-16180200D02*
X8354400Y-16380200D01*
X8354400Y-16180200D02*
X8154400Y-16380200D01*
X8254400Y-16180200D02*
X8254400Y-16380200D01*
X8154400Y-16280200D02*
X8354400Y-16280200D01*
X8596129Y-16171684D02*
X8719939Y-16171684D01*
X8719939Y-16171684D02*
X8653272Y-16247874D01*
X8653272Y-16247874D02*
X8681844Y-16247874D01*
X8681844Y-16247874D02*
X8700891Y-16257398D01*
X8700891Y-16257398D02*
X8710415Y-16266922D01*
X8710415Y-16266922D02*
X8719939Y-16285969D01*
X8719939Y-16285969D02*
X8719939Y-16333588D01*
X8719939Y-16333588D02*
X8710415Y-16352636D01*
X8710415Y-16352636D02*
X8700891Y-16362160D01*
X8700891Y-16362160D02*
X8681844Y-16371684D01*
X8681844Y-16371684D02*
X8624701Y-16371684D01*
X8624701Y-16371684D02*
X8605653Y-16362160D01*
X8605653Y-16362160D02*
X8596129Y-16352636D01*
X8805653Y-16352636D02*
X8815177Y-16362160D01*
X8815177Y-16362160D02*
X8805653Y-16371684D01*
X8805653Y-16371684D02*
X8796129Y-16362160D01*
X8796129Y-16362160D02*
X8805653Y-16352636D01*
X8805653Y-16352636D02*
X8805653Y-16371684D01*
X8891367Y-16190731D02*
X8900891Y-16181208D01*
X8900891Y-16181208D02*
X8919939Y-16171684D01*
X8919939Y-16171684D02*
X8967558Y-16171684D01*
X8967558Y-16171684D02*
X8986605Y-16181208D01*
X8986605Y-16181208D02*
X8996129Y-16190731D01*
X8996129Y-16190731D02*
X9005653Y-16209779D01*
X9005653Y-16209779D02*
X9005653Y-16228827D01*
X9005653Y-16228827D02*
X8996129Y-16257398D01*
X8996129Y-16257398D02*
X8881844Y-16371684D01*
X8881844Y-16371684D02*
X9005653Y-16371684D01*
X9129463Y-16171684D02*
X9148510Y-16171684D01*
X9148510Y-16171684D02*
X9167558Y-16181208D01*
X9167558Y-16181208D02*
X9177082Y-16190731D01*
X9177082Y-16190731D02*
X9186605Y-16209779D01*
X9186605Y-16209779D02*
X9196129Y-16247874D01*
X9196129Y-16247874D02*
X9196129Y-16295493D01*
X9196129Y-16295493D02*
X9186605Y-16333588D01*
X9186605Y-16333588D02*
X9177082Y-16352636D01*
X9177082Y-16352636D02*
X9167558Y-16362160D01*
X9167558Y-16362160D02*
X9148510Y-16371684D01*
X9148510Y-16371684D02*
X9129463Y-16371684D01*
X9129463Y-16371684D02*
X9110415Y-16362160D01*
X9110415Y-16362160D02*
X9100891Y-16352636D01*
X9100891Y-16352636D02*
X9091367Y-16333588D01*
X9091367Y-16333588D02*
X9081844Y-16295493D01*
X9081844Y-16295493D02*
X9081844Y-16247874D01*
X9081844Y-16247874D02*
X9091367Y-16209779D01*
X9091367Y-16209779D02*
X9100891Y-16190731D01*
X9100891Y-16190731D02*
X9110415Y-16181208D01*
X9110415Y-16181208D02*
X9129463Y-16171684D01*
X9319939Y-16171684D02*
X9338986Y-16171684D01*
X9338986Y-16171684D02*
X9358034Y-16181208D01*
X9358034Y-16181208D02*
X9367558Y-16190731D01*
X9367558Y-16190731D02*
X9377082Y-16209779D01*
X9377082Y-16209779D02*
X9386605Y-16247874D01*
X9386605Y-16247874D02*
X9386605Y-16295493D01*
X9386605Y-16295493D02*
X9377082Y-16333588D01*
X9377082Y-16333588D02*
X9367558Y-16352636D01*
X9367558Y-16352636D02*
X9358034Y-16362160D01*
X9358034Y-16362160D02*
X9338986Y-16371684D01*
X9338986Y-16371684D02*
X9319939Y-16371684D01*
X9319939Y-16371684D02*
X9300891Y-16362160D01*
X9300891Y-16362160D02*
X9291367Y-16352636D01*
X9291367Y-16352636D02*
X9281844Y-16333588D01*
X9281844Y-16333588D02*
X9272320Y-16295493D01*
X9272320Y-16295493D02*
X9272320Y-16247874D01*
X9272320Y-16247874D02*
X9281844Y-16209779D01*
X9281844Y-16209779D02*
X9291367Y-16190731D01*
X9291367Y-16190731D02*
X9300891Y-16181208D01*
X9300891Y-16181208D02*
X9319939Y-16171684D01*
X9472320Y-16371684D02*
X9472320Y-16238350D01*
X9472320Y-16257398D02*
X9481844Y-16247874D01*
X9481844Y-16247874D02*
X9500891Y-16238350D01*
X9500891Y-16238350D02*
X9529463Y-16238350D01*
X9529463Y-16238350D02*
X9548510Y-16247874D01*
X9548510Y-16247874D02*
X9558034Y-16266922D01*
X9558034Y-16266922D02*
X9558034Y-16371684D01*
X9558034Y-16266922D02*
X9567558Y-16247874D01*
X9567558Y-16247874D02*
X9586605Y-16238350D01*
X9586605Y-16238350D02*
X9615177Y-16238350D01*
X9615177Y-16238350D02*
X9634225Y-16247874D01*
X9634225Y-16247874D02*
X9643748Y-16266922D01*
X9643748Y-16266922D02*
X9643748Y-16371684D01*
X9738986Y-16371684D02*
X9738986Y-16238350D01*
X9738986Y-16257398D02*
X9748510Y-16247874D01*
X9748510Y-16247874D02*
X9767558Y-16238350D01*
X9767558Y-16238350D02*
X9796129Y-16238350D01*
X9796129Y-16238350D02*
X9815177Y-16247874D01*
X9815177Y-16247874D02*
X9824701Y-16266922D01*
X9824701Y-16266922D02*
X9824701Y-16371684D01*
X9824701Y-16266922D02*
X9834225Y-16247874D01*
X9834225Y-16247874D02*
X9853272Y-16238350D01*
X9853272Y-16238350D02*
X9881844Y-16238350D01*
X9881844Y-16238350D02*
X9900891Y-16247874D01*
X9900891Y-16247874D02*
X9910415Y-16266922D01*
X9910415Y-16266922D02*
X9910415Y-16371684D01*
X10300891Y-16162160D02*
X10129463Y-16419303D01*
X10558034Y-16171684D02*
X10577082Y-16171684D01*
X10577082Y-16171684D02*
X10596129Y-16181208D01*
X10596129Y-16181208D02*
X10605653Y-16190731D01*
X10605653Y-16190731D02*
X10615177Y-16209779D01*
X10615177Y-16209779D02*
X10624701Y-16247874D01*
X10624701Y-16247874D02*
X10624701Y-16295493D01*
X10624701Y-16295493D02*
X10615177Y-16333588D01*
X10615177Y-16333588D02*
X10605653Y-16352636D01*
X10605653Y-16352636D02*
X10596129Y-16362160D01*
X10596129Y-16362160D02*
X10577082Y-16371684D01*
X10577082Y-16371684D02*
X10558034Y-16371684D01*
X10558034Y-16371684D02*
X10538987Y-16362160D01*
X10538987Y-16362160D02*
X10529463Y-16352636D01*
X10529463Y-16352636D02*
X10519939Y-16333588D01*
X10519939Y-16333588D02*
X10510415Y-16295493D01*
X10510415Y-16295493D02*
X10510415Y-16247874D01*
X10510415Y-16247874D02*
X10519939Y-16209779D01*
X10519939Y-16209779D02*
X10529463Y-16190731D01*
X10529463Y-16190731D02*
X10538987Y-16181208D01*
X10538987Y-16181208D02*
X10558034Y-16171684D01*
X10710415Y-16352636D02*
X10719939Y-16362160D01*
X10719939Y-16362160D02*
X10710415Y-16371684D01*
X10710415Y-16371684D02*
X10700891Y-16362160D01*
X10700891Y-16362160D02*
X10710415Y-16352636D01*
X10710415Y-16352636D02*
X10710415Y-16371684D01*
X10910415Y-16371684D02*
X10796129Y-16371684D01*
X10853272Y-16371684D02*
X10853272Y-16171684D01*
X10853272Y-16171684D02*
X10834225Y-16200255D01*
X10834225Y-16200255D02*
X10815177Y-16219303D01*
X10815177Y-16219303D02*
X10796129Y-16228827D01*
X10986606Y-16190731D02*
X10996129Y-16181208D01*
X10996129Y-16181208D02*
X11015177Y-16171684D01*
X11015177Y-16171684D02*
X11062796Y-16171684D01*
X11062796Y-16171684D02*
X11081844Y-16181208D01*
X11081844Y-16181208D02*
X11091368Y-16190731D01*
X11091368Y-16190731D02*
X11100891Y-16209779D01*
X11100891Y-16209779D02*
X11100891Y-16228827D01*
X11100891Y-16228827D02*
X11091368Y-16257398D01*
X11091368Y-16257398D02*
X10977082Y-16371684D01*
X10977082Y-16371684D02*
X11100891Y-16371684D01*
X11272320Y-16171684D02*
X11234225Y-16171684D01*
X11234225Y-16171684D02*
X11215177Y-16181208D01*
X11215177Y-16181208D02*
X11205653Y-16190731D01*
X11205653Y-16190731D02*
X11186606Y-16219303D01*
X11186606Y-16219303D02*
X11177082Y-16257398D01*
X11177082Y-16257398D02*
X11177082Y-16333588D01*
X11177082Y-16333588D02*
X11186606Y-16352636D01*
X11186606Y-16352636D02*
X11196129Y-16362160D01*
X11196129Y-16362160D02*
X11215177Y-16371684D01*
X11215177Y-16371684D02*
X11253272Y-16371684D01*
X11253272Y-16371684D02*
X11272320Y-16362160D01*
X11272320Y-16362160D02*
X11281844Y-16352636D01*
X11281844Y-16352636D02*
X11291367Y-16333588D01*
X11291367Y-16333588D02*
X11291367Y-16285969D01*
X11291367Y-16285969D02*
X11281844Y-16266922D01*
X11281844Y-16266922D02*
X11272320Y-16257398D01*
X11272320Y-16257398D02*
X11253272Y-16247874D01*
X11253272Y-16247874D02*
X11215177Y-16247874D01*
X11215177Y-16247874D02*
X11196129Y-16257398D01*
X11196129Y-16257398D02*
X11186606Y-16266922D01*
X11186606Y-16266922D02*
X11177082Y-16285969D01*
X11415177Y-16171684D02*
X11434225Y-16171684D01*
X11434225Y-16171684D02*
X11453272Y-16181208D01*
X11453272Y-16181208D02*
X11462796Y-16190731D01*
X11462796Y-16190731D02*
X11472320Y-16209779D01*
X11472320Y-16209779D02*
X11481844Y-16247874D01*
X11481844Y-16247874D02*
X11481844Y-16295493D01*
X11481844Y-16295493D02*
X11472320Y-16333588D01*
X11472320Y-16333588D02*
X11462796Y-16352636D01*
X11462796Y-16352636D02*
X11453272Y-16362160D01*
X11453272Y-16362160D02*
X11434225Y-16371684D01*
X11434225Y-16371684D02*
X11415177Y-16371684D01*
X11415177Y-16371684D02*
X11396129Y-16362160D01*
X11396129Y-16362160D02*
X11386606Y-16352636D01*
X11386606Y-16352636D02*
X11377082Y-16333588D01*
X11377082Y-16333588D02*
X11367558Y-16295493D01*
X11367558Y-16295493D02*
X11367558Y-16247874D01*
X11367558Y-16247874D02*
X11377082Y-16209779D01*
X11377082Y-16209779D02*
X11386606Y-16190731D01*
X11386606Y-16190731D02*
X11396129Y-16181208D01*
X11396129Y-16181208D02*
X11415177Y-16171684D01*
X11558034Y-16171684D02*
X11558034Y-16209779D01*
X11634225Y-16171684D02*
X11634225Y-16209779D01*
X11929463Y-16447874D02*
X11919939Y-16438350D01*
X11919939Y-16438350D02*
X11900891Y-16409779D01*
X11900891Y-16409779D02*
X11891368Y-16390731D01*
X11891368Y-16390731D02*
X11881844Y-16362160D01*
X11881844Y-16362160D02*
X11872320Y-16314541D01*
X11872320Y-16314541D02*
X11872320Y-16276446D01*
X11872320Y-16276446D02*
X11881844Y-16228827D01*
X11881844Y-16228827D02*
X11891368Y-16200255D01*
X11891368Y-16200255D02*
X11900891Y-16181208D01*
X11900891Y-16181208D02*
X11919939Y-16152636D01*
X11919939Y-16152636D02*
X11929463Y-16143112D01*
X12091368Y-16238350D02*
X12091368Y-16371684D01*
X12043748Y-16162160D02*
X11996129Y-16305017D01*
X11996129Y-16305017D02*
X12119939Y-16305017D01*
X12348510Y-16371684D02*
X12348510Y-16171684D01*
X12434225Y-16371684D02*
X12434225Y-16266922D01*
X12434225Y-16266922D02*
X12424701Y-16247874D01*
X12424701Y-16247874D02*
X12405653Y-16238350D01*
X12405653Y-16238350D02*
X12377082Y-16238350D01*
X12377082Y-16238350D02*
X12358034Y-16247874D01*
X12358034Y-16247874D02*
X12348510Y-16257398D01*
X12558034Y-16371684D02*
X12538987Y-16362160D01*
X12538987Y-16362160D02*
X12529463Y-16352636D01*
X12529463Y-16352636D02*
X12519939Y-16333588D01*
X12519939Y-16333588D02*
X12519939Y-16276446D01*
X12519939Y-16276446D02*
X12529463Y-16257398D01*
X12529463Y-16257398D02*
X12538987Y-16247874D01*
X12538987Y-16247874D02*
X12558034Y-16238350D01*
X12558034Y-16238350D02*
X12586606Y-16238350D01*
X12586606Y-16238350D02*
X12605653Y-16247874D01*
X12605653Y-16247874D02*
X12615177Y-16257398D01*
X12615177Y-16257398D02*
X12624701Y-16276446D01*
X12624701Y-16276446D02*
X12624701Y-16333588D01*
X12624701Y-16333588D02*
X12615177Y-16352636D01*
X12615177Y-16352636D02*
X12605653Y-16362160D01*
X12605653Y-16362160D02*
X12586606Y-16371684D01*
X12586606Y-16371684D02*
X12558034Y-16371684D01*
X12738987Y-16371684D02*
X12719939Y-16362160D01*
X12719939Y-16362160D02*
X12710415Y-16343112D01*
X12710415Y-16343112D02*
X12710415Y-16171684D01*
X12891368Y-16362160D02*
X12872320Y-16371684D01*
X12872320Y-16371684D02*
X12834225Y-16371684D01*
X12834225Y-16371684D02*
X12815177Y-16362160D01*
X12815177Y-16362160D02*
X12805653Y-16343112D01*
X12805653Y-16343112D02*
X12805653Y-16266922D01*
X12805653Y-16266922D02*
X12815177Y-16247874D01*
X12815177Y-16247874D02*
X12834225Y-16238350D01*
X12834225Y-16238350D02*
X12872320Y-16238350D01*
X12872320Y-16238350D02*
X12891368Y-16247874D01*
X12891368Y-16247874D02*
X12900891Y-16266922D01*
X12900891Y-16266922D02*
X12900891Y-16285969D01*
X12900891Y-16285969D02*
X12805653Y-16305017D01*
X12977082Y-16362160D02*
X12996130Y-16371684D01*
X12996130Y-16371684D02*
X13034225Y-16371684D01*
X13034225Y-16371684D02*
X13053272Y-16362160D01*
X13053272Y-16362160D02*
X13062796Y-16343112D01*
X13062796Y-16343112D02*
X13062796Y-16333588D01*
X13062796Y-16333588D02*
X13053272Y-16314541D01*
X13053272Y-16314541D02*
X13034225Y-16305017D01*
X13034225Y-16305017D02*
X13005653Y-16305017D01*
X13005653Y-16305017D02*
X12986606Y-16295493D01*
X12986606Y-16295493D02*
X12977082Y-16276446D01*
X12977082Y-16276446D02*
X12977082Y-16266922D01*
X12977082Y-16266922D02*
X12986606Y-16247874D01*
X12986606Y-16247874D02*
X13005653Y-16238350D01*
X13005653Y-16238350D02*
X13034225Y-16238350D01*
X13034225Y-16238350D02*
X13053272Y-16247874D01*
X13129463Y-16447874D02*
X13138987Y-16438350D01*
X13138987Y-16438350D02*
X13158034Y-16409779D01*
X13158034Y-16409779D02*
X13167558Y-16390731D01*
X13167558Y-16390731D02*
X13177082Y-16362160D01*
X13177082Y-16362160D02*
X13186606Y-16314541D01*
X13186606Y-16314541D02*
X13186606Y-16276446D01*
X13186606Y-16276446D02*
X13177082Y-16228827D01*
X13177082Y-16228827D02*
X13167558Y-16200255D01*
X13167558Y-16200255D02*
X13158034Y-16181208D01*
X13158034Y-16181208D02*
X13138987Y-16152636D01*
X13138987Y-16152636D02*
X13129463Y-16143112D01*
M02*
