G04 #@! TF.GenerationSoftware,KiCad,Pcbnew,7.0.6*
G04 #@! TF.CreationDate,2023-08-07T17:45:37-04:00*
G04 #@! TF.ProjectId,3 - Quad Serial card v3,33202d20-5175-4616-9420-53657269616c,1*
G04 #@! TF.SameCoordinates,Original*
G04 #@! TF.FileFunction,Soldermask,Bot*
G04 #@! TF.FilePolarity,Negative*
%FSLAX46Y46*%
G04 Gerber Fmt 4.6, Leading zero omitted, Abs format (unit mm)*
G04 Created by KiCad (PCBNEW 7.0.6) date 2023-08-07 17:45:37*
%MOMM*%
%LPD*%
G01*
G04 APERTURE LIST*
%ADD10R,1.700000X1.700000*%
%ADD11O,1.700000X1.700000*%
%ADD12C,1.600000*%
%ADD13R,1.800000X1.800000*%
%ADD14C,1.800000*%
%ADD15O,1.600000X1.600000*%
%ADD16R,1.600000X1.600000*%
%ADD17R,1.780000X7.620000*%
%ADD18C,4.000000*%
%ADD19R,2.200000X2.200000*%
%ADD20O,2.200000X2.200000*%
G04 APERTURE END LIST*
D10*
X93980000Y-60960000D03*
D11*
X93980000Y-58420000D03*
X93980000Y-55880000D03*
X93980000Y-53340000D03*
D12*
X166370000Y-66040000D03*
X166370000Y-68540000D03*
X166370000Y-73660000D03*
X166370000Y-71160000D03*
X166370000Y-101640000D03*
X166370000Y-104140000D03*
D13*
X127000000Y-47275000D03*
D14*
X124460000Y-47275000D03*
D12*
X166370000Y-91440000D03*
X166370000Y-93940000D03*
D11*
X93980000Y-104140000D03*
X93980000Y-106680000D03*
X93980000Y-109220000D03*
X93980000Y-111760000D03*
X93980000Y-114300000D03*
D10*
X93980000Y-116840000D03*
D12*
X106660000Y-90805000D03*
X104160000Y-90805000D03*
X98425000Y-119400000D03*
X98425000Y-121900000D03*
D10*
X86995000Y-76200000D03*
D11*
X89535000Y-76200000D03*
X86995000Y-78740000D03*
X89535000Y-78740000D03*
D13*
X101600000Y-47275000D03*
D14*
X99060000Y-47275000D03*
D12*
X106660000Y-57785000D03*
X104160000Y-57785000D03*
D15*
X101508400Y-116840000D03*
X109128400Y-116840000D03*
X109128400Y-124460000D03*
D16*
X101508400Y-124460000D03*
D13*
X147335000Y-47275000D03*
D14*
X144795000Y-47275000D03*
D16*
X144770000Y-124450000D03*
D15*
X147310000Y-124450000D03*
X149850000Y-124450000D03*
X152390000Y-124450000D03*
X154930000Y-124450000D03*
X157470000Y-124450000D03*
X160010000Y-124450000D03*
X162550000Y-124450000D03*
X162550000Y-116830000D03*
X160010000Y-116830000D03*
X157470000Y-116830000D03*
X154930000Y-116830000D03*
X152390000Y-116830000D03*
X149850000Y-116830000D03*
X147310000Y-116830000D03*
X144770000Y-116830000D03*
D13*
X142255000Y-47275000D03*
D14*
X139715000Y-47275000D03*
X160020000Y-47275000D03*
D13*
X162560000Y-47275000D03*
D12*
X140990000Y-57785000D03*
X143490000Y-57785000D03*
D15*
X162570000Y-91430000D03*
X162570000Y-93970000D03*
X162570000Y-96510000D03*
X162570000Y-99050000D03*
X162570000Y-101590000D03*
X162570000Y-104130000D03*
X162570000Y-106670000D03*
X162570000Y-109210000D03*
X154950000Y-109210000D03*
X154950000Y-106670000D03*
X154950000Y-104130000D03*
X154950000Y-101590000D03*
X154950000Y-99050000D03*
X154950000Y-96510000D03*
X154950000Y-93970000D03*
D16*
X154950000Y-91430000D03*
D12*
X101600000Y-52705000D03*
D15*
X111760000Y-52705000D03*
D12*
X166370000Y-106720000D03*
X166370000Y-109220000D03*
D13*
X167640000Y-47275000D03*
D14*
X165100000Y-47275000D03*
D17*
X171704000Y-136612000D03*
X169164000Y-136612000D03*
X166624000Y-136612000D03*
X164084000Y-136612000D03*
X161544000Y-136612000D03*
X159004000Y-136612000D03*
X156464000Y-136612000D03*
X153924000Y-136612000D03*
X151384000Y-136612000D03*
X148844000Y-136612000D03*
X146304000Y-136612000D03*
X143764000Y-136612000D03*
X141224000Y-136612000D03*
X138684000Y-136612000D03*
X136144000Y-136612000D03*
X133604000Y-136612000D03*
X131064000Y-136612000D03*
X128524000Y-136612000D03*
X125984000Y-136612000D03*
X123444000Y-136612000D03*
X120904000Y-136612000D03*
X118364000Y-136612000D03*
X115824000Y-136612000D03*
X113284000Y-136612000D03*
X110744000Y-136612000D03*
X108204000Y-136612000D03*
X105664000Y-136612000D03*
X103124000Y-136612000D03*
X100584000Y-136612000D03*
X98044000Y-136612000D03*
X95504000Y-136612000D03*
D16*
X101610000Y-60965000D03*
D15*
X101610000Y-63505000D03*
X101610000Y-66045000D03*
X101610000Y-68585000D03*
X101610000Y-71125000D03*
X101610000Y-73665000D03*
X101610000Y-76205000D03*
X101610000Y-78745000D03*
X101610000Y-81285000D03*
X101610000Y-83825000D03*
X109230000Y-83825000D03*
X109230000Y-81285000D03*
X109230000Y-78745000D03*
X109230000Y-76205000D03*
X109230000Y-73665000D03*
X109230000Y-71125000D03*
X109230000Y-68585000D03*
X109230000Y-66045000D03*
X109230000Y-63505000D03*
X109230000Y-60965000D03*
D12*
X178435000Y-71755000D03*
X178435000Y-68985000D03*
X178435000Y-66215000D03*
X178435000Y-63445000D03*
X175595000Y-73140000D03*
X175595000Y-70370000D03*
X175595000Y-67600000D03*
X175595000Y-64830000D03*
D16*
X175595000Y-62060000D03*
D18*
X175895000Y-55100000D03*
X175895000Y-80100000D03*
D12*
X166370000Y-96520000D03*
X166370000Y-99020000D03*
X166370000Y-76200000D03*
X166370000Y-78700000D03*
D16*
X121920000Y-52705000D03*
D15*
X124460000Y-52705000D03*
X127000000Y-52705000D03*
X129540000Y-52705000D03*
X132080000Y-52705000D03*
X134620000Y-52705000D03*
X137160000Y-52705000D03*
X139700000Y-52705000D03*
X142240000Y-52705000D03*
D19*
X121285000Y-116840000D03*
D20*
X131445000Y-116840000D03*
D13*
X121920000Y-47275000D03*
D14*
X119380000Y-47275000D03*
D12*
X162560000Y-52705000D03*
D15*
X152400000Y-52705000D03*
D12*
X160000000Y-57785000D03*
X157500000Y-57785000D03*
D10*
X86990000Y-86360000D03*
D11*
X89530000Y-86360000D03*
X86990000Y-88900000D03*
X89530000Y-88900000D03*
D12*
X160000000Y-88265000D03*
X157500000Y-88265000D03*
X166370000Y-61000000D03*
X166370000Y-63500000D03*
D13*
X106680000Y-47275000D03*
D14*
X104140000Y-47275000D03*
D10*
X86995000Y-96520000D03*
D11*
X89535000Y-96520000D03*
D16*
X154940000Y-60960000D03*
D15*
X154940000Y-63500000D03*
X154940000Y-66040000D03*
X154940000Y-68580000D03*
X154940000Y-71120000D03*
X154940000Y-73660000D03*
X154940000Y-76200000D03*
X154940000Y-78740000D03*
X162560000Y-78740000D03*
X162560000Y-76200000D03*
X162560000Y-73660000D03*
X162560000Y-71120000D03*
X162560000Y-68580000D03*
X162560000Y-66040000D03*
X162560000Y-63500000D03*
X162560000Y-60960000D03*
D18*
X175895000Y-117920000D03*
X175895000Y-92920000D03*
D16*
X175595000Y-110960000D03*
D12*
X175595000Y-108190000D03*
X175595000Y-105420000D03*
X175595000Y-102650000D03*
X175595000Y-99880000D03*
X178435000Y-109575000D03*
X178435000Y-106805000D03*
X178435000Y-104035000D03*
X178435000Y-101265000D03*
D16*
X114300000Y-60960000D03*
D15*
X114300000Y-63500000D03*
X114300000Y-66040000D03*
X114300000Y-68580000D03*
X114300000Y-71120000D03*
X114300000Y-73660000D03*
X114300000Y-76200000D03*
X114300000Y-78740000D03*
X114300000Y-81280000D03*
X114300000Y-83820000D03*
X114300000Y-86360000D03*
X114300000Y-88900000D03*
X114300000Y-91440000D03*
X114300000Y-93980000D03*
X114300000Y-96520000D03*
X114300000Y-99060000D03*
X114300000Y-101600000D03*
X114300000Y-104140000D03*
X114300000Y-106680000D03*
X114300000Y-109220000D03*
X129540000Y-109220000D03*
X129540000Y-106680000D03*
X129540000Y-104140000D03*
X129540000Y-101600000D03*
X129540000Y-99060000D03*
X129540000Y-96520000D03*
X129540000Y-93980000D03*
X129540000Y-91440000D03*
X129540000Y-88900000D03*
X129540000Y-86360000D03*
X129540000Y-83820000D03*
X129540000Y-81280000D03*
X129540000Y-78740000D03*
X129540000Y-76200000D03*
X129540000Y-73660000D03*
X129540000Y-71120000D03*
X129540000Y-68580000D03*
X129540000Y-66040000D03*
X129540000Y-63500000D03*
X129540000Y-60960000D03*
D16*
X101600000Y-93980000D03*
D15*
X101600000Y-96520000D03*
X101600000Y-99060000D03*
X101600000Y-101600000D03*
X101600000Y-104140000D03*
X101600000Y-106680000D03*
X101600000Y-109220000D03*
X109220000Y-109220000D03*
X109220000Y-106680000D03*
X109220000Y-104140000D03*
X109220000Y-101600000D03*
X109220000Y-99060000D03*
X109220000Y-96520000D03*
X109220000Y-93980000D03*
D12*
X120650000Y-57785000D03*
X123150000Y-57785000D03*
X141605000Y-119380000D03*
X141605000Y-121880000D03*
D16*
X134620000Y-60960000D03*
D15*
X134620000Y-63500000D03*
X134620000Y-66040000D03*
X134620000Y-68580000D03*
X134620000Y-71120000D03*
X134620000Y-73660000D03*
X134620000Y-76200000D03*
X134620000Y-78740000D03*
X134620000Y-81280000D03*
X134620000Y-83820000D03*
X134620000Y-86360000D03*
X134620000Y-88900000D03*
X134620000Y-91440000D03*
X134620000Y-93980000D03*
X134620000Y-96520000D03*
X134620000Y-99060000D03*
X134620000Y-101600000D03*
X134620000Y-104140000D03*
X134620000Y-106680000D03*
X134620000Y-109220000D03*
X149860000Y-109220000D03*
X149860000Y-106680000D03*
X149860000Y-104140000D03*
X149860000Y-101600000D03*
X149860000Y-99060000D03*
X149860000Y-96520000D03*
X149860000Y-93980000D03*
X149860000Y-91440000D03*
X149860000Y-88900000D03*
X149860000Y-86360000D03*
X149860000Y-83820000D03*
X149860000Y-81280000D03*
X149860000Y-78740000D03*
X149860000Y-76200000D03*
X149860000Y-73660000D03*
X149860000Y-71120000D03*
X149860000Y-68580000D03*
X149860000Y-66040000D03*
X149860000Y-63500000D03*
X149860000Y-60960000D03*
D19*
X121285000Y-124460000D03*
D20*
X131445000Y-124460000D03*
M02*
